<svg id="Layer_1" data-name="Layer 1" xmlns="http://www.w3.org/2000/svg" viewBox="0 0 58 58"><defs><style>.cls-1{fill:#e5bbbb;}</style></defs><path class="cls-1" d="M28.5,45.11H19A10.87,10.87,0,0,1,8.14,34.25V9.8a4.37,4.37,0,0,1,4.29-4.35H35.08A4.41,4.41,0,0,1,39.43,9.8V34.25A10.9,10.9,0,0,1,28.5,45.11ZM12.43,7.25A2.56,2.56,0,0,0,9.94,9.8V34.25A9.06,9.06,0,0,0,19,43.31h9.5a9.1,9.1,0,0,0,9.13-9.06V9.8a2.61,2.61,0,0,0-2.55-2.55Z"/><path class="cls-1" d="M23.79,7.25A3.66,3.66,0,0,1,20.1,3.62,3.66,3.66,0,0,1,23.79,0a3.58,3.58,0,0,1,3.62,3.62.9.9,0,1,1-1.8,0A1.8,1.8,0,0,0,23.79,1.8a1.86,1.86,0,0,0-1.9,1.82,1.87,1.87,0,0,0,1.9,1.83.9.9,0,0,1,0,1.8Z"/><path class="cls-1" d="M28.5,49.83H19a.9.9,0,0,1-.9-.9v-1.4a.9.9,0,0,1,1.8,0V48h7.7V44.21a.9.9,0,0,1,1.8,0v4.72A.9.9,0,0,1,28.5,49.83Z"/><path class="cls-1" d="M21.06,58a.9.9,0,0,1-.9-.9V48.93a.9.9,0,0,1,1.8,0V57.1A.9.9,0,0,1,21.06,58Z"/><path class="cls-1" d="M26.51,54a.9.9,0,0,1-.9-.9V48.93a.9.9,0,0,1,1.8,0v4.12A.9.9,0,0,1,26.51,54Z"/><path class="cls-1" d="M36.74,58H30.56a4.9,4.9,0,0,1-4.95-5,.9.9,0,0,1,1.8,0,3.11,3.11,0,0,0,3.15,3.15h6.18a9.35,9.35,0,0,0,9.33-9.33V29.6a.9.9,0,1,1,1.8,0V46.87A11.18,11.18,0,0,1,36.74,58Z"/><path class="cls-1" d="M49,30.5H45a.9.9,0,1,1,0-1.8h3.08V20.53H45.88v5.68a.9.9,0,0,1-1.8,0V19.63a.9.9,0,0,1,.9-.9h4a.9.9,0,0,1,.9.9v10A.9.9,0,0,1,49,30.5Z"/><path class="cls-1" d="M47,20.53a.9.9,0,0,1-.9-.9V14.45a.9.9,0,0,1,1.8,0v5.18A.9.9,0,0,1,47,20.53Z"/><path class="cls-1" d="M31.82,12h-1a.9.9,0,0,1,0-1.8h1a.9.9,0,0,1,0,1.8Z"/><path class="cls-1" d="M32.82,16.75h-2a.9.9,0,1,1,0-1.8h2a.9.9,0,0,1,0,1.8Z"/><path class="cls-1" d="M31.82,21.46h-1a.9.9,0,0,1,0-1.8h1a.9.9,0,0,1,0,1.8Z"/><path class="cls-1" d="M38.53,26.18H12.76a.9.9,0,0,1,0-1.8H38.53a.9.9,0,1,1,0,1.8Z"/><path class="cls-1" d="M16.15,30.5H16a.9.9,0,1,1,0-1.8h.14a.9.9,0,1,1,0,1.8Z"/><path class="cls-1" d="M21.26,30.5h-.13a.9.9,0,0,1,0-1.8h.13a.9.9,0,1,1,0,1.8Z"/><path class="cls-1" d="M26.38,30.5h-.14a.9.9,0,0,1,0-1.8h.14a.9.9,0,1,1,0,1.8Z"/><path class="cls-1" d="M31.49,30.5h-.13a.9.9,0,0,1,0-1.8h.13a.9.9,0,0,1,0,1.8Z"/><path class="cls-1" d="M13.62,35.35h-.13a.9.9,0,0,1,0-1.8h.13a.9.9,0,0,1,0,1.8Z"/><path class="cls-1" d="M18.74,35.35H18.6a.9.9,0,1,1,0-1.8h.14a.9.9,0,1,1,0,1.8Z"/><path class="cls-1" d="M23.85,35.35h-.13a.9.9,0,1,1,0-1.8h.13a.9.9,0,0,1,0,1.8Z"/><path class="cls-1" d="M29,35.35h-.14a.9.9,0,0,1,0-1.8H29a.9.9,0,1,1,0,1.8Z"/><path class="cls-1" d="M34.08,35.35H34a.9.9,0,1,1,0-1.8h.13a.9.9,0,1,1,0,1.8Z"/><path class="cls-1" d="M16.15,40.13H16a.9.9,0,0,1,0-1.8h.14a.9.9,0,0,1,0,1.8Z"/><path class="cls-1" d="M21.26,40.13h-.13a.9.9,0,1,1,0-1.8h.13a.9.9,0,0,1,0,1.8Z"/><path class="cls-1" d="M26.38,40.13h-.14a.9.9,0,0,1,0-1.8h.14a.9.9,0,1,1,0,1.8Z"/><path class="cls-1" d="M31.49,40.13h-.13a.9.9,0,0,1,0-1.8h.13a.9.9,0,1,1,0,1.8Z"/></svg>