<svg id="Layer_1" data-name="Layer 1" xmlns="http://www.w3.org/2000/svg" viewBox="0 0 58 58"><defs><style>.cls-1{fill:#e5bbbb;}</style></defs><path class="cls-1" d="M23.94,31H19.42a.9.9,0,0,1-.9-.9V24.84H13.25a.9.9,0,0,1-.9-.9V19.42a.89.89,0,0,1,.9-.89h5.27V13.25a.9.9,0,0,1,.9-.9h4.52a.9.9,0,0,1,.9.9v5.28h5.27a.89.89,0,0,1,.9.89v4.52a.9.9,0,0,1-.9.9H26.66a.9.9,0,0,1,0-1.8h2.55V20.32H23.94a.9.9,0,0,1-.9-.9V14.15H20.32v5.27a.9.9,0,0,1-.9.9H14.15V23h5.27a.9.9,0,0,1,.9.9v5.27H23V23.94a.9.9,0,0,1,1.8,0v6.17A.9.9,0,0,1,23.94,31Z"/><path class="cls-1" d="M21.68,39.45A17.77,17.77,0,1,1,39.44,21.68,17.79,17.79,0,0,1,21.68,39.45Zm0-33.73a16,16,0,1,0,16,16A16,16,0,0,0,21.68,5.72Z"/><path class="cls-1" d="M21.68,43.36A21.66,21.66,0,0,1,0,21.68,21.68,21.68,0,0,1,21.68,0,21.68,21.68,0,0,1,43.36,21.68a21.36,21.36,0,0,1-3.12,11.23A3.06,3.06,0,0,0,40,35.59a.9.9,0,0,1-1.7.6A4.89,4.89,0,0,1,38.71,32a19.49,19.49,0,0,0,2.85-10.28A19.88,19.88,0,1,0,21.68,41.56,19.49,19.49,0,0,0,32,38.71h0a4.84,4.84,0,0,1,5.94.74L39.51,41a.9.9,0,0,1-1.27,1.27l-1.59-1.59a3,3,0,0,0-3.75-.46A21.34,21.34,0,0,1,21.68,43.36Z"/><path class="cls-1" d="M40.07,47a.85.85,0,0,1-.63-.26L36.65,44a.88.88,0,0,1,0-1.27l6-6a.91.91,0,0,1,1.27,0l2.79,2.79a.88.88,0,0,1,.26.63.9.9,0,0,1-.26.64l-3,3a.9.9,0,0,1-1.27,0,.91.91,0,0,1,0-1.28l2.35-2.35-1.52-1.51-4.77,4.77,1.52,1.51.36-.36a.9.9,0,0,1,1.27,1.27l-1,1A.89.89,0,0,1,40.07,47Z"/><path class="cls-1" d="M53.75,58a2.54,2.54,0,0,1-1.83-.76L40.43,45.75a.9.9,0,1,1,1.27-1.27L53.19,56a.79.79,0,0,0,1.12,0L56,54.31a.8.8,0,0,0,0-1.12L44.48,41.7a.9.9,0,1,1,1.27-1.27L57.24,51.92a2.58,2.58,0,0,1,0,3.66l-1.66,1.66A2.57,2.57,0,0,1,53.75,58Z"/></svg>