<svg id="Layer_1" data-name="Layer 1" xmlns="http://www.w3.org/2000/svg" viewBox="0 0 58 58"><defs><style>.cls-1{fill:#e5bbbb;}</style></defs><path class="cls-1" d="M29.66,56.83c-2.47,0-7.34-1.29-12.56-2.74-1.69-.47-3.14-.87-3.74-1a1.12,1.12,0,0,1-.9-1.3,1.11,1.11,0,0,1,1.3-.9c.7.12,2.13.52,3.94,1,3.8,1.06,10.2,2.85,12.23,2.65,2.71-.22,14.9-8.8,16.64-12.83a2.17,2.17,0,0,0,.29-1.08c-1.3-.5-9.13,3.74-10.39,4.9a1.14,1.14,0,0,1-1.58,0,1.11,1.11,0,0,1,0-1.56c.39-.38,10.33-7,13.33-5,.7.47,1.35,1.5.41,3.68C46.62,47.29,34,56.5,30.11,56.81Z"/><path class="cls-1" d="M31.46,49l-.74,0-.58,0a78.31,78.31,0,0,1-8.23-1,1.12,1.12,0,0,1,.42-2.2,75,75,0,0,0,8,1l.58,0c2.29.18,3.72-.76,3.8-1.3,0-.31-.64-1.09-3-1.56a24.82,24.82,0,0,1-8.6-3.39A11.91,11.91,0,0,0,19.72,39C17,38.36,10.64,40.41,7.93,43.3a1.12,1.12,0,0,1-1.64-1.54c3.36-3.57,10.45-5.73,13.89-5a13.58,13.58,0,0,1,4.05,1.81,22.89,22.89,0,0,0,7.91,3.12c4.7.94,4.91,3.16,4.79,4.07C36.66,47.66,34.32,49,31.46,49Z"/><path class="cls-1" d="M6,57.54a1.12,1.12,0,0,1-1.06-.76l-.85-2.5a1.12,1.12,0,1,1,2.12-.72L6.69,55l3-1L5.53,41.17l-3,1L5,49.62a1.12,1.12,0,1,1-2.13.69L.05,41.75a1.14,1.14,0,0,1,.07-.85,1.11,1.11,0,0,1,.66-.56L5.91,38.7a1.08,1.08,0,0,1,.86.07,1.11,1.11,0,0,1,.55.65l4.81,15a1.13,1.13,0,0,1-.72,1.41L6.34,57.48A1.07,1.07,0,0,1,6,57.54Z"/><path class="cls-1" d="M35.22,32.78a1.14,1.14,0,0,1-.59-.16c-.84-.53-8.26-5.25-9.19-9.47a6.53,6.53,0,0,1-.22-1.75A6,6,0,0,1,28.37,16a6.31,6.31,0,0,1,3-.79,6.11,6.11,0,0,1,3.88,1.38A6,6,0,0,1,39,15.21a6.57,6.57,0,0,1,2.87.71,1.12,1.12,0,0,1,.5,1.5,1.13,1.13,0,0,1-1.5.5,3.87,3.87,0,0,0-4.82,1,1.13,1.13,0,0,1-.87.41h0a1.11,1.11,0,0,1-.86-.41A3.86,3.86,0,0,0,29.44,18a3.8,3.8,0,0,0-2,3.43,4.47,4.47,0,0,0,.16,1.2c.58,2.63,5.24,6.17,7.61,7.73,2.35-1.56,7-5.09,7.53-7.66A4.61,4.61,0,0,0,43,21.4a4.79,4.79,0,0,0-.38-1.7,1.12,1.12,0,0,1,2.08-.83,6.86,6.86,0,0,1,.54,2.53,6.72,6.72,0,0,1-.31,1.82c-.91,4.15-8.27,8.87-9.1,9.39A1.07,1.07,0,0,1,35.22,32.78Z"/><path class="cls-1" d="M51.15,39a1.08,1.08,0,0,1-.75-.3,1.11,1.11,0,0,1-.07-1.58A20.54,20.54,0,1,0,14.68,23.24a20.1,20.1,0,0,0,2.8,10.35,1.11,1.11,0,1,1-1.91,1.15,22.25,22.25,0,0,1-3.13-11.5A22.78,22.78,0,1,1,52,38.68,1.11,1.11,0,0,1,51.15,39Z"/></svg>