<svg id="Layer_1" data-name="Layer 1" xmlns="http://www.w3.org/2000/svg" viewBox="0 0 58 58"><defs><style>.cls-1{fill:#e5bbbb;}</style></defs><path class="cls-1" d="M52.67,58H5.33a1.12,1.12,0,0,1,0-2.24H52.67a1.12,1.12,0,0,1,0,2.24Z"/><path class="cls-1" d="M50.1,18.63H7.9a1.12,1.12,0,0,1-1.12-1.12V11A1.12,1.12,0,0,1,7.65,9.9L22,6.61a1.12,1.12,0,1,1,.5,2.18L9,11.89v4.5H49v-4.5L35.5,8.79A1.12,1.12,0,1,1,36,6.61L50.35,9.9A1.12,1.12,0,0,1,51.22,11v6.52A1.12,1.12,0,0,1,50.1,18.63Z"/><path class="cls-1" d="M29,11.52a1.12,1.12,0,0,1-1.12-1.12V5.26a1.12,1.12,0,0,1,2.24,0V10.4A1.12,1.12,0,0,1,29,11.52Z"/><path class="cls-1" d="M31.53,9H26.4a1.12,1.12,0,1,1,0-2.24h5.13a1.12,1.12,0,0,1,0,2.24Z"/><path class="cls-1" d="M29,15.73a7.87,7.87,0,1,1,7.9-7.9A7.88,7.88,0,0,1,29,15.73ZM29,2.24A5.63,5.63,0,0,0,29,13.5,5.63,5.63,0,1,0,29,2.24Z"/><path class="cls-1" d="M47.6,58a1.12,1.12,0,0,1-1.12-1.12V17.51a1.12,1.12,0,1,1,2.24,0V56.88A1.12,1.12,0,0,1,47.6,58ZM10.4,58a1.12,1.12,0,0,1-1.12-1.12V17.51a1.12,1.12,0,1,1,2.24,0V56.88A1.12,1.12,0,0,1,10.4,58Z"/><path class="cls-1" d="M26,41H16.52a1.12,1.12,0,0,1-1.12-1.12V33.58a1.12,1.12,0,0,1,1.12-1.12H26a1.12,1.12,0,0,1,1.12,1.12v6.25A1.12,1.12,0,0,1,26,41Zm-8.36-2.24h7.25v-4H17.64Z"/><path class="cls-1" d="M41.48,41H31.93a1.12,1.12,0,0,1-1.12-1.12V33.58a1.12,1.12,0,0,1,1.12-1.12h9.55a1.12,1.12,0,0,1,1.12,1.12v6.25A1.12,1.12,0,0,1,41.48,41Zm-8.43-2.24h7.31v-4H33.05Z"/><path class="cls-1" d="M26,29.69H16.52a1.12,1.12,0,0,1-1.12-1.12V22.32a1.12,1.12,0,0,1,1.12-1.12H26a1.12,1.12,0,0,1,1.12,1.12v6.25A1.12,1.12,0,0,1,26,29.69Zm-8.36-2.24h7.25v-4H17.64Z"/><path class="cls-1" d="M41.48,29.69H31.93a1.12,1.12,0,0,1-1.12-1.12V22.32a1.12,1.12,0,0,1,1.12-1.12h9.55a1.12,1.12,0,0,1,1.12,1.12v6.25A1.12,1.12,0,0,1,41.48,29.69Zm-8.43-2.24h7.31v-4H33.05Z"/><path class="cls-1" d="M33.18,58a1.12,1.12,0,0,1-1.12-1.12V45.75H25.94V56.88a1.12,1.12,0,0,1-2.24,0V44.64a1.12,1.12,0,0,1,1.12-1.12h8.36a1.12,1.12,0,0,1,1.12,1.12V56.88A1.12,1.12,0,0,1,33.18,58Z"/><path class="cls-1" d="M33.18,51.88h-2a1.12,1.12,0,1,1,0-2.24h2a1.12,1.12,0,1,1,0,2.24Z"/><path class="cls-1" d="M13.36,47.2h-3a1.12,1.12,0,1,1,0-2.23h3a1.12,1.12,0,1,1,0,2.23Z"/><path class="cls-1" d="M13.36,51.75h-3a1.12,1.12,0,1,1,0-2.24h3a1.12,1.12,0,0,1,0,2.24Z"/><path class="cls-1" d="M47.6,47.2h-3a1.12,1.12,0,1,1,0-2.23h3a1.12,1.12,0,1,1,0,2.23Z"/><path class="cls-1" d="M47.6,51.75h-3a1.12,1.12,0,0,1,0-2.24h3a1.12,1.12,0,0,1,0,2.24Z"/></svg>