<svg id="Layer_1" data-name="Layer 1" xmlns="http://www.w3.org/2000/svg" viewBox="0 0 58 58"><defs><style>.cls-1{fill:#e5bbbb;}</style></defs><path class="cls-1" d="M56.88,45.78H1.12A1.11,1.11,0,0,1,0,44.67V6.48A1.12,1.12,0,0,1,1.12,5.37H56.88A1.12,1.12,0,0,1,58,6.48V44.67A1.11,1.11,0,0,1,56.88,45.78ZM2.24,43.55H55.76V7.6H2.24Z"/><path class="cls-1" d="M20.87,52.63l-.24,0a1.12,1.12,0,0,1-.85-1.34l1.51-6.85a1.12,1.12,0,1,1,2.19.49L22,51.76A1.11,1.11,0,0,1,20.87,52.63Z"/><path class="cls-1" d="M37.13,52.63A1.11,1.11,0,0,1,36,51.76l-1.52-6.85a1.12,1.12,0,0,1,2.19-.49l1.51,6.85a1.12,1.12,0,0,1-.85,1.34Z"/><path class="cls-1" d="M41.28,52.63H16.66a1.12,1.12,0,1,1,0-2.23H41.28a1.12,1.12,0,1,1,0,2.23Z"/><path class="cls-1" d="M21.26,38.81h0a1.13,1.13,0,0,1-1.07-1L18.47,22.32,17,32.71a1.12,1.12,0,0,1-2.2.09l-2.24-10-.63,1.57a1.12,1.12,0,1,1-2.08-.83l2-4.93a1.1,1.1,0,0,1,1.13-.7,1.12,1.12,0,0,1,1,.87l1.7,7.61,1.89-13.13a1.14,1.14,0,0,1,1.13-1,1.1,1.1,0,0,1,1.09,1L21.57,30.1l1.69-8.88a1.12,1.12,0,0,1,1.06-.91,1.09,1.09,0,0,1,1.12.83l1.19,4.41L28.32,14.8a1.13,1.13,0,0,1,1.11-.94h0a1.11,1.11,0,0,1,1.1.94l1.79,11.07.94-2.35a1.12,1.12,0,0,1,2.08.82L32.9,30.46a1.08,1.08,0,0,1-1.16.7,1.1,1.1,0,0,1-1-.93l-1.32-8.14-1.41,9A1.12,1.12,0,0,1,27,32a1.14,1.14,0,0,1-1.14-.82l-1.3-4.79L22.36,37.9A1.12,1.12,0,0,1,21.26,38.81Z"/><path class="cls-1" d="M10.86,25.05H7.64a1.12,1.12,0,1,1,0-2.24h3.22a1.12,1.12,0,0,1,0,2.24Z"/><path class="cls-1" d="M37.53,25.05H34.3a1.12,1.12,0,1,1,0-2.24h3.23a1.12,1.12,0,0,1,0,2.24Z"/><path class="cls-1" d="M46.94,22.28a1.09,1.09,0,0,1-.6-.17c-.83-.52-5-3.28-5.63-5.9A5.12,5.12,0,0,1,40.55,15a4.08,4.08,0,0,1,6.39-3.35,4.06,4.06,0,0,1,4.31-.19h0A4.06,4.06,0,0,1,53.33,15a4.94,4.94,0,0,1-.17,1.19c-.59,2.6-4.79,5.36-5.62,5.88A1.09,1.09,0,0,1,46.94,22.28Zm-2.3-9.08a1.74,1.74,0,0,0-.9.24,1.81,1.81,0,0,0-1,1.6,2.57,2.57,0,0,0,.1.65c.26,1.16,2.36,3,4,4.13,1.69-1.16,3.78-3,4-4.11a2.48,2.48,0,0,0,.11-.67,1.78,1.78,0,0,0-1-1.59h0a1.8,1.8,0,0,0-2.33.45,1.12,1.12,0,0,1-.87.42h0a1.12,1.12,0,0,1-.87-.42A1.9,1.9,0,0,0,44.64,13.2Z"/><path class="cls-1" d="M49.38,34.2H44.5a1.12,1.12,0,1,1,0-2.24h4.88a1.12,1.12,0,1,1,0,2.24Z"/><path class="cls-1" d="M49.38,28.27H44.5a1.12,1.12,0,1,1,0-2.23h4.88a1.12,1.12,0,1,1,0,2.23Z"/><path class="cls-1" d="M49.38,40.12H44.5a1.12,1.12,0,1,1,0-2.23h4.88a1.12,1.12,0,1,1,0,2.23Z"/></svg>