<svg id="Layer_1" data-name="Layer 1" xmlns="http://www.w3.org/2000/svg" viewBox="0 0 58 58"><defs><style>.cls-1{fill:#e5bbbb;}</style></defs><path class="cls-1" d="M50.84,54.58a2.93,2.93,0,0,1-1.09-.21l-8.33-3.29a28.38,28.38,0,0,1-21.09-2.31,1.12,1.12,0,0,1-.44-1.52,1.11,1.11,0,0,1,1.52-.43,26.23,26.23,0,0,0,19.75,2,1.14,1.14,0,0,1,.73,0l8.69,3.42a.71.71,0,0,0,.76-.13.49.49,0,0,0,.16-.58l-1.88-6.35A1.14,1.14,0,0,1,50,44.06a16,16,0,0,0,5.81-12A15.19,15.19,0,0,0,51.89,22a1.12,1.12,0,0,1,1.69-1.47A17.41,17.41,0,0,1,58,32.06a18,18,0,0,1-6,13.19l1.65,5.59a2.75,2.75,0,0,1-.74,2.95A3.09,3.09,0,0,1,50.84,54.58Z"/><path class="cls-1" d="M7.17,46.07a3,3,0,0,1-2-.79,2.87,2.87,0,0,1-.87-3L6,36.76A18.16,18.16,0,0,1,0,23.5,17.59,17.59,0,0,1,3.65,12.89a1.12,1.12,0,0,1,1.79,1.34,15.43,15.43,0,0,0-3.2,9.27A16.07,16.07,0,0,0,8.05,35.57a1.12,1.12,0,0,1,.33,1.17L6.47,42.92a.61.61,0,0,0,.19.68c.38.32.61.23.69.19l8.77-3.42a1,1,0,0,1,.72,0,25.89,25.89,0,0,0,7.39,1c12.16,0,22.05-8,22.05-17.84s-9.89-17.84-22-17.84A24.93,24.93,0,0,0,9.17,10.5,1.12,1.12,0,1,1,7.81,8.72a27.16,27.16,0,0,1,16.42-5.3c13.39,0,24.29,9,24.29,20.08S37.62,43.58,24.23,43.58a27.87,27.87,0,0,1-7.65-1l-8.4,3.29A2.78,2.78,0,0,1,7.17,46.07Z"/><path class="cls-1" d="M24.23,33.25a1.16,1.16,0,0,1-.6-.17c-.83-.53-8.19-5.25-9.12-9.47a7.46,7.46,0,0,1-.29-1.82,6.11,6.11,0,0,1,3.22-5.39,6.35,6.35,0,0,1,6.79.6A6.38,6.38,0,0,1,31,16.4a1.12,1.12,0,1,1-1.08,2,4,4,0,0,0-4.85.92,1.17,1.17,0,0,1-1.73,0,4,4,0,0,0-4.85-.92,3.9,3.9,0,0,0-2.05,3.43,5.65,5.65,0,0,0,.23,1.31c.57,2.6,5.19,6.13,7.54,7.7,2.37-1.57,7-5.1,7.59-7.67A5.35,5.35,0,0,0,32,21.79a4.1,4.1,0,0,0-.29-1.59,1.11,1.11,0,0,1,.57-1.47,1.1,1.1,0,0,1,1.47.57,6.18,6.18,0,0,1,.49,2.49A7.27,7.27,0,0,1,34,23.64c-.92,4.2-8.34,8.91-9.18,9.44A1.15,1.15,0,0,1,24.23,33.25Z"/></svg>