<svg id="Layer_1" data-name="Layer 1" xmlns="http://www.w3.org/2000/svg" viewBox="0 0 58 58"><defs><style>.cls-1{fill:#e5bbbb;}</style></defs><path class="cls-1" d="M31.13,8H17a4,4,0,0,1-4-4V.9a.9.9,0,0,1,.9-.9H34.25a.9.9,0,0,1,.9.9V4A4,4,0,0,1,31.13,8ZM14.82,1.8V4A2.19,2.19,0,0,0,17,6.18H31.13A2.22,2.22,0,0,0,33.35,4V1.8Z"/><path class="cls-1" d="M26.61,52.42H6.41A3.67,3.67,0,0,1,2.79,48.8V3.62A3.58,3.58,0,0,1,6.41,0H9.93a.9.9,0,1,1,0,1.8H6.41A1.8,1.8,0,0,0,4.59,3.62V48.8a1.87,1.87,0,0,0,1.82,1.82h20.2a.9.9,0,0,1,0,1.8ZM44.41,29a.91.91,0,0,1-.9-.9V3.62A1.8,1.8,0,0,0,41.69,1.8H38.17a.9.9,0,1,1,0-1.8h3.52a3.58,3.58,0,0,1,3.62,3.62V28.14A.9.9,0,0,1,44.41,29Z"/><path class="cls-1" d="M25.48,48.9H7.21a.9.9,0,0,1-.9-.9V4.35a.9.9,0,0,1,.9-.9H10a.9.9,0,1,1,0,1.8H8.11V47.1H25.48a.9.9,0,0,1,0,1.8ZM41,28.77a.9.9,0,0,1-.9-.9V5.25H38.17a.9.9,0,1,1,0-1.8H41a.91.91,0,0,1,.9.9V27.87A.9.9,0,0,1,41,28.77Z"/><path class="cls-1" d="M43.55,52.42H39.76a.9.9,0,0,1-.9-.9V47.24H34.65a.9.9,0,0,1-.9-.9V42.55a.9.9,0,0,1,.9-.9h4.21V37.44a.9.9,0,0,1,.9-.9h3.79a.9.9,0,0,1,.9.9v4.21h4.28a.9.9,0,0,1,.9.9v3.79a.9.9,0,0,1-.9.9H46.47a.9.9,0,0,1,0-1.8h1.36v-2H43.55a.9.9,0,0,1-.9-.9V38.34h-2v4.21a.9.9,0,0,1-.9.9H35.55v2h4.21a.9.9,0,0,1,.9.9v4.28h2V46.34a.9.9,0,1,1,1.8,0v5.18A.9.9,0,0,1,43.55,52.42Z"/><path class="cls-1" d="M41.69,58a13.55,13.55,0,0,1-9.62-4,13.51,13.51,0,0,1,0-19.13A13.54,13.54,0,1,1,41.69,58Zm0-25.24A11.72,11.72,0,1,0,53.41,44.48,11.76,11.76,0,0,0,41.69,32.76Z"/><path class="cls-1" d="M15,20.2A3.21,3.21,0,0,1,11.82,17,3.17,3.17,0,0,1,15,14a.9.9,0,0,1,0,1.8,1.33,1.33,0,1,0,0,2.65A1.34,1.34,0,0,0,16.34,17a.9.9,0,1,1,1.8,0A3.13,3.13,0,0,1,15,20.2Z"/><path class="cls-1" d="M15,30.7a3.21,3.21,0,0,1-3.16-3.16A3.17,3.17,0,0,1,15,24.45a.9.9,0,0,1,0,1.8,1.33,1.33,0,1,0,0,2.65,1.34,1.34,0,0,0,1.36-1.36.9.9,0,1,1,1.8,0A3.13,3.13,0,0,1,15,30.7Z"/><path class="cls-1" d="M15,41.19a3.13,3.13,0,1,1,0-6.25.9.9,0,0,1,0,1.8,1.33,1.33,0,1,0,0,2.65A1.34,1.34,0,0,0,16.34,38a.9.9,0,1,1,1.8,0A3.12,3.12,0,0,1,15,41.19Z"/><path class="cls-1" d="M35.38,16.21H21.49a.9.9,0,1,1,0-1.79H35.38a.9.9,0,1,1,0,1.79Z"/><path class="cls-1" d="M28.47,19.67h-7a.9.9,0,0,1,0-1.8h7a.9.9,0,0,1,0,1.8Z"/><path class="cls-1" d="M35.38,26.78H21.49a.9.9,0,0,1,0-1.8H35.38a.9.9,0,0,1,0,1.8Z"/><path class="cls-1" d="M28.47,30.17h-7a.9.9,0,0,1,0-1.8h7a.9.9,0,0,1,0,1.8Z"/><path class="cls-1" d="M27.21,37.27H21.49a.9.9,0,1,1,0-1.8h5.72a.9.9,0,0,1,0,1.8Z"/><path class="cls-1" d="M25.74,40.66H21.49a.9.9,0,1,1,0-1.8h4.25a.9.9,0,1,1,0,1.8Z"/></svg>