<svg id="Layer_1" data-name="Layer 1" xmlns="http://www.w3.org/2000/svg" viewBox="0 0 58 58"><defs><style>.cls-1{fill:#e5bbbb;}</style></defs><path class="cls-1" d="M29,33.84c-6.8,0-11.92-9.47-11.92-15.6v-.33a1.12,1.12,0,1,1,2.24,0v.33c0,5.15,4.43,13.36,9.68,13.36s9.74-8.09,9.74-13.36c0,.1-.06-.08-.06-.33a1.12,1.12,0,0,1,2.23-.12,2.93,2.93,0,0,1,.07.45C41,24.37,35.8,33.84,29,33.84ZM40.88,17.91h0Z"/><path class="cls-1" d="M39.83,19a1.14,1.14,0,0,1-.76-.3C37,16.78,33.59,15.8,29,15.8s-8,1-10.1,2.93a1.12,1.12,0,0,1-1.88-.82V11.19a5.87,5.87,0,0,1,5.86-5.86h.72a1.12,1.12,0,1,1,0,2.24h-.72a3.58,3.58,0,0,0-3.62,3.62V15.7A19.34,19.34,0,0,1,29,13.56a19.18,19.18,0,0,1,9.68,2.14V11.19a3.63,3.63,0,0,0-3.62-3.62H34.3a1.12,1.12,0,1,1,0-2.24h.79A5.87,5.87,0,0,1,41,11.19v6.72a1.11,1.11,0,0,1-.67,1A1,1,0,0,1,39.83,19Z"/><path class="cls-1" d="M29,12.9a6.45,6.45,0,1,1,6.45-6.45A6.46,6.46,0,0,1,29,12.9ZM29,2.24a4.22,4.22,0,1,0,0,8.43,4.17,4.17,0,0,0,4.21-4.22A4.17,4.17,0,0,0,29,2.24Z"/><path class="cls-1" d="M10.07,46.42a1.21,1.21,0,0,1-.37-.07A1.11,1.11,0,0,1,9,44.92c3.13-8.82,8.63-10.08,14-11.3l1.19-.28a1.12,1.12,0,1,1,.52,2.18l-1.21.28C18.31,37,13.85,38,11.13,45.67A1.14,1.14,0,0,1,10.07,46.42Z"/><path class="cls-1" d="M29,55a1.11,1.11,0,0,1-.82-.36c-4.06-4.4-8.52-10.62-7-19.77A1.15,1.15,0,0,1,22.5,34a1.13,1.13,0,0,1,.92,1.29c-1.06,6.4.92,11.92,6.43,17.89A1.12,1.12,0,0,1,29,55Z"/><path class="cls-1" d="M29,55a1.12,1.12,0,0,1-.83-1.87c3.68-4,7.74-9.73,6.44-17.91a1.12,1.12,0,0,1,2.21-.35c1.45,9.12-3,15.35-7,19.76A1.09,1.09,0,0,1,29,55Z"/><path class="cls-1" d="M24.42,35.55a1.12,1.12,0,0,1-1.12-1.12V31a1.12,1.12,0,1,1,2.24,0v3.42A1.12,1.12,0,0,1,24.42,35.55Z"/><path class="cls-1" d="M47.93,46.42a1.12,1.12,0,0,1-1-.74C44.09,38,39.65,37,34.51,35.8l-1.19-.28a1.12,1.12,0,1,1,.52-2.18l1.17.28c5.29,1.21,10.77,2.47,14,11.29a1.12,1.12,0,0,1-.67,1.44A1.33,1.33,0,0,1,47.93,46.42Z"/><path class="cls-1" d="M33.58,35.55a1.12,1.12,0,0,1-1.12-1.12V31a1.12,1.12,0,0,1,2.24,0v3.42A1.12,1.12,0,0,1,33.58,35.55Z"/><path class="cls-1" d="M29,37.59a7.45,7.45,0,0,1-5.55-2.39,1.12,1.12,0,1,1,1.62-1.54,5.43,5.43,0,0,0,7.8,0,1.12,1.12,0,0,1,1.62,1.54A7.51,7.51,0,0,1,29,37.59Z"/><path class="cls-1" d="M29,58c-11,0-20-5.7-20-12.7a1.12,1.12,0,1,1,2.24,0C11.19,51,19.33,55.76,29,55.76S46.81,51,46.81,45.3a1.12,1.12,0,1,1,2.24,0C49.05,52.3,40,58,29,58Z"/><path class="cls-1" d="M29,7.83a1.12,1.12,0,0,1-1.12-1.12V6.19a1.12,1.12,0,1,1,2.24,0v.52A1.12,1.12,0,0,1,29,7.83Z"/></svg>