<svg id="Layer_1" data-name="Layer 1" xmlns="http://www.w3.org/2000/svg" viewBox="0 0 58 58"><defs><style>.cls-1{fill:#e5bbbb;}</style></defs><path class="cls-1" d="M51.28,58H40.16a1.12,1.12,0,0,1,0-2.24H51.28a4.49,4.49,0,0,0,4.48-4.48V40.16a1.12,1.12,0,0,1,2.24,0V51.28A6.72,6.72,0,0,1,51.28,58ZM17.84,58H6.72A6.72,6.72,0,0,1,0,51.28V40.16a1.12,1.12,0,0,1,2.24,0V51.28a4.49,4.49,0,0,0,4.48,4.48H17.84a1.12,1.12,0,0,1,0,2.24Zm39-39a1.12,1.12,0,0,1-1.12-1.12V6.72a4.49,4.49,0,0,0-4.48-4.48H40.16a1.12,1.12,0,1,1,0-2.24H51.28A6.72,6.72,0,0,1,58,6.72V17.84A1.12,1.12,0,0,1,56.88,19ZM1.12,19A1.12,1.12,0,0,1,0,17.84V6.72A6.72,6.72,0,0,1,6.72,0H17.84a1.12,1.12,0,1,1,0,2.24H6.72A4.49,4.49,0,0,0,2.24,6.72V17.84A1.12,1.12,0,0,1,1.12,19Z"/><path class="cls-1" d="M12.18,50.69a1.1,1.1,0,0,1-1-.62,1.12,1.12,0,0,1,.5-1.5,35.8,35.8,0,0,1,7.75-2.78,4.37,4.37,0,0,0,3.42-3.85c0-.37.08-.72.14-1.06a21.82,21.82,0,0,1-5.33-7c-2-.34-3.91-2.77-4.54-6.08-.48-2.78,0-5.29,1.25-6.64a14.62,14.62,0,0,1,29.2,0c1.28,1.37,1.78,3.95,1.24,6.64-.55,3.24-2.43,5.71-4.47,6.07a22.61,22.61,0,0,1-5.38,7l.12,1a4.47,4.47,0,0,0,3.48,3.84,33.93,33.93,0,0,1,7.71,2.8,1.12,1.12,0,1,1-1,2A31.72,31.72,0,0,0,38.06,48a6.73,6.73,0,0,1-5.2-5.74l-.19-1.63a1.16,1.16,0,0,1,.44-1.07,20,20,0,0,0,5.52-7.23,1.12,1.12,0,0,1,1.13-.62c.86.06,2.38-1.52,2.85-4.27.48-2.38-.08-4.27-.83-4.86a1.07,1.07,0,0,1-.43-.86,12.38,12.38,0,0,0-24.76,0,1.13,1.13,0,0,1-.43.85c-.72.56-1.26,2.45-.84,4.85.54,2.8,2,4.36,2.92,4.28a1.13,1.13,0,0,1,1.13.62,19.35,19.35,0,0,0,5.51,7.22,1.13,1.13,0,0,1,.43,1.18,11.23,11.23,0,0,0-.23,1.5A6.58,6.58,0,0,1,19.93,48a34.08,34.08,0,0,0-7.25,2.6A1,1,0,0,1,12.18,50.69Z"/><path class="cls-1" d="M31.86,26.6a1.1,1.1,0,0,1-.88-.44,1.12,1.12,0,0,1,.2-1.57,3.7,3.7,0,0,0,1.47-2.93A3.65,3.65,0,0,0,29,18a3.58,3.58,0,0,0-3.62,3.62,1.12,1.12,0,0,1-2.24,0,5.89,5.89,0,0,1,11.78,0,5.93,5.93,0,0,1-2.34,4.7A1.11,1.11,0,0,1,31.86,26.6Z"/><path class="cls-1" d="M29,29.36a1.12,1.12,0,0,1-1.12-1.12c0-2,1.61-2.77,2.58-3.24a5.54,5.54,0,0,0,.77-.42,1.11,1.11,0,0,1,1.57.24,1.13,1.13,0,0,1-.24,1.56A8,8,0,0,1,31.4,27c-1,.5-1.31.72-1.31,1.23A1.12,1.12,0,0,1,29,29.36Z"/><path class="cls-1" d="M29,33.77a1.12,1.12,0,0,1-1.12-1.12A1.21,1.21,0,0,1,29,31.44a1,1,0,0,1,1.12,1v.19A1.12,1.12,0,0,1,29,33.77Z"/></svg>