<svg id="Layer_1" data-name="Layer 1" xmlns="http://www.w3.org/2000/svg" viewBox="0 0 58 58"><defs><style>.cls-1{fill:#e5bbbb;}</style></defs><path class="cls-1" d="M33.44,47.66H5.6A5.67,5.67,0,0,1,0,42.07V12A5.67,5.67,0,0,1,5.6,6.39h3a1.12,1.12,0,0,1,0,2.24h-3A3.4,3.4,0,0,0,2.24,12V42.07A3.41,3.41,0,0,0,5.6,45.43H33.44a1.12,1.12,0,1,1,0,2.23ZM47.8,29.3a1.12,1.12,0,0,1-1.12-1.12V12a3.38,3.38,0,0,0-3-3.36A1.12,1.12,0,1,1,44,6.4,5.6,5.6,0,0,1,48.91,12v16.2A1.12,1.12,0,0,1,47.8,29.3ZM40.36,8.63H35.88a1.12,1.12,0,0,1,0-2.24h4.48a1.12,1.12,0,0,1,0,2.24Zm-8,0H27.91a1.12,1.12,0,0,1,0-2.24h4.48a1.12,1.12,0,0,1,0,2.24Zm-7.9,0H20a1.12,1.12,0,0,1,0-2.24h4.54a1.12,1.12,0,1,1,0,2.24Zm-8,0H12.05a1.12,1.12,0,0,1,0-2.24h4.47a1.12,1.12,0,1,1,0,2.24Z"/><path class="cls-1" d="M47.8,17.71h-42a1.12,1.12,0,1,1,0-2.24h42a1.12,1.12,0,0,1,0,2.24Z"/><path class="cls-1" d="M9.41,29.76a3.66,3.66,0,1,1,0-7.31,1.12,1.12,0,0,1,0,2.24A1.43,1.43,0,0,0,8,26.07a1.45,1.45,0,0,0,1.44,1.45,1.41,1.41,0,0,0,1.45-1.45,1.12,1.12,0,1,1,2.24,0A3.65,3.65,0,0,1,9.41,29.76Z"/><path class="cls-1" d="M19.49,29.76a3.66,3.66,0,1,1,0-7.31,1.12,1.12,0,0,1,0,2.24A1.4,1.4,0,0,0,18,26.07a1.42,1.42,0,1,0,2.83,0,1.12,1.12,0,1,1,2.24,0A3.62,3.62,0,0,1,19.49,29.76Z"/><path class="cls-1" d="M29.49,29.76a3.66,3.66,0,1,1,0-7.31,1.12,1.12,0,0,1,0,2.24,1.4,1.4,0,0,0-1.44,1.38,1.41,1.41,0,0,0,1.44,1.45,1.45,1.45,0,0,0,1.45-1.45,1.12,1.12,0,1,1,2.24,0A3.69,3.69,0,0,1,29.49,29.76Z"/><path class="cls-1" d="M39.5,29.76a3.66,3.66,0,1,1,0-7.31,1.12,1.12,0,0,1,0,2.24,1.42,1.42,0,1,0,0,2.83A1.41,1.41,0,0,0,41,26.07a1.12,1.12,0,1,1,2.24,0A3.65,3.65,0,0,1,39.5,29.76Z"/><path class="cls-1" d="M9.41,40.75a3.74,3.74,0,0,1-3.68-3.68,3.69,3.69,0,0,1,3.68-3.69,1.12,1.12,0,1,1,0,2.24A1.45,1.45,0,0,0,8,37.07a1.47,1.47,0,0,0,1.44,1.44,1.45,1.45,0,0,0,1.45-1.44,1.12,1.12,0,0,1,2.24,0A3.69,3.69,0,0,1,9.41,40.75Z"/><path class="cls-1" d="M19.49,40.75a3.69,3.69,0,1,1,0-7.37,1.12,1.12,0,1,1,0,2.24A1.41,1.41,0,0,0,18,37.07a1.45,1.45,0,0,0,1.45,1.44,1.43,1.43,0,0,0,1.38-1.44,1.12,1.12,0,0,1,2.24,0A3.66,3.66,0,0,1,19.49,40.75Z"/><path class="cls-1" d="M29.49,40.75a3.69,3.69,0,0,1,0-7.37,1.12,1.12,0,1,1,0,2.24,1.41,1.41,0,0,0-1.44,1.45,1.44,1.44,0,0,0,1.44,1.44,1.48,1.48,0,0,0,1.45-1.44,1.12,1.12,0,0,1,2.24,0A3.74,3.74,0,0,1,29.49,40.75Z"/><path class="cls-1" d="M8.56,12.38a1.12,1.12,0,0,1-1.12-1.12V5.73a1.12,1.12,0,1,1,2.24,0v5.53A1.12,1.12,0,0,1,8.56,12.38Z"/><path class="cls-1" d="M16.52,12.38a1.12,1.12,0,0,1-1.11-1.12V5.73a1.12,1.12,0,1,1,2.23,0v5.53A1.12,1.12,0,0,1,16.52,12.38Z"/><path class="cls-1" d="M24.49,12.38a1.12,1.12,0,0,1-1.12-1.12V5.73a1.12,1.12,0,1,1,2.24,0v5.53A1.12,1.12,0,0,1,24.49,12.38Z"/><path class="cls-1" d="M32.39,12.38a1.12,1.12,0,0,1-1.12-1.12V5.73a1.12,1.12,0,1,1,2.24,0v5.53A1.12,1.12,0,0,1,32.39,12.38Z"/><path class="cls-1" d="M40.36,12.38a1.12,1.12,0,0,1-1.12-1.12V5.73a1.12,1.12,0,0,1,2.24,0v5.53A1.12,1.12,0,0,1,40.36,12.38Z"/><path class="cls-1" d="M50.23,53.39H44a1.12,1.12,0,0,1-1.12-1.12V45.62a1.12,1.12,0,0,1,2.24,0v5.53h4V45.62a1.12,1.12,0,0,1,1.12-1.11h5.53v-4H50.23a1.12,1.12,0,0,1-1.12-1.11V33.91h-4v5.53A1.12,1.12,0,0,1,44,40.55H38.51v4h1.78a1.12,1.12,0,1,1,0,2.23h-2.9a1.12,1.12,0,0,1-1.12-1.12V39.44a1.12,1.12,0,0,1,1.12-1.12h5.53V32.79A1.12,1.12,0,0,1,44,31.67h6.19a1.12,1.12,0,0,1,1.12,1.12v5.53h5.53A1.12,1.12,0,0,1,58,39.44v6.18a1.12,1.12,0,0,1-1.12,1.12H51.35v5.53A1.12,1.12,0,0,1,50.23,53.39Z"/></svg>