<svg id="Layer_1" data-name="Layer 1" xmlns="http://www.w3.org/2000/svg" viewBox="0 0 58 58"><defs><style>.cls-1{fill:#e5bbbb;}</style></defs><path class="cls-1" d="M53.26,41.74H4.74A4.74,4.74,0,0,1,0,37V8.1A4.74,4.74,0,0,1,4.74,3.36H53.26A4.74,4.74,0,0,1,58,8.1V37A4.74,4.74,0,0,1,53.26,41.74ZM4.74,5.6a2.53,2.53,0,0,0-2.5,2.49V37a2.54,2.54,0,0,0,2.5,2.51H53.26A2.54,2.54,0,0,0,55.76,37V8.1a2.53,2.53,0,0,0-2.5-2.5Z"/><path class="cls-1" d="M50.1,54.64H7.9a4.23,4.23,0,0,1-4.28-4.19V40.62A1.12,1.12,0,0,1,4.74,39.5H53.26a1.12,1.12,0,0,1,1.12,1.12h0v9.74A4.28,4.28,0,0,1,50.1,54.64ZM5.86,41.74v8.62a2,2,0,0,0,1.95,2H50.1a2,2,0,0,0,2-2V41.74Z"/><path class="cls-1" d="M18.24,50.5a3.43,3.43,0,0,1-3.49-3.36v-.07a3.46,3.46,0,1,1,3.49,3.43Zm0-4.61A1.22,1.22,0,0,0,17,47.07a1.18,1.18,0,0,0,1.2,1.19h0a1.17,1.17,0,0,0,1.18-1.16v0a1.2,1.2,0,0,0-1.18-1.18Z"/><path class="cls-1" d="M27.32,50.5a3.43,3.43,0,1,1,3.42-3.43,3.39,3.39,0,0,1-3.35,3.43Zm0-4.61a1.2,1.2,0,0,0-1.18,1.18,1.17,1.17,0,0,0,1.16,1.19h0a1.14,1.14,0,0,0,1.19-1.08v-.11a1.17,1.17,0,0,0-1.16-1.18Z"/><path class="cls-1" d="M42.13,48.32H40.36a1.12,1.12,0,0,1-1.12-1.11h0a1.12,1.12,0,0,1,1.11-1.12h1.78a1.12,1.12,0,0,1,1.12,1.12h0a1.12,1.12,0,0,1-1.11,1.12Z"/><path class="cls-1" d="M35.88,48.32H34.17a1.12,1.12,0,0,1-1.12-1.11h0a1.12,1.12,0,0,1,1.12-1.12h1.71A1.12,1.12,0,0,1,37,47.2h0a1.12,1.12,0,0,1-1.12,1.12Z"/><path class="cls-1" d="M48.33,48.32H46.61a1.12,1.12,0,0,1-1.12-1.11h0a1.12,1.12,0,0,1,1.12-1.12h1.72a1.12,1.12,0,0,1,1.11,1.12h0a1.1,1.1,0,0,1-1.11,1.12Z"/><path class="cls-1" d="M11.39,48.32H9.68a1.12,1.12,0,0,1-1.12-1.11h0a1.12,1.12,0,0,1,1.11-1.12h1.72a1.12,1.12,0,0,1,1.12,1.12h0a1.12,1.12,0,0,1-1.12,1.12Z"/><path class="cls-1" d="M29,35a1.16,1.16,0,0,1-.6-.17c-.47-.3-11.6-7.36-12.94-13.34A9.13,9.13,0,0,1,15.13,19,8.34,8.34,0,0,1,29,12.81a8.46,8.46,0,0,1,9.62-1.09h0A8.38,8.38,0,0,1,43,19a7.31,7.31,0,0,1-.47,2.66c-1.22,5.81-12.41,12.87-12.89,13.17A1.12,1.12,0,0,1,29,35ZM23.49,12.89a6,6,0,0,0-2.94.78A6.13,6.13,0,0,0,17.37,19a6.56,6.56,0,0,0,.28,1.92c.9,4,8,9.43,11.37,11.63C32.38,30.36,39.53,25,40.37,21a5.73,5.73,0,0,0,.37-2,6.16,6.16,0,0,0-3.18-5.34h0a6.19,6.19,0,0,0-7.69,1.47,1,1,0,0,1-.86.39,1.14,1.14,0,0,1-.84-.4,6.09,6.09,0,0,0-4.68-2.24Z"/></svg>