<svg id="Layer_1" data-name="Layer 1" xmlns="http://www.w3.org/2000/svg" viewBox="0 0 58 58"><defs><style>.cls-1{fill:#e5bbbb;}</style></defs><path class="cls-1" d="M40.56,50.83a5.76,5.76,0,0,1-5.75-5.75,5.69,5.69,0,0,1,5.75-5.75,5.75,5.75,0,0,1,0,11.5Zm0-9.7a3.9,3.9,0,0,0-4,3.95,4,4,0,1,0,4-3.95Z"/><path class="cls-1" d="M42.42,46a.9.9,0,0,1-.9-.9,1,1,0,0,0-1-1,.9.9,0,1,1,0-1.8,2.76,2.76,0,0,1,2.76,2.76A.9.9,0,0,1,42.42,46Z"/><path class="cls-1" d="M22.56,58a9.39,9.39,0,0,1-9.41-9.34V35.71a.9.9,0,0,1,1.8,0V48.66a7.61,7.61,0,0,0,15.21,0V27.21a5.65,5.65,0,1,1,11.3,0v9.7a.9.9,0,0,1-1.8,0v-9.7a3.85,3.85,0,1,0-7.7,0V48.66A9.38,9.38,0,0,1,22.56,58Z"/><path class="cls-1" d="M14.05,36.61H12.33a.9.9,0,0,1-.9-.9v-2A14.09,14.09,0,0,1,0,19.9V18.17a.9.9,0,0,1,.9-.9H4.35a.9.9,0,0,1,.9.9V19.9a8.8,8.8,0,0,0,17.6,0V18.17a.9.9,0,0,1,.9-.9h3.52a.9.9,0,0,1,.9.9V19.9a14.1,14.1,0,0,1-12.2,14,.9.9,0,1,1-.24-1.79A12.32,12.32,0,0,0,26.37,19.9v-.83H24.65v.83a10.6,10.6,0,1,1-21.2,0v-.83H1.8v.83A12.33,12.33,0,0,0,12.45,32.09a.91.91,0,0,1,.78.9v1.82h.82a.9.9,0,1,1,0,1.8Z"/><path class="cls-1" d="M2.63,15.35a.9.9,0,0,1-.9-.9V4.35A4.3,4.3,0,0,1,6.08,0a.9.9,0,1,1,0,1.8A2.52,2.52,0,0,0,3.53,4.35v10.1A.9.9,0,0,1,2.63,15.35Z"/><path class="cls-1" d="M25.55,15.35a.9.9,0,0,1-.9-.9V4.35A2.59,2.59,0,0,0,22.09,1.8a.9.9,0,1,1,0-1.8,4.36,4.36,0,0,1,4.36,4.35v10.1A.9.9,0,0,1,25.55,15.35Z"/><path class="cls-1" d="M46.4,21.46H42.55a.9.9,0,0,1-.9-.9V16.35H37.44a.9.9,0,0,1-.9-.9V11.66a.9.9,0,0,1,.9-.9h4.21V6.48a.9.9,0,0,1,.9-.9H46.4a.9.9,0,0,1,.9.9v4.28h4.22a.9.9,0,0,1,.9.9v3.79a.9.9,0,0,1-.9.9H49.26a.9.9,0,0,1,0-1.8h1.36v-2H46.4a.89.89,0,0,1-.89-.9V7.38H43.45v4.28a.9.9,0,0,1-.9.9H38.34v2h4.21a.9.9,0,0,1,.9.9v4.21h2.06V15.45a.9.9,0,1,1,1.79,0v5.11A.9.9,0,0,1,46.4,21.46Z"/><path class="cls-1" d="M44.48,27.11h-.07a.9.9,0,1,1,0-1.8h.07A11.76,11.76,0,1,0,32.69,13.52a11.89,11.89,0,0,0,1.17,5.06.9.9,0,1,1-1.62.78A13.53,13.53,0,1,1,54,23.14,13.39,13.39,0,0,1,44.48,27.11Z"/></svg>