<svg xmlns="http://www.w3.org/2000/svg" xmlns:xlink="http://www.w3.org/1999/xlink" width="23.144" height="24.741" viewBox="0 0 23.144 24.741"><defs><style>.a{fill:#fff;}.b{filter:url(#a);}</style><filter id="a" x="0" y="0" width="23.144" height="24.741" filterUnits="userSpaceOnUse"><feOffset dy="1" input="SourceAlpha"/><feGaussianBlur stdDeviation="1" result="b"/><feFlood flood-opacity="0.38"/><feComposite operator="in" in2="b"/><feComposite in="SourceGraphic"/></filter></defs><g class="b" transform="matrix(1, 0, 0, 1, 0, 0)"><path class="a" d="M-3630.929-4412a2.452,2.452,0,0,1-1.473-.519,2.877,2.877,0,0,1-1.124-2.366v-13.023a2.727,2.727,0,0,1,1.19-2.354,2.373,2.373,0,0,1,2.489-.228.3.3,0,0,0,.03.016l12.006,6.511a2.9,2.9,0,0,1,1.428,2.567,2.747,2.747,0,0,1-1.458,2.583l-11.977,6.495A2.09,2.09,0,0,1-3630.929-4412Zm.037-16.709a.5.5,0,0,0-.293.12.784.784,0,0,0-.309.681v13.023a.831.831,0,0,0,.312.743c.209.155.291.1.346.068l12.06-6.542c.113-.058.364-.183.364-.78a.832.832,0,0,0-.4-.8l-11.951-6.48A.307.307,0,0,0-3630.892-4428.713Z" transform="translate(3636.52 4432.75)"/></g></svg>