<svg xmlns="http://www.w3.org/2000/svg" width="306.744" height="114.076" viewBox="0 0 306.744 114.076"><defs><style>.a{fill:#fff;opacity:0.62;}</style></defs><path class="a" d="M6348.924-1260.244c9.571-3.424,19.981-3.388,30.146-3.312-10.636-17.2-.99-43.265,18.284-49.4s42.206,9.563,43.465,29.75c9.654-14.1,28.9-20.783,45.217-15.709s28.375,21.5,28.333,38.583c30.678-15.8,73.24-.551,86.907,31.135,7.328-3.234,15.267-6.54,23.1-4.891s14.491,10.719,10.613,17.727c-3.194,5.774-10.957,6.713-17.551,6.97l-178.5,6.974c-26.233,1.025-72.671,7.514-95.951-8.21C6323.2-1224,6324.856-1251.634,6348.924-1260.244Z" transform="translate(-6329.388 1314.298)"/></svg>