<svg xmlns="http://www.w3.org/2000/svg" width="219.765" height="603.092" viewBox="0 0 219.765 603.092"><defs><style>.a{fill:#5b2a09;}.b{fill:#af5231;}.c{fill:#8e3a21;}.d{fill:#0085a5;}.e{fill:#c6d5e0;mix-blend-mode:multiply;isolation:isolate;}.f{fill:#7dc7d3;}.g{fill:#afdde8;}.h{fill:#fff;}.i{fill:#0a2369;}.j{fill:#330e0a;}.k{fill:#e57244;}.l{fill:#207093;}.m{fill:#e1f1f4;}</style></defs><g transform="translate(0 0)"><g transform="translate(0 0)"><path class="a" d="M700.356-4655.957a23.736,23.736,0,0,1-1.2-15.581c2.421-10.009,5.213-18.917,14.6-24.611,7.727-4.687,16.621-4.823,25.2-2.842,8.175,1.887,14.193,11.625,16.75,19.051,3.494,10.146.466,23.225-4.633,32.312-4.694,8.363-16,5.171-19.5,14.113-2.3,5.87-5.638,11.556-8.794,17a199.124,199.124,0,0,1-22.712,31.591,14,14,0,0,1-4.573,3.855c-3.574,1.583-7.883-.019-10.719-2.709-6.048-5.738-6.693-15.584-3.385-23.237s9.813-13.452,16.636-18.243c3.339-2.345,20.824-11.228,17.739-15.421-1.859-2.526-7.08-3.871-9.535-6.346A27.91,27.91,0,0,1,700.356-4655.957Z" transform="translate(-623.456 4700.199)"/><path class="b" d="M624.175-4512.588c5.11,1.528,7.6-2.661,10.062-5.921a58.631,58.631,0,0,1,11.849-12.19c9.868-7.387,19.88-7.78,31.542-5.591,13.758,2.572,34.124,11.124,47.468,5.7,5.837-2.374,14.914-9.264,15.616-16.215.713-7.061-6.737-18.173-9.066-25.037-2.6-7.661-12.792-5.576-16-13a29.349,29.349,0,0,1-1.965-15.693c.855-6.934,3.424-13.758,5.149-20.59.327-1.286.622-2.573.87-3.862,1.081-5.61-3.207-31.854-13.489-23.709a13.952,13.952,0,0,0-3.779,5.6,66.081,66.081,0,0,0-3.408,10.435c-1.2,4.868-2.032,9.882-2.936,14.871-1.769,9.781-3.81,19.459-9.41,27.745-10.5,15.532-33.914,10.343-46.422,23.456-5.023,5.271-7.995,12.107-10.888,18.79-3.625,8.384-8.892,15.213-10.259,24.5C618.477-4519.036,620.038-4513.821,624.175-4512.588Z" transform="translate(-599.866 4680.708)"/><path class="c" d="M816.536-4397.8c.282,8.81,1.108,17.823,5.56,25.637,2.177-8.523,4.687-17.591,11.33-23.354,1.252-1.092,2.643-2.046,3.816-3.21a6.429,6.429,0,0,1-1.353-.486c-2.351-1.157-3.3-3.663-3.67-6.375a32.643,32.643,0,0,1-.238-4.142,102.681,102.681,0,0,0-3.56-26.121c-.146-.407-.287-.81-.429-1.216a9.623,9.623,0,0,0-5.041,2.718c-2.555,2.527-3.9,6.04-4.774,9.526C815.97-4416.039,816.247-4406.845,816.536-4397.8Z" transform="translate(-676.89 4597.511)"/><path class="b" d="M752.854-3783.538a8.71,8.71,0,0,0,3.787.825q5.525.365,11.055.726c8.654.568,17.342,1.132,25.98.367a2.836,2.836,0,0,0,1.7-.548c2.732-2.552-4.8-6.315-6.248-6.988-3.289-1.529-6.681-2.769-10.075-4.063-3.63-1.38-7.969-3.765-9.467-7.594-.849-2.175-.429-5.541.359-8.978.69-3,1.657-6.055,2.3-8.4.157-.565.29-1.093.4-1.569,4.965-21.544,13.7-41.514,20.469-62.156l-26.009-.681c-1.851,8.73-3.815,17.467-5.738,26.266-2.4,11.006-2.559,22-4.04,32.95q-.336,2.5-.627,4.954c-.546,4.553-.985,9.019-1.362,13.6a33.155,33.155,0,0,1-.77,4.76c-.77,3.342-1.932,6.612-2.91,9.9C751.028-3788.048,750.583-3784.821,752.854-3783.538Z" transform="translate(-651.448 4381.131)"/><path d="M751.549-3722.607a5.324,5.324,0,0,0,.618.2c4.574,1.174,10.9.218,15.621.341l16.027.42c.4.01.807.033,1.21.055,3.544.191,7.208.751,10.737.112a7.149,7.149,0,0,0,4.9-3.854c.713-1.442,1.236-3.821-.357-4.823a41.536,41.536,0,0,0-12.56-5.173c-2.315-.534-4.694-1.413-7.069-1.571-1.832-.121-3.144,1.81-4.232,2.976a14.4,14.4,0,0,1-9.8,4.433c-3.777.169-7.687-1.813-10.961-3.548-1.367-.725-2.64-1.883-4.152-2.3-2-.552-2.226,1.88-2.591,3.437C748.208-3728.791,747.908-3724.031,751.549-3722.607Z" transform="translate(-650.406 4324.274)"/><path class="c" d="M756.763-3761.211a103.644,103.644,0,0,1,10.353-7.237,29.415,29.415,0,0,1,3.718-2.165,5.318,5.318,0,0,1,1.3-.312c.69-3,1.657-6.055,2.3-8.4a9.322,9.322,0,0,0-6.852-3.666,12.006,12.006,0,0,0-8.693,3.429c-.546,4.553-.985,9.019-1.362,13.6A33.161,33.161,0,0,1,756.763-3761.211Z" transform="translate(-653.639 4342.266)"/><path class="b" d="M677.322-3885.219c.921,5.071,2.017,10.088,3.169,15,2.978,12.693,7.068,24.913,9.272,37.823.461,2.682,1.069,5.373,1.681,8.059,1.447,6.326,2.922,12.658,2.53,18.95a27.419,27.419,0,0,1-2.245,9.483c-.8,1.814-1.8,3.775-1.258,5.681,1.506,5.313,15.125,7.207,18.573,3.208,3.2-3.71,1.923-10.236,1.757-15.129-.027-.6-.031-1.173-.007-1.717q.423-9.9.819-19.879c.509-13.27.91-26.591.974-39.755.04-6.933.154-13.863.3-20.8Z" transform="translate(-622.637 4382.153)"/><path d="M716.261-3725.583a2.387,2.387,0,0,0,.714-.86c2.509-5.266-1.229-10.8-6.061-12.569-4.692-1.719-10.271-.978-14.935.457-3.961,1.218-13.038,9.142-7.065,13.277,1.941,1.344,5.571.829,7.815.933q4.681.216,9.368.211C709.438-3724.137,713.358-3723.343,716.261-3725.583Z" transform="translate(-626.389 4325.484)"/><path class="c" d="M703.014-3769.831a13.278,13.278,0,0,1,6.837-2.3c3.962-.052,7.583,2.352,9.99,5.545-.027-.6-.031-1.172-.007-1.717q.423-9.9.819-19.878c-.1-.149-.21-.29-.325-.435-2.759-3.492-7.153-5.949-11.572-5.43a12.162,12.162,0,0,0-8.271,5.266C701.931-3782.455,703.406-3776.124,703.014-3769.831Z" transform="translate(-631.676 4346.6)"/><g transform="translate(33.286 189.587)"><path class="d" d="M643.96-4196.258c1.417,16.342,3.563,32.916,5.939,50.147q2.624,19.033,5.244,38.068,1.9,13.715,3.783,27.426c2.829,20.552,6.982,40.371,10.455,60.793.382,2.268.9,4.766,2.751,6.142,1.507,1.122,3.521,1.2,5.4,1.232q8.05.147,16.1.289c1.906.031,3.926.037,5.564-.93,4.167-2.467,1.425-13.674,1.537-17.778.524-19.108-.395-38.558-.85-57.752-.374-15.775-2.284-31.433-2.173-47.241.228-31.172-.882-66.106,6.675-96.469.856-3.525,2.482-5.29,3.875-5.068,1.134.177,2.1,1.673,2.378,4.615,3.365,36.326,3.011,72.862,2.29,109.3-.707,35.864-1.276,71.731-3.435,107.495a3.745,3.745,0,0,0,.46,2.559,3.708,3.708,0,0,0,2.614,1.05c1.073.123,2.146.274,3.218.43a74.177,74.177,0,0,0,11.834,1.216c6.329-.091,9.774-1.442,11.349-7.609,4.18-16.356,6.791-32.949,9.853-49.539,3.377-18.317,5.928-36.775,8.28-55.247,3.241-25.417,8.71-51.717,9.266-77.313.54-24.946,2.052-51.593-.8-76.348a143.857,143.857,0,0,0-3.032-16.763c-1.188-5-2.589-9.994-4.1-14.981-4.417-14.609-9.747-29.137-13.275-43.462-2.109-8.553-4.511-17.508-9.722-24.641-11.4-15.583-33-15.873-48.008-5.648-19.373,13.208-27.458,39.076-33.269,62.674-1.369,5.565-2.612,11-3.846,16.114C641.272-4266.039,640.89-4231.708,643.96-4196.258Z" transform="translate(-642.228 4389.273)"/></g><path class="e" d="M643.96-4156.809c1.417,16.342,3.563,32.916,5.939,50.146q2.624,19.035,5.244,38.068c-1.726-40.978-2.478-81.973-.51-122.926.61-12.609,1.657-25.808,8.438-36.458,7.393-12.375,22.678-19.258,36.4-21.5,16.811-2.743,33.511-5.073,50.468-8.866,2.625-.587,5.409-1.261,7.279-3.193,9.907-10.238-20.1-21.394-26.066-23.085-13.651-3.868-28.2-4.1-42.256-2.989-11.757.93-23.945,2.925-34.744,7.442-1.369,5.565-2.612,11-3.846,16.114C641.272-4226.59,640.89-4192.259,643.96-4156.809Z" transform="translate(-608.942 4539.411)"/><path class="e" d="M750.514-4140.477c1.134.176,2.1,1.672,2.378,4.615,3.365,36.326,3.011,72.863,2.29,109.3-.707,35.863-1.276,71.731-3.435,107.495a3.744,3.744,0,0,0,.46,2.559,3.71,3.71,0,0,0,2.614,1.05c1.073.123,2.146.275,3.218.431,6.015-9.1,7.191-21.627,7.54-32.958,1.6-52.06-1.409-104.141-4.416-156.136-.32-5.529-1.589-11.22-2.282-16.811a52.816,52.816,0,0,1-.456-6.685c.015-2.736.283-5.536-.5-8.16C757.029-4138.79,753.711-4142.125,750.514-4140.477Z" transform="translate(-651.2 4481.938)"/><path class="b" d="M590.11-4364.929a178.387,178.387,0,0,0,9.761,32.775,84.143,84.143,0,0,0,8.107,15.225c2.743,4.092,6.263,10.769,11.909,10.868a6.2,6.2,0,0,0,5.549-3.114c1.469-2.8-.294-5.005-1.65-7.333-1.83-3.142-3.564-6.328-5.118-9.617a117.8,117.8,0,0,1-7.421-20.456q-1.371-5.244-2.264-10.612a113.709,113.709,0,0,1,5.6-59.221c.732-1.9,1.518-3.815,2.109-5.763a20.008,20.008,0,0,0,.934-5.216c.1-3.82-1.678-7.993-5.227-9.4-2.985-1.187-6.038-.158-8.683,1.807a22.014,22.014,0,0,0-4.9,5.221,57.626,57.626,0,0,0-5.082,9.135C586.178-4403.665,586.493-4383.448,590.11-4364.929Z" transform="translate(-587.638 4597.602)"/><path class="c" d="M597.623-4419.15c2.4,4.5,5.862,8.168,7.369,13.619,1.837,6.641,2.375,13.631,2.774,20.48.576,9.894,1.266,20.45,5.113,29.339a113.707,113.707,0,0,1,5.6-59.221c.732-1.9,1.518-3.817,2.109-5.764a28.259,28.259,0,0,0-6.4-9.32,14.789,14.789,0,0,0-6.577-3.487,22.006,22.006,0,0,0-4.9,5.221A57.6,57.6,0,0,0,597.623-4419.15Z" transform="translate(-591.535 4596.122)"/><path class="f" d="M834.657-4460.694a5.009,5.009,0,0,1-2.308,1.695l-13.559,6.351a4.776,4.776,0,0,1-2.628.657c-5.228-.752-4.883-25.363-5.229-29.426-1.013-11.9-1.839-23.823-2.1-35.767-.018-.8.063-1.753.765-2.13.914-.49,1.924.438,2.529,1.281,6.2,8.652,10.591,18.421,14.071,28.441,1.8,5.171,3.347,10.425,4.83,15.693.655,2.325,4.738,11.264,3.667,13.147Z" transform="translate(-673.957 4629.662)"/><path class="d" d="M754.6-4522.043c1.951-.436,4.212-.886,5.774.363s1.619,3.584,1.531,5.594l-1.65,37.671a257.931,257.931,0,0,1-40.4-31.251c-2.022-1.913-4.074-3.949-5.045-6.559-3.909-10.5,8.655-5.333,13.513-4.687A75.305,75.305,0,0,0,754.6-4522.043Z" transform="translate(-636.977 4630.951)"/><path class="g" d="M589.62-4468.471c4.57,3.705,9.657,6.29,14.351,9.8,1.912,1.429,3.9,2.962,5.949,4.438a56,56,0,0,0,9.3,5.669q.576.263,1.154.5c3.2-6.655,8.761-12.741,13.092-18.75,4.479-6.214,5.151.328,5.138,4.288-.027,6.293-.621,12.49-.985,18.774-.806,13.766-2.852,27.418-4.6,41.083-.376,2.949-.8,5.9-1.261,8.835-1.407,9.007-3.121,17.964-4.732,26.946-.273,1.529-.435,3.384.782,4.351a4.358,4.358,0,0,0,2.572.665q25.2,1.165,50.386,2.32c10.369.48,20.747.956,31.133.806,5.323-.079,10.65-.315,15.956-.806,2.7-.257,13.745,1.952,15.307-1.013a.865.865,0,0,0,.076-.169,3.891,3.891,0,0,0,.02-2c-1.048-6.331-2.716-12.544-3.579-18.893q-2.1-15.47-3.014-31.067a409.078,409.078,0,0,1-.284-42.258c.123-2.709.289-5.427.451-8.146.232-3.793.464-7.59.568-11.386a96.133,96.133,0,0,0-1.121-19.318c-1.118-6.389-3.552-12.347-4.756-18.706a30.774,30.774,0,0,0-7.849-15.372c-1.229-1.255-14.695-8.243-14.635-7.26a184.368,184.368,0,0,1,.248,18.773,154.231,154.231,0,0,1-1.618,17.06c-1.107,7.3-8.4-1.036-10.814-3.2q-6.471-5.8-12.508-12.065-5.831-6.051-11.226-12.506c-6.907-8.263-8.939-11.446-20.055-9.446-8.658,1.551-17.471,4.494-23.982,10.655-10.3,9.751-17.936,21.925-25.451,33.959C598.8-4484.19,594.167-4476.372,589.62-4468.471Z" transform="translate(-588.411 4636.555)"/><g transform="translate(70.125 147.37)"><rect class="h" width="26.124" height="13.653" rx="0.604" transform="translate(0.357 0.352) rotate(1.499)"/><rect class="i" width="13.062" height="3.472" rx="0.604" transform="matrix(1, 0.026, -0.026, 1, 6.9, 0)"/></g><path class="f" d="M622.913-4444.384a56.066,56.066,0,0,0,9.3,5.669q.576.264,1.154.5c3.2-6.654,8.761-12.741,13.092-18.75,4.479-6.215,5.151.329,5.138,4.289-.027,6.292-.621,12.489-.985,18.773-.806,13.766-2.852,27.418-4.6,41.082-.376,2.95-.8,5.9-1.261,8.836a242.991,242.991,0,0,0,13.313-63.784c1.375-19.177,3.777-46.649-5.981-64.105,3.412,6.823-5.84,26.007-8.08,32.384A101.647,101.647,0,0,1,622.913-4444.384Z" transform="translate(-601.404 4626.706)"/><path class="e" d="M831.85-4434.74c.026.067.053.134.075.2C831.9-4434.616,831.877-4434.679,831.85-4434.74Z" transform="translate(-682.942 4596.604)"/><path class="c" d="M745.439-4606.535c1.985,2.225,4.141,4.3,6.288,6.374q5.655,5.44,11.306,10.881c.855-6.935,3.424-13.759,5.149-20.59-5.89-3.825-13.2-7.284-17.243-10a23.111,23.111,0,0,0-2.563-1.537C747.176-4616.539,746.343-4611.524,745.439-4606.535Z" transform="translate(-649.22 4669.45)"/><path class="b" d="M743.479-4640.952c3.532,4.925,15.416,14.589,22.307,11.857,7.179-2.843,9.969-13.6,10.43-21.8a40.342,40.342,0,0,0,0-4.652,42.824,42.824,0,0,0-5-17.992,21.072,21.072,0,0,0-4.687-5.757,20.222,20.222,0,0,0-18.514-3.995,18.316,18.316,0,0,0-1.757.642,17.444,17.444,0,0,0-4.71,2.908c-4.206,3.6-6.566,8.991-7.352,14.713C733.059-4656.7,738.739-4647.559,743.479-4640.952Z" transform="translate(-644.776 4693.912)"/><path class="c" d="M746.244-4678.866a4.812,4.812,0,0,0,2.729,1.921,62.107,62.107,0,0,1,16.728,9.026,59.424,59.424,0,0,1,12.316,12.321c.746,1.03,1.71,3.494,2.894,5.577a40.341,40.341,0,0,0,0-4.652,42.818,42.818,0,0,0-5-17.991q-1.083-1.025-2.254-1.942a33.807,33.807,0,0,0-22.7-7.168c-.7.043-1.4.111-2.1.2-1.114.146-2.428.534-2.718,1.617A1.516,1.516,0,0,0,746.244-4678.866Z" transform="translate(-649.47 4693.033)"/><path class="a" d="M736.906-4657.049c-1.609,2.644-4.552,5.292-7.437,4.167-2.546-.994-3.212-4.221-3.509-6.937l-.97-8.886c-.424-3.886-.836-7.906.349-11.631,2.776-8.722,12.193-8.967,15.255-.708C743.138-4674.186,740.525-4663,736.906-4657.049Z" transform="translate(-641.072 4695.074)"/><path class="b" d="M729.562-4640.675a3.4,3.4,0,0,1,1.769-2.964c1.879-.963,4.221-.288,5.961.91a8.183,8.183,0,0,1,3.761,6.187c.086,2.5-1.682,5.1-4.161,5.449-2.232.315-4.405-1.187-5.57-3.118A12.358,12.358,0,0,1,729.562-4640.675Z" transform="translate(-643.016 4678.306)"/><g transform="translate(99.629 22.592)"><path class="j" d="M763.925-4646.19c-.013-.033-.026-.066-.041-.1-1.043-2.353-4.6-.281-3.474,1.851C761.467-4642.445,764.7-4644.154,763.925-4646.19Z" transform="translate(-754.606 4656.976)"/><path class="j" d="M795.085-4645.758c-.165-.863-.8-1.634-1.746-1.343a1.725,1.725,0,0,0,.065,3.171C794.811-4643.571,795.282-4644.73,795.085-4645.758Z" transform="translate(-767.146 4656.911)"/><g transform="translate(18.735)"><path class="c" d="M782.116-4638.889a7.352,7.352,0,0,0,3.442-.37c1.59-.662,1.6-1.757,1.388-3.278-.511-3.731-1.274-7.484-1.061-11.269a9.544,9.544,0,0,1,2.159-5.729c1.32-1.564,2.815-2.046,4.637-2.775.36-.145.381-.809-.073-.831-3.642-.176-6.568,3.673-7.443,6.847-.738,2.679-.359,5.521-.071,8.234.189,1.776.4,3.55.614,5.324.322,2.667-1.024,2.594-3.552,2.953C781.682-4639.717,781.582-4638.938,782.116-4638.889Z" transform="translate(-781.756 4663.148)"/></g><g transform="translate(2.92 1.739)"><path class="c" d="M756.143-4657.4c2.078.009,3.5-1.656,5.574-1.506,2.692.2,4.552,2.564,5.961,4.656a.376.376,0,0,0,.677-.249c-.132-2.491-2.837-4.571-5-5.459-2.809-1.155-4.873.92-7.345,1.973a.3.3,0,0,0,.132.585Z" transform="translate(-755.819 4660.296)"/></g><g transform="translate(14.885 28.259)"><path class="k" d="M783.558-4616.687a1.372,1.372,0,0,0-1.441.745c-1.107-.524-1.229-1.237-2.559-.625a24.631,24.631,0,0,0-2.479,1.437c-.97.594-1.828,1.04-1.6,2.17a5.532,5.532,0,0,0,6.174,3.9,3.83,3.83,0,0,0,3.162-3.3,9.073,9.073,0,0,0,.054-2.54C784.735-4615.765,784.375-4616.52,783.558-4616.687Z" transform="translate(-775.443 4616.803)"/><path class="h" d="M776.5-4612a.443.443,0,0,0-.058.232c.022.858,2.574,1.667,3.208,1.78,1.4.254,3.509-.025,4.521-1.123.28-.3.974-1.289.818-1.739-.076-.216-.364-.257-.591-.229-1.02.125-2.018.292-3.049.447C780.669-4612.533,777-4612.891,776.5-4612Z" transform="translate(-775.831 4615.354)"/></g><path class="c" d="M751.971-4634.084c2.034-2.782,6.287.31,7.5,3.481,2.685,6.993-9.856,5.015-8.311-1.574A5.246,5.246,0,0,1,751.971-4634.084Z" transform="translate(-751.031 4652.229)"/></g><path class="a" d="M752.787-4680.119c.254.108.5.211.737.315a111.666,111.666,0,0,1,26.822,16.56c-.365-.3-.026-6.666-.208-7.657a24.721,24.721,0,0,0-15.982-18.453c-2.915-1.032-23.458-2.254-19.276,4.205C746.479-4682.676,750.05-4681.273,752.787-4680.119Z" transform="translate(-648.783 4696.289)"/><path class="l" d="M947.927-4594.516c-.058-.336-.123-.679-.191-1.022,0-.068-.006-.138-.01-.206Z" transform="translate(-728.163 4659.436)"/><path class="h" d="M781.887-4621.245c-1.506,4.238-4.8,8.116-9.2,9.067a10.9,10.9,0,0,1-3.079.2,17.573,17.573,0,0,1-6.341-1.841,28.358,28.358,0,0,1-10.408-8.616,4.811,4.811,0,0,1-1.25-3.2c.159-1.641,1.774-2.756,2.3-4.318.6-1.78-.3-3.853.445-5.584.6-1.42,2.134-2.183,3.561-2.768,4.311-1.756,8.963-2.946,13.591-2.463a17.912,17.912,0,0,1,3.14.615,14.148,14.148,0,0,1,7.939,5.329C784.765-4631.513,783.13-4624.751,781.887-4621.245Z" transform="translate(-651.624 4677.046)"/><path class="m" d="M793.415-4620.782c-1.506,4.238-4.8,8.116-9.2,9.068a10.917,10.917,0,0,1-3.079.2,71.629,71.629,0,0,0,5.03-27.293c-.006-.3,0-.591.012-.877a14.143,14.143,0,0,1,7.939,5.329C796.293-4631.05,794.659-4624.289,793.415-4620.782Z" transform="translate(-663.153 4676.583)"/><g transform="translate(95.565 35.834)"><path class="h" d="M744.921-4641.361c3.515,2.464,7.592,4.054,11.111,6.494.593.41.018,1.357-.594.958-3.562-2.329-7.481-4.286-10.913-6.812-.385-.284,0-.919.4-.64Z" transform="translate(-744.366 4641.431)"/></g><g transform="translate(93.196 46.248)"><path class="h" d="M747.2-4618.619c-1.076-1.1-2.418-1.827-3.514-2.875a8.774,8.774,0,0,0-1.584-1.123c-.518-.32-.91-.878-1.46-1.128-.346-.157-.079-.7.269-.594.615.18.894.684,1.416,1.043a10.885,10.885,0,0,1,1.516.973c1.22,1.158,2.637,2.042,3.816,3.269.284.295-.174.728-.46.436Z" transform="translate(-740.481 4624.352)"/></g></g><g transform="translate(148.816 76.679)"><path class="b" d="M839.569-4447.407c-4.942,13.986-8.816,28.1-7.665,44.621.22,3.159.816,6.726,3.454,8.477,3.555,2.361,8.369-.118,11.324-3.2,6.3-6.57,9.211-15.64,11.234-24.515,4.495-19.725,3.66-39.16,4.643-59.154.21-4.267-1.333-8.421-6.409-6.8-3.458,1.1-4.024,3.667-4.9,6.84C847.968-4469.243,843.44-4458.365,839.569-4447.407Z" transform="translate(-831.699 4540.84)"/><path class="g" d="M857.574-4501.654l-.229-.024a3.277,3.277,0,0,1-2.255-.844c-.73-.866-.374-2.171.018-3.233,2.666-7.225,5.241-13.877,5.629-21.653.53-10.616-2.918-20.261-4.329-30.647a4.264,4.264,0,0,1-.028-1.472,1.447,1.447,0,0,1,.885-1.1,1.446,1.446,0,0,1,1.334.344,4.253,4.253,0,0,1,.858,1.146,42.383,42.383,0,0,1,3.924,9.016,2.791,2.791,0,0,0,.921,1.561c1.834,1.226,3.438-3.432,3.654-4.559.348-1.814,1.423-3.361,2.042-5.1.669-1.876,1.122-3.822,1.791-5.7.4-1.124,2.773-8.353,4.665-7.816.74.21.787,1.229.679,1.992-.337,2.37-.821,4.714-1.291,7.061-.413,2.069-1.112,4.327-.96,6.444a40.959,40.959,0,0,0,2.256-6.708,51.393,51.393,0,0,1,2.775-6.147c.755-1.666,2.274-4.321,3.988-5.2.78-.4,1.994.015,2.016.892a9.926,9.926,0,0,1-.864,2.519c-.669,2.189-1.482,4.33-2.156,6.519-.185.6-1.7,4.776-1.194,4.809.3.02.487-.319.592-.6.329-.887.9-1.641,1.269-2.506q.593-1.4,1.3-2.752a37.974,37.974,0,0,1,2.269-3.8c.6-.891,1.452-2.615,2.817-2.216a1.594,1.594,0,0,1,1,1.546,4.827,4.827,0,0,1-.515,1.892,93.9,93.9,0,0,0-3.276,9c-.611,2-1.449,3.911-2.174,5.868-.2.537-.968,1.886-.757,2.477.56,1.571,4.188-2.354,4.6-2.778a33.265,33.265,0,0,1,3.02-3.2c.776-.618,3.027-1.788,3-.325-.015.881-2.127,3.5-2.708,4.266a131.854,131.854,0,0,0-14.211,23.8c-3.808,8.105-4.06,16.773-4.767,25.514-.379,4.681-1.214,3.872-5.447,3.291C864.345-4500.545,860.944-4501.29,857.574-4501.654Z" transform="translate(-840.662 4574.445)"/></g><path class="g" d="M621.29-4240.235c-.755.461-1.507.95-2.229,1.439,2.625,4.888,7.469,8.954,10.833,13.385,3.482,4.588,6.387,9.661,7.372,15.406.854,4.983.221,11.144,2.049,15.865a60.433,60.433,0,0,0,6.822,12.292,15.346,15.346,0,0,0,6.988,5.744,2.834,2.834,0,0,0,2.855-.147,2.148,2.148,0,0,0,.429-2.255,20.192,20.192,0,0,0-2.062-3.616c-3.552-5.639-6.863-11.942-4.049-18.662.226-.54.679-1.162,1.243-1.01.8.216,1.86,3.409,2.431,4.272a7.309,7.309,0,0,0,4.033,3.335,1.581,1.581,0,0,0,1.283-.046c1.253-.807-1.23-5.525-1.557-6.567q-1.062-3.383-2.315-6.7c-1.653-4.4-3.529-8.725-5.543-12.977-4.1-8.661-8.78-17.031-13.4-25.422-.451-.82-1.02-1.728-1.942-1.891a3.19,3.19,0,0,0-2.109.667C631.735-4246.707,624.976-4242.486,621.29-4240.235Z" transform="translate(-599.901 4523.656)"/></g></svg>