<svg xmlns="http://www.w3.org/2000/svg" width="309.821" height="329.043" viewBox="0 0 309.821 329.043"><defs><style>.a{fill:#f9f9f9;}.b{fill:#dd8b72;}.c{fill:#d6503b;}.d{fill:#f29c7d;}.e{fill:#ed6b4e;}.f{fill:#272c4d;}.g{fill:#fac6ba;}.h{fill:#f36d80;}.i{opacity:0.74;}.i,.k,.l{mix-blend-mode:screen;isolation:isolate;}.j{fill:#606060;}.k{opacity:0.48;}.l{opacity:0.49;}.m{fill:#fff;}.n{fill:#292954;}.o{fill:#5598b5;}.p{fill:#efc7b6;}.q{fill:#0a2369;}.r,.s,.w{fill:#f2e9e9;}.s{opacity:0.24;}.t{fill:#f6f6f6;}.u{fill:#ededed;opacity:0.38;}.v{fill:#e5bbbb;}.w,.x{opacity:0.61;}</style></defs><g transform="translate(-248.419 -141.229)"><path class="a" d="M258.879,470.272H542.62a9.607,9.607,0,0,0,3.264-3.641c5.913-11.312-6.233-36.322-8.626-46.08-5.8-23.656.808-48.345,6.471-72.034,9.734-40.72,5.914-79.212-15.594-115.651-10.468-17.735-23.369-33.826-41.564-43.638-20.9-11.271-42.86-20.414-63.984-31.244-19.387-9.94-40.651-19.2-62.225-16.169-15.761,2.214-30.145,11-40.952,22.688-18.3,19.787-36.321,57.271-31.5,85.137,2.655,15.333,7.869,28.637,7.565,44.882a134.234,134.234,0,0,1-10.62,50.047c-8.068,18.9-20.395,35.733-28.7,54.535-8.25,18.684-8.328,36.469-7.272,56.393C249.382,464.795,253.251,468.727,258.879,470.272Z" transform="translate(0)"/><g transform="translate(318.023 204.886)"><path class="b" d="M812.7,1350.841c2.065-6.582,5.945-14.059,6.792-20.867.97-7.8-.815-16.029.266-24.031.4-2.927,1.085-6.109,3.414-7.925,3.316-2.586,8.5-.96,11.14,2.312,8.357,10.351,5.8,28.921,1.635,40.4-4.844,13.337-13.12,25.591-17.954,38.649-1.338,3.613-4.434,6.585-3.491,10.992.957,4.472,5.222,6.468,8.516,8.317a37.749,37.749,0,0,0,4.724,2.188c1.824.714,3.814.693,3.758,3.44H808.589a.343.343,0,0,1-.113-.215,22.294,22.294,0,0,1-.017-2.9c.07-3.514.27-7.441-.53-10.924-.6-2.612-1.386-4.367-1.375-7.149C806.6,1372.1,809.373,1361.442,812.7,1350.841Z" transform="translate(-769.23 -1139.026)"/><path class="c" d="M820.232,1831.617c.632,0,1.355-.049,2.112-.049h7.821c3.891,0,7.8-.083,11.692.009.085-2.806-1.92-2.778-3.758-3.5a19.207,19.207,0,0,1-4.286-2.5c-.411-.3-.532-.529-.909-.322a4.065,4.065,0,0,0-.836.976c-.5.622-.893,1.419-1.429,1.99-.495.527-1,1.028-1.485,1.587a106.342,106.342,0,0,0-10.919-1.885C817.426,1831.156,818.485,1831.606,820.232,1831.617Z" transform="translate(-778.451 -1566.232)"/><g transform="translate(24.264 163.021)"><path class="d" d="M738.39,1370.462c0-10.384,1.146-21.1,1.151-30.4a28.28,28.28,0,0,1,.968-8.964c.955-2.864,3.035-5.527,5.932-6.376,4.165-1.221,8.642,1.756,10.571,5.644s1.921,8.42,1.786,12.758c-.722,23.149-9.228,49.252-3.248,72.037a33.87,33.87,0,0,0,1.455,4.248c.525,1.28,1.3,2.271,1.892,3.514a5.638,5.638,0,0,1,.608,2.9c-.109,1.159-2.31.675-3.124.675h-4.057c-.389,0-4.495.347-4.655,0-.635-1.377.185-3.4.548-6.266.006-.041.01-.082.016-.123,1.132-9.475-3.5-18.143-6.643-26.789C739.1,1386.458,738.393,1378.561,738.39,1370.462Z" transform="translate(-738.39 -1324.446)"/><path class="e" d="M783.984,1833.36l.118-.611a7.74,7.74,0,0,1,.212-1.057c.12.055.22.377.286.509l.295.586c.149.3.264.435.57.312,2.2-.882,4.287-2.252,6.668-2.547a4.421,4.421,0,0,1,3.108.53,17.9,17.9,0,0,1,2.5,2.3c.224.232.429.46.658.68a1.531,1.531,0,0,1,.465.832,3.767,3.767,0,0,1,.081.962H783.9c-.279,0-.408-.075-.333-.426.051-.238.1-.478.147-.717Q783.854,1834.04,783.984,1833.36Z" transform="translate(-774.898 -1733.543)"/></g><path class="f" d="M624.368,632.425a58.7,58.7,0,0,0,12.013,12.94c5.077,3.889,11.539,6.337,17.871,5.445a12.869,12.869,0,0,0,8.363-4.336c3.725-4.682,2.255-11.584,1.919-17.044-1-16.19-10.669-30.484-15.339-45.648a170.217,170.217,0,0,1-6.611-32.355c-.568-5.428.131-11.538-.912-16.833-1.377-6.994-4.794.825-5.566,3.794a86.031,86.031,0,0,1-9.923,23.3c-4.31,7.024-9.445,13.382-12.261,21.276-4.568,12.808-1.4,26.955,4.273,38.868A75.14,75.14,0,0,0,624.368,632.425Z" transform="translate(-611.738 -520.607)"/><path class="d" d="M750.116,585.522c.571-2.254,1.258-4.482,1.795-6.744a29.552,29.552,0,0,0-.29-14.149,3.127,3.127,0,0,0-1.2-1.993,2.242,2.242,0,0,0-2.361.264,6.354,6.354,0,0,0-1.584,1.928q-3.083,5.007-5.659,10.3c-1.582,3.252-3.972,6.155-5.131,9.6-1.223,3.641-1.512,10.455,1.607,13.347,1.253,1.162,3.641,1.831,5.166,2.576,2.818,1.375,6,1.773,8.92,2.9,1.892.728,4.74,2.157,5.114-.989.257-2.156-2.334-3.677-3.7-4.941-2.8-2.6-4.082-4.668-3.442-8.544C749.551,587.879,749.818,586.7,750.116,585.522Z" transform="translate(-711.241 -545.375)"/><path class="g" d="M701.6,728.089a48.038,48.038,0,0,1-5.28-16.12,26.034,26.034,0,0,1,3.191-16.437c2.794-4.58,8.671-4.218,13.084-2.041,3.838,1.893,6.755,4.9,10.439,7,3.5,1.99,7.329,3.314,10.834,5.292,4.206,2.373,8.141,7.012,7.492,12.133-.846,6.68-4.532,11.472,2.549,15.5,5.555,3.16,10.832,6.795,13.157,13.043a26.927,26.927,0,0,1-.773,20.63c-1.389,2.965-3.46,4.772-5.43,7.205-2.143,2.647-1.509,5.8-.97,9.156,1.066,7.464,3.294,14.592,3.621,22.167a190.907,190.907,0,0,1-.2,19.6c-.2,3.292-.323,6.669-.823,9.931-.137.894-1.126,8.35-1.342,8.368-4.164.262-8.2.5-12.373.6-4.333.1-8.673-.112-12.993-.156q-11.35-.117-22.685-.828c-5.428-23.086-11.5-53.928-2.677-76.767,1.785-4.618,4.362-8.895,6.19-13.5,1.556-3.918,3.305-9.456,1.352-13.509C706.147,735.575,703.541,731.91,701.6,728.089Z" transform="translate(-679.826 -650.092)"/><path class="d" d="M885.993,867.974a5.462,5.462,0,0,0-.706-.569,7.32,7.32,0,0,0-1.05-.725,6.879,6.879,0,0,0-3.809-.028,12.525,12.525,0,0,0-3.305,1.115,3.25,3.25,0,0,1-1,.506c-.451.086-1.958-.118-2.19.355-.215.439.73,1.333,1.046,1.541a2.1,2.1,0,0,0,1.326.356,9.178,9.178,0,0,0,1.038-.328c.323-.082.641-.194.965-.27.535-.125.36.1.01.3a18.184,18.184,0,0,0-5.32,5.315.723.723,0,0,0-.193.5.482.482,0,0,0,.411.368,1.263,1.263,0,0,0,.579-.077,11.859,11.859,0,0,0,2.952-1.663c.271-.18.992-.67.764-.014-.144.412-.707.715-1,1.013-.639.645-1.389,1.166-2.049,1.788-.421.4-1.4,1.465-1.164,2.121.206.582,1.279.368,1.679.159a1.845,1.845,0,0,1,.36-.177.335.335,0,0,1,.364.1.4.4,0,0,1,.023.328,3.708,3.708,0,0,0-.148.541c-.073.733,1.282.515,1.712.328a12.62,12.62,0,0,0,3.376-1.968c.171-.148,1.822-1.687,2.029-1.406.166.228-.424,1.134-.55,1.344-.253.424-1.847,1.941-1.242,2.5a.536.536,0,0,0,.466.065,4.743,4.743,0,0,0,2.9-2.009,24.161,24.161,0,0,0,2.3-3.217c.282-.472.574-.959.841-1.431a17.039,17.039,0,0,0,.622-1.975c.62-1.476-.547-2.988-1.417-4.106A6.135,6.135,0,0,0,885.993,867.974Z" transform="translate(-822.784 -791.126)"/><path class="d" d="M799.426,546.249a16.525,16.525,0,0,0,1.343,5.2,5.58,5.58,0,0,0,1.628,2.538,9.952,9.952,0,0,0,3.005,1.306c1.113.26,2.325.937,3.183-.09.492-.588,1.012-1.238,1.483-1.925a11.373,11.373,0,0,0,1.079-1.908c.011-.027.023-.054.034-.08.422-1.027.687-2.44,1.924-2.461.836-.013,1.737.337,1.971-.79.029-.138.055-.274.077-.411.4-2.4-.024-4.811.729-7.19a22.969,22.969,0,0,0,1.329-6.054c.047-1.279.009-2.5-1.11-3.305-2.852-2.041-7.2-1.992-10.283-.561-.127.059-.251.12-.375.184a13.045,13.045,0,0,0-6.644,11.161A36.647,36.647,0,0,0,799.426,546.249Z" transform="translate(-762.961 -518.761)"/><path class="f" d="M710.348,487.213c.033.511-.663,1.281-.943,1.684a14.611,14.611,0,0,1-1.331,1.65,13.327,13.327,0,0,1-3.323,2.6,12.454,12.454,0,0,1-4.211,1.4,11.89,11.89,0,0,1-3.872-.053c-1.845-.352-2.552-2.038-3.926-.115a12.054,12.054,0,0,0-1.569,5.056c-1.519,9.238-.068,15.953,3.739,24.273,3.674,8.029,4,17.373-.155,25.319-2.363-7.256-2.158-14.521-4.3-21.754-1.222-5.125-8.148-10.113-12.837-5.142a13.76,13.76,0,0,0-2.912,6.413,34.456,34.456,0,0,0-1.086,7.112c-.032,2.2.687,4.08.758,6.3.015.48-.127,1.123-.567,1.126a.823.823,0,0,1-.547-.333c-3.263-3.484-4.787-8.506-5.363-13.451-1-8.576,5.764-16.065,8.437-24.063,1.88-5.624.966-11.289,2.106-17a18.6,18.6,0,0,1,14.774-14.49c6.962-1.131,14.224,2.127,19.012,7.763a16.981,16.981,0,0,1,3.62,6.5,10.836,10.836,0,0,1,.025,5.742,9.074,9.074,0,0,1-.515,1.35c-.169.36-.2.76-.4,1.1a2.345,2.345,0,0,1-2.923.924A14.417,14.417,0,0,1,709,495.167a1.713,1.713,0,0,1-.636-1.21c.019-.538.44-.932.612-1.418s.318-1.028.478-1.537A26.963,26.963,0,0,0,710.348,487.213Z" transform="translate(-657.063 -473.51)"/><path class="d" d="M787.513,557.226a1.744,1.744,0,0,0-.141-.108,2.127,2.127,0,0,0-2.542-.32c-1.143.832-1.172,3.075-1.044,4.321a3.854,3.854,0,0,0,.858,2.164,1.375,1.375,0,0,0,.612.436,2.742,2.742,0,0,0,1.656-.088,1.455,1.455,0,0,0,.418-.75,10.787,10.787,0,0,0,.848-3.263A2.921,2.921,0,0,0,787.513,557.226Z" transform="translate(-750.783 -540.591)"/><g transform="translate(40.23 23.92)"><path class="h" d="M823.343,598.442a2.554,2.554,0,0,1,2.849,1.359c.864,1.778-.463,3.188-2.312,2.919a2.514,2.514,0,0,1-2.068-1.62A2.222,2.222,0,0,1,823.343,598.442Z" transform="translate(-821.732 -598.368)"/></g><path class="f" d="M856.767,589.328a.953.953,0,0,0-.273-.3.285.285,0,0,0-.37.047.388.388,0,0,0-.009.326,3.157,3.157,0,0,0,2.492,2.187c.251.039.854.031.857-.355,0-.285-.612-.337-.814-.417A4.194,4.194,0,0,1,856.767,589.328Z" transform="translate(-809.271 -566.859)"/><path class="d" d="M832.1,1004.973a.529.529,0,0,0,.512,0c.321-.206-.409-1.952-.493-2.2-.174-.523-.528-.969-.682-1.5a2.115,2.115,0,0,1-.153-1.166c.725.036,1.2,1.2,1.6,1.68a11.058,11.058,0,0,0,1.787,1.793,2.381,2.381,0,0,0,1.223.559,1.026,1.026,0,0,0,.6-.146c.127-.081.173-.273.264-.332.276-.179.405.164.67.234a.955.955,0,0,0,.912-.244,1.608,1.608,0,0,0,.16-1.687,13.788,13.788,0,0,0-.919-1.535c-.095-.165-.655-1.5-.221-1.445.208.027.389.659.559.8a.8.8,0,0,0,1.111-.048,1.094,1.094,0,0,0,.1-.805c-.436-2.805-2.2-5.208-4.028-7.38-6.328-7.515-14.279-14.038-18.033-23.117a17.916,17.916,0,0,0-1.819-3.8,4.317,4.317,0,0,0-3.535-1.97,6.2,6.2,0,0,0-3.478,1.868l-3.418,2.944a1.854,1.854,0,0,0-.8,1.206,1.8,1.8,0,0,0,.314.926,42.9,42.9,0,0,0,12.842,14.047c2.456,1.7,6.073,3.553,6.962,6.631a38.2,38.2,0,0,0,4.348,9.982C828.907,1000.953,830.884,1004.457,832.1,1004.973Z" transform="translate(-767.17 -868.947)"/><g class="i" transform="translate(18.405 114.287)"><g transform="translate(5.42 10.733)"><path class="j" d="M736.1,1145.164a86.2,86.2,0,0,1,8.517-18.9.37.37,0,1,1,.632.384,85.485,85.485,0,0,0-8.494,18.894A3.5,3.5,0,0,0,736.1,1145.164Z" transform="translate(-736.103 -1126.091)"/></g><g transform="translate(13.647)"><path class="j" d="M782.722,1071.662c.865-1.144,1.98-1.891,3.426-1.48.77.219.942,1.235.846,2.029a10.042,10.042,0,0,1-2.472,5.26,17.209,17.209,0,0,1-3.092,2.749c-.662.471-1.554,1.554-2.385,1.611.542-1.819.808-3.749,1.474-5.53A18.772,18.772,0,0,1,782.722,1071.662Z" transform="translate(-779.046 -1070.068)"/></g><g transform="translate(10.379 13.789)"><path class="j" d="M762.474,1146.433a13.4,13.4,0,0,0,10.132-.76c1.2-.605,2.43-2.059,1.6-3.109-.66-.831-1.97-.508-2.954-.11l-9.262,3.75Z" transform="translate(-761.986 -1142.046)"/></g><g transform="translate(6.841 22.396)"><path class="j" d="M744.009,1191.361a13.4,13.4,0,0,0,10.132-.76c1.2-.605,2.43-2.06,1.6-3.109-.66-.831-1.97-.508-2.954-.11l-9.262,3.75Z" transform="translate(-743.521 -1186.973)"/></g><g transform="translate(3.168 9.736)"><path class="j" d="M728.44,1124.135a10.633,10.633,0,0,1,.427,2.017,17.513,17.513,0,0,0,.842,4.493c.052.159.344,1.311.488,1.35a3.35,3.35,0,0,1-1.241-.862,16.733,16.733,0,0,1-3.241-4.429,10.451,10.451,0,0,1-1.352-3.328,2.477,2.477,0,0,1,1.265-2.416c.874-.35,1.761.665,2.135,1.338A7,7,0,0,1,728.44,1124.135Z" transform="translate(-724.346 -1120.889)"/></g><g transform="translate(0 18.525)"><path class="j" d="M711.9,1170.014a10.627,10.627,0,0,1,.427,2.017,17.479,17.479,0,0,0,.842,4.492c.052.159.344,1.311.488,1.35a3.356,3.356,0,0,1-1.241-.862,16.728,16.728,0,0,1-3.241-4.429,10.451,10.451,0,0,1-1.351-3.329,2.478,2.478,0,0,1,1.265-2.416c.874-.35,1.761.665,2.135,1.339A7,7,0,0,1,711.9,1170.014Z" transform="translate(-707.811 -1166.767)"/></g></g><g class="k" transform="translate(34.038 65.952)"><path class="j" d="M799.848,842.84a8.117,8.117,0,0,1-1.866-2.505c-.594-1.032-1.182-2.068-1.756-3.111-1.118-2.033-2.179-4.1-3.138-6.212a54.361,54.361,0,0,1-2.378-6.118c-.354-1.121-.665-2.254-.906-3.4a10.177,10.177,0,0,1-.357-3.316c.042-.332.563-.612.74-.2a18.02,18.02,0,0,1,.8,3.017c.258,1.088.549,2.17.877,3.239a55.751,55.751,0,0,0,2.458,6.454c.905,2.015,1.908,3.985,2.947,5.934q.8,1.5,1.63,2.988a8.938,8.938,0,0,1,1.3,3.035.21.21,0,0,1-.347.2Z" transform="translate(-789.409 -817.767)"/></g><g class="l" transform="translate(57.607 83.496)"><path class="j" d="M913.449,909.862c-.189.213-.67.722-.946.365s.327-.7.576-.844a.306.306,0,0,1,.37.479Z" transform="translate(-912.433 -909.341)"/></g><g class="l" transform="translate(55.652 82.009)"><path class="j" d="M903.245,902.1c-.189.213-.67.722-.946.365s.327-.7.576-.844a.306.306,0,0,1,.37.479Z" transform="translate(-902.23 -901.581)"/></g><g class="l" transform="translate(67.723 126.095)"><path class="j" d="M966.153,1132.447c-.243.1-.517.2-.739,0l.239.1a.624.624,0,0,1-.29-.066.262.262,0,0,1-.093-.353.643.643,0,0,1,.212-.211l-.156.2c.064-.278.384-.347.623-.4a.387.387,0,0,1,.468.266.392.392,0,0,1-.266.469Z" transform="translate(-965.239 -1131.702)"/></g><g class="l" transform="translate(66.212 127.931)"><path class="j" d="M958.041,1141.466c.161.265.425.828.007,1s-.621-.4-.686-.71a.372.372,0,0,1,.68-.286Z" transform="translate(-957.351 -1141.284)"/></g><path class="m" d="M848.556,635.813a11.376,11.376,0,0,0,1.079-1.908c.011-.027.023-.054.034-.081a8.786,8.786,0,0,1-3.26-2.241A5.01,5.01,0,0,0,848.556,635.813Z" transform="translate(-801.449 -601.3)"/></g><g transform="translate(388.306 203.861)"><path class="d" d="M996.924,781.339c.252.373.5.776.768,1.212,1.521,2.486,3.029,5.076,4.321,7.709a4.188,4.188,0,0,1,.6,2.2,2.273,2.273,0,0,1-1.572,1.859,17.208,17.208,0,0,1-2.209.778c-2.62.489-4.091-5.03-5.711-6.3-2.612-2.047-6.21-2.4-9.147-3.813-2.253-1.086-4.457-2.906-5.232-5.357a2.412,2.412,0,0,1-.051-1.437,1.339,1.339,0,0,1,2.23-.632,9.489,9.489,0,0,0,2.7,1.714,19.45,19.45,0,0,0,7.043,1.981c.458.03,2,.1,1.643-.805-.1-.265-1.136-.749-1.393-.982-.412-.373-1.791-1.592-1.2-2.232.4-.427,1.232.123,1.629.292l2.221.948A7.107,7.107,0,0,1,996.924,781.339Z" transform="translate(-978.601 -717.893)"/><path class="f" d="M1248.389,525.892c6.11-.364,8.592-4.02,8.664-11.063a27.071,27.071,0,0,0-.885-8.363c-.9-2.883-3.1-4.712-4.45-7.244-1.536-2.875-1.739-6.468-5.674-6.982-2.258-.3-8.941,1.178-8.909,4.009.008.663.314,1.3.284,1.963-.08,1.773-2.257,2.517-3.474,3.811-1.978,2.105.109,4.511-.305,6.87-.216,1.227-1.23,1.848-1.532,3-.478,1.826.07,3.8-.433,5.65-1.658,6.087-.056,5.941,5.553,8.708a4.677,4.677,0,0,0,3.038.708c1.051-.249,1.834-1.494,2.815-1.664,1.374-.238,1.322.461,2.521.554A20.384,20.384,0,0,0,1248.389,525.892Z" transform="translate(-1182.691 -487.596)"/><path class="f" d="M1268.008,481.076a5.024,5.024,0,0,0,.33.785c1.834,3.508,6.1,3.785,9.623,3.128.72-.136,1.435-.3,2.159-.417a3.982,3.982,0,0,1,1.95-.038,6.424,6.424,0,0,1,2.923,2.189c2.516,3.386.94,9.847,2.3,13.812a7.469,7.469,0,0,0,3.783,4.531,4.564,4.564,0,0,0,5.467-1.24c1.8-2.549,6.494-3.261,8.467-6.482,2.018-3.295,1.056-5.845-2.1-8.055a5.431,5.431,0,0,1-2.4-2.777c-.329-1.233.186-2.51.449-3.759s.134-2.81-.981-3.432-2.613.061-3.759-.509c-2.094-1.041-.868-4.727-2.676-6.21-1.213-.995-3.027-.4-4.567-.7-1.5-.294-2.672-1.431-3.967-2.248a10.345,10.345,0,0,0-11.544.557C1270.544,472.468,1266.75,477.176,1268.008,481.076Z" transform="translate(-1212.364 -468.158)"/><path class="d" d="M1280.174,592.268c-4.154,7.627-13.447,12.176-18.476,19.427-2.883,4.156-6.766,8.466-11.74,8.388-4.885-.077-8.836-4.648-10.019-9.53-1.089-4.493.6-8.537.182-12.891-.26-2.7-1.875-4.447-.771-7.342,1.9-4.974,7.987-5.025,11.912-7.325a8.418,8.418,0,0,0,3.683-4.01,7.734,7.734,0,0,0,.391-1.328,12.174,12.174,0,0,0,.13-3.52c-.276-3.053-1.336-6.356-1.882-9.361a18.47,18.47,0,0,1-.327-2.912q0-.165,0-.33a10.3,10.3,0,0,1,1.192-4.37,4.937,4.937,0,0,1,2.677-2.7c1.344-.359,2.555.81,3.085,1.981a10.825,10.825,0,0,0,1.594,1.985,7.723,7.723,0,0,1,.945,1.618,4.372,4.372,0,0,1,.4,1.661,40.132,40.132,0,0,0,.378,4.225,23.023,23.023,0,0,0,1.345,4.671,18.348,18.348,0,0,0,5.545,7.763,28.314,28.314,0,0,0,6.486,3.452c2.294.976,4.278,1.463,4.909,4.239C1282.288,588.147,1281.294,590.563,1280.174,592.268Z" transform="translate(-1189.088 -537.878)"/><path class="d" d="M1291.445,563.163c-1.347,1.856-4.785,5.588-7.326,5.146a5.247,5.247,0,0,1-2.373-1.082c-2.415-1.937-3.472-5.372-4.144-8.308-.009-.04-.018-.08-.027-.119q-.244-1.081-.407-2.156-.157-1.027-.247-2.052-.088-1-.116-2c-.014-.477.317-4.057.076-4.279a6.535,6.535,0,0,0,3.566,1.673,17.481,17.481,0,0,0,5.442-.668c1.8-.344,3.8-.437,5.344.6a5.956,5.956,0,0,1,2.3,3.895A11.729,11.729,0,0,1,1291.445,563.163Z" transform="translate(-1219.675 -532.955)"/><path class="h" d="M1340.406,581.208c-1.155-.9-2.485.9-2.587,2.365-.225,3.221,4.565.856,3.143-1.676A2.258,2.258,0,0,0,1340.406,581.208Z" transform="translate(-1268.995 -559.355)"/><path class="h" d="M1279.318,583.554c-.225.928-.72,1.245-1.251,1.182q-.244-1.081-.407-2.156-.157-1.027-.247-2.052a1.59,1.59,0,0,1,.161-.068C1278.943,579.987,1279.66,582.134,1279.318,583.554Z" transform="translate(-1220.167 -558.891)"/><path class="f" d="M1324.565,557.849a.532.532,0,0,1,.309-.584,1.25,1.25,0,0,1,.755-.036,5.015,5.015,0,0,1,1.086.334,1.216,1.216,0,0,1,.519.363c.677.936-1.164.455-1.48.4s-.837-.023-1.074-.269A.446.446,0,0,1,1324.565,557.849Z" transform="translate(-1258.277 -540.133)"/><path class="n" d="M1325.249,569.7a1.248,1.248,0,0,0,.525.662.458.458,0,0,0,.676-.16,1.229,1.229,0,0,0-.431-1.826c-.239-.1-.418.2-.278.4l.029.038a.555.555,0,0,0-.406.06C1325.1,569.031,1325.161,569.441,1325.249,569.7Z" transform="translate(-1258.777 -549.158)"/><path class="n" d="M1285.443,571.383a.335.335,0,0,1,.038-.026.736.736,0,0,1,.409-.079.3.3,0,0,1,.161-.345c.5-.2.774.778.753,1.108a1.178,1.178,0,0,1-.238.646.459.459,0,0,1-.676.16,1.249,1.249,0,0,1-.524-.662C1285.282,571.941,1285.221,571.558,1285.443,571.383Z" transform="translate(-1226.535 -551.222)"/><g transform="translate(61.126 24.668)"><path class="h" d="M1298.136,596.924a.187.187,0,0,1,.121.025c.178.11-.1.482-.123.633a2.213,2.213,0,0,0,.122.9.891.891,0,0,0,1.32.606c.188-.086.4-.229.579-.119a.3.3,0,0,1,.124.3.57.57,0,0,1-.153.3,1.158,1.158,0,0,1-1.168.339c-1.329-.343-1.483-1.485-1.121-2.628a.638.638,0,0,1,.14-.27A.277.277,0,0,1,1298.136,596.924Z" transform="translate(-1297.668 -596.923)"/></g><g transform="translate(61.851 29.388)"><path class="n" d="M1301.544,622.128a2.909,2.909,0,0,0,2.251.361c.411-.094,1.354-.182,1.53-.655.05-.134-.07-.309-.216-.27-.181.049-.341.165-.519.232a7.008,7.008,0,0,1-.783.224,2.55,2.55,0,0,1-2.027-.231c-.226-.126-.466.206-.237.339Z" transform="translate(-1301.451 -621.56)"/></g><path class="m" d="M1303.4,619.476a.568.568,0,0,1,.335.084c.258.193.076.7-.062.894a2.665,2.665,0,0,1-2.929,1.038,3.28,3.28,0,0,1-1.788-1.216c-.3-.471-.1-.859.492-.852l3.916.051Z" transform="translate(-1237.468 -590.445)"/><path class="e" d="M1262.772,754.158a51.919,51.919,0,0,1-1.179-7.47c-.028-.015-.056-.027-.084-.044a2.391,2.391,0,0,1-.85-3.242,5.187,5.187,0,0,0,.448-.8c-.306-2.334-.565-4.673-.717-7.024a4.538,4.538,0,0,1,1.273-3.37c-.557-10.264,1.578-20.532,3.306-30.6a3.734,3.734,0,0,1,.75-1.62c-2.335-1.621-6.936-3.348-9.594-1.723a14.708,14.708,0,0,0-3.718,4,20.96,20.96,0,0,1-7.776,6.755c-4.644,2.1-12.528,1.03-12.947-5.335a15.852,15.852,0,0,1,.184-2.957c.073-.6.064-1.36-.479-1.629a1.34,1.34,0,0,0-1.329.32c-1.162.873-2.62,1.007-3.859,1.77a10.764,10.764,0,0,0-3,2.9,23.99,23.99,0,0,0-3.352,7.365,66.7,66.7,0,0,0-2.169,12.53,62.039,62.039,0,0,0,4.57,29.964,54.061,54.061,0,0,0,3.739,7.539c3.1,4.951,7.246,8.247,14.477,7.932,9.373-.409,17.868-6.032,25.478-10.99.3-.2.619-.4.947-.605A5.027,5.027,0,0,1,1262.772,754.158Z" transform="translate(-1171.649 -653.654)"/><path class="b" d="M1206.3,1090.282c.9,7.5,1.419,15.038,2.269,22.19,1.059,8.916,1.991,17.982,3.157,26.941a21.1,21.1,0,0,1,.174,6.419c-.7,3.9-5.738,7.19-8.551,8.885a39.194,39.194,0,0,1-5.181,2.561c-2,.833-4.229.812-4.023,3.992H1221.2a2.108,2.108,0,0,0,1.885-2.055c.344-3.64-1.254-7.647-1.307-11.435a157.68,157.68,0,0,1,1.62-24.235c1.488-10.2,1.407-21.273,1.843-31.673a134.535,134.535,0,0,0-.275-19.617c-.581-5.436.394-9.447,1.426-14.893a126.218,126.218,0,0,0,1.52-36.509c-.669-6.434-.963-15.284-4.711-20.642-5.222-7.466-12.914-4.245-16.241,3.368-1.992,4.557-2.061,9.689-2.089,14.662C1204.736,1042.172,1203.421,1066.547,1206.3,1090.282Z" transform="translate(-1152.844 -894.859)"/><path class="f" d="M1222.9,1822.163a1.088,1.088,0,0,0,.11-.082c1.109-1,.529-3.924.318-5.2-.064-.387-.171-.836-.5-.981a.962.962,0,0,0-.676.047c-4.015,1.293-8.046,2.874-12.118,3.89-.645-.766-1.317-1.451-1.975-2.174-.713-.782-1.262-1.874-1.931-2.727a5.873,5.873,0,0,0-1.117-1.337c-.489-.283-.626.028-1.124.441a22.331,22.331,0,0,1-5.234,3.419c-2.25.978-4.756.949-4.507,4.706Z" transform="translate(-1152.842 -1555.752)"/><g transform="translate(64.764 111.39)"><path class="d" d="M1325.3,1101.617q3.516,12.566,5.954,25.4c3.323,17.494,3.808,35.284,7.252,52.634a48.888,48.888,0,0,1,1.327,11.84,35.967,35.967,0,0,1-.646,4.984c-.292,1.5-.93,2.665-1.308,4.124a6.474,6.474,0,0,0-.008,3.4,1.053,1.053,0,0,0,.461.614h13.035c.258-1.61-1.072-3.927-2.11-7.174-.016-.047-.03-.1-.046-.144-2.463-7.865-.243-14.8.612-22.612a277.851,277.851,0,0,0,1.845-41.689c-.572-13.312-3.339-26.292-4.343-39.5-.692-9.1-.062-18.4-2.839-27.216-2.014-6.4-10.227-17.281-17.538-16.665-4.363.367-7.762,4.286-8.941,8.5-3.421,12.235.339,21.091,4.031,32.616Q1323.765,1096.145,1325.3,1101.617Z" transform="translate(-1316.657 -1049.592)"/><path class="f" d="M1427.933,1834.245c-.116-.29-.226-.57-.335-.851q-.311-.8-.616-1.593l-.275-.717a11.024,11.024,0,0,0-.485-1.24c-.122.065-.159.442-.2.6l-.195.688c-.1.347-.2.51-.568.366-2.679-1.035-5.344-2.642-8.089-2.989a4.335,4.335,0,0,0-3.37.621,15.212,15.212,0,0,0-2.273,2.7c-.2.272-.375.539-.582.8a1.473,1.473,0,0,0-.329.976c0,.047.015.356.039.639Z" transform="translate(-1392.614 -1679.224)"/></g><path class="o" d="M1281.313,1077.866c0,.089-9.955.559-10.864.61l-22.172,1.246-11.086.623a40.275,40.275,0,0,1-4.569.235l-5.463-.29a.88.88,0,0,0-.742.192.87.87,0,0,0-.145.521c-.292,4.982-.553,9.948-.671,14.953q-.255,10.733-.227,21.471c.037,14.3-.5,29,2.147,43.094,2.363.74,5.692-.284,8.187-.269,10.544.065,21.11-.439,31.65-.215,1.8.038,14.852,1.15,15.2-.465.914-4.444.576-9.376.669-13.91.226-11.049.628-22.1.2-33.154Q1282.747,1095.166,1281.313,1077.866Z" transform="translate(-1178.081 -961.06)"/><path class="c" d="M1282.216,862.409a6.589,6.589,0,0,1-1.7-1.737,68.456,68.456,0,0,1-5.12-8.524,84.174,84.174,0,0,1-6.272-16.742,127.741,127.741,0,0,1-2.764-14.478c-1.558,5.258-5.047,9.132-11.114,9.716-6.539.628-12.857-1.674-19.376-1.476a9.453,9.453,0,0,1-8.263-4.859,11.958,11.958,0,0,1-1.142-4.914,28.465,28.465,0,0,1-.078-3.145,13.481,13.481,0,0,0,.257-2.079.409.409,0,0,0-.41-.368c-.21.031-.316.273-.38.483-2.114,6.9.906,14.71,1.555,21.667.856,9.18-.806,18.34-.605,27.524.041,1.853-.244,4.73.486,6.454.592,1.4,2.332,1.472,3.725,1.745,3.077.6,6.2.775,9.3,1.188a79.762,79.762,0,0,0,17.173.409c3.021-.254,25.344-3.218,25.083-6.822Q1282.428,864.433,1282.216,862.409Z" transform="translate(-1177.889 -747.583)"/><g transform="translate(99.316 89.329)"><path class="p" d="M1497.188,935.4c.75-.15,1.457-.516,2.22-.6a2.6,2.6,0,0,1,1.131.2,1.124,1.124,0,0,0,.849.024.15.15,0,0,0-.062-.289c-.7.006-1.3-.376-2.014-.285-.741.095-1.423.443-2.153.589-.216.043-.19.4.028.355Z" transform="translate(-1497.011 -934.439)"/></g><path class="m" d="M1371.919,718c-.97,11.292-.18,22.653.609,33.96.408,5.834,4.549,70.7,4.975,70.685l14.992-.418c1.011-.028,13.427.031,13.447-.592.409-12.609-.943-25.375-1.668-37.975-.631-10.98-.478-21.909-5.029-32.14-2.954-6.641-7.77-12.477-9.63-19.5-1.935-7.312-.446-15.047,1.159-22.439.891-4.1.989-8.009,1.483-12.158a10.125,10.125,0,0,0-.7-5.929,10,10,0,0,0-4.039-3.711c-1.328-.778-2.687-1.86-4.317-1.836-2.784.041-3.72,3.556-4.679,5.607A78.172,78.172,0,0,0,1371.919,718Z" transform="translate(-1296.205 -644.221)"/><path class="m" d="M1219.481,758.687c0,24.871,3.894,49.974,1.722,74.836-2.564.374-5.568-.018-8.21-.051a2.438,2.438,0,0,1-1.482-.34c-.805-.617-.049-4.435-.019-5.446q.1-3.295.211-6.589.221-6.374.514-12.746.582-12.552,1.519-25.084c1.32-17.318,2.82-34.859-.036-52.109-.738-4.458-1.766-8.9-1.838-13.415-.062-3.841.417-9.3,3.651-11.817a30.129,30.129,0,0,1,5.582-3.43,31.95,31.95,0,0,1,3.038-1.253c.891-.315,1.811-.522,2.707-.812a11.581,11.581,0,0,1,1.828-.439,3.463,3.463,0,0,1,.64-.089c.553.021-.225.559-.339.689-.372.425-.719.874-1.047,1.334a17.675,17.675,0,0,0-1.68,2.9,54.434,54.434,0,0,0-1.994,5.165,81.322,81.322,0,0,0-3.008,11.169C1218.935,733.511,1219.178,746.179,1219.481,758.687Z" transform="translate(-1166.592 -655.505)"/><g transform="translate(55.064 88.101)"><path class="g" d="M1291.268,974.564l20.4-18.1a.168.168,0,0,0,.014-.237l-24.964-28.146a.168.168,0,0,0-.238-.014l-20.4,18.1a.168.168,0,0,0-.014.238l24.964,28.146A.169.169,0,0,0,1291.268,974.564Z" transform="translate(-1266.024 -928.029)"/><rect class="f" width="11.638" height="3.08" rx="0.604" transform="matrix(-0.748, 0.664, -0.664, -0.748, 16.199, 7.02)"/></g><path class="d" d="M1307.188,1029.33c2.943-1.041,10.222-4.763,12.465-.872,2.775,4.812-4.54,4.858-6.954,6.356-1.581.981-2.879,2.325-4.385,3.4a9.984,9.984,0,0,1-2.375,1.29,23.909,23.909,0,0,1-2.424,1.211,2.13,2.13,0,0,1-.817.3.766.766,0,0,1-.751-.369.441.441,0,0,1,.351-.634,2.473,2.473,0,0,1-2.19.78c-.647-.2-.361-.775.043-1.134-.374.331-.933.674-1.341.361-.388-.3-.233-.918.076-1.28s.742-.651.873-1.11c-.392.159-1.169.745-1.548.358-.275-.281-.144-.924,0-1.225C1299.942,1033.08,1303.4,1030.667,1307.188,1029.33Z" transform="translate(-1236.85 -919.715)"/><path class="m" d="M1407.223,762.6a30.044,30.044,0,0,1-3.812,2.906,103.26,103.26,0,0,1-22.173,11.262,4.053,4.053,0,0,1-3.284.232,4.106,4.106,0,0,1-1.518-1.94L1374,770.129a4.132,4.132,0,0,1-.628-2.736c.314-1.258,1.69-1.906,2.935-2.268,5.551-1.617,9.235-5.805,13.682-9.252,2.358-1.828,4.6-4.223,4.892-7.193.314-3.2-1.018-5.939-2.215-8.8-3.629-8.692-4.585-18.909-4.04-28.359a3.758,3.758,0,0,1,1.107-2.949,2.558,2.558,0,0,1,2.686,0,6.869,6.869,0,0,1,2.012,1.969,86.123,86.123,0,0,1,9.1,15.2,74.816,74.816,0,0,1,6,17.8c.034.182.068.365.1.549,1.018,5.663,2.7,12.6-1.431,17.475A12.914,12.914,0,0,1,1407.223,762.6Z" transform="translate(-1297.689 -662.203)"/><path class="m" d="M1077.527,758.7a13.115,13.115,0,0,1-1.38,2.436c-1.5,2.054-4.809,1.784-6.838.252-3.169-2.392-4.991-6.629-6.806-10.032a2.582,2.582,0,0,0-4.272-1.3l-5.7,2.985a2.9,2.9,0,0,0-1.586,1.44,2.844,2.844,0,0,0,.284,1.915,101.2,101.2,0,0,0,7.356,13.949,53.509,53.509,0,0,0,9.307,11.542c3.441,3.22,8.26,6.129,12.631,4.365,4.962-2,5.968-8.463,6.214-13.808q.68-14.739,1.24-29.484a47.725,47.725,0,0,1,.713-6.687,14.094,14.094,0,0,0-.039-4.319c-.359-2.317-3.835,1.157-4.412,1.989-2.483,3.576-3.1,8.124-3.873,12.305C1079.589,750.415,1079.258,754.784,1077.527,758.7Z" transform="translate(-1037.021 -680.784)"/><path class="f" d="M1282.576,558.617c.157.009.348,0,.427-.134a.377.377,0,0,0-.074-.392,2.2,2.2,0,0,0-2.2-.62,1,1,0,0,0-.639.648.417.417,0,0,0,.037.342c.12.171.871.063,1.089.076Z" transform="translate(-1222.319 -540.291)"/><g transform="translate(58.214 41.776)"><path class="g" d="M1283.589,793.565a2.691,2.691,0,0,1,3.134.238,2.473,2.473,0,0,1-.2,3.639,2.441,2.441,0,1,1-2.93-3.877Z" transform="translate(-1282.469 -772.685)"/><g transform="translate(1.317)"><path class="q" d="M1294.252,686.9a7.556,7.556,0,0,0-1.21,1.438,20.116,20.116,0,0,0-1.389,2.533,22.547,22.547,0,0,0-1.782,5.682,27.241,27.241,0,0,0,.377,12.35.389.389,0,0,0,.749-.206,27.16,27.16,0,0,1-.483-11.966,23.077,23.077,0,0,1,1.638-5.58,17.9,17.9,0,0,1,1.093-1.991,14.232,14.232,0,0,1,1.5-2.024,8.223,8.223,0,0,0,.526-.748c.027-.038.054-.086.035-.127-.031-.067-.131-.04-.194,0A5.528,5.528,0,0,0,1294.252,686.9Z" transform="translate(-1289.346 -686.22)"/></g></g><g transform="translate(72.714 37.135)"><g transform="translate(5.688)"><path class="q" d="M1388.158,662.856c3.651,6.443,4.079,13.528,2.555,20.748-.144.682.9.974,1.048.289a32.528,32.528,0,0,0-1.166-17.743c-.493-1.32-1.055-3.264-2.3-4.057-.116-.074-.274-.143-.383-.057-.128.1-.055.307.029.448Q1388.052,662.67,1388.158,662.856Z" transform="translate(-1387.846 -661.996)"/></g><g transform="translate(0 21.218)"><path class="q" d="M1364.276,794.728c3.66,1.553,6.412-1.1,7.009-4.686a31.406,31.406,0,0,0,.061-7.507,26.535,26.535,0,0,0-1.2-6.254c-.5-1.491-1.44-3.047-3.076-3.459-1.425-.359-2.588.715-3.4,1.753a30.437,30.437,0,0,0-5.27,12.3c-.456,2.049-.659,8.33,3.091,7.446.4-.094.326-.777-.1-.734-1.933.2-2.444-2-2.524-3.549-.109-2.111.728-4.2,1.328-6.184a25.083,25.083,0,0,1,2.768-6.32c.755-1.193,1.787-3.491,3.354-3.682,2.1-.258,2.85,2.894,3.191,4.387a31.839,31.839,0,0,1,.8,6.717c.032,2.253.285,4.682-.7,6.785a3.692,3.692,0,0,1-4.96,2.113c-.5-.187-.863.659-.366.869Z" transform="translate(-1358.156 -772.752)"/></g><path class="g" d="M1372.248,880.082a1.227,1.227,0,1,1,.1-2.122,1.292,1.292,0,0,1-.1,2.122Z" transform="translate(-1368.104 -836.454)"/><path class="g" d="M1388.568,881.916a1.227,1.227,0,1,1,.1-2.122,1.293,1.293,0,0,1-.1,2.122Z" transform="translate(-1381.297 -837.935)"/></g></g><g transform="translate(495.611 199.952)"><path class="r" d="M1589.875,473.332a25.582,25.582,0,1,1-8.755-19.267A25.582,25.582,0,0,1,1589.875,473.332Z" transform="translate(-1538.712 -447.751)"/><path class="s" d="M1629.334,499.973a25.582,25.582,0,0,1-41.811,19.776q.478-.275.948-.561A70.091,70.091,0,0,0,1604.7,505.5a107.4,107.4,0,0,0,15.88-24.8A25.516,25.516,0,0,1,1629.334,499.973Z" transform="translate(-1578.172 -474.393)"/><path class="t" d="M1600.982,487.887a22.131,22.131,0,1,1-7.3-16.428A22.131,22.131,0,0,1,1600.982,487.887Z" transform="translate(-1553.269 -462.307)"/><path class="u" d="M1637.471,511.954a22.132,22.132,0,0,1-35.616,17.549q.618-.351,1.225-.718a57.272,57.272,0,0,0,13.262-11.183,90.152,90.152,0,0,0,13.828-22.076A22.074,22.074,0,0,1,1637.471,511.954Z" transform="translate(-1589.758 -486.373)"/><path class="v" d="M1668.211,479.781a.958.958,0,0,1-.955-.955v-3.219a.955.955,0,1,1,1.91,0v3.219A.958.958,0,0,1,1668.211,479.781Z" transform="translate(-1642.63 -469.498)"/><path class="v" d="M1668.211,669.835a.958.958,0,0,1-.955-.955V665.66a.955.955,0,1,1,1.91,0v3.219A.958.958,0,0,1,1668.211,669.835Z" transform="translate(-1642.63 -623.141)"/><path class="v" d="M1568.958,579.035a.958.958,0,0,1-.955.955h-3.219a.955.955,0,1,1,0-1.911H1568A.958.958,0,0,1,1568.958,579.035Z" transform="translate(-1559.016 -553.112)"/><path class="v" d="M1759.012,579.035a.958.958,0,0,1-.955.955h-3.219a.955.955,0,0,1,0-1.911h3.219A.958.958,0,0,1,1759.012,579.035Z" transform="translate(-1712.66 -553.112)"/><path class="v" d="M1668.211,521.076a.958.958,0,0,1-.955-.955V506.159a.955.955,0,1,1,1.91,0v13.961A.958.958,0,0,1,1668.211,521.076Z" transform="translate(-1642.63 -494.197)"/><path class="v" d="M1667.493,558.79a.958.958,0,0,1,.087-1.348l5.636-4.95a.955.955,0,0,1,1.261,1.436l-5.636,4.95A.958.958,0,0,1,1667.493,558.79Z" transform="translate(-1642.63 -532.235)"/></g><g transform="translate(372.254 149.478)"><path class="v" d="M1013.824,212.308c-1.04-.055-2.076-.078-3.046-.172-4.457-.433-8.918.157-13.378.157H980.363a8.957,8.957,0,0,1-8.957-8.957V193.244a8.957,8.957,0,0,1,8.957-8.957h33.51a8.957,8.957,0,0,1,8.957,8.958c0,7.166-.026,14.256-.352,21.418a1.141,1.141,0,0,1-.323.908c-.5.366-1.119-.234-1.509-.716C1018.964,212.776,1016.383,212.444,1013.824,212.308Z" transform="translate(-956.732 -184.287)"/><path class="w" d="M903.818,297.13c1.04-.055,2.076-.078,3.046-.172,4.457-.433,8.918.157,13.378.157h17.038a8.957,8.957,0,0,0,8.957-8.957V278.066a8.957,8.957,0,0,0-8.957-8.957h-33.51a8.957,8.957,0,0,0-8.957,8.958c0,7.166.026,14.256.352,21.418a1.141,1.141,0,0,0,.323.908c.5.366,1.12-.234,1.509-.716C898.678,297.6,901.259,297.266,903.818,297.13Z" transform="translate(-894.812 -252.859)"/><g class="x" transform="translate(22.302 34.509)"><path class="m" d="M1049.992,389.79a2.088,2.088,0,0,1-1.579-.953c-1.049-1.3-2.786-1.493-4.475-1.582-.234-.012-.467-.023-.7-.033-.539-.024-1.1-.048-1.629-.1a43.419,43.419,0,0,0-6.243,0c-1.216.059-2.473.12-3.72.12h-12.8a7.634,7.634,0,0,1-7.625-7.625v-7.58a7.634,7.634,0,0,1,7.625-7.625h25.172a7.634,7.634,0,0,1,7.625,7.625c0,5.431-.02,10.752-.265,16.129a1.689,1.689,0,0,1-.609,1.365A1.341,1.341,0,0,1,1049.992,389.79ZM1039,385.215c.925,0,1.855.033,2.784.123.484.047.994.069,1.534.093.237.01.476.021.715.034,1.918.1,4.076.355,5.584,2.023.218-5.137.237-10.24.237-15.447a5.839,5.839,0,0,0-5.832-5.832h-25.172a5.838,5.838,0,0,0-5.832,5.832v7.58a5.838,5.838,0,0,0,5.832,5.832h12.8c1.2,0,2.439-.06,3.633-.118C1036.5,385.275,1037.746,385.215,1039,385.215Z" transform="translate(-1011.224 -364.415)"/></g><path class="m" d="M1047.708,219.615h-34.87a.844.844,0,0,1,0-1.689h34.87a.844.844,0,0,1,0,1.689Z" transform="translate(-989.545 -211.482)"/><path class="m" d="M1047.708,242.751h-34.87a.844.844,0,0,1,0-1.689h34.87a.844.844,0,0,1,0,1.689Z" transform="translate(-989.545 -230.185)"/></g><g transform="translate(515.426 339.84)"><path class="r" d="M1660.592,1251.956a34.032,34.032,0,0,1,1.963-9.5c1.609-4.387,3.558-8.958,2.773-13.564-.791-4.638-4.451-8.859-4.449-13.63,0-5.931,1.989-11.321,1.572-17.337-.446-6.439-1.164-11.868,1.506-18.076.44-1.022,1.348-2.2,2.4-1.833.92.325,1.047,1.554,1.012,2.529-.133,3.719-1.194,8.649-.44,12.275.593,2.852,2.617,5.023,3.663,7.8,3.223,8.448.592,16.24,2.7,24.294,1.173,4.485,4.188,8.5,4.386,13.128.249,5.835-4.055,11.233-3.45,17.041.259,2.483,1.4,4.777,2.064,7.183s.761,5.224-.824,7.152c-2.914,3.546-8.691,1.244-10.967-1.806C1661.3,1263.329,1660.249,1257.553,1660.592,1251.956Z" transform="translate(-1657.007 -1177.941)"/><path class="r" d="M1736.988,1283.188c.458-5.3,1.9-10.68.687-15.861-.792-3.39-2.7-6.525-2.891-10-.2-3.578,1.438-6.985,1.972-10.528,1.465-9.717-3.5-18.627.181-28.382.555-1.469,2.081-3.159,3.375-2.268a2.8,2.8,0,0,1,.8,2.416c-.011,4.336-.373,8.615.768,12.721,1.2,4.3,3.426,7.322,3.426,12.031-.343,4.686-3.326,9.07-2.739,13.731.591,4.691,4.677,8.4,5.191,13.1.716,6.546-5.7,12.546-4.286,18.978.52,2.369,5.124,13.2-1.381,9.256C1737.423,1295.556,1736.579,1287.924,1736.988,1283.188Z" transform="translate(-1717.022 -1208.628)"/><path class="r" d="M1776.841,1367.987c1.371-4.009,3.708-7.994,3.053-12.18-.6-3.854-3.688-7.087-3.807-10.986-.115-3.755,2.539-7.008,3.365-10.672.8-3.557-.161-7.24-.475-10.874s.284-7.794,3.233-9.941c2.876,7.4,5.8,15.288,4.307,23.082-.714,3.718-2.424,7.286-2.356,11.072.066,3.662,1.79,7.068,2.623,10.635,1.318,5.647.378,11.547-.568,17.267-.331,2-.764,4.191-2.34,5.472C1777.858,1385.757,1775.687,1371.362,1776.841,1367.987Z" transform="translate(-1750.423 -1287.396)"/><g transform="translate(6.586 11.972)"><path class="m" d="M1677.232,1240.579a8.884,8.884,0,0,0-.674,3.886,11.655,11.655,0,0,0,.452,1.637,14.882,14.882,0,0,1,.356,2.415c.167,1.4.33,2.817.616,4.2a28.368,28.368,0,0,1,.888,4.139c.162,2.919-.357,5.941.174,8.833.547,2.979,2.3,5.6,2.866,8.587a40.959,40.959,0,0,1,.315,9.032c-.11,2.879-1.28,5.574-1.68,8.407-.2,1.384-.344,2.78-.512,4.168-.181,1.5-.208,2.993-.456,4.486a12.616,12.616,0,0,0-.255,4.032c.1.617.329,1.2.468,1.807a14.955,14.955,0,0,1,.121,2.266,15.168,15.168,0,0,0,1.349,4.528c.551,1.33,1.105,2.658,1.7,3.971,1.2,2.657,2.625,5.508,2.6,8.49a.537.537,0,0,0,1.073,0,18.055,18.055,0,0,0-1.968-7.206c-1.082-2.46-2.292-4.887-3.17-7.431a12,12,0,0,1-.562-2.087c-.113-.748.014-1.506-.095-2.255a14.05,14.05,0,0,0-.432-1.689,6.622,6.622,0,0,1-.156-2.31c.107-1.37.444-2.712.53-4.085.095-1.5.229-2.982.409-4.48a38.828,38.828,0,0,1,.67-4.415c.324-1.361.711-2.708.943-4.09a24.691,24.691,0,0,0,.221-4.062c0-1.488.023-2.977-.073-4.462a18.867,18.867,0,0,0-.691-4.189c-.423-1.415-1.058-2.764-1.6-4.136a14.168,14.168,0,0,1-1.162-4.448c-.083-1.5-.029-3.019-.038-4.523a19.215,19.215,0,0,0-.355-4.7c-.389-1.539-.76-3.036-1-4.61a27.7,27.7,0,0,0-.746-4.621,5.541,5.541,0,0,1-.359-2.41,13.5,13.5,0,0,1,.638-2.556c.081-.259-.322-.368-.405-.112Z" transform="translate(-1676.516 -1240.433)"/></g><g transform="translate(20.276 17.704)"><path class="m" d="M1749.381,1270.592c-.01,1.345-.067,2.7.043,4.039a17.8,17.8,0,0,0,.8,3.749,21.787,21.787,0,0,1,.96,3.982,20.506,20.506,0,0,1,.064,3.356,33.766,33.766,0,0,1-1.52,7.328c-.672,2.391-1.922,4.943-1.732,7.478a16.787,16.787,0,0,0,2.288,6.332,17.254,17.254,0,0,1,1.448,3.09,11.745,11.745,0,0,1,.417,3.61c-.071,2.655-.964,5.189-1.548,7.759a72.9,72.9,0,0,0-1.478,7.929,9.141,9.141,0,0,0,.325,3.945,9.4,9.4,0,0,1,.254,2.41,8.066,8.066,0,0,0,.457,2.039c.426,1.276.891,2.565,1.413,3.8.425,1.01,1.2,2.309,1.013,3.447-.109.666.911.952,1.02.281a5.327,5.327,0,0,0-.519-2.838c-.4-1-.809-2-1.192-3.016a13.013,13.013,0,0,1-1.153-3.985,10.6,10.6,0,0,0-.126-1.863,15.693,15.693,0,0,1-.5-1.949,15.3,15.3,0,0,1,.311-3.975c.24-1.364.481-2.727.759-4.084q.427-2.081.941-4.144c.3-1.22.662-2.425.844-3.672a13.119,13.119,0,0,0-.594-6.858c-.9-2.189-2.286-4.13-3.019-6.4a7.459,7.459,0,0,1-.328-3.583,31.829,31.829,0,0,1,1.05-3.8,42.709,42.709,0,0,0,1.763-7.32,19.909,19.909,0,0,0-.549-7.82,35.311,35.311,0,0,1-1.227-4.409,32.266,32.266,0,0,1-.187-4.857.249.249,0,0,0-.5,0Z" transform="translate(-1747.975 -1270.351)"/></g><g transform="translate(29.488 36.748)"><path class="m" d="M1798.642,1370c.179,2.126.487,4.243.581,6.376a19.108,19.108,0,0,1-.658,6.045c-.958,3.461-2.836,6.907-2.195,10.591.364,2.092.962,4.163,1.479,6.221a32.878,32.878,0,0,1,1.284,6.229c.109,2.108-.649,4.186-1.211,6.195a48.113,48.113,0,0,0-1.5,5.774,25.71,25.71,0,0,0-.267,6.229,9.181,9.181,0,0,0,.654,2.65,23.375,23.375,0,0,1,1.133,2.651.391.391,0,0,0,.764-.1,4.927,4.927,0,0,0-.586-2.049,10.6,10.6,0,0,1-.916-2.619,20.957,20.957,0,0,1,.028-5.69,34.11,34.11,0,0,1,1.355-5.806,31.973,31.973,0,0,0,1.422-5.9,18.051,18.051,0,0,0-.844-5.876c-.532-2.079-1.075-4.156-1.574-6.243a11.873,11.873,0,0,1-.245-5.79c.44-1.836,1.11-3.611,1.622-5.427a20.925,20.925,0,0,0,.844-6.4c-.07-2.364-.45-4.706-.67-7.058-.03-.316-.525-.321-.5,0Z" transform="translate(-1796.062 -1369.759)"/></g><rect class="m" width="42.814" height="42.814" rx="21.407" transform="translate(0 87.618)"/></g><g transform="translate(256.4 359.941)"><g transform="translate(0 0)"><path class="r" d="M376.455,1329.748c.308.692.62,1.384.94,2.068a35.666,35.666,0,0,0,4.622,7.766c4.607,5.522,7.785,4.439,12.6.977,1.434-1.03,2.843-2.388,4.29-3.443a12.075,12.075,0,0,1,1.516-.961c2.2-1.15,4.046-1.051,5.453-4.162a5.709,5.709,0,0,0,.441-3.938,2.8,2.8,0,0,0-3.085-2,4.613,4.613,0,0,0-1.907.873,13.669,13.669,0,0,0-1.392,1.187c-.414.394-.872.818-1.377.756-.922-.111-1.283-1.84-.825-2.912.6-1.409,2.791-2.87,3.885-3.575,2.222-1.432,5.572-1.754,6.927-4.96,1.232-2.912.243-5.841-2.4-5.965a5.5,5.5,0,0,0-1.764.209,7.276,7.276,0,0,0-3.882,2.865c-.6.842-1.272,1.927-2.134,1.753-3.3-.668,1.625-10.874,2.03-12.894.419-2.087.63-5.422-.367-7.32-1.394-2.65-3.546-2.181-4.063,1.209a36.575,36.575,0,0,1-.511,4.118c-.2.713-.7,1.466-1.234,1.212-.481-.228-.575-1.065-.59-1.746-.094-4.576.961-11.975-1.718-15.549a4.838,4.838,0,0,0-5.273-2.282,3.645,3.645,0,0,0-2.233,2.139c-1.055,2.432-.272,5.545.823,7.942s2.527,4.683,2.815,7.465-1.323,6.138-3.393,5.618c-.951-.238-1.7-1.2-2.567-1.761-1.791-1.147-4.163-.309-5.293,1.87a7.34,7.34,0,0,0,.548,7.27c1.215,1.554,3,2.005,4.4,3.248s2.3,4.2,1.008,5.634c-1.69,1.878-4.445-1.4-6.357.049C374.63,1323.841,375.42,1327.422,376.455,1329.748Z" transform="translate(-359.014 -1282.863)"/><g transform="translate(29.613 6.735)"><path class="r" d="M444.9,1358.65c.141.783.286,1.567.44,2.347a43.077,43.077,0,0,0,2.7,9.241c3.179,7.091,6.455,7.309,11.826,5.9,1.6-.418,3.245-1.16,4.861-1.6a10.084,10.084,0,0,1,1.661-.321c2.361-.229,4.1.591,6.131-1.826a5.118,5.118,0,0,0,1.293-3.589,3.491,3.491,0,0,0-2.5-3.129,4.109,4.109,0,0,0-2.015.083,10.907,10.907,0,0,0-1.593.586,1.681,1.681,0,0,1-1.483.179c-.856-.469-.818-2.264-.143-3.108.888-1.109,3.3-1.642,4.5-1.885,2.44-.492,5.711.52,7.716-2.009,1.822-2.3,1.525-5.485-.972-6.645a5.737,5.737,0,0,0-1.732-.5,6,6,0,0,0-4.343,1.207c-.761.567-1.642,1.339-2.427.833-3-1.938,3.96-9.749,4.794-11.518.862-1.828,1.8-4.932,1.27-7.138-.745-3.081-2.905-3.482-4.149-.447a32.412,32.412,0,0,1-1.4,3.732c-.345.6-.993,1.125-1.448.671-.409-.407-.313-1.245-.177-1.9.923-4.408,3.569-11.062,1.8-15.532-.78-2.352-2.7-4.1-4.532-4.258a2.924,2.924,0,0,0-2.607,1.163c-1.546,1.908-1.488,5.19-.972,7.912s1.377,5.47,1.037,8.241-2.623,5.342-4.485,4.03c-.856-.6-1.354-1.818-2.063-2.694a3.555,3.555,0,0,0-5.471-.3,7.207,7.207,0,0,0-1.086,7.161c.816,1.963,2.421,3.1,3.484,4.837s1.27,4.918-.284,5.78c-2.03,1.128-3.936-3.09-6.084-2.459C444.467,1352.288,444.429,1356.02,444.9,1358.65Z" transform="translate(-444.652 -1318.021)"/><g transform="translate(1.097 29.99)"><path class="m" d="M466.32,1475.515c-2.8,13.631-8.625,25.573-12.63,38.547-.551,1.784-1.085,3.586-1.528,5.424-.208.864-.393,1.744-.518,2.637a11.636,11.636,0,0,0-.135,2.716l-.42.058-.095.109c.343-.853,1.266-.051.923.8-.2.486-.611.62-.958.366a1.837,1.837,0,0,1-.574-1.446,21.138,21.138,0,0,1,.658-5.384,108.424,108.424,0,0,1,3.234-10.708c2.436-7.078,5.241-13.916,7.592-21.048a111.786,111.786,0,0,0,3.4-12.5c.192-.936,1.242-.5,1.05.433Z" transform="translate(-450.379 -1474.56)"/><g transform="translate(5.701 20.833)"><path class="m" d="M492.644,1584.765a31.135,31.135,0,0,0-11.568,8.1c-.546.593-1.293-.483-.743-1.081a32.423,32.423,0,0,1,12.061-8.444c.681-.264.926,1.165.249,1.428Z" transform="translate(-480.14 -1583.305)"/></g><g transform="translate(4.713 8.196)"><path class="m" d="M478.833,1529.616c-.18-4.008-.514-8.966-3.582-10.954-.634-.411-.038-1.644.592-1.235,3.432,2.224,3.887,7.742,4.089,12.235.042.943-1.057.889-1.1-.045Z" transform="translate(-474.98 -1517.344)"/></g></g></g><g transform="translate(0 8.555)"><path class="r" d="M296.52,1377.175c.481.484.967.967,1.458,1.438a25.7,25.7,0,0,0,6.485,4.846c5.833,2.776,8.465.166,11.94-5.476,1.034-1.679,1.952-3.649,2.99-5.358a16.787,16.787,0,0,1,1.13-1.656c1.713-2.18,3.444-3.021,3.862-6.611a5.574,5.574,0,0,0-.712-3.867,2.377,2.377,0,0,0-3.423-.29,6.315,6.315,0,0,0-1.516,1.773,18.955,18.955,0,0,0-.95,1.8c-.271.574-.574,1.2-1.059,1.4-.884.364-1.711-1.054-1.592-2.277.157-1.609,1.766-4.068,2.577-5.275,1.649-2.449,4.656-4.443,5-8.1.312-3.318-1.436-5.527-3.917-4.3a6.84,6.84,0,0,0-1.573,1.086,10.029,10.029,0,0,0-2.777,4.616c-.317,1.084-.629,2.427-1.476,2.7-3.242,1.052-1.589-10.884-1.788-12.958-.206-2.142-.959-5.336-2.422-6.586-2.044-1.747-3.9-.223-3.415,3.175a36,36,0,0,1,.7,4.069c.022.759-.23,1.711-.8,1.746-.51.033-.835-.694-1.042-1.317-1.388-4.186-2.516-11.566-6.011-13.517a4.45,4.45,0,0,0-5.527.558,4.919,4.919,0,0,0-1.458,3.109c-.284,2.784,1.325,5.268,3.02,6.932s3.67,3.054,4.727,5.482.521,6.349-1.541,6.915c-.948.261-1.911-.255-2.876-.329-1.983-.155-3.94,1.821-4.366,4.409s.727,5.477,2.574,6.449c1.566.823,3.344.338,4.994.778s3.324,2.718,2.535,4.7c-1.029,2.593-4.511.954-5.867,3.263C293.151,1372.634,294.9,1375.547,296.52,1377.175Z" transform="translate(-290.077 -1327.52)"/><g transform="translate(9.823 27.491)"><g transform="translate(3.891)"><path class="m" d="M362.733,1471.466c4.335,12.9,5.529,27.056,8.62,40.468.425,1.844.871,3.688,1.406,5.483a25.45,25.45,0,0,0,.857,2.475c.1.237,1.023,2.329,1.19,2.21l-.3.4c-.007.055-.014.11-.021.165-.142-.949.952-1.113,1.094-.166a.926.926,0,0,1-.565,1.1c-.444.112-.84-.2-1.132-.629a18.027,18.027,0,0,1-2.058-4.713,112.152,112.152,0,0,1-2.607-11.009c-1.492-7.53-2.586-15.187-4.17-22.687a112.1,112.1,0,0,0-3.334-12.537c-.3-.885.719-1.44,1.017-.556Z" transform="translate(-361.662 -1471.019)"/></g><g transform="translate(10.706 13.805)"><path class="m" d="M403.409,1544.27a52.536,52.536,0,0,0-5.071,16.063c-.139.921-1.228.724-1.088-.2a54.7,54.7,0,0,1,5.286-16.749c.4-.781,1.271.114.873.891Z" transform="translate(-397.238 -1543.077)"/></g><g transform="translate(0 14.671)"><path class="m" d="M349.921,1554.693c-2.049-2.941-4.669-6.484-7.985-5.417-.685.221-.813-1.236-.132-1.456,3.709-1.194,6.689,2.678,8.986,5.975.482.692-.392,1.583-.869.9Z" transform="translate(-341.353 -1547.6)"/></g></g></g><g transform="translate(26.443 30.288)"><path class="m" d="M433,1441.689c.344,14.126-2.578,27.831-3.532,41.805-.131,1.921-.243,3.854-.258,5.784-.007.908.01,1.821.089,2.723a11.242,11.242,0,0,0,.473,2.648l-.388.221-.067.142c.138-.95,1.2-.548,1.059.4-.079.542-.447.834-.834.728a1.493,1.493,0,0,1-.869-1.155,21.231,21.231,0,0,1-.564-5.4c0-3.841.344-7.7.719-11.505.76-7.722,1.926-15.361,2.593-23.1a120.652,120.652,0,0,0,.48-13.287c-.024-.97,1.075-.969,1.1,0Z" transform="translate(-428.106 -1440.962)"/></g></g><path class="m" d="M17.944,0h0A17.944,17.944,0,0,1,35.888,17.944v0A17.944,17.944,0,0,1,17.944,35.888h0A17.944,17.944,0,0,1,0,17.944v0A17.944,17.944,0,0,1,17.944,0Z" transform="translate(9.683 74.443)"/></g></g></svg>