<svg xmlns="http://www.w3.org/2000/svg" width="398" height="274.239" viewBox="0 0 398 274.239"><defs><style>.a{fill:#f9f9f9;}.b{fill:#5b2a09;}.c{fill:#f69964;}.d{fill:#e57244;}.e{fill:#0085a5;}.f{fill:#c6d5e0;mix-blend-mode:multiply;isolation:isolate;}.g{fill:#e2acc2;}.h{fill:#ffd8e6;}.i{fill:#fff;}.j{fill:#0a2369;}.k{fill:#dd8457;}.l{fill:#1a214d;}.m{fill:#207093;}.n{fill:#0e0f35;}.o{fill:#af5231;}.p{fill:#7f443c;}.q{fill:#e1fcff;}.r{fill:#1d1d1b;}.s{fill:#330e0a;}.t{fill:#afdde8;}.u{fill:#8e3a21;}.v{fill:#db3f32;}.w{fill:#f7e5d2;}.x{fill:#009cc6;}.y{fill:#c16945;}.z{fill:#6277ca;}.aa{fill:#3a1c0f;}.ab{fill:#2d1409;}.ac{fill:#7cc5d1;}.ad{fill:#383e68;}.ae{fill:#ffe1eb;}.af{fill:#e30047;}.ag{fill:#1989a3;}.ah{fill:#2c2f4f;}.ai{fill:#452412;}</style></defs><g transform="translate(3518.415 -437.676)"><ellipse class="a" cx="199" cy="127.5" rx="199" ry="127.5" transform="translate(-3518.415 456.915)"/><g transform="translate(-3357.446 452.328)"><g transform="translate(0 0)"><path class="b" d="M-2424.519,537a10.057,10.057,0,0,1-.679-6.587c.914-4.266,2-8.071,5.913-10.587,3.221-2.071,6.987-2.227,10.644-1.484,3.484.709,6.141,4.767,7.306,7.884,1.593,4.259.455,9.833-1.6,13.738-1.9,3.595-6.719,2.368-8.1,6.194a54.037,54.037,0,0,1-3.537,7.3,84.389,84.389,0,0,1-9.271,13.635,5.929,5.929,0,0,1-1.894,1.683,4.335,4.335,0,0,1-4.57-1.029c-2.625-2.364-3.008-6.527-1.691-9.806s4.007-5.807,6.844-7.912c1.388-1.03,8.7-4.987,7.343-6.729-.815-1.049-3.042-1.561-4.109-2.583A11.825,11.825,0,0,1-2424.519,537Z" transform="translate(2455.286 -517.934)"/><path class="c" d="M-2512.522,647.614c2.182.591,3.19-1.211,4.2-2.62a24.841,24.841,0,0,1,4.883-5.3c4.1-3.238,8.336-3.516,13.3-2.718,2.925.468,6.11.255,8.9,1.36,4.512,1.786,4.243,7.389,5.252,11.326,1.659,6.479,5.641,12.855,8.445,18.914a10.9,10.9,0,0,0,2.919,4.315,7.157,7.157,0,0,0,6.3.856c4.546-1.339,8.211-5.661,11.43-8.926,4.017-4.074,8.572-6.655,10.161-12.487.255-.938.359-2.116-.407-2.715a2.536,2.536,0,0,0-2.406-.019c-3.187,1.176-5.082,3.133-7.269,5.528-1.8,1.969-4.842,4.586-7.735,3.961a2.7,2.7,0,0,1-.578-.191,3.262,3.262,0,0,1-1.625-2.66,13.651,13.651,0,0,1-.147-1.752,43.525,43.525,0,0,0-1.8-11.025c-.054-.183-.108-.363-.163-.544a128.481,128.481,0,0,0-5.862-14.474c-1.013-2.294-2.013-4.649-2.927-7.128-1.187-3.216-5.48-2.22-6.923-5.33a12.443,12.443,0,0,1-1.006-6.625c.285-2.947,1.3-5.866,1.952-8.779.125-.548.235-1.1.326-1.645.4-2.389-1.711-13.458-5.977-9.894a5.918,5.918,0,0,0-1.539,2.415,28.023,28.023,0,0,0-1.328,4.458c-.454,2.075-.752,4.209-1.079,6.332-.641,4.163-1.4,8.285-3.678,11.857-4.274,6.7-14.251,4.757-19.4,10.45-2.069,2.288-3.253,5.217-4.4,8.08-1.442,3.592-3.6,6.543-4.075,10.491C-2515.007,644.946-2514.287,647.138-2512.522,647.614Z" transform="translate(2522.385 -575.492)"/><path class="d" d="M-2233.575,904.244c.217,3.729.667,7.537,2.64,10.8.827-3.634,1.79-7.5,4.54-10.019.518-.476,1.1-.9,1.581-1.4a2.7,2.7,0,0,1-.579-.191,3.264,3.264,0,0,1-1.625-2.66,13.919,13.919,0,0,1-.147-1.752,43.5,43.5,0,0,0-1.8-11.025c-.066-.171-.131-.339-.195-.51a4.08,4.08,0,0,0-2.105,1.207,8.458,8.458,0,0,0-1.916,4.088C-2234.017,896.523-2233.8,900.414-2233.575,904.244Z" transform="translate(2292.645 -820.018)"/><path class="c" d="M-2300.641,1716.218a3.692,3.692,0,0,0,1.614.307q2.344.093,4.691.185a71.645,71.645,0,0,0,11.009-.133,1.2,1.2,0,0,0,.715-.251c1.129-1.111-2.1-2.622-2.724-2.891-1.41-.611-2.861-1.1-4.313-1.609-1.553-.544-3.417-1.507-4.094-3.112a7.233,7.233,0,0,1,.052-3.807c.259-1.28.635-2.584.882-3.586.06-.241.11-.466.153-.669,1.864-9.181,5.344-17.737,7.981-26.556H-2295.7c-.687,3.719-1.422,7.441-2.14,11.19-.894,4.689-.84,9.349-1.346,14q-.115,1.063-.211,2.105c-.18,1.935-.317,3.831-.426,5.774a14.058,14.058,0,0,1-.273,2.025c-.29,1.424-.746,2.823-1.123,4.225C-2301.464,1714.328-2301.617,1715.7-2300.641,1716.218Z" transform="translate(2347.925 -1463.027)"/><path d="M-2303.7,1885.726a2.274,2.274,0,0,0,.264.077c1.951.447,4.621-.029,6.62-.029h6.794c.171,0,.342.005.513.01a19.633,19.633,0,0,0,4.549-.072,3.03,3.03,0,0,0,2.032-1.687c.286-.619.481-1.632-.205-2.039a17.607,17.607,0,0,0-5.377-2.052,19.466,19.466,0,0,0-3.012-.587c-.777-.031-1.312.8-1.76,1.308a6.1,6.1,0,0,1-4.1,1.987,9.685,9.685,0,0,1-4.683-1.381,9.424,9.424,0,0,0-1.784-.928c-.852-.211-.922.821-1.059,1.485C-2305.186,1883.144-2305.26,1885.163-2303.7,1885.726Z" transform="translate(2350.919 -1630.806)"/><path class="d" d="M-2294.246,1824.477a43.9,43.9,0,0,1,4.305-3.18,12.455,12.455,0,0,1,1.551-.958,2.249,2.249,0,0,1,.549-.147c.259-1.28.634-2.583.882-3.586a3.951,3.951,0,0,0-2.943-1.477,5.086,5.086,0,0,0-3.644,1.549c-.181,1.935-.317,3.831-.426,5.774A14.028,14.028,0,0,1-2294.246,1824.477Z" transform="translate(2342.074 -1578.311)"/><path class="c" d="M-2411.75,1674.1c.446,2.138.966,4.251,1.509,6.32,1.4,5.344,3.27,10.475,4.347,15.919.225,1.131.512,2.264.8,3.4a28.529,28.529,0,0,1,1.281,8,11.632,11.632,0,0,1-.846,4.042,3.7,3.7,0,0,0-.47,2.421c.7,2.234,6.487,2.885,7.9,1.153,1.316-1.607.7-4.357.576-6.429-.018-.253-.026-.5-.022-.727q.069-4.2.126-8.43c.069-5.627.091-11.274-.028-16.851-.06-2.937-.088-5.874-.1-8.813Z" transform="translate(2438.127 -1463.027)"/><path d="M-2379.631,1884.069a1.009,1.009,0,0,0,.293-.372c1-2.258-.64-4.561-2.706-5.257a10.259,10.259,0,0,0-6.322.359c-1.665.56-5.422,4.017-2.845,5.7.837.548,2.369.29,3.321.309q1.985.04,3.971-.015C-2382.5,1884.757-2380.835,1885.05-2379.631,1884.069Z" transform="translate(2422.054 -1629.772)"/><path class="d" d="M-2374,1811.914a5.623,5.623,0,0,1,2.871-1.051,5.415,5.415,0,0,1,4.293,2.238c-.018-.253-.026-.5-.022-.727q.069-4.2.127-8.429c-.044-.062-.093-.121-.143-.181a5.666,5.666,0,0,0-4.962-2.172,5.153,5.153,0,0,0-3.446,2.323A28.546,28.546,0,0,1-2374,1811.914Z" transform="translate(2408.315 -1567.211)"/><g transform="translate(15.582 80.362)"><path class="e" d="M-2469.681,1040.623c.782,6.907,1.875,13.9,3.072,21.176q1.323,8.034,2.644,16.068.955,5.789,1.906,11.576c1.427,8.675,3.406,17.024,5.1,25.636a3.9,3.9,0,0,0,1.234,2.571,3.886,3.886,0,0,0,2.3.462l6.823-.056a4.451,4.451,0,0,0,2.346-.456c1.738-1.091.452-5.808.454-7.548.01-8.1-.595-16.329-1-24.455-.334-6.677-1.316-13.289-1.445-19.987-.249-13.207-1.107-27.993,1.758-40.938.324-1.5.993-2.268,1.585-2.19.482.062.909.685,1.059,1.929,1.828,15.35,2.083,30.831,2.182,46.272.1,15.2.255,30.4-.263,45.573a1.589,1.589,0,0,0,.223,1.079,1.572,1.572,0,0,0,1.119.416c.456.04.912.093,1.368.147a31.44,31.44,0,0,0,5.027.384c2.68-.109,4.124-.719,4.723-3.349,1.589-6.975,2.511-14.033,3.625-21.094,1.228-7.8,2.1-15.644,2.895-23.495,1.091-10.8,3.116-22,3.068-32.852-.048-10.573.3-21.877-1.187-32.332a60.941,60.941,0,0,0-1.47-7.067c-.558-2.105-1.208-4.2-1.9-6.3-2.033-6.139-4.452-12.234-6.1-18.263-.988-3.6-2.105-7.367-4.392-10.33-5-6.475-14.155-6.358-20.4-1.86-8.06,5.81-11.2,16.857-13.4,26.918-.519,2.373-.985,4.689-1.451,6.869C-2471.593,1011.094-2471.374,1025.64-2469.681,1040.623Z" transform="translate(2470.876 -958.128)"/></g><path class="f" d="M-2469.681,1157.813c.782,6.907,1.875,13.9,3.072,21.176q1.323,8.034,2.644,16.068c-1.186-17.339-1.959-34.7-1.579-52.066.118-5.348.416-10.951,3.17-15.537,2.995-5.324,9.393-8.409,15.18-9.509,7.091-1.349,14.139-2.521,21.28-4.315a5.93,5.93,0,0,0,3.048-1.433c4.083-4.446-8.749-8.84-11.3-9.49a51.137,51.137,0,0,0-17.933-.8,48.382,48.382,0,0,0-14.635,3.538c-.519,2.373-.985,4.689-1.451,6.869C-2471.593,1128.283-2471.374,1142.83-2469.681,1157.813Z" transform="translate(2486.458 -994.955)"/><path class="f" d="M-2317.641,1309.722c.482.062.91.685,1.059,1.928,1.828,15.35,2.083,30.832,2.182,46.272.1,15.2.255,30.4-.263,45.573a1.588,1.588,0,0,0,.223,1.079,1.573,1.573,0,0,0,1.119.416c.456.04.912.092,1.368.147,2.447-3.919,2.806-9.241,2.829-14.044.1-22.07-1.752-44.1-3.6-66.09-.2-2.338-.8-4.735-1.153-7.1a22.4,22.4,0,0,1-.267-2.827,11.861,11.861,0,0,0-.3-3.451C-2314.863,1310.365-2316.305,1308.989-2317.641,1309.722Z" transform="translate(2361.198 -1165.005)"/><path class="c" d="M-2554.9,925.856a75.6,75.6,0,0,0,4.5,13.775,42.252,42.252,0,0,0,7.3,11.027c3.172,3.743,4.056,9.372,4.906,14.053a16.555,16.555,0,0,0,2.467,6.083,8.516,8.516,0,0,0,3.6,3.407.908.908,0,0,0,.647.056.65.65,0,0,0,.355-.583,1.773,1.773,0,0,0-.154-.7c-.934-2.457-4.313-6.533-2.439-9.323,1.029-1.535,1.324,1.43,2.073,2.031.709.566,1.865.828,1.677-.472a3.231,3.231,0,0,0-.428-1.042,23.633,23.633,0,0,1-2.061-5.573c-1.173-4.661-4.4-7.738-6.983-11.6a49.185,49.185,0,0,1-6.3-13.6q-.638-2.206-1.077-4.47a48.189,48.189,0,0,1,1.713-25.148c.289-.813.6-1.633.83-2.465a8.49,8.49,0,0,0,.337-2.22,4.088,4.088,0,0,0-2.318-3.923,3.769,3.769,0,0,0-3.658.862,9.331,9.331,0,0,0-2.019,2.266,24.439,24.439,0,0,0-2.051,3.925C-2557,909.492-2556.64,918.052-2554.9,925.856Z" transform="translate(2556.231 -826.148)"/><path class="d" d="M-2543.943,906.913c1.064,1.878,2.573,3.4,3.272,5.687a41.628,41.628,0,0,1,1.4,8.644c.354,4.185.763,8.649,2.491,12.371a48.191,48.191,0,0,1,1.714-25.148c.29-.813.6-1.633.83-2.465a11.975,11.975,0,0,0-2.815-3.877,6.267,6.267,0,0,0-2.824-1.4,9.329,9.329,0,0,0-2.019,2.266A24.435,24.435,0,0,0-2543.943,906.913Z" transform="translate(2546.187 -830.84)"/><path class="g" d="M-2237.493,796.447a2.121,2.121,0,0,1-.959.744l-5.673,2.84a2.023,2.023,0,0,1-1.106.307c-2.222-.26-2.349-10.69-2.541-12.407-.561-5.03-1.043-10.071-1.288-15.128-.016-.337.008-.743.3-.911.382-.218.82.164,1.085.515A46.929,46.929,0,0,1-2241.4,784.3c.818,2.171,1.533,4.379,2.22,6.594.3.978,2.132,4.719,1.7,5.529Z" transform="translate(2305.141 -725.478)"/><path class="e" d="M-2366.043,768.917a2.9,2.9,0,0,1,2.45.09,2.78,2.78,0,0,1,.71,2.352q-.141,7.988-.281,15.976a109.32,109.32,0,0,1-17.461-12.79,7.791,7.791,0,0,1-2.21-2.722c-1.772-4.406,3.607-2.355,5.673-2.135A31.912,31.912,0,0,0-2366.043,768.917Z" transform="translate(2414.779 -722.912)"/><path class="h" d="M-2555.806,780.677c1.977,1.519,4.16,2.558,6.188,3.992.826.584,1.686,1.211,2.569,1.814a23.751,23.751,0,0,0,4,2.3q.247.105.494.2c1.284-2.855,3.57-5.495,5.338-8.088,1.828-2.682,2.186.082,2.224,1.76.058,2.666-.125,5.3-.209,7.963-.189,5.84-.9,11.646-1.494,17.454-.126,1.254-.275,2.507-.436,3.757-.5,3.831-1.123,7.644-1.706,11.467-.1.651-.146,1.438.38,1.834a1.846,1.846,0,0,0,1.1.253q10.686.214,21.369.424c4.4.088,8.8.175,13.2,0,2.254-.092,4.508-.251,6.75-.518,1.141-.139,5.844.675,6.473-.6a.385.385,0,0,0,.03-.073,1.653,1.653,0,0,0-.014-.85c-.514-2.67-1.29-5.284-1.726-7.964q-1.061-6.53-1.622-13.126a173.483,173.483,0,0,1-.588-17.9c.022-1.149.062-2.3.1-3.456.056-1.609.113-3.22.115-4.829a40.718,40.718,0,0,0-.689-8.171c-.544-2.694-1.642-5.191-2.222-7.871a13.042,13.042,0,0,0-3.5-6.424c-.534-.518-6.316-3.329-6.28-2.913a78.258,78.258,0,0,1,.313,7.949,65.351,65.351,0,0,1-.5,7.244c-.388,3.106-3.568-.346-4.616-1.237q-2.806-2.387-5.432-4.972-2.537-2.5-4.894-5.173c-3.017-3.423-3.913-4.749-8.6-3.779-3.65.753-7.35,2.1-10.041,4.779-4.257,4.245-7.354,9.486-10.4,14.667C-2552.093,773.917-2553.968,777.28-2555.806,780.677Z" transform="translate(2555.884 -708.314)"/><g transform="translate(29.196 62.748)"><rect class="i" width="11.07" height="5.786" rx="0.604" transform="translate(0 0.222)"/><rect class="j" width="5.535" height="1.471" rx="0.604" transform="translate(2.768)"/></g><path class="g" d="M-2507.838,816.654a23.733,23.733,0,0,0,4,2.3q.247.105.494.2c1.284-2.855,3.57-5.494,5.338-8.088,1.828-2.682,2.186.082,2.224,1.76.058,2.666-.124,5.3-.209,7.963-.189,5.84-.9,11.646-1.494,17.454-.127,1.254-.275,2.507-.436,3.757a102.943,102.943,0,0,0,4.931-27.167c.37-8.138,1.083-19.8-3.244-27.089,1.521,2.853-2.186,11.081-3.063,13.807A43.072,43.072,0,0,1-2507.838,816.654Z" transform="translate(2516.673 -738.485)"/><path class="f" d="M-2213.476,890.905c.012.028.024.056.034.085C-2213.454,890.957-2213.464,890.931-2213.476,890.905Z" transform="translate(2276.05 -822.815)"/><path class="d" d="M-2341.741,636.162c.866.92,1.8,1.776,2.734,2.63q2.456,2.242,4.91,4.484c.285-2.947,1.3-5.866,1.953-8.779-2.537-1.555-5.671-2.939-7.415-4.044a9.783,9.783,0,0,0-1.1-.623C-2341.116,631.905-2341.413,634.039-2341.741,636.162Z" transform="translate(2380.899 -609.402)"/><path class="c" d="M-2355.561,558.943c1.551,2.047,6.692,6.009,9.581,4.775,3.009-1.284,4.072-5.872,4.176-9.351a17,17,0,0,0-.05-1.971,18.154,18.154,0,0,0-2.318-7.566,8.949,8.949,0,0,0-2.049-2.387,8.57,8.57,0,0,0-7.887-1.486,7.757,7.757,0,0,0-.738.291,7.394,7.394,0,0,0-1.962,1.284,9.847,9.847,0,0,0-2.952,6.314C-2360.148,552.388-2357.641,556.2-2355.561,558.943Z" transform="translate(2395.66 -536.428)"/><path class="k" d="M-2343.759,545.387a2.041,2.041,0,0,0,1.177.783,26.3,26.3,0,0,1,7.186,3.638,25.151,25.151,0,0,1,5.354,5.083c.328.428.764,1.461,1.288,2.33a17,17,0,0,0-.05-1.971,18.149,18.149,0,0,0-2.318-7.566q-.47-.422-.977-.8a14.325,14.325,0,0,0-9.7-2.784c-.3.026-.593.062-.888.109-.47.074-1.022.253-1.133.715A.641.641,0,0,0-2343.759,545.387Z" transform="translate(2382.611 -539.283)"/><path class="b" d="M-2368.455,550.036c-.652,1.138-1.87,2.293-3.1,1.848-1.09-.393-1.408-1.753-1.563-2.9q-.255-1.877-.509-3.753a11.976,11.976,0,0,1,.019-4.931c1.079-3.725,5.065-3.934,6.454-.469C-2366,542.708-2366.987,547.476-2368.455,550.036Z" transform="translate(2407.173 -533.816)"/><path class="c" d="M-2365.738,599.754a1.441,1.441,0,0,1,.716-1.275,2.551,2.551,0,0,1,2.535.319,3.467,3.467,0,0,1,1.662,2.579,2.25,2.25,0,0,1-1.7,2.355,2.515,2.515,0,0,1-2.394-1.259A5.233,5.233,0,0,1-2365.738,599.754Z" transform="translate(2400.518 -583.597)"/><g transform="translate(40.389 9.315)"><path class="l" d="M-2321.038,593.115c-.005-.014-.011-.028-.018-.042-.468-.986-1.954-.068-1.451.822C-2322.038,594.728-2320.687,593.969-2321.038,593.115Z" transform="translate(2324.871 -588.323)"/><path class="l" d="M-2276,592.325c-.079-.364-.356-.683-.754-.549a.731.731,0,0,0,.063,1.342C-2276.09,593.254-2275.9,592.758-2276,592.325Z" transform="translate(2287.723 -587.585)"/><g transform="translate(7.966)"><path class="d" d="M-2291.2,579.35a3.118,3.118,0,0,0,1.454-.2c.666-.3.657-.762.552-1.4a24.979,24.979,0,0,1-.574-4.761,4.044,4.044,0,0,1,.851-2.451,4.312,4.312,0,0,1,1.934-1.227c.151-.065.152-.347-.04-.351-1.545-.034-2.741,1.628-3.077,2.983a9.391,9.391,0,0,0,.062,3.489c.1.75.208,1.5.319,2.249.167,1.126-.4,1.11-1.472,1.29C-2291.395,579-2291.429,579.334-2291.2,579.35Z" transform="translate(2291.358 -568.959)"/></g><g transform="translate(1.051 0.965)"><path class="d" d="M-2329.1,575.533c.88-.019,1.465-.741,2.344-.7a3.72,3.72,0,0,1,2.577,1.906.16.16,0,0,0,.284-.113c-.084-1.053-1.252-1.9-2.178-2.257-1.2-.458-2.054.444-3.09.917a.129.129,0,0,0,.063.246Z" transform="translate(2329.241 -574.243)"/></g><g transform="translate(6.423 12.076)"><path class="d" d="M-2296.413,635.121a.582.582,0,0,0-.6.332c-.475-.21-.534-.511-1.091-.236a10.4,10.4,0,0,0-1.034.636c-.4.262-.763.461-.654.937a2.345,2.345,0,0,0,2.658,1.583,1.623,1.623,0,0,0,1.3-1.431,3.843,3.843,0,0,0-.005-1.077C-2295.9,635.5-2296.065,635.183-2296.413,635.121Z" transform="translate(2299.813 -635.106)"/><path class="i" d="M-2298.378,640.686a.186.186,0,0,0-.021.1c.019.363,1.108.677,1.379.719a2.3,2.3,0,0,0,1.9-.526c.115-.132.4-.557.327-.745-.034-.091-.157-.105-.253-.091-.431.065-.851.146-1.286.224C-2296.616,640.415-2298.174,640.3-2298.378,640.686Z" transform="translate(2298.658 -639.218)"/></g><path class="d" d="M-2334.631,610.631c.831-1.2,2.666.062,3.217,1.391,1.215,2.932-4.119,2.234-3.538-.574A2.211,2.211,0,0,1-2334.631,610.631Z" transform="translate(2334.996 -602.629)"/></g><path class="b" d="M-2342.905,536.335l.316.125a47.321,47.321,0,0,1,11.545,6.717c-.158-.125-.085-2.824-.173-3.241a10.474,10.474,0,0,0-6.974-7.639c-1.246-.405-9.961-.7-8.118,1.995C-2345.606,535.321-2344.077,535.876-2342.905,536.335Z" transform="translate(2384.842 -529.462)"/><path class="m" d="M-2055.4,659.343c-.029-.142-.06-.286-.092-.431,0-.029,0-.059-.007-.087Z" transform="translate(2146.91 -633.104)"/></g><path class="i" d="M-2325.446,601.171a12.117,12.117,0,0,0-5.729,1.194,2.558,2.558,0,0,0-1.479,1.213c-.294.742.111,1.608-.126,2.37-.208.666-.878,1.157-.929,1.853a2.05,2.05,0,0,0,.565,1.341,12.03,12.03,0,0,0,4.5,3.534,6.3,6.3,0,0,0,4.01.59,5.732,5.732,0,0,0,3.793-3.941c.49-1.5,1.106-4.383.151-5.757A6.565,6.565,0,0,0-2325.446,601.171Z" transform="translate(2374.335 -585.955)"/><g transform="translate(38.585 15.292)"><path class="i" d="M-2344.647,601.724c1.516,1,3.261,1.633,4.779,2.627.255.167.022.575-.241.412-1.535-.947-3.217-1.733-4.7-2.765-.166-.116-.011-.389.161-.275Z" transform="translate(2344.879 -601.697)"/></g><g transform="translate(37.696 19.729)"><path class="i" d="M-2346.84,628.362c-.468-.454-1.045-.747-1.521-1.179a3.746,3.746,0,0,0-.683-.458,6.5,6.5,0,0,0-.631-.462c-.148-.063-.041-.294.107-.255.263.07.386.28.612.426a4.583,4.583,0,0,1,.653.395c.529.477,1.139.836,1.653,1.342.123.122-.066.31-.19.19Z" transform="translate(2349.746 -626.004)"/></g></g><g transform="translate(-3422.095 449.573)"><path class="n" d="M-2854.261,1871.289c.765-.114,2.9-.14,3.073-1.04.4-2.055-1.656-4.024-3.117-5.035a3.717,3.717,0,0,0-4.409-.11c-1.14.82-1.677,2.3-2.286,3.48a2.475,2.475,0,0,0-.135.307C-2862.33,1872.239-2855.673,1871.5-2854.261,1871.289Z" transform="translate(2883.221 -1615.859)"/><path class="o" d="M-2878.7,1471.915q.945,4.958,1.889,9.917c.056.293.122.59.195.89.584,2.4,1.569,5.014.7,7.468-.225.638-1.47,2.122-.249,2.363.612.118,1.083-.345,1.6-.533a7.569,7.569,0,0,1,1.661-.367c.684-.076,2.126.359,2.714-.058a.7.7,0,0,0,.172-.842c-1.079-3.584-.5-7.718-.311-11.513a221.883,221.883,0,0,1,2.033-22.981q.768-4.943,1.7-9.884.467-2.491.962-4.98.349-1.76.715-3.518.848-4.119,1.743-8.237c.02-.088.04-.177.058-.265q.794-3.661,1.6-7.323c1.261-5.754,2.084-11.489,2.9-17.215h-18.784c1.64,6.815,4.575,14.082,2.856,21.243-.026.1-.052.209-.08.313-.018.07-.036.14-.056.211-.05.191-.106.383-.166.573-.042.141-.088.279-.134.419-2.227,6.609-5.648,13.854-6.709,20.467a26.475,26.475,0,0,0-.323,3.564C-2882.19,1458.5-2879.968,1465.278-2878.7,1471.915Z" transform="translate(2900.175 -1240.166)"/><path class="d" d="M-2841.937,1522.907c-.031.121-.067.243-.1.364Q-2841.985,1523.088-2841.937,1522.907Z" transform="translate(2867.494 -1336.684)"/><path class="p" d="M-2881.96,1545.661c1.312-3.985,3.183-7.706,6.464-10.205a6.872,6.872,0,0,1,4.756-1.653c2.449.271,3.6,3.815,4.056,5.885q.078.361.138.722.467-2.491.963-4.98.349-1.76.714-3.518c.058-2.768,1.135-5.574,1.743-8.238q.031-.132.059-.265a13.1,13.1,0,0,0-7.909-3.5,13.479,13.479,0,0,0-3.514.2c-.026.1-.052.209-.081.313-.018.07-.036.14-.056.21-.05.191-.106.383-.167.574-.042.141-.088.279-.134.419-2.227,6.609-5.648,13.854-6.709,20.466A26.407,26.407,0,0,0-2881.96,1545.661Z" transform="translate(2900.128 -1334.203)"/><g transform="translate(44.668 163.835)"><path class="o" d="M-2730.984,1422.154a15.15,15.15,0,0,1,.136,3.121c0,.054-.006.106-.01.16-.006.109-.014.217-.022.327a48.378,48.378,0,0,1-.922,5.778c-.042.209-.084.417-.125.626a61.817,61.817,0,0,0-1.007,9.152,48.836,48.836,0,0,0,.22,7.183,81.83,81.83,0,0,0,1.555,9.292q.279,1.282.577,2.55c1.954,8.354,3.893,16.286,2.874,25.418-.133,1.189-.888,3.271-.1,4.194s3.235.839,4.406.977a63.5,63.5,0,0,0,8.163.431c1.171-.012,2.437.058,3.6-.036.17-.014,2.6-.716,2.3-.88a50.139,50.139,0,0,0-6.617-2.511,10.227,10.227,0,0,1-4.948-3.382c-1.161-1.659-1.007-3.831-.9-5.941.456-8.875,1.162-17.775,1.6-26.634.222-4.994.53-10,.854-15.009.026-.4.044-.8.058-1.2.006-.189.01-.375.014-.564.058-3.472-.321-6.96-.555-10.406,0-.014,0-.026,0-.04-.046-.652-.086-1.3-.116-1.953-.147-3.127-.4-5.891.455-9.036a16.848,16.848,0,0,0-.111-8.576c-.385-1.6-.692-3.251-.958-4.918H-2736.8c.317.76.624,1.53.9,2.327A109.5,109.5,0,0,1-2730.984,1422.154Z" transform="translate(2736.805 -1400.274)"/></g><path class="n" d="M-2695,1880.774c.514.77,1.649.849,2.479.957a30.864,30.864,0,0,0,3.458-.022c2.642.043,5.286.01,7.926.144a22.5,22.5,0,0,0,4.531-.1c.727-.108,3.4-.363,2.434-1.743a1.983,1.983,0,0,0-1.014-.616c-1.03-.366-2.072-.6-3.079-1a9.936,9.936,0,0,0-3.634-.853,9.73,9.73,0,0,0-3.232.676,11.837,11.837,0,0,1-6.24.4,9.25,9.25,0,0,1-2.084-.727c-.421-.2-.339-.325-.517-.666a.247.247,0,0,0-.327-.122.362.362,0,0,0-.124.205,9.711,9.711,0,0,0-.857,2.68A1.067,1.067,0,0,0-2695,1880.774Z" transform="translate(2747.528 -1626.191)"/><path class="p" d="M-2715.592,1551.4c.458-1.41.923-2.818,1.451-4.2,1.193-3.129,3.245-7.676,6.687-8.916a7.333,7.333,0,0,1,5.311-.182c.058-3.472-.321-6.96-.555-10.406a3.95,3.95,0,0,0-.69-.461,9.636,9.636,0,0,0-10.1.756c-.08.06-.158.12-.236.182,0,.054-.006.107-.01.161-.006.108-.014.217-.022.327a23.942,23.942,0,0,1-.923,5.778c-.042.208-.084.417-.124.626a61.784,61.784,0,0,0-1.007,9.152A48.868,48.868,0,0,0-2715.592,1551.4Z" transform="translate(2764.351 -1339.338)"/><path class="q" d="M-2667.844,768.883a21.521,21.521,0,0,0,1.8,5.959c1.757,3.905,4.353,7.6,6.244,11.212a32.348,32.348,0,0,1,3.312,8.538,13.608,13.608,0,0,0,2.086,5.8,8.362,8.362,0,0,0,1.023,1.155c1.609,1.52,4.132,2.276,6.094,1.252,2.106-1.1,2.858-3.809,2.634-6.174-.4-4.278-2.271-8.3-3.639-12.317a65.089,65.089,0,0,0-4.681-10.514c-.969-1.753-1.82-3.582-2.662-5.415a61.085,61.085,0,0,0-4.421-8.456c-.267-.4-.543-.8-.834-1.185a8.481,8.481,0,0,0-1.1-1.26,4.322,4.322,0,0,0-.68-.5C-2666.665,754.618-2668.165,766.48-2667.844,768.883Z" transform="translate(2725.135 -710.328)"/><path class="f" d="M-2657.779,792.142c1.757,3.905,4.353,7.6,6.244,11.212a32.338,32.338,0,0,1,3.312,8.538,13.6,13.6,0,0,0,2.086,5.8,1.721,1.721,0,0,0,.4-.14,2.258,2.258,0,0,0,1.079-2.04,6.891,6.891,0,0,0-.572-2.349,110.76,110.76,0,0,1-3.686-12.151,111.044,111.044,0,0,1-2.1-11.166c-.555-4.1-.831-8.151-2.594-11.962-.2-.435-.633,1.873-.635,1.893a13.67,13.67,0,0,1-.71,2.946c-.283.8-2.423,8.8-2.652,8.8C-2657.665,791.729-2657.722,791.936-2657.779,792.142Z" transform="translate(2716.874 -727.628)"/><path class="o" d="M-2929.692,618.868c3.329,1.6,5.72-1.255,8.069-3.111,7.491-5.921,12.664-1.921,21.032-1.791,4.721.074,8.807-3.115,13.6-2.734,2.708.214,9.734,3.639,10.145.154a17.994,17.994,0,0,0-2.011-10.424c-1.318-2.495-4.252-4.188-6.812-5.223a15.084,15.084,0,0,0-2.932-.955c-1-.172-1.991-.048-2.673-.827a10.533,10.533,0,0,1-1.581-2.856,14.6,14.6,0,0,1-1.011-3.879,14.072,14.072,0,0,1-.07-2.519,33.434,33.434,0,0,1,.762-4.607c.153-.742.3-1.486.4-2.234a10.611,10.611,0,0,0-.52-5.57c-.578-1.368-.235-2.808-.331-4.29-.152-2.331-1.055-5.339-3.737-3.1a5.934,5.934,0,0,0-1.548,2.427,35.724,35.724,0,0,0-1.918,7.606c-.275,1.693-.509,3.4-.8,5.087a26.525,26.525,0,0,1-3.394,10.047c-4.293,6.723-14.309,4.776-19.482,10.492-1.669,1.845-2.423,4.11-3.825,6.117C-2930.575,609.889-2935.4,616.126-2929.692,618.868Z" transform="translate(2941.339 -552.928)"/><path class="e" d="M-2769.536,781.065a9.2,9.2,0,0,0-.838,1.243,47.609,47.609,0,0,0-1.3,5.2l-2.594,10.394c.069-.277-3.6-3.428-4-3.866a41.863,41.863,0,0,1-3.727-4.786c-2.032-3.04-4.447-6.966-5.031-10.623,0,.026,6.694.147,7.292.169l7.921.286a3.176,3.176,0,0,1,2.08.575A.976.976,0,0,1-2769.536,781.065Z" transform="translate(2822.52 -728.281)"/><path class="r" d="M-2884.461,1307.362c.754,1.08,2.127,1.313,4.97,1.284l15.213-.153,20-.2c1.986-.02,7.851,1.2,9.195-.692a2.9,2.9,0,0,0,.361-1.687c.088-10.667,1.028-21.558-2.323-31.917a85.207,85.207,0,0,0-5.078-12.318,33.324,33.324,0,0,0-5.611-8.369,15.129,15.129,0,0,0-8.753-4.678c-5.509-.677-10.757,2.585-14.747,6.443a45.715,45.715,0,0,0-8.628,11.517,45.753,45.753,0,0,0-2.881,6.7c-.59,1.747-1.736,3.44-1.967,5.277-.457,3.641-.472,7.391-.7,11.054a75.47,75.47,0,0,0-.166,12.785C-2885.3,1304.91-2885.1,1306.443-2884.461,1307.362Z" transform="translate(2903.26 -1112.406)"/><g transform="translate(0 40.27)"><path class="q" d="M-2980.917,772.735c1.145,1.873,3.658,2.591,5.556,3.418,1.733.754,2.744,1,3.331-.461a5.441,5.441,0,0,0,.239-.794,64.722,64.722,0,0,1,5.775-15.065c1.2-2.339,2.7-4.563,3.813-6.928a26.824,26.824,0,0,0,1.414-3.351,4.457,4.457,0,0,1,.317-.806,114.321,114.321,0,0,1,2.28,18.735c0,.12.006.243.006.363,0,.144,0,.287,0,.429,0,.51,0,1.019-.014,1.53-.014.582-.036,1.161-.066,1.743-.016.291-.034.58-.052.871l-.042.6c-.191,2.607-.524,5.2-.891,7.8-.056.4-.114.8-.17,1.2-.084.586-.169,1.165-.251,1.745-.032.211-.061.421-.09.63q-.09.626-.177,1.248c-.146,1.057-.287,2.112-.415,3.167q-.434,3.574-.859,7.148-.487,4.089-.949,8.161-.349,3.066-.672,6.13-.162,1.534-.319,3.067t-.3,3.069c-.05.512-.1,1.023-.146,1.535q-.078.824-.154,1.649-.136,1.48-.263,2.956-.079.909-.153,1.813-.075.884-.142,1.775c-.046.576-.091,1.153-.133,1.729,0,.034-.006.066-.008.1q-.063.842-.123,1.685-.129,1.829-.242,3.658-.051.864-.1,1.727-.051.893-.1,1.787c-.032.6-.062,1.193-.09,1.791-.018.4-.034.788-.052,1.182q-.084,1.85-.145,3.707c0,.022,0,.046,0,.07-.025.742-.046,1.488-.066,2.232-.124,4.711-.727,9.393-.9,14.1a49.49,49.49,0,0,0,.158,6.988c.122,1.2.1,1.661,1.4,1.9.074.014.148.024.223.032a20.81,20.81,0,0,0,2.525-.044h21.3a3.059,3.059,0,0,0,.723-2.03c1.063-11.059,1.9-22.2,4.561-32.984.03.213.06.425.089.638q1.14,8.228,1.913,16.505.4,4.3.706,8.6.154,2.151.281,4.306a24.8,24.8,0,0,0,.231,4.308.764.764,0,0,0,.574.656h17.5c1.9,0,4.045.349,4.378-2.028a17.443,17.443,0,0,0,.016-3.514c-.128-1.95-.515-3.881-.634-5.829-.431-7.172-.925-14.343-1.52-21.505-1.191-14.337-2.788-28.646-5.087-42.85-.267-1.643-.6-3.273-.973-4.9-1.039-4.543-2.355-9.028-3.2-13.539-1.147-6.138.405-13.926,1.276-20.045.788-5.534,3.9-12.52,3.161-18-.744-5.506-1.466-7.8-6.739-9.852-2.216-.86-4.437-1.707-6.673-2.517a.5.5,0,0,0-.449-.014.5.5,0,0,0-.155.355c-.239,1.695-.5,3.366-.778,5.058-.331,2.012-.925,3.959-1.29,5.951-.114.624-1.965,6.4-2.417,6.356-.644-.221-1.346-1.4-1.8-1.934q-1.017-1.194-2-2.415-1.91-2.377-3.694-4.852-1.764-2.449-3.4-4.988a39.6,39.6,0,0,0-2-3.655c-.625-.772-.746-.664-1.767-.451q-1.266.262-2.517.586a52.659,52.659,0,0,0-9.788,3.606,15.876,15.876,0,0,0-7.012,7.2c-1.9,3.546-3.061,7.642-4.457,11.264q-3.679,9.552-6.611,19.373C-2980.879,767.81-2982.245,770.567-2980.917,772.735Z" transform="translate(2981.477 -723.43)"/></g><path class="f" d="M-2898.295,934.791c.122,1.2.1,1.661,1.4,1.9.074.014.148.024.223.032a20.8,20.8,0,0,0,2.525-.044h3.217a228.968,228.968,0,0,1-.02-47.369c.782-7.576,1.974-15.131,3.369-22.606,1.328-7.1,4.383-13.988,6.011-21.11,2.054-8.986-2.361-17.44-6.025-25.264a29.132,29.132,0,0,1-2.1-7.3c-.182-1.015-.5-2.008-.648-3.029-.164-1.155-.3-2.315-.453-3.472-.178.834-.178,1.677-.3,2.511-.141.931-.371,1.853-.583,2.77a45.343,45.343,0,0,0-.963,4.866,114.321,114.321,0,0,1,2.281,18.735c0,.12.006.243.006.363,0,.144,0,.287,0,.429q.007.764-.014,1.53c-.014.582-.036,1.161-.066,1.743-.016.291-.034.58-.052.871l-.042.6c-.195,2.6-.527,5.195-.89,7.8-.057.4-.115.8-.171,1.2-.084.586-.169,1.165-.251,1.745-.032.211-.06.421-.09.63q-.09.626-.177,1.248-.22,1.585-.416,3.167-.433,3.574-.858,7.148-.484,4.08-.949,8.161-.345,3.063-.671,6.13-.163,1.534-.319,3.067t-.3,3.069q-.075.767-.146,1.534-.079.824-.155,1.649-.136,1.48-.263,2.956-.078.909-.152,1.813c-.051.59-.1,1.181-.143,1.775-.046.576-.09,1.153-.132,1.729,0,.034-.006.066-.008.1q-.063.842-.122,1.685-.13,1.829-.243,3.658-.051.864-.1,1.727-.051.894-.1,1.787c-.022.369-.04.736-.058,1.105-.012.229-.022.457-.032.686-.019.4-.034.788-.053,1.182-.05,1.241-.092,2.477-.144,3.707,0,.022,0,.046,0,.07-.024.742-.046,1.488-.066,2.232-.125,4.711-.727,9.393-.9,14.1A49.489,49.489,0,0,0-2898.295,934.791Z" transform="translate(2913.653 -751.087)"/><path class="f" d="M-2729.343,1298.32c.76,5.486,1.546,11.375,2.063,16.891q.4,4.3.706,8.6.153,2.151.28,4.306a24.871,24.871,0,0,0,.231,4.308.764.764,0,0,0,.574.656h3.532a12.728,12.728,0,0,0-.642-4.138,174.948,174.948,0,0,1-5.732-37.481A42.6,42.6,0,0,1-2729.343,1298.32Z" transform="translate(2775.373 -1147.492)"/><path class="s" d="M-2771.213,513.54c-.092-.675.891-1.071.936-1.751.034-.513-.475-.88-.934-1.112s-.991-.513-1.074-1.021c-.11-.673.666-1.313.426-1.952-.451-1.2-1.454.158-2.181.012-1.6-.32-.4-2.383-2.566-2.054a.721.721,0,0,1-.8-.306c-.232-.556.407-1.3-.507-1.563-.656-.192-1.152.357-1.739.466a.844.844,0,0,1-.873-.419c-.133-.248-.138-.562-.322-.774a.781.781,0,0,0-.792-.185,2.552,2.552,0,0,0-1.318,1.213c-.123.237-.3.5-.567.5-.238,0-.413-.216-.543-.416-.221-.336-.512-.658-.946-.431-.533.278-.667,1.479-1.245,1.513-.537.031-.638-.912-1.167-1.011-.41-.077-.686.4-.836.784s-.456.853-.857.744c-.316-.086-.433-.48-.7-.664-1.168-.793-1.151,1.2-1.406,1.606-.625,1-.973.8-2.188.91-.488.046-1.022.453-.878.913.1.319.493.523.483.857s-.432.5-.776.528-.75.027-.943.312c-.391.579.637,1.26.477,1.94-.174.741-1.581.807-1.5,1.564.055.494.767.687.86,1.175.17.883-1.7,1.059-1.585,1.952.075.58.833.562,1.01,1,.215.537.01.776-.095,1.15a1.363,1.363,0,0,0-.052.428c.038,1.081,1.334,1.667,1.275,2.567-.037.564-.761.99-.605,1.534.174.606,1.167.482,1.531,1,.32.454-.039,1.085.056,1.633a2,2,0,0,0,.923,1.135,14.6,14.6,0,0,0,6.753,2.324,11.622,11.622,0,0,0,8.194-3.259c2.589-2.435,2.847-7.316,2.361-10.567-.053-.354-.119-.7-.2-1.053l3.569,5.016c.758.168,1.342-.722,1.4-1.5a6.916,6.916,0,0,1,.171-2.306c.188-.425.559-.831.455-1.283S-2771.151,513.99-2771.213,513.54Z" transform="translate(2830.906 -502.846)"/><g transform="translate(33.206 36.027)"><path class="j" d="M-2796.3,700.78c-2.846,4.613-2.937,10.17-1.846,15.338.106.5-.667.719-.773.213-1.136-5.376-1.034-11.159,1.927-15.956.27-.439.965-.036.693.4Z" transform="translate(2799.586 -700.185)"/></g><g transform="translate(31.084 51.671)"><path class="j" d="M-2805.846,802.1c-2.7,1.146-4.733-.815-5.174-3.459a23.206,23.206,0,0,1-.045-5.542,19.619,19.619,0,0,1,.887-4.616,3.589,3.589,0,0,1,2.271-2.553,2.574,2.574,0,0,1,2.51,1.294,22.469,22.469,0,0,1,3.89,9.083c.337,1.512.486,6.149-2.281,5.5-.3-.07-.241-.574.073-.542,1.427.146,1.8-1.474,1.863-2.62a13.778,13.778,0,0,0-.98-4.565,18.5,18.5,0,0,0-2.044-4.665c-.557-.88-1.319-2.577-2.475-2.718-1.552-.19-2.1,2.137-2.356,3.238a23.507,23.507,0,0,0-.587,4.958c-.024,1.663-.211,3.456.515,5.008a2.725,2.725,0,0,0,3.661,1.56c.369-.138.637.486.271.642Z" transform="translate(2811.209 -785.883)"/></g><path class="t" d="M-2706.27,807.726a2.433,2.433,0,0,0-2.834.216,2.236,2.236,0,0,0,.184,3.291,2.311,2.311,0,0,0,3.252-.3A2.29,2.29,0,0,0-2706.27,807.726Z" transform="translate(2759.35 -751.779)"/><g transform="translate(48.122 37.589)"><path class="j" d="M-2717.518,708.817a18.276,18.276,0,0,1,3.939,8.751,24.633,24.633,0,0,1-.341,11.167.351.351,0,0,1-.677-.187,24.558,24.558,0,0,0,.437-10.82,17.988,17.988,0,0,0-3.668-8.6c-.178-.215.124-.526.31-.31Z" transform="translate(2717.882 -708.744)"/></g><path class="t" d="M-2775.857,868.939a.954.954,0,0,0,1.318-.85.954.954,0,0,0-1.4-.716.954.954,0,0,0,.077,1.566Z" transform="translate(2813.763 -800.725)"/><path class="t" d="M-2788.5,870.359a.954.954,0,0,0,1.318-.85.954.954,0,0,0-1.395-.716.954.954,0,0,0,.077,1.566Z" transform="translate(2824.096 -801.886)"/><path class="d" d="M-2638.562,976.857c.335,3.225,6.669,2.086,8.661,1.273.54-.219,1.209-.523,1.93-.9,2.7-1.4,6.123-3.771,6.213-6.424a3.314,3.314,0,0,0-.443-1.739c-.875-1.566-3.424-3.432-5.215-3.386-1.991.048-3.538,1.675-4.842,3.179-.917,1.057-2.958,2.613-4.471,4.278C-2637.851,974.374-2638.684,975.666-2638.562,976.857Z" transform="translate(2701.174 -881.188)"/><path class="u" d="M-2763.953,628.432a39.528,39.528,0,0,1,4.344,3.651c.5.479,1.982,2.289,3.415,3.556a14.1,14.1,0,0,1-.07-2.519,33.4,33.4,0,0,1,.762-4.607,18.346,18.346,0,0,0-2.788-3,8.783,8.783,0,0,0-3.532-2.04,4.659,4.659,0,0,0-1.334-.13C-2763.429,625.038-2763.664,626.743-2763.953,628.432Z" transform="translate(2803.664 -601.342)"/><path class="o" d="M-2761.944,539.842c.855,2.433,4.556,7.8,7.7,7.5,4.335-.406,6.4-7.977,7.223-11.348,1.313-5.378.454-11.825-3.89-15.74-4.424-3.988-10.143.4-11.952,4.877C-2764,527.947-2763.767,534.652-2761.944,539.842Z" transform="translate(2803.342 -515.803)"/><path class="s" d="M-2770.353,542.023c-.921.744-2.831,1.282-3.715.6-.921-.71-.809-2.107-.6-3.252q.332-1.872.664-3.744a12.03,12.03,0,0,1,1.531-4.708,3.766,3.766,0,0,1,3.82-1.861c1.309.305,3.035,2.053,2,3.434a1.468,1.468,0,0,0-.392.642c-.046.388.341.666.645.913s.565.721.284.992a.9.9,0,0,0-1.1,1.107c.072.185.21.362.18.558-.082.531-1.046.259-1.345.7-.335.5.512,1.318.042,1.693-.676.54-.793.154-1.227,1.059-.283.588-.047,1.109-.555,1.653A2.257,2.257,0,0,1-2770.353,542.023Z" transform="translate(2812.543 -524.21)"/><path class="s" d="M-2729.141,594.009c0-.015-.006-.029-.01-.044-.263-1.057-1.9-.452-1.582.519C-2730.438,595.391-2728.966,594.914-2729.141,594.009Z" transform="translate(2776.542 -576.875)"/><path class="s" d="M-2684.749,601.855c-.006-.371-.214-.739-.63-.686a.73.73,0,0,0-.2,1.326C-2685.022,602.746-2684.742,602.3-2684.749,601.855Z" transform="translate(2739.884 -583.214)"/><g transform="translate(50.371 14.064)"><path class="u" d="M-2705.438,589.278a3.11,3.11,0,0,0,1.462.1c.71-.16.793-.616.817-1.265a24.922,24.922,0,0,1,.377-4.773,4.035,4.035,0,0,1,1.317-2.231,4.3,4.3,0,0,1,2.134-.819c.16-.034.217-.31.03-.352-1.505-.338-3,1.053-3.6,2.312a9.387,9.387,0,0,0-.628,3.426c-.05.754-.091,1.509-.131,2.263-.059,1.135-.616,1.007-1.695.972C-2705.559,588.9-2705.657,589.218-2705.438,589.278Z" transform="translate(2705.562 -579.882)"/></g><g transform="translate(45.202 13.298)"><path class="u" d="M-2733.762,576.521c.866.155,1.58-.436,2.433-.222,1.107.277,1.71,1.4,2.146,2.374a.159.159,0,0,0,.3-.054c.126-1.048-.85-2.111-1.686-2.639-1.087-.685-2.1.029-3.205.288a.129.129,0,0,0,.012.254Z" transform="translate(2733.876 -575.69)"/></g><g transform="translate(48.186 25.088)"><path class="v" d="M-2713.441,640.68c-.326-.084-.825.275-1.094.143-.251-.123.06-.6-.391-.553a6.655,6.655,0,0,0-1.781.546c-.448.177-.838.3-.824.788a2.354,2.354,0,0,0,.748,1.441,2.37,2.37,0,0,0,3.064.252c.4-.389.274-.5.132-.935s0-.516.27-.871C-2713.109,641.214-2712.93,640.813-2713.441,640.68Z" transform="translate(2717.532 -640.267)"/><path class="i" d="M-2716.184,646.259c-.106.094-.107.256.062.522a1.755,1.755,0,0,0,1.154.6,2.393,2.393,0,0,0,1.459-.127c.207-.108.765-.453.729-.646-.09-.485-.929-.26-1.347-.269S-2715.859,645.97-2716.184,646.259Z" transform="translate(2716.49 -645.074)"/></g><path class="u" d="M-2746.748,608.734c1.05-1.011,2.6.587,2.874,2,.61,3.11-4.472,1.373-3.349-1.26A2.208,2.208,0,0,1-2746.748,608.734Z" transform="translate(2790.121 -589.142)"/><path class="s" d="M-2742.032,524.28c-.089-4.951-2.653-9.92-7.753-10.958-2.136-.435-4.327.2-6.415.823a8.132,8.132,0,0,0-3.7,1.848,2.884,2.884,0,0,0,.2,4.314c1.692,1.243,3.029-1.285,4.672,0,.288.225.553.549.917.552.429,0,.838-.455,1.223-.266.455.223.2,1,.55,1.359.292.3.8.146,1.207.24a1.913,1.913,0,0,1,.958.747,1.983,1.983,0,0,0,.95.759.882.882,0,0,0,.744-.177c.21-.178.361-.6.728-.4a.421.421,0,0,1,.2.358.924.924,0,0,1-.1.414,2.107,2.107,0,0,0-.146.358.449.449,0,0,0,.053.372c.152.2.357.1.558.144.29.059.58-.064.819.187a.612.612,0,0,1,.126.623c-.073.195-.249.395-.153.579.164.319.791-.018.971.292.162.278-.312.61-.182.9s.554.127.786.234c.438.2.105.608-.1.892-.478.663.368.6.392,1.158.021.468-.23.823.047,1.265a.61.61,0,0,0,.84.281c.684-.352-.173-1.43.538-1.632.149-.043.329.015.452-.08.245-.191-.093-.8-.033-1.086.069-.322.238-.616.333-.929A10.434,10.434,0,0,0-2742.032,524.28Z" transform="translate(2801.059 -511.292)"/><path class="w" d="M-2741.766,589.16a4.25,4.25,0,0,0,2.33-.313c.745-.365,1.184-1.21,1.721-1.825a1.88,1.88,0,0,1,1-.781c.69-.126,1.119.743,1.187,1.307a3.507,3.507,0,0,0,.661,1.55,3.555,3.555,0,0,0,5.257.159,3.353,3.353,0,0,0,.874-2.717,3.344,3.344,0,0,0-.838-1.779,2.433,2.433,0,0,0-1.925-.746,6.2,6.2,0,0,0-2.232.229,3.222,3.222,0,0,0-1.262.679,1.942,1.942,0,0,1-1.172.71,1.742,1.742,0,0,1-1.13-.257c-.348-.213-.46-.619-.778-.874a11.956,11.956,0,0,0-.935-.773,4.567,4.567,0,0,0-2.7-.643,2.236,2.236,0,0,0-1.057.138,3.389,3.389,0,0,0-1.1.793,3.386,3.386,0,0,0-.368.483C-2745.364,586.3-2743.759,588.941-2741.766,589.16Zm-2.027-3.911a2,2,0,0,1,1.827-1.335,4.077,4.077,0,0,1,2.316.37,2.365,2.365,0,0,1,1.333,1.827,2.875,2.875,0,0,1-1.277,1.873,3.059,3.059,0,0,1-3.246-.151A2.6,2.6,0,0,1-2743.793,585.249Zm15.4.745c.009-.033.009-.032,0,0Zm-1.306,1.844a2.874,2.874,0,0,1-1.177,1.363,2.659,2.659,0,0,1-3.161-.4c-.872-1-1.259-3.2.365-3.7,1.255-.384,3.543-.694,4.116.91a2.025,2.025,0,0,1,.113.6A2.832,2.832,0,0,1-2729.7,587.838Z" transform="translate(2787.852 -568.436)"/><path class="f" d="M-2980.917,824.461c1.145,1.873,3.658,2.591,5.556,3.418,1.733.754,2.744,1,3.331-.461l-.06-.06a19.709,19.709,0,0,0-2.249-1.516,8.456,8.456,0,0,1-3.185-6.065,22.319,22.319,0,0,1,.69-6.994c1.208-5.6,2.766-11.118,4.475-16.583.863-2.762,1.765-5.512,2.68-8.256.1-.3.3-.75.519-1.236-1.9,3.544-3.059,7.64-4.455,11.262q-3.679,9.552-6.611,19.373C-2980.879,819.535-2982.245,822.293-2980.917,824.461Z" transform="translate(2981.477 -734.885)"/><path class="c" d="M-2948.916,974.171a4.366,4.366,0,0,0,.206,1.414,5.251,5.251,0,0,0,3.027,3.191,44.453,44.453,0,0,0,6.565,1.651c.853.215,1.719.417,2.592.6a29.261,29.261,0,0,0,10.742.527,7.79,7.79,0,0,0,2.184-.61,3.594,3.594,0,0,0,.349-.192,2.693,2.693,0,0,0,.644-.748c.7-1.077,1.38-2.9.321-3.239-4.631-1.472-9.239-3.023-13.83-4.619-3.438-1.2-9.076-4.509-11.93-.515a4.467,4.467,0,0,0-.866,2.459C-2948.914,974.117-2948.916,974.143-2948.916,974.171Z" transform="translate(2954.861 -884.485)"/><path class="f" d="M-2672.259,1074.233a13.459,13.459,0,0,0,.494,1.677c2.9,8.082,6.571,16.247,8.682,24.568,2.434,9.6,2.309,19.647,2.306,29.475a157.9,157.9,0,0,1-1.541,22c-.023.171-.048.343-.074.516h.926c1.9,0,4.046.349,4.379-2.028a17.5,17.5,0,0,0,.016-3.514c-.128-1.95-.516-3.881-.634-5.829-.431-7.172-.925-14.343-1.521-21.505-1.191-14.337-2.788-28.646-5.086-42.85-.267-1.643-.6-3.273-.973-4.9C-2669.835,1069.821-2673.24,1069.725-2672.259,1074.233Z" transform="translate(2728.849 -966.878)"/><g transform="translate(36.203 74.557)"><g transform="translate(0 0)"><path class="x" d="M-2783.171,913.727l.9,10.4,2.317,26.674a.122.122,0,0,0,.13.11l26.895-2.337a.12.12,0,0,0,.11-.13l-.327-3.763-2.89-33.307a.123.123,0,0,0-.133-.11l-26.895,2.335A.122.122,0,0,0-2783.171,913.727Z" transform="translate(2783.171 -911.256)"/><rect class="j" width="11.483" height="3.039" rx="0.604" transform="translate(7.78 0.993) rotate(-4.963)"/></g><path class="c" d="M-2648.365,990.142c-1.248.4-2.187,1.9-2.821,3.054-1.208,2.195-.763,4.022,1.272,5.539a3.609,3.609,0,0,0,3.112.717,3.432,3.432,0,0,0,2.189-2.615c.4-1.843-.119-5.508-1.978-6.494A2.208,2.208,0,0,0-2648.365,990.142Z" transform="translate(2675.825 -975.653)"/></g><path class="f" d="M-2778.225,981.718l2.317,26.674a.122.122,0,0,0,.13.11l26.895-2.336a.12.12,0,0,0,.11-.13l-.327-3.763c-3.755-2.4-10.087-3.636-13-5.381a47.329,47.329,0,0,1-10.34-8.376A58.827,58.827,0,0,1-2778.225,981.718Z" transform="translate(2815.331 -894.295)"/><path class="c" d="M-2819.748,999.451c1.115-.088,2.174-.52,3.277-.7a11.036,11.036,0,0,1,3.488.489,2.923,2.923,0,0,0,2.744-.75c1.639-1.576-.239-4.742-1.583-5.817a6.529,6.529,0,0,0-5.451-1.334,5.492,5.492,0,0,0-1.775.824,9.041,9.041,0,0,0-3.7,5.139C-2823.041,998.923-2821.058,999.555-2819.748,999.451Z" transform="translate(2851.751 -902.035)"/><path class="d" d="M-2948.916,993.743a4.366,4.366,0,0,0,.206,1.414,5.251,5.251,0,0,0,3.027,3.191,44.449,44.449,0,0,0,6.565,1.651c.853.214,1.719.417,2.592.6a29.256,29.256,0,0,0,10.742.527,7.8,7.8,0,0,0,2.184-.61,3.632,3.632,0,0,0,.349-.192,2.7,2.7,0,0,0,.644-.748,1.565,1.565,0,0,0-1.248-1.069,4.937,4.937,0,0,0-1.787.09,38.339,38.339,0,0,1-13.556-.2c-2.16-.421-4.6-.776-6.535-1.887-.59-.337-2.193-2.313-3.151-2.832l-.028-.016C-2948.914,993.689-2948.916,993.715-2948.916,993.743Z" transform="translate(2954.861 -904.057)"/><path class="d" d="M-2819.748,1003.809c1.115-.088,2.174-.52,3.277-.7a11.041,11.041,0,0,1,3.488.489,3.189,3.189,0,0,0-1.619-1.3,20.094,20.094,0,0,0-2.577-.323,2.826,2.826,0,0,1-2.168-1.255c-.557-1.057.052-2.313.289-3.482a1.851,1.851,0,0,0,.01-.72,9.042,9.042,0,0,0-3.7,5.139C-2823.041,1003.281-2821.058,1003.913-2819.748,1003.809Z" transform="translate(2851.751 -906.393)"/><path class="c" d="M-2628.467,973.143a2.8,2.8,0,0,0,.355,1.207c.7,1.242,2.259,1.7,3.678,1.839a11.721,11.721,0,0,0,8.38-2.222,9.582,9.582,0,0,0,2.557-3.157,3.31,3.31,0,0,0-.443-1.739c-.874-1.566-3.424-3.432-5.215-3.386-1.992.048-3.538,1.675-4.842,3.179C-2624.913,969.921-2626.955,971.478-2628.467,973.143Z" transform="translate(2692.912 -881.188)"/><path class="i" d="M-2740.8,609.675a6.443,6.443,0,0,0-2.839.518c-2.116.76-4.291,1.829-5.416,3.776a2.882,2.882,0,0,0-.454,1.793,5.173,5.173,0,0,0,1.339,2.248c1.027,1.423,2.342,3.184,4.006,3.9,1.465.626,3.38-.487,4.369-1.495a15.247,15.247,0,0,0,2.312-3.621c.584-1.074,1.319-2.256,1.079-3.549C-2736.7,611.637-2739.279,609.841-2740.8,609.675Z" transform="translate(2791.87 -590.154)"/><g transform="translate(41.534 17.065)"><path class="i" d="M-2753.743,596.362c.945.921,1.8,1.927,2.755,2.838.67.639,1.727,1.242,2.06,2.128a.158.158,0,0,1-.23.177,8.459,8.459,0,0,1-.985-1c-.4-.392-.819-.754-1.21-1.151-.891-.907-1.69-1.893-2.578-2.8a.133.133,0,0,1,.188-.188Z" transform="translate(2753.969 -596.323)"/></g><g transform="translate(40.027 20.866)"><path class="i" d="M-2761.934,617.218c.488.79,1.125,1.44,1.631,2.225.218.339.471.65.684.991a7.988,7.988,0,0,0,.746,1.233c.189.208-.125.521-.309.309a16.277,16.277,0,0,1-1.3-2.117c-.541-.866-1.209-1.6-1.725-2.482a.157.157,0,0,1,.271-.158Z" transform="translate(2762.227 -617.143)"/></g><path class="o" d="M-2774.09,590.031a1.432,1.432,0,0,1,1.058-1,2.538,2.538,0,0,1,2.3,1.072,3.447,3.447,0,0,1,.79,2.947,2.238,2.238,0,0,1-2.327,1.712,2.5,2.5,0,0,1-1.885-1.919A5.243,5.243,0,0,1-2774.09,590.031Z" transform="translate(2812.133 -573.27)"/></g><path class="r" d="M-1809.142,1524.954c.007-.049.007-.05,0,0Z" transform="translate(-1422.849 -888.753)"/><g transform="translate(-3497.215 437.676)"><path class="n" d="M-3391.118,1850.748a1.5,1.5,0,0,1-.208.2c-.919.717-2.791.377-3.882.377h-14.139a1.421,1.421,0,0,1-.39-.733c-.358-1.736,1.723-4.5,2.555-5.861a32.064,32.064,0,0,1,3.627-4.115c1.929-2.211,6.486-4.289,9.172-2.317,2.63,1.932,3.48,5.518,3.689,8.6C-3390.619,1847.985-3390.318,1849.83-3391.118,1850.748Z" transform="translate(3421.49 -1581.952)"/><path class="y" d="M-3371.26,1815.084a2.242,2.242,0,0,1-1.6-1.932c-.148-2.656.082-5.386.129-8.046a2.474,2.474,0,0,1,.489-1.754,2.481,2.481,0,0,1,1.966-.429l5.04.341a1.872,1.872,0,0,1,1.275.415,1.869,1.869,0,0,1,.359,1.224q.14,2.748.279,5.5c.062,1.225.45,3.2-.582,4.165-.9.836-2.942.862-4.107.949A7.678,7.678,0,0,1-3371.26,1815.084Z" transform="translate(3391.349 -1553.665)"/><path class="z" d="M-3399.5,1200.948c.053,3.6.141,7.115.154,10.727a1.4,1.4,0,0,0,.256.989,1.4,1.4,0,0,0,.845.319c1.432.2,2.816.626,4.221.817a30.661,30.661,0,0,0,5.249-.078c2.421-.107,4.845-.277,7.3-.395a1.239,1.239,0,0,0,.748-.2,1.258,1.258,0,0,0,.343-.8c3.879-23.186,6.474-46.629,8.31-70.128q.548-6.937,1-13.88.869-13.023,1.491-26.042c.368-7.523,2.182-36.532-11.7-29.192-6.7,3.545-8.207,12.124-8.96,19.54-1.215,11.979-2.658,24.009-4.038,36.061-1.385,12.093-2.705,24.206-3.671,36.311C-3398.915,1177-3399.524,1188.994-3399.5,1200.948Z" transform="translate(3413.092 -956.124)"/><path class="f" d="M-3391.023,1410.514a110.733,110.733,0,0,1,13.153-13.436,149.883,149.883,0,0,1,12.72-9.362q.549-6.937,1-13.88a16.152,16.152,0,0,0-7.054-1.558,55.167,55.167,0,0,0-16.15,1.926C-3388.736,1386.3-3390.057,1398.409-3391.023,1410.514Z" transform="translate(3406.159 -1201.636)"/><path class="n" d="M-3146.2,1864.2h-29.242a1.986,1.986,0,0,1-1.317-1.69,11.629,11.629,0,0,1,2.132-7.318c.8-1.207,3.538-1.5,4.887-1.645a17.569,17.569,0,0,1,5.408.3,43.056,43.056,0,0,1,10.258,3.937c1.568.769,3.616.541,5.276,1.277q.2.09.405.2a5.661,5.661,0,0,1,2.863,3.1A1.377,1.377,0,0,1-3146.2,1864.2Z" transform="translate(3231.039 -1594.987)"/><path class="y" d="M-3154.686,1818.542a2.241,2.241,0,0,1-1.6-1.932c-.148-2.656.082-5.386.128-8.046a2.477,2.477,0,0,1,.489-1.754,2.481,2.481,0,0,1,1.966-.429l5.04.341a1.871,1.871,0,0,1,1.274.415,1.866,1.866,0,0,1,.359,1.224q.14,2.748.279,5.5c.063,1.224.451,3.2-.582,4.165-.9.836-2.942.862-4.107.95A7.685,7.685,0,0,1-3154.686,1818.542Z" transform="translate(3214.313 -1556.491)"/><path class="z" d="M-3259.265,1099.256q1.717,7.626,3.051,15.324c1.968,11.286,3.363,22.665,4.312,34.077q.161,1.931.3,3.864c.677,9.108,1.08,18.235,1.277,27.367.114,5.179-.342,10.286-.09,15.469a2,2,0,0,0,.374,1.3,1.96,1.96,0,0,0,1.239.473,89.951,89.951,0,0,0,9.982.474c.664.009,8.344-.458,8.344-.466.061-11.383,0-22.755.512-34.133.561-12.42.748-24.754.781-37.078q.015-5.214,0-10.425c-.04-15-.214-30.015-.115-45.168.077-12.275-5.112-20.361-18.75-18.823a20.811,20.811,0,0,0-15.755,10.729C-3269.6,1073.133-3261.772,1088.1-3259.265,1099.256Z" transform="translate(3303.875 -939.298)"/><path class="f" d="M-3212.865,1374.023c1.968,11.286,3.362,22.664,4.312,34.077a109.207,109.207,0,0,1,14.023-16.037c2.146-2.018,6.193-4.259,8.7-6.691q.016-5.213,0-10.425a13.6,13.6,0,0,0-2.619-2.814c-3.715-2.888-8.693-3.723-13.38-3.331-4.055.34-8.29,1.7-10.8,4.9C-3212.709,1373.811-3212.789,1373.916-3212.865,1374.023Z" transform="translate(3260.526 -1198.741)"/><path class="k" d="M-3092.548,850.355a240.742,240.742,0,0,0,5.874,44.756c.691,3.029,2.822,5.1,5.007,1.625a10.61,10.61,0,0,0,1.187-3.4c2.414-10.819,5.162-22.779,5.162-33.877q0-10.235-.811-20.447-.11-1.4-.219-2.812c-.367-4.62-.781-9.284-1.569-13.831-.735-4.23-5.538-4.074-8.615-1.518-2.459,2.043-3.681,5.2-4.465,8.3C-3092.743,836.047-3092.808,843.25-3092.548,850.355Z" transform="translate(3162.267 -749.417)"/><path class="y" d="M-3053.394,908.728a31.91,31.91,0,0,1,7.245,15.415q0-10.235-.811-20.447c-.073-.935-.145-1.873-.218-2.812a7.127,7.127,0,0,0-4.522-2.682,4.751,4.751,0,0,0-5.141,3.15C-3057.565,904.093-3055.255,906.588-3053.394,908.728Z" transform="translate(3133.097 -814.101)"/><path class="k" d="M-3306.882,649.951a22.156,22.156,0,0,0-5.177,3.42c-1.485,1.317-3.719,2.292-4.392,4.228-.994,2.861-.253,6.217.889,8.914a22.534,22.534,0,0,0,14.779,13.045,19.284,19.284,0,0,0,18.7-5.346c3.475-3.824,7.38-13.061,2.883-17.537-.976-.971-2.206-1.708-3.225-2.685a22.229,22.229,0,0,0-4.493-3.338,21.862,21.862,0,0,0-10.466-2.838A21.753,21.753,0,0,0-3306.882,649.951Z" transform="translate(3345.581 -609.45)"/><path class="k" d="M-3253.174,566.8a11.181,11.181,0,0,0,7.791,4.045,9.764,9.764,0,0,0,6.681-1.7,5.526,5.526,0,0,0,1.98-3.144,50.726,50.726,0,0,0,1.266-14.008q-.047-.97-.143-1.926c-.01-.113-.023-.229-.035-.343a6.834,6.834,0,0,0-.431-1.894c-.916-2.2-3.316-2.069-5.233-2.648q-.252-.076-.491-.17a3.024,3.024,0,0,1-1.344-1.718c-.152-.336-.292-.668-.448-.939a35.813,35.813,0,0,0-2.632-3.967c-.544-.712-1.3-1.479-2.182-1.311a1.99,1.99,0,0,0-1.338,1.407,6.264,6.264,0,0,0-.2.624,30.362,30.362,0,0,0-.993,5.918,32.489,32.489,0,0,1-.84,5.294c-.008.038-.017.076-.027.113q-1.033,4.486-2.071,8.972C-3254.515,562.224-3255.129,564.3-3253.174,566.8Z" transform="translate(3294.558 -518.91)"/><path class="y" d="M-3239.692,556.838c.918,1.646,2.417,3.081,3.442,4.585q3.786,5.556,7.564,11.118c.752,1.1,2.108,3.916,3.847,2.953,1.638-.907,2.12-3.364,2.057-5.056a13.011,13.011,0,0,0-.525-3.016,6.356,6.356,0,0,1-.137-2.62,48.688,48.688,0,0,0,.091-6.406c-1.8-2.275-3.774-4.616-5.843-6.811-.6-.645-1.218-1.277-1.835-1.888-1.164-1.155-2.344-2.247-3.531-3.241a6.2,6.2,0,0,0-3.068-1.569,6.4,6.4,0,0,0-.2.624,30.4,30.4,0,0,0-.993,5.918,32.463,32.463,0,0,1-.84,5.294C-3239.673,556.762-3239.682,556.8-3239.692,556.838Z" transform="translate(3282.456 -525.315)"/><path class="z" d="M-3081.621,757.593c.132.055.266.1.4.151a12.18,12.18,0,0,0,5.133.508,30.945,30.945,0,0,0,3.288-.5l.523-.107a5.42,5.42,0,0,0,3.085-1.384c1.05-1.182.892-2.974.674-4.541-1.4-10.036-2.239-19.563-7.63-28.425a4.28,4.28,0,0,0-2.239-2.14,3.051,3.051,0,0,0-3.243,1.617c-.63,1.088-.56,2.274-.941,3.423-.309.933-.842,1.777-1.115,2.76C-3085.571,735.794-3091.179,753.684-3081.621,757.593Z" transform="translate(3157.672 -669.337)"/><path class="f" d="M-3056.9,767.73a12.18,12.18,0,0,0,5.133.508,30.98,30.98,0,0,0,3.289-.5,53.107,53.107,0,0,0,.126-15.333,72.891,72.891,0,0,0-3.2-15.308c-.364-1.01-1.516-3.994-3.029-3.8-1.663.216-1.521,4.616-1.669,5.866A151.258,151.258,0,0,0-3056.9,767.73Z" transform="translate(3133.356 -679.323)"/><path class="t" d="M-3080.124,1174.318a12.411,12.411,0,0,1-4.128-3.2,3.62,3.62,0,0,1-1.006-1.76c-.277-1.789,2.782-4.9,3.584-6.625a23.939,23.939,0,0,0,1.781-6.948,22.253,22.253,0,0,0,.388-3.538c-.029-.906-.485-1.768.716-2.182a3.547,3.547,0,0,1,1.711-.016q2.662.426,5.278,1.088a.717.717,0,0,1,.451.244.723.723,0,0,1,.022.557c-.512,2.206-1.4,4.577-1.017,6.864.311,1.849,1.373,3.461,1.626,5.337.641,4.736-2.1,11.939-7.919,10.673A7.775,7.775,0,0,1-3080.124,1174.318Z" transform="translate(3156.23 -1019.914)"/><path class="z" d="M-3392.119,669.151c.021.571.069,1.2.143,1.9.237,2.262.534,4.515.849,6.765.687,4.944,1.462,9.875,1.884,14.861q.186,2.17.342,4.328a424.483,424.483,0,0,1,.9,43.137c-.019.741-.04,1.481-.065,2.222-.007.2-.013.389-.019.584-.025.767-.052,1.535-.082,2.3q-.044,1.248-.1,2.5c0,.019,0,.038,0,.057q-.022.495-.044.989c-.5,11.484-1.369,23.015-2.469,34.78-.036.378.155,7.729.145,11.561a10.619,10.619,0,0,1-.1,2.283q3.881.466,7.771.842,13.793,1.331,27.666,1.5c2.386.029,25.74.306,25.757-.085,1.388-32.218.4-64.554,2.222-96.738q.571-10.115,1.145-20.229c.216-3.854,2.119-11.095-.9-14.289-2.306-2.44-5.521-3.717-8.5-5.107q-2.942-1.367-5.9-2.711c-1.144-.523-2.281-1.063-3.438-1.56-.323-.141-.649-.271-.975-.4-.638-.248-1.283-.477-1.936-.706-.093-.031-.214-.055-.269.027a.232.232,0,0,0-.014.16,12.057,12.057,0,0,1,.229,4.1,6.444,6.444,0,0,1-1.833,3.375,8.989,8.989,0,0,1-4.687,2.3,11.8,11.8,0,0,1-8.216-1.516,11.751,11.751,0,0,1-3.589-3.444,11.62,11.62,0,0,1-1.185-2.239,13.123,13.123,0,0,1-.773-3.429c-.054-.5-.155-.687-.7-.6a10.789,10.789,0,0,0-1.163.367q-.426.116-.85.235c-.349.1-.7.2-1.044.294q-1.89.539-3.77,1.122-3.755,1.165-7.456,2.5l-.149.053C-3389.925,663.647-3392.34,663.445-3392.119,669.151Z" transform="translate(3407.067 -616.674)"/><g transform="translate(58.755 69.622)"><rect class="i" width="15.948" height="8.335" rx="0.604" transform="translate(15.948 8.654) rotate(180)"/><rect class="j" width="7.974" height="2.12" rx="0.604" transform="translate(11.961 2.12) rotate(180)"/></g><path class="aa" d="M-3220.339,454.445a6.326,6.326,0,0,0-.755,2.23,27.915,27.915,0,0,0-.085,4.143,50.489,50.489,0,0,1-.947,7.581c-.24,1.673-.275,3.947-1.179,5.427a26.621,26.621,0,0,1-3.284,3.457,6.208,6.208,0,0,1-3.217,2.068,6.378,6.378,0,0,1-3.615-.618c-3.4-1.43-6.923-4.365-8.147-8-.775-2.3-.024-4.638-.354-6.936a71.416,71.416,0,0,0-1.4-7.873,35.864,35.864,0,0,0-.9-3.99,4.536,4.536,0,0,1-.375-1.4c-.029-.607.474-.993.495-1.525.019-.453-.38-.828-.346-1.312.066-.956,1.192-1.5,1.471-2.42.293-.965-.432-2.058-.035-2.985.389-.91,1.578-1.091,2.566-1.127,3.3-.118,2.928-4.02,6.428-2.032a1.661,1.661,0,0,0,1.662.16c.375-.239.556-.709.936-.94a1.573,1.573,0,0,1,1.479.094,6.117,6.117,0,0,0,1.4.653c.713.148,1.508-.51,2.263-.585,1.64-.164,2.985-1.47,4.638-.468s.752,2.375,1.579,3.7c.556.889,2.057.935,2.4,1.927.369,1.069-1,2.169-.633,3.239.152.447.57.742.832,1.135a2.453,2.453,0,0,1-.1,2.549C-3218.442,452.075-3219.578,453.081-3220.339,454.445Z" transform="translate(3286.467 -437.676)"/><path class="i" d="M-3172.851,610.522a.544.544,0,0,1,.317.07c.247.172.083.638-.044.821a2.561,2.561,0,0,1-2.745,1.015,3.08,3.08,0,0,1-1.707-1.077c-.29-.426-.111-.786.45-.792l3.695-.037Z" transform="translate(3231.346 -578.967)"/><path class="k" d="M-3201.734,508.523c-.267-2.785-1.337-4.949-4.151-4.086-1.112.341-1.95,1.37-3.1,1.558-1.215.2-2.341-.593-3.365-1.277-3.448-2.306-4.935.048-7.072,2.588-1.872,2.225-1.039,5.807-.093,8.272a5.218,5.218,0,0,0,2.665,2.948c1.808.791,3.75.246,5.616,1.052a4.3,4.3,0,0,0,2.1.487c.924-.1,1.035-.916,1.694-1.187.486-.2,1.492.111,2.052.045a3.034,3.034,0,0,0,2.856-2.119A26.373,26.373,0,0,0-3201.734,508.523Z" transform="translate(3266.8 -491.71)"/><g transform="translate(50.953 16.504)"><path class="ab" d="M-3194.651,528.54c.533.059,1.061.155,1.592.217a2,2,0,0,0,1.157-.05.15.15,0,0,0-.014-.257,4.372,4.372,0,0,0-1.23-.171c-.469-.064-.934-.146-1.4-.2-.3-.035-.4.427-.1.46Z" transform="translate(3194.832 -528.078)"/></g><g transform="translate(51.304 19.755)"><path class="ab" d="M-3189.038,548.318a.972.972,0,0,1,.488-.812c.259-.142.495.11.65.052.546-.2.672.936.517,1.234a.925.925,0,0,1-1.345.215A.816.816,0,0,1-3189.038,548.318Z" transform="translate(3189.746 -547.174)"/><path class="ab" d="M-3192.64,546.831a4.519,4.519,0,0,1,1.264-.46,1.778,1.778,0,0,1,.728.024,1.143,1.143,0,0,0,.4.051.223.223,0,0,0-.024-.446c-.208.014-.411-.109-.618-.114a3.475,3.475,0,0,0-.662.07,4.884,4.884,0,0,0-1.221.463c-.249.118-.117.531.137.412Z" transform="translate(3192.91 -545.885)"/></g><g transform="translate(60.084 19.616)"><path class="ab" d="M-3140.263,547.179a.974.974,0,0,0-.57-.756c-.272-.115-.48.161-.641.12-.58-.15-.572,1-.385,1.282a.926.926,0,0,0,1.361.072A.816.816,0,0,0-3140.263,547.179Z" transform="translate(3142.491 -546.163)"/><path class="ab" d="M-3142.173,545.9a4.513,4.513,0,0,0-1.306-.325,1.779,1.779,0,0,0-.721.1,1.143,1.143,0,0,1-.388.092.223.223,0,0,1-.023-.446c.208-.008.4-.151.6-.178a3.511,3.511,0,0,1,.666,0,4.9,4.9,0,0,1,1.263.333c.26.091.171.515-.093.424Z" transform="translate(3144.815 -545.125)"/></g><path class="ab" d="M-3153.871,530.69a6.672,6.672,0,0,1,.625-2.341,3.111,3.111,0,0,1,2.142-1.717c.459-.113.913-.243,1.375-.346.294-.066.444.383.149.447-.524.114-1.038.265-1.561.383a2.9,2.9,0,0,0-1.752,1.22,5.332,5.332,0,0,0-.642,2.461,14.787,14.787,0,0,0,0,2.1c.033.331.152.642.186.971.03.286-.092.668.121.9.163.175-.1.439-.263.263a.787.787,0,0,1-.225-.525c-.043-.4-.045-.762-.121-1.161A11.578,11.578,0,0,1-3153.871,530.69Z" transform="translate(3212.353 -510.103)"/><path class="f" d="M-3386.135,867.7a10.6,10.6,0,0,1-.1,2.283q3.881.466,7.771.842c.011-.065.023-.13.034-.2,3.4-20.315,3.474-40.226,3.876-60.711.387-19.67-.1-38.829-4.376-58.151-.731-3.305-4-9.743-6.63-4.127a23.092,23.092,0,0,0-1.062,2.741c.687,4.944,1.461,9.875,1.884,14.861q.182,2.164.342,4.328c1.048,14.352,1.29,28.751.9,43.137q-.031,1.109-.065,2.222l-.019.584q-.038,1.15-.082,2.3-.044,1.247-.1,2.5c0,.019,0,.038,0,.057l-.044.989c-.5,11.483-1.369,23.015-2.47,34.78C-3386.315,856.521-3386.125,863.871-3386.135,867.7Z" transform="translate(3402.567 -689.246)"/><path class="f" d="M-3275.733,657.273a17.551,17.551,0,0,0,7.09,11.567c4.112,2.758,9.929,3.108,13.962.235,2.724-1.943,4.446-6.853,3.936-10.44-.638-.248-1.283-.477-1.936-.706-.093-.031-.215-.055-.27.027a.236.236,0,0,0-.014.16,12.051,12.051,0,0,1,.229,4.1,6.446,6.446,0,0,1-1.833,3.375,8.989,8.989,0,0,1-4.688,2.3,11.8,11.8,0,0,1-8.215-1.516,11.755,11.755,0,0,1-3.589-3.444,11.618,11.618,0,0,1-1.184-2.239,13.1,13.1,0,0,1-.774-3.429c-.054-.5-.155-.687-.7-.6a10.785,10.785,0,0,0-1.163.367Q-3275.308,657.154-3275.733,657.273Z" transform="translate(3311.917 -616.674)"/><path class="i" d="M-3212.2,565.477c-2.48-.668-5.933,1.3-8,2.585a10.48,10.48,0,0,0-3.613,3.579,6.338,6.338,0,0,0,.071,5.432,11.6,11.6,0,0,0,6.521,5.977,7.6,7.6,0,0,0,4,.628,7.131,7.131,0,0,0,3.159-1.517,12.526,12.526,0,0,0,4.47-7.33c.264-1.288.6-2.56,0-3.763a7.609,7.609,0,0,0-2.742-3.016C-3209.619,567.156-3210.606,565.907-3212.2,565.477Z" transform="translate(3269.952 -542.035)"/><g transform="translate(44.343 20.398)"><path class="i" d="M-3230.73,549.46c1.963,1.8,3.636,3.843,5.6,5.632.274.25-.126.637-.4.4a24.2,24.2,0,0,1-2.495-2.625c-.958-1.1-1.908-2.142-2.959-3.155-.169-.162.084-.412.255-.255Z" transform="translate(3231.041 -549.411)"/></g><g transform="translate(43.099 24.11)"><path class="i" d="M-3237.429,569.852q1.2,1.985,2.353,3.995a23.8,23.8,0,0,1,1.532,2.886c.129.325-.393.463-.521.144a27.085,27.085,0,0,0-1.645-2.955c-.715-1.27-1.386-2.57-2.112-3.839a.228.228,0,0,1,.394-.23Z" transform="translate(3237.856 -569.743)"/></g><path class="k" d="M-3245.619,535.721a1.711,1.711,0,0,0-1.716-.6,2.172,2.172,0,0,0-1.233,1.814c-.291,1.627.25,6.232,2.856,5.3C-3243.248,541.353-3244.358,537.148-3245.619,535.721Z" transform="translate(3289.77 -517.286)"/><path class="k" d="M-3473.928,798.919c.056,5.109-.018,8.914,2.763,13.475,2.462,4.038,4.846,8.56,8.8,11.234,3.342,2.261,8.434,4.767,12.625,4.295,2.948,0,4.85-3.561,3.612-5.985-2.111-4.134-6.877-7.775-10.253-10.893-1.59-1.469-3.126-3.217-3.431-5.36a8.426,8.426,0,0,1,.157-2.787c.894-4.59,2.811-8.412,2.791-13.118-.022-5.147,1.294-10.481,1.838-15.6.057-.534.114-1.065.166-1.6a17.363,17.363,0,0,0-.157-6.405,5.915,5.915,0,0,0-4.245-4.4c-4.463-.825-7.705,3.007-9.728,7.033a29.5,29.5,0,0,0-2.058,5.387A91,91,0,0,0-3473.928,798.919Z" transform="translate(3473.935 -702.514)"/><path class="y" d="M-3473.928,826.65c.073,6.6.16,12.786,4.255,18.275,2.405,3.224,5.788,5.478,8.935,7.887a19.2,19.2,0,0,0,5.335,2.868c1.463.51,4.383.31,5.556,1.045-6.405-4.013-12.826-7.025-16.923-13.716a28.647,28.647,0,0,1-4.021-19.555c.636-3.656,1.175-8.841,5.677-9.745,2.57-.517,5.609,1.449,8.157,3.1.682-4.973,1.395-9.942,1.928-14.892-2.356-3.848-6.317-6.7-10.713-6.288a9.568,9.568,0,0,0-3.251.913,29.5,29.5,0,0,0-2.058,5.387A91,91,0,0,0-3473.928,826.65Z" transform="translate(3473.935 -730.245)"/><path class="z" d="M-3460.105,739.488a48.868,48.868,0,0,0,5.232,1.794,3.281,3.281,0,0,0,2.476.03,3.252,3.252,0,0,0,1.215-2.532,95.055,95.055,0,0,0-1.8-36.581,4.6,4.6,0,0,0-1.769-3.089c-1.789-1.017-3.907.609-5.2,2.206-6.1,7.461-8.836,17.116-11.806,26.08a7.832,7.832,0,0,0-.582,4.057c.491,2.263,2.79,3.579,4.861,4.614C-3464.861,737.352-3462.56,738.492-3460.105,739.488Z" transform="translate(3472.714 -651.124)"/></g><path class="ac" d="M-3372.184,1063.825l.049-.052a3.684,3.684,0,0,1,2.622-1.4,4.241,4.241,0,0,1,1.988.793c2.873,1.765,6.165,4.416,9.733,4.416,3.534,1.233,6.925,9.685,1.525,10.338-5.691.688-12.377-2.381-17.9-3.62a2.312,2.312,0,0,1-1.1-.461,2.148,2.148,0,0,1-.461-1.721A13.21,13.21,0,0,1-3372.184,1063.825Z" transform="translate(-103.552 -510.653)"/><g transform="translate(-3208.34 447.788)"><g transform="translate(0 0)"><path class="aa" d="M-1512.678,508.845c-.9-5.118-3.993-9.969-8.844-11.768a5.809,5.809,0,0,1-2.571-2.082,4.3,4.3,0,0,0-2.483-1.547c-5.069-1.611-9.3,2.163-11.863,6.129-1.732,2.68-6,8.589-5.238,11.71.433,1.766,1.785,3.584.966,5.207a3.008,3.008,0,0,1-2.656,1.457,10.478,10.478,0,0,1-3-.586c1.248,7.8,7.162,14.3,15.63,14.116a20.088,20.088,0,0,0,9.918-3.237c4.388-2.7,8.135-6.7,9.709-11.6A16.458,16.458,0,0,0-1512.678,508.845Z" transform="translate(1559.219 -493.067)"/><path class="c" d="M-1526.99,621.714c.389,3.3,7.047.055,9.614-.148,4.543-.361,8.415,2.661,12.89,2.591,4.129-.064,8.151-1.511,12.278-1.355a8.574,8.574,0,0,0,8.669-5.627c.8-2.167.836-5.334-.516-7.325-1.008-1.486-3.146-1.767-4.81-2.287-4.129-1.29-8.909-2.126-11.42-6.061-2.954-4.629-3.222-10.227-4.184-15.573a30.567,30.567,0,0,0-1.607-5.98,5.619,5.619,0,0,0-1.468-2.3c-.929-.773-1.632-.884-2.158-.6a1.8,1.8,0,0,0-.685.716,6.931,6.931,0,0,0-.7,2.833c-.092,1.4.232,2.77-.313,4.065a10.041,10.041,0,0,0-.494,5.28c.3,2.173.964,4.295,1.1,6.484.019.308.027.615.023.924a13.725,13.725,0,0,1-1.047,5.141,9.952,9.952,0,0,1-1.5,2.706c-.646.738-1.584.621-2.534.785a14.119,14.119,0,0,0-2.78.9c-2.425.982-5.207,2.587-6.455,4.948A17.048,17.048,0,0,0-1526.99,621.714Z" transform="translate(1541.835 -561.6)"/><path class="t" d="M-1463.152,756.839a8.708,8.708,0,0,1,.794,1.179,45.228,45.228,0,0,1,1.23,4.93l2.459,9.852c-.065-.262,3.413-3.249,3.789-3.665a39.7,39.7,0,0,0,3.532-4.537c1.926-2.881,4.215-6.6,4.768-10.069,0,.024-6.345.14-6.911.16l-7.508.271a3.011,3.011,0,0,0-1.971.545A.925.925,0,0,0-1463.152,756.839Z" transform="translate(1489.729 -706.796)"/><path class="f" d="M-1442.79,743.756c-1.516,1.383-3.08,2.705-4.7,4a1.623,1.623,0,0,0-.746,1.052,1.587,1.587,0,0,0,.44,1c.538.7,1.118,1.36,1.672,2.046.3.372.606,1.1,1.009,1.356,1.231.769,2.358-.859,2.852-1.737L-1438,743.9c1.021-1.815,1.856-3.705,2.812-5.545a20.21,20.21,0,0,0,2.23-5.962q-1.617,2.093-3.2,4.211a45.175,45.175,0,0,1-5.258,5.886C-1441.858,742.91-1442.322,743.329-1442.79,743.756Z" transform="translate(1477.368 -688.706)"/><path class="r" d="M-1410.786,1850.939a4.086,4.086,0,0,0,4.925-.053c1.961-1.343,1.05-3.174.722-5.137-.324-1.941-.465-3.932-.7-5.886-.3-2.495-3.186-2.89-4.421-.774a6.509,6.509,0,0,0-.666,2.558c-.174,1.469-.418,2.93-.581,4.4-.147,1.329-.693,2.878.057,4.122A3.141,3.141,0,0,0-1410.786,1850.939Z" transform="translate(1447.612 -1592.239)"/><path class="r" d="M-1458.063,1850.939a4.086,4.086,0,0,1-4.925-.053c-1.961-1.343-1.05-3.174-.722-5.137.324-1.941.465-3.932.7-5.886.3-2.495,3.185-2.89,4.421-.774a6.511,6.511,0,0,1,.666,2.558c.174,1.469.418,2.93.581,4.4.147,1.329.693,2.878-.057,4.122A3.143,3.143,0,0,1-1458.063,1850.939Z" transform="translate(1490.427 -1592.239)"/><path class="c" d="M-1531.358,1104.685a39.364,39.364,0,0,0-.527,13.671,92.363,92.363,0,0,0,1.945,10.432c1.435,6.082,3.565,11.59,5.59,17.488a110.644,110.644,0,0,1,4.03,11.961,34.214,34.214,0,0,1,1.047,5.729c.219,3.081-.59,6.125-.443,9.219a1.97,1.97,0,0,0,.232,1c.445.683,2.148.836,2.923.834.834,0,2-.273,1.929-1.332-.109-1.511-.427-3.016-.576-4.524-.316-3.184-.685-6.353-.957-9.549q-.406-4.757-.531-9.528c-.154-6.185-.281-12.365-.283-18.519,0-5.217.1-10.428.269-15.633q.178-5.71.439-11.414.221-5.052.467-10.1c.545-11.547-.107-23.056.262-34.562.154-4.856,5.37-4.776,5.557-.041.457,11.5-.1,23.012.531,34.555q.27,4.939.533,9.879.3,5.621.525,11.246c.213,5.332.365,10.67.406,16.014.047,6.152-.033,12.334-.139,18.519-.053,3.175-.209,6.359-.455,9.532a32.228,32.228,0,0,1-.816,4.176,26.825,26.825,0,0,0-.533,4.711q-.01.283-.031.566c-.092,1.328-.336,2.655-.348,4-.006.654-.051,1.24.523,1.691a2.56,2.56,0,0,0,1.464.465c.951.049,2.648-.031,2.622-1.242-.041-1.978-.191-3.987-.125-5.963.057-1.8.451-3.628.629-5.426.564-5.7,2.9-11.014,4.7-16.377,1.98-5.912,4.065-11.438,5.453-17.531a89.011,89.011,0,0,0,1.937-11.178,38.364,38.364,0,0,0-.756-13.148,23.4,23.4,0,0,1-.691-4.8c-.177-4.284.744-8.407,1.681-12.767,1.052-4.883-.023-9.668-.033-14.624a193.956,193.956,0,0,0-4.68-43.139,31.884,31.884,0,0,0-3.308-9.378c-3.087-5.158-6.674-6.177-12.082-4.752-3.4-.877-3.44-1.14-5.471,1.8a59.179,59.179,0,0,0-4.268,7.927c-.025.053-.051.107-.076.158a109.1,109.1,0,0,0-6.769,17.869c-3.177,11.275-3.538,22.174-4.03,33.754-.41,9.637,4.463,18.269,2.287,28.121C-1531.325,1104.543-1531.344,1104.613-1531.358,1104.685Z" transform="translate(1547.167 -919.102)"/><path class="d" d="M-1525.683,1514.877q.252-.3.521-.6a12.712,12.712,0,0,1,7.986-4.379c1.693-.154,4.284,1.453,6.668,2.552q.178-5.71.439-11.414a15.082,15.082,0,0,0-7.712-1.7,17.753,17.753,0,0,0-7.376,1.87A39.367,39.367,0,0,0-1525.683,1514.877Z" transform="translate(1540.965 -1315.625)"/><path class="d" d="M-1398.315,1477.029q.3,5.621.525,11.246c1.839-2.273,4.459-4.356,7.4-3.583,3.157.828,5.742,3.025,7.878,5.539a38.37,38.37,0,0,0-.756-13.148,23.391,23.391,0,0,1-.691-4.8c-2.31-1.419-5.055-2.4-7.7-1.839C-1394.855,1471.115-1397.239,1473.929-1398.315,1477.029Z" transform="translate(1436.563 -1291.883)"/><path class="h" d="M-1604.069,814.73a3.886,3.886,0,0,0,4.766.088c1.408-1.281,1.236-3.489,1.1-5.387a43.287,43.287,0,0,1,.369-9.624q.166-1.092.389-2.171a39.445,39.445,0,0,1,3.667-10.367c.475-.906,1-1.818,1.537-2.737.693-1.177,1.417-2.365,2.115-3.573.363-.623.718-1.25,1.058-1.884a26.868,26.868,0,0,0,2.624-6.5q.185-.784.293-1.583c.3-2.277-1.119-13.521-4.905-11.289a4.382,4.382,0,0,0-.955.783,9.232,9.232,0,0,0-.734.888,36.837,36.837,0,0,0-3.581,6.144c-.016.033-.031.064-.045.1-.463.961-.908,1.931-1.355,2.9-.8,1.736-1.605,3.471-2.524,5.131a57.686,57.686,0,0,0-6.82,19.913C-1607.817,800.967-1609.208,810.946-1604.069,814.73Z" transform="translate(1607.821 -710.788)"/><path class="g" d="M-1553.144,845.614c.11-.728.242-1.452.389-2.171a39.432,39.432,0,0,1,3.667-10.367c.475-.906,1-1.818,1.537-2.737.693-1.177,1.416-2.365,2.115-3.573.363-.623.718-1.251,1.058-1.884-.07-.541-.135-1.084-.182-1.632-.215-2.442-.279-4.6-1.314-6.9-.2-.437-.523-.931-1-.9-.527.033-.771.658-.894,1.173-.586,2.482-1.052,5-1.611,7.484-1.495,6.644-3.18,13.015-3.7,19.843A15.554,15.554,0,0,0-1553.144,845.614Z" transform="translate(1563.129 -756.596)"/><path class="d" d="M-1444.412,589.938c.3,2.173.963,4.295,1.1,6.484.018.308.026.615.023.924q2.173-4.292,4.6-8.452c.56-.961,1.1-1.986,1.7-2.966a30.534,30.534,0,0,0-1.607-5.98,5.621,5.621,0,0,0-1.468-2.3c-.928-.773-1.632-.884-2.159-.6-.231.223-.451.453-.66.687l-.025.029a6.929,6.929,0,0,0-.7,2.833c-.092,1.4.232,2.77-.314,4.065A10.043,10.043,0,0,0-1444.412,589.938Z" transform="translate(1474.355 -561.6)"/><path class="ad" d="M-1515.317,1371.523c-1.077,1.2-4.073.549-5.732.532l-14.42-.145-28.84-.29a2.88,2.88,0,0,1-2.438-.821,2.855,2.855,0,0,1-.23-2.025l1.95-14.556c.436-3.25.931-6.653,2.877-9.292,2.862-3.88,8.044-5.1,12.8-5.892q8.958-1.5,18.014-2.3c3.546-.314,7.041-1.125,10.545-1.624,3.911-.557,4.42,3.931,4.609,6.978q.7,11.327,1.4,22.654c.106,1.707.662,5.213-.462,6.69C-1515.266,1371.464-1515.291,1371.494-1515.317,1371.523Z" transform="translate(1574.493 -1181.348)"/><path class="c" d="M-1472.311,530.988c-.81,2.306-4.319,7.39-7.294,7.113-4.109-.384-6.067-7.561-6.846-10.756-1.245-5.1-.43-11.208,3.688-14.919,4.193-3.78,9.614.378,11.328,4.623C-1470.358,519.713-1470.583,526.068-1472.311,530.988Z" transform="translate(1509.045 -507.681)"/><path class="aa" d="M-1428.38,532.86c.922.842,2.361,1.534,3.35.772.873-.673.766-2,.573-3.083l-.629-3.549a11.406,11.406,0,0,0-1.451-4.463c-2.061-3.062-5.734-2.092-5.985,1.451C-1432.73,526.932-1430.453,530.966-1428.38,532.86Z" transform="translate(1464.535 -515.659)"/><path class="aa" d="M-1500.328,516.225a4.135,4.135,0,0,1,.21-.9,26.831,26.831,0,0,1,2.242-5.438,8.51,8.51,0,0,1,5.275-4.036c2.024-.412,4.1.187,6.08.78a7.71,7.71,0,0,1,3.5,1.752,2.651,2.651,0,0,1,.265,3.565c-1.137,1.119-2.5.3-3.762.057-1.77-.343-3.732-1.62-5.514-1.178a8.369,8.369,0,0,0-4.626,3.422,14.811,14.811,0,0,0-2.273,6.264A6.562,6.562,0,0,1-1500.328,516.225Z" transform="translate(1519.974 -503.405)"/><g transform="translate(3.297 42.873)"><path class="h" d="M-1588.105,867.9c.084.051.178.094.271.14h56.627c2.343-.4,2.3-1.562,2.083-5.19-1.527-25.1-4.781-49.46-10.838-73.76q-.587-2.355-1.209-4.713c-2.267-8.567-3.042-17.5-.016-25.835a30.616,30.616,0,0,1,1.288-3.037c2.194-4.492,6.091-8.022,7.491-12.927,1.021-3.576.746-8.719-3-10.541a49.969,49.969,0,0,0-9.278-3.419q-1.184-.308-2.384-.556c-.97-.2-1.082-.3-1.677.429a37.432,37.432,0,0,0-1.9,3.462q-1.547,2.408-3.22,4.729-1.691,2.346-3.5,4.6-.932,1.159-1.894,2.29a10.145,10.145,0,0,1-1.383,1.508c-.612.486-.868-.544-1.04-.973-.25-.62-.474-1.251-.692-1.883a20.3,20.3,0,0,1-.885-2.845c-.346-1.888-.91-3.735-1.224-5.639-.262-1.605-.51-3.19-.738-4.8a.464.464,0,0,0-.146-.334.469.469,0,0,0-.427.012c-2.117.767-4.223,1.57-6.324,2.386-2.817,1.093-4.264,2.263-5.115,4.01a17.741,17.741,0,0,0-1.273,5.328,18.709,18.709,0,0,0-.1,3.311c.017.432.043.863.068,1.3.037.629.074,1.246.09,1.87.008.285.012.57.01.855a44.01,44.01,0,0,0,.515,6.607c.312,2.15.771,4.325,1.277,6.486,1.638,3.331,3.422,6.642,4.178,10.3,1.244,6.037-2.323,10.848-4.032,16.318-.662,2.118-.968,4.4-1.617,6.539-.088.289-.181.578-.281.865l-.265,1.632-6.414,39.631q-.378,2.343-.758,4.686-1.7,10.494-3.4,20.991C-1589.727,864.759-1590.512,866.428-1588.105,867.9Z" transform="translate(1589.761 -727.911)"/><path class="ae" d="M-1426.244,1258.632c-.023.038-.045.076-.065.116,0-.029.005-.058.007-.087s.007-.05.011-.076Z" transform="translate(1456.149 -1161.705)"/></g><g transform="translate(41.396 38.922)"><path class="af" d="M-1380.49,706.413c2.793,4.536,2.89,9.986,1.819,15.068-.082.387-.675.223-.593-.164,1.037-4.922.949-10.2-1.757-14.594-.208-.338.324-.647.531-.31Z" transform="translate(1381.069 -706.267)"/></g><g transform="translate(37.07 53.647)"><path class="af" d="M-1400.147,801.7a2.586,2.586,0,0,0,3.491-1.607c.653-1.529.456-3.3.428-4.92-.022-1.241-.347-8.138-2.919-7.382-1.007.3-1.636,1.708-2.154,2.524a16.378,16.378,0,0,0-1.846,4.1,14.934,14.934,0,0,0-1.032,4.506c.025,1.108.366,2.725,1.75,2.6.317-.029.381.482.075.554-2.163.508-2.553-2.781-2.374-4.21a21.638,21.638,0,0,1,3.27-8.781c.533-.836,1.234-1.924,2.288-2.128a2.546,2.546,0,0,1,2.458,1.458,11.789,11.789,0,0,1,1.122,4.061,28.821,28.821,0,0,1,.244,5.188c-.088,2.87-1.769,6.091-5.076,4.694-.371-.157-.105-.8.276-.656Z" transform="translate(1404.767 -786.923)"/></g><path class="z" d="M-1471.551,807.811a2.306,2.306,0,0,1,2.686.2,2.12,2.12,0,0,1-.175,3.119,2.19,2.19,0,0,1-3.083-.288A2.17,2.17,0,0,1-1471.551,807.811Z" transform="translate(1497.213 -750.078)"/><g transform="translate(25.538 40.315)"><path class="af" d="M-1463.357,714.29c-4,4.842-4.747,12.516-3.049,18.389a.359.359,0,0,1-.692.191c-1.756-6.074-.813-14,3.423-18.9.19-.22.5.1.317.317Z" transform="translate(1467.935 -713.899)"/></g><path class="z" d="M-1394.072,865.83a.9.9,0,0,1-1.249-.805.9.9,0,0,1,1.322-.679.9.9,0,0,1-.073,1.485Z" transform="translate(1434.116 -796.471)"/><path class="z" d="M-1382.09,867.176a.9.9,0,0,1-1.249-.806.9.9,0,0,1,1.322-.679.9.9,0,0,1-.073,1.485Z" transform="translate(1424.321 -797.571)"/><g transform="translate(22.784 13.965)"><path class="l" d="M-1437.629,585.82c0-.013.006-.026.009-.039.234-.938,1.684-.4,1.4.46C-1436.478,587.047-1437.784,586.624-1437.629,585.82Z" transform="translate(1445.925 -582.417)"/><path class="l" d="M-1475.164,592.783c.005-.33.19-.656.559-.609a.648.648,0,0,1,.18,1.177C-1474.922,593.575-1475.171,593.176-1475.164,592.783Z" transform="translate(1476.598 -588.042)"/><g transform="translate(0 0.679)"><path class="d" d="M-1477.466,581.622a2.755,2.755,0,0,1-1.3.085c-.631-.142-.7-.547-.725-1.123a22.106,22.106,0,0,0-.335-4.236,3.585,3.585,0,0,0-1.168-1.98,3.821,3.821,0,0,0-1.894-.727c-.143-.03-.193-.275-.027-.312,1.336-.3,2.666.934,3.195,2.052a8.336,8.336,0,0,1,.558,3.04c.045.669.081,1.339.116,2.009.053,1.007.546.893,1.5.863C-1477.358,581.288-1477.271,581.569-1477.466,581.622Z" transform="translate(1483.016 -573.284)"/></g><g transform="translate(5.807)"><path class="d" d="M-1446.866,570.3c-.768.138-1.4-.387-2.159-.2-.983.246-1.518,1.242-1.9,2.107a.141.141,0,0,1-.266-.048,2.84,2.84,0,0,1,1.5-2.342c.964-.608,1.862.026,2.844.256a.114.114,0,0,1-.011.225Z" transform="translate(1451.206 -569.564)"/></g><g transform="translate(3.674 10.462)"><path class="v" d="M-1462.7,627.956c.239.315.362.4.239.773s-.239.485.117.83a2.1,2.1,0,0,0,2.719-.223,2.092,2.092,0,0,0,.664-1.279c.011-.432-.334-.542-.732-.7a5.912,5.912,0,0,0-1.581-.484c-.4-.044-.124.381-.347.49-.24.117-.682-.2-.971-.127C-1463.047,627.355-1462.889,627.712-1462.7,627.956Z" transform="translate(1462.889 -626.872)"/><path class="i" d="M-1456.411,632.188c.094.083.094.227-.056.463a1.557,1.557,0,0,1-1.024.535,2.122,2.122,0,0,1-1.3-.113c-.184-.1-.679-.4-.647-.573.08-.43.825-.231,1.2-.239S-1456.7,631.932-1456.411,632.188Z" transform="translate(1460.065 -631.136)"/></g><path class="d" d="M-1429.619,598.887c-.932-.9-2.305.521-2.551,1.772-.542,2.76,3.969,1.219,2.972-1.119A1.971,1.971,0,0,0-1429.619,598.887Z" transform="translate(1441.49 -593.303)"/></g><path class="g" d="M-1533.746,881.064l.265-1.632c.1-.287.193-.576.281-.865.65-2.142.955-4.422,1.618-6.539,1.709-5.469,5.276-10.28,4.032-16.318-.756-3.663-2.54-6.974-4.178-10.305-.506-2.161-.965-4.335-1.277-6.486a44.025,44.025,0,0,1-.515-6.607c0-.285,0-.57-.01-.855.355,4.741,1.724,10.163,4.881,13.249,3.495,3.417,9.151,4.313,13.825,4.541,7.279.357,15.471-2.249,19.279-8.895.374-.652.735-1.312,1.088-1.976l.234-.314q.207-.229.412-.458c-.449.883-.826,1.835-1.171,2.541a30.668,30.668,0,0,0-1.287,3.036c-3.025,8.333-2.251,17.269.017,25.835q.624,2.355,1.209,4.713,3,12.039,5.122,24.122-.851-1.477-1.763-2.92c-.045-.174-.093-.345-.152-.508a11.874,11.874,0,0,0-1.561-2.5c-.835-1.15-1.692-2.285-2.538-3.427-5.57-7.522-10.953-13.907-20.66-15.724-2.2-.412-5.16-1.072-7.057.451-1.94,1.557-3.642,4.5-4.838,6.621a4.048,4.048,0,0,0-1.453,1.07,54.488,54.488,0,0,0-4.865,6.722Z" transform="translate(1548.139 -769.681)"/><g transform="translate(5.464 83.32)"><g transform="translate(0)"><rect class="z" width="25.818" height="35.498" rx="0.604" transform="translate(30.503 35.153) rotate(172.006)"/><rect class="j" width="10.884" height="2.88" rx="0.604" transform="matrix(-0.99, 0.139, -0.139, -0.99, 18.484, 3.255)"/></g><path class="c" d="M-1574.427,1039.068a4.7,4.7,0,0,1,.437.3c2.818,2.184,5.817,4.14,2.791,7.7a3.421,3.421,0,0,1-2.723,1.323,3.25,3.25,0,0,1-2.578-1.95C-1577.188,1044.978-1577.944,1036.929-1574.427,1039.068Z" transform="translate(1577.23 -1022.416)"/></g><path class="i" d="M-1465.434,600.481a3.361,3.361,0,0,0-.784-3.2,5.2,5.2,0,0,0-3.267-1.013,21.062,21.062,0,0,0-5.305.051,4.584,4.584,0,0,0-3.247,1.88c-.884,1.5-.265,3.4.431,4.99a12.257,12.257,0,0,0,1.58,2.831,4.694,4.694,0,0,0,2.667,1.743,4.8,4.8,0,0,0,3.87-1.2A13.521,13.521,0,0,0-1465.434,600.481Z" transform="translate(1502.088 -577.307)"/><g transform="translate(34.603 19.997)"><path class="i" d="M-1414.665,602.948a16.454,16.454,0,0,1-1.225,2.341,9.529,9.529,0,0,1-.8.848c-.309.311-.953.764-1.078,1.19a.262.262,0,0,1-.5-.139c.129-.714,1.1-1.283,1.578-1.768a11.6,11.6,0,0,0,1.637-2.7.228.228,0,0,1,.394.23Z" transform="translate(1418.279 -602.606)"/></g><g transform="translate(32.405 17.201)"><path class="i" d="M-1425.721,587.616a18.618,18.618,0,0,0-2.44,1.865,5.528,5.528,0,0,1-.758.557c-.373.242-.651.575-1.032.8a.248.248,0,0,1-.3-.388,23.656,23.656,0,0,1,2.14-1.549,19.134,19.134,0,0,1,2.213-1.588c.193-.121.367.181.178.3Z" transform="translate(1430.32 -587.285)"/></g><path class="c" d="M-1407.415,582.076a2.088,2.088,0,0,1,1.9-.882,1.222,1.222,0,0,1,.879.815l.038-.007a6.044,6.044,0,0,1,0,2.33,2.058,2.058,0,0,1-1.55,1.579,1.842,1.842,0,0,1-1.915-1.409A2.836,2.836,0,0,1-1407.415,582.076Z" transform="translate(1444.588 -565.085)"/></g><path class="c" d="M-1376,783.409a19.275,19.275,0,0,1-.119,5.525c-.8,6.45-2.047,12.921-4.745,18.835s-6.97,11.275-12.707,14.332c-1.339.713-3.013,1.859-2.531,3.3s2.564,1.339,4.006.841c10.962-3.783,19.413-13.622,22.313-24.85s.466-23.549-5.774-33.324c-.471-.738-1.118-1.547-1.992-1.514-1.032.039-1.606,1.2-1.85,2.2a14.894,14.894,0,0,0,.373,8.545C-1378.182,779.5-1376.4,780.954-1376,783.409Z" transform="translate(1434.819 -716.623)"/><path class="ag" d="M-1407.847,1049.375c.4-.432.886-.925,1.47-.845a1.786,1.786,0,0,1,1.017.725l2.687,3.125c2.17,2.523-2.185,3.571-3.913,4.786a39.933,39.933,0,0,0-6.9,6.154c-.541.61-1.36,1.3-2.065.886a1.769,1.769,0,0,1-.657-1.092c-.475-1.576-1.9-6.615-.713-8.047a1.974,1.974,0,0,1,.792-.493C-1412.807,1053.182-1410.325,1052.045-1407.847,1049.375Z" transform="translate(1452.149 -947.117)"/><path class="h" d="M-1330.182,760.622c3.192,5.4,4.683,11.657,5.491,17.824.419,3.2.645,6.416.776,9.636a20.648,20.648,0,0,1-1.481,8.576c-2.179,6.125-7.345,11.306-11.227,16.447l-6.935-6.245c5.994-6.768,11.6-18.065,8.965-27.284-1.569-5.5-4.459-11.107-3.846-16.977a4.843,4.843,0,0,1,2.439-4.007C-1333.426,756.991-1331.592,758.236-1330.182,760.622Z" transform="translate(1391.802 -709.53)"/></g><g transform="translate(-3293.289 438.563)"><path class="c" d="M-2125.124,1224.892a13.713,13.713,0,0,0,3.111,5.39c2.373,2.436,5.532,3.215,8.192-.808,1.53-2.313,1.331-7.239-.335-10.566a6.25,6.25,0,0,0-2.778-3,5.465,5.465,0,0,0-4.414.189c-2.615,1.171-3.992,2.82-4.208,5.57A9.048,9.048,0,0,0-2125.124,1224.892Z" transform="translate(2126.654 -1074.406)"/><path class="k" d="M-2125.124,1224.892a15.745,15.745,0,0,1,6.151-4.936,8.333,8.333,0,0,1,2.426-.867c.483-.044,1.188.3,1.606.2a1.8,1.8,0,0,0,.784-.382,6.25,6.25,0,0,0-2.778-3,5.465,5.465,0,0,0-4.414.189c-2.615,1.171-3.992,2.82-4.208,5.57A9.048,9.048,0,0,0-2125.124,1224.892Z" transform="translate(2126.654 -1074.406)"/><path class="o" d="M-2010.142,585.8a7.61,7.61,0,0,0,4.755,3.8,14.981,14.981,0,0,0,6.215.294,38.85,38.85,0,0,0,12.3-3.967,30.593,30.593,0,0,0,8.285-5.7,16.089,16.089,0,0,0,4.647-8.777,5.014,5.014,0,0,0,.008-2.642,5.98,5.98,0,0,0-2.352-2.121c-1.157-.71-2.708-1.259-3.136-2.583-.534-1.653-.951-3.335-1.543-4.979-.812-2.252-1.42-5.251-2.82-7.147-2.019-2.733-4.393-1.509-7.039-.752-2.973.85-8.219,1.28-9.548,4.967a.617.617,0,0,0-.023.066,4.682,4.682,0,0,0-.2.807c-.32,1.994.538,4.147,1.1,5.965a29.741,29.741,0,0,1,.886,4,26.383,26.383,0,0,0-2.714,1.517,23.729,23.729,0,0,0-3.456,2.681,20.319,20.319,0,0,0-5.117,7.384C-2010.8,580.913-2011.2,583.574-2010.142,585.8Z" transform="translate(2032.81 -530.62)"/><path class="u" d="M-1972.99,595.714c-.381-.483,4.039-6.255,4.52-6.921q2.482-3.417,5.3-6.577a80.711,80.711,0,0,1,5.925-6.018c1.852-1.687,2.645-3.763-.582-4.812a9.108,9.108,0,0,0-4.365.013,102.654,102.654,0,0,0-11.557,2.7c-.32,1.994.538,4.147,1.1,5.965a29.734,29.734,0,0,1,.886,4,26.387,26.387,0,0,0-2.714,1.517,23.721,23.721,0,0,0-3.456,2.68A54.493,54.493,0,0,0-1972.99,595.714Z" transform="translate(2005.975 -547.646)"/><path d="M-2113.212,1851.687q4.8-1.6,9.42-3.672c1.882-.843,3.712-1.382,5.594-2.073,1.907-.7,3.544-2.484,5.758-1.957a4.374,4.374,0,0,1,2.956,3.3c.744,2.933,1.9,7.942-2.438,7.99l-22.071.247c-1.1.012-3.438-.165-3.313-1.83.1-1.315,2.757-1.561,3.748-1.887Z" transform="translate(2119.899 -1588.057)"/><path class="ah" d="M-2065.731,1079.043c.183,2.168.331,4.172.4,5.961q.133,3.245.267,6.49,1.309,31.854,2.814,63.7c.2,4.234-.488,8.69-.594,13.015-.106,4.28,2.356,5.248,6.471,5.372q2.12.067,4.242.129l2.78.085a3.051,3.051,0,0,0,1.39-.176c1-.466,1.178-1.786,1.225-2.886q.121-2.768.269-5.537c1.417-26.211,5.736-52.049,8.923-78.063.354-2.89.82-5.649,1.375-8.34.776-3.771,1.719-7.408,2.757-11.082.913-3.229,1.9-6.488,2.9-9.891,2.636-8.931,6.478-19.585,1.786-28.525a21.316,21.316,0,0,0-16.11-11.156,18.26,18.26,0,0,0-8.643,1.049,15.218,15.218,0,0,0-3.717,2.064,19.027,19.027,0,0,0-3.2,3.1C-2070.638,1036.815-2067.121,1062.62-2065.731,1079.043Z" transform="translate(2079.143 -912.953)"/><path class="n" d="M-1967.536,1350.951c-.555,2.691-1.021,5.45-1.375,8.34-3.187,26.014-7.505,51.852-8.923,78.063q-.15,2.768-.269,5.537c-.047,1.1-.227,2.42-1.225,2.886a3.045,3.045,0,0,1-1.39.176l-2.78-.085c.017-.15.036-.3.055-.449q.477-3.706.9-7.406c1.617-14.021,2.844-27.974,5.247-42.039q1.8-10.552,3.992-21.031C-1971.579,1366.7-1971.507,1358.558-1967.536,1350.951Z" transform="translate(2010.515 -1185.11)"/><path class="i" d="M-2129.171,759.72c.156-.961.287-1.979.447-3.008.311-3.409,1.244-6.974,1.5-9.2,1.494-12.9,4.833-24.934,7.885-37.526a8.343,8.343,0,0,1,1.32-3.288c3.8-4.837,5.317,3.012,5.833,5.215,2.5,10.668,2.355,22.709,1.884,33.636a52.271,52.271,0,0,1-2.786,15.251c-.277,1.986-.731,3.99-1.045,5.949q-1.941,12.134-3.882,24.268c-.459,2.866-1.824,4.893-2.046,7.79-.1,1.336-.666,2.866-2.018,3.249a4.366,4.366,0,0,1-1.9-.037l-4.759-.8a3.3,3.3,0,0,1-2.094-.89,2.921,2.921,0,0,1-.446-1.847c-.063-4.843-.206-9.667-.206-14.475A184.711,184.711,0,0,1-2129.171,759.72Z" transform="translate(2131.486 -657.21)"/><path class="q" d="M-2129.171,759.72c.156-.961.287-1.979.447-3.008.311-3.409,1.244-6.974,1.5-9.2,1.494-12.9,4.833-24.934,7.885-37.526a8.343,8.343,0,0,1,1.32-3.288c3.8-4.837,5.317,3.012,5.833,5.215,2.5,10.668,2.355,22.709,1.884,33.636a52.271,52.271,0,0,1-2.786,15.251c-.277,1.986-.731,3.99-1.045,5.949q-1.941,12.134-3.882,24.268c-.459,2.866-1.824,4.893-2.046,7.79-.1,1.336-.666,2.866-2.018,3.249a4.366,4.366,0,0,1-1.9-.037l-4.759-.8a3.3,3.3,0,0,1-2.094-.89,2.921,2.921,0,0,1-.446-1.847c-.063-4.843-.206-9.667-.206-14.475A184.711,184.711,0,0,1-2129.171,759.72Z" transform="translate(2131.486 -657.21)"/><path d="M-1790.777,1854.244c.129-.52.275-1,.339-1.3.444-2.017,1.151-5.09,3.2-6.11,2.418-1.2,5.888.028,7.52,1.9,1.023,1.173,2.076,2.171,3.188,3.241a21.375,21.375,0,0,0,2.832,2.361c-.1.59-.079,2.168-.471,2.606a6.424,6.424,0,0,1-1.57.467,26.046,26.046,0,0,1-3.515.024,53.725,53.725,0,0,1-7.912-.19c-.99-.1-3.235.152-3.759-.975A3.849,3.849,0,0,1-1790.777,1854.244Z" transform="translate(1853.173 -1590.077)"/><path class="ah" d="M-1892.478,1197.858c-.066,1.606.67,5.748-.841,6.681-.025.017-.053.032-.081.046a3.554,3.554,0,0,1-1.581.295l-7.859.229-.879.026a3.181,3.181,0,0,1-2.526-.663,3.148,3.148,0,0,1-.612-1.6c-2.57-13.991-5.636-27.8-8.6-41.715q-4.831-22.694-9.663-45.392c-2.909-13.667-6.124-27.38-6.682-41.465-.178-4.486-.065-9.269,2.388-13.029,2.016-3.09,6.049-5.009,9.68-3.988,3.666,1.031,8.13,1.449,11.2,3.918a12.959,12.959,0,0,1,2.657,2.89c2.628,3.937,3.346,8.806,3.971,13.5,4.84,36.38,10.072,74.43,9.614,111.168C-1892.332,1191.791-1892.355,1194.825-1892.478,1197.858Z" transform="translate(1968.302 -944.828)"/><path class="n" d="M-1822.18,1216.449c-.066,1.606.67,5.749-.841,6.681a.93.93,0,0,1-.081.047l-11.6-72.315q-3.144-19.585-6.285-39.171c-1.047-6.526-2.06-13.061-3.143-19.583-.608-3.666-3.82-8.908.452-11.336a9.565,9.565,0,0,1,5.441-.979,12.98,12.98,0,0,1,2.657,2.89c2.627,3.937,3.346,8.806,3.971,13.5,4.84,36.38,10.071,74.43,9.614,111.168C-1822.034,1210.383-1822.057,1213.417-1822.18,1216.449Z" transform="translate(1898.005 -963.42)"/><path class="t" d="M-2067.909,727.126a6.451,6.451,0,0,0,.9.578h49.672c.046-1.229.006-2.587.158-4.043,1.61-15.426,1.613-28.228,7.717-42.451,2.782-6.477,12.553-15.767,8.914-22.37-3.524-6.393-10.6-10.684-16.951-13.811a30.271,30.271,0,0,1-5.978-3.528c-1.26-1.034-3-3.612-4.879-2.769a5,5,0,0,0-1.594,1.336c-4.022,4.512-7.481,9.554-11.983,13.588-.964.864-2.169,1.732-3.437,1.47-1.488-.308-2.218-1.968-2.638-3.428a45.452,45.452,0,0,1-1.755-11.265,6.9,6.9,0,0,0-1.5.617c-.256.119-.515.231-.776.339a2.539,2.539,0,0,1-.72.284,16.374,16.374,0,0,0-4.342,1.968c-3.386,2.53-6.8,4.674-9.169,8.3-1.96,2.994-1.373,6.664-1.7,10.061-1.271,13.1-3.2,25.8-3.037,39.031C-2070.935,706.941-2072.984,723.091-2067.909,727.126Z" transform="translate(2082.334 -602.778)"/><path class="f" d="M-2022.676,820.249h27.781c-4.8-2.8-8.045-8.177-10.775-12.86-8.925-15.333-10.724-33.515-9.338-50.907.08-1.011,1.163-3.6.36-4.35-1.3-1.208-2.6.994-3.007,2-3.8,9.34-4.2,19.661-4.45,29.741q-.283,11.423-.417,22.848Q-2022.61,813.486-2022.676,820.249Z" transform="translate(2042.54 -695.323)"/><path class="s" d="M-1964.133,459.106a2.437,2.437,0,0,0-.86-2.541,5.059,5.059,0,0,1-1.685-2.254c-.067-.319-.072-.69-.319-.9-.5-.435-1.442.241-1.906-.238-.365-.377-.03-1.105-.4-1.481s-1.265-.161-1.361-.689c-.067-.365.4-.638.408-1.01.006-.352-.4-.583-.473-.927a.933.933,0,0,1,.389-.83,2.162,2.162,0,0,0,.643-.7.579.579,0,0,0-.322-.753,2.554,2.554,0,0,1,1.248-1.846c.29-.153.65,0,.907-.305.12-.143.165-.335.278-.482.305-.394.906-.3,1.4-.314s1.111-.469.847-.892l1.512.672a1.213,1.213,0,0,1,1.03-1.055,1.367,1.367,0,0,1,1.278.726c.471-.264.907-.753,1.472-.745.338,0,.594.467.9.463.263,0,.8-.437.9-.417.933.2.3.439.9,1.016.265.258.7-.014.942-.289s.623-.59.934-.39c.246.158.248.544.484.715.3.214.7-.055.957-.314s.636-.546.952-.359c.5.3.042,1.282.554,1.55.265.139.575-.047.87-.1.9-.148,1.18.884,1.375,1.5.092-.3.4-.545.691-.27a1.067,1.067,0,0,1,.25.725c.109,1.487,1.338.676,2.069,1.527a1.361,1.361,0,0,1,.143,1.524c-.058.1.483,1.783.5,2.08a5.652,5.652,0,0,1-.149,1.741,8.16,8.16,0,0,0-.394,1.647c-.036.858.592.9-.288,1.743-.787.752-.179,1.244-.25,2.088a2.863,2.863,0,0,1-1.961,2.429c-2.764.856-3.476-1.127-3.771-3.25a5.086,5.086,0,0,1-.049-.721c.01-2.256,1.563-3.764,1.792-6.123a4.283,4.283,0,0,0-2.733-4.569,6.135,6.135,0,0,0-3.936.465,10.671,10.671,0,0,1-7.087.825c-2.761-.547-2.759,2.673-4.484,3.691a5.245,5.245,0,0,1-.647-2.108Z" transform="translate(2000.084 -442.535)"/><path class="o" d="M-1947,468.367a8.215,8.215,0,0,0-.659-3.492,4.581,4.581,0,0,0-1.905-1.613,11.271,11.271,0,0,0-3-1.1c-1.719-.4-3.042.317-4.674.692a11.377,11.377,0,0,1-5.561.04,3.232,3.232,0,0,0-3.681,1.335c-.744,1.13-.763,3.091-.994,4.414a49.418,49.418,0,0,0-.636,5.369,49.713,49.713,0,0,0-.032,5.74c.089,1.694,0,3.957.661,5.536a10.982,10.982,0,0,0,4.227,4.573,6.272,6.272,0,0,0,3.1,1.419,6.256,6.256,0,0,0,2.817-.742l5.656-2.492a10.819,10.819,0,0,0,3.6-2.184c2.638-2.761.924-8.91.938-12.36C-1947.138,472.234-1946.95,470.223-1947,468.367Z" transform="translate(1998.013 -458.483)"/><path class="s" d="M-1947.226,476.563c-.572,2.935-3.65,4.561-6.383,5.774-3.73,1.655-6.821,2.858-10.58.766a8.672,8.672,0,0,1-3.83-4.413,11.812,11.812,0,0,1-.911-4.544,11.191,11.191,0,0,1,.218-1.655c.559.35.61,1.188,1.336,1.284a4.144,4.144,0,0,0,2.113-.625c.5-.289.936-.681,1.455-.931a3.784,3.784,0,0,1,2.552-.18c.959.245,1.717.879,2.627,1.184a9.267,9.267,0,0,0,3.109.564,4.123,4.123,0,0,0,3.018-1.538c.89-1.174.546-3.051.441-4.406-.252-3.26,2.211-5.988.95-9.288a4.791,4.791,0,0,0-4.642-3.173,3.815,3.815,0,0,1-.816.045.785.785,0,0,1-.652-.43c-.189-.47.307-.925.768-1.136,1.814-.83,3.506-.251,5.333.087,1.453.269,3.138,1.024,3.546,2.587.257.984.472,2.019.629,3.022a20.862,20.862,0,0,1,.593,3.934,1.6,1.6,0,0,1-.471,1.252c-.382.293-.928.229-1.372.418-2.662,1.132-.612,5.365.073,7.083C-1947.633,473.466-1946.964,475.217-1947.226,476.563Z" transform="translate(1998.607 -451.446)"/><path class="q" d="M-1819.149,665.926c-3.182,29.084-2.943,58.125-3.294,87.393-.02,1.649.055,3.3.08,4.945.029,1.908.251,5.493-1.8,6.471a6.671,6.671,0,0,1-2.883.433l-14.811.019c-.423,0-1.717.1-1.964-.288a1.308,1.308,0,0,1-.145-.669c-.085-2.37.012-4.691.014-7.055q0-6.374-.05-12.747-.295-35.381-2.333-70.718c-.97-15.52-2.5-31.884.078-47.256a.888.888,0,0,1,.348-.685.884.884,0,0,1,.694.045c4.585,1.611,9.288,2.859,13.891,4.482a63.73,63.73,0,0,1,8.208,3.49c2.166,1.125,6.628,2.987,7.648,5.357.994,2.309-.306,3.5-.89,5.684C-1818.147,651.513-1818.4,659.055-1819.149,665.926Z" transform="translate(1899.491 -592.272)"/><path class="i" d="M-1721.523,1244.716c.057.025.114.052.171.08a1.4,1.4,0,0,1,.716.648,1.655,1.655,0,0,1,.058.784,5.263,5.263,0,0,1-.389,2.073c-.27.462-1.174.364-1.664.36a70.131,70.131,0,0,1-9.888-.784c-1.165-.176-.873-1.655-1.01-2.646-.03-.22-.2-.761-.051-.918s.776-.1.988-.088c1.724.064,3.444.3,5.167.234,1.026-.041,2.045-.191,3.072-.212A6.639,6.639,0,0,1-1721.523,1244.716Z" transform="translate(1806.271 -1097.848)"/><path class="q" d="M-2065.8,660.143c-2.3,11.643-3,23.953-4.039,35.542a607.343,607.343,0,0,0-1.94,72.46q.151,4.9.339,9.8.09,2.389.184,4.778c.066,1.671.729,3.437-1.486,3.527-1.792.073-3.6,0-5.4,0h-4.771c-1.062,0-3.136.454-3.821-.721-.32-.548-.055-1.747-.04-2.377q.036-1.493.073-2.987.139-5.744.278-11.488.282-11.486.6-22.972c.432-15.305.952-30.609,1.686-45.9q.429-8.941.963-17.877c.321-5.331.945-10.51,1.451-15.814.181-1.9-.119-4.247.622-6.03a6.194,6.194,0,0,1,2.344-2.433c2.516-1.791,5.044-3.55,7.666-5.183a40.335,40.335,0,0,1,4.417-2.341c.759-.351,1.525-.686,2.3-1.014.092-.039,1.6-.683,1.548-.534A98.655,98.655,0,0,0-2065.8,660.143Z" transform="translate(2095.032 -610.944)"/><g transform="translate(53.375 32.186)"><path class="j" d="M-1837.525,619.238c4.219,6.795,4.36,15.06,2.741,22.68-.227,1.067-1.861.615-1.635-.451,1.526-7.184,1.407-14.969-2.57-21.374-.577-.929.889-1.781,1.464-.855Z" transform="translate(1839.121 -618.839)"/></g><g transform="translate(47.333 54.408)"><path class="j" d="M-1865.33,762.511c4.068,1.549,5.744-2.736,5.827-6.049a36.9,36.9,0,0,0-1.2-11.427c-.362-1.221-1.131-3.083-2.639-3.2-1.283-.1-2.3,1.616-2.894,2.53a30.654,30.654,0,0,0-2.343,4.055,46.522,46.522,0,0,0-1.927,5.681,11.738,11.738,0,0,0-.691,5.407,5.456,5.456,0,0,0,.675,1.95,1.615,1.615,0,0,0,1.792.785c.5-.055.583.736.116.858-3.247.851-3.816-4.255-3.543-6.333a37.823,37.823,0,0,1,1.905-7.259,27.717,27.717,0,0,1,2.827-5.55c.8-1.277,1.823-2.92,3.384-3.323,1.605-.414,3.109.878,3.848,2.182a16.949,16.949,0,0,1,1.553,5.429,43.438,43.438,0,0,1,.463,8.023c-.036,2.282-.457,4.751-2.111,6.454a4.679,4.679,0,0,1-5.474.8c-.572-.25-.161-1.241.428-1.016Z" transform="translate(1872.214 -740.559)"/></g><path class="j" d="M-1856.246,857.907a1.343,1.343,0,0,1-1.855-1.2,1.343,1.343,0,0,1,1.964-1.008,1.343,1.343,0,0,1-.109,2.2Z" transform="translate(1908.012 -780.134)"/><path class="j" d="M-1838.451,859.906a1.343,1.343,0,0,1-1.855-1.2,1.343,1.343,0,0,1,1.964-1.008,1.343,1.343,0,0,1-.109,2.2Z" transform="translate(1893.465 -781.768)"/><path class="j" d="M-1993.654,774.1a3.183,3.183,0,0,1,3.707.282,2.925,2.925,0,0,1-.241,4.3,3.023,3.023,0,0,1-4.254-.4A3,3,0,0,1-1993.654,774.1Z" transform="translate(2019.899 -713.189)"/><g transform="translate(26.385 36.829)"><path class="j" d="M-1980.642,644.877a23.547,23.547,0,0,0-4.784,11.379,31.917,31.917,0,0,0,.609,13.958.557.557,0,0,1-1.072.3,32.035,32.035,0,0,1-.46-14.509,23.98,23.98,0,0,1,5.216-11.616c.3-.34.774.152.492.492Z" transform="translate(1986.959 -644.27)"/></g><g transform="translate(30.228 10.024)"><g transform="translate(9.604 0.339)"><path class="ai" d="M-1910.287,499.791c-.569.063-1.133.167-1.7.234a2.141,2.141,0,0,1-1.237-.052.16.16,0,0,1,.014-.274,4.673,4.673,0,0,1,1.315-.184c.5-.069,1-.157,1.5-.216.32-.037.43.456.109.492Z" transform="translate(1913.297 -499.297)"/></g><g transform="translate(9.049 3.172)"><path class="ai" d="M-1912.1,517.414a1.04,1.04,0,0,0-.522-.867c-.277-.152-.529.118-.695.056-.62-.232-.79.946-.549,1.3a1.01,1.01,0,0,0,1.437.246A.873.873,0,0,0-1912.1,517.414Z" transform="translate(1914.404 -516.193)"/><path class="ai" d="M-1913.571,515.827a4.818,4.818,0,0,0-1.352-.491,1.9,1.9,0,0,0-.778.026,1.217,1.217,0,0,1-.423.055.239.239,0,0,1,.025-.477c.222.015.439-.117.66-.123a3.7,3.7,0,0,1,.708.074,5.221,5.221,0,0,1,1.306.494c.266.126.125.567-.146.44Z" transform="translate(1916.341 -514.818)"/></g><g transform="translate(0.683 3.338)"><path class="ai" d="M-1958.326,517.924a1.04,1.04,0,0,1,.608-.809c.291-.123.515.172.685.128a.346.346,0,0,1,.4.261.744.744,0,0,1,.021.3.772.772,0,0,1-.01.8.989.989,0,0,1-1.455.079A.872.872,0,0,1-1958.326,517.924Z" transform="translate(1959.035 -516.836)"/><path class="ai" d="M-1961.9,516.552a4.822,4.822,0,0,1,1.4-.349,1.908,1.908,0,0,1,.771.106,1.218,1.218,0,0,0,.415.1.239.239,0,0,0,.025-.477c-.223-.008-.425-.161-.645-.19a3.709,3.709,0,0,0-.712,0,5.225,5.225,0,0,0-1.349.357c-.277.1-.183.551.1.453Z" transform="translate(1962.168 -515.724)"/></g><path class="ai" d="M-1965.577,497.448a6.782,6.782,0,0,1,3.239,1.329,2.5,2.5,0,0,1,.523.874,7.118,7.118,0,0,1,.67,2.5,12.315,12.315,0,0,1-.031,2.829c-.077.406-.068.819-.126,1.227a1.824,1.824,0,0,0-.059,1.008,1.058,1.058,0,0,0,.689.524,2.51,2.51,0,0,0,1.677-.065.958.958,0,0,1,.307-.092.259.259,0,0,1,.262.148.255.255,0,0,1-.031.21.758.758,0,0,1-.571.289,5.044,5.044,0,0,1-1.727-.037,1.4,1.4,0,0,1-.842-.412c-.411-.5-.16-1.633-.1-2.234.036-.351.162-.685.2-1.038a15.756,15.756,0,0,0,0-2.24,7.192,7.192,0,0,0-.611-2.491c-.606-1.439-2.27-1.556-3.621-1.85C-1966.051,497.857-1965.891,497.378-1965.577,497.448Z" transform="translate(1965.907 -497.441)"/></g><path class="f" d="M-1762.139,698.584c.063-1.846-.028-4.017-1.547-5.068-1.457-1.008-3.581-.359-4.767.956a10.91,10.91,0,0,0-2.093,4.822,368.1,368.1,0,0,0-10.865,84.633c-.1,8.963,6.55,8,11.769,3.034,3.53-3.357,4.643-6.429,4.892-11.208.852-16.335,1.095-32.729,1.653-49.078Q-1762.619,712.629-1762.139,698.584Z" transform="translate(1845.322 -647.294)"/><g transform="translate(51.085 123.496)"><path class="x" d="M-1804.05,1143.117l-14.138-24.03a.174.174,0,0,0-.238-.061l-33.152,19.5a.174.174,0,0,0-.062.238l14.138,24.03a.174.174,0,0,0,.238.062l33.152-19.505A.173.173,0,0,0-1804.05,1143.117Z" transform="translate(1851.663 -1119.002)"/><rect class="e" width="11.9" height="3.149" rx="0.604" transform="translate(6.185 25.412) rotate(59.53)"/></g><path class="c" d="M-1757.161,1247.413a2.177,2.177,0,0,0,1.1.244c1.719.03,2.685-.809,4.168-1.286,1.276-.415,1.568.729,1.574,1.755a16.1,16.1,0,0,0-.019,1.778c.1.848.129,1.687.267,2.526.023.152.051.3.085.457a2.015,2.015,0,0,0,.3.784c.305.42,1.157.445,1.63.326a1.291,1.291,0,0,0,1.03-1.17c-.028.831,1.121,1.273,1.869.9a3.486,3.486,0,0,0,1.447-1.96,1.374,1.374,0,0,0,1.322.884c.774-.032,1.314-.987,1.49-1.653a1.109,1.109,0,0,0,1.525-.068,4.3,4.3,0,0,0,.848-2.259c.087-.432.159-.862.212-1.29a13.863,13.863,0,0,0,.108-2.407,12.276,12.276,0,0,0-.24-1.943,10.456,10.456,0,0,0-2.2-4.829,5.623,5.623,0,0,0-6.045-1.714,9.25,9.25,0,0,0-2.886,1.437,6.08,6.08,0,0,0-1.945,2.509,13.133,13.133,0,0,1-.782,1.38,11.43,11.43,0,0,1-4.4,3.814c-.384.189-.822.411-.926.827A.927.927,0,0,0-1757.161,1247.413Z" transform="translate(1825.899 -1091.332)"/><path class="k" d="M-1724.093,1240.438c.184-.015.366-.032.545-.049a16.431,16.431,0,0,1,8.014,1.316,17.048,17.048,0,0,1,3.539,2.066,11.556,11.556,0,0,1,1.221,1.208,12.263,12.263,0,0,0-.24-1.943,10.455,10.455,0,0,0-2.2-4.829,5.623,5.623,0,0,0-6.045-1.714,9.25,9.25,0,0,0-2.886,1.437A6.079,6.079,0,0,0-1724.093,1240.438Z" transform="translate(1798.467 -1091.332)"/><path class="q" d="M-1724.042,781.245c-.083,1.506-.2,3.011-.395,4.508-.088.691-.146,1.391-.283,2.074s-.109,1.4-.26,2.088a1.822,1.822,0,0,1-.345.822,1.368,1.368,0,0,1-.884.422,13,13,0,0,1-1.793-.024,70.985,70.985,0,0,1-9.871-.968c-1.161-.2-.848-1.65-.97-2.631-.425-3.435-.6-6.842-.843-10.312-1.052-15.129-2.51-30.741-2.07-45.955.351-12.188,1.134-25.591,4.6-37.271.86-2.9,1.718-8.241,6.087-6.88,3.363,1.048,3.988,5.847,4.286,8.737q2,19.377,2.738,38.847.749,19.591.236,39.2C-1723.871,776.334-1723.906,778.794-1724.042,781.245Z" transform="translate(1812.971 -642.289)"/><path class="i" d="M-1957.195,529.49a12.518,12.518,0,0,0-6.768-.723,15.215,15.215,0,0,0-3.637,1.558,4.1,4.1,0,0,0-1.547,1.183,6.857,6.857,0,0,0-.62,3.244,11.91,11.91,0,0,0,.33,3.387c.825,3.383,3.329,7.144,7.023,7.678a10.429,10.429,0,0,0,6.458-1.438,15.653,15.653,0,0,0,4.276-3.512c.579-.68,2.063-2.2,1.9-3.175-.081-.486-.695-1.1-.917-1.561a9.659,9.659,0,0,1-.717-2.038,9.274,9.274,0,0,0-.718-2.541c-.5-.887-1.154-.979-2.046-1.13A20.894,20.894,0,0,1-1957.195,529.49Z" transform="translate(1999.301 -512.849)"/><g transform="translate(47.438 20.714)"><path class="i" d="M-1867.471,556.26a36.753,36.753,0,0,1-2.39,3.583c-.351.48-.9,1.73-1.6,1.679a.178.178,0,0,1-.152-.264,24.456,24.456,0,0,1,1.774-2.172,35.062,35.062,0,0,0,2.066-3,.176.176,0,0,1,.3.177Z" transform="translate(1871.638 -555.997)"/></g><g transform="translate(45.548 15.323)"><path class="i" d="M-1877.274,526.818c-.785.912-1.534,1.876-2.4,2.709a7.136,7.136,0,0,1-2.014,1.722c-.261.095-.415-.3-.185-.44a12.107,12.107,0,0,0,2.205-1.925c.74-.749,1.416-1.562,2.114-2.349.172-.195.451.089.284.284Z" transform="translate(1881.99 -526.469)"/></g><path class="o" d="M-1857.352,516.673a2.443,2.443,0,0,0-2.251-1.406c-2.963.386-1.126,5.3-.332,6.861.9,1.766,2.49-.459,2.856-1.531A4.95,4.95,0,0,0-1857.352,516.673Z" transform="translate(1910.569 -501.978)"/></g></g></svg>