<svg xmlns="http://www.w3.org/2000/svg" width="168.479" height="35.993" viewBox="0 0 168.479 35.993"><defs><style>.a{fill:#fff;}</style></defs><g transform="translate(-77.513 -107.798)"><g transform="translate(107.946 115.825)"><path class="a" d="M148.066,127.115a7.017,7.017,0,0,0-3.976-1.236c-1.964,0-3.362.882-3.362,2.328,0,1.216,1.025,1.839,3.037,2.088l1.178.144c2.27.278,4.215,1.2,4.215,3.563,0,2.673-2.424,4.071-5.326,4.071a8.688,8.688,0,0,1-5.288-1.743l.919-1.341a7.163,7.163,0,0,0,4.368,1.484c2,0,3.573-.814,3.573-2.328,0-1.245-1.121-1.839-3.209-2.1l-1.245-.153c-2.213-.268-3.976-1.293-3.976-3.583,0-2.586,2.3-4.033,5.125-4.033a8.213,8.213,0,0,1,4.828,1.466Z" transform="translate(-138.544 -124.088)"/><path class="a" d="M173.733,126.264h-4.569v11.811h-1.686V126.264H162.9v-1.6h10.834Z" transform="translate(-150.755 -124.281)"/><path class="a" d="M187.065,147.982a1.307,1.307,0,1,1-1.3-1.3A1.34,1.34,0,0,1,187.065,147.982Z" transform="translate(-161.559 -135.318)"/><path class="a" d="M220.351,138.065h-1.686V126.522l-4.493,10.1h-1.782L207.9,126.6v11.467h-1.686V124.644h2.577l4.493,10.011,4.492-10.011h2.577Z" transform="translate(-172.47 -124.271)"/><path class="a" d="M243.912,138.075h-1.686V124.664h1.686Z" transform="translate(-190.526 -124.281)"/><path class="a" d="M264.186,127.038l-1.408.948a4.839,4.839,0,0,0-4.08-2.107,5.289,5.289,0,0,0,0,10.576,4.792,4.792,0,0,0,4.071-2.1l1.379,1.006a6.456,6.456,0,0,1-5.45,2.711,6.907,6.907,0,1,1,0-13.813A6.33,6.33,0,0,1,264.186,127.038Z" transform="translate(-195.302 -124.078)"/><path class="a" d="M284.344,130.526h7.913v-5.862h1.686v13.411h-1.686v-5.959h-7.913v5.959h-1.686V124.664h1.686Z" transform="translate(-210.797 -124.281)"/><path class="a" d="M322.807,138.075H321l-1.475-3.66h-6.5l-1.466,3.66H309.8l5.451-13.411h2.1Zm-9.149-5.259h5.221l-2.605-6.485Z" transform="translate(-224.404 -124.281)"/><path class="a" d="M349.9,138.075h-9.522V124.664H349.8v1.58h-7.74v4.282h7.491v1.59h-7.491v4.378H349.9Z" transform="translate(-239.735 -124.281)"/><path class="a" d="M375.733,138.075h-9.369V124.664h1.686v11.811h7.683Z" transform="translate(-252.763 -124.281)"/><path class="a" d="M387.285,123.895l-1.035,4.934H384.9l.556-4.934Z" transform="translate(-262.056 -123.895)"/><path class="a" d="M403.2,127.115a7.014,7.014,0,0,0-3.975-1.236c-1.964,0-3.362.882-3.362,2.328,0,1.216,1.025,1.839,3.036,2.088l1.179.144c2.27.278,4.215,1.2,4.215,3.563,0,2.673-2.423,4.071-5.326,4.071a8.689,8.689,0,0,1-5.288-1.743l.919-1.341a7.163,7.163,0,0,0,4.368,1.484c2,0,3.573-.814,3.573-2.328,0-1.245-1.12-1.839-3.209-2.1l-1.245-.153c-2.213-.268-3.976-1.293-3.976-3.583,0-2.586,2.3-4.033,5.125-4.033a8.211,8.211,0,0,1,4.828,1.466Z" transform="translate(-266.457 -124.088)"/></g><path class="a" d="M105.2,135.671v6.593c0,3.985,2.1,4.889,3.016,5.081.107.022.214.039.321.051a8.406,8.406,0,0,0,.828-2.054,1.922,1.922,0,0,1-.635.045c-.969-.186-1.548-1.521-1.548-3.571v-6.728l-.014-.008a7.726,7.726,0,0,0-2.227-5.443,6.746,6.746,0,0,0-1.934-1.288V130.6C104.166,131.4,105.2,132.891,105.2,135.671Z" transform="translate(-12.783 -10.303)"/><path class="a" d="M95.316,125.346v11.3c0,.114,0,.23,0,.346s.006.212.011.317v.023c.163,3.589,1.6,5.459,2.813,6.406.031.024.063.047.095.071l.032.024.007.005q.1.076.209.148h0a7.015,7.015,0,0,0,2.748.93,5.258,5.258,0,0,0,1.738-1.671l-.02,0c-.077.008-.153.016-.229.022l-.075.005c-.08.005-.16.01-.239.012h-.054c-.085,0-.17,0-.254,0h-.022a5.653,5.653,0,0,1-.828-.077h0a4.266,4.266,0,0,1-1.8-.973c-1.279-.945-2.017-2.647-2.133-4.921l0-.057,0-.036c0-.087-.006-.173-.008-.259v-.034c0-.1,0-.191,0-.285v-9.919a14.844,14.844,0,0,0-.626-4.989,6.9,6.9,0,0,0-.93-1.655l-.013-.017a6.757,6.757,0,0,0-2.6-2.03v2.241C94.284,121.073,95.316,122.565,95.316,125.346Z" transform="translate(-7.827 -5.132)"/><path class="a" d="M83.046,111.027a5.122,5.122,0,0,1,2.2,3.823l.086,3.306v15.052q0,.452.024.885a9.117,9.117,0,0,0,2.529,6.271,5.31,5.31,0,0,0,3.349,1.252,7.432,7.432,0,0,0,4.1-.788q-.164,0-.331,0h-.292l-.162,0-.079,0-.151-.007-.087,0-.144-.008-.091-.006-.141-.011-.094-.008-.138-.014-.1-.011-.136-.016-.1-.013-.135-.019-.1-.016-.134-.022-.1-.018-.132-.025-.1-.021-.132-.028-.1-.023-.13-.032-.1-.026L92,140.454l-.1-.029-.128-.039-.1-.032-.127-.043-.1-.034-.126-.048-.1-.037-.125-.052-.093-.04-.125-.057L90.79,140c-.042-.02-.083-.041-.124-.062l-.087-.045-.125-.069-.083-.047c-.042-.024-.084-.05-.126-.076l-.078-.048c-.043-.027-.086-.056-.128-.085l-.071-.047c-.045-.031-.09-.064-.134-.1l-.06-.044c-.051-.039-.1-.079-.152-.121l-.036-.029c-.063-.052-.124-.105-.185-.16-1.385-1.257-2.087-3.228-2.087-5.861V116.162a10.846,10.846,0,0,0-.92-4.255,6.775,6.775,0,0,0-.516-.845.761.761,0,0,1-.057-.079,6.758,6.758,0,0,0-2.774-2.174Z" transform="translate(-2.774 -0.507)"/><path class="a" d="M99.415,133.139a9.761,9.761,0,0,0-4.257-7.869v2.58a7.787,7.787,0,0,1,2.276,5.346,6.465,6.465,0,0,1-.044.93c0,.02,0,.04,0,.06l-.026.24c-.007.08-.019.16-.033.238l-.039.237c-.035.156-.065.314-.108.468a8.95,8.95,0,0,1-.686,1.782,9.1,9.1,0,0,1-2.38,2.952,7.819,7.819,0,0,1-1.622,1.007,7.463,7.463,0,0,1-1.821.57,8.091,8.091,0,0,1-1.106.116h0q-.4.014-.793-.01a10.811,10.811,0,0,1-8.65-5.65,8.928,8.928,0,0,1-.625-3.289V108.014a7.091,7.091,0,0,0-.814-.2.991.991,0,0,0-1.168.975v24.061a10.9,10.9,0,0,0,.774,4.043l.018.043A12.349,12.349,0,0,0,89,143.782h.108a10.939,10.939,0,0,0,5.264-1.713h0a10.952,10.952,0,0,0,2.931-2.758v0a10.824,10.824,0,0,0,1.811-3.916c.005-.011.011-.023.016-.035A6.537,6.537,0,0,0,99.415,133.139Z" transform="translate(0 0)"/><path class="a" d="M322.558,163.906a4.007,4.007,0,1,0,4.008,4.007A4.007,4.007,0,0,0,322.558,163.906Zm0,7.057a3.05,3.05,0,1,1,3.051-3.05A3.05,3.05,0,0,1,322.558,170.963Z" transform="translate(-120.846 -28.13)"/><path class="a" d="M355.593,163.906a4.007,4.007,0,1,0,4.008,4.007A4.007,4.007,0,0,0,355.593,163.906Zm0,7.057a3.05,3.05,0,1,1,3.051-3.05A3.05,3.05,0,0,1,355.593,170.963Z" transform="translate(-137.409 -28.13)"/><path class="a" d="M403.323,163.906a4.007,4.007,0,1,0,4.007,4.007A4.007,4.007,0,0,0,403.323,163.906Zm0,7.057a3.05,3.05,0,1,1,3.05-3.05A3.05,3.05,0,0,1,403.323,170.963Z" transform="translate(-161.338 -28.13)"/><path class="a" d="M218.342,167.59h-4.453v-3.4h-1v7.682h1v-3.4h4.453v3.4h1v-7.682h-1Z" transform="translate(-67.87 -28.275)"/><path class="a" d="M288.764,164.195v3.4H284.31v-3.4h-1v7.682h1v-3.4h4.453v3.4h1v-7.682Z" transform="translate(-103.177 -28.275)"/><path class="a" d="M246.69,164.2h-1l-3.106,7.682h1l.848-2.1h3.7l.848,2.1h1l-3.106-7.682Zm-1.9,4.694,1.488-3.681,1.488,3.681Z" transform="translate(-82.759 -28.275)"/><path class="a" d="M230.039,164.195h-.356v7.682h5.406v-.891h-4.4v-2.505h4.227v-.891h-4.227v-2.505h4.4v-.891h-5.049Z" transform="translate(-76.292 -28.275)"/><path class="a" d="M260.567,164.195h-1v7.682h5.406v-.891h-4.4Z" transform="translate(-91.273 -28.275)"/><path class="a" d="M271.355,164.195h-2.607v.891h2.607v6.792h1v-6.792h2.584v-.891h-3.586Z" transform="translate(-95.877 -28.275)"/><path class="a" d="M179.676,171.877h1v-6.792h2.584v-.891h-6.193v.891h2.607Z" transform="translate(-49.913 -28.275)"/><rect class="a" width="1.002" height="7.682" transform="translate(125.166 135.92)"/><path class="a" d="M194.272,167.825l-2.39-3.63h-1.113l3,4.561v3.122h1v-1.6h0v-1.522l3-4.561h-1.113Z" transform="translate(-56.781 -28.275)"/><path class="a" d="M161.745,171.744h0l.1.133h.9v-7.682h-1v6.022l-4.46-5.808h0l-.164-.213h-.838v7.682h1V165.94Z" transform="translate(-39.492 -28.275)"/><path class="a" d="M142.979,172a3.065,3.065,0,0,0,3.195-2.916V164.2h-1v4.891h-.006a2.206,2.206,0,0,1-4.374,0h-.006V164.2h-1v4.891A3.065,3.065,0,0,0,142.979,172Z" transform="translate(-31.221 -28.275)"/><path class="a" d="M341.681,168.59h0a2.214,2.214,0,0,0,0-4.41h-3.859V171.9h.968V168.59h.936l2.655,3.313h1.174L340.9,168.59Zm-2.891-.912v-2.59h2.891a1.337,1.337,0,0,1,1.138,1.3,1.283,1.283,0,0,1-1.15,1.292Z" transform="translate(-130.507 -28.268)"/><path class="a" d="M307.992,164.181h-2.666v.954h2.666V171.9h.968v-6.769h2.666v-.954h-3.634Z" transform="translate(-114.216 -28.268)"/><path class="a" d="M388.938,164.181h-2.666v.954h2.666V171.9h.968v-6.769h2.666v-.954h-3.634Z" transform="translate(-154.799 -28.268)"/><path class="a" d="M376.434,170.222l-4.676-6.041h-.891V171.9h.968v-6.033l4.6,5.941h0l.071.092h.9v-7.723h-.968Z" transform="translate(-147.075 -28.268)"/></g></svg>