<svg xmlns="http://www.w3.org/2000/svg" width="58.081" height="51.354" viewBox="0 0 58.081 51.354"><defs><style>.a{fill:#e5bbbb;}</style></defs><g transform="translate(2275.41 3144.341)"><g transform="translate(-2275.41 -3144.341)"><path class="a" d="M-2222.076-3105.911h-48.587a4.751,4.751,0,0,1-4.747-4.744V-3139.6a4.751,4.751,0,0,1,4.747-4.744h48.587a4.751,4.751,0,0,1,4.747,4.744v28.942A4.751,4.751,0,0,1-2222.076-3105.911Zm-48.587-36.191a2.538,2.538,0,0,0-2.5,2.5v28.942a2.538,2.538,0,0,0,2.5,2.505h48.587a2.538,2.538,0,0,0,2.505-2.505V-3139.6a2.538,2.538,0,0,0-2.505-2.5Z" transform="translate(2275.41 3144.341)"/><path class="a" d="M-2202.356-2864.566h-42.257a4.241,4.241,0,0,1-4.286-4.286v-9.757a1.119,1.119,0,0,1,1.121-1.12h48.587a1.119,1.119,0,0,1,1.121,1.12v9.757A4.29,4.29,0,0,1-2202.356-2864.566Zm-44.3-12.923v8.637a2,2,0,0,0,2.044,2.046h42.257a2.047,2.047,0,0,0,2.044-2.046v-8.637Z" transform="translate(2252.525 2915.919)"/><path class="a" d="M-2163.945-2842.5a3.425,3.425,0,0,1-3.494-3.427,3.465,3.465,0,0,1,3.494-3.427,3.474,3.474,0,0,1,3.428,3.427A3.432,3.432,0,0,1-2163.945-2842.5Zm0-4.615a1.239,1.239,0,0,0-1.252,1.188,1.2,1.2,0,0,0,1.252,1.188,1.175,1.175,0,0,0,1.187-1.188A1.219,1.219,0,0,0-2163.945-2847.117Z" transform="translate(2182.206 2889.701)"/><path class="a" d="M-2097.006-2842.5a3.431,3.431,0,0,1-3.428-3.427,3.474,3.474,0,0,1,3.428-3.427,3.432,3.432,0,0,1,3.428,3.427A3.391,3.391,0,0,1-2097.006-2842.5Zm0-4.615a1.219,1.219,0,0,0-1.187,1.188,1.175,1.175,0,0,0,1.187,1.188,1.136,1.136,0,0,0,1.187-1.188A1.175,1.175,0,0,0-2097.006-2847.117Z" transform="translate(2124.365 2889.701)"/><path class="a" d="M-1985.228-2829.282h-1.781a1.119,1.119,0,0,1-1.121-1.12,1.119,1.119,0,0,1,1.121-1.12h1.781a1.119,1.119,0,0,1,1.121,1.12A1.119,1.119,0,0,1-1985.228-2829.282Z" transform="translate(2027.421 2874.305)"/><path class="a" d="M-2030.6-2829.282h-1.715a1.119,1.119,0,0,1-1.121-1.12,1.119,1.119,0,0,1,1.121-1.12h1.715a1.119,1.119,0,0,1,1.121,1.12A1.119,1.119,0,0,1-2030.6-2829.282Z" transform="translate(2066.532 2874.305)"/><path class="a" d="M-1939.5-2829.282h-1.715a1.119,1.119,0,0,1-1.121-1.12,1.119,1.119,0,0,1,1.121-1.12h1.715a1.119,1.119,0,0,1,1.121,1.12A1.119,1.119,0,0,1-1939.5-2829.282Z" transform="translate(1987.893 2874.305)"/><path class="a" d="M-2209.912-2829.282h-1.715a1.119,1.119,0,0,1-1.121-1.12,1.119,1.119,0,0,1,1.121-1.12h1.715a1.119,1.119,0,0,1,1.121,1.12A1.119,1.119,0,0,1-2209.912-2829.282Z" transform="translate(2221.318 2874.305)"/></g><path class="a" d="M-2150.732-3066.365a1.122,1.122,0,0,1-.6-.173c-.473-.3-11.617-7.371-12.956-13.361a8.952,8.952,0,0,1-.356-2.486,8.4,8.4,0,0,1,4.332-7.307,8.354,8.354,0,0,1,9.592,1.094,8.47,8.47,0,0,1,9.629-1.094h0a8.4,8.4,0,0,1,4.332,7.307,7.258,7.258,0,0,1-.475,2.657c-1.215,5.817-12.43,12.894-12.906,13.192A1.124,1.124,0,0,1-2150.732-3066.365Zm-5.537-22.151a5.941,5.941,0,0,0-2.945.779,6.159,6.159,0,0,0-3.186,5.352,6.9,6.9,0,0,0,.281,1.92c.905,4.036,8.037,9.438,11.389,11.646,3.367-2.206,10.524-7.6,11.362-11.557a5.629,5.629,0,0,0,.37-2.01,6.157,6.157,0,0,0-3.183-5.35.006.006,0,0,0,0,0,6.194,6.194,0,0,0-7.7,1.475.953.953,0,0,1-.857.383,1.121,1.121,0,0,1-.847-.4A6.1,6.1,0,0,0-2156.27-3088.516Z" transform="translate(-95.618 -46.281)"/></g></svg>