<svg xmlns="http://www.w3.org/2000/svg" width="24" height="24" viewBox="0 0 24 24"><defs><style>.a{fill:#fff;}</style></defs><path class="a" d="M10.007,41.113l5.1,2.9-5.1,2.9ZM24,34.571V53.429A2.572,2.572,0,0,1,21.429,56H2.571A2.572,2.572,0,0,1,0,53.429V34.571A2.572,2.572,0,0,1,2.571,32H21.429A2.572,2.572,0,0,1,24,34.571Zm-2.25,9.445a25.741,25.741,0,0,0-.407-4.725,2.445,2.445,0,0,0-1.725-1.736C18.1,37.143,12,37.143,12,37.143s-6.1,0-7.618.413a2.445,2.445,0,0,0-1.725,1.736,27.621,27.621,0,0,0,0,9.45A2.41,2.41,0,0,0,4.382,50.45c1.516.407,7.618.407,7.618.407s6.1,0,7.618-.413a2.41,2.41,0,0,0,1.725-1.709,25.662,25.662,0,0,0,.407-4.72Z" transform="translate(0 -32)"/></svg>