<?xml version="1.0" encoding="utf-8"?>
<!-- Generator: Adobe Illustrator 24.2.3, SVG Export Plug-In . SVG Version: 6.00 Build 0)  -->
<svg version="1.1" id="Layer_1" xmlns="http://www.w3.org/2000/svg" xmlns:xlink="http://www.w3.org/1999/xlink" x="0px" y="0px"
	 viewBox="0 0 1400 1005" style="enable-background:new 0 0 1400 1005;" xml:space="preserve">
<style type="text/css">
	.st0{clip-path:url(#SVGID_2_);fill:#F9F9F9;}
	.st1{clip-path:url(#SVGID_2_);}
	.st2{fill:#F2E9E9;}
	.st3{fill:#FAC6BA;}
	.st4{fill:#F6955D;}
	.st5{fill:#F36D80;}
	.st6{fill:#272C4D;}
	.st7{fill:#7B84AF;}
	.st8{opacity:0.49;}
	.st9{fill:#606060;}
	.st10{opacity:0.48;}
	.st11{fill:#FDD9D6;}
	.st12{opacity:0.62;fill:#FFFFFF;enable-background:new    ;}
	.st13{clip-path:url(#SVGID_4_);}
	.st14{opacity:0.32;fill:#EA6F0B;enable-background:new    ;}
	.st15{opacity:0.18;}
	.st16{fill:#E5BBBB;}
</style>
<g>
	<g>
		<defs>
			<rect id="SVGID_1_" width="1400" height="1005"/>
		</defs>
		<clipPath id="SVGID_2_">
			<use xlink:href="#SVGID_1_"  style="overflow:visible;"/>
		</clipPath>
		<rect class="st0" width="1400.3" height="383"/>
		<g transform="translate(0 -3127)" class="st1">
			<g transform="translate(3328.173 -1023.943)">
				<g transform="translate(-3429.536 4166.906)">
					<path class="st2" d="M1501.4,0L1501.4,0c-332.5,0-346.8,61.2-397.9,114.6c-48.9,56.8-127.5,131.5-180.9,171.6
						c-132.1,98.9-227.5-80.2-360-32.4c-30,10.8-53.2,34.5-78.2,54.3c-43.9,34.8-157.7,84.4-179.5-1.9c-4.3-17.2-1.5-35.7-6.2-52.8
						c-7.7-27.9-37.4-49.6-66.3-42.8c-13,3-23.6,7.8-37.3,9c-18.5,1.6-36.3,3.4-50.7,16.7c-17.5,16.1-21.8,41.6-29.8,64
						C96.1,352.3,53.9,393,32.7,444.1C11.8,494.5,13.1,552,27.2,604.7c12.1,45.3,38.4,83.4,53.3,127.2c0.8,2.4,1.6,4.9,2.4,7.2
						C106.7,811,152,868.6,187.7,934.9c21.3,39.6,42.1,80.4,67.3,118h1246.4V0z"/>
					<g transform="translate(0 276.823)">
						<path class="st3" d="M113.4,3.6c2.9,32.9-13.5,66.3-35.2,90C66.9,106,54,117.2,43.8,130.6c-9.3,12.4-16.7,26.1-21.8,40.7
							c-10.4,29-13.2,60.3-10.1,90.8c3.3,32,14,61.8,28.3,90.5c9,18.2,19,35.9,28.8,53.6c5,9,9.9,18.1,14.6,27.3
							c4.6,8.9,9.5,18,12,27.7c1.2,4.8-5.2,7.4-7.9,3.3c-5-7.5-8.5-15.9-12.6-24c-4.2-8.4-8.7-16.6-13.2-24.8
							c-8.7-15.9-17.6-31.7-26-47.7C20.8,338.9,8.1,308.8,3,276.2c-4.7-30.4-4.1-62,3.8-91.9c3.9-14.9,9.8-29.2,17.4-42.5
							c8.2-14.1,18.8-26.1,30.4-37.5c13.8-13.6,27.5-27,36.7-44.3c9.5-17.8,12.8-36.5,14.6-56.4c0.1-2,1.8-3.6,3.8-3.6
							C111.8,0.1,113.3,1.6,113.4,3.6L113.4,3.6z"/>
					</g>
					<path class="st4" d="M192.9,390.4c0.6-1.9,1.3-3.9,1.9-5.8c7.2-21.1,12.7-45.5,9.7-67.9c-3.1-23.4-21.1-22-36.8-10
						c-13.4,10.2-22,28.3-31.3,42c-8.1,11.9-16.3,23.9-20.9,37.6c-6.6,19.6-8.1,56.2,8.6,71.8c6.7,6.3,19.6,9.9,27.8,13.9
						c15.2,7.4,32.3,9.5,48,15.6c10.2,3.9,25.5,11.6,27.5-5.3c1.4-11.6-12.6-19.8-19.9-26.6c-11.6-10.8-20.6-19.3-20.5-36.6
						C187.2,409.2,189.8,399.7,192.9,390.4z"/>
					<path class="st4" d="M264.8,329.8c-0.1,0.7-0.3,1.5-0.4,2.2c-1.8,8.6-10.6,2.3-15.9,4.7c-2.2,1-2.7,3.9-2.6,6.3
						c0.1,1.6,0.3,3.5-0.3,5c-0.8,2-2.5,2.4-3.6,4.1c-2.1,3.1-0.2,6.4-4.9,7.5c-1.8,0.4-3.7,0.5-5,1.8c-1.5,1.4-1.6,3.6-1.8,5.5
						c-0.8,10.9-11.5,5.7-18,4.2c-5.7-1.4-11.2-3.8-16.2-7c-4.4-2.8-6.7-9-8.8-13.6c-3.9-8.9-6.4-18.3-7.2-27.9
						c-0.7-8.2-3.6-15.3-3.4-23.6c0.6-24.4,14-48.8,35.7-60c0.7-0.3,1.3-0.7,2-1c16.6-7.7,40-8,55.3,3c6,4.3,6.2,10.9,6,17.8
						c-0.4,11.2-3.8,21.9-7.1,32.6C264.7,303.9,267,316.9,264.8,329.8z"/>
					<g transform="translate(200.492 303.211)">
						<path class="st5" d="M8.7,0.4C14.6-1.2,21.3,2.2,24,7.7c4.6,9.6-2.5,17.1-12.4,15.7c-4.9-0.7-9.7-4-11.1-8.7
							C-1.4,8.8,2.7,2,8.7,0.4z"/>
					</g>
					<path class="st6" d="M239.6,295.4c-0.4-0.6-0.9-1.2-1.5-1.6c-0.6-0.4-1.5-0.3-2,0.3c-0.3,0.5-0.3,1.2-0.1,1.8
						c1.9,6.1,7.1,10.7,13.4,11.8c1.4,0.2,4.6,0.2,4.6-1.9c0-1.5-3.3-1.8-4.4-2.2C245.6,301.8,242.1,299,239.6,295.4z"/>
					<g transform="translate(188.21 202.718)">
						<path class="st2" d="M3.9,0c26.8,2.2,54.8,7,78.3,20.7c10.1,5.8,19.1,13.5,26.4,22.6c7.9,10.2,12,21.9,15.3,34.3
							c6.6,24.8,18.4,47.9,44.9,55.4c12.2,3.5,25.1,3.7,37.7,4c14.2,0.3,28.5,0.6,42.7-1c13.9-1.4,27.3-5.5,39.6-11.9
							c11.6-6.2,22.4-14,33.7-20.8c21.9-13,46.3-21,71.6-23.5c25.4-2.6,51,0.5,75,9.1c25.3,9.2,47.9,24.1,69.9,39.5
							c26,18.2,52.2,35.8,79.8,51.4c13.7,7.7,27.6,15,41.7,21.9c14.6,7.1,30,13,44.2,21c4.2,2.3,1.4,9-3.2,7.7
							c-13.7-3.9-26.6-10.3-39.4-16.4c-12.5-5.9-24.8-12.2-37-18.8c-24.8-13.5-48.9-28.3-72.1-44.3c-22.2-15.4-43.9-31.8-68.2-43.8
							c-23.4-11.8-49.2-17.8-75.4-17.6c-25.8,0.2-51.2,6.6-74.1,18.6c-23.5,12.5-43.6,30-70.2,35.9c-13.4,2.9-27.2,3.7-40.9,3.7
							c-13.3,0-26.8,0-40-1.5c-12.1-1.3-24.3-4-34.8-10.4c-10.3-6.2-18.5-15.6-24.3-26c-7-12.5-9.5-26.3-13.8-39.8
							c-4.2-13-12.1-24.4-22.8-32.9C64.1,17.2,32.4,13.8,2.8,7.8C-1.5,6.9-0.6-0.4,3.9,0L3.9,0z"/>
					</g>
					<path class="st7" d="M366.2,842.5c-11.5,14.2-8.1,31.2-5.2,49.2c1.9,12,3.7,23.9,5.3,36c5.1,38.8,12.3,82,14.6,125.2H61.3
						c-5-28.3-6.7-57-5.1-85.6c3.7-72.1,17.1-162.8,59.6-221.5c17.9-24.7,34-61.4,19.7-91.2c-9.8-20.3-23.8-40-34.2-60.6
						c-13.8-27.3-24.9-56.3-28.4-86.7S74.1,445,90,418.9c15-24.6,46.6-22.7,70.4-11c20.6,10.2,36.3,26.4,56.1,37.6
						c18.8,10.7,39.4,17.8,58.3,28.5c22.6,12.8,43.8,37.7,40.3,65.3c-4.6,35.9-24.4,61.7,13.7,83.4c29.9,17,58.3,36.5,70.8,70.1
						c13.3,35.7,12,76.4-4.2,110.9C387.9,819.7,376.8,829.4,366.2,842.5z"/>
					<path class="st4" d="M333.3,906.1c0.9,0.5,1.9,0.5,2.8,0c1.7-1.1-2.2-10.5-2.7-11.9c-0.9-2.8-2.8-5.2-3.7-8
						c-0.6-2.2-1.4-4-0.8-6.3c3.9,0.2,6.4,6.5,8.6,9c2.8,3.6,6,6.8,9.6,9.6c2,1.5,4.1,2.9,6.6,3c1.1,0.1,2.2-0.2,3.2-0.8
						c0.7-0.4,0.9-1.5,1.4-1.8c1.5-1,2.2,0.9,3.6,1.3c1.8,0.5,3.6,0,4.9-1.3c2.2-2.3,2.1-6.1,0.9-9.1s-3.3-5.5-4.9-8.3
						c-0.5-0.9-3.5-8.1-1.2-7.8c1.1,0.1,2.1,3.5,3,4.3c1.7,1.4,4.7,1.6,6-0.3c0.9-1.2,0.7-2.9,0.5-4.3c-2.3-15.1-11.8-28-21.7-39.7
						c-34-40.4-76.8-75.5-97-124.3c-2.9-7-5.3-14.3-9.8-20.4s-11.5-11-19-10.6c-7.2,0.4-13.2,5.3-18.7,10
						c-6.1,5.3-12.3,10.6-18.4,15.8c-2,1.7-4.2,3.8-4.3,6.5c0.1,1.8,0.7,3.5,1.7,5c17.1,30,40.7,55.9,69.1,75.5
						c13.2,9.1,32.7,19.1,37.4,35.7c5.5,19,12.8,36.9,23.4,53.7C316.2,884.5,326.8,903.3,333.3,906.1z"/>
					<g transform="translate(348.348 852.711)" class="st8">
						<path class="st9" d="M4.9,4c-1.3,0.5-2.8,1.1-4,0l1.3,0.5c-0.5,0-1.1-0.1-1.6-0.4C0,3.8-0.2,2.9,0.2,2.3
							c0.3-0.5,0.7-0.9,1.1-1.1L0.5,2.2c0.3-1.5,2.1-1.9,3.4-2.2C4.9-0.2,6,0.4,6.3,1.5C6.6,2.6,6,3.7,4.9,4L4.9,4z"/>
					</g>
					<g transform="translate(340.222 862.583)" class="st8">
						<path class="st9" d="M3.7,1c0.9,1.4,2.3,4.5,0,5.4C1.5,7.2,0.4,4.2,0.1,2.5c-0.2-1,0.2-2,1.2-2.4C2.1-0.2,3.2,0.1,3.7,1L3.7,1
							z"/>
					</g>
					<path class="st4" d="M324.1,587.9c-1.2-1.1-2.4-2.1-3.8-3.1c-1.8-1.2-3.6-3-5.6-3.9c-5.9-2.6-14.4-1.4-20.5-0.1
						c-5.9,1.2-12.4,3.1-17.8,6c-2,1.1-3.1,2.3-5.4,2.7c-2.4,0.5-10.5-0.6-11.8,1.9c-1.2,2.4,3.9,7.2,5.6,8.3
						c2.1,1.4,4.6,2.1,7.1,1.9c1.9-0.2,3.7-1.3,5.6-1.8c1.7-0.4,3.4-1,5.2-1.5c2.9-0.7,1.9,0.5,0.1,1.6
						c-11.8,6.9-20.7,17.6-28.6,28.6c-0.7,0.7-1,1.7-1,2.7c0.2,1.1,1.1,1.8,2.2,2c1.1,0.1,2.1,0,3.1-0.4c5.9-1.8,10.8-5.6,15.9-8.9
						c1.5-1,5.3-3.6,4.1-0.1c-0.8,2.2-3.8,3.8-5.4,5.4c-3.4,3.5-7.5,6.3-11,9.6c-2.3,2.1-7.5,7.9-6.3,11.4c1.1,3.1,6.9,2,9,0.9
						c0.6-0.4,1.3-0.7,1.9-1c0.7-0.2,1.5,0,2,0.5c0.3,0.5,0.3,1.2,0.1,1.8c-0.3,0.9-0.6,1.9-0.8,2.9c-0.4,3.9,6.9,2.8,9.2,1.8
						c6.6-2.9,12.7-5.9,18.2-10.6c0.9-0.8,9.8-9.1,10.9-7.6c0.9,1.2-2.3,6.1-3,7.2c-1.4,2.3-9.9,10.4-6.7,13.4
						c0.7,0.5,1.7,0.6,2.5,0.3c7.3-1.4,11-5.4,15.6-10.8c4.6-5.4,8.7-11.2,12.4-17.3c1.5-2.5,3.1-5.2,4.5-7.7
						c1.9-3.3,1.9-7.2,3.3-10.6c3.3-7.9-2.9-16.1-7.6-22.1C326.4,590.2,325.3,589,324.1,587.9z"/>
					<g transform="translate(167.189 529.26)" class="st10">
						<path class="st9" d="M56.1,134.8c-4.6-3.7-7.1-8.4-10-13.5c-3.2-5.5-6.4-11.1-9.4-16.7c-6-10.9-11.7-22-16.9-33.4
							C14.9,60.5,10.6,49.5,7,38.3c-1.9-6-3.6-12.1-4.9-18.3C0.9,14.2-0.5,8.1,0.2,2.2c0.2-1.8,3-3.3,4-1.1c2.2,5.2,3,10.8,4.3,16.2
							c1.4,5.9,3,11.7,4.7,17.4c3.7,11.8,8.1,23.4,13.2,34.7c4.9,10.8,10.3,21.4,15.8,31.9c2.9,5.4,5.8,10.7,8.8,16.1
							c3,5.4,6.1,10.2,7,16.3c0.1,0.6-0.2,1.2-0.8,1.4C56.8,135.2,56.4,135.1,56.1,134.8L56.1,134.8z"/>
					</g>
					<g transform="translate(293.942 623.609)" class="st8">
						<path class="st11" d="M5.5,2.8c-1,1.1-3.6,3.9-5.1,2C-1.1,2.9,2.1,1,3.5,0.2c0.8-0.4,1.8-0.1,2.2,0.7C6.1,1.5,6,2.3,5.5,2.8
							L5.5,2.8z"/>
					</g>
					<g transform="translate(283.43 615.614)" class="st8">
						<path class="st4" d="M5.5,2.8c-1,1.1-3.6,3.9-5.1,2C-1.1,2.9,2.1,1,3.5,0.2c0.8-0.4,1.8-0.1,2.2,0.7C6.1,1.5,6,2.3,5.5,2.8
							L5.5,2.8z"/>
					</g>
					<path class="st2" d="M270.7,248.3c0.2,2.7-3.6,6.9-5.1,9.1c-2.2,3.1-4.6,6.1-7.2,8.9c-5.2,5.6-11.2,10.3-17.9,14
						c-7,3.8-14.7,6.4-22.6,7.5c-6.9,1-13.9,0.9-20.8-0.3c-9.9-1.9-13.7-11-21.1-0.6c-5.5,7.7-7,18.1-8.4,27.2
						c-7.4,45.2-10.8,89.8,24.2,124.3c6.1,6,12.5,9,17,16.5c5.6,9.1,9.8,19,12.4,29.4c2.8,11.5,5,23.4,11.3,33.4
						c9.2,14.6,36.7,19,27.9,42.4c-2.6,7.1-9.5,13-17.3,13.2c10.8-6.3-5.5-19-11.6-21.6c-6.2-2.6-12.9-3.9-18.7-7.4
						c-14.3-8.8-18-28.9-23.8-43.4c-7.5-19.1-11-36-26.5-51c-16.7-16.3-48.4-34.4-68-13.7c-8.5,9.1-12.7,21.9-15.7,34.5
						c-2.8,12.2-5.7,25.6-5.8,38.2c-0.2,11.8,3.7,21.9,4.1,33.9c0.1,2.6-0.7,6-3.1,6.1c-1.2,0-2.1-0.9-2.9-1.8
						c-17.6-18.7-25.7-45.7-28.8-72.3c-1.2-10.4-1.7-21-0.1-31.4s5.6-20.5,12.3-27.9c2.3-2.6,5.3-5,6.5-8.4c1.1-3,0.1-4.9-0.1-7.9
						c-0.7-7.2,4.4-14.7,7.6-20.6c7.7-14,17.3-27.1,22.3-42.6c8.4-26,2.8-55,8.2-81.9c8.1-40.4,42-71.8,79.5-77.9
						s76.5,11.4,102.2,41.8c8.6,10.1,15.9,21.8,19.5,35c2.8,10.1,2.9,20.8,0.1,30.9c-0.7,2.5-1.7,4.9-2.8,7.3
						c-0.9,1.9-1.1,4.1-2.2,5.9c-2.9,4.9-10.5,7.9-15.7,5c-5.5-3.1-11.8-6-16.3-10.5c-1.8-1.8-3.5-4-3.4-6.5c0.1-2.9,2.4-5,3.3-7.6
						c0.9-2.7,1.7-5.5,2.6-8.3C268,262,269.6,255.2,270.7,248.3z"/>
					<path class="st4" d="M181.7,264c-0.2-0.2-0.5-0.4-0.8-0.6c-4.1-2.8-9.1-5.1-13.7-1.7c-6.1,4.5-6.3,16.5-5.6,23.2
						c0.3,4.3,1.9,8.3,4.6,11.6c0.9,1.1,2,1.9,3.3,2.3c1.9,0.6,7.3,0.8,8.9-0.5c1.1-1.1,1.9-2.5,2.3-4c1.8-5.7,4.6-11.4,4.6-17.6
						C185.2,271.8,185.2,267.1,181.7,264z"/>
				</g>
			</g>
			<path class="st12" d="M1113.3,3400.7c9.6-3.4,20-3.4,30.1-3.3c-10.6-17.2-1-43.3,18.3-49.4s42.2,9.6,43.5,29.8
				c9.7-14.1,28.9-20.8,45.2-15.7s28.4,21.5,28.3,38.6c30.7-15.8,73.2-0.6,86.9,31.1c7.3-3.2,15.3-6.5,23.1-4.9
				c7.8,1.6,14.5,10.7,10.6,17.7c-3.2,5.8-11,6.7-17.6,7l-178.5,7c-26.2,1-72.7,7.5-96-8.2C1087.5,3437,1089.2,3409.3,1113.3,3400.7
				z"/>
			<g>
				<defs>
					<path id="SVGID_3_" d="M1400,3143L1400,3143c-332.5,0-346.8,61.2-397.9,114.6c-48.9,56.8-127.5,131.5-180.9,171.6
						c-132.1,98.9-227.5-80.2-360-32.4c-30,10.8-53.2,34.5-78.2,54.3c-43.9,34.8-157.7,84.4-179.5-1.9c-4.3-17.2-1.5-35.7-6.2-52.8
						c-7.7-27.9-37.4-49.6-66.3-42.8c-13,3-23.6,7.8-37.3,9c-18.5,1.6-36.3,3.4-50.7,16.7c-17.5,16.1-21.8,41.6-29.8,64
						c-18.6,52.1-60.9,92.8-82.1,143.9c-20.9,50.4-19.6,107.9-5.5,160.6c12.1,45.3,38.4,83.4,53.3,127.2c0.8,2.4,1.6,4.9,2.4,7.2
						c23.8,71.9,69.1,129.6,104.8,195.9c21.3,39.6,42.1,80.4,67.3,118H1400V3143z"/>
				</defs>
				<clipPath id="SVGID_4_">
					<use xlink:href="#SVGID_3_"  style="overflow:visible;"/>
				</clipPath>
				<g class="st13">
					<path class="st14" d="M924.6,3318.8c-20.4,47.6-5.6,107.8,34.4,140.6s102,35.3,144.6,6.1s62.5-87.9,46.5-137.1
						C1115.9,3223.1,968.1,3217.5,924.6,3318.8z"/>
				</g>
			</g>
			<g transform="translate(4403.147 10835.521)" class="st15">
				<g transform="matrix(-0.799, -0.602, 0.602, -0.799, -3353.571, -6664.284)">
					<path class="st16" d="M39.3,28.6l-2.7-10.2c4.9-5.8,10.3-11,16.9-14.7l2.4,5.5l2.5-7.8c2.8-1.1,5.7-1.5,8.7-1.4
						c4.2,0.3,8.8,6,10.6,9.8c2.1,4.5,0.9,12.3-1.3,16.9c-1,2.2-2.2,4.2-3.6,6.2l-9,1.3l5.1,3.2c-3.4,3.5-7.2,5.9-11.3,9.1
						c-0.2,0.2-0.4,0.3-0.6,0.5l-5.2-3.9l2.4,5.6C39.9,56.6,5.3,63.8,0,62.7c8.5-9.1,10.7-11.6,20.9-24.1c3.3-4,6.3-8.3,9.5-12.4
						L39.3,28.6z"/>
					<g transform="translate(0 0.004)">
						<path class="st16" d="M45.9,36.3c0,0.1,0.1,0.2,0.2,0.2c-0.8,0.6-1.7,1.1-2.5,1.6c-0.2,0-0.4,0-0.6,0.1c0,0,0,0-0.1,0
							c1-0.7,2-1.3,3.1-2C45.9,36.2,45.9,36.3,45.9,36.3z"/>
						<path class="st16" d="M46.2,36.3c0-0.1,0.1-0.3,0.1-0.4c2.1-1.4,4.1-2.9,6.2-4.4l0,0c0,0.1,0,0.2,0.1,0.2c0,0,0.1,0,0.1,0
							c-0.9,0.7-1.8,1.4-2.7,2c-0.1,0-0.3,0-0.4,0c-0.1,0-0.1,0.1-0.1,0.2c0,0,0,0.1,0.1,0.1C48.4,34.9,47.3,35.6,46.2,36.3
							C46.2,36.4,46.2,36.3,46.2,36.3z"/>
						<path class="st16" d="M39.2,40.5c1.2-0.7,2.5-1.5,3.7-2.3c-0.1,0.1-0.1,0.2,0,0.2c0,0,0.1,0.1,0.1,0.1c-1.1,0.7-2.1,1.4-3.2,2
							c-0.2,0.1-0.4,0.3-0.6,0.4C39.2,40.8,39.2,40.6,39.2,40.5z"/>
						<path class="st16" d="M52.9,31.2c0.5-0.4,1-0.8,1.5-1.2c4-3.1,7.7-6.5,11.3-10.1c0,0.2,0.3,0.2,0.3,0c0-0.1,0-0.2,0-0.3
							c0.9-0.9,1.8-1.9,2.7-2.8c0.8-0.9,1.7-1.8,2.5-2.7c0,0.1,0,0.2,0.1,0.2c0,0,0.1,0,0.1,0h0.1c-0.3,0.3-0.6,0.7-0.9,1
							c-3.2,3.6-6.6,7-10.2,10.2h-0.2c-0.1,0-0.2,0.1-0.2,0.2c0,0,0,0.1,0,0.1c-1.1,1-2.2,2-3.4,2.9c-1.3,1-2.5,2.1-3.8,3
							c0,0,0,0,0,0C52.8,31.5,52.9,31.3,52.9,31.2z"/>
						<path class="st16" d="M33.4,44.1c0-0.1,0-0.1,0-0.2c1.3-0.7,2.6-1.5,3.8-2.2c0.5-0.3,1.1-0.6,1.6-1c0,0.1,0,0.1,0,0.2
							c0,0.1,0,0.1,0.1,0.2c0,0,0,0,0,0c-0.4,0.2-0.7,0.4-1.1,0.6l-0.3,0c-0.1,0-0.2,0.1-0.2,0.1c0,0,0,0.1,0,0.1
							c-3,1.8-6,3.5-9,5.1c-0.1,0-0.3,0-0.4,0c-0.1,0-0.1,0.1-0.1,0.2c0,0,0,0.1,0,0.1c-2.2,1.2-4.5,2.5-6.7,3.7
							c-2.6,1.4-5.2,2.9-7.8,4.4l-0.4,0c-0.1,0-0.2,0-0.2,0.1c0,0.1,0,0.1,0.1,0.2l-4,2.3c-0.1,0-0.2,0-0.3-0.1
							c-0.2,0-0.2,0.2-0.1,0.3c-1.5,0.9-3.1,1.7-4.6,2.6c-0.1,0-0.3-0.1-0.4-0.1c0,0,0,0,0,0c0.9-0.5,1.7-1,2.6-1.5
							c0,0.2,0.3,0.2,0.3,0c0-0.1,0-0.1,0.1-0.2c2.5-1.4,4.9-2.8,7.3-4.2c0,0.1,0,0.2,0.1,0.2c0.1,0,0.2,0,0.2-0.1
							c0-0.1,0-0.2,0-0.2c1.5-0.8,2.9-1.7,4.4-2.5c1.2-0.7,2.4-1.3,3.6-2c0,0.1,0.2,0.1,0.2,0.1c0,0,0.1-0.1,0.1-0.1
							c0,0,0-0.1,0-0.1C26,48,29.5,46.1,33,44.1C33,44.3,33.3,44.3,33.4,44.1z"/>
						<path class="st16" d="M3.4,61L3.4,61c-0.4,0.3-0.8,0.5-1.3,0.8c-0.6,0.3-1.2,0.7-1.8,1c-0.1,0-0.2,0-0.3-0.1l0.3-0.3
							c1-0.6,2-1.1,3-1.7C3.2,60.8,3.3,60.9,3.4,61C3.3,61,3.4,61,3.4,61z"/>
						<path class="st16" d="M71.3,13.9C71.3,13.9,71.2,13.9,71.3,13.9c1.7-2,3.4-4.1,5.1-6.3c0.1,0.1,0.1,0.2,0.2,0.3
							c-1.6,2-3.2,4-4.9,6L71.3,13.9z"/>
						<path class="st16" d="M66.3,7L66,19.6c0,0.1,0,0.2,0,0.3c0,0.2-0.3,0.2-0.3,0c0,0,0,0,0-0.1c0.1-4.2,0.1-8.4,0.2-12.7
							c0-2,0.1-4.1,0.1-6.1c0-0.3,0-0.7,0-1c0.1,0,0.2,0,0.3,0c0,0.3,0,0.5,0,0.8C66.4,2.9,66.3,4.9,66.3,7z"/>
						<path class="st16" d="M52.9,31.2c0,0.2-0.1,0.3-0.1,0.5c0,0,0,0,0,0c0,0-0.1,0.1-0.1,0.1c-0.1,0-0.2,0-0.2-0.1
							c0,0,0-0.1,0-0.1l0,0c2.1-7.2,3.2-14.6,3.3-22.1c0-0.2,0-0.3,0-0.5l0.1,0.2l0.2-0.8c-0.1,5.9-0.8,11.7-1.9,17.4
							C53.9,27.6,53.4,29.4,52.9,31.2z"/>
						<path class="st16" d="M46.3,35.9c0,0.1-0.1,0.3-0.1,0.4c0,0,0,0,0,0c0,0.1-0.1,0.1-0.1,0.1c-0.1,0-0.2,0-0.2-0.2
							c0,0,0-0.1,0-0.1c0.8-4.3,1.2-8.7,1.1-13.1c0-4.5-0.1-9.1-0.4-13.6c0-0.4-0.1-0.7-0.1-1.1l0.3-0.2c0.6,6.9,0.7,13.9,0.4,20.8
							C47.1,31.3,46.8,33.6,46.3,35.9z"/>
						<path class="st16" d="M39.1,40.9c0,0.1-0.1,0.1-0.2,0.1c-0.1,0-0.1-0.1-0.1-0.1c0,0,0,0,0,0c0-0.1,0-0.1,0-0.2
							c0.9-4,0.4-8.2,0-12.2c0,0,0,0,0-0.1l0.3,0.1c0.4,4,0.9,8,0.1,12C39.2,40.6,39.2,40.8,39.1,40.9z"/>
						<path class="st16" d="M33.4,43.9c0,0.1,0,0.1,0,0.2c0,0.2-0.3,0.2-0.3,0c0.9-5.8,0.6-11.7-0.8-17.4l0.3,0.1
							c0.9,3.8,1.3,7.8,1.3,11.7C33.8,40.3,33.7,42.1,33.4,43.9z"/>
						<path class="st16" d="M22.4,50.1c0,0.1-0.1,0.1-0.2,0.1c0,0-0.1,0-0.1-0.1c0,0,0-0.1,0-0.1c0.9-4.4,1-8.8,0.3-13.2l0.3-0.3
							c0.8,4.5,0.7,9-0.2,13.5C22.4,50,22.4,50,22.4,50.1z"/>
						<path class="st16" d="M14,54.8c0,0.1-0.1,0.1-0.2,0.1c-0.1,0-0.1-0.1-0.1-0.2c0.3-2.4,0.2-4.8-0.3-7.1l0.3-0.3
							c0.5,2.4,0.6,4.8,0.3,7.2C14,54.7,14,54.8,14,54.8z"/>
						<path class="st16" d="M6.3,59.2c0,0.2-0.3,0.2-0.3,0c0,0,0,0,0,0c0.3-1.1,0.4-2.2,0.3-3.3l0.3-0.3c0.1,1.1,0.1,2.3-0.2,3.4
							C6.4,59.1,6.3,59.1,6.3,59.2z"/>
						<path class="st16" d="M49.6,34.1c0,0-0.1,0-0.1,0c-0.1,0-0.1-0.1-0.1-0.2c0,0,0.1-0.1,0.1-0.1c0.1,0,0.3,0,0.4,0
							c4.6-0.4,9.3-0.2,13.9,0.5l-0.1,0l0.6,0.4C59.5,33.9,54.5,33.7,49.6,34.1z"/>
						<path class="st16" d="M60,25.7c-0.1-0.1,0-0.2,0-0.2c0,0,0.1,0,0.1,0h0.2L77,25.2c0,0.1-0.1,0.2-0.1,0.3L60,25.7
							C60.1,25.8,60,25.8,60,25.7z"/>
						<path class="st16" d="M71.3,14.2c-0.1,0-0.2-0.1-0.2-0.1c0,0,0-0.1,0-0.1c0,0,0,0,0-0.1c0,0,0,0,0.1,0l0.4,0
							c2.3-0.2,4.6-0.5,6.8-0.9c0,0.1,0,0.2,0,0.3C76.2,13.7,73.8,14,71.3,14.2L71.3,14.2z"/>
						<path class="st16" d="M37.5,41.9C37.5,41.9,37.5,41.9,37.5,41.9c-0.2-0.1-0.2-0.2-0.1-0.3c0,0,0.1-0.1,0.1,0l0.3,0l13.9,1.7
							l0.1,0.3c0,0-0.1,0-0.1,0L37.5,41.9z"/>
						<path class="st16" d="M52,43.5l-0.2-0.1h0C51.9,43.3,52,43.4,52,43.5z"/>
						<path class="st16" d="M43,38.5c-0.1,0-0.2,0-0.2-0.1c0-0.1,0-0.1,0.1-0.2c0,0,0,0,0.1,0c0.2,0,0.4,0,0.6-0.1
							c7.2-0.6,14.4,0,21.4,1.7c0.4,0.1,0.7,0.2,1.1,0.3l-0.3,0.2c-5.5-1.4-11.1-2.1-16.8-2.1C47,38.2,45,38.3,43,38.5z"/>
						<path class="st16" d="M38.7,48.8c-1.7-0.5-3.4-0.8-5.1-1.1c-1.9-0.3-3.7-0.4-5.6-0.3c0,0-0.1,0-0.1-0.1
							c-0.1-0.1-0.1-0.1,0-0.2c0,0,0.1,0,0.1,0c0.1,0,0.3,0,0.4,0c1.5,0,2.9,0.1,4.4,0.2c1.7,0.2,3.3,0.5,4.9,0.9
							c3.6,0.9,7.1,1.8,10.7,2.7l1,0.2l-0.5,0.2l-5-1.3L38.7,48.8z"/>
						<path class="st16" d="M12.9,55.6C12.9,55.6,12.9,55.6,12.9,55.6c-0.1,0-0.2-0.1-0.1-0.2c0-0.1,0.1-0.1,0.2-0.1l0.4,0
							c4,0.4,8.1,0.7,12.1,1.4c1.4,0.2,2.9,0.5,4.3,0.9L29,57.8c-1.3-0.3-2.6-0.6-3.9-0.8C21.1,56.4,17,56.1,12.9,55.6z"/>
						<path class="st16" d="M8.5,58.2C8.5,58.2,8.5,58.2,8.5,58.2c-0.2-0.1-0.1-0.3,0-0.3c0.1,0,0.2,0,0.3,0.1
							c2.9,0.6,5.7,1.4,8.5,2.6l-0.5,0.1C14.1,59.5,11.3,58.7,8.5,58.2z"/>
						<path class="st16" d="M3.4,61c-0.1,0-0.1-0.1-0.1-0.2c0,0,0,0,0-0.1c0,0,0.1-0.1,0.1-0.1c0,0,0,0,0,0c0.1,0,0.3,0.1,0.4,0.1
							c1.6,0.3,3.2,0.8,4.7,1.3l-0.6,0.1C6.5,61.7,5,61.3,3.4,61L3.4,61z"/>
					</g>
				</g>
				<g transform="translate(-3287.105 -6809.696)">
					<g transform="translate(0)">
						<g transform="translate(48.188 42.923)">
							<path class="st16" d="M220.7,78.7C220.7,78.7,220.7,78.7,220.7,78.7c0.1-0.5-0.1-0.9-0.4-0.9C167.8,71.1,69.4,52,0.9,0.1
								c-0.3-0.2-0.6,0-0.8,0.4C-0.1,0.8,0,1.3,0.2,1.6C68.9,53.6,167.4,72.7,220,79.5C220.3,79.5,220.6,79.2,220.7,78.7z"/>
						</g>
						<path class="st16" d="M38.9,80.2c5.6-3.1,11.2-6.1,16.7-9.8c2.9-2,5.6-4.2,8.4-6.5c0.8-0.7,2.9-3,4.4-4.4
							c0.2-0.2,0.5-0.4,0.8-0.6c0,0,0,0,0.1,0c0.2-0.2,0.4-0.3,0.7-0.3c-0.4,0-0.9-0.1-1.3-0.1c0,0-0.1,0-0.1,0c-0.3,0-0.5,0-0.8,0
							c-11.6-0.2-23,2.5-33.3,7.7c-1.4,0.7-2.7,1.4-4,2.2c-2.2,1.3-3.9,3.4-4.8,5.7c-0.2,0.4-0.3,0.8-0.4,1.3
							c-0.1,0.5-0.2,0.9-0.3,1.4c-0.4,1.8-0.1,3.7,0.8,5.3C28.2,85.7,35.5,82,38.9,80.2z"/>
						<path class="st16" d="M62.7,98.2c5.3-4.3,10.7-8.6,15.9-13.6c2.7-2.6,5.3-5.4,7.8-8.3c0.8-0.9,2.7-3.8,4.1-5.5c0,0,0,0,0,0
							c0.3-0.5,0.8-0.9,1.3-1.2c0,0,0,0,0,0c0,0,0,0,0,0c-0.4,0.1-0.8,0.1-1.2,0.2c-0.4,0.1-0.9,0.2-1.3,0.3c0,0,0,0,0,0
							c-0.2,0-0.4,0.1-0.6,0.1C77,73.2,66,78.5,56.5,85.8c-1.3,1-2.6,2-3.9,3.1c-1.9,1.6-3.3,3.7-4.1,6.1c-0.1,0.2-0.1,0.4-0.2,0.6
							c-0.1,0.3-0.2,0.6-0.2,0.9c-0.5,2.6-0.1,5.4,1.2,6.7C52.4,106.2,59.4,100.8,62.7,98.2z"/>
						<path class="st16" d="M90.3,110c5.1-4.1,10.2-8.2,15.1-12.9c2.6-2.5,5-5.2,7.5-7.9c0.8-0.9,3-4.2,4.3-5.7
							c0.1-0.1,0.1-0.1,0.1-0.1c0.1-0.2,0.3-0.3,0.5-0.4c0.1-0.1,0.1-0.1,0.2-0.1c-0.1,0-0.1,0-0.2,0c-0.5,0.1-0.9,0.2-1.4,0.3
							c0,0,0,0,0,0c-1.2,0.2-2.4,0.5-3.6,0.9c-10.3,2.9-20,7.7-28.4,14.2c-1.3,1-2.5,1.9-3.7,3c-1.9,1.7-3.4,3.9-4.1,6.4
							c-0.1,0.5-0.2,1-0.3,1.5c-0.1,0.5-0.1,1-0.1,1.5c-0.1,1.5,0.4,3.1,1.3,4.3C80.5,117.5,87.2,112.5,90.3,110z"/>
						<path class="st16" d="M115.2,113.6c4.4-3.6,8.8-7.1,13.1-11.2c2.2-2.1,4.3-4.5,6.5-6.9c0.5-0.6,1.7-2.4,2.8-3.7
							c0.1-0.1,0.2-0.2,0.2-0.3c0,0,0,0,0,0c0.3-0.4,0.6-0.7,1-1.1c0.1-0.1,0.2-0.1,0.2-0.2c0,0,0,0,0,0c0.1,0,0.1-0.1,0.2-0.1
							c-0.1,0-0.2,0-0.3,0.1c0,0-0.1,0-0.1,0c-0.1,0-0.2,0-0.3,0c-0.2,0-0.3,0.1-0.5,0.1c-0.7,0.1-1.5,0.3-2.2,0.5c0,0,0,0-0.1,0
							c-9.3,2.4-18,6.7-25.7,12.5c-1.1,0.8-2.1,1.7-3.2,2.6c-1.7,1.5-2.9,3.4-3.5,5.5c-0.4,1.3-0.4,2.7-0.2,4
							c0.1,0.4,0.2,0.7,0.3,1.1c0.2,0.4,0.4,0.8,0.7,1.2C106.8,120.1,112.5,115.8,115.2,113.6z"/>
						<path class="st16" d="M137.7,121.3c4.4-3.6,8.8-7.1,13.1-11.2c2.2-2.1,4.3-4.4,6.4-6.9c0.6-0.6,1.9-2.6,3-4c0,0,0,0,0-0.1
							s0.1-0.1,0.1-0.1c0.3-0.4,0.6-0.7,1-1.1c0.1,0,0.1-0.1,0.2-0.1c0,0,0,0,0.1,0c0,0,0.1-0.1,0.1-0.1c-0.1,0-0.1,0-0.2,0
							c0,0-0.1,0-0.1,0c0,0-0.1,0-0.1,0c-0.6,0.1-1.2,0.2-1.8,0.4c-0.4,0.1-0.8,0.2-1.2,0.3c0,0-0.1,0-0.1,0
							c-9.2,2.4-17.9,6.7-25.4,12.5c-1.1,0.8-2.1,1.7-3.2,2.6c-1.7,1.5-2.9,3.4-3.5,5.5c0,0,0,0.1,0,0.1c-0.1,0.5-0.2,1-0.3,1.5
							c-0.2,1.9,0.2,3.7,1.1,4.6C129.2,127.8,135,123.4,137.7,121.3z"/>
						<path class="st16" d="M161.1,124.9c3.8-3.1,7.7-6.2,11.4-9.8c1.9-1.9,3.8-3.9,5.6-6c0.5-0.6,1.9-2.6,2.9-3.8
							c0,0,0-0.1,0.1-0.1c0.1-0.1,0.1-0.1,0.2-0.2c0.2-0.2,0.4-0.4,0.6-0.6c0.1,0,0.1-0.1,0.2-0.1l-0.2,0c-0.7,0.1-1.5,0.3-2.2,0.5
							l-0.2,0c-0.1,0-0.2,0-0.3,0.1c-8.2,2.1-15.8,5.8-22.6,11c-0.9,0.7-1.9,1.5-2.8,2.2c-1.5,1.3-2.5,2.9-3.1,4.8
							c-0.1,0.3-0.2,0.6-0.2,0.9c-0.1,0.5-0.1,0.9-0.1,1.4c-0.1,1.1,0.3,2.3,1,3.1C153.8,130.6,158.8,126.8,161.1,124.9z"/>
						<path class="st16" d="M179.1,129.2c3.8-3.1,7.7-6.2,11.4-9.8c1.9-1.9,3.8-3.9,5.6-6c0.5-0.6,1.7-2.3,2.7-3.6
							c0,0,0-0.1,0.1-0.1c0.5-0.6,0.9-1.1,1.2-1.1c-0.2,0-0.5,0.1-0.7,0.1c-0.8,0.2-1.6,0.3-2.4,0.5l-0.2,0.1
							c-8,2.1-15.5,5.8-22.1,10.9c-0.9,0.7-1.9,1.5-2.8,2.2c-1.5,1.3-2.5,2.9-3.1,4.8c-0.1,0.5-0.2,1-0.3,1.6c0,0.4,0,0.9,0,1.3
							c0,0.9,0.4,1.8,1,2.5C171.7,134.9,176.8,131,179.1,129.2z"/>
						<path class="st16" d="M201.7,131.3c3.3-2.7,6.7-5.4,9.9-8.5c1.7-1.6,3.3-3.4,4.9-5.2c0.4-0.5,1.4-2,2.3-3
							c0.1-0.1,0.1-0.2,0.2-0.3c0,0,0.1-0.1,0.1-0.1c0.3-0.4,0.6-0.7,0.8-0.7c-0.7,0.1-1.4,0.3-2.1,0.4l-0.3,0.1
							c-0.1,0-0.1,0-0.2,0.1c-7,1.8-13.6,5.1-19.4,9.5c-0.8,0.6-1.6,1.3-2.4,1.9c-1.3,1.1-2.2,2.5-2.7,4.2c-0.1,0.3-0.2,0.6-0.2,0.9
							c-0.1,0.5-0.1,0.9-0.1,1.4c0,0.9,0.3,1.7,0.9,2.4C195.3,136.2,199.7,132.9,201.7,131.3z"/>
						<path class="st16" d="M225.2,131.9c2.6-2.1,5.3-4.3,7.9-6.7c1.3-1.3,2.6-2.7,3.9-4.1c0.3-0.3,0.9-1.3,1.5-2.1
							c0.2-0.3,0.5-0.6,0.7-0.8c0,0,0.1-0.1,0.1-0.1c0.1-0.1,0.2-0.2,0.4-0.3c-0.3,0.1-0.6,0.1-0.9,0.2c-0.1,0-0.2,0-0.4,0.1
							c-0.3,0.1-0.7,0.1-1,0.2c-5.5,1.5-10.7,4-15.2,7.5c-0.6,0.5-1.3,1-1.9,1.5c-1,0.9-1.7,2-2.1,3.3c0,0,0,0,0,0.1
							c-0.1,0.5-0.2,1-0.2,1.5c-0.1,0.8,0.2,1.6,0.7,2.2C220.1,135.8,223.6,133.2,225.2,131.9z"/>
						<path class="st16" d="M244.8,130.6c2-1.7,4.1-3.3,6.1-5.2c1-1,2-2.1,3-3.2c0.2-0.2,0.6-0.7,0.9-1.3c0.1-0.1,0.1-0.2,0.2-0.2
							l0.1-0.1c0.4-0.5,0.7-0.8,0.8-0.9c-0.7,0.1-1.5,0.3-2.2,0.5c-0.1,0-0.3,0.1-0.4,0.1c-0.1,0-0.2,0.1-0.3,0.1
							c-3.8,1.2-7.4,3-10.5,5.4c-0.5,0.4-1,0.8-1.5,1.2c-0.8,0.7-1.3,1.6-1.6,2.5c0,0,0,0.1,0,0.1c-0.1,0.5-0.2,0.9-0.1,1.4
							c0,0.5,0.2,1,0.5,1.3C240.9,133.6,243.5,131.6,244.8,130.6z"/>
						<path class="st16" d="M24.3,41.5c0.5,0.1,1,0.2,1.5,0.3c4.5,0.7,9,1.4,13.5,2.1c1.8,0.3,5.9,0.2,9,0.6c0.1,0,0.3,0,0.4,0.1
							c1.2,0.1,2.3,0.5,3.3,1.3c-0.6-0.6-1.2-1.3-1.8-1.9c-0.1-0.2-0.3-0.3-0.4-0.5c-9-9.6-17.6-19.5-27.6-27.8
							c-3.2-2.7-6.6-5.2-10.6-5.8c-4.4-0.6-8.7,1.8-10.6,5.9c-0.2,0.5-0.4,1-0.5,1.5c-0.1,0.4-0.2,0.8-0.3,1.2
							c-0.7,4.9,2,10,5.2,13.3C10.5,36.9,17.1,40.3,24.3,41.5z"/>
						<path class="st16" d="M67.5,56.5c-0.6-0.5-1.2-1.2-1.8-1.8l-0.2-0.2c-0.5-0.6-0.9-1.3-1.4-2c-4-6.7-6.2-17.7-8.1-25.4
							c-2.3-9.5-4.6-14.9-9.3-22c-1.6-2.4-3.4-4.7-5.7-5c-1.6-0.3-3.6,0.8-4.8,2.7c-0.2,0.3-0.4,0.7-0.6,1.1c-0.3,0.6-0.5,1.3-0.6,2
							c-0.4,2.8,0.6,5.1,1.6,7.1c7.2,14.3,15.4,28.8,25.6,38.9c0.5,0.5,1,1,1.5,1.5c0.1,0.1,0.2,0.2,0.4,0.3
							C65.2,54.6,66.4,55.6,67.5,56.5z"/>
						<path class="st16" d="M84.3,65.7c0.3,0.3,0.5,0.7,0.8,1c-0.2-0.3-0.4-0.6-0.6-0.9c0,0,0,0,0-0.1c-1.1-1.8-2-3.7-2.7-5.8
							c-2.5-7.7-3.4-18.3-4.3-26c-1.2-10.2-2.8-16.2-6.5-24.6c-1.2-2.8-2.7-5.6-4.9-6.5c-1.2-0.5-2.6-0.3-3.7,0.5
							c-0.3,0.2-0.6,0.4-0.8,0.7c-0.9,0.9-1.5,2-1.8,3.2c-0.7,2.7,0,5.3,0.8,7.6C66,31.8,72.5,49.3,81.7,62.2
							C82.5,63.4,83.4,64.5,84.3,65.7C84.3,65.6,84.3,65.7,84.3,65.7z"/>
						<path class="st16" d="M85.2,66.8c0,0-0.1-0.1-0.1-0.1C85.2,66.7,85.2,66.7,85.2,66.8z"/>
						<path class="st16" d="M107.1,78.6c-0.5-0.7-1-1.4-1.4-2.1c-4.1-7.5-5.1-21.2-6.2-30.5c-1.2-10.2-2.8-16.2-6.5-24.6
							c-1.3-2.8-2.7-5.6-4.9-6.5c-1.3-0.5-2.7-0.3-3.8,0.6c-0.2,0.2-0.5,0.3-0.7,0.5c-0.9,0.9-1.6,2-1.9,3.2c-0.7,2.7,0,5.3,0.8,7.6
							c5.2,15.8,11.3,32.1,19.5,44.8c1.1,1.6,2.2,3.2,3.3,4.7c0.1,0.2,0.3,0.4,0.4,0.6C106.1,77.4,106.6,78,107.1,78.6z"/>
						<path class="st16" d="M127.6,87.4c-0.5-0.6-0.9-1.3-1.3-2c0,0,0,0,0,0c-2.9-5.7-3.6-15.6-4.4-22.4c-0.9-7.6-2.1-12.1-4.9-18.4
							c-0.9-2.1-2-4.2-3.7-4.9c-1-0.4-2.2-0.2-3,0.6c-0.3,0.2-0.5,0.5-0.8,0.7c-0.5,0.6-0.8,1.2-1,1.9c-0.4,1.9-0.2,3.9,0.6,5.7
							c4,12,8.6,24.5,14.9,34c0.6,0.9,1.2,1.7,1.8,2.5c0,0,0,0,0,0c0,0.1,0.1,0.1,0.1,0.2C126.5,86.1,127.1,86.8,127.6,87.4z"/>
						<path class="st16" d="M146.1,94.2c-0.1-0.1-0.2-0.3-0.3-0.4c-0.3-0.4-0.6-0.9-0.8-1.4c0,0,0,0,0-0.1c-0.9-1.9-1.6-3.8-2.1-5.9
							c-1.3-5.4-1.9-11.8-2.4-16.6c-0.9-7.6-2.1-12.1-4.9-18.4c-0.9-2.1-2-4.2-3.7-4.9c-1.4-0.4-2.9,0.1-3.8,1.3
							c-0.2,0.3-0.5,0.6-0.6,1c-0.2,0.3-0.3,0.7-0.4,1c-0.4,1.9-0.2,3.9,0.6,5.7c4.3,13.1,9.4,26.6,16.6,36.3
							c0.1,0.1,0.2,0.2,0.3,0.4c0,0,0,0,0.1,0.1c0.4,0.5,0.8,1,1.2,1.5C145.9,93.9,146,94.1,146.1,94.2z"/>
						<path class="st16" d="M168.3,101.6C168.2,101.6,168.2,101.6,168.3,101.6c-0.2-0.3-0.4-0.5-0.6-0.8c-0.3-0.4-0.5-0.8-0.7-1.3
							c0,0,0-0.1,0-0.1c-0.3-0.6-0.5-1.1-0.7-1.7c-1.6-4.6-2.1-11.1-2.6-15.7c-0.4-5.1-1.8-10.1-3.9-14.8c-0.8-1.7-1.6-3.3-3-3.9
							s-3.3,0.5-3.8,2.6c0,0.1,0,0.1,0,0.2c-0.2,0.8-0.2,1.7,0,2.6c0.1,0.6,0.3,1.2,0.5,1.8c2.3,7.5,5.3,14.9,8.8,22
							c1.2,2.4,2.7,4.7,4.2,6.9c0,0,0,0.1,0.1,0.1c0.4,0.5,0.7,1,1.1,1.4C167.8,101.1,168,101.4,168.3,101.6
							C168.2,101.6,168.2,101.6,168.3,101.6z"/>
						<path class="st16" d="M190.2,106.5c-0.2-0.2-0.3-0.4-0.5-0.6c0,0-0.1-0.1-0.1-0.1c-2.1-3.4-2.6-10.2-3.2-14.7
							c-0.3-4-1.4-7.9-3.1-11.5c-0.6-1.3-1.3-2.6-2.3-3.1c-1-0.3-2,0.1-2.5,1c-0.2,0.3-0.4,0.6-0.4,1c-0.1,0.2-0.1,0.5-0.1,0.7
							c0,1,0.1,1.9,0.5,2.9c1.3,3.9,2.7,7.9,4.3,11.6c0,0,0,0,0,0.1c1.6,3.9,3.6,7.6,6,11c0.3,0.3,0.5,0.7,0.8,1
							c0,0,0.1,0.1,0.1,0.1C189.9,106.1,190.1,106.3,190.2,106.5z"/>
						<path class="st16" d="M208.5,110.3l0.1,0.1C208.6,110.4,208.6,110.3,208.5,110.3c-0.1-0.1-0.2-0.2-0.2-0.4
							c-0.5-0.8-0.8-1.6-1-2.4c-0.7-3-1.2-6-1.4-9c-0.3-3.1-1.1-6.1-2.4-9c-0.3-1-0.9-1.8-1.8-2.4c-0.3-0.1-0.7-0.1-1.1,0
							c-0.3,0.1-0.6,0.4-0.8,0.6c-0.2,0.3-0.4,0.6-0.4,0.9c-0.2,0.9-0.1,1.9,0.3,2.8c1.6,5.2,3.7,10.2,6.3,15
							c0.7,1.3,1.6,2.5,2.5,3.7C208.4,110.1,208.5,110.2,208.5,110.3z"/>
						<path class="st16" d="M208.6,110.4C208.7,110.4,208.7,110.5,208.6,110.4C208.7,110.5,208.7,110.4,208.6,110.4z"/>
						<path class="st16" d="M227.2,114.5c-0.1-0.1-0.1-0.1-0.2-0.2c0,0-0.1-0.1-0.1-0.1c-1-1.5-1.6-4-2-6.6
							c-0.3-1.8-0.4-3.6-0.6-5.1c-0.3-3.1-1.1-6.1-2.4-9c-0.3-1-0.9-1.8-1.8-2.4c-0.1,0-0.2-0.1-0.3-0.1c-0.3,0-0.6,0-0.9,0.2
							c-0.6,0.3-1,0.9-1.1,1.5c-0.2,0.9-0.1,1.9,0.3,2.8c2,6.1,4.3,12.3,7.6,17c0.4,0.6,0.8,1.1,1.2,1.6c0,0.1,0.1,0.1,0.1,0.2
							C227,114.3,227.1,114.4,227.2,114.5z"/>
						<path class="st16" d="M245.6,118.4c-0.1-0.1-0.2-0.3-0.3-0.5c-0.1-0.2-0.2-0.3-0.3-0.5c0,0-0.1-0.1-0.1-0.2
							c-0.3-0.7-0.6-1.4-0.8-2.2c-0.7-2.9-1.1-5.8-1.3-8.7c-0.3-3.1-1.1-6.1-2.4-9c-0.3-1-0.9-1.8-1.8-2.4c-0.1,0-0.2-0.1-0.3-0.1
							c-0.3,0-0.7,0-1,0.2c-0.5,0.3-0.9,0.8-1.1,1.5c-0.2,0.9-0.1,1.9,0.3,2.8c1.5,4.9,3.4,9.6,5.8,14.1c0.7,1.3,1.5,2.6,2.4,3.8
							c0,0.1,0.1,0.1,0.1,0.2c0.1,0.2,0.3,0.4,0.4,0.6C245.4,118.1,245.5,118.3,245.6,118.4z"/>
					</g>
					<g transform="translate(0.115 2.72)">
						<g transform="translate(48.575 40.432)">
							<path class="st16" d="M220.7,78.7L220.7,78.7c0.1-0.5-0.1-0.9-0.4-0.9C167.8,71.1,69.4,52,0.9,0.1c-0.3-0.2-0.6,0-0.8,0.4
								C-0.1,0.8,0,1.3,0.2,1.6C68.9,53.6,167.4,72.7,220,79.5C220.3,79.5,220.6,79.2,220.7,78.7z"/>
						</g>
						<g transform="translate(0 14.564)">
							<path class="st16" d="M49.2,26l-0.1-0.1c-0.1-0.1-0.2-0.2-0.3-0.3C41,18.2,32.2,12.1,22.5,7.4C15.5,3.9,8,1.4,0.3,0
								C0.1,0.4,0.1,0.8,0,1.2c7.8,1.4,15.4,4,22.5,7.5c9.4,4.6,18,10.6,25.6,17.8c0.2,0.2,0.3,0.3,0.5,0.5l0.2,0.1
								C49.2,27.6,49.6,26.4,49.2,26z"/>
						</g>
						<g transform="translate(24.716 55.246)">
							<path class="st16" d="M0,18.7c1.2-0.7,2.4-1.3,3.6-2c4.6-2.5,9.1-5,13.7-7.2c8.3-4.1,17.2-6.8,26.4-8.1
								c0.5-0.1,1-0.1,1.5-0.2c0,0,0.1,0,0.1,0c0.1,0,0.3,0,0.4,0c0.5,0,0.6-1.3,0-1.2c-0.7,0.1-1.4,0.1-2.1,0.2l-0.1,0
								c-0.2,0-0.4,0.1-0.6,0.1c-9,1.3-17.7,4-25.8,8c-4.8,2.3-9.5,4.9-14.2,7.5c-0.9,0.5-1.7,0.9-2.6,1.4C0.2,17.7,0.1,18.2,0,18.7
								z"/>
						</g>
						<g transform="translate(48.046 66.809)">
							<path class="st16" d="M0,27c4.4-3.4,9-6.1,13.3-9.3c4.3-3.3,8.9-6.3,13.7-8.8c5-2.6,10.1-5.1,15.1-7.6c0,0,0,0,0,0
								c0.3-0.2,0.4-0.5,0.3-0.8c-0.1-0.3-0.2-0.5-0.5-0.3c-0.3,0.2-0.7,0.3-1,0.5c0,0,0,0,0,0c-0.1,0.1-0.3,0.1-0.4,0.2
								C35.8,3.2,31,5.5,26.3,8c-5,2.7-9.7,5.8-14.2,9.3c-3.8,2.8-7.8,5.3-11.7,8.2c-0.1,0.2-0.1,0.4-0.2,0.6
								C0.1,26.4,0.1,26.7,0,27z"/>
						</g>
						<g transform="translate(76.177 79.322)">
							<path class="st16" d="M0,28.4c3.8-3.8,8-7.3,12.5-10.2c4.7-3.3,9.4-6.6,14.2-9.5c2.3-1.5,4.7-2.8,7.1-4.1
								c2.2-1.3,4.5-2.4,7-3.2c0,0,0,0,0,0c0.1,0,0.2,0,0.3-0.1c0,0,0.1,0,0.1,0c0.2-0.1,0.3-0.2,0.4-0.4c0,0,0,0,0-0.1
								c0.1-0.4,0-0.9-0.3-0.8c-0.7,0.2-1.4,0.4-2,0.7c-0.9,0.4-1.8,0.8-2.7,1.3c-0.6,0.3-1.3,0.7-1.9,1c-2.5,1.3-4.9,2.7-7.3,4.2
								c-4.9,3-9.7,6.3-14.5,9.7c-4.4,3-8.7,6-12.7,10.2C0,27.4,0,27.9,0,28.4z"/>
						</g>
						<g transform="translate(103.105 87.479)">
							<path class="st16" d="M0.3,26.3c11-9.5,22.2-18.6,34-24.7c0.2-0.1,0.3-0.2,0.5-0.2c0,0,0,0,0.1,0c0.1-0.1,0.3-0.2,0.5-0.2
								c0.3-0.2,0.4-0.6,0.3-0.9c0-0.1-0.1-0.2-0.1-0.2C35.3,0,35.1,0,35.1,0c-0.1,0-0.1,0.1-0.2,0.1c-0.5,0.2-1,0.5-1.5,0.8
								c0,0,0,0-0.1,0C21.8,7,10.8,15.9,0,25.3C0.1,25.6,0.2,26,0.3,26.3z"/>
						</g>
						<g transform="translate(125.523 94.908)">
							<path class="st16" d="M0,23.1c4.8-3.7,9.7-7.1,14.5-10.4c6.2-4.4,12.9-8.1,19.9-11.1c0,0,0.1,0,0.1,0c0.1,0,0.1,0,0.2-0.1
								c0.2-0.1,0.5-0.2,0.7-0.3c0.3-0.2,0.4-0.5,0.3-0.8c0-0.1,0-0.1-0.1-0.1c0,0,0,0,0-0.1c0,0-0.1-0.1-0.1-0.1
								C35.4,0,35.4,0,35.3,0c0,0-0.1,0-0.1,0l0,0c-0.5,0.2-0.9,0.4-1.4,0.6c-0.3,0.1-0.6,0.3-0.9,0.4c0,0-0.1,0-0.1,0
								c-6.7,3-13,6.6-18.9,10.8C9.3,15,4.7,18.2,0.3,21.6C0.1,22.1,0.1,22.6,0,23.1z"/>
						</g>
						<g transform="translate(150.453 100.955)">
							<path class="st16" d="M0,21.7C9.8,13.5,20.1,7.5,30.3,1.6l0.1-0.1l0.3-0.2l0.3-0.2c0.1-0.1,0.2-0.2,0.3-0.4c0,0,0,0,0-0.1
								c0-0.2,0-0.4-0.1-0.6C31.2,0,31.1,0,31,0c0,0,0,0,0,0l0,0c-0.6,0.4-1.3,0.7-1.9,1.1l-0.1,0.1l-0.2,0.1
								C19,6.9,9.3,12.6,0.1,20.3C0,20.8,0,21.2,0,21.7z"/>
						</g>
						<g transform="translate(168.397 105.368)">
							<path class="st16" d="M0,22.1c3.4-3.3,7-6.4,10.8-9.1C17,8.6,23.4,5.3,29.7,1.6c0,0,0.1-0.1,0.1-0.1c0.2-0.1,0.4-0.2,0.6-0.4
								c0.2-0.1,0.3-0.3,0.3-0.5c0-0.2,0-0.4-0.1-0.5c0-0.1-0.1-0.1-0.2-0.1c0,0,0,0,0,0c-0.1,0-0.1,0-0.2,0c-0.7,0.4-1.3,0.8-2,1.1
								c0,0-0.1,0-0.1,0.1c-6,3.4-12.2,6.7-18,10.9c-3.6,2.6-7,5.5-10.1,8.6C0,21.2,0,21.6,0,22.1z"/>
						</g>
						<g transform="translate(192.412 110.189)">
							<path class="st16" d="M0,19.1C7.8,12,16.7,6.1,26.2,1.7c0.2-0.1,0.3-0.1,0.5-0.2c0.1,0,0.1-0.1,0.2-0.1
								c0.2-0.1,0.3-0.1,0.5-0.2c0.5-0.2,0.4-1.4-0.2-1.1c-0.7,0.3-1.5,0.6-2.2,1c-0.1,0-0.1,0.1-0.2,0.1c0,0-0.1,0-0.1,0.1
								C15.8,5.5,7.5,11.1,0.1,17.7C0,18.1,0,18.6,0,19.1z"/>
						</g>
						<g transform="translate(217.798 114.04)">
							<path class="st16" d="M0,15.4C6.2,10,13.1,5.6,20.6,2.2c0.5-0.2,1.1-0.5,1.6-0.7c0.1,0,0.2-0.1,0.3-0.1
								c0.2-0.1,0.3-0.1,0.5-0.2c0.4-0.2,0.5-1,0.3-1.2c0,0-0.1,0-0.2,0c0,0,0,0-0.1,0c-0.9,0.3-1.8,0.7-2.6,1.1l-0.2,0.1
								c-0.2,0.1-0.4,0.2-0.7,0.3C12.5,4.8,6,8.9,0.2,13.9C0.1,14.4,0,14.9,0,15.4z"/>
						</g>
						<g transform="translate(239.041 116.417)">
							<path class="st16" d="M0,12C4.6,7.7,9.8,4.2,15.6,1.8c0.2-0.1,0.3-0.1,0.5-0.2c0.1,0,0.2-0.1,0.3-0.1
								c0.2-0.1,0.5-0.2,0.7-0.3c0.4-0.2,0.5-0.7,0.3-1.1C17.4,0,17.3,0,17.1,0l-0.1,0c-0.8,0.3-1.7,0.6-2.5,1
								c-0.1,0-0.2,0.1-0.3,0.1S14.1,1.2,14,1.3C8.9,3.7,4.2,6.8,0.1,10.6C0,11,0,11.5,0,12z"/>
						</g>
						<g transform="translate(237.166 92.189)">
							<path class="st16" d="M8,23.1C8,23.1,8,23.1,8,23.1c0.1-0.2,0.2-0.3,0.2-0.5c0,0,0-0.1,0-0.1c0-0.1,0-0.2-0.1-0.3
								c-0.5-0.6-0.9-1.3-1.3-2C4.8,16.4,4,11.4,3,6.8C2.5,4.5,1.8,2.2,1,0C0.6,0,0.3,0,0,0.2c1.1,3,2,6.1,2.6,9.2
								C3.2,12.5,4,15.6,5,18.6c0.5,1.3,1.1,2.5,1.8,3.7c0,0.1,0.1,0.1,0.1,0.2c0.2,0.2,0.3,0.5,0.5,0.7C7.6,23.3,7.8,23.3,8,23.1z"
								/>
						</g>
						<g transform="translate(218.786 88.224)">
							<path class="st16" d="M8.4,23.3c0-0.1,0-0.1-0.1-0.1C7.6,21,6.8,18.8,6,16.5C4.1,11.2,2.4,5.6,0.9,0C0.6,0,0.3,0,0,0.2
								c2,7.3,4.2,14.4,6.7,21.3c0.2,0.5,0.4,1,0.5,1.5c0,0,0,0.1,0.1,0.1c0.1,0.3,0.2,0.6,0.3,0.9C7.9,24.7,8.6,24,8.4,23.3z"/>
						</g>
						<g transform="translate(199.616 84.381)">
							<path class="st16" d="M8.7,23.3c0,0,0-0.1,0-0.1c0-0.1,0-0.1-0.1-0.2c0,0,0,0,0,0c0,0,0-0.1-0.1-0.1c-0.4-0.8-0.7-1.6-1-2.4
								C6.1,16.7,5.1,12.6,4,8.6C3.4,6.2,2.6,3.9,1.6,1.7C1.5,1.5,1.2,0.8,0.8,0C0.5,0.1,0.2,0.4,0,0.7c0.9,1.9,1.7,3.8,2.4,5.8
								c1.4,4.2,2.3,8.7,3.7,12.8c0.4,1.2,0.9,2.4,1.4,3.6c0,0,0,0.1,0.1,0.1c0.1,0.2,0.2,0.5,0.3,0.7C8.1,24.2,8.6,23.8,8.7,23.3z"
								/>
						</g>
						<g transform="translate(177.93 74.806)">
							<path class="st16" d="M11.4,29.9c0.3-0.3,0.5-0.7,0.3-1.1c-0.1-0.2-0.2-0.3-0.3-0.5c0,0,0-0.1-0.1-0.1
								c-0.2-0.3-0.4-0.6-0.5-0.9c-2.4-4.7-4.6-9.6-6.4-14.6C2.7,8.6,1.5,4.3,0.6,0C0.4,0.3,0.2,0.6,0.1,1C0.1,1.2,0,1.5,0,1.7
								c0.9,4,2.1,7.9,3.7,11.7c0.4,0.9,0.7,1.8,1.1,2.8c0,0,0,0,0,0.1c1.5,4,3.2,7.8,5.2,11.6c0,0,0,0.1,0.1,0.1
								c0.3,0.6,0.7,1.3,1.1,1.9c0,0,0,0,0,0C11.2,29.9,11.3,30,11.4,29.9C11.4,29.9,11.4,29.9,11.4,29.9z"/>
						</g>
						<g transform="translate(152.648 63.381)">
							<path class="st16" d="M14.9,34.8C14.9,34.8,14.9,34.8,14.9,34.8c0.3-0.1,0.5-0.6,0.4-1c0,0,0-0.1,0-0.1
								c0-0.1-0.1-0.1-0.1-0.1c-0.6-0.6-1.1-1.2-1.6-1.9C9.6,26.4,7.7,18.4,5,11.7C3.4,7.8,1.7,4,0.1,0c-0.2,0.8-0.2,1.7,0,2.6
								c1.4,3.5,3,6.9,4.4,10.5c1.7,4.3,3.1,9.1,5,13.3c1,2.4,2.3,4.7,3.8,6.8c0,0,0.1,0.1,0.1,0.1c0.4,0.5,0.8,1,1.3,1.5
								C14.7,34.7,14.8,34.8,14.9,34.8z"/>
						</g>
						<g transform="translate(127.362 45.134)">
							<path class="st16" d="M18.3,45.9C18.3,45.9,18.3,45.9,18.3,45.9c0.2-0.2,0.2-0.5,0.1-0.8l-0.2-0.3c0,0,0,0,0-0.1
								c-1-2.1-1.9-4.1-2.9-6.2c-1.5-3.3-3-6.5-4.6-9.8c-1.2-2.5-2.3-5.1-3.3-7.8c-1-2.9-1.7-6-2.5-9.1C4,7.8,2.5,3.8,0.6,0
								C0.4,0.3,0.2,0.6,0,1c1.4,2.9,2.6,5.9,3.6,9c1,3.2,1.6,6.7,2.6,10c0.9,2.8,2,5.6,3.2,8.2c2.4,5.3,4.9,10.6,7.4,15.8
								c0,0.1,0.1,0.2,0.1,0.3c0,0,0,0,0,0.1l0.7,1.5C17.8,46.2,18.1,46.2,18.3,45.9z"/>
						</g>
						<g transform="translate(109.446 37.637)">
							<path class="st16" d="M16.5,45.1c0,0,0-0.1,0-0.1c0,0,0,0,0,0c0-0.1,0-0.3,0-0.4c-4-9.7-7.6-19.7-11.1-29.9
								C3.8,9.8,2.2,4.9,0.8,0C0.5,0.2,0.2,0.5,0,0.7c1,3.2,1.9,6.4,3,9.5c3.5,11,7.4,21.7,11.6,32.1c0.3,0.7,0.6,1.4,0.9,2.1
								c0,0,0,0,0,0l0.3,0.8C15.9,45.7,16.3,45.5,16.5,45.1z"/>
						</g>
						<g transform="translate(83.341 12.693)">
							<path class="st16" d="M22.1,61.4c0-0.1,0-0.3-0.1-0.4c-3.3-5-5.1-11.7-7.3-18C12.5,36.5,9.7,30.6,7.5,24
								C5,16.2,2.8,8.1,0.7,0C0.4,0.2,0.2,0.3,0,0.5c0.3,1.1,0.6,2.2,0.9,3.3C2.8,11.1,4.7,18.4,7,25.4c2.2,6.8,5.2,12.9,7.4,19.7
								c1.2,3.7,2.5,7.6,4,11.1c0.6,1.4,1.2,2.7,2,4c0.3,0.6,0.7,1.2,1.1,1.8C21.7,62.3,22.1,61.9,22.1,61.4z"/>
						</g>
						<g transform="translate(35.546)">
							<path class="st16" d="M31.9,53.8c0-0.2,0-0.3-0.1-0.4c-0.2-0.3-0.5-0.5-0.7-0.8c-0.1-0.1-0.1-0.1-0.2-0.2
								c-0.8-0.9-1.6-1.7-2.3-2.6c-2.3-2.7-4.3-5.6-5.9-8.8c-1.2-2.3-2.1-4.8-3.2-7.2c-1.2-2.5-2.5-4.8-3.8-7.1
								c-2.8-5-5.6-10-8.5-15C5,7.7,2.8,3.8,0.6,0C0.4,0.3,0.2,0.7,0,1.1c5.5,9.6,11,19.2,16.4,29c2.5,4.5,4.3,9.7,6.8,14.2
								c1,1.7,2.1,3.3,3.3,4.9c0.3,0.3,0.5,0.7,0.8,1c0.1,0.1,0.1,0.2,0.2,0.2c1.2,1.4,2.4,2.7,3.6,4C31.4,54.6,31.8,54.2,31.9,53.8
								z"/>
						</g>
						<g transform="translate(61.372 0.684)">
							<path class="st16" d="M23.7,63.4c0-0.1,0-0.3-0.1-0.4c-0.1-0.1-0.2-0.3-0.3-0.4c0,0,0,0-0.1-0.1c-1.2-1.8-2.2-3.8-3-5.9
								c-0.7-1.8-1.3-3.6-1.9-5.2c-4.3-11.4-8.2-23.3-12-35.2C5.1,12.2,3.9,8.3,2.6,4.5C2.1,2.9,1.5,1.4,0.8,0
								C0.5,0.2,0.3,0.4,0,0.7c0.8,1.9,1.6,3.8,2.2,5.7c3.4,10.3,6.7,20.7,10.2,31c2,5.8,4,11.5,6.1,17.1c0.5,1.4,1.1,2.9,1.7,4.4
								c0.4,0.9,0.8,1.8,1.2,2.6c0,0,0,0,0,0.1c0.4,0.8,0.9,1.7,1.5,2.4C23.3,64.3,23.7,63.8,23.7,63.4z"/>
						</g>
					</g>
				</g>
				<g transform="translate(-3272.428 -6994.3)">
					<g transform="translate(0 0)">
						<g transform="translate(38.906 49.853)">
							<path class="st16" d="M148.1,181.8L148.1,181.8c0.3-0.4,0.4-0.8,0.2-1C107,147.7,32.9,80.3,1.4,0.2C1.2,0,0.9-0.1,0.5,0.2
								C0.1,0.4,0,0.8,0,1.2C31.6,81.4,105.8,148.9,147.2,182C147.4,182.2,147.8,182.1,148.1,181.8z"/>
						</g>
						<path class="st16" d="M12.2,76.6c6.4,0.3,12.8,0.6,19.4,0.3c3.5-0.2,7-0.6,10.6-1.2c1-0.2,4-1.1,6.1-1.5
							c0.3-0.1,0.7-0.1,1-0.1c0,0,0,0,0.1,0c0.3,0,0.5,0,0.8,0.1c-0.4-0.3-0.7-0.5-1.1-0.8c0,0-0.1-0.1-0.1-0.1
							c-0.2-0.2-0.5-0.3-0.7-0.5c-9.8-6.2-20.9-9.8-32.4-10.7c-1.5-0.1-3.1-0.2-4.6-0.2c-2.6,0-5.1,0.8-7.1,2.4
							c-0.4,0.3-0.7,0.6-1,0.9c-0.3,0.3-0.7,0.7-1,1c-1.2,1.3-2,3.1-2.1,4.9C0.2,75.7,8.4,76.4,12.2,76.6z"/>
						<path class="st16" d="M23.1,104.3c6.8-0.9,13.6-1.8,20.6-3.3c3.7-0.8,7.3-1.9,11-3c1.1-0.3,4.3-1.8,6.4-2.5c0,0,0,0,0,0
							c0.5-0.2,1.1-0.3,1.7-0.3c0,0,0,0,0,0c0,0,0,0,0,0c-0.4-0.1-0.8-0.3-1.1-0.4c-0.4-0.1-0.8-0.3-1.3-0.4c0,0,0,0,0,0
							c-0.2-0.1-0.4-0.1-0.6-0.2c-11.5-3.6-23.6-4.8-35.5-3.5c-1.6,0.2-3.3,0.4-4.9,0.7c-2.4,0.4-4.7,1.5-6.6,3.1
							c-0.2,0.1-0.3,0.3-0.5,0.4c-0.2,0.2-0.4,0.4-0.6,0.7c-1.8,2-2.9,4.5-2.5,6.3C10.3,105.8,19,104.9,23.1,104.3z"/>
						<path class="st16" d="M40.6,128.8c6.5-0.9,13-1.7,19.6-3.2c3.5-0.8,7-1.8,10.5-2.9c1.2-0.4,4.8-2.1,6.7-2.6c0.1,0,0.1,0,0.2,0
							c0.2-0.1,0.4-0.1,0.6-0.1c0.1,0,0.2,0,0.3,0c-0.1,0-0.1,0-0.2-0.1c-0.4-0.2-0.9-0.3-1.4-0.5c0,0,0,0,0,0
							c-1.1-0.4-2.3-0.8-3.5-1.1c-10.3-2.9-21-3.8-31.7-2.7c-1.6,0.2-3.1,0.4-4.7,0.6c-2.5,0.4-4.9,1.6-6.8,3.3
							c-0.4,0.3-0.7,0.7-1,1.1c-0.3,0.4-0.6,0.8-0.9,1.2c-0.9,1.3-1.3,2.8-1.1,4.3C28.4,130.1,36.7,129.3,40.6,128.8z"/>
						<path class="st16" d="M60,144.8c5.6-0.8,11.2-1.5,17-2.7c3-0.7,6-1.5,9.1-2.5c0.8-0.2,2.7-1.1,4.3-1.7l0.4-0.1c0,0,0,0,0,0
							c0.4-0.2,0.9-0.3,1.4-0.4c0.1,0,0.2,0,0.3,0c0,0,0,0,0.1,0c0.1,0,0.1,0,0.2,0l-0.3-0.1c0,0-0.1,0-0.1,0
							c-0.1,0-0.2-0.1-0.2-0.1c-0.2-0.1-0.3-0.1-0.5-0.2c-0.7-0.3-1.4-0.5-2.1-0.7c0,0,0,0-0.1,0c-9.2-2.8-18.9-3.7-28.4-2.6
							c-1.4,0.1-2.7,0.3-4,0.5c-2.2,0.4-4.2,1.4-5.9,2.9c-1,0.9-1.8,2-2.3,3.3c-0.1,0.3-0.2,0.7-0.3,1.1c-0.1,0.5-0.1,0.9,0,1.4
							C49.4,146,56.6,145.3,60,144.8z"/>
						<path class="st16" d="M75.2,163c5.6-0.8,11.2-1.5,17-2.7c3-0.7,6-1.5,9.1-2.5c0.8-0.3,3-1.3,4.6-1.9c0,0,0,0,0.1,0
							c0,0,0.1,0,0.1,0c0.5-0.2,0.9-0.3,1.4-0.4c0.1,0,0.1,0,0.2,0c0,0,0.1,0,0.1,0c0.1,0,0.1,0,0.2,0c-0.1,0-0.1-0.1-0.2-0.1
							c0,0-0.1,0-0.1,0c0,0-0.1,0-0.1,0c-0.6-0.2-1.1-0.4-1.7-0.6c-0.4-0.1-0.8-0.3-1.2-0.4c0,0-0.1,0-0.1,0
							c-9.1-2.7-18.7-3.6-28.2-2.6c-1.4,0.1-2.7,0.3-4,0.5c-2.2,0.4-4.2,1.4-5.9,2.9c0,0-0.1,0.1-0.1,0.1c-0.4,0.3-0.7,0.7-1,1.1
							c-1.1,1.5-1.8,3.3-1.5,4.5C64.6,164.2,71.9,163.5,75.2,163z"/>
						<path class="st16" d="M93.4,178.4c4.9-0.7,9.8-1.3,14.8-2.4c2.6-0.6,5.3-1.3,7.9-2.2c0.8-0.2,3-1.3,4.5-1.8c0,0,0.1,0,0.1,0
							c0.1,0,0.2-0.1,0.3-0.1c0.3-0.1,0.5-0.2,0.8-0.2c0.1,0,0.1,0,0.2,0l-0.2-0.1c-0.7-0.3-1.4-0.5-2.1-0.8c-0.1,0-0.1,0-0.2-0.1
							c-0.1,0-0.2-0.1-0.3-0.1c-8.1-2.5-16.6-3.3-25-2.3c-1.2,0.1-2.4,0.3-3.5,0.5c-1.9,0.3-3.7,1.2-5.1,2.5
							c-0.2,0.2-0.5,0.4-0.7,0.7c-0.3,0.4-0.6,0.7-0.8,1.1c-0.7,0.9-0.9,2.1-0.8,3.2C84.1,179.4,90.4,178.8,93.4,178.4z"/>
						<path class="st16" d="M106.5,191.3c4.9-0.7,9.8-1.3,14.8-2.4c2.6-0.6,5.3-1.3,7.9-2.2c0.7-0.2,2.7-1.1,4.1-1.7
							c0,0,0.1,0,0.1,0c0.5-0.2,1-0.4,1.6-0.4c-0.2-0.1-0.5-0.2-0.7-0.3c-0.7-0.3-1.5-0.5-2.3-0.8l-0.2-0.1
							c-7.9-2.3-16.3-3.1-24.5-2.2c-1.2,0.1-2.4,0.3-3.5,0.5c-1.9,0.3-3.7,1.2-5.1,2.5c-0.4,0.4-0.7,0.8-1.1,1.2
							c-0.3,0.4-0.5,0.7-0.7,1.1c-0.5,0.8-0.6,1.8-0.5,2.7C97.2,192.3,103.5,191.7,106.5,191.3z"/>
						<path class="st16" d="M124.7,204.9c4.2-0.6,8.5-1.1,12.8-2.1c2.3-0.5,4.6-1.2,6.9-1.9c0.6-0.2,2.3-1,3.5-1.4
							c0.1,0,0.2-0.1,0.3-0.1c0,0,0.1,0,0.1,0c0.3-0.1,0.7-0.2,1-0.2c-0.7-0.3-1.3-0.5-2-0.7l-0.3-0.1c-0.1,0-0.1,0-0.2-0.1
							c-7-2.1-14.3-2.8-21.5-2c-1,0.1-2,0.2-3.1,0.4c-1.7,0.3-3.2,1-4.4,2.2c-0.2,0.2-0.5,0.5-0.7,0.7c-0.3,0.4-0.6,0.7-0.8,1.1
							c-0.5,0.7-0.6,1.6-0.5,2.5C116.7,205.8,122.1,205.2,124.7,204.9z"/>
						<path class="st16" d="M144.4,217.6c3.4-0.5,6.7-0.9,10.2-1.6c1.8-0.4,3.6-0.9,5.5-1.5c0.4-0.1,1.5-0.6,2.4-1
							c0.4-0.1,0.7-0.3,1-0.4c0.1,0,0.1,0,0.2,0c0.1,0,0.3-0.1,0.4,0c-0.3-0.1-0.6-0.2-0.9-0.3c-0.1,0-0.2-0.1-0.4-0.1
							c-0.3-0.1-0.6-0.2-1-0.3c-5.5-1.6-11.2-2.1-16.9-1.5c-0.8,0.1-1.6,0.2-2.4,0.3c-1.3,0.2-2.5,0.8-3.5,1.7c0,0,0,0,0,0
							c-0.4,0.3-0.7,0.7-0.9,1.1c-0.5,0.7-0.7,1.5-0.6,2.3C138.1,218.3,142.4,217.9,144.4,217.6z"/>
						<path class="st16" d="M161.8,226.7c2.6-0.4,5.2-0.7,7.9-1.3c1.4-0.3,2.8-0.7,4.2-1.2c0.3-0.1,0.9-0.3,1.5-0.6
							c0.1,0,0.2-0.1,0.3-0.1l0.2-0.1c0.4-0.2,0.8-0.3,1.2-0.3c-0.7-0.3-1.4-0.5-2.1-0.7c-0.1,0-0.3-0.1-0.4-0.1
							c-0.1,0-0.2-0.1-0.3-0.1c-3.9-1-7.9-1.2-11.8-0.8c-0.6,0.1-1.3,0.2-1.9,0.3c-1,0.2-2,0.6-2.7,1.3c0,0-0.1,0.1-0.1,0.1
							c-0.3,0.3-0.6,0.7-0.8,1.2c-0.2,0.4-0.3,0.9-0.2,1.4C156.9,227.2,160.3,226.9,161.8,226.7z"/>
						<path class="st16" d="M19.9,35.9c0.4,0.3,0.8,0.7,1.2,1c3.5,2.9,7,5.9,10.5,8.8c1.4,1.1,4.9,3.2,7.4,5.2
							c0.1,0.1,0.2,0.2,0.3,0.2c1,0.7,1.7,1.7,2.1,2.8c-0.2-0.9-0.4-1.7-0.6-2.6c0-0.2-0.1-0.4-0.1-0.6C38,37.9,35.8,25,31.5,12.7
							c-1.4-3.9-3-7.9-6.1-10.5c-3.5-2.8-8.4-3-12.1-0.5c-0.4,0.3-0.9,0.7-1.3,1c-0.3,0.3-0.6,0.6-0.9,0.9C8,7.5,7.7,13.3,8.8,17.8
							C10.5,24.8,14.4,31.2,19.9,35.9z"/>
						<path class="st16" d="M49,71.2c-0.3-0.8-0.5-1.6-0.6-2.5l0-0.3c-0.1-0.8-0.1-1.6-0.1-2.4c0.1-7.8,3.9-18.4,6.3-25.9
							c2.9-9.3,3.8-15.1,3.4-23.6c-0.1-2.8-0.4-5.7-2.3-7.3c-1.3-1.1-3.5-1.2-5.5-0.2c-0.4,0.2-0.7,0.4-1.1,0.6
							c-0.6,0.4-1.1,0.8-1.5,1.4c-1.8,2.1-2.1,4.7-2.3,6.9c-1.3,15.9-1.8,32.6,1.6,46.6c0.2,0.7,0.4,1.4,0.5,2.1
							c0,0.2,0.1,0.3,0.1,0.5C48,68.4,48.5,69.8,49,71.2z"/>
						<path class="st16" d="M58.6,87.8c0.1,0.4,0.1,0.8,0.2,1.2c0-0.4-0.1-0.7-0.1-1.1C58.7,87.9,58.7,87.9,58.6,87.8
							c0-2.1,0.3-4.2,0.8-6.2c1.8-7.9,6.6-17.4,9.8-24.4c4.3-9.4,6.1-15.3,7.2-24.4c0.4-3,0.6-6.2-0.8-8.1c-0.8-1-2.1-1.6-3.4-1.5
							c-0.4,0-0.7,0-1.1,0.1c-1.2,0.3-2.3,0.9-3.2,1.8c-2,1.9-2.8,4.6-3.3,6.9c-4.1,17.4-7.6,35.7-6.4,51.6c0.1,1.4,0.2,2.8,0.4,4.2
							C58.6,87.8,58.6,87.8,58.6,87.8z"/>
						<path class="st16" d="M58.8,89.2c0-0.1,0-0.1,0-0.1C58.8,89.1,58.8,89.2,58.8,89.2z"/>
						<path class="st16" d="M71.3,110.7c-0.1-0.9-0.1-1.7-0.1-2.6c0.4-8.5,6.7-20.8,10.6-29.3c4.3-9.4,6.1-15.3,7.2-24.4
							c0.4-3,0.6-6.2-0.8-8.1c-0.9-1.1-2.2-1.6-3.5-1.5c-0.3,0-0.6,0.1-0.9,0.1c-1.2,0.3-2.4,0.9-3.3,1.8c-2,1.9-2.8,4.6-3.3,6.9
							C73.3,69.8,70,86.9,70.5,102c0.1,1.9,0.2,3.8,0.4,5.7c0,0.2,0.1,0.5,0.1,0.7C71,109.1,71.2,109.9,71.3,110.7z"/>
						<path class="st16" d="M84.2,128.9c-0.1-0.8-0.1-1.6,0-2.4c0,0,0,0,0,0c0.5-6.3,5-15.2,7.9-21.4c3.2-7,4.5-11.5,5.4-18.2
							c0.3-2.3,0.4-4.6-0.6-6.1c-0.7-0.9-1.8-1.3-2.9-1.1c-0.4,0-0.7,0.1-1,0.2c-0.7,0.3-1.3,0.6-1.8,1.2c-1.3,1.4-2.2,3.2-2.5,5.1
							c-2.9,12.3-5.4,25.4-4.9,36.8c0,1,0.1,2,0.2,3c0,0,0,0,0,0c0,0.1,0,0.2,0,0.2C84,127.2,84.1,128.1,84.2,128.9z"/>
						<path class="st16" d="M96.5,144.3c0-0.2,0-0.3,0-0.5c0-0.5,0-1.1,0-1.6c0,0,0,0,0-0.1c0.2-2.1,0.6-4.1,1.3-6.1
							c1.7-5.3,4.6-11.1,6.6-15.5c3.2-7,4.5-11.5,5.4-18.2c0.3-2.3,0.4-4.6-0.6-6.1c-1-1.1-2.5-1.5-3.9-0.9c-0.4,0.1-0.7,0.3-1,0.5
							c-0.3,0.2-0.6,0.4-0.8,0.7c-1.3,1.4-2.2,3.2-2.5,5.1c-3.1,13.4-5.8,27.6-4.7,39.7c0,0.1,0,0.3,0,0.4c0,0,0,0.1,0,0.1
							c0.1,0.6,0.1,1.3,0.2,1.9C96.5,144,96.5,144.1,96.5,144.3z"/>
						<path class="st16" d="M111.6,162.2C111.5,162.2,111.5,162.1,111.6,162.2c0-0.4-0.1-0.7-0.1-1c0-0.5,0-1,0.1-1.5
							c0,0,0-0.1,0-0.1c0.1-0.6,0.2-1.2,0.3-1.8c1.1-4.8,4-10.6,5.9-14.8c2.3-4.6,3.8-9.6,4.3-14.7c0.2-1.8,0.4-3.7-0.5-4.9
							s-3-1.3-4.6,0.2c0,0-0.1,0.1-0.1,0.1c-0.6,0.6-1.1,1.4-1.3,2.2c-0.2,0.6-0.4,1.2-0.5,1.8c-1.9,7.7-3.2,15.5-3.9,23.3
							c-0.2,2.7-0.2,5.4,0,8.1c0,0,0,0.1,0,0.1c0,0.6,0.1,1.2,0.2,1.8C111.5,161.5,111.5,161.8,111.6,162.2
							C111.5,162.1,111.5,162.2,111.6,162.2z"/>
						<path class="st16" d="M127.8,177.8c0-0.3-0.1-0.5-0.1-0.8c0,0,0-0.1,0-0.1c-0.1-4,3.1-10.1,5-14.2c1.8-3.6,2.9-7.5,3.4-11.4
							c0.2-1.4,0.3-2.9-0.4-3.8c-0.7-0.8-1.8-0.9-2.7-0.4c-0.3,0.2-0.6,0.4-0.9,0.6c-0.2,0.2-0.3,0.3-0.5,0.5
							c-0.5,0.8-0.9,1.7-1.1,2.7c-0.9,4-1.8,8.1-2.4,12.1c0,0,0,0,0,0.1c-0.7,4.1-0.9,8.3-0.6,12.5c0,0.4,0.1,0.8,0.1,1.3
							c0,0.1,0,0.1,0,0.2C127.7,177.2,127.7,177.5,127.8,177.8z"/>
						<path class="st16" d="M141.5,190.5l0,0.2C141.5,190.6,141.5,190.6,141.5,190.5c0-0.1,0-0.3,0-0.4c0-0.9,0.1-1.8,0.4-2.6
							c0.9-2.9,2.1-5.7,3.5-8.5c1.4-2.8,2.3-5.8,2.6-8.9c0.2-1,0.1-2-0.3-3c-0.2-0.3-0.6-0.5-0.9-0.5c-0.4-0.1-0.7,0-1,0.1
							c-0.3,0.1-0.6,0.3-0.9,0.5c-0.6,0.7-1.1,1.6-1.2,2.5c-1.4,5.2-2.2,10.6-2.4,16c0,1.5,0,3,0.2,4.4
							C141.4,190.3,141.4,190.4,141.5,190.5z"/>
						<path class="st16" d="M141.5,190.7C141.5,190.7,141.5,190.7,141.5,190.7C141.5,190.7,141.5,190.7,141.5,190.7z"/>
						<path class="st16" d="M155.2,203.8c0-0.1,0-0.2,0-0.3c0-0.1,0-0.1,0-0.2c-0.1-1.8,0.7-4.3,1.7-6.7c0.7-1.7,1.5-3.3,2.1-4.6
							c1.4-2.8,2.3-5.8,2.6-8.9c0.2-1,0.1-2-0.3-3c-0.1-0.1-0.1-0.2-0.2-0.2c-0.2-0.2-0.5-0.3-0.9-0.3c-0.7,0-1.3,0.2-1.8,0.7
							c-0.6,0.7-1.1,1.6-1.2,2.5c-1.4,6.2-2.7,12.8-2.4,18.5c0,0.7,0.1,1.4,0.2,2c0,0.1,0,0.1,0,0.2
							C155.2,203.6,155.2,203.7,155.2,203.8z"/>
						<path class="st16" d="M168.9,216.8c0-0.2,0-0.4-0.1-0.6c0-0.2,0-0.4,0-0.6c0-0.1,0-0.1,0-0.2c0.1-0.8,0.2-1.5,0.4-2.3
							c0.9-2.8,2.1-5.5,3.4-8.2c1.4-2.8,2.3-5.8,2.6-8.9c0.2-1,0.1-2-0.3-3c-0.1-0.1-0.1-0.2-0.2-0.2c-0.3-0.2-0.6-0.3-0.9-0.3
							c-0.6,0-1.2,0.2-1.7,0.7c-0.6,0.7-1.1,1.6-1.2,2.5c-1.3,4.9-2.1,10-2.4,15c-0.1,1.5,0,3,0.1,4.5c0,0.1,0,0.1,0,0.2
							c0,0.2,0.1,0.5,0.1,0.7C168.9,216.4,168.9,216.6,168.9,216.8z"/>
					</g>
					<g transform="translate(2.078 2.796)">
						<g transform="translate(37.138 47.514)">
							<path class="st16" d="M148.1,181.8L148.1,181.8c0.3-0.4,0.4-0.8,0.2-1C107,147.7,32.9,80.3,1.4,0.2C1.2-0.1,0.9-0.1,0.5,0.2
								C0.1,0.4,0,0.8,0,1.2C31.6,81.4,105.8,148.9,147.2,182C147.4,182.2,147.8,182.1,148.1,181.8z"/>
						</g>
						<g transform="translate(9.124)">
							<path class="st16" d="M29.1,47.7l-0.1-0.2c0-0.1-0.1-0.2-0.1-0.4c-2.8-10.4-7.2-20.2-13-29.2C11.8,11.3,6.7,5.2,0.9,0
								C0.5,0.3,0.3,0.6,0,0.9c6,5.3,11.1,11.4,15.3,18.2c5.6,8.8,9.8,18.4,12.6,28.5c0.1,0.2,0.1,0.5,0.2,0.7l0.1,0.2
								C28.3,49,29.3,48.3,29.1,47.7z"/>
						</g>
						<g transform="translate(0 62.372)">
							<path class="st16" d="M0,1c1.4,0.1,2.7,0.1,4,0.2c5.2,0.2,10.4,0.5,15.5,1C28.7,3,37.7,5.4,46.2,9c0.5,0.2,0.9,0.4,1.4,0.7
								c0,0,0.1,0,0.1,0c0.1,0.1,0.2,0.1,0.3,0.2c0.5,0.2,1.2-0.8,0.7-1c-0.6-0.3-1.3-0.6-1.9-0.9l-0.1,0c-0.2-0.1-0.4-0.2-0.6-0.3
								C37.8,4.2,29,2,20,1.1c-5.3-0.5-10.6-0.8-16-1C2.9,0.1,2,0,1,0C0.6,0.3,0.3,0.7,0,1z"/>
						</g>
						<g transform="translate(9.584 89.809)">
							<path class="st16" d="M0,2.7c5.5-0.6,10.9-0.5,16.2-1.1C21.6,1.1,27,0.9,32.5,1.3c5.6,0.4,11.3,0.9,16.9,1.3c0,0,0,0,0,0
								c0.3,0,0.6-0.2,0.7-0.5c0.1-0.3,0-0.5-0.2-0.5c-0.4,0-0.8-0.1-1.1-0.1c0,0,0,0,0,0c-0.2,0-0.3,0-0.5,0
								C42.9,1,37.6,0.5,32.4,0.2c-5.7-0.3-11.3-0.1-17,0.5C10.7,1.1,6,1.2,1.1,1.6C1,1.8,0.8,1.9,0.6,2.1C0.4,2.3,0.2,2.5,0,2.7z"
								/>
						</g>
						<g transform="translate(26.336 115.055)">
							<path class="st16" d="M0,4c5.3-1.3,10.6-2,16-2.2c5.7-0.4,11.5-0.7,17.1-0.7c2.8,0,5.5,0,8.2,0.2c2.6,0,5.1,0.3,7.6,0.9
								c0,0,0,0,0,0c0.1,0,0.2,0,0.3,0.1c0,0,0.1,0,0.1,0c0.2,0,0.4,0,0.5-0.1c0,0,0,0,0.1,0c0.3-0.3,0.4-0.7,0.1-0.8
								c-0.7-0.2-1.4-0.4-2-0.5C47,0.6,46,0.5,45,0.4c-0.7-0.1-1.4-0.1-2.1-0.1C40.1,0.1,37.3,0,34.5,0c-5.7,0-11.6,0.3-17.4,0.7
								C11.8,1,6.5,1.3,0.9,2.8C0.5,3.2,0.3,3.6,0,4z"/>
						</g>
						<g transform="translate(46.434 133.72)">
							<path class="st16" d="M0,4.7c14.4-2.4,28.6-4.3,41.9-3.4c0.2,0,0.3,0,0.5,0c0,0,0,0,0.1,0c0.2,0,0.3,0,0.5,0
								c0.4,0,0.7-0.3,0.7-0.7c0-0.1,0-0.2,0-0.3c0-0.1-0.1-0.2-0.2-0.2c-0.1,0-0.2,0-0.2,0c-0.5,0-1.1-0.1-1.7-0.1c0,0,0,0-0.1,0
								c-13-0.8-27,1.1-41.1,3.5C0.2,4,0.1,4.3,0,4.7z"/>
						</g>
						<g transform="translate(63.16 150.858)">
							<path class="st16" d="M0,2.6c6-0.7,11.9-1,17.8-1.3c7.6-0.5,15.3-0.2,22.8,0.9c0,0,0.1,0,0.1,0c0.1,0,0.1,0,0.2,0
								c0.2,0,0.5,0.1,0.7,0.1c0.3,0.1,0.6-0.2,0.7-0.5c0-0.1,0-0.1,0-0.2c0,0,0,0,0-0.1c0,0,0-0.1,0-0.1c0-0.1-0.1-0.1-0.1-0.2
								c0,0-0.1,0-0.1,0c0,0,0,0,0,0c-0.5-0.1-1-0.2-1.5-0.2c-0.3-0.1-0.7-0.1-1-0.1c0,0-0.1,0-0.1,0c-7.2-0.9-14.5-1.1-21.8-0.6
								C12.2,0.6,6.6,0.9,1,1.5C0.6,1.9,0.3,2.2,0,2.6z"/>
						</g>
						<g transform="translate(82.031 167.807)">
							<path class="st16" d="M0,2.6C12.6,0.7,24.5,1,36.4,1.3h0.1l0.3,0l0.4,0c0.2,0,0.3-0.1,0.4-0.2c0,0,0,0,0,0
								c0.1-0.1,0.2-0.3,0.2-0.6c0-0.1-0.1-0.3-0.2-0.3c0,0,0,0,0,0h0l-2.2-0.1h-0.1h-0.2C24-0.1,12.7-0.2,0.8,1.5
								C0.5,1.9,0.2,2.2,0,2.6z"/>
						</g>
						<g transform="translate(94.872 180.412)">
							<path class="st16" d="M0,3.5c4.6-1.1,9.3-1.8,14-2.2c7.5-0.5,14.8,0,22,0.2c0.1,0,0.1,0,0.2,0c0.2,0,0.5,0,0.7,0
								c0.2,0,0.4-0.1,0.5-0.3c0.1-0.1,0.2-0.3,0.2-0.5c0-0.1,0-0.2-0.1-0.2c0,0,0,0,0,0c-0.1,0-0.1-0.1-0.2-0.1
								c-0.8,0-1.5,0-2.3-0.1h-0.2C28,0.1,21-0.3,13.8,0.3C9.4,0.7,5,1.4,0.7,2.3C0.4,2.7,0.2,3.1,0,3.5z"/>
						</g>
						<g transform="translate(114.435 194.956)">
							<path class="st16" d="M0,3c10.3-2,20.9-2.4,31.4-1.2c0.2,0,0.4,0,0.5,0.1c0.1,0,0.1,0,0.2,0c0.2,0,0.4,0,0.5,0.1
								c0.6,0.1,1-1,0.4-1.1c-0.8-0.1-1.6-0.2-2.4-0.3c-0.1,0-0.1,0-0.2,0c-0.1,0-0.1,0-0.2,0C20.5-0.4,10.5,0,0.8,1.8
								C0.5,2.2,0.2,2.6,0,3z"/>
						</g>
						<g transform="translate(136.03 209.001)">
							<path class="st16" d="M0,2.2c8.1-1.4,16.3-1.5,24.4-0.5C25,1.8,25.5,1.9,26.1,2c0.1,0,0.2,0,0.3,0c0.2,0,0.4,0.1,0.6,0.1
								c0.5,0.1,1-0.6,0.9-0.9c0-0.1-0.1-0.1-0.1-0.1c0,0,0,0-0.1,0c-0.9-0.2-1.9-0.3-2.8-0.5l-0.3,0c-0.2,0-0.5-0.1-0.7-0.1
								C16.2-0.3,8.5-0.1,0.9,1.1C0.6,1.4,0.3,1.8,0,2.2z"/>
						</g>
						<g transform="translate(154.695 219.233)">
							<path class="st16" d="M0,2.2c6.1-1.3,12.4-1.5,18.6-0.6c0.2,0,0.4,0.1,0.5,0.1c0.1,0,0.2,0,0.3,0.1c0.2,0,0.5,0.1,0.7,0.1
								c0.4,0.1,0.9-0.5,0.9-0.8c0-0.1-0.1-0.2-0.2-0.2l-0.1,0c-0.9-0.2-1.8-0.3-2.7-0.5c-0.1,0-0.2,0-0.3,0c-0.1,0-0.2,0-0.3,0
								C11.9-0.3,6.3,0,0.8,1.1C0.5,1.4,0.2,1.8,0,2.2z"/>
						</g>
						<g transform="translate(166.17 189.738)">
							<path class="st16" d="M0.6,23.7C0.6,23.7,0.6,23.7,0.6,23.7c0.2-0.1,0.3-0.2,0.4-0.3c0,0,0.1-0.1,0.1-0.1
								c0.1-0.1,0.1-0.2,0.1-0.3C1,22.2,1,21.4,1.1,20.6c0.2-4.2,2.2-8.9,3.7-13.5c0.8-2.2,1.4-4.5,1.8-6.8C6.3,0.1,6,0,5.6,0
								C5,3.1,4.2,6.2,3.1,9.2c-1.1,2.9-2,6-2.7,9C0.1,19.6,0,21,0,22.4c0,0.1,0,0.1,0,0.2c0,0.3,0,0.6,0.1,0.9
								C0.1,23.7,0.3,23.7,0.6,23.7z"/>
						</g>
						<g transform="translate(152.307 176.747)">
							<path class="st16" d="M1,24.2c0-0.1,0-0.1,0-0.1c0.4-2.3,0.9-4.6,1.4-6.9C3.7,11.5,5.1,5.9,6.7,0.3C6.5,0.1,6.2,0,5.9,0
								C3.8,7.3,2,14.5,0.5,21.7c-0.1,0.5-0.2,1-0.3,1.6c0,0,0,0.1,0,0.1c-0.1,0.3-0.1,0.7-0.2,1C-0.1,25.1,0.9,24.8,1,24.2z"/>
						</g>
						<g transform="translate(138.309 163.748)">
							<path class="st16" d="M0.9,24c0,0,0-0.1,0.1-0.1c0-0.1,0-0.1,0.1-0.2c0,0,0,0,0,0c0,0,0-0.1,0-0.1c0.1-0.9,0.2-1.7,0.4-2.6
								C2.1,17,3.5,13,4.6,9c0.7-2.3,1.2-4.7,1.6-7.1c0-0.2,0.1-0.9,0.2-1.8C6,0,5.6,0,5.3,0.1c-0.2,2.1-0.5,4.2-1,6.2
								c-1,4.3-2.6,8.6-3.5,12.9c-0.3,1.3-0.5,2.5-0.7,3.8c0,0,0,0.1,0,0.1c0,0.3-0.1,0.5-0.1,0.8C0,24.4,0.6,24.4,0.9,24z"/>
						</g>
						<g transform="translate(124.348 144.175)">
							<path class="st16" d="M0.2,31.2c0.4,0,0.8-0.4,0.8-0.8c0-0.2,0-0.4,0-0.6c0,0,0-0.1,0-0.1c0-0.4,0-0.7,0-1.1
								C1.5,23.3,2.2,18,3.2,12.8C3.9,8.5,5,4.2,6.5,0C6.2,0.2,5.9,0.4,5.6,0.6C5.4,0.8,5.3,1,5.1,1.2C3.8,5,2.8,9,2.2,13.1
								C2,14,1.8,15,1.7,16c0,0,0,0,0,0.1c-0.8,4.2-1.3,8.4-1.6,12.6c0,0,0,0.1,0,0.1C0,29.5,0,30.2,0,30.9c0,0,0,0,0,0.1
								C0,31.1,0.1,31.2,0.2,31.2C0.2,31.2,0.2,31.2,0.2,31.2z"/>
						</g>
						<g transform="translate(108.716 121.042)">
							<path class="st16" d="M0.6,37.4C0.6,37.4,0.7,37.4,0.6,37.4c0.3,0.1,0.8-0.3,0.9-0.6c0,0,0-0.1,0-0.1c0-0.1,0-0.1,0-0.2
								c-0.2-0.8-0.3-1.6-0.4-2.5C0.5,27.5,3,19.7,4.2,12.6C4.9,8.4,5.4,4.2,6.1,0C5.5,0.6,5.1,1.4,4.8,2.2
								C4.2,5.9,3.7,9.7,3.1,13.4C2.3,18,1,22.8,0.4,27.4c-0.4,2.6-0.5,5.2-0.2,7.8c0,0,0,0.1,0,0.1c0.1,0.7,0.2,1.3,0.4,2
								C0.5,37.3,0.6,37.3,0.6,37.4z"/>
						</g>
						<g transform="translate(93.858 92.558)">
							<path class="st16" d="M0.5,48.4C0.5,48.4,0.5,48.4,0.5,48.4C0.8,48.3,1,48.1,1,47.8c0-0.1,0-0.2,0-0.4c0,0,0,0,0-0.1
								c0.3-2.2,0.5-4.5,0.8-6.8c0.4-3.6,0.8-7.1,1.2-10.7c0.3-2.8,0.7-5.6,1.3-8.3c0.6-3,1.7-6,2.6-9.1C8.1,8.4,8.9,4.2,9.3,0
								c-0.4,0.1-0.7,0.3-1,0.5c-0.3,3.2-0.9,6.4-1.6,9.6c-0.8,3.3-2.1,6.6-2.9,9.9c-0.7,2.9-1.2,5.8-1.5,8.7
								C1.5,34.4,0.9,40.2,0.2,46c0,0.1,0,0.2,0,0.3c0,0,0,0,0,0.1L0,48.1C0,48.4,0.2,48.5,0.5,48.4z"/>
						</g>
						<g transform="translate(81.088 76.901)">
							<path class="st16" d="M0.8,46.7C0.8,46.6,0.8,46.6,0.8,46.7c0.1-0.1,0.1-0.1,0.1-0.1C1,46.4,1,46.3,1,46.2
								c1.7-10.3,3.7-20.8,6.1-31.3C8.3,9.9,9.5,5,10.8,0c-0.4,0-0.7,0.1-1,0.2C8.9,3.5,8.1,6.7,7.3,9.9c-2.7,11.2-5,22.4-6.8,33.4
								c-0.1,0.8-0.3,1.5-0.4,2.3c0,0,0,0,0,0c0,0.3-0.1,0.5-0.1,0.8C-0.1,46.9,0.4,46.9,0.8,46.7z"/>
						</g>
						<g transform="translate(67.964 41.978)">
							<path class="st16" d="M0.9,63.6C1,63.5,1,63.3,1.1,63.2c-0.2-6,1.7-12.7,3.1-19.1c1.5-6.7,2.2-13.3,3.8-20
								c1.9-7.9,4.2-16,6.6-24c-0.3,0-0.6,0-0.9,0.1c-0.3,1.1-0.6,2.2-1,3.3c-2.1,7.2-4.3,14.4-6,21.6c-1.6,7-2.3,13.7-3.9,20.7
								C2,49.5,1,53.4,0.5,57.2c-0.2,1.5-0.4,3-0.4,4.5c0,0.7,0,1.4,0,2C0,64.2,0.6,64,0.9,63.6z"/>
						</g>
						<g transform="translate(44.542 6.232)">
							<path class="st16" d="M2.4,62.2c0.1-0.1,0.2-0.3,0.1-0.4c-0.1-0.4-0.1-0.7-0.2-1.1c0-0.1,0-0.2-0.1-0.3
								c-0.2-1.1-0.4-2.3-0.6-3.4c-0.6-3.5-0.8-7.1-0.5-10.6c0.2-2.6,0.7-5.2,1-7.8c0.3-2.7,0.4-5.4,0.5-8.1
								C2.9,24.8,3,19.1,3.2,13.3C3.4,8.9,3.6,4.4,3.7,0C3.3,0.2,2.9,0.4,2.6,0.6C2.3,11.7,2,22.8,1.5,33.9C1.3,39,0.1,44.4,0,49.5
								c0,2,0.1,3.9,0.3,5.9c0.1,0.4,0.1,0.9,0.2,1.3c0,0.1,0,0.2,0,0.3c0.3,1.8,0.6,3.5,0.9,5.3C1.6,62.7,2.1,62.6,2.4,62.2z"/>
						</g>
						<g transform="translate(55.677 20.38)">
							<path class="st16" d="M1,66c0.1-0.1,0.1-0.3,0.1-0.4c0-0.2,0-0.3-0.1-0.5c0,0,0-0.1,0-0.1c-0.1-2.2,0.1-4.4,0.6-6.6
								C2,56.5,2.4,54.7,2.7,53C5,41,7.9,28.8,10.8,16.6c0.9-4,1.9-7.9,2.8-11.9C14,3.1,14.2,1.6,14.4,0c-0.4,0-0.7,0-1.1,0.1
								c-0.3,2-0.6,4.1-1.1,6.1C9.8,16.8,7.2,27.4,4.9,37.9c-1.3,6-2.6,11.9-3.6,17.8c-0.3,1.5-0.6,3.1-0.8,4.6
								c-0.2,1-0.3,1.9-0.3,2.9c0,0,0,0.1,0,0.1C0,64.2,0,65.2,0.1,66.1C0.2,66.6,0.8,66.4,1,66z"/>
						</g>
					</g>
				</g>
				<g transform="translate(-3153.415 -7166.521)">
					<g transform="translate(55.558 97.293)">
						<path class="st16" d="M113.9,414.4L113.9,414.4c0.6-0.2,0.8-0.8,0.6-1.3c0,0,0,0,0,0C76.1,323.4,10.6,150.8,2,0.9
							c0-0.5-0.5-1-1.1-0.9C0.4,0,0,0.5,0,1c8.6,150.1,74.2,323.1,112.6,412.8C112.8,414.3,113.4,414.5,113.9,414.4z"/>
					</g>
					<path class="st16" d="M13.2,110.2c7.7,6.7,15.4,13.4,23.7,19.4c4.3,3.1,8.8,5.9,13.4,8.6c1.3,0.8,5.4,2.3,8,3.8
						c0.4,0.2,0.9,0.5,1.3,0.8c0,0,0.1,0,0.1,0.1c0.4,0.2,0.7,0.5,0.9,0.9c-0.3-0.7-0.7-1.5-1.1-2.2c0-0.1-0.1-0.2-0.1-0.2
						c-0.2-0.5-0.4-0.9-0.7-1.4c-8.7-17.2-21.4-34.6-35.8-47.7c-1.8-1.7-3.7-3.3-5.6-4.8c-2.7-2.3-6.1-3.6-9.6-3.4
						c-0.5,0-1.1,0.1-1.6,0.3c-0.5,0.1-1.1,0.3-1.6,0.6c-2.2,1-3.8,2.9-4.4,5.3C-1.2,97.2,8.5,106.2,13.2,110.2z"/>
					<path class="st16" d="M16.1,162.2c8.7,5.3,17.4,10.6,26.6,15.2c4.8,2.4,9.7,4.4,14.7,6.3c1.5,0.6,6,1.5,8.8,2.5c0,0,0,0,0,0
						c0.8,0.2,1.6,0.6,2.2,1.1c0,0,0,0,0,0c0,0,0,0,0-0.1c-0.4-0.6-0.8-1.2-1.2-1.8c-0.5-0.6-0.9-1.3-1.4-1.9c0,0,0,0-0.1-0.1
						c-0.2-0.3-0.4-0.6-0.6-0.9c-11.3-15.1-26.4-29.6-42.3-39.9c-2.1-1.3-4.2-2.6-6.3-3.8c-2.8-1.7-6.1-2.4-9.3-1.9
						c-0.3,0-0.5,0.1-0.8,0.2c-0.4,0.1-0.7,0.2-1,0.3c-3,1.1-5.1,3.8-5.4,7C-0.2,151.7,10.9,159,16.1,162.2z"/>
					<path class="st16" d="M28.4,215.7c8.3,5,16.6,10.1,25.3,14.5c4.6,2.3,9.2,4.2,14,6c1.6,0.6,6.6,1.6,9.2,2.7l0,0
						c0.1,0,0.2,0.1,0.2,0.1c0.3,0.1,0.6,0.3,0.8,0.5c0.1,0.1,0.2,0.2,0.3,0.3c-0.1-0.1-0.1-0.2-0.2-0.3c-0.5-0.7-1-1.4-1.5-2.1
						c0,0,0,0,0,0c-1.2-1.7-2.5-3.4-3.9-5.1c-10.7-13.6-23.5-25.4-37.9-34.9c-2-1.3-4-2.5-6-3.6c-2.9-1.8-6.3-2.4-9.6-1.7
						c-0.6,0.2-1.1,0.4-1.7,0.6c-0.5,0.3-1.1,0.6-1.5,1c-1.7,1.3-2.8,3.3-2.9,5.4C12.8,205.7,23.4,212.6,28.4,215.7z"/>
					<path class="st16" d="M46.1,258.4c7.2,4.3,14.3,8.8,21.9,12.5c3.9,2,8,3.6,12.1,5.1c1,0.4,3.7,1,5.9,1.6
						c0.2,0.1,0.3,0.1,0.5,0.2c0,0,0,0,0.1,0c0.6,0.2,1.3,0.4,1.9,0.7c0.1,0.1,0.3,0.1,0.4,0.2c0,0,0,0,0.1,0
						c0.1,0.1,0.2,0.1,0.3,0.2c-0.1-0.1-0.2-0.3-0.3-0.4c0,0-0.1-0.1-0.1-0.1c-0.1-0.1-0.2-0.3-0.3-0.4c-0.2-0.2-0.3-0.5-0.5-0.7
						c-0.8-1.1-1.5-2.1-2.3-3.2c0,0-0.1-0.1-0.1-0.1c-9.5-12.4-20.9-23.1-33.9-31.7c-1.7-1.1-3.4-2.2-5.2-3.1
						c-2.5-1.5-5.4-2.1-8.3-1.5c-1.6,0.4-3,1.4-4,2.7c-0.3,0.4-0.6,0.8-0.8,1.3c-0.3,0.7-0.5,1.4-0.5,2.1
						C32.7,249.8,41.8,255.8,46.1,258.4z"/>
					<path class="st16" d="M58,300.4c7.2,4.4,14.3,8.8,21.9,12.5c3.9,2,8,3.6,12.1,5.1c1.1,0.4,4.1,1.1,6.4,1.8c0,0,0.1,0,0.1,0
						c0.1,0,0.1,0,0.2,0c0.6,0.2,1.3,0.4,1.9,0.7c0.1,0,0.2,0.1,0.3,0.2c0,0,0.1,0.1,0.1,0.1c0.1,0.1,0.1,0.1,0.2,0.2
						c-0.1-0.1-0.1-0.2-0.2-0.3c0-0.1-0.1-0.1-0.1-0.2c0,0-0.1-0.1-0.1-0.1c-0.6-0.9-1.2-1.8-1.9-2.6c-0.4-0.6-0.9-1.2-1.3-1.8
						c0-0.1-0.1-0.1-0.1-0.2c-9.4-12.2-20.8-22.8-33.7-31.4c-1.7-1.1-3.4-2.2-5.2-3.1c-2.5-1.5-5.4-2.1-8.3-1.5c0,0-0.1,0-0.1,0
						c-0.6,0.2-1.1,0.4-1.7,0.7c-2,1.1-3.3,3.1-3.5,5.3C44.5,291.8,53.7,297.8,58,300.4z"/>
					<path class="st16" d="M74.5,340.9c6.3,3.8,12.5,7.7,19.1,10.9c3.4,1.7,7,3.1,10.6,4.5c1,0.4,4.1,1,6.1,1.7c0,0,0.1,0,0.1,0
						c0.1,0,0.2,0.1,0.3,0.1c0.4,0.1,0.7,0.3,1.1,0.5c0.1,0.1,0.2,0.1,0.2,0.2c-0.1-0.1-0.1-0.2-0.2-0.2c-0.7-1.1-1.5-2.1-2.3-3.2
						c-0.1-0.1-0.1-0.2-0.2-0.3c-0.1-0.1-0.2-0.3-0.3-0.4c-8.3-10.9-18.4-20.3-29.8-27.9c-1.5-1-3-1.9-4.5-2.7
						c-2.2-1.3-4.7-1.8-7.2-1.3c-0.4,0.1-0.7,0.2-1.1,0.4c-0.5,0.2-1,0.5-1.4,0.9c-1.3,1-2,2.4-2.1,4
						C62.7,333.4,70.7,338.6,74.5,340.9z"/>
					<path class="st16" d="M85.7,373c6.3,3.8,12.5,7.7,19.1,10.9c3.4,1.7,7,3.1,10.6,4.5c1,0.4,3.7,0.9,5.7,1.6c0.1,0,0.1,0,0.2,0
						c0.8,0.2,1.5,0.5,2.1,1c-0.2-0.4-0.5-0.7-0.8-1.1c-0.8-1.1-1.7-2.3-2.5-3.4l-0.2-0.3c-8.2-10.6-18.1-19.8-29.2-27.2
						c-1.5-1-3-1.9-4.5-2.7c-2.2-1.3-4.8-1.8-7.2-1.3c-0.6,0.2-1.2,0.4-1.7,0.7c-0.5,0.3-0.9,0.6-1.3,1c-1,0.9-1.5,2.2-1.6,3.5
						C73.9,365.5,81.9,370.7,85.7,373z"/>
					<path class="st16" d="M102.9,411c5.4,3.3,10.8,6.6,16.5,9.5c3,1.5,6,2.7,9.1,3.9c0.8,0.3,3.1,0.8,4.9,1.3
						c0.2,0,0.3,0.1,0.5,0.1c0.1,0,0.1,0,0.2,0.1c0.5,0.1,1,0.4,1.4,0.7c-0.7-1-1.5-2-2.2-3.1l-0.3-0.4c-0.1-0.1-0.2-0.2-0.2-0.3
						c-7.2-9.3-15.8-17.4-25.6-23.9c-1.3-0.8-2.6-1.6-3.9-2.4c-1.9-1.2-4.1-1.6-6.3-1.1c-0.4,0.1-0.7,0.2-1.1,0.4
						c-0.5,0.2-1,0.6-1.4,0.9c-0.9,0.8-1.5,2-1.6,3.2C92.7,404.5,99.6,409,102.9,411z"/>
					<path class="st16" d="M122.4,449.2c4.3,2.6,8.6,5.3,13.1,7.5c2.4,1.2,4.8,2.2,7.3,3.1c0.6,0.2,2,0.5,3.3,0.9
						c0.5,0.1,1,0.3,1.4,0.4c0.1,0,0.2,0.1,0.2,0.1c0.2,0.1,0.4,0.2,0.6,0.4c-0.3-0.4-0.6-0.9-0.9-1.3c-0.1-0.2-0.3-0.4-0.4-0.5
						c-0.3-0.5-0.7-0.9-1.1-1.4c-5.7-7.3-12.5-13.7-20.2-18.8c-1-0.7-2.1-1.3-3.1-1.9c-1.5-0.9-3.3-1.2-5-0.9c0,0-0.1,0-0.1,0
						c-0.6,0.2-1.1,0.4-1.6,0.8c-0.9,0.7-1.5,1.7-1.5,2.8C114.3,444,119.8,447.6,122.4,449.2z"/>
					<path class="st16" d="M140.3,479.7c3.3,2,6.6,4.1,10.1,5.8c1.8,0.9,3.7,1.7,5.6,2.4c0.4,0.1,1.2,0.3,2,0.6
						c0.1,0,0.3,0.1,0.4,0.1l0.2,0.1c0.6,0.1,1.1,0.3,1.6,0.7c-0.7-1.1-1.5-2.1-2.4-3.2c-0.1-0.2-0.3-0.4-0.5-0.6
						c-0.1-0.2-0.3-0.3-0.4-0.5c-4.1-4.9-8.9-9.2-14.2-12.8c-0.8-0.5-1.6-1-2.4-1.5c-1.1-0.7-2.5-0.9-3.8-0.7c-0.1,0-0.1,0-0.2,0.1
						c-0.6,0.2-1.1,0.5-1.5,0.9c-0.5,0.5-0.8,1.1-0.8,1.8C134.1,475.7,138.3,478.5,140.3,479.7z"/>
					<path class="st16" d="M37.9,57.3c0.3,0.9,0.7,1.8,1,2.6c3.2,7.8,6.4,15.6,9.5,23.4c1.2,3,4.8,9.6,7.1,15
						c0.1,0.2,0.2,0.4,0.3,0.6c1,2.6,1.7,4.8,1.6,6.3c0.1-1.5,0.2-3,0.3-4.4c0-0.4,0.1-0.7,0.1-1.1c1.5-21.9,3.7-43.2,3.1-65.6
						c-0.2-7.2-0.7-14.7-3.5-21.5S48.5-0.2,42.6,0c-0.7,0-1.3,0.1-1.9,0.3c-0.5,0.1-0.9,0.3-1.4,0.5c-5.3,2.6-8,10.8-8.3,18.5
						C30.4,32.3,33.2,44.9,37.9,57.3z"/>
					<path class="st16" d="M60.3,138.2c0-1.4,0.1-2.8,0.2-4.2l0.1-0.4c0.2-1.3,0.5-2.5,0.8-3.7c3-11.5,11.7-23.5,17.5-32.4
						C86,86.4,89.3,78.7,92,65.7c0.9-4.3,1.6-9,0-13.1c-1.2-2.9-3.7-5-6.7-5.7c-0.5-0.1-1-0.2-1.5-0.1c-0.8,0-1.6,0.2-2.4,0.6
						c-3,1.4-4.4,4.9-5.4,8c-7.5,22.5-14.5,46.7-15.6,70.8c-0.1,1.2-0.1,2.4-0.1,3.6c0,0.3,0,0.6,0,0.9
						C60.2,133.1,60.2,135.6,60.3,138.2z"/>
					<path class="st16" d="M65.8,172.3c-0.1,0.7-0.2,1.3-0.3,2c0.1-0.6,0.2-1.1,0.3-1.7c0,0,0-0.1,0-0.1c0.7-3,1.8-5.9,3.3-8.7
						c5.2-10,14.7-19.4,21.3-26.7c8.8-9.7,13.2-16.9,18-29.2c1.6-4.1,3-8.6,2-12.9c-0.5-2.2-1.8-4.2-3.6-5.5
						c-0.4-0.3-0.9-0.6-1.4-0.8c-1.4-0.8-3.1-0.9-4.6-0.5c-3.2,0.9-5.1,4.1-6.6,7c-11.5,21.9-22.7,45.8-27.3,70.4
						c-0.4,2.2-0.8,4.4-1.1,6.7C65.8,172.1,65.8,172.2,65.8,172.3z"/>
					<path class="st16" d="M65.5,174.5c0-0.1,0-0.2,0-0.2C65.6,174.4,65.5,174.4,65.5,174.5z"/>
					<path class="st16" d="M72.8,218.6c0.2-1.3,0.5-2.6,0.9-3.9c3.7-12.3,16-24.5,24-33.3c8.8-9.7,13.2-16.9,18-29.2
						c1.6-4.1,3-8.6,2-12.9c-0.6-2.3-1.9-4.3-3.8-5.7c-0.3-0.3-0.7-0.5-1.1-0.7c-1.4-0.8-3.1-1-4.7-0.6c-3.2,0.9-5.1,4.1-6.6,7
						c-10.7,20.4-21.3,42.6-26.3,65.5c-0.6,2.9-1.2,5.9-1.7,8.9c0,0,0,0,0,0c-0.1,0.4-0.1,0.7-0.2,1.1
						C73.1,216.1,72.9,217.4,72.8,218.6z"/>
					<path class="st16" d="M81.9,258.5c0.2-1.2,0.5-2.4,0.9-3.6c0,0,0,0,0-0.1c3-8.9,11.9-17.7,17.7-24.1c6-6.3,10.6-13.7,13.5-21.9
						c1.2-3.1,2.3-6.4,1.5-9.6c-0.4-1.8-1.6-3.4-3.1-4.5c-0.4-0.3-0.9-0.5-1.4-0.6c-0.9-0.3-1.8-0.3-2.7-0.1c-2.4,0.7-3.8,3.1-5,5.2
						c-8.2,15.6-16.2,32.4-19.9,49.9c-0.3,1.6-0.6,3.2-0.9,4.7c0,0,0,0,0,0.1c0,0.1,0,0.3-0.1,0.4C82.2,255.7,82,257.1,81.9,258.5z"
						/>
					<path class="st16" d="M91.2,293.4c0-0.3,0.1-0.6,0.1-0.8c0.2-0.8,0.4-1.6,0.6-2.4c0,0,0-0.1,0-0.1c0.9-2.8,2.2-5.4,3.9-7.8
						c4-6.2,9.8-12,13.9-16.6c6-6.3,10.6-13.7,13.5-21.9c1.2-3.1,2.3-6.4,1.5-9.6c-0.5-2.3-2.2-4.2-4.4-5.1c-0.5-0.2-1-0.3-1.5-0.3
						c-0.4,0-0.9,0.1-1.3,0.2c-2.4,0.7-3.8,3.1-5,5.3c-8.9,16.9-17.5,35.3-20.7,54.4c0,0.2-0.1,0.5-0.1,0.7c0,0,0,0.1,0,0.1
						c-0.2,1-0.3,2.1-0.4,3.1C91.2,292.8,91.2,293.1,91.2,293.4z"/>
					<path class="st16" d="M102.9,334.6c0,0,0-0.1,0-0.1c0.1-0.5,0.2-0.9,0.3-1.4c0.2-0.7,0.4-1.4,0.6-2.1c0,0,0-0.1,0.1-0.1
						c0.3-0.8,0.7-1.6,1.1-2.4c3.1-6.1,8.9-11.8,12.9-16.2c4.8-5,8.5-11,10.8-17.6c1-2.5,1.8-5.2,1.2-7.7s-3.2-4.9-5.8-4.2
						c-0.1,0-0.1,0-0.2,0.1c-1,0.4-1.9,1.1-2.5,2c-0.5,0.7-0.9,1.4-1.3,2.2c-5.1,9.8-10.2,20.2-13.6,30.9c-1.3,3.9-2.3,8-3,12
						c0,0.1,0,0.1,0,0.2c-0.2,1-0.3,1.9-0.4,2.9c-0.1,0.5-0.1,1-0.2,1.5C102.9,334.5,102.9,334.6,102.9,334.6z"/>
					<path class="st16" d="M116.9,373.7c0-0.4,0.1-0.8,0.2-1.2c0-0.1,0-0.1,0.1-0.2c1.4-6,7.5-12,11.4-16.3
						c3.7-3.9,6.6-8.6,8.4-13.7c0.7-1.9,1.4-4,1-6c-0.4-1.6-1.6-2.9-3.2-3.3c-0.4-0.1-0.9-0.1-1.3,0c-0.3,0.1-0.5,0.2-0.8,0.3
						c-1,0.8-1.8,1.8-2.3,2.9c-2.6,5-5.3,10.3-7.5,15.7c0,0,0,0.1,0,0.1c-2.5,5.8-4.3,11.9-5.4,18.1c-0.1,0.7-0.2,1.3-0.3,2
						c0,0.1,0,0.2,0,0.3C117,372.8,117,373.2,116.9,373.7z"/>
					<path class="st16" d="M128.9,405.9c0,0.1,0,0.2,0,0.3C128.9,406.2,128.9,406.1,128.9,405.9c0-0.2,0.1-0.4,0.1-0.7
						c0.3-1.2,0.8-2.4,1.5-3.5c2-3.4,5.2-6.7,7.5-9.2c2.9-3.1,5.2-6.7,6.6-10.7c0.7-1.5,1-3.1,0.7-4.7c-0.2-0.6-0.5-1.2-0.9-1.7
						c-0.4-0.4-0.8-0.7-1.3-0.8c-0.4-0.1-0.8-0.1-1.2,0c-1.1,0.5-2,1.4-2.4,2.6c-3.5,6.7-7,14-9,21.5c-0.6,2.2-1.1,4.5-1.4,6.8
						C129,405.7,128.9,405.8,128.9,405.9z"/>
					<path class="st16" d="M128.9,406.2c0,0,0,0.1,0,0.1C128.9,406.3,128.9,406.3,128.9,406.2z"/>
					<path class="st16" d="M140.8,439.1c0-0.2,0-0.3,0.1-0.5c0-0.1,0-0.2,0.1-0.3c0.6-2.8,2.5-5.7,4.6-8.2c1.5-1.8,3.1-3.4,4.4-4.8
						c2.9-3.1,5.2-6.7,6.6-10.7c0.7-1.5,1-3.1,0.7-4.7c0-0.2-0.1-0.3-0.2-0.5c-0.2-0.5-0.5-1-0.9-1.3c-0.6-0.6-1.5-0.9-2.4-0.7
						c-1.2,0.3-1.9,1.5-2.4,2.6c-4.1,7.8-8.1,16.4-9.9,25.2c-0.2,1.1-0.4,2.1-0.5,3.2c0,0.1,0,0.2,0,0.3
						C140.8,438.8,140.8,439,140.8,439.1z"/>
					<path class="st16" d="M152.7,471.8c0-0.3,0.1-0.6,0.1-0.9c0.1-0.3,0.1-0.6,0.2-0.9c0-0.1,0.1-0.2,0.1-0.3c0.4-1,0.8-2,1.4-3
						c2-3.3,5.1-6.4,7.2-8.8c2.9-3.1,5.2-6.7,6.6-10.7c0.7-1.5,1-3.1,0.7-4.7c0-0.2-0.1-0.4-0.2-0.5c-0.2-0.5-0.6-1-1-1.4
						c-0.6-0.6-1.5-0.8-2.3-0.6c-1.1,0.5-2,1.4-2.4,2.6c-3.5,6.4-6.4,13.1-8.6,20c-0.7,2.2-1.2,4.5-1.6,6.8c0,0.1,0,0.2-0.1,0.3
						c-0.1,0.4-0.1,0.8-0.2,1.1C152.8,471.2,152.8,471.5,152.7,471.8z"/>
					<g transform="translate(4.606 0.315)">
						<g transform="translate(51.161 97.96)">
							<path class="st16" d="M113.9,414.4L113.9,414.4c0.6-0.2,0.8-0.8,0.6-1.3c0,0,0,0,0,0C76.1,323.4,10.6,150.8,2,0.9
								C2,0.4,1.5,0,0.9,0C0.4,0,0,0.5,0,1c8.6,150.1,74.2,323.1,112.6,412.8C112.8,414.3,113.4,414.5,113.9,414.4z"/>
						</g>
						<g transform="translate(34.716)">
							<path class="st16" d="M18.1,98.6c0-0.1,0-0.2,0-0.3c0-0.2,0-0.4,0-0.6c0.4-18.8-1.2-37.7-4.9-56.2C10.6,27.3,6.6,13.4,1.4,0
								C0.9,0.1,0.4,0.3,0,0.5c5.3,13.6,9.3,27.6,11.9,41.9c3.5,18,5.1,36.3,4.7,54.7c0,0.4,0,0.8,0,1.2c0,0.1,0,0.2,0,0.4
								C16.6,99.7,18.1,99.5,18.1,98.6z"/>
						</g>
						<g transform="translate(0 83.991)">
							<path class="st16" d="M0,0.6C1.6,2,3.3,3.4,4.9,4.8c6.3,5.4,12.6,10.9,18.6,16.6c11.5,10.8,21.6,23,30.2,36.3
								c0.5,0.8,1,1.6,1.5,2.3c0,0.1,0.1,0.1,0.1,0.2c0.1,0.2,0.2,0.4,0.4,0.6c0.5,0.8,1.7,0,1.2-0.9c-0.7-1.1-1.3-2.1-2-3.2
								l-0.1-0.2c-0.2-0.3-0.4-0.6-0.6-1c-8.5-12.9-18.5-24.7-29.7-35.3C18.2,14.3,11.7,8.7,5.1,3.1C4,2,2.8,1,1.6,0
								C1,0.2,0.5,0.3,0,0.6z"/>
						</g>
						<g transform="translate(0.81 136.749)">
							<path class="st16" d="M0,0.5c7,4.4,13.5,9.8,20.2,14.2c7.1,4.6,13.9,9.7,20.2,15.4c6.8,6.1,13.5,12.3,20.2,18.5c0,0,0,0,0,0
								c0.3,0.3,0.7,0.2,1,0c0,0,0.1-0.1,0.1-0.1c0.2-0.3,0.2-0.8-0.1-1c-0.5-0.4-0.9-0.8-1.4-1.2c0,0,0,0,0,0
								c-0.2-0.2-0.4-0.4-0.6-0.5c-6.3-5.8-12.6-11.6-19-17.3c-6.6-5.8-13.6-11-21-15.8C13.7,8.6,7.9,4,1.8,0C1.5,0,1.3,0.1,1,0.2
								C0.7,0.3,0.3,0.4,0,0.5z"/>
						</g>
						<g transform="translate(11.376 192.178)">
							<path class="st16" d="M0,1c7.4,3.2,13.9,7.7,20.5,12.3c7.2,5.1,14.4,10.2,21.3,15.6c3.4,2.7,6.7,5.4,10,8.3
								c3.1,2.7,6.5,5.5,9.1,8.7c0,0,0,0,0,0c0.1,0.1,0.2,0.2,0.3,0.4c0,0.1,0.1,0.1,0.1,0.2c0.2,0.2,0.4,0.3,0.7,0.3
								c0,0,0.1,0,0.1,0c0.4-0.1,0.7-0.4,0.6-0.8c0-0.1-0.1-0.2-0.1-0.3c-0.7-1-1.5-1.9-2.3-2.7c0,0,0,0,0,0
								c-1.1-1.1-2.3-2.2-3.5-3.3c-0.9-0.8-1.7-1.5-2.6-2.3c-3.3-3-6.8-5.9-10.3-8.6c-7-5.6-14.3-10.8-21.6-15.9C15.6,8,9,3.3,1.5,0
								C1,0.3,0.5,0.6,0,1z"/>
						</g>
						<g transform="translate(28.772 240.263)">
							<path class="st16" d="M0,1.3c18.5,10.5,36.8,21.5,52.6,35.8c0.2,0.2,0.4,0.4,0.6,0.6c0,0,0.1,0,0.1,0.1
								c0.2,0.2,0.4,0.4,0.6,0.6c0.3,0.3,0.7,0.2,1-0.1c0.1-0.1,0.1-0.1,0.1-0.2c0.1-0.1,0.1-0.3,0.1-0.4c0-0.2-0.1-0.4-0.2-0.5
								c-0.1-0.1-0.2-0.2-0.3-0.3c-0.7-0.6-1.3-1.2-2-1.8c0,0,0,0-0.1-0.1C36.9,21.1,19,10.3,0.8,0C0.5,0.4,0.2,0.8,0,1.3z"/>
						</g>
						<g transform="translate(43.633 279.612)">
							<path class="st16" d="M0,0.7c7.6,4.8,15,10.1,22.3,15.4c9.9,7,19.2,14.9,27.7,23.6c0,0,0.1,0.1,0.1,0.1
								c0.1,0.1,0.1,0.1,0.2,0.2c0.3,0.3,0.6,0.6,0.8,0.9c0.2,0.3,0.6,0.3,0.9,0.1c0.1-0.1,0.1-0.1,0.1-0.2c0-0.1,0.1-0.1,0.1-0.2
								c0,0,0-0.1,0-0.1c0-0.1,0-0.1,0-0.2c0-0.1,0-0.3-0.1-0.4c0,0-0.1-0.1-0.1-0.1c0,0,0,0,0,0c-0.6-0.6-1.1-1.2-1.7-1.8
								c-0.4-0.4-0.8-0.8-1.2-1.2c0,0-0.1-0.1-0.1-0.1C40.9,28.4,32,21,22.6,14.4C15.7,9.5,8.8,4.6,1.7,0C1.1,0.2,0.5,0.4,0,0.7z"/>
						</g>
						<g transform="translate(60.422 323.052)">
							<path class="st16" d="M0,0.9c16.2,9.5,30.8,21.5,45.1,33.5l0.2,0.1c0.1,0.1,0.3,0.2,0.4,0.3s0.3,0.3,0.5,0.4
								c0.2,0.2,0.4,0.2,0.6,0.2c0,0,0,0,0.1,0c0.3-0.1,0.5-0.3,0.5-0.6c0.1-0.2,0-0.5-0.2-0.7l0,0c-0.9-0.7-1.8-1.5-2.7-2.2
								c-0.1,0-0.1-0.1-0.2-0.1c-0.1-0.1-0.2-0.1-0.3-0.2C30.4,20.2,16.6,9,1.4,0C0.9,0.2,0.4,0.5,0,0.9z"/>
						</g>
						<g transform="translate(71.117 355.494)">
							<path class="st16" d="M0,1c6.2,3,12.3,6.5,18,10.4c9.4,6.6,18.1,14.4,27,21.8c0.1,0.1,0.1,0.1,0.2,0.2
								c0.3,0.2,0.6,0.5,0.9,0.7c0.2,0.2,0.5,0.2,0.8,0.1c0.2-0.1,0.4-0.3,0.4-0.5c0-0.1,0-0.3,0-0.4c0,0,0-0.1,0-0.1
								c0-0.1-0.1-0.2-0.2-0.3c0,0,0,0,0,0c-0.9-0.8-1.8-1.5-2.8-2.3c-0.1-0.1-0.1-0.1-0.2-0.2C35.6,23.4,27.3,16,18.2,9.7
								C12.8,6.1,7.1,2.9,1.3,0C0.8,0.3,0.4,0.6,0,1z"/>
						</g>
						<g transform="translate(89.859 395.526)">
							<path class="st16" d="M0,0.9c14.3,7.8,27.4,17.5,39,28.9c0.2,0.2,0.4,0.4,0.6,0.6c0.1,0.1,0.2,0.2,0.3,0.3
								c0.2,0.2,0.4,0.4,0.6,0.6c0.7,0.7,1.6-0.5,1-1.2c-0.9-0.9-1.9-1.9-2.8-2.8c-0.1-0.1-0.2-0.2-0.2-0.2
								c-0.1-0.1-0.1-0.1-0.2-0.2C27.2,16.4,14.8,7.4,1.4,0C0.9,0.2,0.4,0.6,0,0.9z"/>
						</g>
						<g transform="translate(111.355 436.59)">
							<path class="st16" d="M0,0.8c11,6.3,21.1,14.1,30.1,23c0.7,0.7,1.3,1.4,2,2.1c0.1,0.1,0.2,0.2,0.3,0.3
								c0.2,0.2,0.4,0.5,0.6,0.7c0.3,0.3,0.8,0.4,1.1,0.1c0.2-0.1,0.3-0.3,0.3-0.6c0-0.1,0-0.2-0.1-0.3c0,0,0-0.1-0.1-0.1
								c-1.1-1.2-2.2-2.3-3.3-3.4l-0.3-0.3c-0.3-0.3-0.6-0.6-0.8-0.8C21.4,13.2,11.8,6,1.6,0C1,0.2,0.5,0.4,0,0.8z"/>
						</g>
						<g transform="translate(130.417 469.927)">
							<path class="st16" d="M0,0.9c8.6,4.5,16.4,10.3,23.1,17.3c0.2,0.2,0.4,0.4,0.6,0.7c0.1,0.1,0.2,0.3,0.4,0.4
								c0.3,0.3,0.6,0.6,0.8,0.9c0.3,0.3,0.8,0.3,1.2,0c0.1-0.1,0.2-0.2,0.2-0.4c0-0.2,0-0.4-0.2-0.6L26,19.2c-1-1.1-2-2.2-3.1-3.3
								c-0.1-0.1-0.2-0.2-0.4-0.4c-0.1-0.1-0.2-0.2-0.3-0.3C16,9.2,9.1,4,1.5,0C0.9,0.2,0.4,0.5,0,0.9z"/>
						</g>
						<g transform="translate(147.736 440.346)">
							<path class="st16" d="M0.5,30.3C0.5,30.3,0.5,30.3,0.5,30.3c0.2,0.1,0.4,0.1,0.6,0c0.1,0,0.1-0.1,0.1-0.1
								c0.1-0.1,0.2-0.3,0.2-0.4c0.2-1.2,0.4-2.4,0.8-3.6C4.2,20.1,8.3,15,11.9,9.8c1.8-2.7,3.4-5.4,4.8-8.3c-0.2-0.5-0.6-1-1-1.4
								C13.8,3.9,11.6,7.7,9,11.2c-2.6,3.4-4.8,7-6.7,10.8c-0.9,1.8-1.6,3.8-2,5.7c0,0.1,0,0.2-0.1,0.3C0.2,28.5,0.1,29,0,29.4
								C-0.1,29.8,0.2,30.1,0.5,30.3z"/>
						</g>
						<g transform="translate(135.071 407.726)">
							<path class="st16" d="M1.4,31.2L1.4,31.2L1.5,31c1.4-3,2.9-6,4.4-8.9c3.6-7.1,7.4-14,11.5-20.8c-0.2-0.5-0.5-1-0.9-1.3
								C11.1,8.8,6.2,17.8,1.8,27.1c-0.3,0.7-0.7,1.3-1,2c0,0.1-0.1,0.1-0.1,0.2c-0.2,0.4-0.4,0.8-0.6,1.3c-0.2,0.4,0,0.8,0.4,1
								C0.8,31.7,1.2,31.6,1.4,31.2z"/>
						</g>
						<g transform="translate(122.977 374.328)">
							<path class="st16" d="M1.2,31.2c0,0,0.1-0.1,0.1-0.1C1.3,31,1.4,31,1.4,30.9c0,0,0,0,0,0c0-0.1,0-0.1,0.1-0.2
								c0.4-1.2,0.9-2.4,1.5-3.5c2.3-5.1,5.5-9.8,8.3-14.6c1.8-2.9,3.3-6,4.6-9.1c0.1-0.3,0.5-1.3,0.9-2.6C16.4,0.4,16,0.2,15.5,0
								c-1,2.8-2.2,5.6-3.5,8.3C9.1,13.7,5.6,18.7,2.8,24c-0.8,1.6-1.6,3.3-2.3,4.9c0,0.1-0.1,0.1-0.1,0.2c-0.1,0.3-0.3,0.7-0.4,1
								c-0.1,0.4,0.1,0.9,0.5,1C0.8,31.3,1,31.3,1.2,31.2z"/>
						</g>
						<g transform="translate(110.592 332.51)">
							<path class="st16" d="M0.2,40.3c0.3,0.3,0.8,0.3,1.1-0.1c0.1-0.1,0.1-0.2,0.2-0.3c0.1-0.3,0.2-0.6,0.2-0.9
								c0-0.1,0-0.1,0.1-0.2c0.1-0.5,0.3-1.1,0.4-1.6c2.2-7.3,5.4-14.4,8.5-21.4c2.4-5.6,5.4-10.9,8.9-15.8c-0.4-0.1-0.9-0.1-1.3,0
								c-0.3,0.1-0.5,0.2-0.8,0.3c-3.2,4.7-5.9,9.6-8.1,14.8c-0.6,1.3-1.2,2.6-1.7,3.8c0,0,0,0.1,0,0.1C5.1,24.8,2.8,30.5,1,36.4
								c0,0.1,0,0.1-0.1,0.2c-0.3,1-0.6,2.1-0.9,3.1c0,0,0,0.1,0,0.1C0,40,0,40.2,0.2,40.3z"/>
						</g>
						<g transform="translate(98.401 282.51)">
							<path class="st16" d="M0.1,50.2c0,0,0,0.1,0.1,0.1c0.3,0.3,0.9,0.3,1.1-0.1c0,0,0.1-0.1,0.1-0.1c0,0,0-0.1,0.1-0.1
								c0-0.1,0-0.2,0.1-0.3c0.1-1.4,0.2-2.7,0.4-4.1c1.7-10.3,7.7-19.4,11.9-28.9c2.4-5.6,4.6-11.2,7.1-16.8c-1,0.4-1.9,1.1-2.5,2
								c-2.1,5-4.1,10-6.3,15C9.4,23,6,28.9,3.5,35.1C2,38.7,0.9,42.5,0.3,46.4c0,0.1,0,0.1,0,0.2C0.2,47.7,0,48.8,0,49.9
								C0,50,0,50.1,0.1,50.2z"/>
						</g>
						<g transform="translate(86.102 228.46)">
							<path class="st16" d="M0.6,63.7C0.6,63.7,0.6,63.7,0.6,63.7c0.4,0.1,0.7,0,0.8-0.4c0,0,0,0,0,0l0.2-0.5c0,0,0-0.1,0-0.1
								c1.2-3.1,2.3-6.2,3.5-9.3c1.8-4.9,3.7-9.9,5.5-14.8c1.4-3.8,2.9-7.5,4.7-11.2c1.9-3.8,4.4-7.3,6.6-10.9
								c3.2-5.1,5.4-10.7,7.6-16.3c-0.5-0.2-1-0.3-1.5-0.3c-1.6,4.3-3.4,8.6-5.6,12.7c-2.3,4-5.1,7.8-7.3,11.8
								c-2,3.7-3.7,7.5-5.2,11.4c-3,7.9-6,15.9-8.9,23.9C1.1,60,1,60.1,1,60.3c0,0,0,0.1,0,0.1l-0.9,2.3
								C-0.1,63.1,0.1,63.6,0.6,63.7C0.5,63.7,0.5,63.7,0.6,63.7z"/>
						</g>
						<g transform="translate(76.926 193.754)">
							<path class="st16" d="M0.9,60.3c0.1,0,0.1,0,0.1,0c0,0,0,0,0,0c0.2-0.1,0.3-0.2,0.3-0.4c5.9-13.8,12.4-27.3,19.3-40.6
								C23.9,13,27.3,6.8,30.8,0.6c-0.4-0.3-0.9-0.5-1.4-0.6c-2.2,4-4.4,8-6.6,12c-7.5,14.1-14.5,28.4-21,43.1c-0.4,1-0.9,2-1.3,3
								c0,0,0,0,0,0l-0.5,1.1c-0.2,0.4,0,0.8,0.4,1C0.6,60.3,0.8,60.3,0.9,60.3z"/>
						</g>
						<g transform="translate(67.517 132.602)">
							<path class="st16" d="M1.2,82c0.2-0.1,0.3-0.3,0.3-0.4c2.1-9.1,6.9-17.2,11-25.4c4.3-8.6,7.6-17.6,12.2-26.1
								c5.3-10,11.2-19.7,17.2-29.3c-0.3-0.3-0.7-0.5-1.1-0.7c-0.8,1.3-1.6,2.6-2.4,3.9C33,12.6,27.6,21.2,22.8,30.2
								c-4.6,8.8-8,18.1-12.6,26.9C7.8,62,5.1,66.9,3,72c-0.8,2-1.6,4.1-2.2,6.2c0,0,0,0,0,0c-0.3,1-0.6,2-0.8,3
								c-0.1,0.4,0.2,0.8,0.6,0.9C0.8,82.1,1,82.1,1.2,82z"/>
						</g>
						<g transform="translate(54.592 46.47)">
							<path class="st16" d="M1.1,91.5c0.2-0.1,0.3-0.3,0.3-0.5c0.1-0.6,0.1-1.2,0.2-1.8c0-0.2,0-0.3,0-0.5C1.8,86.8,2,84.9,2.2,83
								c0.5-5.5,1.7-11,3.4-16.3c1.2-3.6,2.9-7.1,4.2-10.6c1.4-3.8,2.5-7.7,3.6-11.5c2.4-8.3,4.8-16.7,7.2-25
								c1.8-6.5,3.8-12.9,5.5-19.4C25.6,0,25.1,0,24.6,0C20,16.2,15.5,32.3,10.7,48.4C8.5,55.9,5,62.8,3,70.2c-0.8,3-1.4,6-1.8,9.1
								C1.1,80,1,80.7,0.9,81.4c0,0.2,0,0.3-0.1,0.5c-0.3,2.9-0.6,5.8-0.8,8.8c0,0.4,0.3,0.8,0.8,0.9C0.9,91.6,1,91.6,1.1,91.5z"/>
						</g>
						<g transform="translate(59.767 88.214)">
							<path class="st16" d="M1.2,86c0.2-0.1,0.3-0.3,0.3-0.5c0-0.3,0.1-0.5,0.1-0.8c0-0.1,0-0.1,0-0.1c0.7-3.2,1.7-6.3,3.2-9.3
								c1.1-2.4,2.3-4.8,3.4-7.1C15.5,52.5,23.6,37.3,31.7,22c2.7-5,5.4-9.9,8-15c1-2,2-4.1,2.8-6.2c-0.4-0.3-0.9-0.6-1.4-0.9
								c-1,2.7-2.2,5.4-3.6,8c-7,13.3-14.2,26.6-21.1,40c-3.9,7.6-7.7,15.2-11.2,22.9c-0.9,2-1.9,4-2.8,6.1C2,78.2,1.5,79.5,1,80.8
								c0,0,0,0.1,0,0.1c-0.5,1.4-0.8,2.8-1,4.3c0,0.4,0.3,0.8,0.7,0.9C0.9,86.1,1,86.1,1.2,86z"/>
						</g>
					</g>
				</g>
				<g transform="translate(-3333.615 -6942.912)">
					<path class="st16" d="M13.8,40.6c-0.1,0-0.2,0-0.3-0.1c-2.5-2.3-4.8-5-6.7-7.9c-0.1-0.1-0.1-0.2-0.2-0.3
						c-0.1-0.2-0.1-0.4,0.1-0.5c0,0,0,0,0.1,0l2.3-0.9c0.2-0.1,0.3-0.3,0.2-0.5c-0.1-0.2-0.2-0.3-0.4-0.2L6,30.6
						c-0.2,0-0.3,0-0.4-0.2c-2.3-4.1-3.9-8.5-4.8-13.2c0-0.2,0.1-0.4,0.3-0.4c0,0,0,0,0,0c2-0.3,4.2-0.6,5.5-0.8
						c0.2,0,0.3-0.2,0.3-0.4c0-0.1-0.1-0.2-0.2-0.3l-6.3-2.9c-0.1-0.1-0.2-0.2-0.2-0.3c-0.3-4,0-8,0.8-11.8C1,0.1,1.2,0,1.4,0
						C3.2,0.4,5,0.9,6.8,1.6C6.9,1.6,7,1.7,7,1.8l0.9,2.7C8,4.7,8.2,4.9,8.4,4.8c0.1,0,0.2-0.2,0.3-0.3l0.3-1.6
						c0-0.2,0.2-0.3,0.4-0.3c0,0,0.1,0,0.1,0c5.2,2.3,9.9,5.6,13.8,9.7c0.1,0.1,0.1,0.2,0.1,0.4l-2,5.7c-0.1,0.2,0,0.4,0.2,0.5
						c0.1,0.1,0.3,0,0.4-0.1l3-3.9c0.1-0.2,0.4-0.2,0.5-0.1c0,0,0,0,0.1,0.1c0.6,0.8,1.3,1.6,1.8,2.4c3.3,4.8,5.6,10.1,6.8,15.8
						c0.9,4.4,1.5,9.6,0.7,14.1c-0.8,4.7-4.3,3.1-7.9,1.7c-4-1.6-7.8-3.8-11.2-6.5c-0.2-0.1-0.2-0.4-0.1-0.5
						c0.1-0.1,0.1-0.1,0.2-0.1c1-0.2,2-0.4,3-0.5c0.2,0,0.3-0.2,0.3-0.4c0-0.2-0.2-0.3-0.4-0.3L13.8,40.6z"/>
					<path class="st16" d="M6.9,32.6l-0.2-0.2c-0.1-0.2-0.1-0.4,0.1-0.5c0,0,0,0,0.1,0l2.2-0.9c0.2-0.1,0.3-0.3,0.2-0.5
						c-0.1-0.2-0.2-0.3-0.4-0.2L6,30.6c-0.2,0-0.3-0.1-0.4-0.2c-2.3-4.1-3.9-8.5-4.8-13.2c0-0.2,0.1-0.4,0.3-0.4c0,0,0,0,0,0
						c2-0.3,4.1-0.6,5.4-0.8c0.2,0,0.3-0.2,0.3-0.4c0-0.1-0.1-0.2-0.2-0.3l-6.3-2.9c-0.1-0.1-0.2-0.2-0.2-0.3
						c-0.3-3.8,0-7.5,0.7-11.2C0.9,0,1-0.4,1.8,0.7l32.5,47.7c0.1,0.1,0.1,0.3,0,0.4c-1.3,2.7-4.3,1.3-7.4,0.1
						c-4-1.6-7.8-3.8-11.1-6.5c-0.2-0.1-0.2-0.4-0.1-0.5c0.1-0.1,0.1-0.1,0.2-0.1c0.9-0.2,1.9-0.4,2.8-0.5c0.2,0,0.3-0.2,0.3-0.4
						c0-0.2-0.2-0.3-0.4-0.3l-4.9,0.1c-0.1,0-0.2,0-0.3-0.1C11,38.1,8.8,35.5,6.9,32.6z"/>
				</g>
			</g>
		</g>
	</g>
</g>
</svg>
