<svg id="Layer_1" data-name="Layer 1" xmlns="http://www.w3.org/2000/svg" xmlns:xlink="http://www.w3.org/1999/xlink" viewBox="0 0 1400 1005"><defs><style>.cls-1{fill:none;}.cls-2{clip-path:url(#clip-path);}.cls-3{fill:#f9f9f9;}.cls-4{fill:#f2e9e9;}.cls-5{fill:#fac6ba;}.cls-6{fill:#f6955d;}.cls-7{fill:#f36d80;}.cls-8{fill:#272c4d;}.cls-9{fill:#7b84af;}.cls-10{opacity:0.49;}.cls-11{fill:#606060;}.cls-12{opacity:0.48;}.cls-13{fill:#fdd9d6;}.cls-14{fill:#fff;opacity:0.62;}.cls-14,.cls-16{isolation:isolate;}.cls-15{clip-path:url(#clip-path-2);}.cls-16{fill:#ea6f0b;opacity:0.32;}.cls-17{opacity:0.18;}.cls-18{fill:#e5bbbb;}</style><clipPath id="clip-path"><rect class="cls-1" width="1400" height="1005"/></clipPath><clipPath id="clip-path-2"><path class="cls-1" d="M1400,16h0c-332.54,0-346.81,61.23-397.86,114.56C953.2,187.28,874.69,262.05,821.25,302.08c-132.06,98.93-227.52-80.2-360-32.38-30,10.83-53.17,34.45-78.16,54.27-43.89,34.81-157.73,84.44-179.54-1.9-4.35-17.21-1.45-35.68-6.19-52.79-7.72-27.85-37.45-49.57-66.28-42.81-13,3.05-23.64,7.84-37.29,9-18.54,1.61-36.28,3.43-50.67,16.7-17.5,16.13-21.75,41.56-29.76,64-18.63,52.11-60.9,92.75-82.06,143.89C-89.52,510.45-88.25,568-74.16,620.64-62,666-35.8,704.09-20.89,747.82q1.25,3.67,2.42,7.21C5.34,826.93,50.67,884.6,86.34,950.89c21.32,39.64,42.14,80.42,67.26,118H1400Z"/></clipPath></defs><g class="cls-2"><rect class="cls-3" width="1400.33" height="383.05"/><path class="cls-4" d="M1400,16h0c-332.54,0-346.81,61.23-397.86,114.56-48.95,56.76-127.45,131.53-180.89,171.56-132.06,98.93-227.52-80.2-360-32.38-30,10.83-53.17,34.45-78.16,54.27-43.89,34.81-157.73,84.44-179.54-1.9-4.35-17.21-1.45-35.68-6.19-52.79-7.72-27.85-37.45-49.57-66.28-42.81-13,3.05-23.64,7.84-37.29,9-18.54,1.61-36.28,3.43-50.67,16.7-17.5,16.13-21.75,41.56-29.76,64-18.63,52.11-60.9,92.75-82.06,143.89C-89.52,510.45-88.25,568-74.16,620.64-62,666-35.8,704.09-20.89,747.82q1.25,3.67,2.42,7.21C5.34,826.93,50.67,884.6,86.33,950.89c21.33,39.64,42.15,80.42,67.27,118H1400Z"/><path class="cls-5" d="M12,296.35c2.92,32.89-13.54,66.26-35.17,90C-34.5,398.76-47.32,410-57.6,423.38a150.41,150.41,0,0,0-21.85,40.74c-10.4,29-13.19,60.25-10.06,90.81,3.27,32,14,61.84,28.25,90.53,9,18.18,19,35.85,28.83,53.62,5,9,9.89,18.09,14.59,27.26,4.57,8.91,9.54,18,12,27.74,1.24,4.83-5.21,7.37-7.88,3.33-4.95-7.53-8.53-15.94-12.61-24-4.25-8.35-8.68-16.61-13.18-24.83-8.69-15.9-17.63-31.66-26-47.74C-80.57,631.69-93.28,601.62-98.36,569c-4.74-30.42-4.15-62,3.83-91.87a176.29,176.29,0,0,1,17.45-42.53c8.15-14.13,18.81-26.12,30.38-37.52,13.81-13.6,27.5-27,36.71-44.3,9.48-17.79,12.81-36.54,14.63-56.38a3.69,3.69,0,0,1,7.38,0Z"/><path class="cls-6" d="M91.53,406.37c.64-1.94,1.29-3.86,2-5.78,7.2-21.07,12.68-45.53,9.72-67.92-3.1-23.41-21.08-22-36.83-10-13.38,10.21-22,28.33-31.28,42C27,376.51,18.81,388.58,14.23,402.2,7.65,421.78,6.1,458.43,22.87,474c6.74,6.25,19.58,9.85,27.78,13.85,15.15,7.4,32.29,9.54,48,15.57,10.18,3.92,25.49,11.6,27.5-5.32,1.38-11.6-12.55-19.77-19.87-26.57-11.6-10.77-20.57-19.28-20.46-36.62C85.85,425.15,88.47,415.66,91.53,406.37Z"/><path class="cls-6" d="M163.46,345.75c-.12.74-.26,1.48-.41,2.21-1.79,8.6-10.6,2.35-15.87,4.69-2.2,1-2.65,3.87-2.56,6.27.06,1.6.3,3.5-.29,5-.78,2-2.55,2.41-3.63,4.05-2.08,3.15-.24,6.43-4.9,7.49-1.76.4-3.71.54-5,1.77s-1.61,3.56-1.76,5.54c-.8,10.94-11.51,5.69-18,4.18a53.14,53.14,0,0,1-16.16-7c-4.41-2.8-6.7-9-8.76-13.64a89,89,0,0,1-7.22-27.95c-.73-8.16-3.58-15.26-3.37-23.61.63-24.42,14-48.78,35.73-60,.67-.34,1.34-.67,2-1,16.59-7.69,40-7.95,55.3,3,6,4.31,6.22,10.9,6,17.77-.42,11.23-3.78,21.94-7.15,32.56C163.33,319.88,165.61,332.83,163.46,345.75Z"/><path class="cls-7" d="M107.8,319.57c5.92-1.61,12.63,1.8,15.32,7.32,4.64,9.56-2.49,17.14-12.44,15.7-4.92-.72-9.67-4-11.12-8.72C97.76,328,101.87,321.19,107.8,319.57Z"/><path class="cls-8" d="M138.2,311.37a5.18,5.18,0,0,0-1.47-1.62,1.53,1.53,0,0,0-2,.25,2.1,2.1,0,0,0-.05,1.75,17,17,0,0,0,13.4,11.76c1.35.21,4.59.17,4.61-1.91,0-1.53-3.29-1.81-4.38-2.24A22.58,22.58,0,0,1,138.2,311.37Z"/><path class="cls-4" d="M90.7,218.69c26.77,2.23,54.82,7,78.31,20.7A92.19,92.19,0,0,1,195.38,262c8,10.23,12,21.86,15.32,34.25,6.63,24.8,18.43,47.93,44.94,55.41,12.24,3.46,25.08,3.74,37.72,4,14.21.31,28.51.58,42.67-1a108.77,108.77,0,0,0,39.62-11.94c11.65-6.23,22.36-14,33.69-20.77a173.73,173.73,0,0,1,71.58-23.49,170.73,170.73,0,0,1,75,9.11c25.34,9.2,47.93,24.1,69.9,39.45,26,18.16,52.16,35.82,79.79,51.43q20.52,11.58,41.71,21.93c14.64,7.15,30,13,44.21,21,4.17,2.33,1.36,9-3.25,7.71-13.69-3.86-26.59-10.31-39.41-16.41q-18.72-8.93-37-18.82a785,785,0,0,1-72.09-44.35c-22.21-15.35-43.92-31.75-68.16-43.85A164.34,164.34,0,0,0,496.19,308a162.06,162.06,0,0,0-74.06,18.65c-23.5,12.52-43.56,30-70.2,35.89-13.42,2.94-27.22,3.68-40.92,3.68-13.29,0-26.78,0-40-1.45-12.12-1.31-24.26-4-34.79-10.4-10.29-6.25-18.45-15.57-24.29-26-7-12.54-9.53-26.29-13.84-39.82a69.21,69.21,0,0,0-22.79-32.9c-24.32-19.79-56-23.19-85.65-29.21-4.32-.88-3.42-8.14,1-7.77Z"/><path class="cls-9" d="M264.84,858.48c-11.53,14.24-8.12,31.19-5.22,49.24q2.88,17.94,5.28,35.95c5.14,38.82,12.32,82,14.62,125.23H-40.08a375.07,375.07,0,0,1-5.07-85.63c3.72-72.11,17.06-162.76,59.61-221.51,17.9-24.72,34-61.42,19.66-91.18-9.8-20.32-23.82-40-34.23-60.58-13.82-27.27-24.95-56.32-28.4-86.7s1.24-62.3,17.16-88.4c15-24.63,46.63-22.68,70.36-11,20.64,10.18,36.33,26.35,56.14,37.63,18.82,10.7,39.42,17.82,58.27,28.46,22.62,12.76,43.78,37.71,40.29,65.25-4.55,35.92-24.37,61.7,13.71,83.36,29.88,17,58.26,36.55,70.76,70.15,13.29,35.7,12,76.39-4.15,111C286.57,835.68,275.43,845.4,264.84,858.48Z"/><path class="cls-6" d="M232,922.08a2.83,2.83,0,0,0,2.75,0c1.73-1.11-2.2-10.5-2.65-11.85-.93-2.82-2.84-5.22-3.67-8.05-.65-2.21-1.38-4-.82-6.27,3.9.2,6.42,6.46,8.61,9a59.61,59.61,0,0,0,9.61,9.64c2,1.46,4.14,2.86,6.58,3a5.53,5.53,0,0,0,3.2-.78c.69-.44.93-1.47,1.42-1.79,1.48-1,2.18.88,3.6,1.26a5.17,5.17,0,0,0,4.9-1.31c2.19-2.35,2.08-6.1.86-9.08s-3.35-5.46-4.94-8.25c-.51-.89-3.53-8.08-1.19-7.77,1.12.15,2.09,3.54,3,4.28,1.74,1.4,4.68,1.56,6-.26.86-1.21.74-2.85.51-4.33-2.35-15.08-11.83-28-21.66-39.69-34-40.41-76.79-75.49-97-124.32-2.89-7-5.34-14.3-9.78-20.42s-11.46-11-19-10.59c-7.2.39-13.23,5.34-18.7,10.05L85.18,720.41c-2,1.75-4.22,3.81-4.32,6.48a9.56,9.56,0,0,0,1.69,5,230.66,230.66,0,0,0,69.06,75.55c13.21,9.14,32.66,19.11,37.44,35.66,5.48,19,12.78,36.92,23.39,53.68C214.79,900.46,225.43,919.31,232,922.08Z"/><g class="cls-10"><path class="cls-11" d="M251.9,872.68c-1.3.52-2.78,1.06-4,0l1.29.54a3.37,3.37,0,0,1-1.56-.36,1.4,1.4,0,0,1-.5-1.9,3.33,3.33,0,0,1,1.14-1.13l-.84,1.08c.35-1.49,2.07-1.86,3.35-2.15a2.08,2.08,0,0,1,2.52,1.43,2.11,2.11,0,0,1-1.43,2.52Z"/></g><g class="cls-10"><path class="cls-11" d="M242.57,879.52c.86,1.43,2.28,4.46,0,5.36s-3.34-2.14-3.69-3.82a2,2,0,0,1,3.66-1.54Z"/></g><path class="cls-6" d="M222.71,603.83a29.16,29.16,0,0,0-3.79-3.06c-1.83-1.24-3.63-3-5.65-3.9-5.88-2.59-14.43-1.42-20.49-.15-5.91,1.24-12.43,3.1-17.77,6-2,1.06-3.13,2.29-5.4,2.72-2.43.46-10.54-.64-11.78,1.91-1.15,2.36,3.93,7.17,5.63,8.29a11.26,11.26,0,0,0,7.13,1.91c1.86-.23,3.71-1.29,5.58-1.76s3.45-1,5.19-1.46c2.87-.67,1.93.54,0,1.63-11.8,6.9-20.72,17.65-28.61,28.59a3.87,3.87,0,0,0-1,2.67,2.59,2.59,0,0,0,2.21,2,6.74,6.74,0,0,0,3.11-.41c5.9-1.83,10.8-5.58,15.88-8.95,1.46-1,5.33-3.6,4.1-.07-.77,2.22-3.8,3.84-5.39,5.45-3.43,3.47-7.46,6.27-11,9.61-2.26,2.13-7.5,7.88-6.26,11.41,1.11,3.13,6.88,2,9,.85a9.43,9.43,0,0,1,1.94-1,1.81,1.81,0,0,1,2,.53,2.19,2.19,0,0,1,.12,1.77,19.59,19.59,0,0,0-.8,2.91c-.39,3.94,6.89,2.77,9.21,1.77,6.63-2.87,12.74-5.9,18.16-10.58.92-.8,9.8-9.08,10.91-7.57.89,1.23-2.28,6.1-3,7.23-1.36,2.28-9.93,10.44-6.68,13.44a2.88,2.88,0,0,0,2.5.34c7.29-1.36,11-5.35,15.6-10.8a130.1,130.1,0,0,0,12.36-17.3c1.51-2.53,3.08-5.15,4.52-7.7,1.88-3.3,1.9-7.19,3.35-10.62,3.33-7.93-2.94-16.07-7.62-22.08A32.56,32.56,0,0,0,222.71,603.83Z"/><g class="cls-12"><path class="cls-11" d="M122,680.07c-4.59-3.67-7.11-8.38-10-13.47q-4.79-8.33-9.44-16.73c-6-10.94-11.71-22-16.87-33.41a291.91,291.91,0,0,1-12.8-32.9c-1.9-6-3.57-12.13-4.87-18.32-1.21-5.78-2.67-11.9-1.91-17.83.22-1.79,3-3.29,4-1.08,2.22,5.17,3,10.78,4.29,16.23,1.38,5.85,3,11.67,4.72,17.41a297.87,297.87,0,0,0,13.21,34.71c4.87,10.84,10.26,21.43,15.85,31.91q4.3,8.08,8.77,16.07c3,5.38,6.07,10.22,7,16.32a1.13,1.13,0,0,1-1.87,1.09Z"/></g><g class="cls-10"><path class="cls-13" d="M198,642.38c-1,1.14-3.6,3.88-5.09,2s1.76-3.79,3.1-4.54a1.65,1.65,0,0,1,2,2.58Z"/></g><g class="cls-10"><path class="cls-6" d="M187.53,634.38c-1,1.15-3.6,3.89-5.09,2s1.76-3.78,3.1-4.53a1.64,1.64,0,0,1,2,2.57Z"/></g><path class="cls-4" d="M169.34,264.23c.18,2.74-3.57,6.89-5.07,9a79.23,79.23,0,0,1-7.16,8.88,71.44,71.44,0,0,1-17.87,14,66.66,66.66,0,0,1-22.64,7.51,63.8,63.8,0,0,1-20.82-.28c-9.93-1.9-13.73-11-21.12-.62-5.48,7.66-7,18.15-8.44,27.19-7.43,45.22-10.79,89.75,24.2,124.33,6.13,6.05,12.52,9,17,16.51a105.91,105.91,0,0,1,12.44,29.43c2.81,11.47,5,23.42,11.27,33.41,9.19,14.57,36.7,19,27.95,42.37-2.65,7.07-9.53,13-17.28,13.2,10.8-6.34-5.48-19-11.59-21.61s-13-3.92-18.66-7.44c-14.34-8.83-18-28.91-23.77-43.42-7.52-19.05-11-36-26.45-51-16.7-16.27-48.44-34.41-68-13.69-8.54,9.06-12.73,21.89-15.66,34.49C-25.18,498.7-28,512-28.17,524.72c-.17,11.82,3.7,21.94,4.08,33.86.08,2.59-.69,6-3.05,6.06-1.15,0-2.12-.91-2.94-1.79-17.55-18.74-25.75-45.75-28.84-72.34-1.22-10.42-1.74-21.05-.09-31.4s5.58-20.47,12.34-27.94c2.31-2.55,5.26-5,6.5-8.42,1.09-3,.15-4.94-.14-7.92-.69-7.15,4.36-14.7,7.61-20.61,7.72-14,17.25-27.07,22.29-42.63,8.41-26,2.81-55,8.19-81.93,8.06-40.41,42-71.85,79.45-77.93s76.5,11.44,102.25,41.75c8.57,10.09,15.93,21.76,19.47,35a58.31,58.31,0,0,1,.13,30.88,48.78,48.78,0,0,1-2.77,7.27c-.9,1.93-1.08,4.08-2.16,5.91-2.91,4.93-10.53,7.89-15.72,5-5.5-3.1-11.77-6-16.34-10.47-1.81-1.76-3.51-4-3.42-6.51.1-2.89,2.37-5,3.29-7.62s1.71-5.53,2.57-8.27A144.92,144.92,0,0,0,169.34,264.23Z"/><path class="cls-6" d="M80.3,280c-.24-.2-.49-.39-.76-.58-4.06-2.8-9.09-5.06-13.67-1.72-6.14,4.47-6.3,16.53-5.61,23.23a20.7,20.7,0,0,0,4.61,11.64,7.44,7.44,0,0,0,3.29,2.35c1.92.57,7.29.78,8.91-.48a7.8,7.8,0,0,0,2.25-4c1.82-5.73,4.6-11.42,4.56-17.55C83.85,287.81,83.88,283,80.3,280Z"/><path class="cls-14" d="M1113.26,273.72c9.57-3.42,20-3.39,30.15-3.31-10.64-17.2-1-43.26,18.28-49.4s42.21,9.56,43.47,29.75c9.65-14.1,28.9-20.78,45.21-15.71s28.38,21.5,28.34,38.58c30.68-15.8,73.24-.55,86.9,31.14,7.33-3.23,15.27-6.54,23.1-4.89s14.5,10.72,10.62,17.73c-3.2,5.77-11,6.71-17.55,7l-178.5,7c-26.24,1-72.67,7.51-96-8.21C1087.54,310,1089.19,282.33,1113.26,273.72Z"/><g class="cls-15"><path class="cls-16" d="M924.63,191.81c-20.4,47.57-5.62,107.8,34.43,140.57s102,35.35,144.65,6.06,62.52-87.95,46.48-137.15C1115.88,96.08,968.08,90.49,924.63,191.81Z"/></g><g class="cls-17"><path class="cls-18" d="M1035.37,997.74l-4,9.83c-7.41,1.7-14.86,2.62-22.36,1.54l1.4-5.86-6.64,4.71a20.49,20.49,0,0,1-7.75-4.14c-3.17-2.82-3.42-10.14-2.53-14.21,1-4.84,6.72-10.39,11.18-12.71a43.43,43.43,0,0,1,6.61-2.78l8,4.32-2.15-5.67c4.82-.7,9.3-.39,14.52-.48h.79l1.84,6.21,1.41-5.9c16,2.37,48.1,17.48,51.63,21.55-12.29,2.13-15.55,2.79-31.18,6.66-5,1.24-10.05,2.78-15.09,4.22Z"/><path class="cls-18" d="M1034.74,987.58c.09-.07,0-.18,0-.23,1,.06,2,.12,3,.2l.55.33.06,0c-1.22-.09-2.43-.17-3.65-.24Z"/><path class="cls-18" d="M1034.51,987.37l-.31.27c-2.53-.13-5-.19-7.58-.19l0,0a.16.16,0,0,0,0-.23l-.06-.05q1.69,0,3.39,0l.32.2a.16.16,0,0,0,.21,0,.14.14,0,0,0,0-.14c1.33,0,2.66.08,4,.15Z"/><path class="cls-18" d="M1042.62,988.28c-1.44-.14-2.88-.27-4.32-.38a.16.16,0,0,0,.16-.16.16.16,0,0,0-.07-.13c1.25.08,2.52.19,3.79.32l.75.08Z"/><path class="cls-18" d="M1026.08,987.46l-1.94,0a127.62,127.62,0,0,0-15.12,1.3c.05-.15-.14-.31-.26-.17l-.18.24c-1.28.19-2.56.4-3.83.63s-2.42.46-3.62.71a.16.16,0,0,0,.07-.22.12.12,0,0,0-.06-.06l0,0,1.35-.28a129.78,129.78,0,0,1,14.26-2l.15.11a.17.17,0,0,0,.24,0,.17.17,0,0,0,0-.1c1.49-.12,3-.22,4.47-.28s3.27-.12,4.91-.13l0,0Z"/><path class="cls-18" d="M1049.47,988.91l-.15.15c-1.46-.19-2.92-.37-4.39-.53l-1.88-.2.12-.11a.12.12,0,0,0,0-.17v0l1.24.13.19.19a.16.16,0,0,0,.23,0,.15.15,0,0,0,0-.13c3.45.39,6.89.85,10.32,1.34a4.15,4.15,0,0,0,.34.24.15.15,0,0,0,.2,0,.14.14,0,0,0,0-.11l7.58,1.13c3,.44,5.94.83,8.92,1.21l.27.25a.16.16,0,0,0,.22,0,.17.17,0,0,0,0-.19l4.59.58.22.24c.13.14.32,0,.24-.19l5.23.68.31.34,0,0-3-.39c.11-.13-.11-.31-.25-.2l-.17.14-8.4-1.06a.15.15,0,0,0,0-.23.16.16,0,0,0-.22,0l-.16.18-5-.67-4.1-.59a.17.17,0,0,0-.16-.18.15.15,0,0,0-.12,0l-.09.08c-4-.58-8-1.19-12-1.72C1049.83,989,1049.61,988.78,1049.47,988.91Z"/><path class="cls-18" d="M1083.59,993.46l0,0,1.53.21,2,.29.21.23-.36.06-3.43-.49a.16.16,0,0,0,.1-.2Z"/><path class="cls-18" d="M1001,990.19l.08,0q-4,.85-7.94,1.95l0-.33q3.72-1,7.5-1.85Z"/><path class="cls-18" d="M1000.83,998.77l7.75-9.92.18-.23c.11-.15.31,0,.26.17l0,0-7.8,10c-1.26,1.61-2.54,3.2-3.77,4.83l-.6.83-.25-.2.48-.66C998.28,1002,999.57,1000.38,1000.83,998.77Z"/><path class="cls-18" d="M1026.08,987.46l.4-.29,0,0a.11.11,0,0,1,.11,0,.17.17,0,0,1,.08.22.15.15,0,0,1,0,.06l0,0a86.38,86.38,0,0,0-16,15.66l-.3.36.06-.23-.67.47a102.33,102.33,0,0,1,12-12.78C1023.16,989.72,1024.59,988.55,1026.08,987.46Z"/><path class="cls-18" d="M1034.19,987.64l.31-.27,0,0a.15.15,0,0,1,.16,0,.14.14,0,0,1,0,.23l-.08.07a60.87,60.87,0,0,0-8.73,9.83q-4.13,5.4-7.82,11.12c-.2.31-.4.62-.59.94h-.39a158.07,158.07,0,0,1,12.22-16.87A42.85,42.85,0,0,1,1034.19,987.64Z"/><path class="cls-18" d="M1042.93,988a.18.18,0,0,1,.25,0,.13.13,0,0,1,0,.18h0l-.12.11c-3.13,2.7-5.25,6.26-7.32,9.76l0,0-.2-.26c2-3.43,4.12-6.91,7.14-9.6Z"/><path class="cls-18" d="M1049.32,989.06l.15-.15c.14-.13.36.06.24.2a45.76,45.76,0,0,0-9.84,14.41l-.22-.28a45.74,45.74,0,0,1,6-10.1A46.8,46.8,0,0,1,1049.32,989.06Z"/><path class="cls-18" d="M1061.8,990.75a.17.17,0,0,1,.24,0,.17.17,0,0,1,0,.12.2.2,0,0,1,0,.08,36.77,36.77,0,0,0-8.17,10.42l-.41.11a37.1,37.1,0,0,1,8.25-10.66Z"/><path class="cls-18" d="M1071.38,992a.16.16,0,0,1,.23,0,.14.14,0,0,1,0,.21,23.64,23.64,0,0,0-4.09,5.86l-.39.09a23.64,23.64,0,0,1,4.09-6Z"/><path class="cls-18" d="M1080.17,993.12c.15-.11.36.07.26.19l0,0a9.75,9.75,0,0,0-2.18,2.44l-.42.08a10,10,0,0,1,2.2-2.59Z"/><path class="cls-18" d="M1030.49,987.11a.27.27,0,0,1,.07.08.16.16,0,0,1-.09.2.12.12,0,0,1-.13,0l-.33-.2a57.22,57.22,0,0,1-10.8-8.76l.06,0-.27-.7A57.18,57.18,0,0,0,1030.49,987.11Z"/><path class="cls-18" d="M1017.13,987.56a.17.17,0,0,1-.17.17.19.19,0,0,1-.1,0l-.15-.11-13.45-9.87.29-.17,13.53,9.92A.11.11,0,0,1,1017.13,987.56Z"/><path class="cls-18" d="M1001.14,989.92a.15.15,0,0,1,.05.22l-.06.06h-.06l-.08,0-.33-.21c-1.95-1.2-4-2.32-6-3.42a2.54,2.54,0,0,1,.16-.28c2.1,1.17,4.21,2.33,6.25,3.61Z"/><path class="cls-18" d="M1044.83,988.13a.14.14,0,0,1,.05.08.16.16,0,0,1-.13.18.18.18,0,0,1-.14,0l-.19-.19-10.13-9.71.07-.33.08,0Z"/><path class="cls-18" d="M1034.19,978.21l.06.2,0,0A.14.14,0,0,1,1034.19,978.21Z"/><path class="cls-18" d="M1038.37,987.59a.16.16,0,0,1,.07.22.15.15,0,0,1-.14.09l-.07,0-.55-.34a65.44,65.44,0,0,1-16.09-14.28c-.24-.28-.47-.57-.69-.86l.35,0a67.42,67.42,0,0,0,12.12,11.81A53,53,0,0,0,1038.37,987.59Z"/><path class="cls-18" d="M1048,982a45,45,0,0,0,3.38,3.92,31.56,31.56,0,0,0,4.28,3.64.2.2,0,0,1,.08.12.15.15,0,0,1-.12.17.14.14,0,0,1-.11,0l-.33-.23a34.46,34.46,0,0,1-3.33-2.82,32.6,32.6,0,0,1-3.37-3.68l-6.9-8.61-.62-.77.5.13,3.2,4Z"/><path class="cls-18" d="M1072.75,992l0,0a.15.15,0,0,1-.06.21.16.16,0,0,1-.2,0l-.26-.24c-3-2.75-6-5.45-8.81-8.35-1-1-2-2.15-2.92-3.28l.62.25c.84,1,1.73,2,2.66,2.95C1066.66,986.48,1069.74,989.21,1072.75,992Z"/><path class="cls-18" d="M1077.8,992.64l0,0c.07.15-.12.33-.25.19l-.22-.24a44.19,44.19,0,0,1-5.21-7.17l.5.24A43.71,43.71,0,0,0,1077.8,992.64Z"/><path class="cls-18" d="M1083.59,993.46a.16.16,0,0,1,0,.23s0,0,0,0a.15.15,0,0,1-.13,0l0,0-.3-.34a25.58,25.58,0,0,1-2.92-3.88l.56.3a25,25,0,0,0,2.84,3.65Z"/><path class="cls-18" d="M1384.89,1020.49v0c.08-.46-.09-.86-.39-.89-52.52-6.74-150.85-25.79-219.4-77.74-.26-.19-.6,0-.78.41a1,1,0,0,0,.14,1.09c68.68,52.06,167.16,71.14,219.75,77.88C1384.5,1021.24,1384.8,1020.92,1384.89,1020.49Z"/><path class="cls-18" d="M1155,979c5.6-3.08,11.21-6.1,16.71-9.84,2.87-2,5.65-4.19,8.43-6.52.8-.67,2.9-3,4.42-4.4a9.46,9.46,0,0,1,.78-.64l.06-.05a1.41,1.41,0,0,1,.7-.32l-1.33-.08h-.14l-.82,0a71.5,71.5,0,0,0-33.29,7.7q-2.06,1-4,2.22a11.84,11.84,0,0,0-4.85,5.74,10.07,10.07,0,0,0-.42,1.28,11.07,11.07,0,0,0-.29,1.39,7.75,7.75,0,0,0,.79,5.28C1144.23,984.49,1151.57,980.86,1155,979Z"/><path class="cls-18" d="M1178.7,997.05c5.35-4.34,10.72-8.63,15.88-13.58,2.71-2.59,5.27-5.4,7.84-8.33.76-.87,2.72-3.79,4.13-5.46l0,0a4,4,0,0,1,1.26-1.15h0c-.4.06-.8.14-1.2.22l-1.31.28h0l-.6.13a87.18,87.18,0,0,0-32.13,15.48c-1.31,1-2.6,2-3.85,3.13a13.81,13.81,0,0,0-4.08,6.06,5.8,5.8,0,0,0-.2.63,6.77,6.77,0,0,0-.21.89c-.51,2.6-.15,5.39,1.18,6.69C1168.43,1005,1175.47,999.67,1178.7,997.05Z"/><path class="cls-18" d="M1206.36,1008.83c5.09-4.14,10.21-8.23,15.13-12.94,2.58-2.47,5-5.15,7.47-7.94.8-.91,3-4.24,4.34-5.68l.14-.13a2.67,2.67,0,0,1,.47-.42.7.7,0,0,1,.23-.11l-.2,0c-.47.08-.94.18-1.42.28h0c-1.18.24-2.37.52-3.57.85a84,84,0,0,0-28.44,14.2c-1.25,1-2.48,1.95-3.67,3a13.25,13.25,0,0,0-4.08,6.37,12.35,12.35,0,0,0-.3,1.47,10.8,10.8,0,0,0-.1,1.5,6,6,0,0,0,1.34,4.25C1196.57,1016.38,1203.28,1011.32,1206.36,1008.83Z"/><path class="cls-18" d="M1231.25,1012.44c4.4-3.57,8.81-7.1,13.06-11.16,2.22-2.13,4.34-4.45,6.45-6.86.52-.59,1.72-2.35,2.78-3.72l.24-.31,0,0a10.79,10.79,0,0,1,1-1.08l.24-.2,0,0a.72.72,0,0,1,.2-.09l-.29,0-.08,0-.26.05-.5.1c-.72.14-1.45.31-2.19.49l-.07,0a72,72,0,0,0-25.67,12.54c-1.08.83-2.14,1.69-3.17,2.58a11.4,11.4,0,0,0-3.52,5.5,9.17,9.17,0,0,0-.23,4,5.35,5.35,0,0,0,.29,1.06,3.35,3.35,0,0,0,.75,1.17C1222.8,1019,1228.59,1014.6,1231.25,1012.44Z"/><path class="cls-18" d="M1253.74,1020.08c4.4-3.57,8.81-7.1,13.06-11.17,2.22-2.13,4.33-4.44,6.45-6.85.56-.64,1.9-2.62,3-4l0-.06.07-.1a9.86,9.86,0,0,1,1-1.07.83.83,0,0,1,.16-.12l.08-.05a.34.34,0,0,1,.15-.06l-.22,0-.14,0-.08,0c-.6.11-1.2.23-1.82.37l-1.24.3-.13,0a72.18,72.18,0,0,0-25.43,12.49c-1.08.82-2.14,1.68-3.17,2.57a11.38,11.38,0,0,0-3.51,5.5.23.23,0,0,0,0,.11,8.5,8.5,0,0,0-.28,1.49c-.19,1.86.16,3.71,1.11,4.64C1245.29,1026.6,1251.08,1022.23,1253.74,1020.08Z"/><path class="cls-18" d="M1277.19,1023.74c3.84-3.12,7.7-6.21,11.41-9.76,2-1.86,3.79-3.88,5.64-6,.53-.61,1.88-2.62,2.88-3.83l.07-.08.17-.2a3.71,3.71,0,0,1,.61-.58.51.51,0,0,1,.18-.09l-.16,0c-.73.13-1.47.29-2.2.46l-.19,0a1.74,1.74,0,0,0-.29.07,63,63,0,0,0-22.55,11c-.94.72-1.86,1.47-2.77,2.24a10.06,10.06,0,0,0-3.07,4.81c-.08.31-.15.62-.2.94a8.06,8.06,0,0,0-.1,1.39,4.47,4.47,0,0,0,1,3.12C1269.81,1029.44,1274.87,1025.63,1277.19,1023.74Z"/><path class="cls-18" d="M1140.37,940.31c.5.1,1,.19,1.52.27l13.53,2.09c1.75.27,5.87.17,9,.63l.38.06a6.08,6.08,0,0,1,3.29,1.27l-1.83-1.93-.45-.48c-9-9.64-17.62-19.48-27.65-27.76-3.21-2.65-6.65-5.22-10.64-5.77a10.19,10.19,0,0,0-10.59,5.88,10.41,10.41,0,0,0-.54,1.54,10.15,10.15,0,0,0-.25,1.22c-.71,4.92,2,10,5.22,13.27A35.18,35.18,0,0,0,1140.37,940.31Z"/><path class="cls-18" d="M1183.55,955.3a12.77,12.77,0,0,1-1.77-1.83l-.16-.2a19.81,19.81,0,0,1-1.36-2c-4-6.69-6.19-17.73-8.08-25.39-2.34-9.49-4.6-14.88-9.34-22-1.57-2.35-3.35-4.68-5.72-5-1.63-.25-3.57.81-4.82,2.69a7.5,7.5,0,0,0-.6,1.07,7.82,7.82,0,0,0-.58,2c-.43,2.75.6,5.1,1.61,7.09,7.22,14.27,15.4,28.81,25.55,39,.51.51,1,1,1.54,1.49l.37.34Q1181.84,954,1183.55,955.3Z"/><path class="cls-18" d="M1200.37,964.53l.8,1c-.22-.28-.44-.58-.64-.89l0-.07a24.16,24.16,0,0,1-2.66-5.77c-2.55-7.69-3.4-18.33-4.3-25.95-1.2-10.22-2.78-16.25-6.54-24.58-1.24-2.77-2.7-5.56-4.92-6.51a4,4,0,0,0-3.69.5,4.94,4.94,0,0,0-.84.67,6.64,6.64,0,0,0-1.84,3.19c-.72,2.68,0,5.32.76,7.6,5.58,16.94,12.12,34.45,21.31,47.38.83,1.17,1.68,2.29,2.55,3.38Z"/><path class="cls-18" d="M1201.27,965.61l-.1-.11Z"/><path class="cls-18" d="M1223.09,977.43a15.21,15.21,0,0,1-1.41-2.14c-4.12-7.47-5.14-21.25-6.24-30.54-1.2-10.21-2.78-16.24-6.53-24.58-1.25-2.77-2.7-5.56-4.93-6.5a4,4,0,0,0-3.81.57,5,5,0,0,0-.67.54,6.8,6.8,0,0,0-1.89,3.24c-.72,2.69,0,5.33.77,7.6,5.21,15.83,11.26,32.15,19.52,44.77,1.07,1.63,2.17,3.18,3.3,4.67l.44.57C1222.11,976.24,1222.6,976.84,1223.09,977.43Z"/><path class="cls-18" d="M1243.67,986.27a12.18,12.18,0,0,1-1.28-2l0,0c-2.87-5.68-3.61-15.6-4.41-22.36-.9-7.63-2.07-12.14-4.88-18.37-.93-2.07-2-4.16-3.69-4.86a3,3,0,0,0-3,.56,4.84,4.84,0,0,0-.76.74,5.49,5.49,0,0,0-1,2,10,10,0,0,0,.57,5.68c4,12,8.58,24.46,14.93,34,.57.86,1.16,1.69,1.76,2.5l0,0c0,.07.09.14.14.2C1242.59,984.94,1243.12,985.62,1243.67,986.27Z"/><path class="cls-18" d="M1262.17,993l-.32-.42a12.8,12.8,0,0,1-.83-1.37l0-.06a26.39,26.39,0,0,1-2.08-5.88c-1.32-5.36-1.86-11.82-2.43-16.65a55,55,0,0,0-4.89-18.38c-.93-2.07-2-4.16-3.68-4.86a3.33,3.33,0,0,0-3.76,1.28,4.81,4.81,0,0,0-.63,1,5,5,0,0,0-.37,1,10,10,0,0,0,.57,5.68c4.3,13.06,9.38,26.6,16.6,36.33l.27.36.05.07c.39.52.79,1,1.2,1.52C1261.94,992.75,1262.05,992.89,1262.17,993Z"/><path class="cls-18" d="M1284.3,1000.47l0-.05a6.09,6.09,0,0,1-.51-.74,10.6,10.6,0,0,1-.7-1.28.36.36,0,0,0,0-.09c-.25-.57-.48-1.15-.68-1.74-1.57-4.63-2.08-11.11-2.63-15.74a44.12,44.12,0,0,0-3.93-14.78c-.75-1.67-1.62-3.34-3-3.91s-3.26.46-3.83,2.62c0,.06,0,.11,0,.17a6.18,6.18,0,0,0,0,2.57,14.57,14.57,0,0,0,.5,1.83,143.18,143.18,0,0,0,8.83,21.95,57.57,57.57,0,0,0,4.23,6.87.61.61,0,0,0,.07.1c.36.5.72,1,1.1,1.45.19.25.38.48.58.72Z"/><path class="cls-18" d="M1306.27,1005.34a5.93,5.93,0,0,1-.47-.62l-.07-.12c-2.13-3.37-2.63-10.18-3.17-14.72a34.39,34.39,0,0,0-3.06-11.52c-.58-1.3-1.26-2.6-2.31-3.05a2.19,2.19,0,0,0-2.54,1,3.32,3.32,0,0,0-.44,1,4.1,4.1,0,0,0-.12.7,7.17,7.17,0,0,0,.47,2.86c1.29,3.9,2.68,7.86,4.28,11.6a.08.08,0,0,0,0,0,56,56,0,0,0,6,11c.25.34.51.68.77,1a.64.64,0,0,0,.1.13C1305.92,1004.92,1306.1,1005.14,1306.27,1005.34Z"/><path class="cls-18" d="M1324.56,1009.1l.12.14a1.71,1.71,0,0,1-.11-.14c-.09-.12-.17-.23-.25-.36a10.13,10.13,0,0,1-1-2.44,56.51,56.51,0,0,1-1.43-9,27,27,0,0,0-2.39-9,4.43,4.43,0,0,0-1.8-2.37,1.31,1.31,0,0,0-1.06,0,2,2,0,0,0-.83.65,2.74,2.74,0,0,0-.44.91,4.87,4.87,0,0,0,.28,2.77,78.88,78.88,0,0,0,6.27,15,30.39,30.39,0,0,0,2.51,3.66Z"/><path class="cls-18" d="M1343.21,1013.28a1.81,1.81,0,0,1-.18-.23l-.11-.15c-1.05-1.51-1.62-4-2-6.61-.27-1.78-.44-3.58-.61-5.07a26.93,26.93,0,0,0-2.39-9,4.42,4.42,0,0,0-1.8-2.38,1.37,1.37,0,0,0-.29-.07,1.42,1.42,0,0,0-.9.16,2.34,2.34,0,0,0-1.14,1.5,4.9,4.9,0,0,0,.28,2.78c2,6.06,4.34,12.33,7.59,17,.39.57.8,1.11,1.22,1.63a1.83,1.83,0,0,0,.13.16Z"/><path class="cls-18" d="M1361.67,1017.24a3.9,3.9,0,0,1-.34-.46,5.33,5.33,0,0,1-.31-.51.8.8,0,0,1-.08-.16,11.57,11.57,0,0,1-.82-2.19,62.6,62.6,0,0,1-1.34-8.73,26.69,26.69,0,0,0-2.39-9,4.37,4.37,0,0,0-1.8-2.38,1,1,0,0,0-.29-.08,1.53,1.53,0,0,0-1,.22,2.29,2.29,0,0,0-1,1.45,4.73,4.73,0,0,0,.28,2.78,82.58,82.58,0,0,0,5.77,14.09,32.08,32.08,0,0,0,2.43,3.79l.12.16.44.57Z"/><path class="cls-18" d="M1385.4,1020.72v0c.09-.46-.09-.86-.38-.9-52.52-6.73-150.86-25.78-219.41-77.73-.25-.19-.6,0-.78.41a1,1,0,0,0,.14,1.09c68.69,52.05,167.16,71.14,219.75,77.88C1385,1021.47,1385.3,1021.15,1385.4,1020.72Z"/><path class="cls-18" d="M1165.37,942.15l-.15-.13-.27-.27a103.75,103.75,0,0,0-26.28-18.23,83,83,0,0,0-22.26-7.41,10.15,10.15,0,0,0-.25,1.22,82.43,82.43,0,0,1,22.5,7.55,104.05,104.05,0,0,1,25.57,17.77l.52.49.15.14C1165.32,943.68,1165.78,942.54,1165.37,942.15Z"/><path class="cls-18" d="M1140.87,975.45l3.55-2c4.56-2.52,9.13-5,13.72-7.19a86.54,86.54,0,0,1,26.37-8.07l1.54-.17h.11l.37,0c.54,0,.58-1.28,0-1.23l-2.08.23-.11,0-.64.08a87.78,87.78,0,0,0-25.78,8c-4.77,2.27-9.5,4.85-14.23,7.47l-2.58,1.42A13.19,13.19,0,0,0,1140.87,975.45Z"/><path class="cls-18" d="M1164.21,995.33c4.37-3.39,9-6.11,13.25-9.32a96,96,0,0,1,13.74-8.81c5-2.57,10.07-5.1,15.11-7.65h0a.77.77,0,0,0,.3-.82c-.06-.26-.23-.45-.48-.32l-1,.51h0l-.43.22c-4.72,2.39-9.45,4.75-14.17,7.18a105.27,105.27,0,0,0-14.2,9.28c-3.8,2.84-7.83,5.3-11.7,8.21-.07.21-.13.41-.2.63A8.82,8.82,0,0,0,1164.21,995.33Z"/><path class="cls-18" d="M1192.33,1009.31a79.31,79.31,0,0,1,12.53-10.23c4.72-3.3,9.45-6.58,14.24-9.55,2.34-1.45,4.71-2.83,7.08-4.09a36.44,36.44,0,0,1,7-3.23h0l.26-.07.11,0a.55.55,0,0,0,.36-.38l0-.07c.1-.39,0-.86-.35-.78a15.56,15.56,0,0,0-2,.65c-.89.37-1.78.8-2.66,1.26l-1.9,1c-2.46,1.26-4.91,2.66-7.35,4.15-4.87,3-9.69,6.31-14.5,9.66a82.37,82.37,0,0,0-12.74,10.22A12.61,12.61,0,0,0,1192.33,1009.31Z"/><path class="cls-18" d="M1219.55,1015.36c11-9.51,22.2-18.61,34-24.66l.45-.23,0,0,.45-.24a.77.77,0,0,0,.27-.93.41.41,0,0,0-.15-.21.28.28,0,0,0-.29,0l-.21.1-1.47.76-.05,0c-11.53,6.07-22.51,15-33.33,24.35A6.27,6.27,0,0,0,1219.55,1015.36Z"/><path class="cls-18" d="M1241.68,1019.53c4.77-3.72,9.67-7.09,14.49-10.4A107.15,107.15,0,0,1,1276.1,998l.1,0,.17-.06c.23-.1.45-.19.68-.27a.68.68,0,0,0,.3-.8.34.34,0,0,0-.06-.15.05.05,0,0,0,0,0,.39.39,0,0,0-.08-.1.26.26,0,0,0-.22-.07l-.08,0h0l-1.37.56-.93.4-.1,0a112.09,112.09,0,0,0-18.94,10.85c-4.51,3.12-9.08,6.27-13.55,9.72A8.28,8.28,0,0,0,1241.68,1019.53Z"/><path class="cls-18" d="M1266.61,1024.18c9.76-8.17,20.1-14.19,30.35-20.07l.11-.06.3-.17.32-.19a.62.62,0,0,0,.29-.4.43.43,0,0,0,0,0,.84.84,0,0,0-.08-.6.25.25,0,0,0-.34-.12l0,0h0l-1.92,1.1-.11.06-.17.1c-9.67,5.55-19.38,11.33-28.6,19A8.14,8.14,0,0,0,1266.61,1024.18Z"/><path class="cls-18" d="M1361.31,1016.81l0,0a.86.86,0,0,0,.18-.43.76.76,0,0,0,0-.15.51.51,0,0,0-.11-.31,12.53,12.53,0,0,1-1.28-2c-2-3.74-2.78-8.78-3.84-13.43a51.06,51.06,0,0,0-2-6.74,1.53,1.53,0,0,0-1,.21,61.51,61.51,0,0,1,2.64,9.2,66.49,66.49,0,0,0,2.36,9.13,17.83,17.83,0,0,0,1.82,3.69,1.63,1.63,0,0,1,.11.17c.17.24.35.48.53.71S1361.16,1017,1361.31,1016.81Z"/><path class="cls-18" d="M1343.37,1013.12a1,1,0,0,0-.06-.14q-1.23-3.3-2.38-6.69-2.78-8.06-5.09-16.51a1.49,1.49,0,0,0-.9.17q3,11,6.73,21.31c.18.5.36,1,.55,1.5a.58.58,0,0,0,0,.14c.11.32.23.63.35,1C1342.85,1014.49,1343.59,1013.75,1343.37,1013.12Z"/><path class="cls-18" d="M1324.45,1009.19v-.12a.64.64,0,0,0-.06-.18v0a.67.67,0,0,1-.06-.12c-.38-.79-.73-1.6-1-2.45-1.42-3.69-2.37-7.81-3.48-11.78a50.82,50.82,0,0,0-2.39-6.91c-.1-.22-.42-.86-.8-1.68a2,2,0,0,0-.83.65,58,58,0,0,1,2.42,5.82c1.35,4.18,2.3,8.7,3.68,12.83.42,1.23.87,2.43,1.38,3.58l.06.12c.1.24.21.47.32.69C1323.87,1010.1,1324.42,1009.68,1324.45,1009.19Z"/><path class="cls-18" d="M1305.52,1006.27a.9.9,0,0,0,.28-1.1l-.31-.53a.75.75,0,0,1-.07-.12c-.18-.3-.36-.62-.54-.94A124,124,0,0,1,1298.5,989a72,72,0,0,1-3.85-12.67,3.43,3.43,0,0,0-.44,1,4.27,4.27,0,0,0-.12.7,74.66,74.66,0,0,0,3.67,11.71q.52,1.38,1.08,2.76a.08.08,0,0,0,0,.05,106.56,106.56,0,0,0,5.19,11.6l.06.11c.35.64.7,1.26,1.06,1.86l0,0a.24.24,0,0,0,.32.09Z"/><path class="cls-18" d="M1283.67,999.7a.08.08,0,0,0,.07,0c.25-.08.44-.61.34-1l0-.08a.45.45,0,0,0-.1-.14,16.26,16.26,0,0,1-1.62-1.9c-3.9-5.25-5.83-13.21-8.51-19.91-1.58-4-3.31-7.77-4.88-11.74a5.86,5.86,0,0,0,0,2.57c1.43,3.5,3,6.93,4.35,10.46,1.71,4.34,3.14,9.1,5,13.32a31.25,31.25,0,0,0,3.83,6.75l.08.1a16.93,16.93,0,0,0,1.32,1.49A.23.23,0,0,0,1283.67,999.7Z"/><path class="cls-18" d="M1261.83,992.62l0,0a.73.73,0,0,0,.11-.76l-.15-.34,0-.06c-1-2.05-1.91-4.1-2.87-6.16l-4.56-9.78a82.51,82.51,0,0,1-3.26-7.78c-1-2.89-1.68-6.05-2.47-9.11a73.51,73.51,0,0,0-4.47-11.93,5,5,0,0,0-.63,1,73.47,73.47,0,0,1,3.61,9c1,3.23,1.63,6.73,2.61,10a67.47,67.47,0,0,0,3.22,8.23c2.42,5.31,4.9,10.56,7.36,15.83l.15.31,0,.06.72,1.54C1261.36,992.9,1261.65,992.84,1261.83,992.62Z"/><path class="cls-18" d="M1242.07,984.24a.5.5,0,0,0,0-.12v0a.73.73,0,0,0,0-.39q-5.93-14.55-11.07-29.9-2.4-7.23-4.64-14.63a4.77,4.77,0,0,0-.75.74q1.45,4.79,3,9.5,5.32,16.49,11.57,32.1c.28.71.57,1.42.86,2.13v0l.31.77C1241.49,984.9,1241.92,984.65,1242.07,984.24Z"/><path class="cls-18" d="M1221.63,975.62a.6.6,0,0,0-.08-.39c-3.27-5-5.15-11.73-7.31-18-2.26-6.5-5.06-12.44-7.2-19.06-2.52-7.76-4.74-15.83-6.86-24a5,5,0,0,0-.68.54c.29,1.1.59,2.2.88,3.3,1.94,7.25,3.83,14.57,6.12,21.53,2.24,6.79,5.16,12.9,7.42,19.66,1.25,3.75,2.48,7.6,4,11.12q.88,2.07,2,4c.35.62.69,1.21,1.06,1.76C1221.17,976.58,1221.61,976.1,1221.63,975.62Z"/><path class="cls-18" d="M1183.61,955.34a.54.54,0,0,0-.12-.44l-.72-.8-.2-.22c-.78-.86-1.55-1.74-2.3-2.63a44,44,0,0,1-5.94-8.8c-1.15-2.31-2.1-4.83-3.21-7.2s-2.48-4.8-3.79-7.12q-4.23-7.5-8.47-15c-2.19-3.86-4.34-7.78-6.56-11.6a6.58,6.58,0,0,0-.59,1.07c5.5,9.61,11,19.22,16.39,29,2.48,4.49,4.3,9.75,6.85,14.15a39.24,39.24,0,0,0,3.34,4.87l.82,1c.07.07.13.16.2.23,1.16,1.39,2.36,2.69,3.55,4C1183.14,956.18,1183.55,955.76,1183.61,955.34Z"/><path class="cls-18" d="M1201.27,965.61a.63.63,0,0,0-.12-.42l-.31-.41-.06-.07a26.79,26.79,0,0,1-3-5.94c-.68-1.76-1.3-3.57-1.92-5.22-4.31-11.43-8.16-23.33-12-35.2-1.25-3.88-2.48-7.79-3.77-11.64q-.8-2.33-1.75-4.48a6,6,0,0,0-.84.67,56.12,56.12,0,0,1,2.23,5.73c3.4,10.33,6.69,20.74,10.17,31,2,5.77,4,11.51,6.14,17.08.55,1.4,1.09,2.92,1.7,4.39.37.91.77,1.8,1.2,2.63l0,.06a15,15,0,0,0,1.53,2.4C1200.81,966.51,1201.22,966.05,1201.27,965.61Z"/><path class="cls-18" d="M1317.77,945.84l0,0c.3-.34.36-.77.13-1-41.35-33.07-115.43-100.5-147-180.52-.11-.3-.5-.32-.87-.06a1,1,0,0,0-.45,1c31.58,80.19,105.76,147.71,147.16,180.83C1317.05,946.27,1317.46,946.15,1317.77,945.84Z"/><path class="cls-18" d="M1143,790.78c6.38.28,12.75.62,19.39.29,3.48-.18,7-.64,10.6-1.19,1-.15,4-1.08,6.06-1.45a8.31,8.31,0,0,1,1-.15h.07a1.24,1.24,0,0,1,.76.09c-.36-.26-.72-.51-1.1-.76l-.11-.08-.69-.45a71.25,71.25,0,0,0-32.44-10.74c-1.52-.12-3.06-.19-4.6-.21a11.84,11.84,0,0,0-7.12,2.38,10.65,10.65,0,0,0-1,.88,13.55,13.55,0,0,0-1,1,7.8,7.8,0,0,0-2.07,4.92C1131,789.9,1139.11,790.61,1143,790.78Z"/><path class="cls-18" d="M1153.87,818.55c6.82-.92,13.64-1.8,20.62-3.33,3.66-.8,7.32-1.88,11-3,1.1-.35,4.3-1.83,6.37-2.52h0a3.84,3.84,0,0,1,1.67-.33h0l0,0-1.14-.43-1.26-.44,0,0-.57-.2a87.25,87.25,0,0,0-35.5-3.5c-1.64.17-3.29.4-4.92.66a14,14,0,0,0-6.63,3.06c-.17.14-.34.28-.5.43s-.44.43-.64.66c-1.79,2-2.93,4.53-2.47,6.33C1141,820,1149.75,819.11,1153.87,818.55Z"/><path class="cls-18" d="M1171.36,843c6.5-.88,13-1.71,19.65-3.17,3.49-.77,7-1.79,10.51-2.9,1.17-.36,4.77-2.06,6.67-2.59l.18-.05a3.19,3.19,0,0,1,.63-.1.71.71,0,0,1,.25,0l-.2-.07-1.36-.5h0c-1.13-.4-2.29-.78-3.49-1.13a84,84,0,0,0-31.67-2.67c-1.57.17-3.14.38-4.69.64a13.22,13.22,0,0,0-6.79,3.32,10.72,10.72,0,0,0-1,1.1,11.72,11.72,0,0,0-.87,1.22,6,6,0,0,0-1.07,4.34C1159.08,844.35,1167.44,843.53,1171.36,843Z"/><path class="cls-18" d="M1190.73,859c5.62-.76,11.23-1.48,17-2.74,3-.66,6-1.54,9.07-2.5.75-.24,2.7-1.12,4.31-1.74l.37-.13,0,0a11,11,0,0,1,1.38-.43,1.55,1.55,0,0,1,.31,0h0a.49.49,0,0,1,.21,0l-.27-.11-.08,0-.24-.1-.48-.17c-.69-.25-1.4-.5-2.13-.72l-.07,0a71.61,71.61,0,0,0-28.44-2.64c-1.36.14-2.7.32-4,.54a11.56,11.56,0,0,0-5.87,2.87,9.32,9.32,0,0,0-2.28,3.3,6.7,6.7,0,0,0-.3,1.06,3.21,3.21,0,0,0,0,1.38C1180.13,860.2,1187.34,859.49,1190.73,859Z"/><path class="cls-18" d="M1206,877.25c5.62-.76,11.22-1.47,17-2.74,3-.66,6-1.54,9.07-2.5.81-.25,3-1.25,4.65-1.87l.07,0,.12,0a8.26,8.26,0,0,1,1.39-.42l.2,0h.08a.41.41,0,0,1,.16,0,1.31,1.31,0,0,0-.21-.08l-.13-.05-.08,0c-.57-.22-1.15-.42-1.74-.62l-1.21-.4-.13,0a72.16,72.16,0,0,0-28.22-2.57c-1.35.15-2.7.33-4,.55a11.48,11.48,0,0,0-5.87,2.87l-.08.08a9,9,0,0,0-1,1.13c-1.14,1.49-1.79,3.25-1.47,4.53C1195.36,878.43,1202.58,877.71,1206,877.25Z"/><path class="cls-18" d="M1224.09,892.58c4.9-.67,9.81-1.3,14.82-2.4,2.64-.58,5.26-1.35,7.94-2.18.77-.24,3-1.26,4.45-1.77l.1,0,.26-.08a3.75,3.75,0,0,1,.82-.18.46.46,0,0,1,.2,0l-.16-.06c-.68-.27-1.4-.52-2.12-.76l-.18,0a1.31,1.31,0,0,0-.28-.09,63,63,0,0,0-25-2.35c-1.18.13-2.36.28-3.53.48a10,10,0,0,0-5.13,2.51q-.35.33-.66.69a8.29,8.29,0,0,0-.81,1.13,4.48,4.48,0,0,0-.76,3.2C1214.83,893.6,1221.13,893,1224.09,892.58Z"/><path class="cls-18" d="M1237.22,905.54c4.9-.66,9.8-1.29,14.82-2.4,2.63-.58,5.26-1.35,7.93-2.18.71-.23,2.65-1.12,4.12-1.65l.12,0a3.49,3.49,0,0,1,1.59-.35l-.7-.27c-.75-.27-1.52-.54-2.31-.78l-.22-.07a62.93,62.93,0,0,0-24.49-2.18c-1.18.12-2.36.28-3.54.47a10.06,10.06,0,0,0-5.12,2.51,8.36,8.36,0,0,0-1.05,1.18,8,8,0,0,0-.7,1.15,4.06,4.06,0,0,0-.49,2.69C1228,906.56,1234.25,905.94,1237.22,905.54Z"/><path class="cls-18" d="M1255.4,919.11c4.24-.57,8.49-1.12,12.84-2.07,2.27-.5,4.55-1.17,6.86-1.89.62-.2,2.27-.95,3.53-1.42l.34-.12.13,0a2.24,2.24,0,0,1,1.05-.2c-.66-.25-1.34-.5-2-.72l-.28-.1-.21-.06a54.67,54.67,0,0,0-21.47-2c-1,.11-2.05.25-3.06.41a8.7,8.7,0,0,0-4.44,2.18,6.19,6.19,0,0,0-.65.7,5.85,5.85,0,0,0-.77,1.14,3.69,3.69,0,0,0-.52,2.51C1247.38,920,1252.84,919.46,1255.4,919.11Z"/><path class="cls-18" d="M1275.16,931.85c3.38-.46,6.75-.89,10.2-1.65,1.81-.4,3.62-.93,5.46-1.5.43-.14,1.48-.61,2.4-1a10.59,10.59,0,0,1,1-.36l.17,0a.82.82,0,0,1,.44,0L1294,927l-.36-.12-1-.32a43.47,43.47,0,0,0-16.9-1.52q-1.21.13-2.43.33a6.81,6.81,0,0,0-3.52,1.73l0,0a5.39,5.39,0,0,0-.93,1.14,3.13,3.13,0,0,0-.56,2.26C1268.79,932.55,1273.13,932.12,1275.16,931.85Z"/><path class="cls-18" d="M1292.56,940.91c2.61-.36,5.2-.69,7.86-1.28,1.4-.3,2.79-.71,4.2-1.15.27-.09.87-.35,1.48-.6l.28-.12.16-.06a2.72,2.72,0,0,1,1.17-.31c-.68-.27-1.4-.51-2.14-.73l-.39-.1-.34-.09a33.84,33.84,0,0,0-11.82-.83c-.63.06-1.25.15-1.87.25a5.29,5.29,0,0,0-2.72,1.33l-.1.1a4.35,4.35,0,0,0-.84,1.16,2.14,2.14,0,0,0-.24,1.4C1287.65,941.45,1291,941.12,1292.56,940.91Z"/><path class="cls-18" d="M1150.65,750.16c.37.34.76.68,1.15,1l10.47,8.83c1.36,1.14,4.93,3.2,7.38,5.23l.29.24a6.18,6.18,0,0,1,2.15,2.8c-.19-.86-.38-1.73-.56-2.6,0-.21-.09-.43-.13-.64-2.71-12.94-4.92-25.8-9.17-38.1-1.37-3.93-3-7.92-6.09-10.46A10.19,10.19,0,0,0,1144,716a10.47,10.47,0,0,0-1.26,1,12.34,12.34,0,0,0-.85.92c-3.16,3.83-3.53,9.59-2.45,14.05A35.23,35.23,0,0,0,1150.65,750.16Z"/><path class="cls-18" d="M1179.73,785.41a12.28,12.28,0,0,1-.56-2.47l0-.26a21.94,21.94,0,0,1-.1-2.43c.09-7.78,3.94-18.37,6.3-25.89,2.94-9.32,3.82-15.11,3.45-23.61-.12-2.82-.43-5.73-2.27-7.28-1.26-1.06-3.47-1.17-5.51-.22a7.61,7.61,0,0,0-2.58,2c-1.8,2.13-2.13,4.66-2.31,6.89-1.25,15.94-1.84,32.62,1.56,46.56q.25,1.05.54,2.07c0,.17.09.33.14.48C1178.76,782.66,1179.22,784.05,1179.73,785.41Z"/><path class="cls-18" d="M1189.29,802l.18,1.25c0-.35-.07-.72-.09-1.1v-.08a24.36,24.36,0,0,1,.72-6.31c1.83-7.9,6.64-17.42,9.84-24.4,4.28-9.35,6.08-15.32,7.21-24.39.37-3,.58-6.15-.83-8.12a4,4,0,0,0-3.41-1.49,4.8,4.8,0,0,0-1.06.13,6.71,6.71,0,0,0-3.23,1.76c-2,1.93-2.76,4.56-3.3,6.89-4,17.37-7.57,35.73-6.45,51.56.1,1.42.23,2.82.41,4.2C1189.28,802,1189.29,802,1189.29,802Z"/><path class="cls-18" d="M1189.49,803.44c0-.06,0-.1,0-.15A.77.77,0,0,0,1189.49,803.44Z"/><path class="cls-18" d="M1202,824.89a15.66,15.66,0,0,1-.09-2.56c.37-8.53,6.66-20.83,10.56-29.33,4.28-9.35,6.08-15.32,7.21-24.39.37-3,.58-6.16-.83-8.12a4,4,0,0,0-3.55-1.49,6.15,6.15,0,0,0-.85.1,6.86,6.86,0,0,0-3.3,1.79c-2,1.93-2.76,4.56-3.3,6.89-3.78,16.22-7.11,33.31-6.62,48.4.07,1.94.19,3.84.39,5.7,0,.25.05.48.08.71C1201.77,823.36,1201.87,824.13,1202,824.89Z"/><path class="cls-18" d="M1215,843.14a11.33,11.33,0,0,1,0-2.4v0c.5-6.34,5-15.2,7.86-21.38a55.24,55.24,0,0,0,5.39-18.24c.28-2.25.44-4.6-.62-6.06a3,3,0,0,0-2.89-1.1,4.06,4.06,0,0,0-1,.24,5.2,5.2,0,0,0-1.84,1.15,9.93,9.93,0,0,0-2.47,5.15c-2.87,12.34-5.4,25.36-4.92,36.78,0,1,.11,2,.21,3v0a2,2,0,0,0,0,.24C1214.72,841.44,1214.83,842.3,1215,843.14Z"/><path class="cls-18" d="M1227.24,858.53c0-.17,0-.35,0-.53a14.23,14.23,0,0,1,0-1.6v-.07a26.63,26.63,0,0,1,1.29-6.1c1.66-5.26,4.56-11.05,6.58-15.48,3.2-7,4.55-11.45,5.39-18.23.28-2.26.44-4.6-.61-6.07a3.37,3.37,0,0,0-3.89-.87,5.28,5.28,0,0,0-1,.51,5.35,5.35,0,0,0-.83.66,9.93,9.93,0,0,0-2.47,5.15c-3.12,13.4-5.83,27.59-4.73,39.67,0,.15,0,.3,0,.44s0,.06,0,.08c.06.65.14,1.29.23,1.93C1227.19,858.19,1227.21,858.36,1227.24,858.53Z"/><path class="cls-18" d="M1242.27,876.41v-.07a6.8,6.8,0,0,1-.06-.9,11.8,11.8,0,0,1,.07-1.46.44.44,0,0,1,0-.1,15.9,15.9,0,0,1,.32-1.83c1.07-4.78,4-10.58,5.94-14.82a44.29,44.29,0,0,0,4.33-14.66c.23-1.82.36-3.7-.5-4.88s-3-1.3-4.63.24l-.12.12a6.15,6.15,0,0,0-1.34,2.2,14.51,14.51,0,0,0-.52,1.82,143,143,0,0,0-3.88,23.35,57.06,57.06,0,0,0,0,8.06v.12c0,.61.11,1.22.19,1.81,0,.31.08.61.13.92C1242.26,876.35,1242.27,876.38,1242.27,876.41Z"/><path class="cls-18" d="M1258.5,892a6.87,6.87,0,0,1-.08-.78v-.13c-.06-4,3.06-10.07,5-14.23a34.34,34.34,0,0,0,3.37-11.43c.18-1.41.28-2.88-.38-3.81a2.19,2.19,0,0,0-2.71-.43,3.52,3.52,0,0,0-.9.62,4.78,4.78,0,0,0-.47.54,7.5,7.5,0,0,0-1.08,2.69c-.93,4-1.8,8.11-2.38,12.13a.13.13,0,0,0,0,.06,55.43,55.43,0,0,0-.59,12.54c0,.42.09.84.14,1.25a.88.88,0,0,0,0,.16C1258.42,891.46,1258.46,891.73,1258.5,892Z"/><path class="cls-18" d="M1272.17,904.72l0,.18a1.1,1.1,0,0,1,0-.18,3,3,0,0,1,0-.43,10.19,10.19,0,0,1,.38-2.63,58.88,58.88,0,0,1,3.48-8.47,27,27,0,0,0,2.64-8.91,4.48,4.48,0,0,0-.3-3,1.37,1.37,0,0,0-.92-.52,2.08,2.08,0,0,0-1,.12,2.64,2.64,0,0,0-.85.55,4.79,4.79,0,0,0-1.2,2.52,78.23,78.23,0,0,0-2.43,16,29.83,29.83,0,0,0,.24,4.43Z"/><path class="cls-18" d="M1272.2,904.9a.28.28,0,0,0,0,.09A.28.28,0,0,1,1272.2,904.9Z"/><path class="cls-18" d="M1285.92,918a2.89,2.89,0,0,1,0-.29,1.15,1.15,0,0,1,0-.19c-.11-1.83.72-4.28,1.73-6.67.7-1.67,1.5-3.29,2.12-4.65a26.77,26.77,0,0,0,2.63-8.92,4.38,4.38,0,0,0-.3-3,1,1,0,0,0-.2-.22,1.47,1.47,0,0,0-.85-.33,2.31,2.31,0,0,0-1.76.69A4.88,4.88,0,0,0,1288,897c-1.45,6.22-2.71,12.79-2.38,18.5,0,.69.1,1.36.2,2a1.2,1.2,0,0,0,0,.2C1285.89,917.79,1285.9,917.89,1285.92,918Z"/><path class="cls-18" d="M1299.63,931a5.51,5.51,0,0,1-.06-.57,4,4,0,0,1,0-.6,1.09,1.09,0,0,1,0-.18,11.88,11.88,0,0,1,.44-2.29,61.87,61.87,0,0,1,3.4-8.16,26.71,26.71,0,0,0,2.63-8.91,4.42,4.42,0,0,0-.3-3,1.45,1.45,0,0,0-.21-.22,1.53,1.53,0,0,0-1-.32,2.31,2.31,0,0,0-1.65.69,4.79,4.79,0,0,0-1.2,2.52,82.26,82.26,0,0,0-2.4,15,32.21,32.21,0,0,0,.1,4.5,1.5,1.5,0,0,0,0,.2c0,.24,0,.47.08.7S1299.6,930.79,1299.63,931Z"/><path class="cls-18" d="M1318.08,946.29l0,0c.3-.35.36-.78.13-1-41.35-33.07-115.43-100.5-147-180.52-.11-.29-.5-.32-.87-.06a1,1,0,0,0-.45,1c31.58,80.19,105.76,147.72,147.16,180.83C1317.36,946.73,1317.77,946.61,1318.08,946.29Z"/><path class="cls-18" d="M1171,764.73l0-.19-.1-.37a104.11,104.11,0,0,0-13-29.24A82.8,82.8,0,0,0,1142.77,717a12.2,12.2,0,0,0-.85.91,82.44,82.44,0,0,1,15.3,18.16,103.74,103.74,0,0,1,12.59,28.48c.06.22.12.45.19.68l0,.21C1170.2,766,1171.19,765.27,1171,764.73Z"/><path class="cls-18" d="M1132.8,780.42l4,.18c5.2.22,10.39.48,15.45,1a86.8,86.8,0,0,1,26.72,6.83l1.4.65.1,0,.35.17c.48.23,1.15-.8.67-1s-1.25-.6-1.89-.88l-.1,0-.59-.26a87.66,87.66,0,0,0-26.21-6.54c-5.25-.54-10.64-.8-16-1l-2.94-.13A11.72,11.72,0,0,0,1132.8,780.42Z"/><path class="cls-18" d="M1142.38,809.54c5.49-.62,10.85-.55,16.17-1.07a96.56,96.56,0,0,1,16.31-.38c5.64.42,11.26.89,16.88,1.33h0a.75.75,0,0,0,.68-.54c.09-.26,0-.5-.23-.53s-.76-.05-1.13-.09h0l-.48,0c-5.28-.42-10.54-.86-15.83-1.24a103.32,103.32,0,0,0-17,.53c-4.73.45-9.44.46-14.26.93-.17.14-.33.28-.5.44S1142.59,809.31,1142.38,809.54Z"/><path class="cls-18" d="M1159.13,836.11a79.45,79.45,0,0,1,16-2.22c5.74-.36,11.49-.7,17.12-.75,2.76,0,5.5,0,8.18.19a37.75,37.75,0,0,1,7.64.87h0l.26.08.11,0a.57.57,0,0,0,.51-.14l.06,0c.29-.27.44-.73.11-.84a14.52,14.52,0,0,0-2.05-.48c-.95-.16-1.94-.25-2.93-.32l-2.14-.14c-2.76-.2-5.58-.28-8.43-.28-5.72,0-11.56.35-17.41.72-5.3.33-10.59.62-16.2,2.1A9.62,9.62,0,0,0,1159.13,836.11Z"/><path class="cls-18" d="M1179.23,855.44c14.37-2.39,28.64-4.34,41.85-3.38a3.9,3.9,0,0,1,.5,0h.06l.51,0c.36,0,.66-.34.72-.66a.37.37,0,0,0,0-.25.26.26,0,0,0-.24-.16l-.23,0-1.65-.12h-.06c-13-.81-27,1.12-41.13,3.46A6.7,6.7,0,0,0,1179.23,855.44Z"/><path class="cls-18" d="M1196,870.51c6-.69,12-1,17.79-1.34a106.79,106.79,0,0,1,22.81.86l.11,0,.18,0,.72.12c.3,0,.57-.24.66-.53a.41.41,0,0,0,0-.16.06.06,0,0,0,0-.06.25.25,0,0,0,0-.12.23.23,0,0,0-.15-.17l-.08,0h0c-.49-.09-1-.17-1.46-.24-.33-.06-.67-.1-1-.15h-.11a111.29,111.29,0,0,0-21.82-.59c-5.47.31-11,.63-16.63,1.25A9.64,9.64,0,0,0,1196,870.51Z"/><path class="cls-18" d="M1214.83,887.46c12.58-1.9,24.54-1.67,36.35-1.36h.85a.64.64,0,0,0,.45-.19l0,0a.84.84,0,0,0,.24-.56.25.25,0,0,0-.23-.27h0l-2.21-.06h-.33c-11.14-.29-22.45-.4-34.3,1.33A8.29,8.29,0,0,0,1214.83,887.46Z"/><path class="cls-18" d="M1227.67,900.92a95.76,95.76,0,0,1,14-2.2c7.54-.5,14.77,0,22,.18h.16l.73,0a.68.68,0,0,0,.53-.29.77.77,0,0,0,.2-.48.23.23,0,0,0-.07-.21,0,0,0,0,0,0,0,.3.3,0,0,0-.18-.06l-2.29-.06h-.16c-6.94-.23-13.86-.65-21.08-.09a96.79,96.79,0,0,0-13.12,2.07A7.42,7.42,0,0,0,1227.67,900.92Z"/><path class="cls-18" d="M1247.23,914.93a105.07,105.07,0,0,1,31.41-1.2l.53.08a1.46,1.46,0,0,1,.22,0l.54.07c.57.08,1-1,.45-1.07-.79-.11-1.58-.21-2.39-.3a1.33,1.33,0,0,0-.21,0l-.15,0a106.65,106.65,0,0,0-29.63,1.3A7.86,7.86,0,0,0,1247.23,914.93Z"/><path class="cls-18" d="M1268.83,928.26a84.42,84.42,0,0,1,24.38-.53c.58.07,1.15.16,1.72.26l.28,0,.55.1c.45.09,1-.59.86-.9a.22.22,0,0,0-.12-.11l-.07,0c-.93-.17-1.86-.33-2.81-.46l-.26,0-.71-.09a87,87,0,0,0-22.9.59A5.35,5.35,0,0,0,1268.83,928.26Z"/><path class="cls-18" d="M1287.49,938.49a52.45,52.45,0,0,1,18.61-.61l.54.1.31.06.72.15c.41.08.89-.46.88-.79a.23.23,0,0,0-.2-.24l-.11,0c-.87-.19-1.76-.34-2.66-.47l-.31,0-.28,0a54.79,54.79,0,0,0-16.66.73A4.59,4.59,0,0,0,1287.49,938.49Z"/><path class="cls-18" d="M1299.54,930.42h0a.88.88,0,0,0,.38-.28.44.44,0,0,0,.08-.11.49.49,0,0,0,.07-.33,14.2,14.2,0,0,1-.07-2.35c.23-4.23,2.2-8.94,3.72-13.46a52.75,52.75,0,0,0,1.8-6.8,1.55,1.55,0,0,0-1-.32,62.61,62.61,0,0,1-2.54,9.22,67.56,67.56,0,0,0-2.73,9,18.14,18.14,0,0,0-.36,4.1,1.41,1.41,0,0,0,0,.2,8.46,8.46,0,0,0,.08.88C1299.09,930.45,1299.32,930.5,1299.54,930.42Z"/><path class="cls-18" d="M1286.14,917.93l0-.15c.44-2.3.92-4.62,1.43-6.94q1.85-8.33,4.25-16.75a1.54,1.54,0,0,0-.85-.33q-3.16,10.93-5.35,21.7c-.11.53-.21,1-.31,1.57l0,.15c-.06.33-.13.66-.19,1C1285,918.83,1286,918.59,1286.14,917.93Z"/><path class="cls-18" d="M1272,904.74a.37.37,0,0,0,.06-.1.41.41,0,0,0,.05-.19v0a.59.59,0,0,1,0-.14c.08-.87.22-1.75.38-2.63.71-3.89,2-7.9,3.15-11.88a51.36,51.36,0,0,0,1.56-7.14c0-.24.08-.95.19-1.85a2,2,0,0,0-1,.12,59.7,59.7,0,0,1-1,6.23c-1,4.27-2.56,8.63-3.53,12.88a36.47,36.47,0,0,0-.68,3.77.68.68,0,0,0,0,.14c0,.25-.06.51-.08.75C1271.06,905.21,1271.74,905.14,1272,904.74Z"/><path class="cls-18" d="M1257.38,892.39a.9.9,0,0,0,.81-.79c0-.2,0-.4,0-.61a.33.33,0,0,1,0-.14q0-.52,0-1.08a123,123,0,0,1,2.13-15.76,71,71,0,0,1,3.3-12.82,3.17,3.17,0,0,0-.9.63,4,4,0,0,0-.47.53,75.12,75.12,0,0,0-3,11.91l-.51,2.92a.13.13,0,0,0,0,.06,104.56,104.56,0,0,0-1.6,12.6V890c0,.72-.06,1.43-.06,2.14a0,0,0,0,0,0,0,.22.22,0,0,0,.22.23Z"/><path class="cls-18" d="M1242.13,875.42l.07,0c.26.06.7-.3.8-.66a.31.31,0,0,0,0-.08.32.32,0,0,0,0-.17,18.84,18.84,0,0,1-.4-2.48c-.6-6.5,1.9-14.31,3.1-21.43.7-4.2,1.21-8.35,1.93-12.56a6.13,6.13,0,0,0-1.33,2.2c-.6,3.74-1.08,7.45-1.73,11.2-.79,4.6-2,9.4-2.68,14a30.55,30.55,0,0,0-.24,7.76s0,.08,0,.12a16.46,16.46,0,0,0,.36,2A.27.27,0,0,0,1242.13,875.42Z"/><path class="cls-18" d="M1227.17,858h0a.73.73,0,0,0,.49-.58c0-.13,0-.25,0-.37a.15.15,0,0,1,0-.07c.25-2.25.51-4.5.75-6.75l1.2-10.73a80.68,80.68,0,0,1,1.27-8.34c.64-3,1.71-6,2.63-9.07a73.83,73.83,0,0,0,2.38-12.51,5.28,5.28,0,0,0-1,.51,73.63,73.63,0,0,1-1.6,9.56c-.83,3.27-2.1,6.59-3,9.87a63.86,63.86,0,0,0-1.53,8.7c-.7,5.79-1.31,11.57-1.95,17.34,0,.12,0,.23,0,.35V856l-.19,1.69C1226.62,858,1226.9,858.1,1227.17,858Z"/><path class="cls-18" d="M1214.65,840.57l.09-.08v0a.71.71,0,0,0,.17-.36q2.5-15.51,6.11-31.29,1.7-7.43,3.64-14.9a4.66,4.66,0,0,0-1,.24q-1.25,4.83-2.41,9.65-4,16.85-6.82,33.43c-.13.76-.25,1.51-.38,2.27v0c0,.28-.09.55-.13.83C1213.81,840.83,1214.31,840.85,1214.65,840.57Z"/><path class="cls-18" d="M1201.68,822.58a.65.65,0,0,0,.13-.38c-.17-6,1.71-12.7,3.1-19.14,1.45-6.73,2.16-13.25,3.76-20,1.89-7.94,4.19-16,6.61-24a5,5,0,0,0-.86.1l-1,3.28c-2.12,7.2-4.31,14.44-6,21.57-1.62,7-2.3,13.7-3.89,20.65-.89,3.86-1.84,7.78-2.39,11.57a44.76,44.76,0,0,0-.43,4.47c0,.7,0,1.38,0,2.05C1200.79,823.17,1201.4,823,1201.68,822.58Z"/><path class="cls-18" d="M1179.75,785.48a.51.51,0,0,0,.13-.44c-.06-.35-.13-.7-.2-1l-.06-.29c-.21-1.15-.42-2.3-.6-3.45a44.27,44.27,0,0,1-.49-10.6c.22-2.57.72-5.23,1-7.82.3-2.74.37-5.39.46-8.05.2-5.74.38-11.47.57-17.2.13-4.44.34-8.9.43-13.32a7,7,0,0,0-1.07.6c-.3,11.07-.6,22.14-1.07,33.27-.21,5.13-1.39,10.56-1.51,15.65a38.63,38.63,0,0,0,.32,5.89c0,.44.11.87.17,1.3,0,.1,0,.21.05.31.27,1.78.61,3.52.95,5.27C1178.92,786,1179.48,785.81,1179.75,785.48Z"/><path class="cls-18" d="M1189.49,803.44a.52.52,0,0,0,.12-.41c0-.17,0-.35,0-.52a.28.28,0,0,0,0-.09,27.14,27.14,0,0,1,.55-6.61c.34-1.86.76-3.73,1.08-5.46,2.27-12,5.17-24.17,8.06-36.31,1-4,1.94-7.95,2.83-11.91.36-1.6.64-3.17.84-4.73a5.39,5.39,0,0,0-1.06.13,56.53,56.53,0,0,1-1.08,6.06c-2.47,10.58-5.08,21.19-7.42,31.74-1.33,5.95-2.61,11.9-3.65,17.78-.26,1.49-.59,3.07-.83,4.63-.16,1-.29,1.94-.35,2.87v.08a14.18,14.18,0,0,0,0,2.84C1188.63,804,1189.23,803.79,1189.49,803.44Z"/><path class="cls-18" d="M1419.15,1053.65l0,0a1,1,0,0,0,.52-1.3h0c-38.31-89.59-103.87-262.26-112.45-412.1a1,1,0,1,0-2,.11c8.6,150.14,74.24,323.06,112.6,412.77A1,1,0,0,0,1419.15,1053.65Z"/><path class="cls-18" d="M1262.93,652.24c7.73,6.65,15.42,13.38,23.69,19.37,4.34,3.13,8.84,5.9,13.45,8.59,1.33.78,5.38,2.35,8,3.75.44.24.87.49,1.29.77l.09.07a2.67,2.67,0,0,1,.9.87c-.35-.74-.7-1.47-1.06-2.2l-.12-.23c-.22-.45-.44-.9-.67-1.35-8.68-17.16-21.44-34.56-35.77-47.66-1.84-1.67-3.69-3.27-5.57-4.8a13.8,13.8,0,0,0-9.64-3.41,8.68,8.68,0,0,0-1.6.3,10,10,0,0,0-1.58.59,7.82,7.82,0,0,0-4.4,5.3C1248.52,639.2,1258.26,648.22,1262.93,652.24Z"/><path class="cls-18" d="M1265.86,704.2c8.72,5.29,17.42,10.65,26.57,15.19,4.79,2.37,9.68,4.35,14.68,6.25,1.49.56,6,1.48,8.77,2.47h0a5.7,5.7,0,0,1,2.19,1.15l0,.05s0-.05-.05-.06c-.4-.59-.81-1.17-1.23-1.76s-.91-1.26-1.38-1.89l0-.07-.64-.85c-11.31-15.06-26.38-29.6-42.26-39.87q-3.12-2-6.28-3.82a14.16,14.16,0,0,0-9.3-1.93c-.26,0-.51.1-.77.16a8.87,8.87,0,0,0-1,.34,8.26,8.26,0,0,0-5.41,7C1249.49,693.73,1260.59,701,1265.86,704.2Z"/><path class="cls-18" d="M1278.13,757.66c8.31,5,16.6,10.14,25.31,14.46,4.57,2.27,9.23,4.15,14,6,1.57.6,6.64,1.6,9.16,2.66h0l.23.1a4.25,4.25,0,0,1,.8.46,1,1,0,0,1,.3.28l-.21-.3c-.48-.69-1-1.37-1.47-2.06l0,0c-1.23-1.7-2.52-3.4-3.85-5.09a162.51,162.51,0,0,0-37.89-34.9q-3-1.94-6-3.64a13.12,13.12,0,0,0-9.59-1.69,8.34,8.34,0,0,0-1.66.63,8.54,8.54,0,0,0-1.54,1,7.32,7.32,0,0,0-2.94,5.4C1262.54,747.67,1273.11,754.61,1278.13,757.66Z"/><path class="cls-18" d="M1295.88,800.44c7.17,4.34,14.33,8.76,21.85,12.48,4,2,8,3.59,12.08,5.15,1,.39,3.74,1,6,1.63l.5.15.06,0a13.83,13.83,0,0,1,1.85.71c.14.07.27.15.4.23l.07.05a1.42,1.42,0,0,1,.25.24l-.3-.42-.09-.12c-.08-.13-.17-.25-.26-.37s-.34-.49-.52-.73c-.75-1.05-1.54-2.1-2.34-3.15l-.08-.1a140.35,140.35,0,0,0-33.93-31.71c-1.71-1.11-3.44-2.16-5.17-3.14a11.34,11.34,0,0,0-8.28-1.46,7.59,7.59,0,0,0-4,2.68,6.69,6.69,0,0,0-.77,1.28,5.81,5.81,0,0,0-.49,2.09C1282.42,791.82,1291.54,797.81,1295.88,800.44Z"/><path class="cls-18" d="M1307.72,842.42c7.18,4.36,14.33,8.76,21.86,12.5,3.94,2,8,3.58,12.08,5.14,1.08.41,4.13,1.06,6.41,1.76l.1,0,.15,0a10.76,10.76,0,0,1,1.86.74l.26.17.11.08a.81.81,0,0,1,.18.19c-.07-.1-.14-.22-.22-.32s-.09-.13-.15-.2a.83.83,0,0,0-.08-.12c-.62-.88-1.25-1.76-1.9-2.63-.44-.6-.89-1.19-1.34-1.78l-.14-.18a141,141,0,0,0-33.68-31.38q-2.57-1.65-5.17-3.14a11.34,11.34,0,0,0-8.28-1.45l-.13,0a7.1,7.1,0,0,0-1.66.69,6.58,6.58,0,0,0-3.51,5.31C1294.26,833.81,1303.39,839.8,1307.72,842.42Z"/><path class="cls-18" d="M1324.2,882.93c6.28,3.8,12.53,7.65,19.1,10.91,3.45,1.71,7,3.14,10.56,4.5,1,.4,4.12,1,6.14,1.72l.14.05.34.12a4.67,4.67,0,0,1,1.07.54,1,1,0,0,1,.24.22l-.17-.24c-.74-1.07-1.52-2.13-2.32-3.19-.07-.09-.13-.18-.2-.26s-.2-.28-.31-.41A123,123,0,0,0,1329,869q-2.23-1.46-4.52-2.74a9.92,9.92,0,0,0-7.23-1.28,6.83,6.83,0,0,0-2.5,1.28,5.57,5.57,0,0,0-2.14,4C1312.44,875.4,1320.42,880.64,1324.2,882.93Z"/><path class="cls-18" d="M1335.43,915c6.27,3.8,12.53,7.65,19.1,10.91,3.45,1.71,7,3.13,10.56,4.5,1,.36,3.68.93,5.68,1.56l.16,0a4.83,4.83,0,0,1,2.09,1c-.25-.36-.5-.72-.76-1.07-.82-1.15-1.66-2.29-2.54-3.43l-.24-.31a123.14,123.14,0,0,0-29.25-27.18c-1.49-1-3-1.88-4.51-2.74a9.89,9.89,0,0,0-7.24-1.28,6.79,6.79,0,0,0-1.73.74,6.37,6.37,0,0,0-1.29,1,5.35,5.35,0,0,0-1.61,3.53C1323.67,907.49,1331.65,912.73,1335.43,915Z"/><path class="cls-18" d="M1352.65,953c5.43,3.29,10.85,6.62,16.54,9.45,3,1.48,6,2.71,9.14,3.9.83.31,3.15.8,4.87,1.34l.45.15.19.06a3.19,3.19,0,0,1,1.36.74c-.72-1-1.46-2-2.23-3.07l-.31-.42-.23-.3a106.5,106.5,0,0,0-25.62-23.91q-1.95-1.26-3.91-2.38a8.57,8.57,0,0,0-6.27-1.1,5.91,5.91,0,0,0-1.06.4,5.42,5.42,0,0,0-1.37.95,4.66,4.66,0,0,0-1.58,3.23C1342.47,946.47,1349.38,951,1352.65,953Z"/><path class="cls-18" d="M1372.12,991.23c4.31,2.61,8.62,5.27,13.14,7.51,2.37,1.17,4.79,2.15,7.26,3.1.57.21,2,.53,3.31.9.51.14,1,.3,1.37.44l.22.1a1.51,1.51,0,0,1,.56.38c-.3-.44-.61-.87-.93-1.3l-.39-.54c-.35-.47-.7-1-1.07-1.42a84.67,84.67,0,0,0-20.17-18.76c-1-.67-2.06-1.3-3.1-1.89a6.8,6.8,0,0,0-5-.87l-.08,0a4.49,4.49,0,0,0-1.57.8,3.8,3.8,0,0,0-1.54,2.81C1364,986.05,1369.52,989.65,1372.12,991.23Z"/><path class="cls-18" d="M1287.64,599.31c.33.87.68,1.75,1,2.63q4.77,11.67,9.53,23.36c1.23,3,4.84,9.57,7.09,15,.09.22.17.44.26.65,1,2.57,1.69,4.83,1.58,6.26.1-1.47.2-3,.3-4.41,0-.37,0-.73.08-1.09,1.54-21.89,3.67-43.19,3.07-65.63-.19-7.18-.66-14.67-3.54-21.51s-8.81-12.8-14.67-12.55a7.94,7.94,0,0,0-1.94.31,9,9,0,0,0-1.39.52c-5.33,2.61-8,10.82-8.29,18.51C1280.18,574.31,1282.9,587,1287.64,599.31Z"/><path class="cls-18" d="M1310.07,680.16a26,26,0,0,1,.25-4.23l0-.42a33.49,33.49,0,0,1,.78-3.71c3-11.49,11.75-23.48,17.49-32.36,7.11-11,10.36-18.75,13.11-31.75.91-4.33,1.63-9,0-13.06a9.73,9.73,0,0,0-6.69-5.71,6.59,6.59,0,0,0-1.54-.13,6.09,6.09,0,0,0-2.37.55c-3,1.4-4.37,4.85-5.43,8-7.53,22.48-14.53,46.73-15.6,70.78,0,1.2-.09,2.41-.12,3.61,0,.29,0,.57,0,.85C1309.92,675.12,1310,677.64,1310.07,680.16Z"/><path class="cls-18" d="M1315.56,714.25c-.09.68-.18,1.35-.26,2,.08-.58.18-1.15.3-1.72l0-.13a34.38,34.38,0,0,1,3.27-8.68c5.21-10,14.7-19.43,21.25-26.7,8.78-9.72,13.23-16.85,18-29.24,1.6-4.13,3-8.59,2-12.89a9.93,9.93,0,0,0-3.62-5.55,8.62,8.62,0,0,0-1.36-.85,6.37,6.37,0,0,0-4.63-.52c-3.19.9-5.09,4.08-6.64,7-11.51,21.88-22.74,45.76-27.32,70.4q-.62,3.33-1.07,6.67A.88.88,0,0,0,1315.56,714.25Z"/><path class="cls-18" d="M1315.27,716.52c0-.09,0-.17,0-.24Z"/><path class="cls-18" d="M1322.54,760.63a26.08,26.08,0,0,1,.85-3.9c3.66-12.33,16-24.47,24-33.32,8.78-9.72,13.23-16.85,18-29.24,1.59-4.13,3-8.59,2-12.89a10,10,0,0,0-3.79-5.69,7.69,7.69,0,0,0-1.1-.67,6.41,6.41,0,0,0-4.72-.57c-3.19.9-5.1,4.09-6.64,7-10.74,20.44-21.26,42.62-26.33,65.53q-1,4.43-1.67,8.86v0c-.06.38-.12.75-.17,1.11C1322.85,758.14,1322.68,759.39,1322.54,760.63Z"/><path class="cls-18" d="M1331.6,800.46a19.26,19.26,0,0,1,.86-3.6s0,0,0-.06c3-8.94,11.89-17.7,17.7-24.14a62.07,62.07,0,0,0,13.47-21.86c1.2-3.07,2.27-6.41,1.53-9.63a7.39,7.39,0,0,0-3.13-4.45,5.86,5.86,0,0,0-1.36-.65,4.6,4.6,0,0,0-2.7-.07c-2.39.67-3.81,3-5,5.24-8.18,15.56-16.17,32.45-19.89,49.9-.33,1.58-.63,3.16-.89,4.74a.17.17,0,0,0,0,.07c0,.13,0,.25-.06.38C1332,797.7,1331.76,799.08,1331.6,800.46Z"/><path class="cls-18" d="M1340.88,835.35c0-.27.09-.55.14-.83a21.85,21.85,0,0,1,.61-2.38l0-.1a33.2,33.2,0,0,1,3.87-7.83c4-6.2,9.76-12,13.91-16.6a62,62,0,0,0,13.48-21.86c1.2-3.07,2.27-6.41,1.53-9.63A7.23,7.23,0,0,0,1370,771a5,5,0,0,0-1.48-.26,4.62,4.62,0,0,0-1.27.17c-2.38.67-3.81,3-5,5.25-8.88,16.88-17.54,35.35-20.73,54.4,0,.23-.09.47-.12.7,0,0,0,.09,0,.13-.17,1-.31,2.06-.44,3.09C1341,834.79,1340.91,835.07,1340.88,835.35Z"/><path class="cls-18" d="M1352.61,876.63a.37.37,0,0,1,0-.11c.07-.46.16-.93.27-1.39a17.49,17.49,0,0,1,.64-2.1.75.75,0,0,1,.06-.13,21.77,21.77,0,0,1,1.08-2.42c3.11-6.06,8.89-11.83,12.87-16.23a50,50,0,0,0,10.84-17.58c1-2.48,1.82-5.16,1.23-7.75s-3.23-4.88-5.78-4.16l-.2.06a5.26,5.26,0,0,0-2.47,2,15.72,15.72,0,0,0-1.32,2.19c-5.13,9.75-10.17,20.16-13.55,30.94a93.7,93.7,0,0,0-3,12,1,1,0,0,0,0,.18q-.26,1.44-.45,2.88c-.07.5-.13,1-.19,1.48A.57.57,0,0,0,1352.61,876.63Z"/><path class="cls-18" d="M1366.66,915.67c0-.41.11-.82.2-1.22,0-.07,0-.14.05-.2,1.42-6,7.54-12,11.43-16.32a39,39,0,0,0,8.45-13.7c.75-1.94,1.42-4,1-6.05a4.44,4.44,0,0,0-3.16-3.29,2.93,2.93,0,0,0-1.35.05,3.12,3.12,0,0,0-.77.34,7.26,7.26,0,0,0-2.34,3c-2.65,5-5.27,10.3-7.5,15.72a.11.11,0,0,0,0,.08,86.41,86.41,0,0,0-5.44,18.08c-.11.66-.21,1.33-.3,2,0,.09,0,.17,0,.25C1366.76,914.79,1366.71,915.23,1366.66,915.67Z"/><path class="cls-18" d="M1378.65,948l0,.3c0-.1,0-.19,0-.29a5.64,5.64,0,0,1,.13-.67,13,13,0,0,1,1.46-3.53c2-3.44,5.19-6.69,7.46-9.2a30.41,30.41,0,0,0,6.58-10.69,8.23,8.23,0,0,0,.75-4.71,3.51,3.51,0,0,0-.93-1.67,3,3,0,0,0-1.33-.84,2.22,2.22,0,0,0-1.25,0,4.53,4.53,0,0,0-2.42,2.57c-3.54,6.73-7,14-9,21.49a51,51,0,0,0-1.37,6.83Z"/><path class="cls-18" d="M1378.62,948.25a.77.77,0,0,0,0,.15A.77.77,0,0,1,1378.62,948.25Z"/><path class="cls-18" d="M1390.54,981.11a3.62,3.62,0,0,1,.06-.46,2.93,2.93,0,0,1,.05-.29c.56-2.83,2.5-5.68,4.65-8.24,1.48-1.78,3.07-3.43,4.35-4.84a30.56,30.56,0,0,0,6.58-10.69,8.23,8.23,0,0,0,.75-4.71,3.16,3.16,0,0,0-.17-.52,3.58,3.58,0,0,0-.92-1.32,2.56,2.56,0,0,0-2.42-.69c-1.17.32-1.87,1.49-2.43,2.56-4.12,7.84-8.15,16.38-9.88,25.19-.21,1.07-.39,2.14-.52,3.21a1.75,1.75,0,0,0,0,.32A3.93,3.93,0,0,0,1390.54,981.11Z"/><path class="cls-18" d="M1419.36,1054.64l.05,0a1,1,0,0,0,.53-1.31h0c-38.32-89.59-103.88-262.26-112.45-412.1a1,1,0,0,0-2,.11c8.6,150.15,74.24,323.06,112.61,412.77A1,1,0,0,0,1419.36,1054.64Z"/><path class="cls-18" d="M1307.19,640.9v-.33c0-.21,0-.43,0-.65a258.21,258.21,0,0,0-4.9-56.16,233.17,233.17,0,0,0-11.87-41.44,8.61,8.61,0,0,0-1.39.52,231,231,0,0,1,12,41.95,258.5,258.5,0,0,1,4.74,54.67c0,.4,0,.8,0,1.2,0,.12,0,.24,0,.36C1305.68,642,1307.17,641.85,1307.19,640.9Z"/><path class="cls-18" d="M1254.34,626.9c1.64,1.4,3.27,2.82,4.9,4.22,6.3,5.4,12.57,10.86,18.6,16.58A196.87,196.87,0,0,1,1308.06,684c.5.78,1,1.56,1.48,2.35a.54.54,0,0,1,.1.16l.36.58c.5.82,1.72,0,1.22-.86-.65-1.07-1.32-2.12-2-3.17l-.11-.16-.63-1a199.59,199.59,0,0,0-29.7-35.33c-6.25-5.94-12.77-11.58-19.31-17.19l-3.56-3.05A8.55,8.55,0,0,0,1254.34,626.9Z"/><path class="cls-18" d="M1255.15,679.57c7,4.44,13.52,9.78,20.24,14.21a164.61,164.61,0,0,1,20.17,15.37q10.15,9.21,20.22,18.47l0,0a.67.67,0,0,0,1,0l.09-.12a.74.74,0,0,0-.09-1l-1.36-1.23,0,0-.58-.52c-6.32-5.78-12.61-11.57-19-17.31a175.23,175.23,0,0,0-21-15.76c-6-4-11.77-8.55-17.86-12.56-.26.05-.51.1-.77.17A8.87,8.87,0,0,0,1255.15,679.57Z"/><path class="cls-18" d="M1265.71,735.47c7.38,3.22,13.93,7.7,20.5,12.34,7.19,5.08,14.38,10.18,21.3,15.62,3.4,2.67,6.74,5.41,10,8.27,3.07,2.72,6.48,5.51,9,8.75l0,0c.11.13.2.25.29.37a1.09,1.09,0,0,1,.13.17.71.71,0,0,0,.68.28h.09a.72.72,0,0,0,.58-.84.81.81,0,0,0-.13-.3,31.82,31.82,0,0,0-2.33-2.72l0,0c-1.1-1.15-2.27-2.24-3.46-3.31l-2.57-2.31c-3.32-3-6.75-5.87-10.25-8.65-7-5.57-14.32-10.77-21.64-15.94-6.63-4.69-13.23-9.4-20.67-12.7A8.85,8.85,0,0,0,1265.71,735.47Z"/><path class="cls-18" d="M1283.11,783.86c18.53,10.47,36.79,21.52,52.65,35.84.21.18.41.36.6.55a.23.23,0,0,1,.07.07l.61.55a.71.71,0,0,0,1,0,.72.72,0,0,0,.14-.24.66.66,0,0,0,.06-.39.7.7,0,0,0-.24-.48l-.28-.25c-.65-.6-1.31-1.2-2-1.79l-.07-.06c-15.66-13.91-33.6-24.74-51.79-35A6.86,6.86,0,0,0,1283.11,783.86Z"/><path class="cls-18" d="M1298,822.62c7.64,4.84,15,10.14,22.34,15.37A197.6,197.6,0,0,1,1348,861.56l.12.13a1.45,1.45,0,0,1,.21.22c.29.29.56.58.84.88a.63.63,0,0,0,.87.06.75.75,0,0,0,.15-.2.47.47,0,0,0,.1-.2s0-.05,0-.08a.75.75,0,0,0,0-.21.72.72,0,0,0-.12-.4l-.09-.12,0,0c-.56-.6-1.13-1.2-1.7-1.79-.38-.4-.78-.8-1.17-1.18l-.12-.13a204.06,204.06,0,0,0-26.56-22.19c-6.84-4.87-13.76-9.82-20.89-14.38A7.36,7.36,0,0,0,1298,822.62Z"/><path class="cls-18" d="M1314.76,866.26c16.17,9.46,30.76,21.5,45.14,33.5l.16.13.41.35.46.37a.65.65,0,0,0,.62.16l.06,0a.82.82,0,0,0,.51-.59.64.64,0,0,0-.22-.67l0,0-2.69-2.25-.16-.13-.25-.2c-13.57-11.31-27.4-22.53-42.6-31.52A6.16,6.16,0,0,0,1314.76,866.26Z"/><path class="cls-18" d="M1325.45,898.83a135.7,135.7,0,0,1,18,10.39c9.44,6.61,18.12,14.4,27,21.79a1.75,1.75,0,0,0,.2.16l.88.74a.67.67,0,0,0,.76.1.8.8,0,0,0,.43-.52.62.62,0,0,0,0-.38.19.19,0,0,0,0-.08.79.79,0,0,0-.21-.27l0,0c-.93-.76-1.85-1.53-2.77-2.31l-.19-.16c-8.43-7.11-16.77-14.5-25.84-20.72a139.54,139.54,0,0,0-16.89-9.74A7.13,7.13,0,0,0,1325.45,898.83Z"/><path class="cls-18" d="M1344.19,938.79a176,176,0,0,1,39,28.88l.63.64.25.25.64.64c.67.69,1.62-.47,1-1.15-.92-.94-1.86-1.87-2.81-2.79l-.25-.24-.19-.18a177.2,177.2,0,0,0-36.85-27A6,6,0,0,0,1344.19,938.79Z"/><path class="cls-18" d="M1365.69,979.7a145.24,145.24,0,0,1,30.14,23c.68.68,1.35,1.37,2,2.08l.32.34.63.69a.8.8,0,0,0,1.13.06.79.79,0,0,0,.27-.55.57.57,0,0,0-.11-.29l-.07-.09c-1.07-1.17-2.17-2.31-3.28-3.44l-.3-.3-.84-.83a148.67,148.67,0,0,0-28.33-21.5A4.49,4.49,0,0,0,1365.69,979.7Z"/><path class="cls-18" d="M1390.83,981.25v0l.08-.17q2.11-4.5,4.38-8.93,5.39-10.61,11.51-20.77a3.57,3.57,0,0,0-.93-1.32q-8,13.17-14.72,27.07c-.33.66-.66,1.34-1,2l-.09.19c-.2.42-.41.85-.61,1.28a.75.75,0,0,0,.37,1A.74.74,0,0,0,1390.83,981.25Z"/><path class="cls-18" d="M1378.47,947.83a.48.48,0,0,0,.11-.09.65.65,0,0,0,.13-.23v0a1.59,1.59,0,0,1,.07-.2c.43-1.21.92-2.39,1.46-3.54,2.33-5.1,5.47-9.77,8.34-14.59a62.21,62.21,0,0,0,4.6-9.11c.12-.32.46-1.33.92-2.57a3.06,3.06,0,0,0-1.33-.84,79,79,0,0,1-3.52,8.33c-2.86,5.36-6.39,10.34-9.17,15.71a50.15,50.15,0,0,0-2.26,5c0,.06,0,.12-.08.19-.13.34-.26.69-.38,1a.8.8,0,0,0,1.1,1Z"/><path class="cls-18" d="M1365.13,915.16a.81.81,0,0,0,1.13-.08.87.87,0,0,0,.16-.3c.08-.3.16-.6.25-.9a1.17,1.17,0,0,1,0-.2c.14-.53.29-1.06.45-1.58,2.17-7.35,5.39-14.4,8.54-21.37a84.92,84.92,0,0,1,8.87-15.85,2.9,2.9,0,0,0-1.34,0,3.12,3.12,0,0,0-.77.34,89.25,89.25,0,0,0-8.11,14.83c-.58,1.28-1.16,2.56-1.73,3.84l0,.08a144.65,144.65,0,0,0-6.71,17.19l-.06.18q-.46,1.56-.87,3.12a.29.29,0,0,0,0,.09A.6.6,0,0,0,1365.13,915.16Z"/><path class="cls-18" d="M1352.81,875a.28.28,0,0,0,.08.11A.81.81,0,0,0,1354,875a.44.44,0,0,0,.08-.11l.06-.11a.8.8,0,0,0,0-.26,34.45,34.45,0,0,1,.44-4.07c1.71-10.27,7.72-19.44,11.86-28.86,2.45-5.55,4.64-11.25,7.11-16.8a5.21,5.21,0,0,0-2.47,2c-2.14,5-4.13,10-6.33,15-2.71,6.06-6.06,12-8.55,18.14a49,49,0,0,0-3.21,11.31l0,.2c-.15,1.07-.25,2.15-.3,3.25A.57.57,0,0,0,1352.81,875Z"/><path class="cls-18" d="M1341,834.51h0a.63.63,0,0,0,.81-.37v0l.19-.51,0-.09q1.73-4.65,3.46-9.31,2.74-7.4,5.51-14.79a112.81,112.81,0,0,1,4.69-11.18c1.91-3.81,4.37-7.3,6.64-10.91,3.24-5.14,5.43-10.69,7.64-16.29a5,5,0,0,0-1.48-.27,97.12,97.12,0,0,1-5.56,12.67c-2.25,4-5.06,7.76-7.33,11.8a84.41,84.41,0,0,0-5.15,11.44c-3,7.94-6,15.94-8.92,23.9-.06.16-.11.32-.18.48l0,.1-.87,2.33a.78.78,0,0,0,.46,1Z"/><path class="cls-18" d="M1332.17,796.33a.44.44,0,0,0,.15-.05s0,0,0,0a.63.63,0,0,0,.34-.36q8.92-20.62,19.27-40.59,4.89-9.39,10.09-18.61a6,6,0,0,0-1.36-.64q-3.35,6-6.58,12-11.31,21.12-21,43.07l-1.32,3s0,0,0,.05l-.48,1.09a.77.77,0,0,0,.42,1A.68.68,0,0,0,1332.17,796.33Z"/><path class="cls-18" d="M1323,756.9a.7.7,0,0,0,.3-.43c2.05-9.1,6.88-17.22,11-25.45,4.31-8.59,7.63-17.61,12.15-26.11,5.3-10,11.16-19.7,17.16-29.32a7.69,7.69,0,0,0-1.1-.67l-2.41,3.93c-5.31,8.65-10.72,17.27-15.45,26.26-4.61,8.78-8,18.13-12.55,26.92-2.53,4.87-5.18,9.78-7.28,14.88a65.85,65.85,0,0,0-2.21,6.23v0c-.29,1-.56,2-.78,3a.72.72,0,0,0,.59.85A.74.74,0,0,0,1323,756.9Z"/><path class="cls-18" d="M1310.07,680.29a.6.6,0,0,0,.33-.53l.15-1.76c0-.16,0-.33,0-.49.17-1.91.35-3.82.56-5.71a77.09,77.09,0,0,1,3.39-16.26c1.24-3.61,2.85-7.07,4.18-10.65,1.4-3.77,2.49-7.65,3.6-11.52q3.59-12.52,7.16-25c1.84-6.46,3.77-12.9,5.54-19.4a6.63,6.63,0,0,0-1.54-.13c-4.53,16.16-9.07,32.34-13.83,48.44-2.19,7.42-5.68,14.36-7.75,21.8a72.23,72.23,0,0,0-1.82,9.08c-.1.7-.19,1.4-.27,2.11l-.06.5c-.34,2.91-.57,5.84-.82,8.77a.82.82,0,0,0,.76.87A1,1,0,0,0,1310.07,680.29Z"/><path class="cls-18" d="M1315.27,716.52a.66.66,0,0,0,.31-.5l.12-.83,0-.14a39.75,39.75,0,0,1,3.17-9.3c1.11-2.43,2.33-4.8,3.38-7.06,7.29-15.65,15.44-30.91,23.55-46.14,2.66-5,5.37-9.94,8-15a67.84,67.84,0,0,0,2.81-6.21,7.37,7.37,0,0,0-1.36-.85,75.77,75.77,0,0,1-3.6,8c-7,13.33-14.21,26.56-21.06,40-3.86,7.56-7.67,15.15-11.17,22.89-.88,1.95-1.87,4-2.76,6.07a41.89,41.89,0,0,0-1.5,3.94.49.49,0,0,0,0,.11,24.88,24.88,0,0,0-1,4.28.79.79,0,0,0,.71.86A.78.78,0,0,0,1315.27,716.52Z"/><path class="cls-18" d="M1083.34,806.16a.35.35,0,0,1-.26-.1,41.69,41.69,0,0,1-6.68-7.9l-.17-.25a.37.37,0,0,1,.11-.51l.07,0,2.33-.9a.36.36,0,0,0,.21-.47.37.37,0,0,0-.4-.23l-3,.48a.39.39,0,0,1-.38-.18,42.85,42.85,0,0,1-4.82-13.17.36.36,0,0,1,.29-.43h0c2-.27,4.16-.59,5.47-.79a.37.37,0,0,0,.1-.7l-6.33-2.93a.36.36,0,0,1-.21-.31,42.11,42.11,0,0,1,.84-11.85.36.36,0,0,1,.44-.28,41,41,0,0,1,5.42,1.58.36.36,0,0,1,.22.23l.87,2.74a.37.37,0,0,0,.46.24.36.36,0,0,0,.25-.29l.27-1.6a.38.38,0,0,1,.43-.3.11.11,0,0,1,.08,0,43.59,43.59,0,0,1,13.84,9.7.38.38,0,0,1,.08.37l-2,5.72a.36.36,0,0,0,.22.47.34.34,0,0,0,.41-.12l3-3.87a.36.36,0,0,1,.51-.06.1.1,0,0,1,.06,0c.64.79,1.25,1.61,1.84,2.44a43,43,0,0,1,6.75,15.81c.9,4.39,1.5,9.63.71,14.09-.84,4.73-4.33,3.07-7.86,1.66a43.37,43.37,0,0,1-11.17-6.54.36.36,0,0,1,.16-.64l3-.55a.38.38,0,0,0,.3-.43.37.37,0,0,0-.37-.3Z"/><path class="cls-18" d="M1076.4,798.16l-.16-.24a.38.38,0,0,1,.11-.52l.07,0,2.23-.85a.38.38,0,0,0,.22-.48.38.38,0,0,0-.42-.24l-2.94.46a.38.38,0,0,1-.39-.19,42.64,42.64,0,0,1-4.82-13.15.38.38,0,0,1,.3-.44h0c2-.26,4.11-.58,5.43-.78a.38.38,0,0,0,.31-.43.38.38,0,0,0-.21-.28l-6.3-2.92a.38.38,0,0,1-.22-.32,42.66,42.66,0,0,1,.71-11.22c.14-.86.24-1.3,1-.19l32.5,47.7a.37.37,0,0,1,0,.38c-1.3,2.72-4.33,1.31-7.39.1A43.47,43.47,0,0,1,1085.3,808a.38.38,0,0,1-.06-.53.43.43,0,0,1,.23-.14l2.83-.52a.38.38,0,0,0-.08-.75l-4.88.11a.38.38,0,0,1-.27-.1A42,42,0,0,1,1076.4,798.16Z"/></g></g></svg>