<svg id="Layer_1" data-name="Layer 1" xmlns="http://www.w3.org/2000/svg" viewBox="0 0 380.43 105.53"><defs><style>.cls-1{fill:#564082;}.cls-2{fill:#f48020;}.cls-3{fill:#0069a8;}.cls-4{fill:#2d8ea1;}</style></defs><path class="cls-1" d="M101.41,30.79a14.07,14.07,0,0,0-8-2.48c-3.93,0-6.74,1.77-6.74,4.67,0,2.44,2.06,3.69,6.09,4.19l2.36.29c4.56.56,8.46,2.4,8.46,7.15,0,5.35-4.86,8.16-10.68,8.16a17.43,17.43,0,0,1-10.61-3.5l1.84-2.69a14.37,14.37,0,0,0,8.77,3c4,0,7.16-1.63,7.16-4.67,0-2.49-2.25-3.68-6.43-4.2l-2.5-.31c-4.44-.54-8-2.59-8-7.19,0-5.18,4.62-8.08,10.28-8.08a16.47,16.47,0,0,1,9.69,2.94Z"/><path class="cls-1" d="M128.39,28.7h-9.16V52.39h-3.38V28.7h-9.18V25.49h21.72Z"/><path class="cls-1" d="M133.46,50.12a2.62,2.62,0,1,1-2.61-2.61A2.69,2.69,0,0,1,133.46,50.12Z"/><path class="cls-1" d="M178.33,52.39H175V29.24l-9,20.25h-3.57l-9-20.1v23H150V25.47h5.17l9,20.08,9-20.08h5.16Z"/><path class="cls-1" d="M189.37,52.39H186V25.49h3.38Z"/><path class="cls-1" d="M220.46,30.66l-2.83,1.9a9.72,9.72,0,0,0-8.18-4.23c-5.92,0-10.4,4.29-10.4,10.61s4.48,10.6,10.4,10.6a9.6,9.6,0,0,0,8.16-4.2l2.77,2a13,13,0,0,1-10.93,5.44c-8.07,0-13.93-5.8-13.93-13.85s5.86-13.85,13.93-13.85C214.15,25.09,218.34,27.2,220.46,30.66Z"/><path class="cls-1" d="M229.81,37.25h15.86V25.49h3.38v26.9h-3.38v-12H229.81v12h-3.39V25.49h3.39Z"/><path class="cls-1" d="M279.65,52.39H276l-3-7.34H260l-2.94,7.34h-3.52l10.94-26.9h4.2ZM261.31,41.84h10.47l-5.23-13Z"/><path class="cls-1" d="M303.24,52.39h-19.1V25.49h18.91v3.17H287.52v8.59h15v3.19h-15v8.78h15.72Z"/><path class="cls-1" d="M328.92,52.39H310.13V25.49h3.38V49.18h15.41Z"/><path class="cls-1" d="M333.45,24.72l-2.07,9.9h-2.71l1.11-9.9Z"/><path class="cls-1" d="M356.54,30.79a14.07,14.07,0,0,0-8-2.48c-3.94,0-6.75,1.77-6.75,4.67,0,2.44,2.06,3.69,6.09,4.19l2.37.29c4.55.56,8.45,2.4,8.45,7.15,0,5.35-4.86,8.16-10.68,8.16a17.45,17.45,0,0,1-10.61-3.5l1.85-2.69a14.32,14.32,0,0,0,8.76,3c4,0,7.16-1.63,7.16-4.67,0-2.49-2.24-3.68-6.43-4.2l-2.5-.31c-4.44-.54-8-2.59-8-7.19,0-5.18,4.61-8.08,10.28-8.08a16.47,16.47,0,0,1,9.68,2.94Z"/><path class="cls-2" d="M51.17,43.86V57.08c0,8,4.21,9.81,6,10.19a4.87,4.87,0,0,0,.65.1,17.19,17.19,0,0,0,1.66-4.11,4.21,4.21,0,0,1-1.28.09c-1.94-.38-3.1-3.05-3.1-7.17V42.69l0,0c-.22-4.62-1.71-8.29-4.46-10.91a13.76,13.76,0,0,0-3.88-2.59V33.7C49.1,35.3,51.17,38.29,51.17,43.86Z"/><path class="cls-3" d="M41.28,33.53V56.18c0,.23,0,.46,0,.7s0,.42,0,.63v0h0c.32,7.2,3.2,11,5.64,12.85l.19.14.06,0h0a4.43,4.43,0,0,0,.42.29h0a14.08,14.08,0,0,0,5.51,1.87,10.53,10.53,0,0,0,3.48-3.35h0l-.46,0H56l-.48,0h-.66a12.79,12.79,0,0,1-1.66-.16h0a8.62,8.62,0,0,1-3.62-1.95c-2.56-1.9-4-5.31-4.27-9.87v-.19c0-.17,0-.34,0-.52v-.06c0-.2,0-.39,0-.58V36.29c0-5-.52-8-1.26-10A13.94,13.94,0,0,0,42.14,23l0,0a13.61,13.61,0,0,0-5.22-4.07v4.49C39.22,25,41.28,28,41.28,33.53Z"/><path class="cls-4" d="M26.81,14.09c2,1.31,3.85,3.61,4.41,7.66l.17,6.63V58.57c0,.6,0,1.2.05,1.77.3,5.38,2,9.6,5.08,12.58,1.45,1.25,3.2,2.22,6.71,2.51a15,15,0,0,0,8.22-1.58H49.24l-.29,0-.18,0-.28,0-.19,0-.28,0-.19,0-.28,0-.2,0-.27,0-.2,0-.26,0-.21,0-.26,0-.2,0-.27-.06-.2,0-.26-.07-.2,0-.26-.07-.2-.06L44.3,73l-.19-.06-.26-.09-.19-.07-.26-.09-.19-.08-.25-.1-.19-.08-.25-.12-.18-.08-.25-.13L41.92,72a2,2,0,0,1-.25-.14l-.17-.09-.25-.15-.16-.1-.25-.17-.15-.09-.26-.2-.12-.09A3.65,3.65,0,0,1,40,70.7l-.07-.06c-.13-.1-.25-.21-.37-.32-2.78-2.52-4.19-6.47-4.19-11.75V24.38a21.74,21.74,0,0,0-1.85-8.53,12.78,12.78,0,0,0-1-1.7.76.76,0,0,1-.11-.16,13.52,13.52,0,0,0-5.57-4.35Z"/><path class="cls-1" d="M65.2,59.45a19.57,19.57,0,0,0-8.53-15.78v5.17a15.59,15.59,0,0,1,4.56,10.72,13.22,13.22,0,0,1-.09,1.87.49.49,0,0,1,0,.12l-.05.48c0,.16,0,.32-.06.48l-.08.47c-.07.32-.13.63-.22.94a18.33,18.33,0,0,1-6.15,9.5,15.77,15.77,0,0,1-3.25,2,15.21,15.21,0,0,1-5.87,1.37h0a14.21,14.21,0,0,1-1.6,0,19.63,19.63,0,0,1-3-.44C34.46,75,29,71,26.51,65.46a17.9,17.9,0,0,1-1.25-6.59V9.06a13.51,13.51,0,0,0-1.64-.4,2,2,0,0,0-2.34,1.95V58.87A21.8,21.8,0,0,0,22.83,67l0,.09c3.57,7.86,12,13.25,21.45,13.73h.22a21.92,21.92,0,0,0,10.55-3.44h0A21.77,21.77,0,0,0,61,71.82h0A21.85,21.85,0,0,0,64.61,64l0-.07A12.79,12.79,0,0,0,65.2,59.45Z"/><path class="cls-1" d="M270.35,64.73a8,8,0,1,0,8,8A8,8,0,0,0,270.35,64.73Zm0,14.16a6.12,6.12,0,1,1,6.12-6.12A6.12,6.12,0,0,1,270.35,78.89Z"/><path class="cls-1" d="M303.39,64.73a8,8,0,1,0,8,8A8,8,0,0,0,303.39,64.73Zm0,14.16a6.12,6.12,0,1,1,6.12-6.12A6.12,6.12,0,0,1,303.39,78.89Z"/><path class="cls-1" d="M351.12,64.73a8,8,0,1,0,8,8A8,8,0,0,0,351.12,64.73Zm0,14.16a6.12,6.12,0,1,1,6.12-6.12A6.12,6.12,0,0,1,351.12,78.89Z"/><polygon class="cls-1" points="167.59 71.83 158.66 71.83 158.66 65.02 156.65 65.02 156.65 80.43 158.66 80.43 158.66 73.62 167.59 73.62 167.59 80.43 169.6 80.43 169.6 65.02 167.59 65.02 167.59 71.83"/><polygon class="cls-1" points="238.02 65.02 238.02 71.83 229.09 71.83 229.09 65.02 227.07 65.02 227.07 80.43 229.09 80.43 229.09 73.62 238.02 73.62 238.02 80.43 240.03 80.43 240.03 65.02 238.02 65.02"/><path class="cls-1" d="M194.59,65h-2l-6.23,15.41h2l1.7-4.21h7.41l1.7,4.21h2L195,65Zm-3.81,9.42,3-7.39,3,7.39Z"/><polygon class="cls-1" points="174.16 65.02 173.45 65.02 173.45 80.43 174.16 80.43 175.46 80.43 184.29 80.43 184.29 78.64 175.46 78.64 175.46 73.62 183.94 73.62 183.94 71.83 175.46 71.83 175.46 66.81 184.29 66.81 184.29 65.02 175.46 65.02 174.16 65.02"/><polygon class="cls-1" points="205.34 65.02 203.33 65.02 203.33 80.43 204.05 80.43 205.34 80.43 214.17 80.43 214.17 78.64 205.34 78.64 205.34 65.02"/><polygon class="cls-1" points="217.74 65.02 212.51 65.02 212.51 66.81 217.74 66.81 217.74 80.43 219.75 80.43 219.75 66.81 224.94 66.81 224.94 65.02 219.75 65.02 217.74 65.02"/><polygon class="cls-1" points="126.06 80.43 128.07 80.43 128.07 66.81 133.26 66.81 133.26 65.02 128.07 65.02 126.06 65.02 120.84 65.02 120.84 66.81 126.06 66.81 126.06 80.43"/><rect class="cls-1" x="116.85" y="65.02" width="2.01" height="15.41"/><polygon class="cls-1" points="141.56 72.3 136.77 65.02 134.53 65.02 140.56 74.17 140.56 77.22 140.56 80.43 142.57 80.43 142.57 77.22 142.57 77.22 142.57 74.17 148.59 65.02 146.35 65.02 141.56 72.3"/><polygon class="cls-1" points="111 80.16 111 80.16 111.21 80.43 113.01 80.43 113.01 79.72 113.01 65.02 111 65.02 111 77.1 102.06 65.45 102.06 65.45 101.73 65.02 100.05 65.02 100.05 65.91 100.05 80.43 102.06 80.43 102.06 68.52 111 80.16"/><path class="cls-1" d="M90,80.68a6.14,6.14,0,0,0,6.4-5.85V65h-2v9.81h0a4.42,4.42,0,0,1-8.77,0h0V65h-2v9.81A6.15,6.15,0,0,0,90,80.68Z"/><path class="cls-1" d="M289.33,73.85h0a4.44,4.44,0,0,0,0-8.84h-7.74V80.5h1.94V73.85h1.88l5.32,6.65h2.36l-5.33-6.65ZM283.53,72V66.83h5.8a2.67,2.67,0,0,1,2.28,2.6A2.56,2.56,0,0,1,289.3,72Z"/><polygon class="cls-1" points="254.44 65.01 249.09 65.01 249.09 66.92 254.44 66.92 254.44 80.5 256.38 80.5 256.38 66.92 261.73 66.92 261.73 65.01 256.38 65.01 254.44 65.01"/><polygon class="cls-1" points="335.39 65.01 330.04 65.01 330.04 66.92 335.39 66.92 335.39 80.5 337.33 80.5 337.33 66.92 342.67 66.92 342.67 65.01 337.33 65.01 335.39 65.01"/><polygon class="cls-1" points="325.8 77.12 316.42 65.01 314.63 65.01 314.63 65.89 314.63 80.5 316.57 80.5 316.57 68.4 325.8 80.31 325.8 80.31 325.94 80.5 327.74 80.5 327.74 79.63 327.74 65.01 325.8 65.01 325.8 77.12"/></svg>