<svg xmlns="http://www.w3.org/2000/svg" xmlns:xlink="http://www.w3.org/1999/xlink" width="380" height="372" viewBox="0 0 380 372"><defs><style>.a,.g{fill:#fff;}.a{stroke:#707070;}.b{fill:none;}.c{clip-path:url(#a);}.d{fill:#f9f9f9;}.e{fill:#f2e9e9;}.e,.m,.n{opacity:0.61;}.f{fill:#e5bbbb;}.h{fill:#f29c7d;}.i{fill:#fac6ba;}.j{fill:#706f6f;}.k{fill:#35d5ef;}.l{fill:#5598b5;}.n{fill:#86c8dd;}.o{clip-path:url(#b);}.p{fill:#d6503b;}.q{fill:#ed6b4e;}.r{fill:#ea6f5b;}.s{fill:#292954;}.t{fill:#efc7b6;}.u{fill:#fcdaca;}</style><clipPath id="a"><rect class="a" width="380" height="372" transform="translate(810 1340)"/></clipPath><clipPath id="b"><rect class="b" width="140.118" height="168.593"/></clipPath></defs><g class="c" transform="translate(-810 -1340)"><g transform="translate(6813.391 6100.496)"><path class="d" d="M-5907.442-4439.951a152.206,152.206,0,0,0,32.429,33.941c8.807,6.754,18.261,11.868,26.476,19.124,9.708,8.574,21.859,15.244,33.764,20.185a139.464,139.464,0,0,0,98.938,2.637c21.134-7.479,40.836-20.658,52.78-39.629,15.488-24.6,15.71-59.422-6.6-79.477-11.548-10.38-25.047-18.293-38.085-26.728-16.947-10.965-37.054-24.1-43.02-44.221-3.194-10.774-9.572-19.73-10.6-31.481-2.793-31.815-30.085-52.47-61.423-50.783-17.047.917-33.368,7.812-47.525,17.352-44.079,29.7-67.617,80.5-54.214,133.092,3.495,13.714,6.7,30.01,14.387,41.949Q-5908.825-4441.948-5907.442-4439.951Z" transform="translate(-38.045 -79.029)"/><g transform="translate(-5783.421 -4701.895)"><path class="e" d="M-5090.445-4574.014c5.67-1.947,12.226.068,16.6,4.166,3.788,3.547,6.164,9.236,4.145,14.016-1.78,4.211-6.3,6.5-9.255,9.98a15.8,15.8,0,0,0-3.407,7.2c-.434,2.231.4,4.88-1.592,6.527-3.056,2.524-6.354-.417-6.976-3.583-.908-4.621,2.649-8.8,5.88-12.227s6.635-7.828,5.368-12.365a7.28,7.28,0,0,0-8.647-4.858,7.06,7.06,0,0,0-4.248,3.615c-.785,1.53-.382,3.79-2.318,4.482a2.884,2.884,0,0,1-2.924-.689c-1.345-1.331-1.209-3.845-1.146-5.572C-5098.793-4568.058-5094.768-4572.53-5090.445-4574.014Z" transform="translate(5099.002 4574.762)"/><path class="e" d="M-5044.948-4338.592a3.9,3.9,0,0,1,1.072-2.223,3.91,3.91,0,0,1,5.294-.073,3.959,3.959,0,0,1-.226,5.724,4.059,4.059,0,0,1-5.013-.139A3.466,3.466,0,0,1-5044.948-4338.592Z" transform="translate(5056.906 4393.247)"/></g><g transform="translate(-5740.957 -4682.58)"><path class="e" d="M-4906.11-4480.962a10.561,10.561,0,0,1,.818-3.969,3.772,3.772,0,0,1,3.149-2.256,3.8,3.8,0,0,1,3.28,2.485,11.146,11.146,0,0,1,.6,4.292c.082,10.51.1,21.021.127,31.532a11.608,11.608,0,0,1-.766,5.121c-1.492,3.089-5.431,3.285-6.366-.265-.825-3.13-.4-6.606-.593-9.825-.208-3.547-.323-7.1-.474-10.649A146.8,146.8,0,0,1-4906.11-4480.962Z" transform="translate(4906.467 4487.187)"/><path class="e" d="M-4901.023-4247.328a3.6,3.6,0,0,1,5.565-1.691,3.6,3.6,0,0,1-.963,5.736,3.6,3.6,0,0,1-4.708-3.415Z" transform="translate(4902.312 4302.125)"/></g><g transform="translate(-5772.431 -4608.119)"><g transform="translate(0 0)"><path class="f" d="M-4935.627-4120.378c-1.084-.058-2.164-.082-3.175-.18-4.646-.451-9.294.165-13.941.165H-4970.5a9.335,9.335,0,0,1-9.335-9.335v-10.517a9.335,9.335,0,0,1,9.335-9.335h34.923a9.335,9.335,0,0,1,9.335,9.335c0,7.468-.027,14.858-.366,22.321a1.19,1.19,0,0,1-.337.947c-.521.38-1.167-.245-1.573-.746C-4930.271-4119.891-4932.961-4120.237-4935.627-4120.378Z" transform="translate(4995.127 4149.581)"/><path class="e" d="M-5039.785-4043.594c1.084-.058,2.164-.081,3.175-.18,4.646-.452,9.294.164,13.942.164h17.757a9.335,9.335,0,0,0,9.335-9.335v-10.516a9.335,9.335,0,0,0-9.335-9.335h-34.924a9.335,9.335,0,0,0-9.334,9.335c0,7.468.027,14.857.366,22.321a1.191,1.191,0,0,0,.336.947c.522.381,1.167-.245,1.573-.747C-5045.141-4043.105-5042.451-4043.452-5039.785-4043.594Z" transform="translate(5049.17 4089.731)"/><g transform="translate(23.242 35.964)"><path class="g" d="M-4903.387-3960.077a2.176,2.176,0,0,1-1.646-.993c-1.093-1.351-2.9-1.555-4.664-1.649-.244-.013-.486-.023-.728-.034-.562-.025-1.143-.05-1.7-.1a45.277,45.277,0,0,0-6.506,0c-1.267.062-2.577.125-3.876.125h-13.338a7.956,7.956,0,0,1-7.947-7.947v-7.9a7.956,7.956,0,0,1,7.947-7.947h26.234a7.955,7.955,0,0,1,7.946,7.947c0,5.66-.021,11.205-.276,16.81a1.759,1.759,0,0,1-.634,1.423A1.4,1.4,0,0,1-4903.387-3960.077Zm-11.456-4.768c.965,0,1.934.034,2.9.129.505.049,1.037.072,1.6.1.248.011.5.022.746.035,2,.106,4.248.37,5.82,2.108.228-5.353.247-10.672.247-16.1a6.084,6.084,0,0,0-6.078-6.078h-26.234a6.084,6.084,0,0,0-6.078,6.078v7.9a6.084,6.084,0,0,0,6.078,6.078h13.338c1.254,0,2.542-.062,3.786-.123C-4917.446-3964.782-4916.149-3964.845-4914.843-3964.845Z" transform="translate(4943.79 3986.522)"/></g><rect class="g" width="38.1" height="1.76" rx="0.88" transform="translate(23.396 6.716)"/><rect class="g" width="38.1" height="1.76" rx="0.88" transform="translate(23.396 11.336)"/></g><g transform="translate(11.803 68.589)"><path class="f" d="M-4988.063-3829.713l-2.9-2.09-2.883,2.112,1.091-3.4-2.9-2.089,3.574-.014,1.092-3.4,1.118,3.4,3.574-.014-2.884,2.112Z" transform="translate(4995.656 3838.601)"/><path class="f" d="M-4944.632-3829.713l-2.9-2.09-2.883,2.112,1.091-3.4-2.9-2.089,3.574-.014,1.091-3.4,1.118,3.4,3.574-.014-2.883,2.112Z" transform="translate(4961.803 3838.601)"/><path class="f" d="M-4901.2-3829.713l-2.9-2.09-2.883,2.112,1.091-3.4-2.9-2.089,3.574-.014,1.091-3.4,1.119,3.4,3.574-.014-2.883,2.112Z" transform="translate(4927.95 3838.601)"/><path class="f" d="M-4857.77-3829.713l-2.9-2.09-2.883,2.112,1.091-3.4-2.9-2.089,3.574-.014,1.092-3.4,1.118,3.4,3.574-.014-2.884,2.112Z" transform="translate(4894.098 3838.601)"/><path class="f" d="M-4814.337-3829.713l-2.9-2.09-2.883,2.112,1.091-3.4-2.9-2.089,3.574-.014,1.092-3.4,1.117,3.4,3.575-.014-2.884,2.112Z" transform="translate(4860.246 3838.601)"/></g></g><g transform="translate(-5977.09 -4673.673)"><g transform="translate(0 0)"><path class="f" d="M-5863.547-4417.6c-1.084-.058-2.164-.082-3.175-.18-4.646-.452-9.294.164-13.942.164h-17.756a9.335,9.335,0,0,1-9.335-9.335v-10.516a9.335,9.335,0,0,1,9.335-9.335h34.923a9.335,9.335,0,0,1,9.335,9.335c0,7.468-.027,14.857-.367,22.321a1.19,1.19,0,0,1-.336.947c-.522.38-1.167-.244-1.573-.746C-5858.191-4417.111-5860.881-4417.458-5863.547-4417.6Z" transform="translate(5923.048 4446.802)"/><path class="e" d="M-5967.705-4340.816c1.084-.058,2.164-.082,3.175-.18,4.645-.451,9.294.165,13.941.165h17.756a9.335,9.335,0,0,0,9.335-9.336v-10.517a9.335,9.335,0,0,0-9.335-9.334h-34.922a9.335,9.335,0,0,0-9.335,9.336c0,7.467.027,14.857.366,22.321a1.187,1.187,0,0,0,.336.946c.521.381,1.167-.244,1.573-.746C-5973.06-4340.328-5970.371-4340.674-5967.705-4340.816Z" transform="translate(5977.09 4386.954)"/><g transform="translate(23.242 35.964)"><path class="g" d="M-5831.307-4257.3a2.178,2.178,0,0,1-1.646-.993c-1.093-1.352-2.9-1.556-4.663-1.649-.243-.013-.487-.024-.728-.034-.562-.025-1.144-.05-1.7-.1a45.206,45.206,0,0,0-6.506,0c-1.268.061-2.578.125-3.877.125h-13.338a7.956,7.956,0,0,1-7.947-7.947v-7.9a7.956,7.956,0,0,1,7.947-7.947h26.233a7.956,7.956,0,0,1,7.947,7.947c0,5.661-.021,11.205-.276,16.81a1.76,1.76,0,0,1-.634,1.423A1.4,1.4,0,0,1-5831.307-4257.3Zm-11.456-4.769c.964,0,1.933.034,2.9.128.505.049,1.036.073,1.6.1.247.011.5.022.745.035,2,.107,4.249.37,5.82,2.108.227-5.354.246-10.673.246-16.1a6.085,6.085,0,0,0-6.079-6.078h-26.233a6.085,6.085,0,0,0-6.078,6.078v7.9a6.085,6.085,0,0,0,6.078,6.078h13.338c1.254,0,2.542-.062,3.786-.123C-5845.366-4262-5844.069-4262.066-5842.763-4262.066Z" transform="translate(5871.709 4283.744)"/></g><rect class="g" width="38.1" height="1.76" rx="0.88" transform="translate(23.396 6.716)"/><rect class="g" width="38.1" height="1.76" rx="0.88" transform="translate(23.396 11.335)"/></g><g transform="translate(11.803 68.588)"><path class="f" d="M-5915.984-4126.935l-2.9-2.09-2.883,2.113,1.091-3.4-2.9-2.09,3.574-.014,1.091-3.4,1.118,3.4,3.574-.014-2.883,2.112Z" transform="translate(5923.576 4135.823)"/><path class="f" d="M-5872.551-4126.935l-2.9-2.09-2.884,2.113,1.091-3.4-2.9-2.09,3.575-.014,1.091-3.4,1.118,3.4,3.574-.014-2.883,2.112Z" transform="translate(5889.723 4135.823)"/><path class="f" d="M-5829.12-4126.935l-2.9-2.09-2.884,2.113,1.091-3.4-2.9-2.09,3.574-.014,1.091-3.4,1.118,3.4,3.575-.014-2.883,2.112Z" transform="translate(5855.87 4135.823)"/><path class="f" d="M-5785.688-4126.935l-2.9-2.09-2.884,2.113,1.092-3.4-2.9-2.09,3.574-.014,1.091-3.4,1.118,3.4,3.574-.014-2.884,2.112Z" transform="translate(5822.017 4135.823)"/><path class="f" d="M-5742.258-4126.935l-2.9-2.09-2.883,2.113,1.091-3.4-2.9-2.09,3.574-.014,1.092-3.4,1.118,3.4,3.574-.014-2.883,2.112Z" transform="translate(5788.165 4135.823)"/></g></g><g transform="translate(-5953.144 -4581.094)"><circle class="e" cx="20.84" cy="20.84" r="20.84" transform="translate(0)"/><path class="g" d="M-5835.312-3974.638a10.9,10.9,0,0,1,.249-5.576,6.175,6.175,0,0,1,1.5-2.382,4.426,4.426,0,0,1,2.615-1.5,4.767,4.767,0,0,1,3.894,2.8c.671,1.223,1.638,3.675.518,4.889-.888.963-3.108.33-3.536,1.607-.548,1.636.038,4,.756,5.484a8.907,8.907,0,0,0,2.322,2.964c.722.6,1.99,1.932,2.961,1.17.987-.774,1.361-2.077,2.915-1.837a3.4,3.4,0,0,1,1.958,1.186,5.606,5.606,0,0,1,1.289,4.69c-.315,1.552-2.571,2.047-3.916,2.214a6.158,6.158,0,0,1-4.294-.96,17.067,17.067,0,0,1-3.529-2.866,24.511,24.511,0,0,1-5.057-9.237A26.935,26.935,0,0,1-5835.312-3974.638Z" transform="translate(5842.826 3993.573)"/><g transform="translate(19.177 12.053)"><path class="g" d="M-5774.032-3958.033a1.184,1.184,0,0,1-.243-.025,1.178,1.178,0,0,1-.912-1.394,9.608,9.608,0,0,0-.9-6.364,9.6,9.6,0,0,0-4.756-4.321,1.178,1.178,0,0,1-.64-1.538,1.178,1.178,0,0,1,1.538-.64,11.838,11.838,0,0,1,5.94,5.4,11.844,11.844,0,0,1,1.122,7.947A1.178,1.178,0,0,1-5774.032-3958.033Z" transform="translate(5781.569 3972.403)"/></g><g transform="translate(20.788 6.924)"><path class="g" d="M-5763.485-3975.156a1.22,1.22,0,0,1-.243-.025,1.178,1.178,0,0,1-.911-1.394,15.131,15.131,0,0,0-1.414-10.017,15.133,15.133,0,0,0-7.487-6.8,1.178,1.178,0,0,1-.639-1.538,1.178,1.178,0,0,1,1.537-.64,17.292,17.292,0,0,1,8.67,7.878,17.285,17.285,0,0,1,1.637,11.6A1.178,1.178,0,0,1-5763.485-3975.156Z" transform="translate(5774.268 3995.66)"/></g><g transform="translate(23.02 2.872)"><path class="g" d="M-5750.991-3989.048a1.185,1.185,0,0,1-.243-.025,1.178,1.178,0,0,1-.911-1.394,19.168,19.168,0,0,0-1.791-12.683,19.162,19.162,0,0,0-9.481-8.615,1.178,1.178,0,0,1-.64-1.538,1.178,1.178,0,0,1,1.538-.64,21.552,21.552,0,0,1,10.664,9.69,21.553,21.553,0,0,1,2.014,14.267A1.178,1.178,0,0,1-5750.991-3989.048Z" transform="translate(5764.145 4014.031)"/></g></g><g transform="translate(-5938.63 -4609.809)"><path class="h" d="M-5801.844-3447.093c-.677,1.684-1.338,3.665-.419,5.23.843,1.436,2.665,1.9,4.3,2.234l38.126,7.806c4.016.822,8.391,1.6,12.054-.239,8.428-4.236,11.79-19.851,14.867-27.754q7.422-19.065,13.465-38.628c1.492-4.826,2.932-9.917,1.9-14.862-2-9.582-12.1-14.818-21.077-18.729-7.54-3.287-16.34-6.561-23.664-2.818-5.482,2.8-8.489,8.843-10.27,14.737C-5780.027-3495.388-5792.111-3471.321-5801.844-3447.093Z" transform="translate(5802.714 3673.425)"/><path class="h" d="M-5187.136-4063.311c-1.34-1.581-3.846-1.266-5.809-.6-6.48,2.184-13.252,7.178-16.843,13.009-3.754,6.1-8.556,11.072-10.671,18.136-.835,2.791-1.016,6.447,1.469,7.967a4.945,4.945,0,0,0,4.3.177,13.868,13.868,0,0,0,3.716-2.42c10.3-8.484,21.867-18.021,24.431-31.725C-5186.255-4060.323-5186.114-4062.105-5187.136-4063.311Z" transform="translate(5349.315 4084.922)"/><path class="h" d="M-5187.2-3934.793c-1.2-1.581-3.453-1.266-5.216-.6a26.453,26.453,0,0,0-10.313,7.165c-6.726,7.509-12.605,16.434-14.6,26.643a9.636,9.636,0,0,0-.081,4.263,4.192,4.192,0,0,0,2.731,3.066c2.06.567,4.054-.974,5.6-2.443,9.75-9.233,20.115-19.918,22.4-33.549C-5186.406-3931.806-5186.279-3933.588-5187.2-3934.793Z" transform="translate(5346.664 3984.75)"/><path class="h" d="M-5187.247-3783.093c3.241,3.654-5.806,16.665-7.333,18.717-2.414,3.242-9.366,12.821-14.535,9.836-10.121-5.845,11.807-25.563,16.8-28.489a5.131,5.131,0,0,1,3.212-.958A2.936,2.936,0,0,1-5187.247-3783.093Z" transform="translate(5342.092 3866.334)"/><path class="h" d="M-5244.651-4144.55a29.74,29.74,0,0,1,15.481-12.151c1.964-.662,4.47-.977,5.809.6,1.022,1.206.881,2.987.59,4.541a40.1,40.1,0,0,1-8.891,18.581,18.482,18.482,0,0,1-6.457,5.19,9.009,9.009,0,0,1-8.048-.172c-3.819-2.262-4.618-7.749-2.922-11.851s5.221-7.12,8.667-9.918Z" transform="translate(5371.852 4157.244)"/><path class="h" d="M-5671.884-3937.235c3.766-27.454,16.266-50.069,6.7-78.453a19.237,19.237,0,0,1-1.419-5.975c-.05-13.3,14.131,1.083,16.188,5.926,4.746,11.177,4.468,24.324,2.264,36.01-3.659,19.4,10.736,33.263,26.633,41.334,8.253,4.191,17.02,7.254,25.309,11.363,8.375,4.152,13.892,5.373,11.326,14.682-2.979,10.807-14.456,19.665-24.41,23.466-21.526,8.22-47.136-.475-58.063-21.008C-5672.375-3919.312-5673.11-3928.3-5671.884-3937.235Z" transform="translate(5701.144 4055.853)"/><g transform="translate(35.188 147.591)"><path class="i" d="M-5643.1-3487.386c1.287,2.072,3.329,3.369,5.357,4.631a21.311,21.311,0,0,0,3.152,1.7c1.047.429,2.507,1.029,3.623.562.208-.087.347-.444.074-.563-.905-.394-1.929-.412-2.867-.743a17.713,17.713,0,0,1-3.338-1.7c-1.943-1.19-3.958-2.379-5.2-4.353-.316-.5-1.114-.041-.8.467Z" transform="translate(5643.172 3488.07)"/></g><g transform="translate(69.833 161.305)"><path class="i" d="M-5485.912-3425.165c1.161.744,2.286,1.549,3.487,2.228,1.162.658,2.309,1.462,3.525,2.012a21.224,21.224,0,0,0,3.355,1.108,6.518,6.518,0,0,0,3.553.188.256.256,0,0,0,0-.489c-1.114-.371-2.351-.255-3.5-.556a16.532,16.532,0,0,1-3.561-1.246c-2.22-1.192-4.34-2.565-6.468-3.911-.421-.266-.806.4-.39.666Z" transform="translate(5486.091 3425.892)"/></g></g><g transform="translate(-5914.932 -4737.87)"><g transform="translate(19.244 108.206)"><path class="g" d="M-5603.215-4085.961v-148.56c0-4.753,4.469-8.607,9.981-8.607h79.856c5.513,0,9.982,3.854,9.982,8.607v148.56c0,4.753-4.47,8.607-9.982,8.607h-79.856C-5598.746-4077.354-5603.215-4081.207-5603.215-4085.961Z" transform="translate(5604.274 4244.041)"/><path class="j" d="M-5608.015-4089.187v-148.56c0-5.25,4.953-9.52,11.04-9.52h79.856c6.088,0,11.041,4.271,11.041,9.52v148.56c0,5.25-4.953,9.52-11.041,9.52h-79.856C-5603.062-4079.667-5608.015-4083.937-5608.015-4089.187Zm99.82-148.56c0-4.243-4-7.694-8.924-7.694h-79.856c-4.92,0-8.923,3.451-8.923,7.694v148.56c0,4.243,4,7.694,8.923,7.694h79.856c4.921,0,8.924-3.452,8.924-7.694Z" transform="translate(5608.015 4247.267)"/><rect class="k" width="89.501" height="144.928" rx="33.083" transform="translate(5.592 6.458)"/><g transform="translate(10.471 63.165)"><path class="l" d="M-5426.048-3931c-1.283-.059-2.562-.083-3.76-.184-5.5-.462-11.009.168-16.514.168h-21.032c-6.107,0-11.057-4.276-11.057-9.552v-10.76c0-5.275,4.95-9.552,11.057-9.552h41.366c6.106,0,11.057,4.276,11.057,9.552,0,7.641-.032,15.2-.435,22.839a1.123,1.123,0,0,1-.4.969c-.617.39-1.381-.25-1.862-.763C-5419.7-3930.5-5422.89-3930.855-5426.048-3931Z" transform="translate(5496.525 3960.879)"/><path class="g" d="M-5549.421-3852.433c1.283-.059,2.563-.083,3.76-.184,5.5-.462,11.009.168,16.514.168h21.032c6.106,0,11.058-4.276,11.058-9.552v-10.76c0-5.275-4.951-9.552-11.058-9.552h-41.366c-6.106,0-11.057,4.276-11.057,9.552,0,7.641.032,15.2.434,22.839a1.124,1.124,0,0,0,.4.969c.618.39,1.382-.25,1.863-.763C-5555.766-3851.934-5552.579-3852.289-5549.421-3852.433Z" transform="translate(5560.538 3899.641)"/><g class="m" transform="translate(27.53 36.798)"><path class="g" d="M-5387.86-3766.979a2.692,2.692,0,0,1-1.949-1.016c-1.295-1.382-3.439-1.592-5.524-1.687-.288-.013-.576-.024-.862-.035-.665-.025-1.354-.051-2.01-.106a62.085,62.085,0,0,0-7.706,0c-1.5.063-3.053.128-4.593.128h-15.8c-5.19,0-9.413-3.648-9.413-8.131v-8.083c0-4.483,4.223-8.131,9.413-8.131h31.073c5.191,0,9.414,3.647,9.414,8.131,0,5.792-.025,11.465-.328,17.2a1.692,1.692,0,0,1-.751,1.456A1.836,1.836,0,0,1-5387.86-3766.979Zm-13.569-4.879c1.143,0,2.291.035,3.437.131.6.051,1.228.074,1.893.1.292.011.588.022.883.036h0c2.368.109,5.031.378,6.893,2.157.27-5.478.292-10.92.292-16.472,0-3.429-3.228-6.219-7.2-6.219H-5426.3c-3.97,0-7.2,2.79-7.2,6.219v8.083c0,3.429,3.229,6.219,7.2,6.219h15.8c1.486,0,3.011-.063,4.486-.125C-5404.514-3771.793-5402.977-3771.858-5401.43-3771.858Z" transform="translate(5435.716 3794.037)"/></g><path class="g" d="M-5390.662-3927.92h-43.328a.9.9,0,0,1-.9-.9h0a.9.9,0,0,1,.9-.9h43.328a.9.9,0,0,1,.9.9h0A.9.9,0,0,1-5390.662-3927.92Z" transform="translate(5462.603 3936.593)"/><path class="g" d="M-5390.662-3906.491h-43.328a.9.9,0,0,1-.9-.9h0a.9.9,0,0,1,.9-.9h43.328a.9.9,0,0,1,.9.9h0A.9.9,0,0,1-5390.662-3906.491Z" transform="translate(5462.603 3919.89)"/></g><g transform="translate(8.946 129.523)"><rect class="g" width="83.12" height="18.007" rx="9.004"/><g transform="translate(3.477 5.651)"><circle class="n" cx="2.371" cy="2.371" r="2.371" transform="translate(0 3.353) rotate(-45)"/><circle class="n" cx="2.371" cy="2.371" r="2.371" transform="translate(6.809 3.353) rotate(-45)"/><circle class="n" cx="2.371" cy="2.371" r="2.371" transform="translate(13.618 3.353) rotate(-45)"/></g></g></g><g transform="translate(0)"><g class="o"><g transform="translate(17.825 18.893)"><path class="h" d="M-5414.241-4126.994c-4.284-7.354-8.29-14.853-11.882-22.57-1.646-3.539-2.8-5.416-1.68-9.378a17.412,17.412,0,0,1,5.832-8.856,17.459,17.459,0,0,1,15.468-3.044c6.583,1.914,11.494,7.685,14.054,14.045s3.114,13.325,3.553,20.167c.729,11.4,3.233,21.809,5.844,32.841,2.517,10.629,4.823,21.456,8.133,31.865,1.511,4.771,2.916,9.722,6.532,13.373,3.2,3.234,7.655,4.026,12.068,3.874a44.274,44.274,0,0,0,5.781-.634,13.16,13.16,0,0,1,3.208-.567c1.143.1,2.269.972,1.417,1.986a7.634,7.634,0,0,1-2.03,1.167l-5.89,3.25-12.488,6.892-2.228,1.229a.32.32,0,0,1-.21-.136,20.131,20.131,0,0,1-1.3-2.674,93.443,93.443,0,0,0-13.752-21.875c-5.064-6.013-11.238-10.547-13.322-18.565-1.546-5.95-.989-12.1-3.173-17.924-2.139-5.7-5.611-10.627-8.776-15.82Q-5411.7-4122.646-5414.241-4126.994Z" transform="translate(5469.315 4277.524)"/><path class="p" d="M-5166.6-3632.8c1.925-.579,3.482-2.007,5.139-3.11a77.04,77.04,0,0,1,9.088-4.821c1.27-.62,7.939-3.26,7.577-5.084-.332-1.668-4.117-.685-5.2-.5a21.651,21.651,0,0,1-5.469.1c-.552-.048-.775-.19-1.069.214a4.763,4.763,0,0,0-.422,1.373c-.234.856-.285,1.815-.58,2.645a6.937,6.937,0,0,1-.969,2.449c-.655.64-2.392.858-3.259,1.057a21.473,21.473,0,0,1-6.959.435,4.071,4.071,0,0,0-1.247-.01,1.223,1.223,0,0,0-.939.74,1.669,1.669,0,0,0,.045.929c.415,1.628.959,4.017,3.074,3.819A6.145,6.145,0,0,0-5166.6-3632.8Z" transform="translate(5268.774 3868.528)"/><path class="q" d="M-5457.574-4200.8a82.954,82.954,0,0,0,6.973,12.249c5.814,8.6,12.618,16.585,17.421,25.834,4.4,8.471,5.249,18.288,8.947,27.046,3.062,7.25,8.525,13.175,13.883,18.939,1.623,1.745,3.358,3.4,5.027,5.108a1.812,1.812,0,0,0,.931.615,1.811,1.811,0,0,0,1.154-.36q2.143-1.264,4.289-2.527a3.666,3.666,0,0,0,1.342-1.116c.689-1.112.008-2.541-.33-3.652-.461-1.517-.958-3.025-1.329-4.568l-1.562-6.494q-1.534-6.381-3.069-12.763c-3.653-15.191-4.542-30.939-7.593-46.254-2.152-10.8-2.643-24.018-8.84-33.408-4.841-7.333-14.207-14.9-23.025-16.694-9.852-2.009-16.97,7.479-18.144,16.028C-5462.534-4215.275-5460.731-4207.809-5457.574-4200.8Z" transform="translate(5495.46 4330.226)"/><path class="h" d="M-5583.034-4185.634a156.245,156.245,0,0,1,5.5-24.377c2.028-6.316,3.743-14.243,10.909-17.249a14.887,14.887,0,0,1,6.448-1.083h.022c15.843.822,16.056,15.968,14.132,26.252-2.046,10.939-5.9,25.94-13.239,34.811-5.767,6.97-10.123,14.912-15.338,22.215-6.348,8.889-12.982,17.751-18.642,27.093-2.6,4.277-5.4,8.593-5.771,13.718-.337,4.688,2.66,9.584,4.336,13.851a4.869,4.869,0,0,0,1.189,2c1.467,1.261,3.653.71,5.175,2.16a1.538,1.538,0,0,1,.549.935c.129,1.6-7.285.457-8.368.119a22.8,22.8,0,0,1-4.137-1.93l-8.21-4.521a10.729,10.729,0,0,1-2.545-1.37c-1.1-1.095-.467-1.843.08-3.035.9-1.958,2.277-3.634,3.169-5.637a36.867,36.867,0,0,0,2.079-6.248c1.032-4.219,1.524-8.637,2.174-12.865,1.195-7.77.546-15.4,5.212-22.248,3.543-5.2,9.3-9.016,11.642-14.722a13.674,13.674,0,0,0,.986-4.055C-5585-4169.788-5584.229-4177.749-5583.034-4185.634Z" transform="translate(5612.248 4321.846)"/><path class="p" d="M-5612.812-3637.9a7.945,7.945,0,0,1,1.067.546c2.743,1.878,5.458,3.8,8.186,5.7a13.144,13.144,0,0,0,3.037,1.736c1.788.634,4.072.494,5.956.573a16.129,16.129,0,0,0,4.43-.389c.685-.164,1.218-.184,1.289-.959a1.767,1.767,0,0,0-.9-1.455,6.793,6.793,0,0,0-2.376-.6c-2.043-.351-2.827-2.247-3.739-3.927-.658-1.212-1.833.364-2.276.944-.561.733-1,2.394-2.1,2.207a2.936,2.936,0,0,1-1.57-1.128l-8.429-9.582c-.333-.379-.756-.794-1.256-.721s-.8.617-1,1.093c-.55,1.279-1.353,2.591-1.812,3.883S-5614-3638.44-5612.812-3637.9Z" transform="translate(5614.45 3867.118)"/><path class="q" d="M-5563.478-4214.339c-3.623,7.133-4.315,15.958-4.259,24.083.063,8.9,1.3,21.125-3.828,28.889-2.837,4.293-6.435,8.066-9.021,12.514-6.649,11.437-6.217,25.535-6.3,38.3a2.911,2.911,0,0,0,.292,1.584,2.932,2.932,0,0,0,1.813,1.034l4.561,1.275a2.114,2.114,0,0,0,1.18.1c.934-.292,1.415-2.08,1.958-2.821,1.046-1.429,1.746-3.083,2.755-4.54q2.673-3.861,5.328-7.737c5.726-8.38,10.268-16.245,16.838-23.924,7.063-8.257,12.215-17.968,16.689-27.813,6.013-13.231,15.812-29.763,13.775-44.722-.674-4.952-9.822-8.133-13.962-9.019a26.123,26.123,0,0,0-17.183,2.054A23.793,23.793,0,0,0-5563.478-4214.339Z" transform="translate(5592.963 4321.365)"/><g transform="translate(33.679 167.229)"><path class="r" d="M-5460.4-3889.64a8.257,8.257,0,0,1-.992-2.076c-.182-.648-.123-1.312-.342-1.953a.254.254,0,0,1,.418-.252c.385.427.308,1.017.367,1.553a6.136,6.136,0,0,0,1.025,2.44.278.278,0,0,1-.477.287Z" transform="translate(5461.751 3893.994)"/></g><g transform="translate(29.012 133.018)"><path class="p" d="M-5472.882-4048.83a5.035,5.035,0,0,1-1.295,2.406c-.677.869-1.391,1.731-2.11,2.564a14.156,14.156,0,0,1-2.893,2.474,13.7,13.7,0,0,1-1.486.881,7.95,7.95,0,0,1-2.006.325.248.248,0,0,0-.176.177,2.711,2.711,0,0,0-.059.416c-.021.272.372.295.453.062a1.306,1.306,0,0,0,.093-.343l-.177.177a11.749,11.749,0,0,0,1.851-.243,10.787,10.787,0,0,0,1.776-.989,14.169,14.169,0,0,0,3.155-2.7c.737-.874,1.5-1.751,2.185-2.664a5.143,5.143,0,0,0,1.267-2.544c.021-.372-.558-.371-.578,0Z" transform="translate(5482.907 4049.108)"/></g><g transform="translate(9.08 124.568)"><path class="p" d="M-5551.75-4087.31c-.381,1.265-.482,2.592-.757,3.882a15.524,15.524,0,0,0-.107,3.3,12.423,12.423,0,0,1-.12,1.847c-.084.562-.254,1.106-.321,1.67a27.77,27.77,0,0,0,0,3.349,46.388,46.388,0,0,1-.2,7.979c-.209,1.212-.225,2.436-.426,3.648a16.959,16.959,0,0,1-.884,3.312c-.423,1.107-.857,2.189-1.25,3.309a15.845,15.845,0,0,1-1.842,3.267,32.438,32.438,0,0,1-2.156,2.9c-.693.851-1.187,1.828-1.818,2.723-.678.963-1.425,1.874-2.128,2.818s-1.242,1.954-1.9,2.907-1.509,1.8-2.16,2.774c-.679,1.02-1.259,2.119-1.871,3.179a21.64,21.64,0,0,0-2.75,7.45c-.219,1.375-.571,2.737-.754,4.117a20.591,20.591,0,0,0,.046,4.093.121.121,0,0,0,.243,0c.066-1.188-.07-2.377.029-3.565.111-1.322.507-2.637.746-3.941a24.193,24.193,0,0,1,.844-3.582,23.42,23.42,0,0,1,1.544-3.458c.562-1.04,1.181-2.053,1.776-3.075a25.879,25.879,0,0,1,2.278-3.083c.672-.843,1.161-1.8,1.776-2.682.672-.963,1.412-1.876,2.114-2.817s1.257-1.949,1.913-2.91c.627-.918,1.443-1.69,2.049-2.625.686-1.061,1.409-2.123,2.007-3.236a24.887,24.887,0,0,0,1.045-2.833,26.916,26.916,0,0,0,1.227-3.4,17.384,17.384,0,0,0,.5-3.243c.061-1.235.375-2.436.42-3.67.048-1.318.024-2.638,0-3.956-.022-1.36-.032-2.72-.084-4.079a8.647,8.647,0,0,1,.107-2.113,15.1,15.1,0,0,0,.3-1.784c.114-1.305-.109-2.618.028-3.917.078-.731.277-1.455.382-2.184a16.263,16.263,0,0,1,.453-2.288.156.156,0,0,0-.3-.083Z" transform="translate(5573.282 4087.419)"/></g><g transform="translate(77.004 129.604)"><path class="p" d="M-5265.291-4064.246c.7,1.4,1,4.295,3.2,3.9.3-.055.173-.512-.125-.456-1.773.331-2.12-2.546-2.684-3.667-.13-.259-.517-.031-.389.228Z" transform="translate(5265.317 4064.587)"/></g><g transform="translate(6.598 209.81)"><path class="p" d="M-5584.517-3700.682a4.562,4.562,0,0,0,2.731,2.215,9.473,9.473,0,0,0,4.611.867.2.2,0,0,0,0-.393c-.754-.074-1.509-.007-2.26-.144a10.193,10.193,0,0,1-1.794-.566c-1.075-.41-2.414-.947-2.887-2.09-.1-.243-.5-.137-.4.111Z" transform="translate(5584.533 3700.93)"/></g><g transform="translate(90.736 213.569)"><path class="p" d="M-5202.67-3680.473c.359-.531,1.148-.444,1.719-.584a5.307,5.307,0,0,0,1.424-.623c.766-.449,1.8-1.026,2.031-1.952a.208.208,0,0,0-.4-.11c-.248.978-1.733,1.75-2.6,2.111-.851.353-1.956.12-2.517.954-.146.216.2.418.349.2Z" transform="translate(5203.054 3683.89)"/></g><g transform="translate(37.923 144.228)"><path class="p" d="M-5439.584-3997.808a35.143,35.143,0,0,1,11.13,1.86q-.073-.272-.144-.542c-.65.658-1.812-.044-2.554-.2a14.558,14.558,0,0,0-3.385-.04c-2.554.093-5.119.046-7.674.057a.305.305,0,0,0,0,.61,25.281,25.281,0,0,1,7.549,1.681,16.693,16.693,0,0,1,2.516,1.023c.551.291,1.561.795,1.474,1.549l.225-.3a6.163,6.163,0,0,1-2.237.183,7.747,7.747,0,0,1-1.948-.226c-.991-.3-2.636-1.277-3.652-.638a.323.323,0,0,0,0,.554c.683.353,1.375.725,2.089,1.014a7.3,7.3,0,0,1,1.8.705c-.022-.168-.043-.336-.065-.5a4.565,4.565,0,0,1-1.9.513c-1.037.2-2.086-.078-3.122.166a.363.363,0,0,0-.25.441c.276.951,1.539,1.169,2.374,1.3.471.072.947.117,1.422.157a16.725,16.725,0,0,0,2.65-.14.219.219,0,0,0,0-.438c-1.155-.063-2.3-.044-3.453-.2-.574-.076-2.1-.18-2.3-.868l-.251.441c1.087-.262,2.222,0,3.327-.229a3.971,3.971,0,0,0,1.957-.688.325.325,0,0,0-.065-.5,6.1,6.1,0,0,0-1.665-.66,16.393,16.393,0,0,1-2.228-1.059v.554c.484-.3,1.363.092,1.838.253a11.043,11.043,0,0,0,1.841.571,8.736,8.736,0,0,0,4-.1.324.324,0,0,0,.226-.3c.083-.769-.6-1.334-1.179-1.71a12.646,12.646,0,0,0-2.812-1.254,27.636,27.636,0,0,0-8.163-1.9v.61c2.793.012,5.588.064,8.379-.012a11.079,11.079,0,0,1,3.385.306,2.185,2.185,0,0,0,2.308-.267.327.327,0,0,0-.143-.542,51.977,51.977,0,0,0-11.3-1.708c-.3-.01-.3.462,0,.474Z" transform="translate(5442.505 3998.282)"/></g><g transform="translate(54.951 149.7)"><path class="p" d="M-5365.248-3973.181c.99.9,1.9,1.887,2.817,2.864a11.976,11.976,0,0,1,1.2,1.349,11.456,11.456,0,0,1,.813,1.492c.554,1.135,1.3,2.127,1.962,3.2a26.248,26.248,0,0,1,1.842,3.624c.5,1.193,1.132,2.323,1.643,3.513.551,1.281,1.027,2.594,1.525,3.9a21.919,21.919,0,0,1,1.314,3.719,10.27,10.27,0,0,0,.239,1.737,8.359,8.359,0,0,1,.525,1.5,19.316,19.316,0,0,0,.487,3.465,7.989,7.989,0,0,1,.5,1.521,10.251,10.251,0,0,0,.27,1.776c.857,2.585,1.849,5.161,2.91,7.669a57.472,57.472,0,0,0,3.625,6.968c.667,1.125,1.355,2.237,2.042,3.351s1.315,2.237,2.07,3.287c.835,1.159,1.705,2.3,2.559,3.445.834,1.121,1.885,2.092,2.669,3.24.384.562.707,1.164,1.109,1.714.374.513.792.992,1.185,1.491.651.83,1.6,1.9,1.655,3a.231.231,0,0,0,.462,0,4.133,4.133,0,0,0-1.06-2.459c-.655-.9-1.431-1.7-2.055-2.623-.324-.477-.606-.981-.939-1.452a16.132,16.132,0,0,0-1.2-1.394c-.9-1.007-1.657-2.111-2.46-3.192-.787-1.058-1.622-2.073-2.308-3.2s-1.361-2.224-2.042-3.336c-1.407-2.3-2.791-4.613-3.969-7.037a70.5,70.5,0,0,1-3.154-7.84c-.213-.619-.478-1.236-.663-1.862s-.137-1.3-.278-1.945c-.111-.5-.365-.953-.517-1.442a8.753,8.753,0,0,1-.3-1.968,8.886,8.886,0,0,0-.187-1.641c-.135-.5-.434-.952-.552-1.459-.145-.62-.08-1.252-.248-1.874a17.242,17.242,0,0,0-.683-1.918c-.989-2.459-1.843-4.98-3.069-7.336-.691-1.328-1.158-2.76-1.917-4.053-.736-1.255-1.663-2.415-2.345-3.7a12.711,12.711,0,0,0-2.013-3.093c-1.058-1.1-2.089-2.223-3.223-3.244-.165-.148-.41.094-.245.245Z" transform="translate(5365.302 3973.472)"/></g><g transform="translate(50.227 133.46)"><path class="p" d="M-5386.436-4019.977c.913-1.79,2.008-3.474,3.043-5.194s1.859-3.528,2.771-5.314c.419-.819.96-1.562,1.441-2.344a28.94,28.94,0,0,0,1.371-2.714c.836-1.753,1.7-3.511,2.372-5.333.422-1.135.773-2.278,1.277-3.382a7.408,7.408,0,0,0,.859-2.6c.014-.326-.459-.309-.5,0a6.135,6.135,0,0,1-.227,1.344c-.175.5-.409.972-.624,1.453-.37.828-.646,1.687-.94,2.542a54.335,54.335,0,0,1-2.421,5.6c-.406.855-.778,1.739-1.248,2.562-.454.794-1,1.531-1.449,2.33-.954,1.706-1.684,3.522-2.676,5.213-1.111,1.9-2.327,3.729-3.321,5.69-.091.178.177.336.268.157Z" transform="translate(5386.722 4047.101)"/></g><g transform="translate(12.113)"><path class="s" d="M-5356.566-4555.706c-1,.167-2.022.214-3.085.309-1.239.11-2.42.678-3.634.766-3.318.239-4.588-4.266-5.459-6.769-2.708-7.786-2.966-16.162-2.967-24.325,0-4.321-1.1-12.068,3.952-14.163a5.893,5.893,0,0,1,3.6-.173c3.536.845,5.744,3.953,6.616,7.307.876,3.372-.869,7.46,1.531,10.418,1.064,1.312,2.725,1.947,4.172,2.819s2.841,2.288,2.7,3.972c-.2,2.406-3.318,3.726-3.61,6.122-.254,2.08,1.719,3.715,2.38,5.7.945,2.84-1.084,6-3.788,7.285A8.889,8.889,0,0,1-5356.566-4555.706Z" transform="translate(5413.215 4611.717)"/><g transform="translate(50.867 11.347)"><path class="s" d="M-5328.734-4600.737c.682.526,1.321,1.1,2,1.637a8.744,8.744,0,0,1,1.616,1.438,10.175,10.175,0,0,1,1.129,2c.152.345.306.69.457,1.036.176.4.215.794.353,1.2a13.064,13.064,0,0,1,.4,2.419,12.028,12.028,0,0,1-.04,2.411,6.867,6.867,0,0,0,1.168,4.814,6.778,6.778,0,0,0,1.639,1.477c.729.461,1.441.94,2.16,1.417.663.44,1.275.924,1.918,1.388a3.648,3.648,0,0,1,1.314,1.578,4.507,4.507,0,0,1-.488,4.219c-.427.66-.95,1.25-1.418,1.88-.437.589-.83,1.211-1.254,1.81a2.189,2.189,0,0,0,.1,2.329c.4.848.879,1.633,1.22,2.512a9.524,9.524,0,0,1,.568,2.667,8.383,8.383,0,0,1-2.44,6.448,2.25,2.25,0,0,1-1.028.654.948.948,0,0,1-1.062-.425,1.209,1.209,0,0,1,.131-1.055,10.812,10.812,0,0,1,2.023-2.312,5.012,5.012,0,0,0,.946-5.62c-.3-.767-.657-1.485-1.022-2.223a5,5,0,0,1-.6-2.128,2.537,2.537,0,0,1,.669-1.559c.449-.583.828-1.212,1.279-1.794.977-1.26,2.108-2.449,1.891-4.165a2.982,2.982,0,0,0-.982-1.976,21.428,21.428,0,0,0-1.862-1.4c-.684-.46-1.347-.945-2.042-1.389a8.078,8.078,0,0,1-1.657-1.29,6.632,6.632,0,0,1-1.669-3.923,11.685,11.685,0,0,1,.038-2.252,12.62,12.62,0,0,0,.01-2.519,13,13,0,0,0-.507-2.828,14.113,14.113,0,0,0-1.2-2.606,6.992,6.992,0,0,0-1.708-1.866c-.739-.6-1.431-1.25-2.171-1.845A.1.1,0,0,1-5328.734-4600.737Z" transform="translate(5328.897 4600.759)"/></g><g transform="translate(13.142 6.61)"><path class="s" d="M-5463.332-4617.686a14.183,14.183,0,0,0-16.167-2.674,13.861,13.861,0,0,0-3.771,2.75,11.127,11.127,0,0,0-2.149,3.408,33.641,33.641,0,0,1-1.588,3.69,10.594,10.594,0,0,1-2.765,2.969c-2,1.564-4.557,2.946-5.552,5.429-1.275,3.176,1.617,6,2.236,8.964a4.258,4.258,0,0,1-.6,3.4,9.781,9.781,0,0,1-2.448,2.151,6.876,6.876,0,0,0-2.5,2.84,5.122,5.122,0,0,0-.214,3.574c.464,1.439,1.629,2.425,2.4,3.688a6.625,6.625,0,0,1,.875,3.934,37.41,37.41,0,0,1-.715,4.213,9.2,9.2,0,0,0,.19,4.544,5.2,5.2,0,0,0,.332.934,7.739,7.739,0,0,1,.516.875.448.448,0,0,1-.828.343,10.1,10.1,0,0,0-.517-.873,6.352,6.352,0,0,1-.361-1.021,8.792,8.792,0,0,1-.449-2.4,19.55,19.55,0,0,1,.58-4.336,9.8,9.8,0,0,0,.184-4.431c-.42-1.562-1.688-2.593-2.484-3.941a6.169,6.169,0,0,1,.673-7.055c1.418-1.714,4.487-2.606,4.629-5.147.093-1.65-.835-3.218-1.525-4.651a8.135,8.135,0,0,1-1.066-4.7c.413-2.674,2.768-4.489,4.831-5.955a16.5,16.5,0,0,0,3.289-2.792,14.4,14.4,0,0,0,1.942-3.875,13.778,13.778,0,0,1,1.914-3.494,12.83,12.83,0,0,1,3.475-2.893,14.7,14.7,0,0,1,16.317.985,14.636,14.636,0,0,1,1.521,1.352c.113.115-.086.315-.2.2Z" transform="translate(5499.942 4622.236)"/></g><path class="s" d="M-5454.084-4607.954c-.875,4.114-6.077,4.516-9.519,3.975-.706-.11-1.407-.25-2.115-.341a3.991,3.991,0,0,0-1.9.013,6.2,6.2,0,0,0-2.785,2.147,9.093,9.093,0,0,0-1.256,5.6c.032,2.1.15,4.214,0,6.317a14.607,14.607,0,0,1-1.612,6.014c-1.931,3.517-5.165,6.21-8.375,8.517a57.066,57.066,0,0,0-5.017,3.667,20.917,20.917,0,0,0-4.815,6.189,14.318,14.318,0,0,1,.256-3.821,7.19,7.19,0,0,0,.243-3.326c-.572-1.8-2.345-3.027-2.9-4.833-.736-2.407.907-4.852,2.577-6.734s3.584-3.953,3.5-6.468c-.113-3.379-3.855-6.086-3.251-9.413.34-1.869,1.979-3.2,3.609-4.178s3.432-1.827,4.533-3.374c1.07-1.5,1.31-3.423,2-5.131,2.124-5.252,6.676-5.641,11.423-6.65,4.195-.89,9.76,1.468,12.707,4.449C-5454.276-4612.8-5453.592-4610.271-5454.084-4607.954Z" transform="translate(5508.501 4627.08)"/><path class="h" d="M-5470.275-4512.034c4.268,7.12,13.453,11.2,18.563,17.938,2.929,3.864,6.837,7.85,11.682,7.651,4.759-.2,8.478-4.625,9.489-9.278.933-4.283-.833-8.071-.547-12.205.176-2.568,1.7-4.26.539-6.974-1.989-4.663-7.927-4.559-11.817-6.639a8.12,8.12,0,0,1-3.7-3.705,7.218,7.218,0,0,1-.42-1.249,11.232,11.232,0,0,1-.229-3.331c.183-2.9,1.119-6.054,1.566-8.915a17.013,17.013,0,0,0,.234-2.767c0-.1,0-.208-.011-.312a9.592,9.592,0,0,0-1.288-4.11,4.772,4.772,0,0,0-2.686-2.489c-1.32-.306-2.467.832-2.948,1.954a10.237,10.237,0,0,1-1.5,1.919,7.312,7.312,0,0,0-.874,1.557,4.046,4.046,0,0,0-.342,1.584,36.693,36.693,0,0,1-.247,4.012,21.238,21.238,0,0,1-1.178,4.458,17.3,17.3,0,0,1-5.18,7.493,27.764,27.764,0,0,1-6.221,3.433c-2.208.981-4.128,1.492-4.662,4.138C-5472.454-4515.884-5471.416-4513.621-5470.275-4512.034Z" transform="translate(5491.414 4571.349)"/><path class="r" d="M-5390.474-4514.379a17.766,17.766,0,0,0,2.05,2.3,13.712,13.712,0,0,0,3.451,2.385,11.2,11.2,0,0,1-.228-3.331c.181-2.9,1.119-6.054,1.565-8.914-.042-.071-.084-.143-.127-.214a8.871,8.871,0,0,0-7.14-4.747,2.1,2.1,0,0,0-1.911.576,2.28,2.28,0,0,0-.292,1.355c-.009,1.846-.311,3.792.129,5.6A14.035,14.035,0,0,0-5390.474-4514.379Z" transform="translate(5429.896 4554.551)"/><path class="h" d="M-5390.2-4540.332c1.365,1.724,4.824,5.173,7.287,4.69a5.147,5.147,0,0,0,2.281-1.084c2.3-1.9,3.23-5.176,3.8-7.974.008-.038.015-.076.022-.113q.207-1.03.335-2.053c.083-.651.142-1.3.182-1.95q.056-.951.056-1.9c0-.453-.425-3.835-.2-4.051a6.42,6.42,0,0,1-3.427,1.674,17.561,17.561,0,0,1-5.323-.5c-1.769-.281-3.719-.319-5.19.7a5.587,5.587,0,0,0-2.132,3.747A10.906,10.906,0,0,0-5390.2-4540.332Z" transform="translate(5429.466 4576.258)"/><path class="r" d="M-5383.652-4526.112c1.1-.88,2.447.794,2.589,2.175.312,3.046-4.424.926-3.111-1.508A2.143,2.143,0,0,1-5383.652-4526.112Z" transform="translate(5423.029 4554.114)"/><path class="r" d="M-5326.826-4525.276c.246.873.737,1.161,1.253,1.088q.205-1.03.334-2.052c.083-.651.141-1.3.182-1.951-.055-.024-.108-.043-.159-.06C-5326.563-4528.666-5327.2-4526.613-5326.826-4525.276Z" transform="translate(5378.232 4555.632)"/><g transform="translate(13.872 55.739)"><path class="t" d="M-5488.887-4385.925a16.089,16.089,0,0,0-.156-2.916c-.124-.905-.205-1.815-.33-2.72a13.245,13.245,0,0,0-1.246-3.917,7.5,7.5,0,0,0-2.385-3.077,3.281,3.281,0,0,0-1.74-.559,1.489,1.489,0,0,0-1.095.387.811.811,0,0,1-.628.273c-.23-.031-.213-.394.019-.364s.541-.349.744-.462a1.578,1.578,0,0,1,.612-.193,3.447,3.447,0,0,1,1.5.206,5.128,5.128,0,0,1,2.23,1.826,13.27,13.27,0,0,1,2.414,6.346,33.946,33.946,0,0,1,.428,5.188.182.182,0,0,1-.364-.019Z" transform="translate(5496.631 4399.486)"/></g><g transform="translate(56.68 53.621)"><path class="t" d="M-5302.328-4409.036a15.952,15.952,0,0,1,1.242,2,15.441,15.441,0,0,1,.7,2.206c.2.835.346,1.671.508,2.515a5.408,5.408,0,0,0,.588,2.032l-.293.062a1.564,1.564,0,0,1,.067-.226.109.109,0,0,1,.208.011c.02.078.04.155.059.232.034.136-.147.284-.265.183a2.783,2.783,0,0,1-.565-1.553c-.161-.859-.245-1.732-.434-2.586a18.451,18.451,0,0,0-.732-2.6,16.149,16.149,0,0,0-1.278-2.168c-.071-.125.125-.226.2-.1Z" transform="translate(5302.54 4409.092)"/></g><path class="u" d="M-5526.84-4389.653c.261,3.891-1.57,9.573.542,13.044a13.8,13.8,0,0,0,3.479,3.6,79.805,79.805,0,0,0,7.757,4.794c10.6,6.317,24.158,14.053,36.085,6.646,2.417-1.5,4.642-3.325,7.192-4.59,3.479-1.727,8.7-1.12,11.772-2.974,4.077-2.464,4.652-8.683,3.74-12.714a124.88,124.88,0,0,0-4.986-16.585c-2.383-6.3-4.955-14.081-9.909-18.77a35.7,35.7,0,0,0-4.96-4.339,22.568,22.568,0,0,0-6.232-2.161,14.2,14.2,0,0,1,.92,1.951c0,.019.01.038.016.057.071.265.13.534.183.8a18.325,18.325,0,0,1,.262,3.792c-.062,3.272-.076,5.272-2.29,7.809-4.045,4.634-11.037,2.678-15.624.036-5.682-3.272-10.179-9.7-13.988-14.912-.481-.659-1.481-.136-2.011.17a20.617,20.617,0,0,0-4.688,3.759,21.479,21.479,0,0,0-1.473,1.773c-.842,1.134-1.493,2.367-2.227,3.566a22.827,22.827,0,0,0-2.332,5.7q-.393,1.378-.671,2.784a45.757,45.757,0,0,0-.826,7.884C-5527.177-4395.566-5527.038-4392.6-5526.84-4389.653Zm8.765,6.4a19.037,19.037,0,0,1,1.913-7.065c.552-1.126,2.849-5.824,4.523-4.757a2.24,2.24,0,0,1,.78,1.588,43.655,43.655,0,0,1-2.625,24.109c-2.925-4.091-4.89-8.483-4.606-13.627C-5518.086-4383.084-5518.081-4383.168-5518.075-4383.25Z" transform="translate(5534.43 4474.706)"/><path class="t" d="M-5511.679-4288.438a69.945,69.945,0,0,0,7.639,8.789,35.747,35.747,0,0,0,19.462,8.449c6.7.77,14.376.985,19.582-4.083,3.191-3.1,4.717-7.607,5.062-12.046a37.8,37.8,0,0,0-.185-6.967c-.136-1.264-1.363-5.1-.372-5.955,1.023-.881,4.225.118,5.415.25a8.387,8.387,0,0,0,5.768-.991c2.5-1.645,3.7-5.478,3.9-8.326-1.019,1.392-1.982,3.313-4.021,3.208-2.592-.135-3.315-2.171-4.105-4.277a12.812,12.812,0,0,0-4.389-6.358c-.571-.415-4.461-2.783-4.97-1.812,3.006-5.736,4.462-13.109,2.286-19.372-.067-.195-.176-.419-.38-.444a.391.391,0,0,0-.385.356,12.468,12.468,0,0,0,.307,1.942,25.617,25.617,0,0,1,.015,2.949,10.922,10.922,0,0,1-.962,4.635,9.114,9.114,0,0,1-7.83,4.76c-6.227-.024-16.283,4.991-21.363.15-1.784-1.7-2.916-3.951-4.172-6.072-7-11.821-9.055.216-11.562,7.334a59.82,59.82,0,0,0-3.8,17.161,17.3,17.3,0,0,1-.812,4.075C-5512.843-4296.777-5514.9-4292.482-5511.679-4288.438Zm5.315-27.64c.142-3.15,1.059-6.926,3.372-9.212a13.878,13.878,0,0,1,2.345,4.745c.8,3.173,1.058,6.3-.657,9.221a18.965,18.965,0,0,1-3.521,4.34,22.384,22.384,0,0,1-1.557-7.269C-5506.4-4314.861-5506.39-4315.471-5506.363-4316.078Z" transform="translate(5523.57 4407.593)"/><path class="u" d="M-5421.607-4224.924a25.687,25.687,0,0,1,.288-4.824c1.307-8.178,6.858-16.643,14.812-17.926a19.726,19.726,0,0,1,16.559,5.566c5.263,5.085,8.338,13.438,8.354,20.661.022,10.465-10.784,21.165-21.325,20.549C-5414.32-4201.565-5421.288-4214.61-5421.607-4224.924Z" transform="translate(5452.037 4337.066)"/><path class="u" d="M-5554.313-4342.615c.208.688.4,1.385.548,2.1,1.451,6.959,3.563,14.158,8.576,19.44,2.322,2.445,5.688,4.463,8.937,3.559,4.2-1.168,9.076-8.194,7.5-12.65a15.456,15.456,0,0,0-3.036-4.43c-4.677-5.667-8.606-14-8.131-21.454.615-9.667,8.679-21.635,1.491-30.588-1.389-1.729-3.605-3.792-5.893-2.313a8.309,8.309,0,0,0-2.609,3.517c-1.014,2.055-1.988,4.1-2.9,6.152a68.536,68.536,0,0,0-5.286,16.838c-.027.172-.055.345-.082.517a57.414,57.414,0,0,0-.866,12.365A30.726,30.726,0,0,0-5554.313-4342.615Z" transform="translate(5556.879 4447.406)"/><path class="t" d="M-5558.489-4313.9c.027-.173.054-.346.082-.517a69.878,69.878,0,0,1,4.828-17.128c.041.383-.556,5.264-.6,5.829-.929,10.714-1.758,17.031.027,27.794.788,4.747,4.426,25.275,12.532,17.658a36.231,36.231,0,0,1,3.465-3.41c1.322-.942,3.207-1.381,4.545-.464,1.211.83,1.564,2.453,1.618,3.92.442,12.106-13.066,13.427-19.937,5.252C-5560.458-4285.11-5560.387-4301.563-5558.489-4313.9Z" transform="translate(5559.528 4402.272)"/><path class="h" d="M-5455.7-4111.65a.767.767,0,0,0-.108-1.3,1.845,1.845,0,0,0-1.235-.191c-3.666.291-8.146-.089-11.439,2.158-1.223.834-2.684,2.119-2.416,3.769.217,1.33,1.471,2.381,2.533,3.075,3.176,2.078,6.308,4.122,10.171,4.708a19.47,19.47,0,0,0,4.3.24,2.141,2.141,0,0,0,1.407-.486c.12-.129.441-1.306.268-1.255.889-.262,2.953-.87,2.346-2.2a2.317,2.317,0,0,0-1.1-.942c-2.869-1.548-5.982-2.389-8.313-4.808a.71.71,0,0,1-.249-.456c0-.323.379-.486.688-.585A9.041,9.041,0,0,0-5455.7-4111.65Z" transform="translate(5490.473 4232.048)"/><g transform="translate(24.135 86.873)"><path class="u" d="M-5442.361-4253.542a22.483,22.483,0,0,1-2.492-.547,20.193,20.193,0,0,1-2.334-1.16,12.924,12.924,0,0,1-2-1.48c-.506-.393-.941-.763-.911-1.455a.156.156,0,0,1,.307-.025c.118.719.707,1.032,1.219,1.471a9.211,9.211,0,0,0,1.932,1.328,13.864,13.864,0,0,0,2.166,1.039c.729.218,1.491.3,2.231.468.238.056.117.415-.12.361Z" transform="translate(5450.099 4258.329)"/></g><g transform="translate(65.941 86.716)"><path class="t" d="M-5251.69-4254.007a12.409,12.409,0,0,0-3.24-3.311,10.8,10.8,0,0,0-2.522-.934,14.636,14.636,0,0,0-2.989-.54.124.124,0,0,1,.013-.248,14.688,14.688,0,0,1,2.909.515,11.9,11.9,0,0,1,2.615.944,12.2,12.2,0,0,1,3.387,3.416c.093.118-.079.274-.172.156Z" transform="translate(5260.555 4259.04)"/></g><g transform="translate(9.788 92.21)"><path class="t" d="M-5511-4233.29c-.728-.123-1.419-.447-2.157-.5a2.57,2.57,0,0,0-1.085.217,1.111,1.111,0,0,1-.819.044.14.14,0,0,1,.052-.272c.675-.012,1.245-.385,1.934-.317.718.071,1.385.38,2.093.5.209.036.195.369-.018.334Z" transform="translate(5515.147 4234.131)"/></g><g transform="translate(9.812 93.135)"><path class="t" d="M-5513.534-4229.921q.627.2,1.26.392a1.81,1.81,0,0,1,.548.216c.136.093.25.235.389.32a4.2,4.2,0,0,0,.805.227,1.3,1.3,0,0,1,.665.448.3.3,0,0,1,.026.345c-.307.6-1.51.533-2.064.6a4.851,4.851,0,0,0-1.333.386,3.084,3.084,0,0,0-.825.492,1.611,1.611,0,0,1-.685.383.246.246,0,0,1-.165-.456,6.226,6.226,0,0,0,.7-.551,3.163,3.163,0,0,1,.643-.35,5.519,5.519,0,0,1,1.263-.425c.38-.062.767-.078,1.149-.128.208-.027.729-.038.842-.258.008.115.018.229.026.345-.317-.45-.93-.29-1.346-.559-.146-.095-.246-.256-.4-.346a2.248,2.248,0,0,0-.491-.176q-.594-.18-1.184-.371a.28.28,0,0,1,.176-.531Z" transform="translate(5515.042 4229.937)"/></g><g transform="translate(11.818 97.379)"><path class="t" d="M-5503.944-4210.662a7.55,7.55,0,0,0,1.176.463.2.2,0,0,1,.071.34c-.508.361-1.137.328-1.683.591-.483.234-.883.832-1.464.807-.084,0-.141-.127-.065-.182a11.777,11.777,0,0,1,1.3-.943c.515-.275,1.167-.226,1.646-.571.023.113.047.226.071.34a7.879,7.879,0,0,1-1.227-.478.2.2,0,1,1,.177-.367Z" transform="translate(5505.944 4210.69)"/></g><g transform="translate(66.581 85.892)"><path class="t" d="M-5253.383-4262.407a13.457,13.457,0,0,1-2.359.21,7.541,7.541,0,0,1-.9-.062c-.306-.041-.532-.066-.7.224a.168.168,0,0,1-.306-.1c.067-.613.752-.528,1.2-.472a10.344,10.344,0,0,0,2.989-.163c.236-.04.318.324.081.363Z" transform="translate(5257.65 4262.773)"/></g><path class="h" d="M-5357.687-4258.194a14.631,14.631,0,0,0-1.467.662,1.629,1.629,0,0,0-1.049,1.188c-.215,1.6.985,2.144,2.325,2.424a11.358,11.358,0,0,0,2.81.226c-.362.433-1.268,1.112-.494,1.576,1.115.669,2.307.359,3.516.278,3.341-.222,5.926,1.691,9.2,1.8a2.983,2.983,0,0,0,2.177-.54c.533-.533.313-1.642.007-2.232a6.888,6.888,0,0,0-1.826-2.037c-.65-.53-1.341-1.008-1.983-1.548a3.031,3.031,0,0,0-1.078-.692c-.535-.161-1.05-.4-1.569-.606l-3.251-1.309a7.339,7.339,0,0,0-1.341-.442,6.51,6.51,0,0,0-1.708.08,15.075,15.075,0,0,0-3.327.836Q-5357.218-4258.376-5357.687-4258.194Z" transform="translate(5404.185 4346.102)"/><g transform="translate(41.662 22.99)"><path class="s" d="M-5368.186-4543.818a2.436,2.436,0,0,0-1.039.12l-1.271.246c-.25.048-.135.429.113.379l1.191-.235a2.582,2.582,0,0,0,1.042-.284A.126.126,0,0,0-5368.186-4543.818Z" transform="translate(5370.635 4544.756)"/><path class="s" d="M-5364.327-4535.888a1.177,1.177,0,0,1-.492.64.455.455,0,0,1-.663-.134,1.108,1.108,0,0,1-.251-.606,1.108,1.108,0,0,1,.618-1.134c.229-.105.413.183.282.37-.009.012-.019.024-.027.037a.55.55,0,0,1,.4.046C-5364.2-4536.523-5364.247-4536.133-5364.327-4535.888Z" transform="translate(5366.818 4539.532)"/><path class="s" d="M-5330.6-4535.465a.282.282,0,0,0-.037-.023.739.739,0,0,0-.4-.064.28.28,0,0,0-.167-.323c-.491-.177-.732.756-.7,1.068a1.1,1.1,0,0,0,.251.606.455.455,0,0,0,.664.134,1.18,1.18,0,0,0,.491-.64C-5330.426-4534.94-5330.378-4535.3-5330.6-4535.465Z" transform="translate(5340.451 4538.561)"/><g transform="translate(6.056)"><path class="s" d="M-5339.182-4547.967c-1.889.38-2.754,2.278-3.013,4.033a7.651,7.651,0,0,0-.047,1.714c.053.667.258,1.3.361,1.96a2.8,2.8,0,0,1-.164,1.571c-.06.142-.686.892-.8.6a.175.175,0,0,0-.334.088c.1.813,1.1.119,1.351-.234.666-.952.315-2.169.1-3.194a6.986,6.986,0,0,1,.362-4.025,3.063,3.063,0,0,1,2.228-2.131c.238-.048.193-.426-.047-.377Z" transform="translate(5343.177 4547.972)"/></g><g transform="translate(3.468 12.003)"><path class="s" d="M-5351.206-4493.1a2.9,2.9,0,0,1-2.183.4c-.4-.079-1.324-.139-1.51-.582a.191.191,0,0,1,.2-.26c.178.041.337.147.512.206a7.033,7.033,0,0,0,.77.192,2.547,2.547,0,0,0,1.969-.27c.217-.125.459.183.24.314Z" transform="translate(5354.912 4493.551)"/></g></g><path class="g" d="M-5357.394-4495.569a.563.563,0,0,0-.324.088c-.246.19-.054.663.086.845a2.647,2.647,0,0,0,2.884.91,3.182,3.182,0,0,0,1.708-1.2c.278-.454.075-.816-.5-.794l-3.814.146Z" transform="translate(5402.32 4530.232)"/><g transform="translate(21.327 51.747)"><path class="t" d="M-5430.916-4417.54a19.147,19.147,0,0,1,1.085,4.352,16.619,16.619,0,0,1,.005,4.213,11.239,11.239,0,0,1-3.406,7.138,7.919,7.919,0,0,1-3.615,1.764,11.45,11.45,0,0,1-3.293.1,28.643,28.643,0,0,1-3.051-.42c-3.971-.8-7.373-3.23-10.359-5.854a43.639,43.639,0,0,1-5.047-5.176c-.754-.925-1.484-1.873-2.176-2.846-.706-.99-1.433-1.981-2.047-3.032a.084.084,0,0,1,.136-.094c1.328,1.574,2.5,3.279,3.816,4.87a49.826,49.826,0,0,0,4.2,4.55c2.827,2.669,5.973,5.264,9.694,6.555a14.694,14.694,0,0,0,2.819.68,31.288,31.288,0,0,0,3.228.341,7.956,7.956,0,0,0,4.6-1.148,9.951,9.951,0,0,0,4-6.509,16.809,16.809,0,0,0,.3-4.56,14.88,14.88,0,0,0-.312-2.212,20.194,20.194,0,0,0-.745-2.63c-.039-.1.115-.186.155-.081Z" transform="translate(5462.831 4417.588)"/></g><path class="s" d="M-5421.318-4643.628a4.964,4.964,0,0,0,.553-5.015,6.164,6.164,0,0,0-3.937-3.3,6.992,6.992,0,0,0-5.071.5,7.1,7.1,0,0,0-3.53,7.785,7.1,7.1,0,0,0,6.766,5.225,7.1,7.1,0,0,0,6.64-5.384Z" transform="translate(5461.289 4652.208)"/></g></g></g></g></g><g transform="translate(-5833.305 -4515.212)"><path class="h" d="M-5153.561-3581.838c-7,10.365-25.821,23.98-39.153,21.324-6.456-1.286-8.3-6.047-12.783-9.769a52.888,52.888,0,0,0-19.515-9.584l-.243-.055c-14.481-3.317-28.08-1.358-41.8-7.476-14.695-6.551-26.2-16.366-42.195-18.6a47.98,47.98,0,0,0-5.4-.447c-2.3-.062-5-.21-6.634-1.615a3.941,3.941,0,0,1-.934-1.17c-5.063-9.641,16.261-10.327,20.487-9.517,9.514,1.823,18.422,6.639,28.357,4.344,22.821-5.275-2.927-27.519-9.09-36.854-5.139-7.784-10.269-15.576-15.313-23.425s-10-15.755-14.8-23.761q-3.6-6.02-7.067-12.116a74.618,74.618,0,0,1-4.365-8.022c-1.013-2.443-1.929-5.839-.2-8.212,1.4-1.922,3.858-1.752,5.924-1.12,2.761.844,4.871,3.033,6.82,5.164,13.267,14.481,25.412,30.633,38.584,45.511,1.443,1.628,2.962,3.312,4.983,4.118,6.563,2.613,4.524-4.847,8.006-7.222,4.858-3.312,10.083.6,16.087-2.579,3.689-1.954,7.647-4.432,11.723-3.513,4.7,1.061,9.245,6.2,14.188,3.036,1.765-1.129,3.366-2.715,5.437-3.036,3.064-.475,5.745,1.966,7.789,4.3,5.473,6.244,9.9,13.148,14.188,20.221,4,6.6,5.919,14.094,9.589,20.975a249.336,249.336,0,0,0,14.066,23.24c4.488,6.576,12.84,13.223,15.957,20.378C-5148.656-3592.25-5150.186-3586.838-5153.561-3581.838Z" transform="translate(5325.172 3728.344)"/><path class="i" d="M-5317.106-3717.552c.568,2.829,2.5,7.512,5.345,8.766,1.739.766,4.376.462,5.336-1.35,2.257-4.264-3.375-12.121-8.036-11.805C-5317.125-3721.761-5317.559-3719.807-5317.106-3717.552Z" transform="translate(5319.006 3723.361)"/><path class="i" d="M-5296.1-3190.286a47.8,47.8,0,0,0-5.4-.447c-2.3-.062-5-.21-6.634-1.615-.872-1.649,1.859-2.684,3.224-2.579,2.112.164,4.092-.477,6.158.395a4.837,4.837,0,0,1,2.542,2.346C-5295.9-3191.531-5295.628-3190.682-5296.1-3190.286Z" transform="translate(5312.019 3312.634)"/></g></g></g></svg>