<svg xmlns="http://www.w3.org/2000/svg" width="565.872" height="315.865" viewBox="0 0 565.872 315.865"><defs><style>.a{opacity:0.65;}.b,.c{fill:#fff;}.b,.d{opacity:0.59;}</style></defs><g class="a" transform="translate(0)"><g transform="translate(190.706 212.873)"><path class="b" d="M-1648.645,5698.491a1.678,1.678,0,0,0,1.2.863l12.865,2.182a1.668,1.668,0,0,1,.227,3.233l-7.038,2.239a1.672,1.672,0,0,0-.919,2.469,198.154,198.154,0,0,0,50.74,54.911h5.967l21.9-11.49a1.668,1.668,0,0,1,1.974,2.636l-8.561,8.854h150.288c-.979-1.729-1.992-3.475-2.991-5.224a197.452,197.452,0,0,0-36.477-46.133,1.669,1.669,0,0,0-2.817,1.133c-.2,4.6-.4,9.326-.585,13.758a1.668,1.668,0,0,1-3.322.126l-2.67-22.662a1.686,1.686,0,0,0-.6-1.106,190.75,190.75,0,0,0-39.765-25.088q-.617-.289-1.236-.571a1.67,1.67,0,0,0-2.325,1.142l-2.54,11.036a1.668,1.668,0,0,1-3.293-.4l.223-14.034a1.678,1.678,0,0,0-1.055-1.585,194.8,194.8,0,0,0-62.322-13.38,1.671,1.671,0,0,0-1.748,1.685c.072,9.067,0,19.078-.062,25.111a1.667,1.667,0,0,1-3.069.882l-17.21-26.648a1.677,1.677,0,0,0-1.526-.764,191.876,191.876,0,0,0-52.793,11.281,1.683,1.683,0,0,0-.992,2.157A189.962,189.962,0,0,0-1648.645,5698.491Z" transform="translate(1659.288 -5661.396)"/><path class="b" d="M-1655.6,5676.469l178.075,87.921h57.65c-.979-1.73-1.992-3.475-2.99-5.224a197.478,197.478,0,0,0-36.4-46.062,1.717,1.717,0,0,0-2.9,1.165c-.193,4.365-.382,8.839-.555,13.065a1.715,1.715,0,0,1-3.417.127l-2.6-22.055a1.732,1.732,0,0,0-.622-1.137,190.725,190.725,0,0,0-39.75-25.077q-.591-.276-1.183-.547a1.718,1.718,0,0,0-2.39,1.174l-2.427,10.546a1.715,1.715,0,0,1-3.386-.412l.215-13.557a1.723,1.723,0,0,0-1.084-1.629A194.8,194.8,0,0,0-1581.6,5661.4a1.718,1.718,0,0,0-1.8,1.732c.071,8.976,0,18.867-.061,24.9a1.714,1.714,0,0,1-3.155.907l-17.11-26.492a1.727,1.727,0,0,0-1.57-.787,192.271,192.271,0,0,0-50.044,10.3C-1659.163,5673.148-1661.047,5673.863-1655.6,5676.469Z" transform="translate(1659.158 -5661.398)"/></g><g transform="translate(0 279.886)"><path class="c" d="M-1929.356,5817.041c-3.908-2.726-7.739-5.625-14.833-11.124-3.9-3.022-7.729-6.39-11.594-9.648l-6.671,6.583-.809-12.572c-5.8-4.3-11.833-7.737-18.425-8.867l-.342,7.182-4.364-7.534a14.549,14.549,0,0,0-7.6,2.3c-3.4,2.238-5.505,10.583-5.813,15.539-.366,5.891,2.943,14.048,6.094,18.138Z" transform="translate(1999.835 -5781.062)"/><g transform="translate(0.24 1.796)"><path class="c" d="M-1938.815,5840.389a.179.179,0,0,1-.089.252q1.277.382,2.56.73c.183-.071.366-.141.549-.208a.108.108,0,0,1,.057-.006q-1.57-.417-3.132-.884C-1938.852,5840.312-1938.834,5840.351-1938.815,5840.389Z" transform="translate(1972.785 -5808.911)"/><path class="c" d="M-1944.451,5838.744c-.066-.135-.131-.272-.2-.409-2.156-.653-4.3-1.381-6.421-2.2l.022.04a.223.223,0,0,1-.1.315q1.426.547,2.864,1.043c.109-.043.217-.089.326-.131.14-.055.2.166.133.291q1.69.576,3.392,1.086A.2.2,0,0,1-1944.451,5838.744Z" transform="translate(1978.17 -5807.091)"/><path class="c" d="M-1929.514,5842.783q-1.869-.435-3.729-.928c.12.034.142.308-.008.364,1.078.3,2.178.574,3.282.834l.651.15C-1929.385,5843.063-1929.45,5842.924-1929.514,5842.783Z" transform="translate(1970.298 -5809.607)"/><path class="c" d="M-1967.84,5827.125q-.813-.319-1.622-.652a93.273,93.273,0,0,1-12.392-6.295c.007.188-.2.313-.259.114l-.093-.328q-1.542-.94-3.06-1.943-1.441-.954-2.859-1.965a.229.229,0,0,1-.063.327l-.046.018q.532.379,1.067.75A97.387,97.387,0,0,0-1975.69,5824l.151-.076c.134-.069.241.124.194.249q1.832.917,3.689,1.748,2.036.907,4.1,1.7a.186.186,0,0,1-.019-.027C-1967.664,5827.438-1967.752,5827.28-1967.84,5827.125Z" transform="translate(1994.491 -5798.255)"/><path class="c" d="M-1925.879,5844.049q.538.122,1.077.241l.214-.154c.131-.094.238.1.187.243.332.072.663.139.994.209h1.858c-.91-.18-1.82-.357-2.728-.554q-.82-.178-1.638-.367c.025.053.049.105.074.158A.186.186,0,0,1-1925.879,5844.049Z" transform="translate(1967.069 -5810.404)"/><path class="c" d="M-1993.1,5812.251a.1.1,0,0,1,.069,0q-3.147-2.245-6.172-4.763c-.021.131-.042.26-.061.389q2.859,2.375,5.831,4.508Z" transform="translate(1999.343 -5794.484)"/><path class="c" d="M-1986.219,5792.113l3.952,13.865c.031.109.062.218.093.327.057.2.266.074.259-.114a.3.3,0,0,0-.009-.06q-1.991-6.983-3.981-13.966c-.64-2.248-1.3-4.487-1.913-6.75q-.154-.57-.3-1.146-.129.073-.258.149c.077.306.156.612.237.916C-1987.529,5787.609-1986.862,5789.856-1986.219,5792.113Z" transform="translate(1994.552 -5784.27)"/><path class="c" d="M-1959.3,5817.052c.088.156.175.313.264.467a.18.18,0,0,0,.019.027.092.092,0,0,0,.094.037.223.223,0,0,0,.1-.315l-.022-.04c-3.977-6.956-6.9-15-9.37-23.084-.052-.171-.1-.342-.153-.513l-.014.289-.438-.756a138.5,138.5,0,0,0,6.807,18.516C-1961.17,5813.523-1960.269,5815.322-1959.3,5817.052Z" transform="translate(1985.949 -5788.184)"/><path class="c" d="M-1946.367,5815.995q.1.205.2.409a.182.182,0,0,0,.024.036.117.117,0,0,0,.138.041.179.179,0,0,0,.089-.252c-.019-.038-.037-.077-.055-.115a84.2,84.2,0,0,1-4.795-14.073q-2.08-7.526-3.7-15.271c-.088-.422-.174-.846-.26-1.27l-.325-.137a230.387,230.387,0,0,0,5.909,23.278A57.49,57.49,0,0,0-1946.367,5815.995Z" transform="translate(1979.891 -5784.751)"/><path class="c" d="M-1929.149,5833.3a.127.127,0,0,0,.211.049.184.184,0,0,0,.039-.224c-.025-.053-.049-.106-.074-.159-1.932-4.1-2.8-8.867-3.633-13.553a.2.2,0,0,0-.024-.068l-.236.233c.817,4.589,1.673,9.256,3.521,13.3C-1929.28,5833.018-1929.215,5833.157-1929.149,5833.3Z" transform="translate(1970.128 -5799.702)"/><path class="c" d="M-1919.731,5830.065h.32a67.18,67.18,0,0,1-4.438-19.4l-.255.252a69.229,69.229,0,0,0,2.456,13.536C-1921.093,5826.372-1920.449,5828.244-1919.731,5830.065Z" transform="translate(1966.273 -5795.882)"/><path class="c" d="M-1900.56,5835.281a53.6,53.6,0,0,1-3.292-12.51l-.318-.255a54.116,54.116,0,0,0,3.291,12.766Z" transform="translate(1957.502 -5801.098)"/><path class="c" d="M-1884.078,5841.73a35.454,35.454,0,0,1-.786-4.325l-.308-.231a36.141,36.141,0,0,0,.8,4.557Z" transform="translate(1949.143 -5807.548)"/><path class="c" d="M-1958.334,5842.263a43.861,43.861,0,0,1,6.984-3.512.148.148,0,0,0,.076-.068c.07-.125.007-.347-.133-.292l-.326.131a44.527,44.527,0,0,0-7.259,3.74Z" transform="translate(1981.624 -5808.079)"/><path class="c" d="M-1976.394,5830.34c.048-.125-.06-.318-.194-.25l-.151.077-13.878,7.077c.064.1.128.2.192.292l13.964-7.121A.14.14,0,0,0-1976.394,5830.34Z" transform="translate(1995.539 -5804.424)"/><path class="c" d="M-1993.1,5816.35a.228.228,0,0,0,.063-.327.1.1,0,0,0-.052-.038.106.106,0,0,0-.069,0l-.334.131c-1.956.765-3.932,1.409-5.911,2.045q.028.179.058.359c2.075-.667,4.149-1.343,6.2-2.158Z" transform="translate(1999.406 -5798.223)"/><path class="c" d="M-1940.37,5843.788a38.109,38.109,0,0,1,3.6-1.564c.17-.062.148-.338.028-.371a.114.114,0,0,0-.066,0c-.183.067-.366.137-.549.208-1.295.5-2.577,1.081-3.846,1.724Z" transform="translate(1973.796 -5809.605)"/></g></g><g class="d" transform="translate(413.72 0)"><path class="c" d="M-1250.515,5476.413a613.076,613.076,0,0,0,84.251,120.718h57.367V5453.659q-.448,2.722-.9,5.445l-6.719,40.835c-.861,5.231-.018,21.862-6.865,23.9-8.336,2.48-9.738-22.8-10.274-28.6-2.427-26.284,2.159-52.751,7.536-78.4,8.328-39.724,18.216-81.446,6.072-120.173-1.135-3.617-3.183-7.775-6.958-8.125-5.247-.487-7.591,6.354-8.132,11.6-5.57,25.044-5.447,52.868-8.08,78.413q-2.019,19.6-4.039,39.207c-.679,6.589-.475,14.1-2.11,20.516-4.407,17.282-12.195-6.359-14.159-13.509-4.657-16.954-3.912-35.048-2.286-52.379,2.532-26.986,6.358-55.786-6.03-79.895-3.518-6.846-11.155-13.843-17.961-10.247-5.139,2.714-5.928,9.63-5.964,15.441a464.086,464.086,0,0,0,25.529,154.572c2.039,5.881,18.2,51.774,6.335,51.588-7.858-.133-17.317-29.344-19.781-35.743-5.518-14.332-9.681-29.137-13.721-43.938-8.065-29.552-15.477-59.876-31.132-86.53-1.773-3.02-4.722-6.418-8.063-5.372-2.891.906-3.768,4.513-4.048,7.53-3.445,37.233,11.955,73.484,29.067,106.73,8.332,16.188,17.146,32.146,24.734,48.7,2.419,5.277,20.946,46.638,11.417,46.187-3.528-.167-10.032-14.1-12.212-17.109q-8.756-12.094-17.509-24.191l-36.113-49.895c-3.309-4.572-8.087-9.716-13.542-8.269-3.977,1.055-6.286,5.494-6.245,9.608s1.883,7.972,3.723,11.651Q-1254,5469.852-1250.515,5476.413Z" transform="translate(1261.048 -5281.266)"/><g transform="translate(0.293 0.414)"><path class="c" d="M-1108.672,5407.452c2.748,15.033,5.573,30.054,8.6,45.035,5.6,27.729,11.884,55.339,19.613,82.557,0,.048,0,.1,0,.146a.534.534,0,0,0,.146.375q.787,2.766,1.6,5.527,4.755,16.25,10.282,32.266a.677.677,0,0,0-.04-.076c-.83-1.261-1.648-2.529-2.472-3.794q-2.67-7.886-5.146-15.833c-9.166-29.424-16.422-59.408-22.737-89.562-6.273-29.956-11.841-60.093-17.007-90.26a405.435,405.435,0,0,1-5.24-44.118c-.9-14.871-1.045-29.775-1.018-44.67,0-1.013.009-2.025.012-3.038a11.25,11.25,0,0,1,1.119.4c-.059,27.031.443,54.062,4.534,80.842C-1114.174,5378.033-1111.361,5392.741-1108.672,5407.452Z" transform="translate(1199.617 -5282.006)"/><path class="c" d="M-1018.166,5826.467q-4.7-11.893-8.879-23.983a.577.577,0,0,1-1.057.359l-.018-.027q4.13,11.917,8.757,23.651Z" transform="translate(1158.266 -5511.016)"/><path class="c" d="M-1146.321,5556.422q14.934,27.187,31.879,53.2c.824,1.265,1.642,2.534,2.472,3.794a.658.658,0,0,1,.04.076.514.514,0,0,1,.04.116.577.577,0,0,1-1.057.358l-.018-.027a832.771,832.771,0,0,1-58.284-104.045,818.921,818.921,0,0,1-42.478-110.457q-3.825-12.625-7.222-25.373a4.555,4.555,0,0,1,.945-.844q10.116,38.04,23.957,74.959A828.778,828.778,0,0,0-1146.321,5556.422Z" transform="translate(1243.111 -5322.141)"/><path class="c" d="M-1154.7,5712.1c5.566,5.369,11.314,10.54,17.138,15.626h1.666c-7.685-6.685-15.233-13.52-22.408-20.75-13.731-13.837-26.559-28.656-39.027-43.63s-24.421-30.332-35.867-46.079q-13.978-19.23-26.905-39.189a11.587,11.587,0,0,0-.422,1.413,892.744,892.744,0,0,0,66.423,89.445C-1181.556,5683.793-1168.7,5698.6-1154.7,5712.1Z" transform="translate(1260.524 -5412.279)"/><path class="c" d="M-1045.565,5480.06q-1.326,30.681-1.083,61.4a.558.558,0,0,1-.975.348.534.534,0,0,1-.146-.375c0-.049,0-.1,0-.146-.283-36.487,1.312-72.916,3.912-109.3,2.573-36.022,5.533-72.049,9.8-107.915q1.662-13.956,3.64-27.871a7.348,7.348,0,0,1,1,.9c-3.533,24.955-6.23,50.028-8.5,75.128C-1041.17,5408.1-1044.008,5444.064-1045.565,5480.06Z" transform="translate(1166.926 -5288.251)"/><path class="c" d="M-1001.283,5803.788q3.094-22.361,6.188-44.721v-8.127q-3.657,26.424-7.313,52.848Z" transform="translate(1146.953 -5488.336)"/></g></g><g class="d" transform="translate(390.584 98.451)"><g transform="translate(32.2 54.405)"><path class="c" d="M-1181.974,5717.232c-24.711-47.709-50.626-106.942-61.757-162.549a.572.572,0,0,0-.673-.449.574.574,0,0,0-.449.674c11.114,55.523,36.924,114.631,61.591,162.324Z" transform="translate(1244.864 -5554.223)"/></g><path class="c" d="M-1293.342,5562.118c4.942,3.17,9.869,6.385,15.065,9.131,2.723,1.437,5.51,2.648,8.358,3.815.818.335,3.253.9,4.857,1.5a8.169,8.169,0,0,1,.795.335.278.278,0,0,1,.057.028,1.519,1.519,0,0,1,.584.425q-.384-.584-.782-1.169c-.028-.04-.054-.082-.083-.118-.161-.242-.326-.479-.493-.717a98.706,98.706,0,0,0-24.227-24.282q-1.768-1.207-3.56-2.288a7.934,7.934,0,0,0-5.768-1.168,4.8,4.8,0,0,0-.886.3,5.259,5.259,0,0,0-.852.465,4.5,4.5,0,0,0-2.079,3.374C-1302.6,5555.846-1296.325,5560.2-1293.342,5562.118Z" transform="translate(1302.363 -5496.837)"/><path class="c" d="M-1284.148,5615.167c5.4,2.31,10.787,4.665,16.367,6.512,2.924.969,5.872,1.7,8.873,2.385.891.2,3.515.362,5.193.7l.022,0a3.208,3.208,0,0,1,1.338.477.167.167,0,0,1,.026.025.273.273,0,0,0-.03-.032c-.277-.3-.56-.6-.844-.9-.312-.323-.624-.646-.941-.967a.3.3,0,0,0-.034-.034c-.142-.145-.285-.29-.431-.436a98.629,98.629,0,0,0-27.3-19.322q-1.941-.9-3.888-1.669a8.175,8.175,0,0,0-5.455-.355c-.145.045-.285.1-.426.156a4.921,4.921,0,0,0-.563.277,4.759,4.759,0,0,0-2.519,4.433C-1294.32,5610.513-1287.408,5613.77-1284.148,5615.167Z" transform="translate(1299.025 -5520.503)"/><path class="c" d="M-1263.573,5668.32c5.141,2.2,10.278,4.445,15.59,6.207,2.788.922,5.6,1.624,8.455,2.271.941.214,3.912.377,5.434.778.059.015.1.029.148.041a2.485,2.485,0,0,1,.5.193.688.688,0,0,1,.194.14c-.048-.053-.1-.1-.145-.156-.328-.354-.665-.706-1.006-1.059a.053.053,0,0,0-.016-.017q-1.262-1.307-2.609-2.592a93.6,93.6,0,0,0-24.4-16.844q-1.855-.859-3.707-1.59a7.552,7.552,0,0,0-5.6-.189,4.938,4.938,0,0,0-.9.493,5.06,5.06,0,0,0-.8.678,4.214,4.214,0,0,0-1.241,3.316C-1273.264,5663.887-1266.68,5666.991-1263.573,5668.32Z" transform="translate(1289.752 -5544.181)"/><path class="c" d="M-1238.27,5710.737c4.44,1.9,8.874,3.838,13.461,5.358,2.407.8,4.832,1.4,7.3,1.961.608.137,2.205.255,3.519.449.105.015.2.032.3.046.011,0,.024,0,.036.007a6.867,6.867,0,0,1,1.113.256,1.564,1.564,0,0,1,.245.1.311.311,0,0,1,.042.023.578.578,0,0,1,.163.118l-.2-.219c-.017-.02-.038-.041-.058-.06-.058-.066-.118-.129-.181-.192-.116-.126-.233-.248-.354-.372-.515-.539-1.045-1.077-1.588-1.608a.639.639,0,0,0-.054-.052,80.922,80.922,0,0,0-21.89-15.344q-1.6-.741-3.2-1.371a6.526,6.526,0,0,0-4.838-.166,4.375,4.375,0,0,0-2.089,1.854,3.943,3.943,0,0,0-.334.792,3.244,3.244,0,0,0-.11,1.229C-1246.634,5706.909-1240.951,5709.59-1238.27,5710.737Z" transform="translate(1278.008 -5563.642)"/><path class="c" d="M-1220.178,5751.77c4.441,1.9,8.874,3.838,13.464,5.359,2.4.8,4.828,1.4,7.3,1.96.653.148,2.439.268,3.8.488a.433.433,0,0,0,.058.011c.032.006.063.008.093.016a6.193,6.193,0,0,1,1.12.275,1.163,1.163,0,0,1,.16.074.317.317,0,0,1,.069.038.476.476,0,0,1,.122.094c-.052-.054-.1-.111-.155-.163a1.119,1.119,0,0,0-.1-.1.447.447,0,0,0-.059-.062c-.421-.453-.854-.9-1.3-1.348q-.446-.453-.906-.9c-.03-.033-.062-.061-.095-.093a81.021,81.021,0,0,0-21.722-15.174c-1.065-.493-2.133-.951-3.2-1.372a6.524,6.524,0,0,0-4.836-.164.808.808,0,0,0-.076.034,4.137,4.137,0,0,0-.89.527,3.8,3.8,0,0,0-1.57,3.313C-1228.543,5747.942-1222.858,5750.621-1220.178,5751.77Z" transform="translate(1270.047 -5581.697)"/><path class="c" d="M-1196.711,5791.761c3.88,1.66,7.754,3.353,11.763,4.68,2.1.7,4.222,1.225,6.38,1.714.623.141,2.429.254,3.636.486.028,0,.054.01.079.016.072.014.138.027.2.043a2.768,2.768,0,0,1,.657.217.527.527,0,0,1,.151.107l-.114-.124c-.51-.548-1.038-1.094-1.579-1.632-.046-.043-.09-.088-.135-.132-.067-.071-.139-.14-.212-.208a70.838,70.838,0,0,0-19.218-13.5q-1.4-.647-2.8-1.2a5.7,5.7,0,0,0-4.225-.143,3.859,3.859,0,0,0-.58.306,3.819,3.819,0,0,0-.739.622,3.173,3.173,0,0,0-.9,2.458C-1204.021,5788.415-1199.054,5790.756-1196.711,5791.761Z" transform="translate(1259.237 -5599.928)"/><path class="c" d="M-1180.669,5822.811c3.88,1.66,7.754,3.352,11.763,4.681,2.1.7,4.222,1.225,6.381,1.714.576.131,2.17.236,3.363.437.031,0,.06.009.093.015a2.735,2.735,0,0,1,1.273.417q-.255-.278-.518-.551-.836-.882-1.725-1.75l-.162-.157a70.754,70.754,0,0,0-18.856-13.135q-1.4-.647-2.794-1.2a5.705,5.705,0,0,0-4.228-.141,3.826,3.826,0,0,0-.929.557,3.794,3.794,0,0,0-.651.688,3.07,3.07,0,0,0-.633,2.139C-1187.979,5819.464-1183.012,5821.806-1180.669,5822.811Z" transform="translate(1252.179 -5613.59)"/><path class="c" d="M-1274.277,5490.193c.262.473.53.947.8,1.417q3.658,6.271,7.313,12.548c.948,1.625,3.533,5.066,5.247,7.973.07.119.135.236.2.35a9.64,9.64,0,0,1,1.406,3.444c-.063-.848-.127-1.7-.187-2.541-.012-.211-.029-.419-.042-.626-.88-12.6-1.385-24.911-3.531-37.655-.687-4.078-1.557-8.311-3.75-11.974s-6.055-6.588-9.377-5.974a4.806,4.806,0,0,0-1.076.331,4.735,4.735,0,0,0-.75.413c-2.827,1.917-3.66,6.806-3.236,11.218A53.982,53.982,0,0,0-1274.277,5490.193Z" transform="translate(1293.12 -5457.071)"/><path class="c" d="M-1235.341,5552.838a15.12,15.12,0,0,1-.2-2.43l0-.242a20.512,20.512,0,0,1,.147-2.181c.806-6.792,4.8-14.327,7.359-19.848a47.783,47.783,0,0,0,4.917-19.155c.173-2.538.205-5.238-1.075-7.436a5.583,5.583,0,0,0-4.272-2.716,3.872,3.872,0,0,0-.887.045,3.484,3.484,0,0,0-1.307.506c-1.6,1.04-2.1,3.117-2.449,5-2.485,13.422-4.52,27.8-3.192,41.6.064.692.141,1.381.223,2.071.018.162.04.325.062.486Q-1235.74,5550.7-1235.341,5552.838Z" transform="translate(1273.481 -5475.442)"/><path class="c" d="M-1223.771,5589.018c0,.391.009.783.02,1.173,0-.333.01-.667.032-1,0-.023,0-.05.006-.074a19.834,19.834,0,0,1,1.161-5.21c2.169-6.1,6.815-12.262,9.964-16.927a47.79,47.79,0,0,0,7.919-18.12c.578-2.479,1.038-5.137.128-7.51a5.721,5.721,0,0,0-2.512-2.871,4.577,4.577,0,0,0-.842-.375,3.674,3.674,0,0,0-2.682.073c-1.747.77-2.574,2.739-3.22,4.537-4.8,13.4-9.275,27.914-9.9,42.326-.058,1.3-.082,2.594-.074,3.887C-1223.773,5588.954-1223.773,5588.986-1223.771,5589.018Z" transform="translate(1267.784 -5492.629)"/><path class="c" d="M-1223.732,5631.428c0-.048,0-.093,0-.138C-1223.736,5631.336-1223.735,5631.381-1223.732,5631.428Z" transform="translate(1267.767 -5533.728)"/><path class="c" d="M-1210.011,5634.292a14.914,14.914,0,0,1,.172-2.292c1.093-7.32,7.154-15.239,10.991-20.923a47.837,47.837,0,0,0,7.921-18.121c.576-2.478,1.038-5.138.126-7.509a5.732,5.732,0,0,0-2.621-2.935,4.8,4.8,0,0,0-.677-.3,3.7,3.7,0,0,0-2.736.059c-1.749.771-2.576,2.741-3.22,4.537-4.479,12.518-8.684,26.005-9.729,39.474-.133,1.732-.217,3.46-.24,5.185,0,.229-.006.444-.006.658C-1210.035,5632.848-1210.029,5633.571-1210.011,5634.292Z" transform="translate(1261.738 -5512.032)"/><path class="c" d="M-1195.056,5683.914a11.473,11.473,0,0,1,.2-2.123c0-.011,0-.022.006-.032.988-5.338,5.35-11.05,8.14-15.182a35.723,35.723,0,0,0,5.921-13.547,9.635,9.635,0,0,0,.095-5.61,4.272,4.272,0,0,0-2.145-2.288,3.338,3.338,0,0,0-.823-.258,2.626,2.626,0,0,0-1.542.174c-1.309.575-1.927,2.047-2.408,3.391-3.407,9.521-6.6,19.795-7.314,30.042q-.1,1.389-.127,2.772a.111.111,0,0,0,0,.043c-.006.074-.006.146-.006.22C-1195.079,5682.316-1195.078,5683.114-1195.056,5683.914Z" transform="translate(1255.156 -5539.685)"/><path class="c" d="M-1180.588,5718.118c0-.16.007-.321.012-.483a11.834,11.834,0,0,1,.153-1.409c0-.021.006-.042.01-.061a19.07,19.07,0,0,1,1.578-4.771c1.794-3.86,4.6-7.623,6.592-10.583a35.686,35.686,0,0,0,5.919-13.545,9.644,9.644,0,0,0,.1-5.612,4.145,4.145,0,0,0-2.941-2.538,2.81,2.81,0,0,0-.86-.031,2.611,2.611,0,0,0-.712.2c-1.306.574-1.925,2.046-2.406,3.393-3.7,10.335-7.15,21.56-7.435,32.673-.006.137-.01.275-.01.408a.364.364,0,0,0,0,.078c-.015.6-.015,1.194,0,1.792C-1180.6,5717.792-1180.594,5717.956-1180.588,5718.118Z" transform="translate(1248.789 -5554.75)"/><path class="c" d="M-1162.72,5764.421a.348.348,0,0,1,0-.065c0-.269.014-.54.04-.813a10.031,10.031,0,0,1,.2-1.248c.006-.026.011-.051.02-.079a13.606,13.606,0,0,1,.422-1.464c1.287-3.7,4.117-7.459,6.029-10.289a28.773,28.773,0,0,0,4.762-10.895,7.772,7.772,0,0,0,.076-4.514c-.547-1.427-2.229-2.524-3.629-1.907-.037.017-.07.034-.105.053a3,3,0,0,0-1.249,1.319,9.216,9.216,0,0,0-.58,1.357,109.311,109.311,0,0,0-5.232,18.723,55.659,55.659,0,0,0-.735,7.1c0,.034,0,.07,0,.106-.02.559-.029,1.119-.024,1.677,0,.29,0,.574.009.861A.625.625,0,0,0-1162.72,5764.421Z" transform="translate(1240.926 -5578.468)"/><path class="c" d="M-1142.8,5807.444a6.977,6.977,0,0,1,.015-.715c0-.041.008-.082.013-.12.326-3.542,3.328-7.447,5.2-10.223a22.42,22.42,0,0,0,3.711-8.491,6.067,6.067,0,0,0,.061-3.522,2.556,2.556,0,0,0-2.068-1.619,1.639,1.639,0,0,0-.762.134,1.83,1.83,0,0,0-.414.257,4.186,4.186,0,0,0-1.095,1.868c-1.1,3.085-2.172,6.294-3.007,9.563a.145.145,0,0,0-.013.049,49.671,49.671,0,0,0-1.64,10.743c-.011.386-.015.774-.014,1.159,0,.05,0,.1,0,.146C-1142.813,5806.931-1142.809,5807.188-1142.8,5807.444Z" transform="translate(1232.162 -5600.37)"/><path class="c" d="M-1122.19,5835.958c.308-.449.606-.875.873-1.272a17.474,17.474,0,0,0,2.892-6.623,4.719,4.719,0,0,0,.048-2.744,2.073,2.073,0,0,0-.664-.878,1.771,1.771,0,0,0-.828-.373,1.3,1.3,0,0,0-.713.093,2.619,2.619,0,0,0-1.175,1.658,71.1,71.1,0,0,0-2.95,10.139Z" transform="translate(1224.195 -5618.543)"/><g transform="translate(2.086 0.413)"><g transform="translate(30.311 54.535)"><path class="c" d="M-1181.9,5717.659c-24.626-47.615-50.387-106.609-61.476-162.006a.573.573,0,0,0-.674-.449.573.573,0,0,0-.449.674c11.072,55.313,36.728,114.183,61.31,161.781Z" transform="translate(1244.511 -5555.193)"/></g><g transform="translate(13.017)"><path class="c" d="M-1257.158,5512.652l-.024-.191c-.013-.123-.027-.245-.042-.37a148.709,148.709,0,0,0-7.318-31.616,134.6,134.6,0,0,0-10.1-22.666,4.74,4.74,0,0,0-.75.413,133.446,133.446,0,0,1,10.189,22.947,148.846,148.846,0,0,1,7.1,30.778c.03.227.054.454.082.683l.025.21C-1257.932,5513.39-1257.095,5513.2-1257.158,5512.652Z" transform="translate(1275.393 -5457.809)"/></g><g transform="translate(0 50.652)"><path class="c" d="M-1298.638,5548.724c1.049.666,2.091,1.347,3.134,2.013,4.03,2.572,8.042,5.174,11.934,7.95a113.454,113.454,0,0,1,20.148,18.23c.347.4.691.809,1.032,1.217.025.029.049.055.071.085.086.1.168.2.251.3.352.428.975-.167.623-.589q-.686-.831-1.391-1.646c-.025-.029-.049-.055-.074-.084-.144-.166-.29-.335-.436-.5a114.8,114.8,0,0,0-19.776-17.747c-4.038-2.88-8.207-5.572-12.387-8.24-.758-.484-1.515-.973-2.278-1.454A5.223,5.223,0,0,0-1298.638,5548.724Z" transform="translate(1298.638 -5548.259)"/></g><g transform="translate(4.703 80.638)"><path class="c" d="M-1290.24,5602.239c4.335,1.972,8.5,4.487,12.682,6.471a94.6,94.6,0,0,1,12.736,7.136c4.348,2.951,8.675,5.929,13.013,8.9a.074.074,0,0,1,.02.013.389.389,0,0,0,.583-.165.425.425,0,0,0-.134-.568q-.437-.3-.87-.6a.209.209,0,0,1-.03-.02c-.125-.083-.249-.169-.372-.252-4.065-2.784-8.12-5.581-12.2-8.339a101.266,101.266,0,0,0-13.25-7.29c-3.719-1.772-7.391-3.926-11.187-5.719-.145.045-.285.1-.426.156A5.185,5.185,0,0,0-1290.24,5602.239Z" transform="translate(1290.24 -5601.806)"/></g><g transform="translate(15.226 111.402)"><path class="c" d="M-1271.448,5657.419a67.488,67.488,0,0,1,12.677,5.386c4.506,2.316,9.012,4.645,13.4,7.186,2.15,1.246,4.273,2.543,6.347,3.913a42.313,42.313,0,0,1,5.863,4.257.071.071,0,0,1,.016.018c.068.061.13.122.193.186.03.026.059.056.087.083a.4.4,0,0,0,.409.11.181.181,0,0,0,.049-.017.416.416,0,0,0,.166-.686,17.97,17.97,0,0,0-1.548-1.364c-.729-.574-1.487-1.1-2.249-1.619-.553-.373-1.109-.741-1.651-1.107-2.132-1.442-4.32-2.8-6.54-4.1-4.45-2.608-9.03-4.988-13.616-7.345a70.624,70.624,0,0,0-12.8-5.574A4.99,4.99,0,0,0-1271.448,5657.419Z" transform="translate(1271.448 -5656.741)"/></g><g transform="translate(29.039 137.469)"><path class="c" d="M-1246.783,5704.081c11.408,4.478,22.7,9.3,32.894,16.189.135.088.262.175.389.266a.172.172,0,0,1,.046.031c.133.085.262.175.391.265a.4.4,0,0,0,.62-.253.414.414,0,0,0,.007-.23.409.409,0,0,0-.175-.25c-.06-.04-.119-.083-.179-.123-.422-.291-.848-.579-1.274-.861a.49.49,0,0,0-.044-.028c-10.047-6.67-21.144-11.4-32.341-15.8A3.935,3.935,0,0,0-1246.783,5704.081Z" transform="translate(1246.783 -5703.29)"/></g><g transform="translate(40.63 158.628)"><path class="c" d="M-1226.084,5741.6c4.745,2.145,9.393,4.569,13.973,6.963a113.4,113.4,0,0,1,17.671,11.2.822.822,0,0,1,.082.063c.048.036.093.07.136.109.186.143.367.287.549.434a.356.356,0,0,0,.571-.159.4.4,0,0,0,.038-.124.143.143,0,0,0,.009-.05.382.382,0,0,0-.006-.12.39.39,0,0,0-.1-.217.542.542,0,0,0-.063-.063.3.3,0,0,0-.023-.02c-.369-.3-.739-.589-1.114-.878-.251-.2-.507-.392-.762-.583a.635.635,0,0,0-.081-.061,117.039,117.039,0,0,0-16.928-10.511c-4.289-2.227-8.632-4.486-13.062-6.514A4.156,4.156,0,0,0-1226.084,5741.6Z" transform="translate(1226.084 -5741.074)"/></g><g transform="translate(53.713 182.054)"><path class="c" d="M-1202.721,5783.527c9.976,4.093,19.262,9.775,28.426,15.457l.1.062.263.165.29.179a.391.391,0,0,0,.367.038.212.212,0,0,0,.034-.015.471.471,0,0,0,.242-.379.371.371,0,0,0-.177-.363l-1.732-1.074-.1-.062-.159-.1c-8.648-5.354-17.432-10.631-26.819-14.533A3.821,3.821,0,0,0-1202.721,5783.527Z" transform="translate(1202.721 -5782.905)"/></g><g transform="translate(62.433 199.694)"><path class="c" d="M-1187.15,5815.094a78.276,78.276,0,0,1,11.085,4.469c5.914,3.01,11.492,6.751,17.134,10.249a1.439,1.439,0,0,0,.125.075c.186.119.375.235.563.352a.377.377,0,0,0,.438-.007.464.464,0,0,0,.206-.331.341.341,0,0,0-.032-.219.124.124,0,0,0-.022-.041.4.4,0,0,0-.141-.136c-.6-.37-1.191-.736-1.777-1.1-.039-.025-.078-.049-.121-.075-5.377-3.372-10.725-6.913-16.4-9.731a80.465,80.465,0,0,0-10.411-4.189A3.79,3.79,0,0,0-1187.15,5815.094Z" transform="translate(1187.15 -5814.406)"/></g><g transform="translate(98.044 205.111)"><path class="c" d="M-1122.641,5835.969c.62-1.476,1.279-2.937,1.9-4.416a36.085,36.085,0,0,0,1.887-5.564c.046-.193.158-.791.321-1.537a1.766,1.766,0,0,0-.828-.372,44.542,44.542,0,0,1-1.337,5.031c-.851,2.329-1.9,4.576-2.857,6.858Z" transform="translate(1123.559 -5824.079)"/></g><g transform="translate(86.206 181.967)"><path class="c" d="M-1144.544,5807.276a.46.46,0,0,0,.706-.325c.02-.176.041-.355.067-.531a.712.712,0,0,1,.015-.118c.038-.312.079-.623.127-.935a97.946,97.946,0,0,1,3.147-12.867,48.677,48.677,0,0,1,3.784-9.747,1.64,1.64,0,0,0-.762.134,1.83,1.83,0,0,0-.414.257,51.5,51.5,0,0,0-3.429,9.105q-.339,1.16-.673,2.325a.142.142,0,0,0-.013.049,84.457,84.457,0,0,0-2.441,10.337,1.021,1.021,0,0,0-.016.109q-.144.924-.249,1.849a.182.182,0,0,0,0,.051A.342.342,0,0,0-1144.544,5807.276Z" transform="translate(1144.699 -5782.75)"/></g><g transform="translate(75.949 154.32)"><path class="c" d="M-1162.856,5763.666a.14.14,0,0,0,.053.056.467.467,0,0,0,.683-.215.693.693,0,0,0,.022-.067.568.568,0,0,0,.009-.154,19.27,19.27,0,0,1-.076-2.354c.148-5.99,2.83-11.7,4.435-17.4.946-3.362,1.735-6.784,2.7-10.148a3,3,0,0,0-1.249,1.318c-.82,3.01-1.545,6.053-2.4,9.048-1.053,3.673-2.488,7.313-3.41,11.032a28.279,28.279,0,0,0-.922,6.7c0,.038,0,.077,0,.116,0,.623.029,1.247.09,1.876A.346.346,0,0,0-1162.856,5763.666Z" transform="translate(1163.015 -5733.381)"/></g><g transform="translate(65.73 123.905)"><path class="c" d="M-1180.886,5717.629a.365.365,0,0,0,.456-.288l.068-.305a.5.5,0,0,1,.012-.056q.614-2.79,1.224-5.584.971-4.435,1.95-8.874a64.228,64.228,0,0,1,1.771-6.749c.785-2.329,1.9-4.515,2.906-6.754a54.81,54.81,0,0,0,3.04-9.9,2.811,2.811,0,0,0-.86-.031,56.188,56.188,0,0,1-2.152,7.669c-.957,2.486-2.261,4.826-3.228,7.312a49.244,49.244,0,0,0-2.015,6.941c-1.091,4.77-2.115,9.563-3.158,14.342-.021.1-.039.19-.063.284a.287.287,0,0,1-.012.058q-.152.7-.3,1.4A.448.448,0,0,0-1180.886,5717.629Z" transform="translate(1181.263 -5679.067)"/></g><g transform="translate(57.426 104.776)"><path class="c" d="M-1195.51,5681.551a.21.21,0,0,0,.077-.038.383.383,0,0,0,.179-.242q3.419-12.476,7.714-24.686,2.029-5.744,4.248-11.418a3.338,3.338,0,0,0-.823-.258q-1.433,3.669-2.789,7.369-4.737,12.951-8.475,26.238-.257.905-.509,1.819c0,.008,0,.018-.006.026q-.091.331-.182.661A.442.442,0,0,0-1195.51,5681.551Z" transform="translate(1196.092 -5644.909)"/></g><g transform="translate(48.903 69.77)"><path class="c" d="M-1210.594,5632.311a.406.406,0,0,0,.138-.275c.436-5.354,2.533-10.367,4.227-15.39,1.767-5.242,2.931-10.654,4.823-15.861,2.216-6.114,4.774-12.124,7.419-18.09a4.745,4.745,0,0,0-.677-.3q-.532,1.219-1.06,2.434c-2.33,5.36-4.722,10.708-6.69,16.211-1.921,5.379-3.088,10.978-4.986,16.357-1.052,2.978-2.166,5.989-2.95,9.067a36.829,36.829,0,0,0-.757,3.729c-.087.6-.157,1.2-.2,1.793A.424.424,0,0,0-1210.594,5632.311Z" transform="translate(1211.312 -5582.398)"/></g><g transform="translate(35.093 22.968)"><path class="c" d="M-1235,5552.912a.345.345,0,0,0,.143-.326c-.019-.34-.04-.676-.055-1.015-.008-.094-.013-.188-.018-.283-.06-1.1-.11-2.206-.14-3.3a44.2,44.2,0,0,1,.622-9.538c.413-2.157,1.056-4.259,1.523-6.405.492-2.264.8-4.564,1.125-6.858q1.04-7.426,2.065-14.853c.528-3.831,1.109-7.66,1.6-11.5a3.873,3.873,0,0,0-.887.045c-1.282,9.579-2.566,19.166-3.981,28.728-.651,4.4-2.085,8.639-2.661,13.049a39.943,39.943,0,0,0-.307,5.322c0,.406,0,.813.013,1.223,0,.1,0,.192.009.29.038,1.689.141,3.376.237,5.063A.469.469,0,0,0-1235,5552.912Z" transform="translate(1235.972 -5498.823)"/></g><g transform="translate(41.223 45.06)"><path class="c" d="M-1224.3,5590.5a.374.374,0,0,0,.134-.308c0-.159,0-.319,0-.479,0-.029,0-.057,0-.086a22.987,22.987,0,0,1,1.056-5.553c.441-1.478.942-2.926,1.36-4.3,2.9-9.507,6.311-18.86,9.71-28.2,1.112-3.053,2.257-6.093,3.327-9.162a38.857,38.857,0,0,0,1.1-3.771,4.579,4.579,0,0,0-.842-.375,43.279,43.279,0,0,1-1.411,4.827c-2.926,8.164-5.96,16.283-8.785,24.479-1.593,4.619-3.152,9.253-4.521,13.945-.345,1.183-.745,2.421-1.086,3.684-.214.786-.4,1.574-.539,2.364,0,.022-.009.044-.011.063a14.2,14.2,0,0,0-.225,2.521A.453.453,0,0,0-1224.3,5590.5Z" transform="translate(1225.025 -5538.273)"/></g></g></g><g class="d" transform="translate(67.323 254.072)"><g transform="translate(57.814 38.545)"><path class="c" d="M-1744.318,5827.044h2.535c-11.656-7.372-22.9-15.074-33.5-23.11a.68.68,0,0,0-.952.131.68.68,0,0,0,.131.951C-1766.018,5812.66-1755.36,5820-1744.318,5827.044Z" transform="translate(1776.375 -5803.796)"/></g><path class="c" d="M-1785.844,5838.576c1.667-.521,3.322-1.079,4.981-1.658.991-.346,3.6-1.756,5.491-2.493a9.9,9.9,0,0,1,.97-.327.315.315,0,0,1,.072-.021,1.827,1.827,0,0,1,.853-.082c-.533-.144-1.071-.286-1.615-.422-.056-.014-.112-.031-.166-.04-.333-.088-.666-.168-1-.25a117.168,117.168,0,0,0-40.628-2.509q-2.521.319-4.963.768a9.419,9.419,0,0,0-6.043,3.5,5.675,5.675,0,0,0-.553.962,6.238,6.238,0,0,0-.391,1.082,6.2,6.2,0,0,0-.191,1.489Z" transform="translate(1857.357 -5776.783)"/><path class="c" d="M-1850.692,5765.733q.907.321,1.829.625,8.184,2.693,16.369,5.394c2.121.7,7.125,1.72,10.935,2.955.155.05.306.1.455.151a11.467,11.467,0,0,1,3.959,1.952q-1.086-1.055-2.166-2.108c-.177-.178-.356-.35-.53-.523-10.7-10.5-20.83-21.04-32.765-30.673-3.819-3.082-7.922-6.157-12.752-7.688s-10.563-1.087-13.03,2.072a5.624,5.624,0,0,0-.695,1.14,5.617,5.617,0,0,0-.341.957c-1,3.928,2.1,8.926,5.952,12.512C-1866.99,5758.54-1859.219,5762.725-1850.692,5765.733Z" transform="translate(1879.615 -5734.966)"/><path class="c" d="M-1765.057,5790.091a17.984,17.984,0,0,1-2.089-2l-.193-.213a24.343,24.343,0,0,1-1.585-2.053c-4.627-6.669-7-16.508-9.079-23.424a56.7,56.7,0,0,0-10.7-20.886c-1.843-2.391-3.939-4.815-6.805-5.76a6.624,6.624,0,0,0-5.932.948,4.572,4.572,0,0,0-.753.739,4.131,4.131,0,0,0-.763,1.477c-.605,2.185.585,4.423,1.754,6.366,8.354,13.879,17.859,28.255,29.893,39.465.6.564,1.211,1.117,1.827,1.664.144.13.292.257.437.384Q-1767.095,5788.506-1765.057,5790.091Z" transform="translate(1845.958 -5735.174)"/><path class="c" d="M-1726.17,5803.8h1.58c-.017-.043-.037-.084-.055-.126-2.87-7.125-3.594-16.256-4.466-22.877a56.721,56.721,0,0,0-7.222-22.328c-1.436-2.657-3.12-5.38-5.795-6.772a6.793,6.793,0,0,0-4.49-.574,5.407,5.407,0,0,0-1.043.33,4.362,4.362,0,0,0-2.327,2.175c-.945,2.058-.131,4.458.71,6.564C-1743.271,5775.181-1736.2,5790.835-1726.17,5803.8Z" transform="translate(1822.765 -5742.009)"/><path class="c" d="M-1689.593,5816.281h8.274c-.333-2.534-.6-4.96-.888-7.116a56.761,56.761,0,0,0-7.22-22.331c-1.438-2.654-3.12-5.38-5.8-6.77a6.8,6.8,0,0,0-4.638-.545,5.617,5.617,0,0,0-.836.269,4.385,4.385,0,0,0-2.384,2.2c-.947,2.062-.132,4.461.709,6.564A247.926,247.926,0,0,0-1689.593,5816.281Z" transform="translate(1802.127 -5754.488)"/><path class="c" d="M-1644.247,5838.2h10.541c-.509-1.095-1.082-2.228-1.738-3.441-1.072-1.982-2.328-4.021-4.331-5.059a5.063,5.063,0,0,0-3.7-.345,3.968,3.968,0,0,0-.934.418,3.122,3.122,0,0,0-1.233,1.368c-.71,1.54-.1,3.335.529,4.906Q-1644.688,5837.125-1644.247,5838.2Z" transform="translate(1776.809 -5776.41)"/><g transform="translate(0.19 1.529)"><g transform="translate(58.227 37.343)"><path class="c" d="M-1743.754,5827.3h2.531c-11.471-7.273-22.536-14.866-32.986-22.784a.68.68,0,0,0-.951.131.681.681,0,0,0,.131.952C-1765.1,5813.126-1754.613,5820.358-1743.754,5827.3Z" transform="translate(1775.298 -5804.38)"/></g><g transform="translate(0 2.534)"><path class="c" d="M-1820.25,5777.184l-.172-.151-.328-.3a176.412,176.412,0,0,0-31.377-22.328,159.694,159.694,0,0,0-26.807-12.189,5.6,5.6,0,0,0-.341.957,158.375,158.375,0,0,1,27.106,12.368,176.678,176.678,0,0,1,30.524,21.755c.206.179.406.361.61.542.063.057.125.111.188.168C-1820.357,5778.449-1819.766,5777.618-1820.25,5777.184Z" transform="translate(1879.275 -5742.22)"/></g><g transform="translate(28.329 53.953)"><path class="c" d="M-1828.687,5838.863c1.457-.234,2.917-.448,4.367-.678,5.6-.885,11.216-1.73,16.857-2.327a134.652,134.652,0,0,1,32.241.342q.938.126,1.875.27c.045.005.086.01.13.019l.46.069c.65.1.735-.915.091-1.013-.842-.132-1.685-.253-2.53-.368l-.132-.016c-.259-.035-.521-.071-.781-.1a136.25,136.25,0,0,0-31.531-.205c-5.853.619-11.676,1.506-17.488,2.426-1.054.166-2.111.328-3.168.5A6.174,6.174,0,0,0-1828.687,5838.863Z" transform="translate(1828.687 -5834.041)"/></g><g transform="translate(132.205 51.42)"><path class="c" d="M-1638.889,5838.362c-1.153-2.937-2.285-5.881-3.371-8.844a3.984,3.984,0,0,0-.934.417q1.555,4.229,3.2,8.427Z" transform="translate(1643.194 -5829.518)"/></g><g transform="translate(101.24 23.502)"><path class="c" d="M-1690.7,5802.594c1.9,4.725,4.269,9.226,6.412,13.833h1.128c-2.276-4.955-4.84-9.771-6.849-14.854-2.841-7.175-5.3-14.526-7.642-21.908a5.671,5.671,0,0,0-.836.269q.486,1.5.974,3C-1695.368,5789.524-1693.285,5796.156-1690.7,5802.594Z" transform="translate(1698.489 -5779.664)"/></g><g transform="translate(43.572)"><path class="c" d="M-1764.259,5791.14a.411.411,0,0,0-.129-.4c-.284-.287-.567-.569-.848-.858-.08-.077-.159-.157-.238-.237-.921-.933-1.833-1.873-2.723-2.823a52.5,52.5,0,0,1-6.952-8.963c-1.33-2.241-2.412-4.613-3.687-6.888-1.345-2.4-2.879-4.685-4.4-6.977q-4.919-7.414-9.851-14.82c-2.545-3.818-5.042-7.678-7.632-11.473a4.577,4.577,0,0,0-.753.739c6.4,9.519,12.8,19.045,19.066,28.652,2.885,4.423,4.944,9.315,7.9,13.687a47.546,47.546,0,0,0,3.915,4.969c.319.361.641.721.973,1.076.078.083.155.169.236.25,1.363,1.47,2.781,2.889,4.195,4.313A.556.556,0,0,0-1764.259,5791.14Z" transform="translate(1801.468 -5737.696)"/></g><g transform="translate(74.915 7.587)"><path class="c" d="M-1731.5,5785.631c2.219,5.356,4.481,10.7,6.955,15.946.358.758.716,1.548,1.085,2.345h1.036c-.02-.042-.042-.084-.062-.126-.771-1.66-1.465-3.341-2.173-4.887-4.906-10.725-9.233-21.721-13.559-32.69-1.413-3.586-2.789-7.188-4.253-10.757a46.354,46.354,0,0,0-1.988-4.217,5.439,5.439,0,0,0-1.043.33,51.625,51.625,0,0,1,2.545,5.4C-1739.131,5766.527-1735.438,5776.127-1731.5,5785.631Z" transform="translate(1745.499 -5751.244)"/></g></g></g><g class="d" transform="translate(308.553 125.59)"><path class="c" d="M-1411.494,5588.278a.79.79,0,0,1-.572-.144,89.308,89.308,0,0,1-16.039-15.088c-.136-.164-.271-.328-.4-.493a.782.782,0,0,1,.245-1.188l4.706-2.446a.781.781,0,0,0-.568-1.446l-6.337,1.747a.785.785,0,0,1-.842-.292,91.249,91.249,0,0,1-13.376-26.688.782.782,0,0,1,.558-.989c4.12-1.031,8.65-2.238,11.379-2.974a.781.781,0,0,0,.04-1.5l-14.1-4.678a.788.788,0,0,1-.525-.6,89.854,89.854,0,0,1-1.076-25.26.787.787,0,0,1,.861-.7,89.043,89.043,0,0,1,11.841,2.035.789.789,0,0,1,.532.443l2.5,5.578a.781.781,0,0,0,1.493-.276l.189-3.454a.783.783,0,0,1,1.012-.706,92.782,92.782,0,0,1,31.6,17.172.786.786,0,0,1,.261.783l-2.95,12.592a.781.781,0,0,0,1.427.586l5.459-8.924a.783.783,0,0,1,1.214-.154q2.319,2.273,4.468,4.71a91.373,91.373,0,0,1,18.1,31.813c2.972,9.052,5.491,19.988,4.9,29.612-.624,10.211-8.426,7.54-16.224,5.419a92.487,92.487,0,0,1-25.195-11.129.782.782,0,0,1,.183-1.41c2.062-.631,4.181-1.276,6.169-1.878a.781.781,0,0,0-.333-1.521Z" transform="translate(1448.846 -5505.534)"/><path class="b" d="M-1428.1,5573.174q-.2-.234-.388-.473a.8.8,0,0,1,.252-1.221l4.5-2.337a.8.8,0,0,0-.583-1.487l-6.122,1.688a.808.808,0,0,1-.866-.3,91.246,91.246,0,0,1-13.36-26.654.8.8,0,0,1,.575-1.018c4.078-1.02,8.554-2.212,11.284-2.948a.8.8,0,0,0,.042-1.537l-14.018-4.651a.81.81,0,0,1-.541-.62,90.047,90.047,0,0,1-1.2-23.9c.088-1.871.19-2.81,2.01-.646l80.25,93.037a.816.816,0,0,1,.147.8c-2.091,6.074-8.85,3.824-15.606,1.987a92.487,92.487,0,0,1-25.154-11.1.8.8,0,0,1,.188-1.45c1.957-.6,3.963-1.209,5.859-1.784a.8.8,0,0,0-.343-1.564l-10.3,1.409a.813.813,0,0,1-.588-.149A89.274,89.274,0,0,1-1428.1,5573.174Z" transform="translate(1448.846 -5505.663)"/></g></g></svg>