<svg xmlns="http://www.w3.org/2000/svg" width="444.473" height="250.352" viewBox="0 0 444.473 250.352"><defs><style>.a{opacity:0.3;}.b,.c{fill:#e5bbbb;}.b,.d{opacity:0.59;}</style></defs><g class="a"><g transform="translate(88.94)"><path class="b" d="M-3147.8,4221.81a1.423,1.423,0,0,0-.968-.8l-10.75-2.548a1.412,1.412,0,0,1-.014-2.745l6.069-1.506a1.416,1.416,0,0,0,.912-2.036,167.907,167.907,0,0,0-35.381-45.275h-19.013l-9.634,4.285a1.412,1.412,0,0,1-1.523-2.335l2.146-1.95h-114.571a167.644,167.644,0,0,0,23.7,32.255,1.413,1.413,0,0,0,2.442-.8c.425-3.876.851-7.857,1.248-11.592a1.412,1.412,0,0,1,2.814.076l1.014,19.293a1.423,1.423,0,0,0,.451.966,161.457,161.457,0,0,0,32.22,23.375q.505.278,1.014.551a1.414,1.414,0,0,0,2.026-.838l2.75-9.184a1.412,1.412,0,0,1,2.76.519l-.957,11.844a1.421,1.421,0,0,0,.8,1.4,164.946,164.946,0,0,0,51.919,14.718,1.414,1.414,0,0,0,1.568-1.327c.436-7.665,1.046-16.118,1.428-21.212a1.411,1.411,0,0,1,2.641-.577l13.08,23.456a1.421,1.421,0,0,0,1.248.729,162.444,162.444,0,0,0,45.22-6.639,1.425,1.425,0,0,0,.956-1.768A160.913,160.913,0,0,0-3147.8,4221.81Z" transform="translate(3330.528 -4166.906)"/><path class="b" d="M-3143.021,4240.805l-128.063-73.9h-59.444a167.652,167.652,0,0,0,23.644,32.192,1.453,1.453,0,0,0,2.511-.826c.4-3.677.807-7.447,1.185-11.008a1.452,1.452,0,0,1,2.894.08l.987,18.775a1.464,1.464,0,0,0,.463.994,161.427,161.427,0,0,0,32.208,23.363q.484.267.97.527a1.454,1.454,0,0,0,2.083-.861l2.628-8.775a1.452,1.452,0,0,1,2.838.533l-.925,11.441a1.459,1.459,0,0,0,.827,1.436,164.914,164.914,0,0,0,51.853,14.7,1.455,1.455,0,0,0,1.613-1.365c.431-7.587,1.033-15.939,1.416-21.037a1.451,1.451,0,0,1,2.716-.594l13,23.319a1.461,1.461,0,0,0,1.283.75,162.747,162.747,0,0,0,42.844-5.96C-3140.193,4243.8-3138.562,4243.3-3143.021,4240.805Z" transform="translate(3330.528 -4166.906)"/></g><g transform="translate(378.013)"><path class="c" d="M-2755.937,4172.058l-6.757,1.63,3.089-4.754a28.72,28.72,0,0,0-3.454-2.028h-8.862l-1.2,2.124.24-2.124h-40.74a4.471,4.471,0,0,0-.706.427,228.35,228.35,0,0,1,19.752,16.184c3.129,2.767,6.18,5.822,9.267,8.787l6-5.2-.006,10.666c4.668,3.952,9.573,7.184,15.081,8.5l.683-6.049,3.274,6.6a12.31,12.31,0,0,0,6.547-1.529c2.994-1.7,5.23-8.638,5.762-12.81.633-4.97-1.729-12.068-4.174-15.687A34.4,34.4,0,0,0-2755.937,4172.058Z" transform="translate(2814.326 -4166.906)"/><path class="c" d="M-2747.9,4185.207a.151.151,0,0,1,.089-.208q-1.058-.393-2.122-.757c-.159.05-.316.1-.475.146a.086.086,0,0,1-.049,0q1.3.439,2.6.918C-2747.875,4185.274-2747.887,4185.24-2747.9,4185.207Z" transform="translate(2786.224 -4174.534)"/><path class="c" d="M-2745.51,4185.7q.073.177.143.355,2.678,1.006,5.3,2.209l-.017-.034a.189.189,0,0,1,.1-.261q-1.175-.541-2.363-1.039c-.094.031-.188.063-.283.093-.122.039-.162-.151-.1-.253q-1.395-.578-2.806-1.1A.144.144,0,0,1-2745.51,4185.7Z" transform="translate(2784.055 -4175.162)"/><path class="c" d="M-2756.117,4182.449q1.556.471,3.1.989c-.1-.035-.1-.269.026-.307-.894-.312-1.809-.6-2.727-.885-.18-.055-.361-.108-.542-.163C-2756.211,4182.205-2756.164,4182.327-2756.117,4182.449Z" transform="translate(2788.777 -4173.584)"/><path class="c" d="M-2735.271,4190.277q.669.313,1.335.64a78.911,78.911,0,0,1,10.125,6c0-.159.188-.254.225-.083l.061.282q1.251.879,2.479,1.81,1.165.885,2.308,1.816a.194.194,0,0,1,.071-.272l.041-.013q-.429-.349-.861-.692a82.4,82.4,0,0,0-9.321-6.414l-.132.057c-.117.05-.2-.119-.15-.221q-1.5-.875-3.021-1.679-1.671-.878-3.37-1.661a.144.144,0,0,1,.015.023C-2735.4,4190-2735.337,4190.14-2735.271,4190.277Z" transform="translate(2779.635 -4176.999)"/><path class="c" d="M-2784.365,4175.006l.062.191c1.068.277,2.135.564,3.2.869q.683.195,1.364.4c-.019-.046-.036-.093-.054-.138a.157.157,0,0,1,.045-.187q-.448-.134-.9-.263l-.19.119c-.115.072-.195-.1-.145-.215-2.5-.716-5.016-1.354-7.538-1.961-.1.04-.2.081-.3.118s-.152-.109-.113-.216c-1.857-.444-3.718-.874-5.577-1.308-2.183-.508-4.356-1.069-6.527-1.644l-.258.155c-.13.078-.213-.148-.12-.254q-1.673-.444-3.345-.891c-.074.056-.148.112-.222.167-.127.094-.21-.142-.115-.256q-1.909-.506-3.821-.994-.153.114-.309.223a.163.163,0,0,1-.025.014q1.086.274,2.17.557c-.038-.155.162-.263.231-.105.026.062.052.124.077.186,2.043.534,4.083,1.086,6.124,1.624-.058-.192.162-.326.218-.144.022.072.042.146.063.218,1.226.321,2.452.639,3.681.942q1.506.373,3.015.729c.015-.128.177-.194.232-.05.014.038.028.076.042.114,2.938.695,5.879,1.368,8.806,2.12C-2784.631,4174.952-2784.422,4174.832-2784.365,4175.006Z" transform="translate(2812.092 -4167.693)"/><path class="c" d="M-2811.546,4168.068l.042-.031-1.122-.278q-.743-.181-1.489-.355c-.077.05-.148.1-.211.148l.237.177q1.26.3,2.516.613A.2.2,0,0,1-2811.546,4168.068Z" transform="translate(2814.326 -4167.125)"/><path class="c" d="M-2705.451,4209.29a.085.085,0,0,1-.058,0q2.535,2.068,4.954,4.361c.025-.109.049-.218.073-.325q-2.286-2.163-4.679-4.128Z" transform="translate(2766.447 -4185.515)"/><path class="c" d="M-2711.777,4214.463l-2.579-11.931c-.021-.094-.041-.187-.061-.282-.037-.171-.221-.076-.225.083a.2.2,0,0,0,0,.051q1.3,6.009,2.6,12.018c.418,1.934.854,3.861,1.247,5.807q.1.49.189.984c.076-.036.15-.074.226-.111-.048-.263-.1-.526-.15-.788C-2710.917,4218.339-2711.357,4216.4-2711.777,4214.463Z" transform="translate(2770.465 -4182.417)"/><path class="c" d="M-2735.425,4190.248c-.065-.137-.13-.274-.2-.41a.129.129,0,0,0-.014-.023.078.078,0,0,0-.077-.036.189.189,0,0,0-.1.261l.017.034a96.363,96.363,0,0,1,6.652,20.016c.035.147.068.294.1.441l.027-.243.329.663a117.234,117.234,0,0,0-4.736-16.016C-2734.038,4193.332-2734.7,4191.763-2735.425,4190.248Z" transform="translate(2779.789 -4176.969)"/><path class="c" d="M-2745.538,4186.021q-.071-.178-.143-.355a.144.144,0,0,0-.018-.032.1.1,0,0,0-.115-.042.151.151,0,0,0-.089.208c.014.033.026.067.04.1a71.258,71.258,0,0,1,3.28,12.152q1.345,6.472,2.288,13.1c.052.361.1.724.149,1.086.089.046.178.09.267.134a195.046,195.046,0,0,0-3.717-19.989A48.739,48.739,0,0,0-2745.538,4186.021Z" transform="translate(2784.225 -4175.125)"/><path class="c" d="M-2756.443,4182.022a.108.108,0,0,0-.176-.053.156.156,0,0,0-.045.187c.018.046.036.092.054.138,1.407,3.574,1.879,7.646,2.327,11.649a.186.186,0,0,0,.016.059l.213-.184a47.254,47.254,0,0,0-2.246-11.432C-2756.347,4182.265-2756.4,4182.143-2756.443,4182.022Z" transform="translate(2788.961 -4173.522)"/><path class="c" d="M-2764.932,4180.089c-.021-.063-.041-.128-.062-.191-.058-.174-.266-.054-.225.117a56.809,56.809,0,0,1,2.764,16.888l.229-.2a58.659,58.659,0,0,0-1.333-11.57Q-2764.127,4182.549-2764.932,4180.089Z" transform="translate(2792.721 -4172.585)"/><path class="c" d="M-2781.2,4176.119c-.055-.145-.217-.078-.232.05a.178.178,0,0,0,.011.084,44.745,44.745,0,0,1,2.727,12.55l.255.233a45.153,45.153,0,0,0-2.718-12.8Q-2781.177,4176.176-2781.2,4176.119Z" transform="translate(2799.852 -4170.923)"/><path class="c" d="M-2793.679,4172.831c-.056-.182-.277-.049-.221.134a29.006,29.006,0,0,1,1.186,6.891l.248.213a29.5,29.5,0,0,0-1.149-7.02C-2793.637,4172.977-2793.657,4172.9-2793.679,4172.831Z" transform="translate(2805.343 -4169.475)"/><path class="c" d="M-2805.146,4169.864c-.069-.158-.269-.05-.231.1,0,.009.006.019.01.029a11.4,11.4,0,0,1,.825,3.019l.267.207a11.807,11.807,0,0,0-.794-3.174C-2805.094,4169.988-2805.12,4169.925-2805.146,4169.864Z" transform="translate(2810.391 -4168.173)"/><path class="c" d="M-2740.473,4183.331a.128.128,0,0,0-.068.054c-.065.1-.024.292.1.253.094-.03.188-.062.283-.093a39.012,39.012,0,0,0,9.962-5l-.044.01.381-.586A38.96,38.96,0,0,1-2740.473,4183.331Z" transform="translate(2781.875 -4171.774)"/><path class="c" d="M-2724.081,4191.635c-.047.1.033.271.15.221l.132-.057,12.113-5.219q-.073-.13-.146-.257l-12.187,5.25A.118.118,0,0,0-2724.081,4191.635Z" transform="translate(2774.624 -4175.449)"/><path class="c" d="M-2705.534,4207.639a.194.194,0,0,0-.071.272.083.083,0,0,0,.042.034.088.088,0,0,0,.058,0l.289-.093c1.694-.539,3.4-.975,5.106-1.4-.009-.1-.019-.2-.029-.307-1.79.45-3.578.907-5.354,1.483Z" transform="translate(2766.501 -4184.17)"/><path class="c" d="M-2758.727,4176.288a.147.147,0,0,0-.056.067c-.05.115.03.288.145.215l.19-.119,9.768-6.113.038-.338a.091.091,0,0,0-.062.016Z" transform="translate(2789.894 -4168.267)"/><path class="c" d="M-2740.566,4170.25l-.1.175.028-.017A.169.169,0,0,0-2740.566,4170.25Z" transform="translate(2781.915 -4168.377)"/><path class="c" d="M-2750.482,4176.731c-.146.043-.144.277-.043.312a.089.089,0,0,0,.055,0c.159-.047.317-.1.475-.146a46.588,46.588,0,0,0,15.193-8.612q.364-.3.723-.606l-.239-.129a50.007,50.007,0,0,1-11.739,7.494A33.859,33.859,0,0,1-2750.482,4176.731Z" transform="translate(2786.285 -4167.189)"/><path class="c" d="M-2764.131,4166.906l-1.313,1.1a34.178,34.178,0,0,1-3.453,2.694,21.4,21.4,0,0,1-4,2.14.146.146,0,0,0-.084.09c-.039.107,0,.256.113.216s.2-.077.3-.117a24.9,24.9,0,0,0,3.1-1.653,24.978,24.978,0,0,0,3.369-2.466q1.195-1,2.388-2.008Z" transform="translate(2796.139 -4166.906)"/><path class="c" d="M-2790.326,4166.906c-1.639,1-3.289,1.963-4.928,2.95a.109.109,0,0,0-.032.027c-.094.106-.01.333.12.254l.258-.154c1.708-1.024,3.427-2.029,5.132-3.077Z" transform="translate(2805.966 -4166.906)"/><path class="c" d="M-2799.414,4166.906c-.789.7-1.594,1.36-2.423,1.971a.147.147,0,0,0-.026.026c-.1.115-.012.35.115.257l.222-.167c.862-.646,1.7-1.348,2.519-2.086Z" transform="translate(2808.86 -4166.906)"/></g><g class="d"><path class="c" d="M-3403.975,4267.443q-2.443-5.8-5.029-11.53a518.321,518.321,0,0,0-51.367-89.007h-28.978v114.748a68.888,68.888,0,0,1,4.018,13.13c3.006,14.578,1.386,29.825-.937,44.378-1.051,6.581-2.2,13.286-3.081,20v35.551a60.229,60.229,0,0,0,3.8,12.273c2.6,5.978,8.665,12.306,14.613,9.642,4.49-2.012,5.535-7.811,5.885-12.719a392.918,392.918,0,0,0-13.1-131.988c-1.4-5.081-12.543-44.739-2.525-43.931,6.631.544,13.022,25.741,14.754,31.282,3.877,12.41,6.583,25.146,9.185,37.873,5.195,25.408,9.795,51.433,21.561,74.81,1.333,2.648,3.638,5.681,6.518,4.98,2.493-.607,3.431-3.606,3.832-6.141,4.951-31.268-6.074-62.736-18.709-91.763-6.152-14.132-12.725-28.1-18.229-42.5-1.754-4.591-15.142-40.548-7.115-39.646,2.971.333,7.7,12.459,9.38,15.123q6.735,10.7,13.467,21.4l27.776,44.132c2.545,4.044,6.3,8.652,10.988,7.729,3.418-.674,5.611-4.3,5.8-7.776S-3402.622,4270.653-3403.975,4267.443Z" transform="translate(3489.349 -4166.906)"/><path class="c" d="M-3476.771,4396.957c-2.713-25.769-5.765-51.534-9.424-77.187q-1.482-10.384-3.155-20.743v6.071q1.913,12.254,3.568,24.545c1.734,12.822,3.3,25.667,4.8,38.519,1.466,12.576,3.037,25.156,4.135,37.771,1.989,22.849.932,45.713-.6,68.547a9.536,9.536,0,0,0,.924.4c.058-.855.12-1.71.176-2.566.839-12.582,1.529-25.182,1.587-37.795A343.4,343.4,0,0,0-3476.771,4396.957Z" transform="translate(3489.349 -4225.039)"/><path class="c" d="M-3431.612,4377.238a693.349,693.349,0,0,0-29.836-95.646q-12.439-31.679-27.9-62.052v2.1q4.84,9.566,9.39,19.276a701.554,701.554,0,0,1,36.08,94.171q9.645,31.9,16.134,64.642a3.856,3.856,0,0,0,.844-.661Q-3429.073,4388.116-3431.612,4377.238Z" transform="translate(3489.349 -4190.065)"/><path class="c" d="M-3472.844,4166.906h-1.271c10.68,12.3,20.575,25.349,30.161,38.509q14.557,19.983,27.778,40.9,10.755,17.012,20.584,34.583a9.767,9.767,0,0,0,.434-1.171,755.783,755.783,0,0,0-51.217-79.206C-3454.832,4189.075-3463.49,4177.658-3472.844,4166.906Z" transform="translate(3482.646 -4166.906)"/></g><g class="d" transform="translate(30.339)"><g transform="translate(11.687)"><path class="c" d="M-3414.3,4166.906c15.848,38.346,30.762,82.828,36.312,124.366a.485.485,0,0,0,.544.417.486.486,0,0,0,.417-.545c-5.543-41.5-20.408-85.911-36.225-124.238Z" transform="translate(3414.304 -4166.906)"/></g><path class="c" d="M-3330.835,4364.265c-4-2.948-7.988-5.935-12.227-8.54-2.222-1.363-4.51-2.539-6.852-3.681-.673-.328-2.7-.942-4.021-1.53a6.992,6.992,0,0,1-.653-.327.234.234,0,0,1-.047-.026,1.3,1.3,0,0,1-.47-.391c.2.342.394.687.6,1.03.021.035.04.072.063.1.123.214.249.422.377.633a83.587,83.587,0,0,0,19.138,21.842q1.428,1.117,2.882,2.128a6.721,6.721,0,0,0,4.809,1.3,4.073,4.073,0,0,0,.765-.2,4.511,4.511,0,0,0,.745-.346,3.811,3.811,0,0,0,1.942-2.736C-3323.355,4370.071-3328.419,4366.046-3330.835,4364.265Z" transform="translate(3399.944 -4247.367)"/><path class="c" d="M-3338.41,4322.676c-4.434-2.247-8.859-4.533-13.471-6.4-2.417-.979-4.867-1.761-7.365-2.5-.742-.217-2.95-.5-4.35-.876l-.018,0a2.7,2.7,0,0,1-1.1-.477.123.123,0,0,1-.021-.022.136.136,0,0,0,.023.029c.217.269.44.538.663.807.246.29.492.58.742.868a.2.2,0,0,0,.027.031c.112.13.224.26.339.391a83.5,83.5,0,0,0,22,17.82q1.59.867,3.193,1.623a6.917,6.917,0,0,0,4.589.6c.125-.03.247-.067.369-.109a4.261,4.261,0,0,0,.49-.2,4.029,4.029,0,0,0,2.372-3.607C-3330.072,4327.165-3335.732,4324.035-3338.41,4322.676Z" transform="translate(3404.182 -4230.922)"/><path class="c" d="M-3351.6,4277.479c-4.223-2.14-8.44-4.318-12.831-6.1-2.306-.932-4.639-1.679-7.02-2.382-.784-.233-3.285-.533-4.548-.956-.049-.015-.086-.03-.123-.042a2.119,2.119,0,0,1-.408-.19.593.593,0,0,1-.157-.128c.038.047.077.093.114.14.258.316.524.633.792.949a.066.066,0,0,0,.013.016q.995,1.173,2.062,2.332a79.233,79.233,0,0,0,19.695,15.567q1.521.828,3.044,1.547a6.392,6.392,0,0,0,4.723.467,4.179,4.179,0,0,0,.786-.366,4.287,4.287,0,0,0,.71-.529,3.567,3.567,0,0,0,1.23-2.733C-3343.657,4281.756-3349.049,4278.773-3351.6,4277.479Z" transform="translate(3409.44 -4211.248)"/><path class="c" d="M-3367.12,4242.571c-3.647-1.848-7.287-3.729-11.078-5.264-1.99-.806-4.006-1.449-6.061-2.057-.506-.148-1.849-.335-2.948-.571l-.248-.056c-.01,0-.021,0-.03-.007a6.067,6.067,0,0,1-.926-.277,1.43,1.43,0,0,1-.2-.1.239.239,0,0,1-.034-.021.508.508,0,0,1-.131-.108l.161.2c.013.018.03.037.046.054.045.059.092.115.142.172.091.113.184.223.279.333.406.484.824.967,1.254,1.445.012.016.028.033.042.048a68.5,68.5,0,0,0,17.653,14.162q1.314.714,2.629,1.333a5.521,5.521,0,0,0,4.078.405,3.706,3.706,0,0,0,1.866-1.452,3.36,3.36,0,0,0,.325-.65,2.753,2.753,0,0,0,.159-1.033C-3360.263,4246.263-3364.917,4243.688-3367.12,4242.571Z" transform="translate(3414.76 -4196.476)"/><path class="c" d="M-3380.158,4206.916c-3.648-1.851-7.287-3.729-11.082-5.266-1.987-.8-4-1.448-6.057-2.057-.544-.161-2.047-.36-3.181-.62a.3.3,0,0,0-.048-.013c-.027-.007-.053-.011-.077-.019a5.278,5.278,0,0,1-.932-.293,1.129,1.129,0,0,1-.13-.071.329.329,0,0,1-.056-.036.432.432,0,0,1-.1-.086c.041.048.08.1.123.146a1.043,1.043,0,0,0,.077.093.388.388,0,0,0,.046.056c.331.407.672.808,1.022,1.21.235.271.474.541.716.812.024.029.049.055.074.083a68.58,68.58,0,0,0,17.521,14.009q1.308.713,2.626,1.335a5.526,5.526,0,0,0,4.077.4.678.678,0,0,0,.066-.025,3.56,3.56,0,0,0,.781-.4,3.219,3.219,0,0,0,1.508-2.712C-3373.3,4210.607-3377.957,4208.033-3380.158,4206.916Z" transform="translate(3420.497 -4180.788)"/><path class="c" d="M-3394.751,4173.956c-3.187-1.615-6.367-3.256-9.681-4.6-1.74-.7-3.5-1.266-5.3-1.8-.518-.154-2.038-.348-3.045-.61l-.067-.018-.095-.027h-.458c.342.415.69.828,1.05,1.237.037.04.071.08.108.119.053.064.11.126.167.188a59.956,59.956,0,0,0,15.5,12.456q1.144.623,2.3,1.166a4.826,4.826,0,0,0,3.562.353,3.264,3.264,0,0,0,.507-.228,3.2,3.2,0,0,0,.658-.484,2.687,2.687,0,0,0,.893-2.027C-3388.759,4177.184-3392.827,4174.934-3394.751,4173.956Z" transform="translate(3425.59 -4166.906)"/><path class="c" d="M-3391.036,4166.906a4.807,4.807,0,0,0,3.525.335,3.207,3.207,0,0,0,.675-.335Z" transform="translate(3415.752 -4166.906)"/><path class="c" d="M-3338.561,4405.485q-.293-.622-.6-1.241-2.747-5.5-5.49-11c-.712-1.425-2.708-4.474-4-7.023-.053-.1-.1-.207-.152-.307a8.171,8.171,0,0,1-1-2.986c.007.72.015,1.441.02,2.156,0,.179,0,.356,0,.532.052,10.7-.2,21.122.92,32.006.357,3.482.861,7.106,2.512,10.322s4.755,5.9,7.595,5.561a4.047,4.047,0,0,0,.927-.221,3.993,3.993,0,0,0,.656-.308c2.494-1.465,3.465-5.55,3.348-9.3A45.7,45.7,0,0,0-3338.561,4405.485Z" transform="translate(3397.609 -4261.955)"/><path class="c" d="M-3364.686,4354.526a12.812,12.812,0,0,1,.036,2.064l-.011.2a17.474,17.474,0,0,1-.243,1.834c-1.054,5.694-4.845,11.841-7.305,16.366a40.438,40.438,0,0,0-5.2,15.913c-.285,2.136-.46,4.415.5,6.341a4.728,4.728,0,0,0,3.46,2.529,3.286,3.286,0,0,0,.752.01,2.941,2.941,0,0,0,1.131-.355c1.411-.791,1.948-2.519,2.344-4.086,2.834-11.2,5.342-23.241,4.976-34.968-.016-.588-.043-1.175-.075-1.762-.007-.138-.017-.277-.025-.414Q-3364.465,4356.355-3364.686,4354.526Z" transform="translate(3409.858 -4249.458)"/><path class="c" d="M-3376.554,4324.519c.018-.33.035-.662.047-.993-.016.282-.045.563-.082.846,0,.02-.005.042-.009.063a16.784,16.784,0,0,1-1.267,4.338c-2.167,5.033-6.429,9.986-9.345,13.755a40.457,40.457,0,0,0-7.683,14.874c-.625,2.063-1.158,4.283-.52,6.338a4.841,4.841,0,0,0,1.965,2.563,3.809,3.809,0,0,0,.691.362,3.107,3.107,0,0,0,2.271.086c1.518-.555,2.324-2.173,2.969-3.657,4.786-11.059,9.365-23.074,10.684-35.216.12-1.091.212-2.187.275-3.279C-3376.556,4324.572-3376.555,4324.546-3376.554,4324.519Z" transform="translate(3417.805 -4235.819)"/><path class="c" d="M-3361.42,4323.317c0,.041,0,.079-.006.117C-3361.422,4323.4-3361.421,4323.357-3361.42,4323.317Z" transform="translate(3402.724 -4235.727)"/><path class="c" d="M-3385.7,4285.515a12.669,12.669,0,0,1-.271,1.926c-1.324,6.125-6.878,12.482-10.431,17.074a40.5,40.5,0,0,0-7.685,14.875c-.622,2.062-1.158,4.284-.517,6.337a4.853,4.853,0,0,0,2.053,2.624,4.053,4.053,0,0,0,.556.288,3.127,3.127,0,0,0,2.314.1c1.52-.556,2.327-2.174,2.969-3.657,4.47-10.33,8.761-21.495,10.382-32.816.208-1.456.373-2.911.487-4.367.016-.194.03-.375.041-.556C-3385.757,4286.736-3385.722,4286.124-3385.7,4285.515Z" transform="translate(3421.85 -4219.094)"/><path class="c" d="M-3392.373,4251.551a9.72,9.72,0,0,1-.283,1.783c0,.008-.005.018-.006.027-1.128,4.455-5.125,9.042-7.709,12.38a30.253,30.253,0,0,0-5.745,11.121,8.154,8.154,0,0,0-.387,4.735,3.611,3.611,0,0,0,1.687,2.049,2.8,2.8,0,0,0,.681.264,2.231,2.231,0,0,0,1.313-.062,4.534,4.534,0,0,0,2.22-2.732c3.4-7.858,6.664-16.362,7.826-24.98q.157-1.168.259-2.335a.086.086,0,0,0,0-.036c.009-.062.014-.123.017-.186C-3392.441,4252.9-3392.4,4252.228-3392.373,4251.551Z" transform="translate(3422.653 -4204.149)"/><path class="c" d="M-3402.721,4221.883c-.01.135-.023.271-.036.408a10.208,10.208,0,0,1-.207,1.182.475.475,0,0,1-.012.05,16.1,16.1,0,0,1-1.594,3.943,67.708,67.708,0,0,1-6.149,8.58,30.213,30.213,0,0,0-5.743,11.12,8.164,8.164,0,0,0-.389,4.736,3.508,3.508,0,0,0,2.345,2.305,2.371,2.371,0,0,0,.725.073,2.168,2.168,0,0,0,.612-.129c1.135-.413,1.739-1.623,2.219-2.734,3.693-8.528,7.222-17.823,8.071-27.2.012-.114.023-.231.031-.343a.366.366,0,0,0,0-.066c.045-.5.078-1.009.1-1.514C-3402.732,4222.159-3402.726,4222.021-3402.721,4221.883Z" transform="translate(3427.206 -4191.096)"/><path class="c" d="M-3413.4,4186.833a.288.288,0,0,1,0,.055c-.014.228-.041.456-.078.684a8.493,8.493,0,0,1-.235,1.043c-.006.021-.012.042-.021.065a11.565,11.565,0,0,1-.437,1.214c-1.29,3.059-3.887,6.076-5.657,8.362a24.352,24.352,0,0,0-4.619,8.943,6.575,6.575,0,0,0-.312,3.81,2.5,2.5,0,0,0,2.962,1.81c.032-.012.061-.024.091-.039a2.542,2.542,0,0,0,1.128-1.045,7.8,7.8,0,0,0,.564-1.115,92.493,92.493,0,0,0,5.447-15.531,47.1,47.1,0,0,0,1.01-5.961c0-.029.007-.06.01-.09.048-.471.086-.943.112-1.416.017-.244.03-.484.04-.728A.582.582,0,0,0-3413.4,4186.833Z" transform="translate(3430.669 -4175.674)"/><path class="c" d="M-3429.811,4166.906c-.489.628-.965,1.221-1.383,1.76a18.963,18.963,0,0,0-3.6,6.971,5.133,5.133,0,0,0-.244,2.973,2.162,2.162,0,0,0,1.658,1.48,1.386,1.386,0,0,0,.651-.072,1.558,1.558,0,0,0,.365-.194,3.547,3.547,0,0,0,1.027-1.519c1.1-2.546,2.18-5.2,3.065-7.915a.136.136,0,0,0,.013-.041c.37-1.139.705-2.288,1-3.445Z" transform="translate(3435.173 -4166.906)"/><g transform="translate(1.793)"><g transform="translate(9.95)"><path class="c" d="M-3414.2,4166.906c15.776,38.24,30.592,82.528,36.118,123.9a.485.485,0,0,0,.544.417.485.485,0,0,0,.416-.545c-5.521-41.328-20.286-85.549-36.031-123.768Z" transform="translate(3414.204 -4166.906)"/></g><g transform="translate(46.222 123.625)"><path class="c" d="M-3349.431,4388.075l.01.163c0,.1.01.209.015.315a125.914,125.914,0,0,0,4.45,27.111,114,114,0,0,0,7.292,19.7,3.993,3.993,0,0,0,.656-.308,112.987,112.987,0,0,1-7.351-19.944,126.028,126.028,0,0,1-4.313-26.392c-.014-.193-.021-.387-.032-.582l-.01-.179C-3348.737,4387.494-3349.455,4387.612-3349.431,4388.075Z" transform="translate(3349.432 -4387.664)"/></g><g transform="translate(42.526 101.579)"><path class="c" d="M-3326.137,4375.614c-.85-.621-1.693-1.252-2.537-1.872-3.264-2.395-6.511-4.812-9.646-7.371a96.036,96.036,0,0,1-16.023-16.5q-.406-.538-.805-1.084c-.02-.026-.038-.049-.055-.076-.067-.089-.131-.178-.2-.269-.274-.38-.833.088-.559.464.357.493.719.98,1.085,1.466l.058.075c.113.148.226.3.341.447a97.169,97.169,0,0,0,15.735,16.076c3.253,2.654,6.628,5.158,10.014,7.64.614.451,1.227.9,1.845,1.354A4.511,4.511,0,0,0-3326.137,4375.614Z" transform="translate(3356.033 -4348.296)"/></g><g transform="translate(38.277 82.128)"><path class="c" d="M-3331.807,4334.765c-3.554-1.9-6.932-4.256-10.36-6.161a80.025,80.025,0,0,1-10.368-6.727q-5.268-4.1-10.506-8.229a.044.044,0,0,1-.016-.012.33.33,0,0,0-.5.108.359.359,0,0,0,.082.487c.235.184.47.367.7.552a.133.133,0,0,1,.024.018c.1.076.2.157.3.233,3.282,2.575,6.554,5.16,9.853,7.713a85.88,85.88,0,0,0,10.794,6.886c3.045,1.7,6.03,3.721,9.138,5.443.125-.03.247-.066.369-.108A4.2,4.2,0,0,0-3331.807,4334.765Z" transform="translate(3363.62 -4313.562)"/></g><g transform="translate(30.805 56.555)"><path class="c" d="M-3344.87,4287.9a57.156,57.156,0,0,1-10.415-5.246c-3.68-2.2-7.359-4.417-10.926-6.8-1.749-1.17-3.471-2.382-5.147-3.652a35.8,35.8,0,0,1-4.72-3.918.05.05,0,0,1-.012-.016c-.054-.055-.1-.11-.153-.167-.024-.023-.047-.05-.069-.075a.339.339,0,0,0-.339-.115.127.127,0,0,0-.042.011.352.352,0,0,0-.178.57,15.152,15.152,0,0,0,1.234,1.236c.583.526,1.2,1.014,1.811,1.491.447.346.9.687,1.335,1.026,1.722,1.334,3.5,2.6,5.3,3.826,3.617,2.447,7.355,4.709,11.1,6.951a59.881,59.881,0,0,0,10.512,5.412A4.257,4.257,0,0,0-3344.87,4287.9Z" transform="translate(3376.963 -4267.896)"/></g><g transform="translate(24.53 37.606)"><path class="c" d="M-3360.035,4250.136c-9.392-4.409-18.672-9.1-26.9-15.48-.109-.081-.212-.163-.313-.247a.141.141,0,0,1-.037-.028c-.107-.079-.212-.162-.316-.245a.34.34,0,0,0-.538.18.349.349,0,0,0-.019.194.35.35,0,0,0,.135.22c.048.037.1.077.144.113.34.269.685.536,1.029.8l.036.026c8.123,6.185,17.239,10.788,26.457,15.118A3.342,3.342,0,0,0-3360.035,4250.136Z" transform="translate(3388.169 -4234.059)"/></g><g transform="translate(17.116 17.669)"><path class="c" d="M-3374.508,4216.183c-3.892-2.072-7.686-4.375-11.423-6.648a95.943,95.943,0,0,1-14.315-10.435.557.557,0,0,1-.066-.058c-.039-.033-.074-.064-.109-.1-.15-.132-.294-.263-.44-.4a.3.3,0,0,0-.491.1.323.323,0,0,0-.039.1.126.126,0,0,0-.01.042.311.311,0,0,0,0,.1.327.327,0,0,0,.072.188.435.435,0,0,0,.05.057l.019.018c.3.271.592.538.893.8.2.18.407.359.611.535a.622.622,0,0,0,.066.055,99.04,99.04,0,0,0,13.725,9.808c3.5,2.117,7.047,4.264,10.679,6.22A3.567,3.567,0,0,0-3374.508,4216.183Z" transform="translate(3401.407 -4198.458)"/></g><g transform="translate(9.982)"><path class="c" d="M-3413.13,4167.038l-.184-.132h-.8a.438.438,0,0,0-.031.078.317.317,0,0,0,.13.316l1.4,1,.079.058.129.09c7.012,5,14.145,9.937,21.862,13.747a3.2,3.2,0,0,0,.658-.484c-8.2-4-15.738-9.314-23.168-14.616Z" transform="translate(3414.147 -4166.906)"/></g><path class="c" d="M-3426.423,4166.906c-.571,1.734-1.2,3.451-1.818,5.157a41.178,41.178,0,0,1-3.731,8.027,1.385,1.385,0,0,0,.651-.072,1.56,1.56,0,0,0,.365-.194,43.683,43.683,0,0,0,3.4-7.506q.35-.96.7-1.927a.137.137,0,0,0,.014-.041q.615-1.712,1.182-3.445Z" transform="translate(3431.972 -4166.906)"/><g transform="translate(7.166 11.818)"><path class="c" d="M-3410.905,4188.141a.12.12,0,0,0-.042-.051.4.4,0,0,0-.589.145.538.538,0,0,0-.023.056.513.513,0,0,0-.016.129,16.319,16.319,0,0,1-.065,1.992c-.454,5.052-3.032,9.729-4.7,14.459-.984,2.789-1.837,5.637-2.834,8.427a2.54,2.54,0,0,0,1.128-1.046c.858-2.5,1.636-5.03,2.525-7.512,1.091-3.045,2.5-6.042,3.485-9.134a23.963,23.963,0,0,0,1.146-5.614c0-.032,0-.065.006-.1.033-.526.044-1.055.027-1.59A.29.29,0,0,0-3410.905,4188.141Z" transform="translate(3419.175 -4188.01)"/></g><g transform="translate(10.908 31.189)"><path class="c" d="M-3400.729,4222.612a.309.309,0,0,0-.4.219c-.025.085-.049.168-.074.254a.419.419,0,0,1-.014.046q-.671,2.323-1.34,4.65-1.064,3.694-2.134,7.391a54.211,54.211,0,0,1-1.866,5.6c-.79,1.925-1.854,3.71-2.825,5.546a46.384,46.384,0,0,0-3.111,8.2,2.371,2.371,0,0,0,.725.073,47.556,47.556,0,0,1,2.238-6.361c.945-2.049,2.174-3.954,3.128-6a41.7,41.7,0,0,0,2.083-5.753c1.183-3.971,2.311-7.963,3.453-11.945.022-.079.043-.157.069-.236a.251.251,0,0,1,.012-.048l.334-1.165A.378.378,0,0,0-3400.729,4222.612Z" transform="translate(3412.493 -4222.6)"/></g><g transform="translate(16.045 49.418)"><path class="c" d="M-3391,4255.162a.178.178,0,0,0-.067.028.322.322,0,0,0-.165.194q-3.572,10.354-7.87,20.434-2.028,4.742-4.214,9.413a2.792,2.792,0,0,0,.68.264q1.412-3.023,2.76-6.073,4.712-10.682,8.6-21.7.267-.752.529-1.509c0-.006,0-.015.006-.021l.19-.549A.374.374,0,0,0-3391,4255.162Z" transform="translate(3403.32 -4255.152)"/></g><g transform="translate(17.507 68.174)"><path class="c" d="M-3383.96,4288.72a.349.349,0,0,0-.132.225c-.661,4.5-2.708,8.619-4.415,12.771-1.78,4.332-3.06,8.84-4.944,13.136-2.208,5.043-4.7,9.981-7.259,14.876a4,4,0,0,0,.556.288q.516-1,1.029-2c2.262-4.4,4.576-8.788,6.54-13.33,1.917-4.438,3.21-9.1,5.109-13.546,1.051-2.457,2.158-4.941,2.989-7.5a31.248,31.248,0,0,0,.844-3.108c.106-.506.2-1,.271-1.5A.359.359,0,0,0-3383.96,4288.72Z" transform="translate(3400.71 -4288.645)"/></g><g transform="translate(34.612 104.957)"><path class="c" d="M-3361.4,4354.377a.292.292,0,0,0-.14.268c0,.289,0,.573-.009.861,0,.079,0,.159,0,.239-.01.935-.028,1.869-.062,2.8a37.413,37.413,0,0,1-1.049,8.025c-.467,1.8-1.125,3.54-1.637,5.328-.539,1.886-.927,3.812-1.326,5.732q-1.285,6.216-2.559,12.435c-.656,3.208-1.356,6.412-1.978,9.63a3.314,3.314,0,0,0,.752.01c1.608-8.022,3.218-16.052,4.937-24.052.791-3.684,2.235-7.185,2.963-10.879a33.816,33.816,0,0,0,.551-4.479c.023-.343.042-.687.056-1.034,0-.082.009-.163.009-.246.06-1.428.065-2.86.077-4.291A.4.4,0,0,0-3361.4,4354.377Z" transform="translate(3370.164 -4354.33)"/></g><g transform="translate(22.565 87.53)"><path class="c" d="M-3374.731,4323.27a.318.318,0,0,0-.13.253c-.008.134-.019.269-.03.4,0,.025-.005.048-.007.072a19.471,19.471,0,0,1-1.2,4.633c-.454,1.224-.957,2.42-1.384,3.556-2.969,7.873-6.365,15.588-9.749,23.29-1.107,2.518-2.24,5.024-3.313,7.558a33.158,33.158,0,0,0-1.137,3.125,3.842,3.842,0,0,0,.691.362,36.61,36.61,0,0,1,1.456-4c2.92-6.736,5.927-13.43,8.763-20.2,1.6-3.816,3.17-7.646,4.584-11.534.357-.98.762-2.005,1.12-3.053.224-.652.426-1.308.585-1.967a.542.542,0,0,0,.013-.054,11.96,11.96,0,0,0,.328-2.117A.383.383,0,0,0-3374.731,4323.27Z" transform="translate(3391.677 -4323.209)"/></g></g></g><g class="d" transform="translate(268.122)"><g transform="translate(40.239)"><path class="c" d="M-2936.741,4166.906h-1.963c10.195,7.33,19.971,14.959,29.118,22.871a.576.576,0,0,0,.811-.058.577.577,0,0,0-.059-.812C-2917.619,4181.308-2926.985,4173.969-2936.741,4166.906Z" transform="translate(2938.704 -4166.906)"/></g><path class="c" d="M-2879.969,4166.906h-13.772c-4.5.414-9,.88-13.453,1.662-3.047.537-6.005,1.293-8.984,2.122-.856.238-3.139,1.286-4.776,1.806a8.523,8.523,0,0,1-.837.224.342.342,0,0,1-.062.013,1.541,1.541,0,0,1-.725.022q.664.226,1.341.445c.047.015.093.032.139.043.277.092.553.178.832.265a99.21,99.21,0,0,0,34.188,4.347c1.431-.088,2.845-.215,4.235-.378a7.972,7.972,0,0,0,5.3-2.626,4.763,4.763,0,0,0,.52-.782,5.279,5.279,0,0,0,.39-.893,4.523,4.523,0,0,0-.429-3.959A6.529,6.529,0,0,0-2879.969,4166.906Z" transform="translate(2971.848 -4166.906)"/><path class="c" d="M-2864.044,4213.826q-.749-.321-1.511-.629-6.768-2.724-13.534-5.453c-1.754-.706-5.925-1.844-9.076-3.1-.129-.051-.253-.1-.376-.152a9.688,9.688,0,0,1-3.237-1.866q.859.951,1.713,1.9c.14.16.282.315.419.471,8.463,9.46,16.446,18.917,26,27.709,3.057,2.813,6.355,5.637,10.352,7.194s8.864,1.5,11.122-1.036a4.8,4.8,0,0,0,.65-.925,4.832,4.832,0,0,0,.34-.79c1.062-3.264-1.288-7.657-4.343-10.9A54.236,54.236,0,0,0-2864.044,4213.826Z" transform="translate(2958.296 -4182.625)"/><path class="c" d="M-2918.307,4181.1a15.233,15.233,0,0,1,1.656,1.8l.151.19a20.417,20.417,0,0,1,1.227,1.821c3.544,5.887,5.013,14.33,6.387,20.287a48,48,0,0,0,7.9,18.231c1.426,2.122,3.064,4.284,5.434,5.24a5.612,5.612,0,0,0,5.063-.476,3.937,3.937,0,0,0,.677-.583,3.52,3.52,0,0,0,.725-1.206c.631-1.813-.251-3.77-1.134-5.474-6.3-12.184-13.54-24.85-23.093-34.98-.478-.51-.963-1.009-1.453-1.506-.114-.118-.232-.233-.348-.348Q-2916.671,4182.554-2918.307,4181.1Z" transform="translate(2969.969 -4173.153)"/><path class="c" d="M-2943.576,4166.906h-.888q.25.639.47,1.3c2.035,6.176,2.146,13.93,2.521,19.572a48.025,48.025,0,0,0,4.878,19.259c1.068,2.323,2.342,4.716,4.525,6.039a5.746,5.746,0,0,0,3.762.731,4.536,4.536,0,0,0,.9-.222,3.686,3.686,0,0,0,2.084-1.71c.913-1.687.356-3.76-.24-5.585C-2929.977,4192.819-2935.314,4178.671-2943.576,4166.906Z" transform="translate(2981.478 -4166.906)"/><path class="c" d="M-2971.043,4166.906h-6.791c.141,2.143.236,4.192.357,6.016a48.053,48.053,0,0,0,4.877,19.262c1.069,2.321,2.341,4.716,4.525,6.037a5.759,5.759,0,0,0,3.889.715,4.814,4.814,0,0,0,.721-.182,3.711,3.711,0,0,0,2.135-1.732c.913-1.689.356-3.762-.24-5.584A208,208,0,0,0-2971.043,4166.906Z" transform="translate(2996.161 -4166.906)"/><path class="c" d="M-3001.939,4166.906h-8.621c.238.561.491,1.136.767,1.737a9.681,9.681,0,0,0,3.381,4.51,4.288,4.288,0,0,0,3.112.494,3.315,3.315,0,0,0,.812-.3,2.642,2.642,0,0,0,1.116-1.088c.684-1.263.269-2.812-.177-4.174C-3001.677,4167.691-3001.808,4167.3-3001.939,4166.906Z" transform="translate(3010.56 -4166.906)"/><g transform="translate(5.192)"><g transform="translate(34.987)"><path class="c" d="M-2936.857,4166.906h-1.956c10.04,7.235,19.669,14.762,28.687,22.562a.575.575,0,0,0,.811-.059.575.575,0,0,0-.058-.811C-2918.031,4181.109-2927.253,4173.874-2936.857,4166.906Z" transform="translate(2938.813 -4166.906)"/></g><g transform="translate(63.789 21.778)"><path class="c" d="M-2887.249,4206.581l.137.136c.086.089.172.178.261.269a149.357,149.357,0,0,0,25.285,20.583,135.29,135.29,0,0,0,21.98,11.767,4.819,4.819,0,0,0,.34-.79,134.137,134.137,0,0,1-22.223-11.935,149.5,149.5,0,0,1-24.6-20.052c-.164-.161-.323-.327-.486-.491l-.15-.152C-2887.089,4205.519-2887.634,4206.188-2887.249,4206.581Z" transform="translate(2887.38 -4205.794)"/></g><g transform="translate(43.162 5.139)"><path class="c" d="M-2876.356,4177.212c-1.244.118-2.489.219-3.727.333-4.783.44-9.57.848-14.369,1.042a113.967,113.967,0,0,1-27.22-2.056q-.785-.157-1.569-.33c-.037-.007-.072-.013-.109-.023-.129-.026-.256-.054-.384-.084-.544-.123-.672.733-.132.852q1.057.236,2.117.449l.11.021c.217.043.436.088.654.129a115.323,115.323,0,0,0,26.628,1.9c4.979-.2,9.947-.633,14.908-1.091.9-.082,1.8-.161,2.7-.249A5.262,5.262,0,0,0-2876.356,4177.212Z" transform="translate(2924.214 -4176.082)"/></g><path class="c" d="M-3001.289,4166.906q1.065,3.361,2.068,6.741a3.323,3.323,0,0,0,.812-.3q-.956-3.229-1.974-6.439Z" transform="translate(3001.289 -4166.906)"/><g transform="translate(16.485)"><path class="c" d="M-2966.17,4179.182c-1.37-4.177-3.169-8.185-4.75-12.276h-.931c1.667,4.372,3.6,8.636,5.041,13.1,2.007,6.217,3.68,12.562,5.256,18.927a4.8,4.8,0,0,0,.721-.182q-.328-1.294-.659-2.584C-2962.945,4190.48-2964.341,4184.763-2966.17,4179.182Z" transform="translate(2971.851 -4166.906)"/></g><g transform="translate(46.398 7.59)"><path class="c" d="M-2918.419,4180.77a.345.345,0,0,0,.087.347c.224.258.448.512.668.772.064.069.126.142.188.213.727.839,1.446,1.683,2.146,2.535a44.376,44.376,0,0,1,5.382,7.953c1,1.966,1.785,4.03,2.737,6.021,1,2.1,2.175,4.116,3.332,6.135q3.749,6.534,7.511,13.06c1.941,3.366,3.839,6.763,5.819,10.111a3.913,3.913,0,0,0,.677-.583c-4.884-8.392-9.77-16.792-14.539-25.251-2.2-3.9-3.667-8.141-5.928-12a40.179,40.179,0,0,0-3.035-4.413c-.249-.323-.5-.644-.764-.961-.061-.075-.121-.152-.186-.226-1.071-1.316-2.192-2.593-3.307-3.873A.471.471,0,0,0-2918.419,4180.77Z" transform="translate(2918.436 -4180.458)"/></g><g transform="translate(31.756)"><path class="c" d="M-2937.425,4184.051c-1.581-4.648-3.2-9.286-5-13.854-.417-1.056-.832-2.178-1.287-3.292h-.867c.187.431.365.868.536,1.3.561,1.444,1.054,2.9,1.568,4.248,3.557,9.33,6.611,18.856,9.665,28.361,1,3.107,1.963,6.226,3,9.321a39.3,39.3,0,0,0,1.448,3.671,4.534,4.534,0,0,0,.9-.222,43.6,43.6,0,0,1-1.854-4.7C-2932.023,4200.609-2934.617,4192.3-2937.425,4184.051Z" transform="translate(2944.582 -4166.906)"/></g></g></g><g class="d" transform="translate(108.576 66.067)"><path class="c" d="M-3256.78,4300.975a.664.664,0,0,1,.475.153,75.629,75.629,0,0,1,12.724,13.625q.159.218.315.439a.663.663,0,0,1-.272.99l-4.11,1.808a.661.661,0,0,0,.4,1.253l5.45-1.128a.664.664,0,0,1,.7.292,77.234,77.234,0,0,1,9.838,23.28.661.661,0,0,1-.526.805c-3.537.646-7.43,1.417-9.776,1.889a.661.661,0,0,0-.115,1.261l11.657,4.725a.669.669,0,0,1,.411.538,76.08,76.08,0,0,1-.475,21.4.667.667,0,0,1-.766.547,75.416,75.416,0,0,1-9.892-2.368.668.668,0,0,1-.425-.4l-1.8-4.849a.662.662,0,0,0-1.277.151l-.349,2.908a.663.663,0,0,1-.893.541,78.537,78.537,0,0,1-25.752-16.239.664.664,0,0,1-.178-.675l3.182-10.477a.661.661,0,0,0-1.173-.573l-5.1,7.24a.663.663,0,0,1-1.034.063q-1.835-2.046-3.517-4.225a77.343,77.343,0,0,1-13.546-27.868c-2.016-7.811-3.545-17.189-2.52-25.287,1.087-8.593,7.532-5.909,14-3.69a78.288,78.288,0,0,1,20.676,10.782.662.662,0,0,1-.232,1.182c-1.777.42-3.6.849-5.315,1.249a.661.661,0,0,0,.2,1.3Z" transform="translate(3295.463 -4284.883)"/><path class="b" d="M-3242.81,4314.753c.1.14.2.28.3.421a.681.681,0,0,1-.28,1.018l-3.927,1.728a.68.68,0,0,0,.412,1.288l5.264-1.089a.684.684,0,0,1,.715.3,77.235,77.235,0,0,1,9.827,23.25.681.681,0,0,1-.542.829c-3.5.638-7.348,1.4-9.7,1.873a.68.68,0,0,0-.119,1.3l11.589,4.7a.684.684,0,0,1,.423.553,76.229,76.229,0,0,1-.3,20.257c-.176,1.576-.315,2.363-1.734.435l-62.7-83a.691.691,0,0,1-.081-.684c2.1-5.018,7.687-2.747,13.294-.824a78.293,78.293,0,0,1,20.643,10.758.681.681,0,0,1-.239,1.215c-1.686.4-3.414.805-5.047,1.187a.68.68,0,0,0,.2,1.34l8.783-.625a.683.683,0,0,1,.489.158A75.617,75.617,0,0,1-3242.81,4314.753Z" transform="translate(3294.691 -4284.883)"/></g><g class="d" transform="translate(315.899 79.919)"><path class="c" d="M-2899.514,4312.853a.433.433,0,0,1,.322-.009,48.845,48.845,0,0,1,10.667,5.573l.285.2a.428.428,0,0,1,.046.662l-2.115,1.981a.427.427,0,0,0,.512.677l3.077-1.855a.428.428,0,0,1,.486.03,49.863,49.863,0,0,1,10.978,12.07.428.428,0,0,1-.148.6c-2.016,1.15-4.222,2.454-5.549,3.244a.427.427,0,0,0,.2.793l8.111.38a.432.432,0,0,1,.366.24,49.106,49.106,0,0,1,4.295,13.134.432.432,0,0,1-.35.5,48.631,48.631,0,0,1-6.531.676.432.432,0,0,1-.346-.155l-2.138-2.566a.427.427,0,0,0-.745.366l.41,1.845a.428.428,0,0,1-.428.521,50.724,50.724,0,0,1-19.161-4.374.428.428,0,0,1-.253-.373l-.306-7.062a.427.427,0,0,0-.837-.1l-1.556,5.5a.428.428,0,0,1-.616.26q-1.556-.853-3.046-1.82a49.936,49.936,0,0,1-14.218-14.07c-2.9-4.325-5.84-9.708-6.951-14.859-1.178-5.466,3.322-5.212,7.738-5.247a50.543,50.543,0,0,1,14.9,2.138.427.427,0,0,1,.112.769c-.992.637-2.012,1.289-2.969,1.9a.427.427,0,0,0,.4.751Z" transform="translate(2925.244 -4309.618)"/><path class="b" d="M-2888.518,4318.417l.273.191a.439.439,0,0,1,.048.68l-2.021,1.894a.439.439,0,0,0,.526.7l2.972-1.791a.44.44,0,0,1,.5.03,49.87,49.87,0,0,1,10.964,12.054.44.44,0,0,1-.152.621c-2,1.139-4.175,2.427-5.5,3.217a.439.439,0,0,0,.205.815l8.063.378a.445.445,0,0,1,.376.246,49.207,49.207,0,0,1,4.158,12.4c.23,1,.314,1.507-.963.637l-55.962-37.116a.445.445,0,0,1-.2-.4c.2-3.505,4.093-3.319,7.919-3.349a50.552,50.552,0,0,1,14.876,2.13.439.439,0,0,1,.115.791c-.941.6-1.907,1.222-2.82,1.8a.439.439,0,0,0,.411.772l5.215-2.262a.445.445,0,0,1,.332-.009A48.8,48.8,0,0,1-2888.518,4318.417Z" transform="translate(2925.238 -4309.618)"/></g><path class="b" d="M-3489.349,4166.906v17c13.695-4.418,23.238-11.157,34.436-17Z" transform="translate(3489.349 -4166.906)"/></g></svg>