<svg xmlns="http://www.w3.org/2000/svg" width="433.297" height="512.697" viewBox="0 0 433.297 512.697"><defs><style>.a{opacity:0.18;}.b{fill:#e5bbbb;}</style></defs><g class="a" transform="translate(3416.427 7166.521)"><g transform="matrix(-0.799, -0.602, 0.602, -0.799, -3353.571, -6664.284)"><path class="b" d="M-2240.455-6966.332l-2.727-10.248c4.9-5.812,10.292-11.036,16.931-14.677l2.407,5.519,2.463-7.759a20.577,20.577,0,0,1,8.682-1.356c4.227.346,8.829,6.044,10.566,9.823,2.07,4.5.888,12.343-1.285,16.876a42.644,42.644,0,0,1-3.6,6.2l-8.974,1.349,5.125,3.235c-3.431,3.456-7.191,5.905-11.3,9.116-.2.158-.417.316-.639.475l-5.2-3.851,2.426,5.56c-14.232,7.76-48.921,14.978-54.185,13.854,8.531-9.094,10.74-11.584,20.89-24.077,3.258-4.009,6.342-8.262,9.5-12.443Z" transform="translate(2279.761 6994.908)"/><g transform="translate(0 0.004)"><path class="b" d="M-2170.156-6904.879c-.027.115.071.173.165.162q-1.24.834-2.5,1.644-.32.031-.639.064a.168.168,0,0,0-.062.02q1.54-.984,3.056-2C-2170.139-6904.955-2170.147-6904.917-2170.156-6904.879Z" transform="translate(2216.082 6941.178)"/><path class="b" d="M-2164.9-6911.775c.031-.135.061-.269.09-.4q3.137-2.123,6.156-4.412l-.012.04a.166.166,0,0,0,.193.208q-1.35,1.027-2.727,2.018c-.127.011-.255.02-.382.032a.153.153,0,0,0-.058.285q-1.62,1.159-3.273,2.272A.2.2,0,0,0-2164.9-6911.775Z" transform="translate(2211.136 6948.108)"/><path class="b" d="M-2182.463-6897.715q1.85-1.123,3.674-2.287a.158.158,0,0,0,.112.283c-1.053.686-2.137,1.361-3.228,2.026-.214.131-.43.26-.645.39C-2182.52-6897.44-2182.49-6897.577-2182.463-6897.715Z" transform="translate(2221.676 6938.196)"/><path class="b" d="M-2148.533-6942.923q.768-.59,1.527-1.192a127.173,127.173,0,0,0,11.294-10.132c.046.151.3.163.306-.018q0-.149.005-.3,1.361-1.385,2.678-2.81,1.25-1.353,2.46-2.741a.162.162,0,0,0,.16.231l.054,0q-.454.52-.914,1.037a128,128,0,0,1-10.17,10.187l-.182,0a.171.171,0,0,0-.133.277q-1.673,1.487-3.4,2.917-1.891,1.564-3.844,3.05a.173.173,0,0,0,.012-.029C-2148.628-6942.6-2148.581-6942.764-2148.533-6942.923Z" transform="translate(2201.444 6974.113)"/><path class="b" d="M-2241.361-6890.368c.01-.07.02-.141.029-.211q1.924-1.09,3.829-2.214.815-.483,1.625-.973c-.011.052-.021.1-.033.156a.126.126,0,0,0,.105.16q-.534.322-1.069.64l-.271-.032a.159.159,0,0,0-.128.271c-2.985,1.767-6.009,3.465-9.048,5.137-.135,0-.271.008-.407.016a.147.147,0,0,0-.087.256q-3.359,1.844-6.73,3.664c-2.635,1.431-5.245,2.908-7.847,4.4l-.365-.037a.158.158,0,0,0-.088.3l-4.009,2.3c-.108-.021-.216-.044-.324-.064-.185-.035-.23.227-.081.3q-2.288,1.31-4.585,2.6c-.149-.028-.3-.055-.448-.081a.148.148,0,0,0-.035,0q1.306-.732,2.607-1.472c-.01.167.272.183.319,0,.018-.07.034-.141.05-.211,2.451-1.4,4.894-2.806,7.343-4.2a.158.158,0,0,0,.313.045c.009-.079.016-.158.025-.237q2.2-1.257,4.421-2.494,1.813-1.008,3.633-2a.168.168,0,0,0,.306-.052c.009-.043.016-.086.025-.128,3.544-1.936,7.1-3.852,10.612-5.838C-2241.684-6890.2-2241.389-6890.176-2241.361-6890.368Z" transform="translate(2274.723 6934.47)"/><path class="b" d="M-2276.372-6843.738l.062.011q-.674.377-1.35.751-.895.5-1.794.984c-.111-.015-.214-.032-.306-.051l.256-.272q1.52-.829,3.03-1.674A.162.162,0,0,0-2276.372-6843.738Z" transform="translate(2279.761 6904.728)"/><path class="b" d="M-2102.722-6969.661a.15.15,0,0,0-.074.025q2.684-3.083,5.162-6.329c.059.094.118.188.175.281q-2.342,3.064-4.873,5.986Z" transform="translate(2174.022 6983.585)"/><path class="b" d="M-2115.92-6987.925l-.224,12.578q0,.148-.005.3c0,.181-.26.169-.306.018a.159.159,0,0,1-.008-.051q.112-6.335.225-12.669c.036-2.039.1-4.08.1-6.119q0-.513-.012-1.027c.105,0,.21.005.315.009.006.273.01.548.011.821C-2115.82-6992.021-2115.884-6989.972-2115.92-6987.925Z" transform="translate(2182.188 6994.898)"/><path class="b" d="M-2148.962-6951.258c-.048.159-.1.319-.145.478a.173.173,0,0,1-.012.029.124.124,0,0,1-.089.067.165.165,0,0,1-.193-.207l.012-.04a86.555,86.555,0,0,0,3.319-22.106c.006-.156.011-.312.016-.468l.1.222.247-.779a102.387,102.387,0,0,1-1.913,17.435C-2147.991-6954.821-2148.43-6953.027-2148.962-6951.258Z" transform="translate(2201.874 6982.448)"/><path class="b" d="M-2165.258-6946.854c-.029.135-.059.269-.09.4a.175.175,0,0,1-.014.039.168.168,0,0,1-.135.09c-.094.011-.192-.047-.165-.162.009-.038.016-.076.024-.113a61.12,61.12,0,0,0,1.055-13.093q.052-6.8-.445-13.58c-.027-.37-.058-.739-.088-1.109l.3-.243a157.741,157.741,0,0,1,.391,20.813A42.766,42.766,0,0,1-2165.258-6946.854Z" transform="translate(2211.588 6982.783)"/><path class="b" d="M-2183.022-6911.78a.172.172,0,0,1-.208.126.126.126,0,0,1-.105-.16c.012-.052.022-.1.034-.156.87-4.041.43-8.158-.024-12.2a.153.153,0,0,1,.005-.063l.316.085c.445,3.958.87,7.994.071,11.954C-2182.963-6912.055-2182.992-6911.917-2183.022-6911.78Z" transform="translate(2222.149 6952.673)"/><path class="b" d="M-2198.508-6911.42c-.01.07-.019.141-.03.21-.028.192-.323.167-.314-.015a45.48,45.48,0,0,0-.808-17.421l.342.092a45.556,45.556,0,0,1,1.262,11.694A45.578,45.578,0,0,1-2198.508-6911.42Z" transform="translate(2231.899 6955.312)"/><path class="b" d="M-2224.552-6890.734a.168.168,0,0,1-.306.053.141.141,0,0,1-.008-.086,37.053,37.053,0,0,0,.252-13.237l.263-.333a37.246,37.246,0,0,1-.177,13.476C-2224.536-6890.82-2224.544-6890.776-2224.552-6890.734Z" transform="translate(2246.962 6940.787)"/><path class="b" d="M-2245.761-6869.753a.158.158,0,0,1-.314-.034,23.3,23.3,0,0,0-.256-7.134l.26-.311a23.587,23.587,0,0,1,.335,7.241C-2245.745-6869.911-2245.751-6869.832-2245.761-6869.753Z" transform="translate(2259.786 6924.59)"/><path class="b" d="M-2264.533-6853.143c-.047.181-.328.165-.319,0a.192.192,0,0,1,0-.032,9.813,9.813,0,0,0,.275-3.256l.285-.314a10.007,10.007,0,0,1-.2,3.393C-2264.5-6853.284-2264.514-6853.213-2264.533-6853.143Z" transform="translate(2270.852 6912.351)"/><path class="b" d="M-2156.789-6910.936a.162.162,0,0,1-.1-.022.154.154,0,0,1,.058-.285c.127-.012.254-.021.382-.032a56.98,56.98,0,0,1,13.893.5l-.058.009.633.4A56.753,56.753,0,0,0-2156.789-6910.936Z" transform="translate(2206.388 6945.058)"/><path class="b" d="M-2130.754-6931.7a.171.171,0,0,1,.133-.277l.182,0,16.673-.212c-.039.1-.08.207-.12.31l-16.775.214A.128.128,0,0,1-2130.754-6931.7Z" transform="translate(2190.751 6957.431)"/><path class="b" d="M-2102.768-6961.318a.162.162,0,0,1-.16-.231.126.126,0,0,1,.044-.051.15.15,0,0,1,.074-.025l.389-.036c2.283-.213,4.554-.531,6.825-.854q.023.153.042.308c-2.382.34-4.764.672-7.16.885Z" transform="translate(2174.109 6975.549)"/><path class="b" d="M-2186.693-6891.164a.152.152,0,0,1-.089-.039.159.159,0,0,1,.128-.271l.271.032,13.931,1.659.135.309a.15.15,0,0,1-.083.012Z" transform="translate(2224.231 6933.102)"/><path class="b" d="M-2150.811-6887.128l-.17-.126.04,0A.142.142,0,0,1-2150.811-6887.128Z" transform="translate(2202.813 6930.579)"/><path class="b" d="M-2173.162-6900.235a.16.16,0,0,1-.135-.281.168.168,0,0,1,.07-.025q.319-.034.639-.064a65.458,65.458,0,0,1,21.44,1.719q.537.13,1.071.271l-.271.228a67.451,67.451,0,0,0-16.78-2.135A53.046,53.046,0,0,0-2173.162-6900.235Z" transform="translate(2216.184 6938.71)"/><path class="b" d="M-2199.693-6876.3a42.4,42.4,0,0,0-5.061-1.1,30.64,30.64,0,0,0-5.607-.331.157.157,0,0,1-.129-.051.147.147,0,0,1,.087-.256c.135-.008.271-.011.407-.016a35.639,35.639,0,0,1,4.354.249,31.9,31.9,0,0,1,4.9.916q5.347,1.351,10.689,2.717l.955.243-.475.2-4.952-1.259Z" transform="translate(2238.398 6925.084)"/><path class="b" d="M-2247.847-6857.121a.144.144,0,0,1-.048-.013.157.157,0,0,1,.088-.3l.365.037c4.02.41,8.065.736,12.052,1.363q2.173.341,4.3.866l-.641.169q-1.928-.453-3.9-.756C-2239.671-6856.374-2243.773-6856.7-2247.847-6857.121Z" transform="translate(2260.772 6912.759)"/><path class="b" d="M-2258.828-6850.834a.145.145,0,0,1-.04-.013c-.15-.069-.1-.331.081-.3.108.021.216.043.324.064a43.692,43.692,0,0,1,8.469,2.585l-.545.112A43.357,43.357,0,0,0-2258.828-6850.834Z" transform="translate(2267.331 6909.004)"/><path class="b" d="M-2271.535-6843.828a.162.162,0,0,1-.1-.251.13.13,0,0,1,.108-.061.181.181,0,0,1,.035,0q.224.039.448.081a25.614,25.614,0,0,1,4.665,1.346l-.633.094a25.233,25.233,0,0,0-4.459-1.2Z" transform="translate(2274.924 6904.818)"/></g></g><g transform="translate(-3287.105 -6809.696)"><g transform="translate(0)"><g transform="translate(48.188 42.923)"><path class="b" d="M-2877.671-6094.583c0-.015.006-.03.009-.045.081-.454-.093-.853-.389-.891-52.519-6.733-150.858-25.785-219.408-77.732-.251-.19-.6-.009-.774.406a.973.973,0,0,0,.134,1.094c68.688,52.052,167.166,71.135,219.754,77.877C-2878.059-6093.838-2877.764-6094.151-2877.671-6094.583Z" transform="translate(3098.334 6173.326)"/></g><path class="b" d="M-3142.474-6113.286c5.6-3.081,11.217-6.106,16.709-9.842,2.878-1.96,5.65-4.186,8.435-6.52.8-.67,2.9-3.029,4.419-4.4a9.822,9.822,0,0,1,.783-.644.342.342,0,0,1,.059-.043,1.315,1.315,0,0,1,.7-.321c-.44-.031-.884-.057-1.332-.077-.047,0-.093-.007-.137,0-.275-.016-.549-.023-.826-.031a71.335,71.335,0,0,0-33.286,7.7q-2.052,1.041-4.036,2.215a11.816,11.816,0,0,0-4.843,5.74,10.437,10.437,0,0,0-.425,1.285,11.787,11.787,0,0,0-.29,1.387,7.791,7.791,0,0,0,.791,5.282C-3153.187-6107.794-3145.854-6111.425-3142.474-6113.286Z" transform="translate(3181.379 6193.462)"/><path class="b" d="M-3084.227-6078.325c5.344-4.341,10.714-8.634,15.876-13.578,2.708-2.59,5.273-5.408,7.843-8.332.761-.871,2.717-3.794,4.124-5.466.007-.007.011-.015.019-.022a3.994,3.994,0,0,1,1.26-1.157.125.125,0,0,1,.035-.009.155.155,0,0,0-.043.008c-.4.068-.795.146-1.195.222-.436.091-.872.181-1.309.279a.22.22,0,0,0-.047.011c-.2.043-.393.087-.594.134a87.141,87.141,0,0,0-32.134,15.48q-1.968,1.5-3.853,3.123a13.983,13.983,0,0,0-4.079,6.062c-.072.207-.136.415-.2.629-.083.294-.152.591-.211.891-.509,2.6-.141,5.395,1.188,6.693C-3094.5-6070.4-3087.457-6075.706-3084.227-6078.325Z" transform="translate(3146.889 6176.552)"/><path class="b" d="M-3014.483-6047.066c5.091-4.134,10.208-8.225,15.126-12.931,2.58-2.473,5.025-5.153,7.471-7.94.806-.917,3.008-4.244,4.347-5.68.051-.058.092-.1.132-.139a2.992,2.992,0,0,1,.478-.414.583.583,0,0,1,.23-.109c-.068.011-.138.026-.207.037-.467.083-.94.179-1.416.277a.044.044,0,0,0-.023,0q-1.762.365-3.569.85a83.97,83.97,0,0,0-28.44,14.206q-1.88,1.436-3.673,2.977a13.248,13.248,0,0,0-4.071,6.375,11.128,11.128,0,0,0-.3,1.465,10.994,10.994,0,0,0-.108,1.5,6.011,6.011,0,0,0,1.342,4.255C-3024.27-6039.516-3017.559-6044.568-3014.483-6047.066Z" transform="translate(3104.801 6157.066)"/><path class="b" d="M-2949.8-6032.554c4.4-3.57,8.813-7.1,13.059-11.165,2.229-2.133,4.339-4.45,6.453-6.855.519-.594,1.722-2.357,2.777-3.726.084-.11.163-.208.24-.308.011-.01.02-.025.03-.036a10.324,10.324,0,0,1,.955-1.082,1.957,1.957,0,0,1,.239-.2.236.236,0,0,1,.045-.029.51.51,0,0,1,.193-.091c-.1.018-.192.036-.29.053a.645.645,0,0,0-.081.018c-.085.012-.168.027-.255.048-.167.028-.331.062-.5.1-.723.144-1.456.307-2.193.491a.53.53,0,0,0-.073.018,71.911,71.911,0,0,0-25.668,12.544q-1.623,1.241-3.169,2.573a11.44,11.44,0,0,0-3.518,5.5,9.288,9.288,0,0,0-.231,4.007,5.945,5.945,0,0,0,.293,1.059,3.333,3.333,0,0,0,.745,1.169C-2958.248-6026.036-2952.455-6030.4-2949.8-6032.554Z" transform="translate(3065.005 6146.172)"/><path class="b" d="M-2893.924-6013.583c4.4-3.569,8.813-7.1,13.062-11.168,2.225-2.129,4.336-4.446,6.449-6.852.559-.637,1.9-2.619,3-4.015.017-.018.033-.04.048-.058s.05-.066.075-.095a9.018,9.018,0,0,1,.972-1.074,1.508,1.508,0,0,1,.162-.123.378.378,0,0,1,.074-.048.406.406,0,0,1,.148-.062c-.072.015-.146.024-.219.043a.9.9,0,0,0-.138.025.333.333,0,0,0-.083.017c-.6.106-1.2.233-1.814.371-.411.092-.824.191-1.24.294-.043.008-.084.021-.128.032a72.152,72.152,0,0,0-25.436,12.491q-1.618,1.236-3.169,2.568a11.451,11.451,0,0,0-3.514,5.5c-.012.04-.022.076-.031.117a9.434,9.434,0,0,0-.275,1.484c-.193,1.865.16,3.71,1.109,4.637C-2902.372-6007.065-2896.579-6011.43-2893.924-6013.583Z" transform="translate(3031.619 6134.839)"/><path class="b" d="M-2833.385-6000.085c3.841-3.121,7.7-6.208,11.41-9.758,1.948-1.864,3.791-3.888,5.638-5.992.533-.608,1.88-2.619,2.885-3.831.022-.029.045-.054.067-.08.06-.072.115-.138.173-.2a3.56,3.56,0,0,1,.608-.583.459.459,0,0,1,.178-.086l-.163.029c-.726.13-1.462.284-2.2.459l-.184.045c-.095.018-.192.044-.288.071a62.879,62.879,0,0,0-22.551,10.99q-1.415,1.081-2.771,2.247a10.01,10.01,0,0,0-3.07,4.809,8.7,8.7,0,0,0-.2.935,8.281,8.281,0,0,0-.105,1.389,4.5,4.5,0,0,0,1.011,3.128C-2840.769-5994.392-2835.706-5998.2-2833.385-6000.085Z" transform="translate(2994.534 6125.002)"/><path class="b" d="M-2788.8-5989.544c3.841-3.121,7.7-6.208,11.411-9.758,1.947-1.865,3.791-3.888,5.638-5.992.493-.561,1.686-2.331,2.66-3.554.024-.033.049-.062.076-.095.505-.631.941-1.094,1.175-1.133q-.365.063-.733.138-1.178.229-2.384.531l-.218.056a63.139,63.139,0,0,0-22.055,10.874q-1.415,1.082-2.771,2.244a10.007,10.007,0,0,0-3.072,4.812,8.6,8.6,0,0,0-.281,1.556,7.74,7.74,0,0,0,0,1.342,4.056,4.056,0,0,0,.983,2.55C-2796.185-5983.85-2791.122-5987.662-2788.8-5989.544Z" transform="translate(2967.895 6118.704)"/><path class="b" d="M-2730.553-5980.166c3.327-2.7,6.67-5.377,9.884-8.453,1.683-1.609,3.281-3.365,4.88-5.185.424-.485,1.443-1.994,2.279-3.05.076-.1.15-.186.221-.273.032-.035.063-.071.092-.108.34-.4.629-.681.795-.709-.7.124-1.4.267-2.118.438l-.287.067c-.071.019-.143.033-.213.052a54.537,54.537,0,0,0-19.369,9.485q-1.227.936-2.4,1.943a8.666,8.666,0,0,0-2.659,4.165,7.045,7.045,0,0,0-.195.934,6.95,6.95,0,0,0-.064,1.375,3.672,3.672,0,0,0,.867,2.409C-2736.945-5975.233-2732.563-5978.537-2730.553-5980.166Z" transform="translate(2932.243 6111.456)"/><path class="b" d="M-2669.368-5973.27c2.642-2.147,5.3-4.27,7.85-6.713,1.34-1.281,2.61-2.676,3.88-4.121.293-.335.944-1.285,1.543-2.075.239-.316.473-.608.668-.827.043-.046.082-.085.12-.124a.909.909,0,0,1,.36-.264c-.3.052-.591.108-.89.176-.123.021-.248.05-.372.078-.327.071-.658.149-.99.232a43.416,43.416,0,0,0-15.218,7.491q-.975.746-1.906,1.544a6.891,6.891,0,0,0-2.112,3.313.567.567,0,0,0-.017.064,5.552,5.552,0,0,0-.194,1.458,3.111,3.111,0,0,0,.695,2.222C-2674.448-5969.351-2670.964-5971.976-2669.368-5973.27Z" transform="translate(2894.558 6105.152)"/><path class="b" d="M-2618.256-5971.728c2.037-1.653,4.082-3.292,6.05-5.173,1.031-.988,2.009-2.061,2.987-3.176.186-.212.563-.747.95-1.279.062-.081.12-.162.179-.243l.11-.139c.354-.467.678-.847.836-.876-.719.127-1.456.294-2.2.5-.132.036-.265.076-.4.115-.112.032-.223.063-.336.1a33.921,33.921,0,0,0-10.522,5.438q-.752.576-1.469,1.189a5.317,5.317,0,0,0-1.629,2.549c-.013.048-.026.1-.037.146a4.407,4.407,0,0,0-.11,1.426,2.138,2.138,0,0,0,.519,1.321C-2622.169-5968.708-2619.485-5970.73-2618.256-5971.728Z" transform="translate(2863.02 6102.295)"/><path class="b" d="M-3193.73-6223.96q.751.143,1.513.261,6.766,1.043,13.534,2.094c1.754.27,5.873.167,9.023.629.128.02.253.042.376.06a6.093,6.093,0,0,1,3.292,1.275q-.917-.967-1.83-1.932c-.149-.165-.3-.321-.448-.481-9.042-9.645-17.622-19.477-27.65-27.765-3.209-2.651-6.65-5.22-10.642-5.765a10.189,10.189,0,0,0-10.594,5.881,10.311,10.311,0,0,0-.536,1.535,10.51,10.51,0,0,0-.252,1.224c-.71,4.922,1.971,10.033,5.218,13.273A35.271,35.271,0,0,0-3193.73-6223.96Z" transform="translate(3218.06 6265.449)"/><path class="b" d="M-3098.631-6223.5a12.418,12.418,0,0,1-1.765-1.824l-.163-.2a20.477,20.477,0,0,1-1.354-2.018c-3.97-6.692-6.19-17.736-8.081-25.391-2.344-9.489-4.6-14.886-9.338-21.955-1.574-2.352-3.356-4.675-5.725-5.043-1.628-.251-3.574.81-4.823,2.684a7.331,7.331,0,0,0-.594,1.073,7.727,7.727,0,0,0-.582,1.952c-.433,2.75.6,5.093,1.613,7.088,7.22,14.264,15.4,28.813,25.55,38.944.508.511,1.022,1.006,1.541,1.493.121.116.246.229.368.341Q-3100.342-6224.845-3098.631-6223.5Z" transform="translate(3166.135 6279.97)"/><path class="b" d="M-3045.615-6210.339c.263.326.53.652.8.97-.224-.279-.439-.577-.647-.887a.726.726,0,0,1-.046-.069,24.214,24.214,0,0,1-2.664-5.766c-2.547-7.695-3.4-18.333-4.3-25.955-1.2-10.214-2.776-16.246-6.532-24.58-1.249-2.773-2.7-5.561-4.928-6.509a3.972,3.972,0,0,0-3.687.5,5.2,5.2,0,0,0-.843.665,6.782,6.782,0,0,0-1.841,3.191c-.715,2.689.018,5.322.765,7.6,5.578,16.942,12.122,34.454,21.313,47.388q1.239,1.747,2.545,3.376C-3045.658-6210.392-3045.636-6210.365-3045.615-6210.339Z" transform="translate(3129.946 6276.039)"/><path class="b" d="M-3006.457-6114.21c-.033-.042-.063-.078-.094-.114A1.463,1.463,0,0,0-3006.457-6114.21Z" transform="translate(3091.681 6180.994)"/><path class="b" d="M-2990.351-6179.714a15.035,15.035,0,0,1-1.41-2.141c-4.123-7.473-5.147-21.248-6.243-30.537-1.2-10.214-2.776-16.246-6.531-24.584-1.25-2.77-2.7-5.561-4.929-6.5a4.019,4.019,0,0,0-3.807.572,5.5,5.5,0,0,0-.675.539,6.777,6.777,0,0,0-1.887,3.24c-.717,2.693.017,5.326.764,7.6,5.211,15.824,11.263,32.149,19.527,44.773q1.6,2.432,3.3,4.67c.15.2.293.383.436.563Q-2991.093-6180.6-2990.351-6179.714Z" transform="translate(3097.402 6258.321)"/><path class="b" d="M-2929.548-6133.744a11.885,11.885,0,0,1-1.279-2.028c-.007-.01-.012-.024-.018-.034-2.871-5.673-3.616-15.6-4.413-22.351-.9-7.636-2.074-12.145-4.883-18.379-.932-2.067-2.017-4.155-3.683-4.859a3.067,3.067,0,0,0-3.039.565,4.446,4.446,0,0,0-.752.74,5.2,5.2,0,0,0-.969,1.946,9.877,9.877,0,0,0,.57,5.68c3.964,12.038,8.578,24.463,14.925,33.97q.861,1.288,1.764,2.5a.081.081,0,0,0,.028.036,2.169,2.169,0,0,0,.143.193Q-2930.369-6134.722-2929.548-6133.744Z" transform="translate(3057.177 6221.186)"/><path class="b" d="M-2883.563-6116.92c-.105-.138-.21-.28-.315-.422a12.611,12.611,0,0,1-.833-1.372c-.012-.02-.023-.044-.033-.063a26.394,26.394,0,0,1-2.077-5.879c-1.317-5.361-1.858-11.816-2.43-16.65-.9-7.635-2.074-12.145-4.884-18.374-.932-2.072-2.017-4.157-3.682-4.865a3.356,3.356,0,0,0-3.767,1.282,4.968,4.968,0,0,0-.626.977,5.609,5.609,0,0,0-.369,1,9.881,9.881,0,0,0,.573,5.68c4.3,13.068,9.372,26.6,16.6,36.338.087.122.177.243.265.356a.394.394,0,0,0,.052.067c.39.524.789,1.028,1.2,1.522C-2883.788-6117.187-2883.676-6117.051-2883.563-6116.92Z" transform="translate(3029.687 6211.116)"/><path class="b" d="M-2823.015-6084.558a.353.353,0,0,1-.043-.057,8.137,8.137,0,0,1-.515-.734,11.306,11.306,0,0,1-.694-1.286c-.013-.028-.026-.057-.039-.09a17.99,17.99,0,0,1-.681-1.732c-1.569-4.637-2.085-11.118-2.631-15.744a44.285,44.285,0,0,0-3.927-14.779c-.75-1.666-1.624-3.341-2.962-3.911s-3.257.463-3.83,2.619c-.015.057-.027.11-.039.167a6.118,6.118,0,0,0,0,2.573,14.108,14.108,0,0,0,.5,1.826,143.245,143.245,0,0,0,8.827,21.956,58.221,58.221,0,0,0,4.23,6.872c.021.03.044.064.068.1.36.5.727.98,1.1,1.446.192.247.384.484.582.719A.577.577,0,0,0-2823.015-6084.558Z" transform="translate(2991.276 6186.205)"/><path class="b" d="M-2763.538-6060.081a6.6,6.6,0,0,1-.468-.622c-.025-.04-.05-.079-.071-.118-2.137-3.378-2.633-10.187-3.17-14.723a34.512,34.512,0,0,0-3.061-11.52c-.586-1.3-1.266-2.605-2.312-3.053a2.192,2.192,0,0,0-2.537,1.041,3.365,3.365,0,0,0-.447,1,4.116,4.116,0,0,0-.12.7,7.237,7.237,0,0,0,.478,2.859c1.283,3.9,2.677,7.863,4.272,11.6a.169.169,0,0,0,.024.056,55.544,55.544,0,0,0,6.024,11.01c.25.34.506.673.765,1,.032.046.065.083.1.124Q-2763.8-6060.394-2763.538-6060.081Z" transform="translate(2953.768 6166.6)"/><path class="b" d="M-2713.841-6040.576l.119.141c-.038-.042-.074-.092-.111-.139a4.065,4.065,0,0,1-.246-.357,9.83,9.83,0,0,1-1.042-2.442,57.454,57.454,0,0,1-1.433-9.045,26.9,26.9,0,0,0-2.39-8.981,4.414,4.414,0,0,0-1.8-2.378,1.348,1.348,0,0,0-1.055.03,2.01,2.01,0,0,0-.832.65,2.587,2.587,0,0,0-.441.91,4.831,4.831,0,0,0,.281,2.775,78.3,78.3,0,0,0,6.27,14.965,29.833,29.833,0,0,0,2.509,3.664C-2713.954-6040.715-2713.9-6040.644-2713.841-6040.576Z" transform="translate(2922.361 6150.848)"/><path class="b" d="M-2699.679-6005.641a.554.554,0,0,0,.056.072A.554.554,0,0,1-2699.679-6005.641Z" transform="translate(2908.321 6116.055)"/><path class="b" d="M-2667.783-6030.509c-.062-.073-.123-.146-.18-.227a1.359,1.359,0,0,1-.105-.15c-1.049-1.508-1.618-4.037-1.993-6.605-.265-1.784-.435-3.585-.609-5.072a26.914,26.914,0,0,0-2.39-8.981,4.416,4.416,0,0,0-1.8-2.378,1.152,1.152,0,0,0-.284-.078,1.47,1.47,0,0,0-.9.166,2.32,2.32,0,0,0-1.142,1.5,4.812,4.812,0,0,0,.278,2.774c2,6.067,4.335,12.34,7.59,17.036.394.567.8,1.111,1.219,1.629.044.052.084.108.129.156C-2667.91-6030.66-2667.847-6030.582-2667.783-6030.509Z" transform="translate(2894.946 6144.959)"/><path class="b" d="M-2621.9-6020.654a4.97,4.97,0,0,1-.346-.459,5.844,5.844,0,0,1-.308-.519c-.028-.049-.055-.1-.082-.159a11.824,11.824,0,0,1-.813-2.187,61.287,61.287,0,0,1-1.343-8.73,26.837,26.837,0,0,0-2.387-8.981,4.414,4.414,0,0,0-1.8-2.378,1.037,1.037,0,0,0-.294-.08,1.509,1.509,0,0,0-.979.217,2.335,2.335,0,0,0-1.056,1.453,4.833,4.833,0,0,0,.281,2.775,83.014,83.014,0,0,0,5.773,14.093,32.671,32.671,0,0,0,2.429,3.792c.041.056.081.111.125.163.143.193.288.378.436.564C-2622.143-6020.946-2622.022-6020.8-2621.9-6020.654Z" transform="translate(2867.531 6139.072)"/></g><g transform="translate(0.115 2.72)"><g transform="translate(48.575 40.432)"><path class="b" d="M-2876.423-6094.013l.009-.045c.081-.455-.094-.853-.389-.891-52.518-6.733-150.859-25.785-219.408-77.731-.25-.19-.6-.009-.774.405a.974.974,0,0,0,.134,1.094c68.688,52.052,167.166,71.134,219.755,77.876C-2876.811-6093.268-2876.516-6093.582-2876.423-6094.013Z" transform="translate(3097.087 6172.756)"/></g><g transform="translate(0 14.564)"><path class="b" d="M-3168.562-6210.988l-.145-.134c-.092-.088-.183-.177-.277-.265a103.747,103.747,0,0,0-26.281-18.233,82.9,82.9,0,0,0-22.259-7.41,10.641,10.641,0,0,0-.252,1.225,82.242,82.242,0,0,1,22.509,7.544,103.92,103.92,0,0,1,25.568,17.776c.173.157.342.321.514.482l.158.149C-3168.614-6209.461-3168.154-6210.6-3168.562-6210.988Z" transform="translate(3217.775 6237.029)"/></g><g transform="translate(24.716 55.246)"><path class="b" d="M-3156.366-6117.293c1.185-.661,2.373-1.3,3.552-1.952,4.556-2.522,9.12-5,13.716-7.189a86.407,86.407,0,0,1,26.369-8.067c.513-.064,1.027-.121,1.54-.173a1.033,1.033,0,0,1,.107-.011c.128-.016.252-.027.378-.038.534-.048.575-1.279.046-1.226-.692.065-1.385.143-2.079.229l-.108.016c-.213.027-.428.053-.642.084a87.817,87.817,0,0,0-25.785,8.042c-4.767,2.272-9.5,4.854-14.229,7.473-.857.475-1.717.944-2.575,1.426A11.776,11.776,0,0,0-3156.366-6117.293Z" transform="translate(3156.366 6135.952)"/></g><g transform="translate(48.046 66.809)"><path class="b" d="M-3098.4-6080.25c4.371-3.387,8.982-6.111,13.254-9.314a96.015,96.015,0,0,1,13.737-8.813c5.034-2.574,10.072-5.1,15.108-7.647a.059.059,0,0,1,.022-.013.759.759,0,0,0,.3-.82c-.054-.264-.226-.45-.474-.324-.337.171-.675.342-1.011.509a.182.182,0,0,1-.034.019c-.143.076-.288.147-.43.22-4.723,2.384-9.447,4.746-14.165,7.174a104.023,104.023,0,0,0-14.2,9.282c-3.8,2.838-7.829,5.3-11.7,8.209-.072.207-.136.415-.2.629C-3098.275-6080.846-3098.344-6080.549-3098.4-6080.25Z" transform="translate(3098.403 6107.223)"/></g><g transform="translate(76.177 79.322)"><path class="b" d="M-3028.509-6047.694a79.443,79.443,0,0,1,12.527-10.228c4.72-3.295,9.449-6.58,14.235-9.544,2.347-1.454,4.709-2.832,7.083-4.092a36.685,36.685,0,0,1,6.973-3.234.051.051,0,0,1,.023,0c.089-.027.173-.048.26-.068.039-.013.079-.021.117-.03a.559.559,0,0,0,.361-.384.347.347,0,0,0,.023-.071c.107-.384,0-.855-.341-.774a13.751,13.751,0,0,0-2,.651c-.9.363-1.785.8-2.665,1.253-.639.329-1.276.666-1.9.989-2.464,1.266-4.913,2.668-7.348,4.154-4.876,2.983-9.691,6.31-14.5,9.664-4.354,3.041-8.713,6.045-12.742,10.216A10.983,10.983,0,0,0-3028.509-6047.694Z" transform="translate(3028.509 6076.133)"/></g><g transform="translate(103.105 87.479)"><path class="b" d="M-2961.312-6029.529c11.025-9.515,22.2-18.609,33.981-24.663.153-.083.3-.158.452-.228a.142.142,0,0,1,.053-.027c.15-.083.3-.158.452-.232a.784.784,0,0,0,.268-.938.4.4,0,0,0-.149-.2.27.27,0,0,0-.291-.007c-.069.036-.139.068-.208.105-.491.245-.984.5-1.472.757a.475.475,0,0,0-.05.027c-11.533,6.072-22.506,15.014-33.33,24.351A5.939,5.939,0,0,0-2961.312-6029.529Z" transform="translate(2961.605 6055.867)"/></g><g transform="translate(125.523 94.908)"><path class="b" d="M-2905.905-6014.33c4.775-3.72,9.668-7.089,14.492-10.4a107.035,107.035,0,0,1,19.93-11.125.588.588,0,0,1,.1-.043,1.544,1.544,0,0,1,.169-.066c.228-.1.451-.186.677-.273a.675.675,0,0,0,.3-.8.528.528,0,0,0-.056-.148.165.165,0,0,0-.027-.053.333.333,0,0,0-.085-.095.245.245,0,0,0-.215-.067.353.353,0,0,0-.087.02l-.03.011c-.458.18-.914.364-1.371.556-.308.126-.619.26-.926.4a.627.627,0,0,0-.1.043,111.962,111.962,0,0,0-18.944,10.846c-4.508,3.119-9.077,6.271-13.551,9.722A9.41,9.41,0,0,0-2905.905-6014.33Z" transform="translate(2905.905 6037.409)"/></g><g transform="translate(150.453 100.955)"><path class="b" d="M-2843.965-6000.7c9.76-8.172,20.1-14.194,30.346-20.072l.113-.065.3-.168.324-.187a.643.643,0,0,0,.284-.4.323.323,0,0,0,.014-.053.824.824,0,0,0-.083-.6.252.252,0,0,0-.367-.1l-.018.009c-.639.367-1.28.733-1.919,1.1l-.11.062-.177.1c-9.667,5.554-19.379,11.333-28.6,18.98A8.281,8.281,0,0,0-2843.965-6000.7Z" transform="translate(2843.965 6022.384)"/></g><g transform="translate(168.397 105.368)"><path class="b" d="M-2799.353-5989.327a94.242,94.242,0,0,1,10.791-9.147c6.177-4.35,12.6-7.689,18.914-11.31a1.462,1.462,0,0,0,.139-.081c.21-.118.421-.239.632-.36a.673.673,0,0,0,.3-.517.812.812,0,0,0-.076-.521.265.265,0,0,0-.169-.147.075.075,0,0,0-.042-.009.3.3,0,0,0-.189.049c-.671.39-1.331.766-1.99,1.138-.044.024-.088.049-.135.077-6.04,3.418-12.171,6.658-18.049,10.889a97.083,97.083,0,0,0-10.13,8.6A7.746,7.746,0,0,0-2799.353-5989.327Z" transform="translate(2799.383 6011.42)"/></g><g transform="translate(192.412 110.189)"><path class="b" d="M-2739.705-5980.381a104.766,104.766,0,0,1,26.2-17.368c.165-.076.33-.147.5-.214.068-.032.135-.064.2-.089.165-.076.332-.146.5-.218.534-.227.357-1.368-.174-1.145-.731.313-1.462.635-2.2.978-.063.025-.131.058-.195.087-.047.024-.092.044-.142.067a106.4,106.4,0,0,0-24.623,16.526A6.955,6.955,0,0,0-2739.705-5980.381Z" transform="translate(2739.716 5999.443)"/></g><g transform="translate(217.798 114.04)"><path class="b" d="M-2676.645-5974.519a84.694,84.694,0,0,1,20.551-13.143c.532-.231,1.068-.454,1.6-.664.087-.033.175-.069.262-.1.175-.069.349-.134.523-.2.434-.159.546-1.028.269-1.212a.206.206,0,0,0-.161-.03.569.569,0,0,0-.064.016q-1.327.5-2.645,1.069l-.237.1c-.219.094-.436.193-.653.292a86.816,86.816,0,0,0-19.253,12.412A5.566,5.566,0,0,0-2676.645-5974.519Z" transform="translate(2676.645 5989.874)"/></g><g transform="translate(239.041 116.417)"><path class="b" d="M-2623.847-5971.965a52.523,52.523,0,0,1,15.579-10.2c.169-.066.337-.133.509-.2.1-.035.2-.073.3-.107.231-.087.461-.17.694-.252a.9.9,0,0,0,.341-1.128.227.227,0,0,0-.3-.1l-.108.041q-1.265.44-2.511.982c-.1.043-.192.083-.29.13s-.167.071-.253.113a54.561,54.561,0,0,0-13.849,9.294A4.4,4.4,0,0,0-2623.847-5971.965Z" transform="translate(2623.865 5983.969)"/></g><g transform="translate(237.166 92.189)"><path class="b" d="M-2620.537-6021.092a.123.123,0,0,0,.018-.022.966.966,0,0,0,.186-.439.631.631,0,0,0,.005-.14.526.526,0,0,0-.111-.319,13.268,13.268,0,0,1-1.282-1.968c-2.008-3.735-2.774-8.781-3.831-13.429a52.7,52.7,0,0,0-1.993-6.741,1.509,1.509,0,0,0-.979.217,62.337,62.337,0,0,1,2.636,9.2,65.707,65.707,0,0,0,2.361,9.125,17.939,17.939,0,0,0,1.824,3.692c.035.058.072.113.108.164.168.245.345.484.527.716C-2620.9-6020.833-2620.69-6020.907-2620.537-6021.092Z" transform="translate(2628.524 6044.163)"/></g><g transform="translate(218.786 88.224)"><path class="b" d="M-2665.766-6030.67c-.021-.056-.037-.1-.053-.14q-1.23-3.3-2.387-6.681-2.765-8.062-5.083-16.51a1.469,1.469,0,0,0-.9.166q2.987,10.977,6.726,21.313c.176.5.36,1,.546,1.5.015.046.033.093.053.14.114.315.229.631.347.942C-2666.28-6029.3-2665.544-6030.033-2665.766-6030.67Z" transform="translate(2674.19 6054.016)"/></g><g transform="translate(199.616 84.381)"><path class="b" d="M-2713.144-6040.3a.443.443,0,0,0,0-.116.521.521,0,0,0-.052-.182.059.059,0,0,0-.007-.019c-.021-.043-.042-.085-.061-.128-.377-.786-.722-1.6-1.042-2.442-1.419-3.689-2.371-7.811-3.486-11.786a50.49,50.49,0,0,0-2.39-6.912c-.1-.218-.418-.855-.8-1.677a2.009,2.009,0,0,0-.832.65,57.521,57.521,0,0,1,2.42,5.82c1.35,4.18,2.3,8.7,3.689,12.83.413,1.234.864,2.435,1.377,3.579.019.042.037.085.058.127.1.232.212.464.321.689C-2713.718-6039.391-2713.173-6039.808-2713.144-6040.3Z" transform="translate(2721.817 6063.564)"/></g><g transform="translate(177.93 74.806)"><path class="b" d="M-2764.269-6057.436a.9.9,0,0,0,.28-1.1c-.1-.172-.209-.349-.309-.528a.818.818,0,0,1-.069-.117c-.182-.308-.36-.62-.534-.939a123.175,123.175,0,0,1-6.383-14.566,71.72,71.72,0,0,1-3.848-12.667,3.35,3.35,0,0,0-.447,1,4.134,4.134,0,0,0-.12.7,75.034,75.034,0,0,0,3.671,11.71q.535,1.378,1.08,2.754a.182.182,0,0,0,.024.057,104.966,104.966,0,0,0,5.189,11.6,1.106,1.106,0,0,0,.062.111q.516.951,1.06,1.856a.166.166,0,0,0,.031.045A.229.229,0,0,0-2764.269-6057.436Z" transform="translate(2775.699 6087.353)"/></g><g transform="translate(152.648 63.381)"><path class="b" d="M-2823.648-6080.969a.1.1,0,0,0,.074-.014c.247-.083.441-.615.337-.979-.008-.027-.019-.056-.029-.083a.542.542,0,0,0-.1-.14,16.882,16.882,0,0,1-1.626-1.905c-3.9-5.245-5.825-13.207-8.506-19.908-1.581-3.952-3.312-7.769-4.883-11.74a6.12,6.12,0,0,0,0,2.574c1.434,3.5,2.958,6.928,4.354,10.463,1.712,4.339,3.135,9.095,4.971,13.319a31.007,31.007,0,0,0,3.831,6.751c.027.031.052.062.078.1a17.184,17.184,0,0,0,1.316,1.483A.223.223,0,0,0-2823.648-6080.969Z" transform="translate(2838.513 6115.739)"/></g><g transform="translate(127.362 45.134)"><path class="b" d="M-2883.023-6115.138a.034.034,0,0,0,.018-.018.743.743,0,0,0,.11-.759l-.156-.337a.655.655,0,0,1-.028-.062q-1.432-3.078-2.87-6.157-2.28-4.887-4.557-9.789a82.381,82.381,0,0,1-3.262-7.779c-1-2.888-1.678-6.042-2.467-9.109a74.137,74.137,0,0,0-4.475-11.93,4.994,4.994,0,0,0-.626.977,73.766,73.766,0,0,1,3.609,9c.988,3.221,1.634,6.724,2.614,9.957a65.352,65.352,0,0,0,3.219,8.228c2.419,5.312,4.9,10.563,7.361,15.828.049.1.1.205.145.313a.334.334,0,0,1,.031.062l.72,1.54C-2883.493-6114.851-2883.208-6114.917-2883.023-6115.138Z" transform="translate(2901.338 6161.076)"/></g><g transform="translate(109.446 37.637)"><path class="b" d="M-2929.388-6134.642a.5.5,0,0,0,.029-.122.044.044,0,0,0,.005-.025.7.7,0,0,0-.041-.389q-5.929-14.552-11.065-29.9-2.41-7.231-4.639-14.624a4.449,4.449,0,0,0-.752.741q1.444,4.779,2.961,9.493,5.318,16.493,11.565,32.1.424,1.066.857,2.134c0,.009.01.019.013.028l.314.772C-2929.959-6133.987-2929.531-6134.237-2929.388-6134.642Z" transform="translate(2945.85 6179.702)"/></g><g transform="translate(83.341 12.693)"><path class="b" d="M-2988.574-6180.292a.661.661,0,0,0-.086-.395c-3.271-5.042-5.144-11.731-7.308-17.962-2.258-6.5-5.056-12.439-7.2-19.056-2.524-7.762-4.74-15.833-6.864-23.971a5.518,5.518,0,0,0-.675.539q.439,1.652.88,3.3c1.941,7.256,3.83,14.574,6.123,21.53,2.241,6.795,5.161,12.9,7.419,19.667,1.249,3.748,2.477,7.6,3.982,11.119a44.015,44.015,0,0,0,1.958,4.041c.343.612.689,1.2,1.054,1.757C-2989.034-6179.331-2988.6-6179.812-2988.574-6180.292Z" transform="translate(3010.71 6241.677)"/></g><g transform="translate(35.546)"><path class="b" d="M-3097.557-6219.417a.528.528,0,0,0-.117-.444c-.241-.265-.48-.525-.717-.795-.068-.07-.135-.145-.2-.219-.78-.864-1.552-1.739-2.305-2.632a44.012,44.012,0,0,1-5.936-8.8c-1.151-2.308-2.1-4.837-3.208-7.2-1.167-2.49-2.485-4.8-3.791-7.119q-4.229-7.5-8.471-14.985c-2.188-3.859-4.338-7.779-6.562-11.6a7.331,7.331,0,0,0-.594,1.073c5.5,9.606,11,19.222,16.394,28.968,2.483,4.487,4.3,9.748,6.846,14.153a39.542,39.542,0,0,0,3.34,4.864c.271.344.545.686.826,1.02.066.078.131.161.2.235,1.156,1.386,2.356,2.695,3.551,4.012C-3098.021-6218.58-3097.614-6219-3097.557-6219.417Z" transform="translate(3129.46 6273.213)"/></g><g transform="translate(61.372 0.684)"><path class="b" d="M-3041.556-6208.132a.572.572,0,0,0-.112-.417c-.106-.134-.212-.272-.317-.41-.019-.025-.036-.05-.055-.076a26.979,26.979,0,0,1-2.967-5.933c-.677-1.765-1.292-3.578-1.914-5.224-4.313-11.429-8.16-23.331-12.006-35.2-1.257-3.882-2.482-7.792-3.779-11.639-.522-1.553-1.109-3.042-1.743-4.478a5.217,5.217,0,0,0-.843.666,57.665,57.665,0,0,1,2.232,5.732c3.395,10.326,6.684,20.74,10.173,30.975,1.965,5.769,3.964,11.512,6.135,17.083.548,1.4,1.094,2.919,1.7,4.386.374.914.768,1.8,1.2,2.63.012.024.023.047.035.067a14.612,14.612,0,0,0,1.526,2.4C-3042.016-6207.235-3041.6-6207.688-3041.556-6208.132Z" transform="translate(3065.293 6271.513)"/></g></g></g><g transform="translate(-3272.428 -6994.3)"><g transform="translate(0 0)"><g transform="translate(38.906 49.853)"><path class="b" d="M-2936.786-6433l.031-.034c.305-.346.364-.777.131-.963-41.35-33.071-115.425-100.5-146.944-180.525-.115-.292-.506-.317-.873-.056a.974.974,0,0,0-.455,1c31.583,80.187,105.761,147.714,147.166,180.83C-2937.5-6432.57-2937.089-6432.685-2936.786-6433Z" transform="translate(3084.927 6614.764)"/></g><path class="b" d="M-3169.344-6570.164c6.383.28,12.756.62,19.39.287,3.478-.177,7-.636,10.6-1.181,1.032-.156,4.048-1.08,6.062-1.457a9.609,9.609,0,0,1,1-.143.33.33,0,0,1,.073-.006,1.317,1.317,0,0,1,.76.087c-.36-.255-.725-.509-1.1-.758a1.315,1.315,0,0,0-.115-.075c-.227-.157-.457-.306-.689-.457a71.339,71.339,0,0,0-32.434-10.739c-1.529-.119-3.065-.188-4.6-.208a11.819,11.819,0,0,0-7.121,2.382,10.489,10.489,0,0,0-1.031.877,11.753,11.753,0,0,0-.969,1.034,7.791,7.791,0,0,0-2.073,4.922C-3181.35-6571.047-3173.2-6570.334-3169.344-6570.164Z" transform="translate(3181.593 6646.721)"/><path class="b" d="M-3144.946-6500.653c6.823-.927,13.642-1.8,20.623-3.336,3.66-.8,7.317-1.875,11.032-3.036,1.1-.348,4.294-1.826,6.366-2.522.01,0,.017-.007.027-.009a3.975,3.975,0,0,1,1.678-.333.1.1,0,0,1,.035.01.153.153,0,0,0-.041-.016c-.374-.147-.755-.29-1.136-.432-.419-.15-.838-.3-1.263-.443a.2.2,0,0,0-.045-.015c-.191-.065-.381-.131-.577-.2a87.151,87.151,0,0,0-35.5-3.5c-1.641.172-3.283.4-4.915.663a13.983,13.983,0,0,0-6.637,3.055c-.169.139-.332.284-.494.436-.223.208-.437.426-.643.651-1.788,1.957-2.927,4.534-2.467,6.334C-3157.842-6499.229-3149.066-6500.1-3144.946-6500.653Z" transform="translate(3168.095 6604.984)"/><path class="b" d="M-3100.5-6438.917c6.5-.883,13-1.714,19.645-3.175,3.49-.77,6.973-1.787,10.512-2.9,1.166-.363,4.776-2.06,6.667-2.589.074-.022.129-.033.185-.05a3.082,3.082,0,0,1,.624-.105.576.576,0,0,1,.253.027c-.064-.026-.131-.05-.2-.076-.443-.172-.9-.337-1.354-.5a.043.043,0,0,0-.021-.009q-1.695-.6-3.49-1.131a83.974,83.974,0,0,0-31.678-2.663q-2.353.248-4.686.632a13.248,13.248,0,0,0-6.794,3.327,11.116,11.116,0,0,0-1.021,1.093,10.956,10.956,0,0,0-.874,1.228,6.012,6.012,0,0,0-1.068,4.332C-3112.786-6437.56-3104.427-6438.384-3100.5-6438.917Z" transform="translate(3141.143 6567.69)"/><path class="b" d="M-3049.645-6396.307c5.611-.762,11.221-1.479,16.961-2.742,3.013-.663,6.021-1.543,9.077-2.5.752-.237,2.7-1.117,4.31-1.737l.365-.138c.015,0,.03-.012.045-.016a10.251,10.251,0,0,1,1.378-.427,1.911,1.911,0,0,1,.308-.047.3.3,0,0,1,.054,0,.5.5,0,0,1,.212.023l-.275-.106c-.023-.01-.052-.02-.078-.027-.079-.034-.158-.063-.243-.092-.156-.062-.314-.119-.476-.175-.692-.253-1.4-.5-2.128-.722a.542.542,0,0,0-.072-.022,71.914,71.914,0,0,0-28.447-2.64c-1.355.144-2.7.323-4.045.549a11.433,11.433,0,0,0-5.867,2.869,9.291,9.291,0,0,0-2.282,3.3,5.974,5.974,0,0,0-.3,1.057,3.34,3.34,0,0,0,.028,1.385C-3060.25-6395.136-3053.035-6395.846-3049.645-6396.307Z" transform="translate(3109.661 6541.118)"/><path class="b" d="M-3011.8-6351.032c5.613-.761,11.221-1.479,16.966-2.743,3.008-.661,6.016-1.542,9.073-2.5.808-.253,2.982-1.25,4.65-1.869a.735.735,0,0,0,.071-.025c.04-.014.077-.03.114-.042a8.911,8.911,0,0,1,1.389-.411,1.344,1.344,0,0,1,.2-.021.346.346,0,0,1,.088,0,.41.41,0,0,1,.159.024c-.069-.025-.137-.055-.209-.077a.874.874,0,0,0-.132-.049.3.3,0,0,0-.08-.03c-.567-.221-1.148-.426-1.742-.626-.4-.136-.8-.267-1.212-.4-.041-.016-.083-.026-.126-.039a72.171,72.171,0,0,0-28.221-2.564c-1.35.143-2.7.325-4.042.545a11.459,11.459,0,0,0-5.865,2.872c-.031.028-.058.054-.087.084a9.372,9.372,0,0,0-1.007,1.125c-1.135,1.492-1.793,3.252-1.466,4.536C-3022.4-6349.861-3015.182-6350.575-3011.8-6351.032Z" transform="translate(3087.044 6514.065)"/><path class="b" d="M-2964.6-6310.749c4.9-.667,9.806-1.3,14.822-2.4,2.633-.579,5.26-1.349,7.932-2.184.772-.242,2.969-1.258,4.457-1.771.035-.013.067-.023.1-.033.089-.031.17-.058.253-.083a3.557,3.557,0,0,1,.823-.182.459.459,0,0,1,.2.02l-.154-.061c-.688-.266-1.4-.518-2.12-.754-.061-.018-.119-.039-.181-.057-.091-.034-.187-.062-.283-.089a62.869,62.869,0,0,0-24.977-2.346q-1.771.187-3.536.477a10.008,10.008,0,0,0-5.123,2.509,8.674,8.674,0,0,0-.661.692,8.279,8.279,0,0,0-.812,1.131,4.493,4.493,0,0,0-.764,3.2C-2973.866-6309.727-2967.56-6310.349-2964.6-6310.749Z" transform="translate(3057.973 6489.109)"/><path class="b" d="M-2932-6278.551c4.9-.666,9.805-1.295,14.821-2.4,2.633-.579,5.26-1.348,7.933-2.184.712-.223,2.652-1.113,4.121-1.651.038-.016.074-.027.114-.042a3.5,3.5,0,0,1,1.593-.356q-.345-.136-.7-.264-1.124-.418-2.312-.786l-.216-.066a63.136,63.136,0,0,0-24.493-2.186q-1.771.187-3.533.474a10.014,10.014,0,0,0-5.126,2.512,8.6,8.6,0,0,0-1.05,1.182,7.756,7.756,0,0,0-.7,1.147,4.058,4.058,0,0,0-.487,2.688C-2941.271-6277.528-2934.965-6278.15-2932-6278.551Z" transform="translate(3038.497 6469.87)"/><path class="b" d="M-2884.8-6242.779c4.246-.576,8.494-1.122,12.838-2.077,2.274-.5,4.553-1.166,6.865-1.889.615-.194,2.27-.952,3.534-1.419.113-.042.224-.081.331-.118.046-.014.091-.029.135-.044a2.2,2.2,0,0,1,1.048-.193c-.659-.256-1.337-.5-2.037-.728l-.28-.092c-.07-.021-.139-.045-.209-.066a54.543,54.543,0,0,0-21.476-1.976q-1.534.161-3.06.411a8.662,8.662,0,0,0-4.438,2.173,7.018,7.018,0,0,0-.652.7,6.915,6.915,0,0,0-.77,1.141,3.676,3.676,0,0,0-.513,2.509C-2892.821-6241.893-2887.36-6242.434-2884.8-6242.779Z" transform="translate(3009.479 6447.672)"/><path class="b" d="M-2833.032-6208.432c3.374-.459,6.747-.89,10.2-1.65,1.81-.4,3.62-.927,5.457-1.5.424-.134,1.474-.607,2.4-.97.369-.146.72-.274,1-.358.061-.018.114-.03.167-.043a.913.913,0,0,1,.445-.039c-.279-.109-.561-.215-.852-.312-.115-.046-.237-.087-.358-.127-.316-.109-.64-.214-.966-.317a43.432,43.432,0,0,0-16.893-1.519q-1.221.13-2.431.327a6.9,6.9,0,0,0-3.527,1.73.542.542,0,0,0-.048.047,5.551,5.551,0,0,0-.925,1.145,3.11,3.11,0,0,0-.563,2.259C-2839.409-6207.729-2835.069-6208.157-2833.032-6208.432Z" transform="translate(2977.477 6426.057)"/><path class="b" d="M-2787.429-6183.511c2.6-.352,5.2-.687,7.857-1.271,1.4-.308,2.788-.715,4.2-1.158.269-.084.869-.345,1.477-.6.095-.037.187-.076.28-.115l.166-.062a2.84,2.84,0,0,1,1.17-.313c-.681-.266-1.4-.506-2.14-.721-.131-.038-.265-.073-.4-.109-.112-.032-.223-.062-.338-.09a33.9,33.9,0,0,0-11.815-.829q-.943.1-1.874.251a5.314,5.314,0,0,0-2.716,1.33c-.037.034-.073.069-.107.105a4.378,4.378,0,0,0-.835,1.16,2.133,2.133,0,0,0-.244,1.4C-2792.342-6182.968-2789-6183.3-2787.429-6183.511Z" transform="translate(2949.275 6410.195)"/><path class="b" d="M-3149.49-6702.692q.567.513,1.156,1.01,5.236,4.411,10.469,8.829c1.357,1.143,4.929,3.2,7.378,5.232.1.083.195.167.291.247a6.1,6.1,0,0,1,2.147,2.8q-.281-1.3-.558-2.6c-.042-.218-.09-.43-.132-.644-2.705-12.94-4.918-25.8-9.171-38.1-1.361-3.934-2.964-7.917-6.089-10.459a10.187,10.187,0,0,0-12.107-.49,10.261,10.261,0,0,0-1.256,1.032,10.662,10.662,0,0,0-.852.914c-3.166,3.834-3.536,9.594-2.448,14.051A35.262,35.262,0,0,0-3149.49-6702.692Z" transform="translate(3169.417 6738.627)"/><path class="b" d="M-3066.661-6655a12.437,12.437,0,0,1-.558-2.476l-.034-.257a20.447,20.447,0,0,1-.106-2.428c.09-7.781,3.939-18.367,6.307-25.889,2.934-9.323,3.812-15.108,3.447-23.608-.121-2.827-.434-5.738-2.267-7.285-1.26-1.062-3.474-1.168-5.515-.218a7.491,7.491,0,0,0-1.066.607,7.748,7.748,0,0,0-1.513,1.365c-1.8,2.123-2.135,4.662-2.309,6.892-1.254,15.938-1.84,32.617,1.56,46.552.168.7.35,1.391.539,2.077.043.162.091.323.138.481Q-3067.422-6657.041-3066.661-6655Z" transform="translate(3115.668 6726.19)"/><path class="b" d="M-3037.009-6616.4c.056.415.113.833.176,1.244-.046-.354-.074-.721-.092-1.095,0-.025,0-.055,0-.083a24.242,24.242,0,0,1,.725-6.31c1.827-7.9,6.637-17.422,9.833-24.4,4.286-9.35,6.081-15.318,7.208-24.391.376-3.018.585-6.154-.823-8.122a3.973,3.973,0,0,0-3.408-1.491,5.267,5.267,0,0,0-1.066.129,6.774,6.774,0,0,0-3.232,1.768c-2.01,1.924-2.753,4.554-3.3,6.886-4.05,17.37-7.571,35.731-6.45,51.558q.149,2.136.417,4.207C-3037.019-6616.466-3037.014-6616.432-3037.009-6616.4Z" transform="translate(3095.585 6704.223)"/><path class="b" d="M-3035.6-6517.184c-.007-.052-.014-.1-.021-.146A1.383,1.383,0,0,0-3035.6-6517.184Z" transform="translate(3094.371 6606.399)"/><path class="b" d="M-3005.744-6561.5a15.04,15.04,0,0,1-.09-2.562c.366-8.526,6.658-20.823,10.554-29.326,4.285-9.35,6.08-15.319,7.211-24.394.373-3.016.585-6.154-.826-8.119a4.017,4.017,0,0,0-3.549-1.492,5.534,5.534,0,0,0-.857.109,6.78,6.78,0,0,0-3.3,1.786c-2.013,1.927-2.756,4.557-3.3,6.887-3.781,16.225-7.105,33.315-6.614,48.4.064,1.938.189,3.841.385,5.7.025.248.051.479.079.708C-3005.961-6563.032-3005.859-6562.261-3005.744-6561.5Z" transform="translate(3077.009 6672.168)"/><path class="b" d="M-2973.2-6491.432a11.9,11.9,0,0,1-.038-2.4c0-.012,0-.027,0-.038.5-6.339,5.025-15.2,7.858-21.384,3.2-6.989,4.547-11.451,5.39-18.236.28-2.251.44-4.6-.617-6.066a3.068,3.068,0,0,0-2.89-1.1,4.429,4.429,0,0,0-1.027.241,5.188,5.188,0,0,0-1.84,1.158,9.877,9.877,0,0,0-2.468,5.147c-2.877,12.343-5.4,25.355-4.925,36.776q.065,1.548.208,3.048a.09.09,0,0,0,.006.045,2.328,2.328,0,0,0,.022.239Q-2973.388-6492.694-2973.2-6491.432Z" transform="translate(3057.438 6620.349)"/><path class="b" d="M-2942.67-6453.137c-.018-.172-.033-.349-.049-.524a12.523,12.523,0,0,1,0-1.6c0-.023,0-.05,0-.071a26.383,26.383,0,0,1,1.284-6.1c1.665-5.263,4.561-11.058,6.586-15.484,3.2-6.989,4.546-11.452,5.387-18.233.283-2.254.44-4.6-.614-6.07a3.356,3.356,0,0,0-3.883-.865,4.988,4.988,0,0,0-1.043.509,5.626,5.626,0,0,0-.834.661,9.88,9.88,0,0,0-2.466,5.148c-3.125,13.4-5.832,27.59-4.728,39.669.011.148.024.3.041.442a.38.38,0,0,0,.01.083c.06.65.138,1.289.229,1.922C-2942.722-6453.48-2942.7-6453.307-2942.67-6453.137Z" transform="translate(3039.194 6597.444)"/><path class="b" d="M-2905.163-6394.478a.337.337,0,0,1-.007-.07,8.167,8.167,0,0,1-.058-.9,11.374,11.374,0,0,1,.076-1.46c0-.031.007-.062.014-.1a17.865,17.865,0,0,1,.319-1.833c1.072-4.777,4-10.58,5.944-14.814a44.3,44.3,0,0,0,4.334-14.665c.225-1.813.351-3.7-.5-4.881s-3.022-1.3-4.633.244c-.042.041-.08.08-.12.123a6.114,6.114,0,0,0-1.337,2.2,13.963,13.963,0,0,0-.524,1.818,143.247,143.247,0,0,0-3.883,23.344,58.2,58.2,0,0,0,.038,8.068c0,.037,0,.079.008.117.049.61.11,1.216.19,1.81.036.311.076.613.123.917A.723.723,0,0,0-2905.163-6394.478Z" transform="translate(3016.717 6556.665)"/><path class="b" d="M-2864.724-6343.062a6.553,6.553,0,0,1-.076-.774c0-.047,0-.093,0-.138-.068-4,3.052-10.07,4.952-14.223a34.508,34.508,0,0,0,3.378-11.43c.176-1.417.274-2.884-.386-3.81a2.191,2.191,0,0,0-2.708-.431,3.342,3.342,0,0,0-.9.624,4.148,4.148,0,0,0-.467.536,7.239,7.239,0,0,0-1.079,2.691c-.933,4-1.8,8.108-2.388,12.133a.179.179,0,0,0-.009.06,55.559,55.559,0,0,0-.583,12.537c.037.42.083.838.134,1.25,0,.056.013.1.019.156Q-2864.786-6343.466-2864.724-6343.062Z" transform="translate(2992.505 6520.838)"/><path class="b" d="M-2830.566-6300.887l.028.182c-.01-.056-.015-.118-.022-.177a3.838,3.838,0,0,1-.025-.433,9.846,9.846,0,0,1,.381-2.628,57.481,57.481,0,0,1,3.482-8.47,26.906,26.906,0,0,0,2.631-8.913,4.413,4.413,0,0,0-.3-2.968,1.352,1.352,0,0,0-.916-.523,2.013,2.013,0,0,0-1.049.123,2.6,2.6,0,0,0-.85.548,4.832,4.832,0,0,0-1.2,2.516,78.307,78.307,0,0,0-2.431,16.043,29.829,29.829,0,0,0,.237,4.434C-2830.59-6301.065-2830.58-6300.975-2830.566-6300.887Z" transform="translate(2972.017 6491.384)"/><path class="b" d="M-2830.077-6264.871a.569.569,0,0,0,.01.091A.569.569,0,0,1-2830.077-6264.871Z" transform="translate(2971.557 6455.551)"/><path class="b" d="M-2796.469-6268.329c-.014-.094-.029-.188-.036-.287a1.409,1.409,0,0,1-.012-.184c-.112-1.834.719-4.289,1.734-6.678.7-1.661,1.494-3.289,2.118-4.648a26.909,26.909,0,0,0,2.631-8.914,4.411,4.411,0,0,0-.3-2.968,1.123,1.123,0,0,0-.2-.214,1.47,1.47,0,0,0-.856-.328,2.322,2.322,0,0,0-1.757.689,4.809,4.809,0,0,0-1.205,2.515c-1.45,6.221-2.718,12.794-2.381,18.5.041.689.1,1.365.194,2.026.01.067.016.136.029.2C-2796.5-6268.524-2796.485-6268.425-2796.469-6268.329Z" transform="translate(2951.667 6472.093)"/><path class="b" d="M-2762.407-6236.042a4.984,4.984,0,0,1-.056-.572,5.758,5.758,0,0,1,.008-.6c0-.057.006-.116.012-.179a11.875,11.875,0,0,1,.444-2.291,61.247,61.247,0,0,1,3.395-8.155,26.834,26.834,0,0,0,2.633-8.911,4.412,4.412,0,0,0-.3-2.968,1.057,1.057,0,0,0-.21-.222,1.51,1.51,0,0,0-.948-.324,2.337,2.337,0,0,0-1.658.692,4.826,4.826,0,0,0-1.2,2.516,82.887,82.887,0,0,0-2.4,15.039,32.735,32.735,0,0,0,.1,4.5c.005.068.011.137.021.2.022.24.05.473.079.708C-2762.463-6236.418-2762.437-6236.231-2762.407-6236.042Z" transform="translate(2931.314 6452.801)"/></g><g transform="translate(2.078 2.796)"><g transform="translate(37.138 47.514)"><path class="b" d="M-2936.017-6431.869l.031-.035c.305-.345.364-.777.131-.963-41.35-33.071-115.425-100.5-146.944-180.525-.116-.292-.506-.318-.872-.056a.973.973,0,0,0-.455,1c31.583,80.187,105.76,147.714,147.165,180.829C-2936.735-6431.435-2936.32-6431.55-2936.017-6431.869Z" transform="translate(3084.158 6613.629)"/></g><g transform="translate(9.124)"><path class="b" d="M-3124.64-6683.971l-.054-.189c-.032-.123-.065-.246-.1-.37a103.76,103.76,0,0,0-12.959-29.242,82.9,82.9,0,0,0-15.156-17.908,10.775,10.775,0,0,0-.852.914,82.275,82.275,0,0,1,15.3,18.153,103.918,103.918,0,0,1,12.588,28.482c.066.225.125.453.188.68l.057.21C-3125.479-6682.693-3124.493-6683.428-3124.64-6683.971Z" transform="translate(3153.76 6731.681)"/></g><g transform="translate(0 62.372)"><path class="b" d="M-3176.43-6575.679c1.355.052,2.7.125,4.049.181,5.2.216,10.391.474,15.454,1a86.4,86.4,0,0,1,26.717,6.828c.472.211.941.431,1.406.652a.9.9,0,0,1,.1.047c.117.053.229.107.343.164.481.237,1.156-.793.677-1.023q-.938-.457-1.895-.886l-.1-.043c-.2-.087-.393-.177-.592-.261a87.8,87.8,0,0,0-26.206-6.545c-5.253-.54-10.641-.8-16.04-1.021-.979-.041-1.957-.087-2.941-.122A11.79,11.79,0,0,0-3176.43-6575.679Z" transform="translate(3176.43 6576.713)"/></g><g transform="translate(9.584 89.809)"><path class="b" d="M-3152.619-6505.836c5.494-.62,10.85-.547,16.165-1.061a96.047,96.047,0,0,1,16.317-.381c5.638.42,11.254.884,16.881,1.328a.071.071,0,0,1,.025,0,.758.758,0,0,0,.683-.544c.091-.254.041-.5-.236-.523-.377-.029-.754-.059-1.129-.091a.142.142,0,0,1-.039,0c-.162-.009-.323-.024-.482-.036-5.274-.421-10.537-.861-15.83-1.242a104.058,104.058,0,0,0-16.957.539c-4.724.446-9.442.454-14.261.925-.169.14-.332.284-.494.436Q-3152.311-6506.175-3152.619-6505.836Z" transform="translate(3152.619 6508.545)"/></g><g transform="translate(26.336 115.055)"><path class="b" d="M-3111-6441.783a79.4,79.4,0,0,1,16.019-2.218c5.745-.359,11.493-.7,17.123-.746,2.761-.021,5.494.031,8.178.19a36.741,36.741,0,0,1,7.638.866.043.043,0,0,1,.021.009c.09.022.173.049.258.077a1.2,1.2,0,0,1,.115.035.56.56,0,0,0,.508-.14.349.349,0,0,0,.058-.049c.291-.271.446-.729.111-.839a13.836,13.836,0,0,0-2.048-.485c-.955-.156-1.941-.244-2.928-.316-.717-.051-1.437-.1-2.14-.146-2.764-.2-5.584-.277-8.437-.274-5.717.012-11.559.347-17.407.712-5.3.332-10.586.63-16.2,2.1A10.88,10.88,0,0,0-3111-6441.783Z" transform="translate(3110.996 6445.819)"/></g><g transform="translate(46.434 133.72)"><path class="b" d="M-3061.062-6394.741c14.366-2.392,28.643-4.344,41.852-3.387.174.01.339.022.5.041a.139.139,0,0,1,.059,0c.171.007.339.022.507.038.356.027.66-.348.717-.663a.393.393,0,0,0-.022-.251.268.268,0,0,0-.245-.157c-.078,0-.154-.014-.232-.018-.547-.046-1.1-.086-1.651-.12-.021,0-.039,0-.057,0-13.008-.812-27.031,1.115-41.132,3.458A5.967,5.967,0,0,0-3061.062-6394.741Z" transform="translate(3061.062 6399.446)"/></g><g transform="translate(63.16 150.858)"><path class="b" d="M-3019.5-6354.229c6.013-.692,11.945-1.024,17.789-1.347a107.019,107.019,0,0,1,22.809.867.52.52,0,0,1,.108.016,1.513,1.513,0,0,1,.178.031c.245.036.481.076.72.118.306.054.577-.236.668-.529a.513.513,0,0,0,.029-.156.159.159,0,0,0,0-.059.325.325,0,0,0-.023-.125.245.245,0,0,0-.148-.169.39.39,0,0,0-.084-.029c-.009,0-.022,0-.031-.006-.484-.084-.969-.165-1.46-.238-.329-.053-.664-.1-1-.145a.538.538,0,0,0-.106-.014,111.952,111.952,0,0,0-21.821-.593c-5.472.318-11.014.634-16.63,1.253A9.372,9.372,0,0,0-3019.5-6354.229Z" transform="translate(3019.505 6356.866)"/></g><g transform="translate(82.031 167.807)"><path class="b" d="M-2972.619-6312.123c12.587-1.9,24.546-1.667,36.357-1.355l.131,0,.339.011.375.009a.642.642,0,0,0,.448-.191.36.36,0,0,0,.04-.038.822.822,0,0,0,.243-.559.252.252,0,0,0-.262-.276l-.02,0-2.212-.058-.126,0-.2,0c-11.146-.286-22.447-.4-34.3,1.333A8.279,8.279,0,0,0-2972.619-6312.123Z" transform="translate(2972.619 6314.754)"/></g><g transform="translate(94.872 180.412)"><path class="b" d="M-2940.714-6279.942a94.344,94.344,0,0,1,13.975-2.2c7.538-.5,14.764-.01,22.037.181a1.237,1.237,0,0,0,.16,0c.24.009.484.015.727.021a.671.671,0,0,0,.528-.282.815.815,0,0,0,.206-.484.265.265,0,0,0-.068-.214.079.079,0,0,0-.031-.03.3.3,0,0,0-.187-.057c-.776-.016-1.535-.038-2.291-.063l-.156,0c-6.936-.223-13.858-.646-21.079-.09a97.009,97.009,0,0,0-13.124,2.071A7.759,7.759,0,0,0-2940.714-6279.942Z" transform="translate(2940.714 6283.436)"/></g><g transform="translate(114.435 194.956)"><path class="b" d="M-2892.11-6244.34a104.756,104.756,0,0,1,31.407-1.2c.18.021.357.045.534.075.075.007.149.015.218.028.18.021.36.047.539.073.574.084,1.017-.982.447-1.067-.788-.113-1.579-.218-2.383-.307-.067-.012-.142-.02-.211-.028-.052,0-.1-.01-.156-.016a106.438,106.438,0,0,0-29.625,1.3A6.96,6.96,0,0,0-2892.11-6244.34Z" transform="translate(2892.11 6247.3)"/></g><g transform="translate(136.03 209.001)"><path class="b" d="M-2838.455-6210.167a84.68,84.68,0,0,1,24.388-.533c.576.079,1.149.167,1.716.267.091.018.186.032.277.05.186.031.368.066.551.1.453.09,1-.594.86-.9a.206.206,0,0,0-.123-.11.428.428,0,0,0-.063-.02q-1.392-.266-2.815-.464l-.256-.035c-.236-.033-.472-.062-.709-.091a86.8,86.8,0,0,0-22.9.585A5.559,5.559,0,0,0-2838.455-6210.167Z" transform="translate(2838.455 6212.407)"/></g><g transform="translate(154.695 219.233)"><path class="b" d="M-2792.082-6184.748a52.544,52.544,0,0,1,18.611-.607c.178.031.357.063.538.1.1.021.207.04.309.062.243.046.482.095.724.146.406.085.887-.454.878-.786a.229.229,0,0,0-.2-.24l-.114-.021q-1.309-.283-2.655-.467c-.106-.014-.207-.029-.316-.04-.089-.015-.179-.026-.274-.036a54.585,54.585,0,0,0-16.662.733A4.388,4.388,0,0,0-2792.082-6184.748Z" transform="translate(2792.082 6186.985)"/></g><g transform="translate(166.17 189.738)"><path class="b" d="M-2763-6236.6a.128.128,0,0,0,.027-.009.968.968,0,0,0,.387-.278.626.626,0,0,0,.078-.117.525.525,0,0,0,.071-.33,13.228,13.228,0,0,1-.071-2.347c.229-4.234,2.2-8.943,3.714-13.461a52.746,52.746,0,0,0,1.8-6.795,1.509,1.509,0,0,0-.948-.324,62.269,62.269,0,0,1-2.533,9.225,65.806,65.806,0,0,0-2.73,9.021,17.92,17.92,0,0,0-.363,4.1c0,.068,0,.135.007.2.016.3.043.593.078.886C-2763.444-6236.573-2763.223-6236.525-2763-6236.6Z" transform="translate(2763.572 6260.265)"/></g><g transform="translate(152.307 176.747)"><path class="b" d="M-2796.979-6268.375c.011-.059.019-.1.028-.147q.668-3.461,1.437-6.947,1.834-8.325,4.248-16.745a1.474,1.474,0,0,0-.856-.328q-3.16,10.929-5.343,21.7c-.111.521-.215,1.046-.315,1.567-.011.047-.02.1-.027.146-.066.329-.133.658-.194.985C-2798.13-6267.475-2797.121-6267.716-2796.979-6268.375Z" transform="translate(2798.014 6292.542)"/></g><g transform="translate(138.309 163.748)"><path class="b" d="M-2831.877-6300.87a.443.443,0,0,0,.058-.1.521.521,0,0,0,.051-.183.064.064,0,0,0,0-.02c0-.048.008-.1.015-.142.087-.868.218-1.746.381-2.628.708-3.89,2.038-7.9,3.154-11.878a50.471,50.471,0,0,0,1.555-7.147c.031-.236.088-.947.188-1.849a2.014,2.014,0,0,0-1.049.123,57.422,57.422,0,0,1-.961,6.23c-1.021,4.272-2.557,8.627-3.523,12.876-.29,1.269-.528,2.528-.686,3.772-.006.046-.012.092-.017.139-.031.252-.061.507-.084.755C-2832.841-6300.391-2832.159-6300.463-2831.877-6300.87Z" transform="translate(2832.794 6324.84)"/></g><g transform="translate(124.348 144.175)"><path class="b" d="M-2867.25-6342.269a.9.9,0,0,0,.81-.792c0-.2,0-.406.011-.611a.821.821,0,0,1,0-.136c0-.358.015-.718.032-1.081a123.174,123.174,0,0,1,2.127-15.761,71.753,71.753,0,0,1,3.3-12.82,3.341,3.341,0,0,0-.9.624,4.092,4.092,0,0,0-.467.536,75.014,75.014,0,0,0-2.957,11.91q-.26,1.456-.511,2.914a.179.179,0,0,0-.009.06,104.9,104.9,0,0,0-1.6,12.606,1.181,1.181,0,0,0-.005.127q-.054,1.08-.06,2.137a.169.169,0,0,0,0,.055A.228.228,0,0,0-2867.25-6342.269Z" transform="translate(2867.481 6373.469)"/></g><g transform="translate(108.716 121.042)"><path class="b" d="M-2905.7-6393.589a.1.1,0,0,0,.071.026c.255.057.7-.3.8-.661.008-.027.013-.057.019-.086a.553.553,0,0,0-.009-.17,16.848,16.848,0,0,1-.4-2.473c-.6-6.507,1.9-14.311,3.092-21.428.705-4.2,1.212-8.357,1.937-12.566a6.112,6.112,0,0,0-1.337,2.2c-.6,3.739-1.078,7.455-1.724,11.2-.795,4.6-2.054,9.4-2.683,13.961a31.009,31.009,0,0,0-.241,7.759c.006.041.012.081.016.125a17.239,17.239,0,0,0,.352,1.952A.225.225,0,0,0-2905.7-6393.589Z" transform="translate(2906.32 6430.946)"/></g><g transform="translate(93.858 92.558)"><path class="b" d="M-2942.719-6453.28a.031.031,0,0,0,.024-.006.742.742,0,0,0,.489-.59c.014-.125.027-.245.042-.369,0-.021,0-.043.008-.067q.378-3.374.752-6.751.6-5.36,1.2-10.73a82.34,82.34,0,0,1,1.261-8.341c.645-2.988,1.71-6.033,2.632-9.063a74.172,74.172,0,0,0,2.384-12.517,4.969,4.969,0,0,0-1.043.509,73.847,73.847,0,0,1-1.6,9.567c-.833,3.265-2.1,6.592-2.948,9.863a65.338,65.338,0,0,0-1.531,8.7c-.7,5.794-1.31,11.571-1.948,17.347-.012.115-.022.227-.039.343a.378.378,0,0,1-.006.069l-.186,1.689C-2943.27-6453.279-2942.992-6453.188-2942.719-6453.28Z" transform="translate(2943.234 6501.715)"/></g><g transform="translate(81.088 76.901)"><path class="b" d="M-2974.2-6493.96a.506.506,0,0,0,.088-.089.043.043,0,0,0,.017-.018.7.7,0,0,0,.168-.354q2.507-15.513,6.105-31.292,1.7-7.43,3.646-14.9a4.4,4.4,0,0,0-1.027.241q-1.254,4.832-2.41,9.647-4.038,16.852-6.823,33.434-.192,1.131-.378,2.268c0,.01,0,.021,0,.031q-.067.411-.134.823C-2975.033-6493.7-2974.537-6493.687-2974.2-6493.96Z" transform="translate(2974.963 6540.615)"/></g><g transform="translate(67.964 41.978)"><path class="b" d="M-3006.651-6563.795a.664.664,0,0,0,.132-.382c-.171-6.008,1.71-12.7,3.1-19.143,1.452-6.726,2.153-13.253,3.761-20.021,1.882-7.942,4.189-15.988,6.608-24.043a5.463,5.463,0,0,0-.857.108q-.484,1.64-.963,3.273c-2.117,7.207-4.31,14.439-5.971,21.573-1.621,6.969-2.3,13.7-3.895,20.655-.883,3.852-1.837,7.778-2.383,11.567a44.049,44.049,0,0,0-.429,4.471c-.026.7-.034,1.379-.014,2.048C-3007.544-6563.214-3006.928-6563.4-3006.651-6563.795Z" transform="translate(3007.57 6627.384)"/></g><g transform="translate(44.542 6.232)"><path class="b" d="M-3063.35-6653.966a.525.525,0,0,0,.131-.44c-.067-.352-.136-.7-.2-1.052-.021-.095-.04-.193-.059-.292-.216-1.144-.42-2.292-.6-3.447a44,44,0,0,1-.49-10.605c.217-2.569.721-5.225,1.005-7.817.3-2.734.375-5.392.466-8.052q.289-8.606.561-17.2c.139-4.435.342-8.9.43-13.32a7.455,7.455,0,0,0-1.066.607c-.3,11.064-.6,22.138-1.068,33.268-.214,5.124-1.395,10.563-1.516,15.649a39.451,39.451,0,0,0,.323,5.891c.052.435.109.869.175,1.3.015.1.028.206.049.306.266,1.784.61,3.526.945,5.273C-3064.181-6653.493-3063.617-6653.638-3063.35-6653.966Z" transform="translate(3065.763 6716.197)"/></g><g transform="translate(55.677 20.38)"><path class="b" d="M-3037.079-6615a.571.571,0,0,0,.121-.414c-.021-.17-.039-.343-.057-.516,0-.032,0-.062-.008-.094a26.972,26.972,0,0,1,.553-6.611c.34-1.86.758-3.727,1.083-5.458,2.262-12,5.168-24.17,8.06-36.31.946-3.969,1.933-7.945,2.827-11.906.363-1.6.636-3.175.841-4.731a5.271,5.271,0,0,0-1.066.129,57.7,57.7,0,0,1-1.076,6.058c-2.473,10.584-5.081,21.19-7.426,31.745-1.323,5.95-2.6,11.894-3.647,17.78-.263,1.484-.584,3.063-.833,4.63-.156.975-.281,1.938-.343,2.87a.607.607,0,0,0-.005.076,14.577,14.577,0,0,0,.056,2.84C-3037.938-6614.478-3037.346-6614.648-3037.079-6615Z" transform="translate(3038.098 6681.044)"/></g></g></g><g transform="translate(-3153.415 -7166.521)"><g transform="translate(55.558 97.293)"><path class="b" d="M-2634-6510.431l.051-.02a.994.994,0,0,0,.523-1.305c-38.314-89.59-103.871-262.259-112.451-412.1a1,1,0,0,0-1.05-.936,1,1,0,0,0-.936,1.049c8.6,150.143,74.242,323.058,112.608,412.767A.994.994,0,0,0-2634-6510.431Z" transform="translate(2747.86 6924.792)"/></g><path class="b" d="M-2872.6-6931.625c7.73,6.653,15.425,13.383,23.695,19.367,4.335,3.134,8.835,5.9,13.45,8.594,1.326.776,5.376,2.347,7.99,3.754a14.319,14.319,0,0,1,1.286.769.483.483,0,0,1,.091.063,2.647,2.647,0,0,1,.9.872q-.519-1.1-1.062-2.2c-.038-.076-.072-.154-.113-.224-.219-.454-.445-.9-.674-1.352-8.684-17.16-21.442-34.559-35.773-47.658q-2.748-2.506-5.568-4.8a13.781,13.781,0,0,0-9.638-3.411,8.275,8.275,0,0,0-1.6.3,9.158,9.158,0,0,0-1.579.592,7.818,7.818,0,0,0-4.4,5.3C-2887.006-6944.665-2877.269-6935.643-2872.6-6931.625Z" transform="translate(2885.795 7041.863)"/><path class="b" d="M-2869.774-6801.088c8.724,5.285,17.423,10.648,26.571,15.181,4.795,2.378,9.687,4.356,14.684,6.259,1.485.56,5.958,1.479,8.764,2.466.013.006.024.007.037.013a5.569,5.569,0,0,1,2.186,1.146.276.276,0,0,1,.039.049.409.409,0,0,0-.044-.063c-.4-.583-.817-1.167-1.232-1.752-.458-.632-.916-1.264-1.384-1.893a.477.477,0,0,0-.051-.066c-.209-.284-.419-.567-.634-.854-11.311-15.058-26.38-29.6-42.258-39.872q-3.119-2.022-6.282-3.816a14.2,14.2,0,0,0-9.3-1.937c-.26.042-.514.1-.771.165a8.8,8.8,0,0,0-1.035.341,8.268,8.268,0,0,0-5.411,7.013C-2886.14-6811.565-2875.042-6804.283-2869.774-6801.088Z" transform="translate(2885.898 6963.292)"/><path class="b" d="M-2838.143-6666.51c8.309,5.033,16.6,10.144,25.309,14.465,4.573,2.264,9.231,4.152,13.993,5.961,1.568.6,6.639,1.6,9.158,2.661l.019.009c.079.029.151.066.226.1a4.343,4.343,0,0,1,.805.453,1.164,1.164,0,0,1,.3.287c-.069-.1-.142-.2-.211-.3-.479-.688-.973-1.376-1.474-2.066a.122.122,0,0,0-.023-.034q-1.853-2.555-3.858-5.091a162.6,162.6,0,0,0-37.884-34.906q-2.982-1.928-5.989-3.636a13.118,13.118,0,0,0-9.592-1.687,8.539,8.539,0,0,0-1.665.629,8.7,8.7,0,0,0-1.535.973,7.318,7.318,0,0,0-2.941,5.4C-2853.735-6676.492-2843.164-6669.553-2838.143-6666.51Z" transform="translate(2866.544 6882.166)"/><path class="b" d="M-2790.927-6555.323c7.175,4.347,14.331,8.759,21.852,12.488,3.948,1.958,7.971,3.586,12.083,5.15,1.012.382,3.731.973,5.943,1.626.178.052.34.1.5.151.019.009.041.011.06.02a12.29,12.29,0,0,1,1.852.711,2.884,2.884,0,0,1,.4.231.4.4,0,0,1,.066.05,1.02,1.02,0,0,1,.252.241c-.1-.144-.2-.282-.3-.426-.025-.038-.056-.08-.085-.117-.083-.128-.17-.25-.264-.375-.169-.246-.341-.484-.519-.726q-1.132-1.58-2.341-3.152a1.168,1.168,0,0,0-.08-.1,140.574,140.574,0,0,0-33.926-31.713q-2.576-1.663-5.171-3.136a11.332,11.332,0,0,0-8.282-1.461,7.6,7.6,0,0,0-4.044,2.682,6.843,6.843,0,0,0-.766,1.279,5.643,5.643,0,0,0-.487,2.089C-2804.386-6563.939-2795.262-6557.949-2790.927-6555.323Z" transform="translate(2837.075 6813.76)"/><path class="b" d="M-2761.505-6451c7.176,4.352,14.331,8.759,21.858,12.491,3.941,1.954,7.965,3.582,12.076,5.146,1.087.413,4.131,1.054,6.412,1.763a.971.971,0,0,0,.1.033c.054.017.106.03.156.049a10.906,10.906,0,0,1,1.859.745,2.252,2.252,0,0,1,.256.166.6.6,0,0,1,.109.082.862.862,0,0,1,.186.191c-.075-.1-.147-.217-.228-.319a2.153,2.153,0,0,0-.142-.2.81.81,0,0,0-.087-.122c-.613-.882-1.249-1.756-1.9-2.634q-.657-.887-1.339-1.771c-.044-.063-.091-.12-.14-.182a140.741,140.741,0,0,0-33.677-31.381q-2.566-1.66-5.167-3.137a11.337,11.337,0,0,0-8.28-1.457,1.152,1.152,0,0,0-.139.04,7.221,7.221,0,0,0-1.659.689,6.6,6.6,0,0,0-3.506,5.317C-2774.964-6459.616-2765.835-6453.627-2761.505-6451Z" transform="translate(2819.495 6751.424)"/><path class="b" d="M-2718.071-6346.465c6.271,3.8,12.524,7.651,19.1,10.911,3.45,1.71,6.965,3.132,10.559,4.5,1.038.394,4.117,1.028,6.137,1.72.047.014.09.03.134.046.12.041.23.081.341.124a4.806,4.806,0,0,1,1.078.533.92.92,0,0,1,.234.222c-.055-.08-.112-.16-.167-.241q-1.117-1.6-2.318-3.192c-.068-.086-.132-.174-.2-.26-.1-.139-.206-.274-.313-.409a123.053,123.053,0,0,0-29.778-27.888q-2.244-1.451-4.52-2.743a9.9,9.9,0,0,0-7.233-1.271,6.723,6.723,0,0,0-1.072.385,6.65,6.65,0,0,0-1.422.89,5.515,5.515,0,0,0-2.141,4.01C-2729.832-6354-2721.857-6348.762-2718.071-6346.465Z" transform="translate(2792.544 6687.397)"/><path class="b" d="M-2690.176-6266.727c6.271,3.8,12.524,7.651,19.1,10.911,3.45,1.71,6.965,3.132,10.56,4.5.958.364,3.675.935,5.679,1.568.052.013.1.032.156.049a4.744,4.744,0,0,1,2.089,1.027q-.372-.54-.757-1.073-1.223-1.721-2.542-3.429l-.24-.31a122.954,122.954,0,0,0-29.243-27.177q-2.245-1.452-4.516-2.745a9.906,9.906,0,0,0-7.238-1.271,6.643,6.643,0,0,0-1.733.733,6.57,6.57,0,0,0-1.288,1.025,5.337,5.337,0,0,0-1.609,3.524C-2701.937-6274.259-2693.962-6269.023-2690.176-6266.727Z" transform="translate(2775.876 6639.752)"/><path class="b" d="M-2645.078-6168.788c5.429,3.29,10.848,6.626,16.541,9.45,2.979,1.48,6.028,2.712,9.138,3.9.828.313,3.145.8,4.871,1.341.155.049.306.1.451.147.062.025.122.045.183.065a3.144,3.144,0,0,1,1.359.737q-1.069-1.538-2.227-3.072l-.309-.411c-.079-.1-.154-.2-.232-.3a106.5,106.5,0,0,0-25.619-23.916q-1.944-1.259-3.911-2.378a8.578,8.578,0,0,0-6.266-1.1,5.431,5.431,0,0,0-1.062.4,5.656,5.656,0,0,0-1.375.946,4.7,4.7,0,0,0-1.573,3.231C-2655.263-6175.308-2648.355-6170.778-2645.078-6168.788Z" transform="translate(2747.999 6579.775)"/><path class="b" d="M-2593.65-6068.965c4.313,2.612,8.616,5.266,13.138,7.506,2.372,1.178,4.793,2.157,7.264,3.1.571.215,2.038.537,3.308.9.508.143.987.3,1.364.444.081.034.151.066.221.1a1.461,1.461,0,0,1,.561.377c-.3-.435-.608-.868-.928-1.3-.125-.182-.259-.361-.393-.54-.347-.472-.7-.944-1.067-1.416a84.614,84.614,0,0,0-20.166-18.761q-1.547-1-3.107-1.888a6.82,6.82,0,0,0-4.98-.871.4.4,0,0,0-.076.022,4.336,4.336,0,0,0-1.566.8,3.776,3.776,0,0,0-1.541,2.812C-2601.744-6074.146-2596.253-6070.545-2593.65-6068.965Z" transform="translate(2716.039 6518.195)"/><path class="b" d="M-2546.338-5988.982c3.324,2.016,6.64,4.055,10.123,5.786,1.828.9,3.691,1.659,5.6,2.382.362.138,1.2.336,2.038.553.13.037.258.07.387.1l.227.07a3.663,3.663,0,0,1,1.554.677q-1.1-1.589-2.355-3.163c-.147-.184-.3-.367-.452-.555-.125-.155-.251-.311-.381-.465a64.671,64.671,0,0,0-14.192-12.773c-.8-.514-1.593-1-2.394-1.455a5.26,5.26,0,0,0-3.835-.676c-.058.016-.116.031-.172.052a3.537,3.537,0,0,0-1.463.909,2.835,2.835,0,0,0-.826,1.842C-2552.573-5992.974-2548.342-5990.2-2546.338-5988.982Z" transform="translate(2686.678 6468.688)"/><path class="b" d="M-2802.044-7109.216c.336.877.683,1.757,1.04,2.632q4.768,11.676,9.529,23.361c1.236,3.026,4.848,9.573,7.089,14.99.091.221.176.438.264.65,1.022,2.57,1.69,4.834,1.582,6.266.1-1.476.194-2.95.294-4.416.031-.366.052-.728.08-1.087,1.549-21.894,3.672-43.187,3.077-65.632-.191-7.181-.659-14.673-3.539-21.508s-8.815-12.8-14.678-12.554a8.2,8.2,0,0,0-1.931.308,8.2,8.2,0,0,0-1.39.528c-5.33,2.611-7.951,10.818-8.293,18.511C-2809.5-7134.207-2806.786-7121.574-2802.044-7109.216Z" transform="translate(2839.949 7166.521)"/><path class="b" d="M-2736.179-6958.911a26.3,26.3,0,0,1,.246-4.229l.054-.417a35.752,35.752,0,0,1,.782-3.715c3.039-11.487,11.748-23.476,17.484-32.354,7.11-11,10.364-18.753,13.114-31.755.915-4.324,1.626-8.96-.041-13.052a9.7,9.7,0,0,0-6.687-5.71,6.751,6.751,0,0,0-1.538-.138,6.051,6.051,0,0,0-2.371.553c-3.009,1.4-4.375,4.851-5.428,8-7.536,22.484-14.532,46.726-15.6,70.777-.057,1.207-.094,2.411-.12,3.616-.008.283-.009.569-.012.852Q-2736.347-6962.687-2736.179-6958.911Z" transform="translate(2796.516 7097.067)"/><path class="b" d="M-2722.729-6863.953c-.088.672-.174,1.349-.251,2.023.077-.573.18-1.146.3-1.719.007-.039.017-.085.028-.126a34.452,34.452,0,0,1,3.264-8.679c5.214-9.963,14.7-19.437,21.253-26.7,8.778-9.723,13.228-16.85,18.026-29.244,1.6-4.124,3.034-8.585,2.046-12.887a9.936,9.936,0,0,0-3.623-5.548,7.912,7.912,0,0,0-1.357-.849,6.38,6.38,0,0,0-4.633-.527c-3.191.9-5.093,4.086-6.641,7.022-11.507,21.885-22.739,45.761-27.318,70.4q-.621,3.324-1.071,6.667C-2722.717-6864.063-2722.723-6864.009-2722.729-6863.953Z" transform="translate(2788.553 7036.207)"/><path class="b" d="M-2723.054-6733.282c.012-.083.021-.161.029-.238C-2723.038-6733.441-2723.047-6733.364-2723.054-6733.282Z" transform="translate(2788.596 6907.798)"/><path class="b" d="M-2705.011-6751.739a25.919,25.919,0,0,1,.853-3.9c3.658-12.327,16.008-24.475,23.991-33.32,8.779-9.723,13.228-16.851,18.031-29.246,1.592-4.122,3.033-8.585,2.041-12.886a9.955,9.955,0,0,0-3.795-5.687,8.341,8.341,0,0,0-1.093-.676,6.417,6.417,0,0,0-4.72-.563c-3.2.9-5.1,4.088-6.642,7.022-10.747,20.443-21.258,42.622-26.33,65.536-.65,2.947-1.214,5.9-1.673,8.861a.038.038,0,0,0,0,.022q-.09.557-.167,1.109C-2704.7-6754.228-2704.867-6752.982-2705.011-6751.739Z" transform="translate(2777.816 6970.369)"/><path class="b" d="M-2682.493-6620.32a20.024,20.024,0,0,1,.855-3.6c0-.018.013-.037.017-.054,3-8.943,11.888-17.707,17.693-24.138a62.075,62.075,0,0,0,13.479-21.863c1.191-3.076,2.27-6.412,1.525-9.628a7.414,7.414,0,0,0-3.134-4.456,5.765,5.765,0,0,0-1.352-.645,4.576,4.576,0,0,0-2.7-.075c-2.391.671-3.813,3.053-4.966,5.246-8.176,15.553-16.169,32.446-19.884,49.9q-.5,2.366-.891,4.739a.161.161,0,0,0-.01.072c-.028.127-.046.25-.063.378C-2682.143-6623.073-2682.335-6621.7-2682.493-6620.32Z" transform="translate(2764.361 6878.776)"/><path class="b" d="M-2659.424-6533.544c.043-.275.09-.551.137-.828a20.641,20.641,0,0,1,.606-2.386c.009-.035.022-.071.032-.1a33.107,33.107,0,0,1,3.873-7.822c4.024-6.205,9.759-12,13.911-16.6a62.009,62.009,0,0,0,13.474-21.862c1.2-3.077,2.27-6.412,1.531-9.629a7.2,7.2,0,0,0-4.442-5.08,4.889,4.889,0,0,0-1.472-.263,4.561,4.561,0,0,0-1.272.168c-2.386.67-3.809,3.052-4.964,5.252-8.878,16.877-17.54,35.349-20.731,54.4-.042.233-.083.47-.115.7a.694.694,0,0,0-.02.134c-.171,1.025-.315,2.052-.442,3.083C-2659.36-6534.107-2659.394-6533.825-2659.424-6533.544Z" transform="translate(2750.577 6826.894)"/><path class="b" d="M-2630.3-6412.32a.649.649,0,0,1,.017-.112c.064-.462.155-.924.266-1.388a17.414,17.414,0,0,1,.642-2.1c.016-.043.032-.086.053-.13a23.521,23.521,0,0,1,1.082-2.417c3.114-6.059,8.894-11.83,12.871-16.233a49.973,49.973,0,0,0,10.839-17.582c.959-2.478,1.823-5.158,1.228-7.747s-3.221-4.884-5.779-4.163c-.067.02-.128.042-.193.065a5.214,5.214,0,0,0-2.469,1.965,15.925,15.925,0,0,0-1.328,2.194c-5.127,9.751-10.167,20.163-13.551,30.935a96.578,96.578,0,0,0-2.99,12.041c-.011.057-.025.12-.034.182-.17.956-.322,1.917-.448,2.878-.073.5-.137.987-.194,1.484A1.2,1.2,0,0,0-2630.3-6412.32Z" transform="translate(2733.175 6746.949)"/><path class="b" d="M-2595.383-6298.751a12.166,12.166,0,0,1,.2-1.227c.017-.07.034-.139.052-.2,1.421-6.012,7.535-12,11.431-16.321a38.926,38.926,0,0,0,8.448-13.7c.749-1.936,1.422-4.023.959-6.045a4.438,4.438,0,0,0-3.163-3.287,2.838,2.838,0,0,0-1.344.046,3.185,3.185,0,0,0-.775.341,7.266,7.266,0,0,0-2.338,2.949c-2.65,5.037-5.266,10.3-7.5,15.718a.237.237,0,0,0-.034.081,86.269,86.269,0,0,0-5.433,18.081c-.113.661-.214,1.328-.306,1.991-.017.085-.024.167-.036.25Q-2595.308-6299.414-2595.383-6298.751Z" transform="translate(2712.312 6672.424)"/><path class="b" d="M-2565.638-6204.539c-.011.1-.023.2-.034.3.008-.094.026-.189.039-.285.034-.224.076-.445.132-.667a13.451,13.451,0,0,1,1.456-3.537c1.953-3.438,5.193-6.685,7.461-9.2a30.363,30.363,0,0,0,6.584-10.69,8.194,8.194,0,0,0,.749-4.708,3.593,3.593,0,0,0-.928-1.672,3.051,3.051,0,0,0-1.334-.842,2.257,2.257,0,0,0-1.249-.015,4.551,4.551,0,0,0-2.424,2.567c-3.54,6.732-7.017,13.986-9.021,21.492a52.5,52.5,0,0,0-1.378,6.827C-2565.6-6204.828-2565.622-6204.683-2565.638-6204.539Z" transform="translate(2694.559 6610.486)"/><path class="b" d="M-2565.7-6157.172a1.16,1.16,0,0,0-.021.146A1.16,1.16,0,0,1-2565.7-6157.172Z" transform="translate(2694.588 6563.421)"/><path class="b" d="M-2536.062-6122.8c.018-.154.035-.309.064-.462a2.542,2.542,0,0,1,.055-.285c.553-2.837,2.5-5.679,4.642-8.24,1.486-1.786,3.071-3.433,4.35-4.847a30.373,30.373,0,0,0,6.584-10.69,8.2,8.2,0,0,0,.749-4.708,3.276,3.276,0,0,0-.167-.516,3.636,3.636,0,0,0-.928-1.323,2.567,2.567,0,0,0-2.416-.69c-1.167.325-1.865,1.49-2.426,2.563-4.121,7.839-8.15,16.379-9.882,25.193-.209,1.066-.387,2.131-.525,3.2-.012.111-.031.218-.039.327C-2536.025-6123.117-2536.046-6122.956-2536.062-6122.8Z" transform="translate(2676.866 6561.91)"/><path class="b" d="M-2506.4-6041.5a9.02,9.02,0,0,1,.146-.905c.061-.3.144-.593.236-.891.023-.083.051-.167.083-.253a15.162,15.162,0,0,1,1.407-2.974c1.968-3.3,5.05-6.394,7.236-8.816a30.29,30.29,0,0,0,6.586-10.685,8.2,8.2,0,0,0,.749-4.708,3.017,3.017,0,0,0-.174-.535,3.635,3.635,0,0,0-1.043-1.408,2.512,2.512,0,0,0-2.3-.592,4.555,4.555,0,0,0-2.424,2.567,110.935,110.935,0,0,0-8.607,20.029,55.4,55.4,0,0,0-1.569,6.8c-.019.107-.038.215-.051.325-.063.378-.117.752-.169,1.131C-2506.327-6042.113-2506.365-6041.809-2506.4-6041.5Z" transform="translate(2659.143 6513.335)"/><g transform="translate(4.606 0.315)"><g transform="translate(51.161 97.96)"><path class="b" d="M-2633.48-6507.991l.051-.02a.994.994,0,0,0,.523-1.305c-38.314-89.589-103.872-262.258-112.451-412.1a1,1,0,0,0-1.05-.937,1,1,0,0,0-.936,1.05c8.6,150.143,74.243,323.058,112.608,412.767A.994.994,0,0,0-2633.48-6507.991Z" transform="translate(2747.344 6922.352)"/></g><g transform="translate(34.716)"><path class="b" d="M-2770.065-7067.15c0-.111,0-.223,0-.334.007-.214.013-.429.018-.647a258.3,258.3,0,0,0-4.9-56.162,233.86,233.86,0,0,0-11.866-41.445,8.206,8.206,0,0,0-1.39.528,231.916,231.916,0,0,1,11.949,41.949,258.558,258.558,0,0,1,4.735,54.668c0,.4-.017.795-.025,1.195,0,.123-.006.246-.009.368C-2771.576-7066.069-2770.088-7066.2-2770.065-7067.15Z" transform="translate(2788.202 7165.739)"/></g><g transform="translate(0 83.991)"><path class="b" d="M-2874.455-6956.466c1.644,1.4,3.27,2.824,4.9,4.224,6.307,5.4,12.576,10.854,18.6,16.576a197.1,197.1,0,0,1,30.226,36.254q.75,1.164,1.48,2.345c.036.056.071.106.1.164.123.193.24.383.359.578.5.823,1.718-.049,1.215-.861q-.979-1.6-1.992-3.168l-.107-.162c-.208-.321-.417-.647-.628-.967a199.4,199.4,0,0,0-29.705-35.333c-6.246-5.935-12.762-11.581-19.305-17.185-1.186-1.018-2.369-2.041-3.565-3.055A9.158,9.158,0,0,0-2874.455-6956.466Z" transform="translate(2874.455 6957.058)"/></g><g transform="translate(0.81 136.749)"><path class="b" d="M-2872.443-6825.474c6.978,4.445,13.525,9.784,20.243,14.213a164.258,164.258,0,0,1,20.172,15.371q10.144,9.2,20.222,18.465a.137.137,0,0,1,.031.026.675.675,0,0,0,1.043-.142.737.737,0,0,0-.093-1.009c-.452-.412-.9-.824-1.352-1.238a.324.324,0,0,1-.047-.041c-.2-.173-.387-.351-.578-.525-6.315-5.777-12.611-11.572-18.964-17.309a175.9,175.9,0,0,0-21.019-15.761c-5.966-3.952-11.761-8.548-17.854-12.555-.26.042-.514.1-.771.165A8.893,8.893,0,0,0-2872.443-6825.474Z" transform="translate(2872.443 6825.979)"/></g><g transform="translate(11.376 192.178)"><path class="b" d="M-2846.192-6687.29c7.373,3.222,13.924,7.7,20.5,12.347,7.188,5.078,14.373,10.179,21.3,15.617,3.4,2.667,6.733,5.413,9.967,8.271,3.071,2.716,6.478,5.512,9.051,8.749a.133.133,0,0,1,.023.034c.1.122.194.241.287.366.045.052.088.111.129.165a.7.7,0,0,0,.677.288.273.273,0,0,0,.089-.016.722.722,0,0,0,.452-1.139,31.145,31.145,0,0,0-2.332-2.722s-.008-.008-.016-.015c-1.1-1.15-2.274-2.245-3.459-3.316-.86-.776-1.728-1.545-2.572-2.306-3.316-3-6.75-5.867-10.253-8.648-7.022-5.567-14.32-10.775-21.636-15.943-6.63-4.683-13.232-9.4-20.67-12.7A8.725,8.725,0,0,0-2846.192-6687.29Z" transform="translate(2846.192 6688.262)"/></g><g transform="translate(28.772 240.263)"><path class="b" d="M-2802.97-6567.512c18.535,10.475,36.795,21.517,52.648,35.843.21.183.408.364.6.553a.278.278,0,0,1,.071.063c.208.179.408.365.608.551a.7.7,0,0,0,1.129-.285.716.716,0,0,0,.068-.395.716.716,0,0,0-.242-.473c-.093-.083-.184-.171-.277-.253-.654-.6-1.317-1.2-1.982-1.791-.024-.022-.047-.041-.069-.06-15.662-13.915-33.6-24.745-51.792-35.033A6.833,6.833,0,0,0-2802.97-6567.512Z" transform="translate(2802.97 6568.792)"/></g><g transform="translate(43.633 279.612)"><path class="b" d="M-2766.047-6470.337c7.642,4.844,15.048,10.144,22.343,15.373a196.985,196.985,0,0,1,27.673,23.568,1.25,1.25,0,0,1,.126.129c.074.073.142.144.208.221.287.292.563.583.84.879a.617.617,0,0,0,1.02-.134.681.681,0,0,0,.1-.2.25.25,0,0,0,.028-.084.657.657,0,0,0,.019-.208.677.677,0,0,0-.118-.4.821.821,0,0,0-.093-.125c-.01-.012-.026-.027-.036-.04-.562-.6-1.128-1.192-1.7-1.782-.384-.4-.777-.8-1.169-1.187a1.125,1.125,0,0,0-.124-.124,203.42,203.42,0,0,0-26.563-22.195c-6.837-4.873-13.758-9.815-20.886-14.381A7.248,7.248,0,0,0-2766.047-6470.337Z" transform="translate(2766.047 6471.027)"/></g><g transform="translate(60.422 323.052)"><path class="b" d="M-2724.333-6362.21c16.166,9.466,30.759,21.5,45.14,33.5l.159.132c.137.114.275.233.412.347s.3.254.456.379a.675.675,0,0,0,.622.154.32.32,0,0,0,.062-.017.817.817,0,0,0,.509-.594.646.646,0,0,0-.217-.667l-.024-.022c-.9-.748-1.8-1.5-2.693-2.246-.053-.044-.1-.085-.153-.13-.084-.07-.166-.135-.25-.205-13.574-11.311-27.4-22.524-42.6-31.517A6.642,6.642,0,0,0-2724.333-6362.21Z" transform="translate(2724.333 6363.099)"/></g><g transform="translate(71.117 355.494)"><path class="b" d="M-2697.76-6281.469a135.961,135.961,0,0,1,17.982,10.381c9.442,6.616,18.128,14.408,26.982,21.793.063.056.125.108.2.161.292.248.588.495.884.741a.653.653,0,0,0,.754.1.812.812,0,0,0,.436-.519.6.6,0,0,0,0-.385.2.2,0,0,0-.027-.075.691.691,0,0,0-.208-.268c-.008-.008-.014-.011-.022-.019-.925-.764-1.847-1.538-2.766-2.314-.061-.052-.122-.1-.19-.159-8.43-7.107-16.768-14.5-25.841-20.723a139.867,139.867,0,0,0-16.889-9.736A6.573,6.573,0,0,0-2697.76-6281.469Z" transform="translate(2697.76 6282.494)"/></g><g transform="translate(89.859 395.526)"><path class="b" d="M-2651.2-6182.087a175.922,175.922,0,0,1,39.007,28.886c.213.208.422.418.628.634.088.084.177.168.257.255.213.208.424.423.635.637.673.686,1.618-.468.951-1.151-.925-.938-1.857-1.868-2.81-2.785-.078-.082-.167-.167-.249-.247-.063-.057-.122-.115-.186-.176a177.4,177.4,0,0,0-36.857-27A5.665,5.665,0,0,0-2651.2-6182.087Z" transform="translate(2651.195 6183.033)"/></g><g transform="translate(111.355 436.59)"><path class="b" d="M-2597.787-6080.209a145.1,145.1,0,0,1,30.138,23.029q1.015,1.019,2.006,2.073c.105.115.216.229.321.344.215.228.426.458.637.688a.8.8,0,0,0,1.393-.493.58.58,0,0,0-.109-.284c-.021-.029-.043-.058-.071-.09q-1.608-1.755-3.281-3.439l-.3-.3c-.277-.28-.557-.554-.836-.828a148.07,148.07,0,0,0-28.33-21.5A4.335,4.335,0,0,0-2597.787-6080.209Z" transform="translate(2597.787 6081.008)"/></g><g transform="translate(130.417 469.927)"><path class="b" d="M-2550.427-5997.271A88.827,88.827,0,0,1-2527.352-5980c.207.221.415.441.624.667.117.132.239.262.355.394.281.305.557.612.834.923a.815.815,0,0,0,1.374-.311.593.593,0,0,0-.16-.556l-.131-.143q-1.5-1.7-3.084-3.289c-.125-.124-.243-.245-.372-.367-.1-.11-.21-.214-.323-.321a90.976,90.976,0,0,0-20.729-15.184A3.525,3.525,0,0,0-2550.427-5997.271Z" transform="translate(2550.427 5998.18)"/></g><g transform="translate(147.736 440.346)"><path class="b" d="M-2506.886-6041.419a.174.174,0,0,0,.036.014.814.814,0,0,0,.579-.037.507.507,0,0,0,.139-.1.648.648,0,0,0,.212-.421,22.576,22.576,0,0,1,.8-3.562c1.874-6.076,6.064-11.156,9.624-16.4a61.576,61.576,0,0,0,4.772-8.346,3.623,3.623,0,0,0-1.043-1.408,71.828,71.828,0,0,1-6.581,11.25,73.252,73.252,0,0,0-6.746,10.754,26.318,26.318,0,0,0-1.989,5.748c-.027.1-.048.2-.066.3-.093.457-.171.925-.238,1.394A.724.724,0,0,0-2506.886-6041.419Z" transform="translate(2507.397 6071.676)"/></g><g transform="translate(135.071 407.726)"><path class="b" d="M-2537.444-6121.513l.009-.019.08-.172q2.123-4.5,4.378-8.933,5.383-10.593,11.515-20.761a3.636,3.636,0,0,0-.928-1.323q-7.991,13.173-14.724,27.066c-.334.667-.657,1.346-.977,2.023a2.058,2.058,0,0,0-.089.191c-.205.424-.411.848-.609,1.275A.748.748,0,0,0-2537.444-6121.513Z" transform="translate(2538.865 6152.721)"/></g><g transform="translate(122.977 374.328)"><path class="b" d="M-2567.759-6204.513a.377.377,0,0,0,.109-.093.6.6,0,0,0,.13-.222.072.072,0,0,0,.012-.025c.023-.067.046-.134.071-.2.433-1.206.924-2.385,1.456-3.538,2.333-5.1,5.476-9.767,8.342-14.591a62.674,62.674,0,0,0,4.6-9.113c.126-.322.465-1.323.927-2.566a3.055,3.055,0,0,0-1.334-.842,77.333,77.333,0,0,1-3.523,8.33c-2.862,5.358-6.385,10.337-9.17,15.714a50.9,50.9,0,0,0-2.261,4.942c-.025.063-.05.124-.073.191-.133.345-.265.695-.388,1.041A.8.8,0,0,0-2567.759-6204.513Z" transform="translate(2568.912 6235.699)"/></g><g transform="translate(110.592 332.51)"><path class="b" d="M-2599.483-6299.262a.8.8,0,0,0,1.293-.387c.076-.3.156-.6.243-.9a1.333,1.333,0,0,1,.054-.2c.141-.527.288-1.052.446-1.576,2.178-7.347,5.395-14.4,8.541-21.369a84.547,84.547,0,0,1,8.878-15.846,2.837,2.837,0,0,0-1.343.046,3.187,3.187,0,0,0-.775.341,89.532,89.532,0,0,0-8.111,14.831q-.866,1.912-1.723,3.836a.247.247,0,0,0-.034.081,146.306,146.306,0,0,0-6.711,17.188c-.02.061-.041.121-.055.184q-.472,1.554-.878,3.12a.3.3,0,0,0-.016.085A.6.6,0,0,0-2599.483-6299.262Z" transform="translate(2599.683 6339.599)"/></g><g transform="translate(98.401 282.51)"><path class="b" d="M-2629.9-6413.634a.242.242,0,0,0,.077.109.811.811,0,0,0,1.227-.2,1.223,1.223,0,0,0,.055-.11.962.962,0,0,0,.053-.263,33.425,33.425,0,0,1,.442-4.067c1.71-10.267,7.711-19.437,11.859-28.857,2.445-5.555,4.633-11.249,7.105-16.8a5.2,5.2,0,0,0-2.469,1.965c-2.143,4.979-4.128,10.037-6.332,14.979-2.705,6.063-6.058,11.975-8.547,18.148a49.1,49.1,0,0,0-3.215,11.309c-.007.066-.015.133-.027.2-.149,1.071-.253,2.151-.3,3.249A.6.6,0,0,0-2629.9-6413.634Z" transform="translate(2629.972 6463.828)"/></g><g transform="translate(86.102 228.46)"><path class="b" d="M-2659.979-6534.387a.039.039,0,0,0,.032.015.631.631,0,0,0,.822-.4l.19-.509a.834.834,0,0,1,.035-.092q1.733-4.649,3.463-9.308,2.749-7.394,5.511-14.792a111.414,111.414,0,0,1,4.686-11.178c1.915-3.816,4.369-7.3,6.641-10.912,3.242-5.142,5.434-10.694,7.636-16.292a4.861,4.861,0,0,0-1.472-.263,97.638,97.638,0,0,1-5.565,12.668c-2.251,4.044-5.062,7.753-7.33,11.793a85.494,85.494,0,0,0-5.153,11.449c-3.036,7.94-5.962,15.935-8.918,23.9-.058.159-.112.316-.177.472a.5.5,0,0,1-.033.1l-.864,2.332A.778.778,0,0,0-2659.979-6534.387Z" transform="translate(2660.529 6598.117)"/></g><g transform="translate(76.926 193.754)"><path class="b" d="M-2682.417-6624.085a.382.382,0,0,0,.142-.047.031.031,0,0,0,.028-.01.657.657,0,0,0,.339-.362q8.914-20.629,19.269-40.589,4.886-9.388,10.083-18.609a5.785,5.785,0,0,0-1.352-.644q-3.357,5.964-6.588,12-11.3,21.126-20.956,43.073-.661,1.5-1.317,3c-.006.013-.01.03-.016.043l-.474,1.094A.769.769,0,0,0-2682.417-6624.085Z" transform="translate(2683.328 6684.346)"/></g><g transform="translate(67.517 132.602)"><path class="b" d="M-2705.531-6754.295a.707.707,0,0,0,.305-.439c2.05-9.1,6.876-17.216,11.013-25.447,4.314-8.586,7.63-17.613,12.151-26.111,5.3-9.978,11.158-19.694,17.159-29.314a8.235,8.235,0,0,0-1.093-.676q-1.212,1.967-2.414,3.93c-5.31,8.653-10.724,17.271-15.447,26.26-4.612,8.785-7.981,18.132-12.553,26.924-2.532,4.867-5.182,9.776-7.278,14.881a64.021,64.021,0,0,0-2.209,6.23c0,.007,0,.018-.007.024-.288.994-.553,2-.78,3.01A.737.737,0,0,0-2705.531-6754.295Z" transform="translate(2706.705 6836.282)"/></g><g transform="translate(54.592 46.47)"><path class="b" d="M-2737.674-6958.781a.6.6,0,0,0,.327-.527c.05-.59.1-1.173.152-1.759.01-.163.024-.327.038-.49.165-1.913.347-3.821.561-5.714a76.767,76.767,0,0,1,3.389-16.256c1.234-3.61,2.851-7.069,4.175-10.648,1.4-3.774,2.489-7.655,3.6-11.523q3.593-12.52,7.162-25.047c1.84-6.461,3.77-12.907,5.541-19.4a6.749,6.749,0,0,0-1.538-.138c-4.533,16.166-9.073,32.344-13.829,48.449-2.19,7.415-5.687,14.353-7.749,21.8a69.516,69.516,0,0,0-1.821,9.079c-.1.7-.194,1.4-.274,2.106-.019.165-.043.333-.055.5-.344,2.915-.578,5.843-.823,8.769A.814.814,0,0,0-2737.674-6958.781Z" transform="translate(2738.819 7050.282)"/></g><g transform="translate(59.767 88.214)"><path class="b" d="M-2724.792-6860.58a.65.65,0,0,0,.306-.5c.038-.273.081-.548.123-.823.008-.051.018-.1.026-.147a39.938,39.938,0,0,1,3.166-9.294c1.118-2.435,2.333-4.805,3.383-7.061,7.294-15.649,15.439-30.909,23.556-46.145,2.655-4.98,5.363-9.932,7.951-14.951a68.129,68.129,0,0,0,2.813-6.218,7.871,7.871,0,0,0-1.358-.85,75.373,75.373,0,0,1-3.6,7.961c-7.018,13.33-14.21,26.561-21.061,39.973-3.863,7.56-7.671,15.151-11.168,22.89-.881,1.951-1.869,3.984-2.764,6.073-.558,1.3-1.075,2.61-1.5,3.935-.013.037-.026.073-.034.108a24.539,24.539,0,0,0-1,4.281A.786.786,0,0,0-2724.792-6860.58Z" transform="translate(2725.962 6946.566)"/></g></g></g><g transform="translate(-3333.615 -6942.912)"><path class="b" d="M-3319.81-6570.4a.37.37,0,0,1-.26-.1,41.963,41.963,0,0,1-6.682-7.9c-.054-.083-.109-.167-.162-.252a.368.368,0,0,1,.177-.542l2.327-.891a.367.367,0,0,0-.188-.705l-3.051.478a.37.37,0,0,1-.378-.182,42.874,42.874,0,0,1-4.822-13.168.368.368,0,0,1,.314-.432c1.978-.262,4.157-.584,5.469-.782a.367.367,0,0,0,.1-.7l-6.333-2.935a.371.371,0,0,1-.213-.31,42.216,42.216,0,0,1,.843-11.847.37.37,0,0,1,.44-.282,41.824,41.824,0,0,1,5.418,1.58.373.373,0,0,1,.225.235l.869,2.737a.367.367,0,0,0,.712-.05l.272-1.6a.368.368,0,0,1,.51-.275,43.585,43.585,0,0,1,13.833,9.7.37.37,0,0,1,.08.379l-2.047,5.72a.367.367,0,0,0,.635.35l3.023-3.874a.368.368,0,0,1,.575-.007q.961,1.184,1.834,2.437a42.92,42.92,0,0,1,6.752,15.812c.905,4.384,1.5,9.623.711,14.083-.836,4.733-4.334,3.071-7.861,1.666a43.441,43.441,0,0,1-11.167-6.537.367.367,0,0,1,.161-.648c1-.185,2.02-.374,2.98-.548a.367.367,0,0,0-.075-.728Z" transform="translate(3333.615 6610.95)"/><path class="b" d="M-3326.751-6578.312l-.155-.241a.377.377,0,0,1,.183-.557l2.223-.852a.377.377,0,0,0-.193-.725l-2.947.462a.38.38,0,0,1-.388-.187,42.874,42.874,0,0,1-4.817-13.152.378.378,0,0,1,.323-.444c1.958-.259,4.11-.577,5.424-.775a.377.377,0,0,0,.1-.715l-6.3-2.917a.378.378,0,0,1-.219-.317,42.3,42.3,0,0,1,.713-11.219c.14-.868.238-1.3.973-.194l32.5,47.7a.383.383,0,0,1,.027.381c-1.3,2.724-4.334,1.314-7.39.1a43.444,43.444,0,0,1-11.149-6.522.378.378,0,0,1,.165-.667c.945-.176,1.914-.354,2.83-.521a.377.377,0,0,0-.077-.749l-4.885.109a.384.384,0,0,1-.267-.1A41.965,41.965,0,0,1-3326.751-6578.312Z" transform="translate(3333.614 6610.865)"/></g></g></svg>